<svg width="48" height="49" viewBox="0 0 48 49" fill="none" xmlns="http://www.w3.org/2000/svg">
<path d="M37.5611 26.0191C31.7952 26.0191 27.1218 30.79 27.1218 36.6755C27.1218 42.5613 31.7952 47.3326 37.5611 47.3326C43.3263 47.3326 48 42.5613 48 36.6755C48 30.79 43.3263 26.0191 37.5611 26.0191ZM10.4391 26.0198C4.67392 26.0198 0 30.79 0 36.676C0 42.5613 4.67392 47.3326 10.4391 47.3326C16.2047 47.3326 20.8788 42.5613 20.8788 36.676C20.8788 30.79 16.2047 26.0198 10.4391 26.0198ZM34.4388 12.6981C34.4388 18.5836 29.7655 23.3556 24.0003 23.3556C18.2345 23.3556 13.561 18.5836 13.561 12.6981C13.561 6.81298 18.2345 2.04169 24.0003 2.04169C29.7655 2.04169 34.4388 6.81298 34.4388 12.6981Z" fill="url(#paint0_radial_1389_41635)"/>
<defs>
<radialGradient id="paint0_radial_1389_41635" cx="0" cy="0" r="1" gradientUnits="userSpaceOnUse" gradientTransform="translate(24 26.7942) scale(31.8064 30.0113)">
<stop stop-color="#FFB900"/>
<stop offset="0.6" stop-color="#F95D8F"/>
<stop offset="0.9991" stop-color="#F95353"/>
</radialGradient>
</defs>
</svg>
