<svg width="48" height="48" viewBox="0 0 48 48" fill="none" xmlns="http://www.w3.org/2000/svg">
<g clip-path="url(#clip0_1389_40501)">
<path d="M0 24C0 10.7452 10.7452 0 24 0C37.2548 0 48 10.7452 48 24C48 37.2548 37.2548 48 24 48C10.7452 48 0 37.2548 0 24Z" fill="white"/>
<path d="M12 25.4936C13.8749 20.1778 17.4738 14 24.7148 14C31.9557 14 35.5618 23.5325 36 29.9976C34.0964 33.302 29.5349 34.5447 24.7148 34.5447C20.7567 34.6175 16.9647 32.9563 14.3346 29.9976C14.3346 29.9976 16.6118 23.8701 18.7237 23.8557C20.2825 23.8557 21.5971 26.7291 22.8399 26.7291C24.0826 26.7291 26.6687 21.2122 26.6687 21.2122" stroke="#1D2D35" stroke-width="3" stroke-linecap="round" stroke-linejoin="round"/>
</g>
<defs>
<clipPath id="clip0_1389_40501">
<rect width="48" height="48" fill="white"/>
</clipPath>
</defs>
</svg>
