<svg width="48" height="48" viewBox="0 0 48 48" fill="none" xmlns="http://www.w3.org/2000/svg">
<g clip-path="url(#clip0_1389_40782)">
<path d="M0 24C0 10.7452 10.7452 0 24 0C37.2548 0 48 10.7452 48 24C48 37.2548 37.2548 48 24 48C10.7452 48 0 37.2548 0 24Z" fill="white"/>
<path d="M24 16.64C26.2533 16.64 27.7733 17.6133 28.64 18.4267L32.0267 15.12C29.9467 13.1867 27.24 12 24 12C19.3067 12 15.2533 14.6933 13.28 18.6133L17.16 21.6267C18.1333 18.7333 20.8267 16.64 24 16.64Z" fill="#EA4335"/>
<path d="M35.52 24.2667C35.52 23.28 35.44 22.56 35.2667 21.8133H24V26.2667H30.6133C30.48 27.3733 29.76 29.04 28.16 30.16L31.9467 33.0933C34.2133 31 35.52 27.92 35.52 24.2667Z" fill="#4285F4"/>
<path d="M17.1733 26.3734C16.92 25.6267 16.7733 24.8267 16.7733 24C16.7733 23.1734 16.92 22.3734 17.16 21.6267L13.28 18.6134C12.4667 20.24 12 22.0667 12 24C12 25.9334 12.4667 27.76 13.28 29.3867L17.1733 26.3734Z" fill="#FBBC05"/>
<path d="M24 36C27.24 36 29.96 34.9333 31.9467 33.0933L28.16 30.16C27.1467 30.8667 25.7867 31.36 24 31.36C20.8267 31.36 18.1333 29.2667 17.1733 26.3733L13.2933 29.3867C15.2667 33.3067 19.3067 36 24 36Z" fill="#34A853"/>
</g>
<defs>
<clipPath id="clip0_1389_40782">
<rect width="48" height="48" fill="white"/>
</clipPath>
</defs>
</svg>
