<svg width="191" height="18" viewBox="0 0 191 18" fill="none" xmlns="http://www.w3.org/2000/svg">
<path d="M3 8.63636C3 8.17045 3.11364 7.74574 3.34091 7.36222C3.56818 6.97869 3.87358 6.6733 4.2571 6.44602C4.64063 6.21875 5.06534 6.10511 5.53125 6.10511C5.93466 6.10511 6.30682 6.19176 6.64773 6.36506C6.99148 6.53835 7.27557 6.77557 7.5 7.0767C7.72443 7.375 7.86364 7.71307 7.91761 8.09091H6.88636C6.82955 7.7983 6.67188 7.55966 6.41335 7.375C6.15483 7.1875 5.8608 7.09375 5.53125 7.09375C5.24716 7.09375 4.98864 7.16335 4.75568 7.30256C4.52273 7.44176 4.33665 7.62784 4.19744 7.8608C4.05824 8.09375 3.98864 8.35227 3.98864 8.63636C3.98864 8.92045 4.05824 9.17898 4.19744 9.41193C4.33665 9.64489 4.52273 9.83097 4.75568 9.97017C4.98864 10.1094 5.24716 10.179 5.53125 10.179C5.8608 10.179 6.1392 10.0866 6.36648 9.90199C6.59659 9.71449 6.74148 9.47443 6.80114 9.18182H7.83239C7.77841 9.55966 7.64631 9.89915 7.43608 10.2003C7.22585 10.4986 6.95597 10.7344 6.62642 10.9077C6.29972 11.081 5.93466 11.1676 5.53125 11.1676C5.06534 11.1676 4.64063 11.054 4.2571 10.8267C3.87358 10.5994 3.56818 10.294 3.34091 9.91051C3.11364 9.52699 3 9.10227 3 8.63636ZM5.48864 13.1364C4.86932 13.1364 4.28693 13.0199 3.74148 12.7869C3.19886 12.554 2.72017 12.2315 2.3054 11.8196C1.89347 11.4048 1.5696 10.9261 1.33381 10.3835C1.10085 9.84091 0.985795 9.25852 0.988636 8.63636C0.991477 8.0142 1.10938 7.43182 1.34233 6.8892C1.57813 6.34659 1.90199 5.86932 2.31392 5.45739C2.72585 5.04261 3.20313 4.71875 3.74574 4.4858C4.28835 4.25284 4.86932 4.13636 5.48864 4.13636C6.1108 4.13636 6.69318 4.25284 7.2358 4.4858C7.78125 4.71875 8.25852 5.04261 8.66761 5.45739C9.07955 5.86932 9.40199 6.34659 9.63494 6.8892C9.8679 7.43182 9.9858 8.0142 9.98864 8.63636C9.99148 9.25852 9.87642 9.84091 9.64347 10.3835C9.41051 10.9261 9.08807 11.4048 8.67614 11.8196C8.2642 12.2315 7.78551 12.554 7.24006 12.7869C6.6946 13.0199 6.1108 13.1364 5.48864 13.1364ZM5.48864 12.1477C5.97443 12.1477 6.4304 12.0568 6.85653 11.875C7.28267 11.6932 7.65625 11.4418 7.97727 11.1207C8.2983 10.7997 8.54972 10.4276 8.73153 10.0043C8.91335 9.57812 9.00284 9.12358 9 8.64062C8.99716 8.15483 8.90483 7.69886 8.72301 7.27273C8.54119 6.84659 8.28977 6.47301 7.96875 6.15199C7.64773 5.83097 7.27557 5.57955 6.85227 5.39773C6.42898 5.21591 5.97443 5.125 5.48864 5.125C5.00568 5.125 4.55256 5.21591 4.12926 5.39773C3.70597 5.57955 3.33381 5.83239 3.01278 6.15625C2.69176 6.47727 2.43892 6.85085 2.25426 7.27699C2.07244 7.70028 1.98011 8.15483 1.97727 8.64062C1.97443 9.12074 2.06392 9.57386 2.24574 10C2.42756 10.4233 2.67898 10.7955 3 11.1165C3.32386 11.4375 3.69744 11.6903 4.12074 11.875C4.54688 12.0568 5.00284 12.1477 5.48864 12.1477ZM15.2589 13V12.233L18.1396 9.07955C18.4776 8.71023 18.756 8.3892 18.9748 8.11648C19.1935 7.84091 19.3555 7.58239 19.4606 7.34091C19.5685 7.09659 19.6225 6.84091 19.6225 6.57386C19.6225 6.26705 19.5487 6.00142 19.4009 5.77699C19.256 5.55256 19.0572 5.37926 18.8043 5.2571C18.5515 5.13494 18.2674 5.07386 17.9521 5.07386C17.6168 5.07386 17.3242 5.14347 17.0742 5.28267C16.8271 5.41903 16.6353 5.6108 16.4989 5.85795C16.3654 6.10511 16.2987 6.39489 16.2987 6.72727H15.293C15.293 6.21591 15.4109 5.76705 15.6467 5.38068C15.8825 4.99432 16.2035 4.69318 16.6097 4.47727C17.0188 4.26136 17.4776 4.15341 17.9862 4.15341C18.4975 4.15341 18.9506 4.26136 19.3455 4.47727C19.7404 4.69318 20.0501 4.98437 20.2745 5.35085C20.4989 5.71733 20.6112 6.125 20.6112 6.57386C20.6112 6.89489 20.5529 7.20881 20.4364 7.51562C20.3228 7.8196 20.1239 8.15909 19.8398 8.53409C19.5586 8.90625 19.168 9.3608 18.668 9.89773L16.7077 11.9943V12.0625H20.7646V13H15.2589ZM25.3711 13.1193C24.729 13.1193 24.1822 12.9446 23.7305 12.5952C23.2788 12.2429 22.9336 11.733 22.695 11.0653C22.4563 10.3949 22.337 9.58523 22.337 8.63636C22.337 7.69318 22.4563 6.88778 22.695 6.22017C22.9364 5.54972 23.283 5.03835 23.7347 4.68608C24.1893 4.33097 24.7347 4.15341 25.3711 4.15341C26.0075 4.15341 26.5515 4.33097 27.0032 4.68608C27.4577 5.03835 27.8043 5.54972 28.043 6.22017C28.2844 6.88778 28.4052 7.69318 28.4052 8.63636C28.4052 9.58523 28.2859 10.3949 28.0472 11.0653C27.8086 11.733 27.4634 12.2429 27.0117 12.5952C26.56 12.9446 26.0131 13.1193 25.3711 13.1193ZM25.3711 12.1818C26.0075 12.1818 26.5018 11.875 26.854 11.2614C27.2063 10.6477 27.3825 9.77273 27.3825 8.63636C27.3825 7.88068 27.3015 7.23722 27.1396 6.70597C26.9805 6.17472 26.7504 5.76989 26.4492 5.49148C26.1509 5.21307 25.7915 5.07386 25.3711 5.07386C24.7404 5.07386 24.2475 5.38494 23.8924 6.0071C23.5373 6.62642 23.3597 7.50284 23.3597 8.63636C23.3597 9.39205 23.4393 10.0341 23.5984 10.5625C23.7575 11.0909 23.9862 11.4929 24.2844 11.7685C24.5856 12.044 24.9478 12.1818 25.3711 12.1818ZM30.0245 13V12.233L32.9052 9.07955C33.2433 8.71023 33.5217 8.3892 33.7404 8.11648C33.9592 7.84091 34.1211 7.58239 34.2262 7.34091C34.3342 7.09659 34.3881 6.84091 34.3881 6.57386C34.3881 6.26705 34.3143 6.00142 34.1665 5.77699C34.0217 5.55256 33.8228 5.37926 33.57 5.2571C33.3171 5.13494 33.033 5.07386 32.7177 5.07386C32.3825 5.07386 32.0898 5.14347 31.8398 5.28267C31.5927 5.41903 31.4009 5.6108 31.2646 5.85795C31.131 6.10511 31.0643 6.39489 31.0643 6.72727H30.0586C30.0586 6.21591 30.1765 5.76705 30.4123 5.38068C30.6481 4.99432 30.9691 4.69318 31.3754 4.47727C31.7844 4.26136 32.2433 4.15341 32.7518 4.15341C33.2631 4.15341 33.7163 4.26136 34.1112 4.47727C34.506 4.69318 34.8157 4.98437 35.0401 5.35085C35.2646 5.71733 35.3768 6.125 35.3768 6.57386C35.3768 6.89489 35.3185 7.20881 35.2021 7.51562C35.0884 7.8196 34.8896 8.15909 34.6055 8.53409C34.3242 8.90625 33.9336 9.3608 33.4336 9.89773L31.4734 11.9943V12.0625H35.5302V13H30.0245ZM37.2901 13V12.233L40.1708 9.07955C40.5089 8.71023 40.7873 8.3892 41.006 8.11648C41.2248 7.84091 41.3867 7.58239 41.4918 7.34091C41.5998 7.09659 41.6538 6.84091 41.6538 6.57386C41.6538 6.26705 41.5799 6.00142 41.4322 5.77699C41.2873 5.55256 41.0884 5.37926 40.8356 5.2571C40.5827 5.13494 40.2987 5.07386 39.9833 5.07386C39.6481 5.07386 39.3555 5.14347 39.1055 5.28267C38.8583 5.41903 38.6665 5.6108 38.5302 5.85795C38.3967 6.10511 38.3299 6.39489 38.3299 6.72727H37.3242C37.3242 6.21591 37.4421 5.76705 37.6779 5.38068C37.9137 4.99432 38.2347 4.69318 38.641 4.47727C39.0501 4.26136 39.5089 4.15341 40.0174 4.15341C40.5288 4.15341 40.9819 4.26136 41.3768 4.47727C41.7717 4.69318 42.0813 4.98437 42.3058 5.35085C42.5302 5.71733 42.6424 6.125 42.6424 6.57386C42.6424 6.89489 42.5842 7.20881 42.4677 7.51562C42.354 7.8196 42.1552 8.15909 41.8711 8.53409C41.5898 8.90625 41.1992 9.3608 40.6992 9.89773L38.739 11.9943V12.0625H42.7958V13H37.2901ZM52.8569 6.45455C52.8058 6.02273 52.5984 5.6875 52.2347 5.44886C51.8711 5.21023 51.4251 5.09091 50.8967 5.09091C50.5103 5.09091 50.1722 5.15341 49.8825 5.27841C49.5955 5.40341 49.3711 5.57528 49.2092 5.79403C49.0501 6.01278 48.9705 6.26136 48.9705 6.53977C48.9705 6.77273 49.0259 6.97301 49.1367 7.14062C49.2504 7.3054 49.3952 7.44318 49.5714 7.55398C49.7475 7.66193 49.9322 7.75142 50.1254 7.82244C50.3185 7.89062 50.4961 7.94602 50.658 7.98864L51.5444 8.22727C51.7717 8.28693 52.0245 8.36932 52.3029 8.47443C52.5842 8.57955 52.8526 8.72301 53.1083 8.90483C53.3668 9.08381 53.5799 9.31392 53.7475 9.59517C53.9151 9.87642 53.9989 10.2216 53.9989 10.6307C53.9989 11.1023 53.8754 11.5284 53.6282 11.9091C53.3839 12.2898 53.0259 12.5923 52.5543 12.8168C52.0856 13.0412 51.516 13.1534 50.8455 13.1534C50.2205 13.1534 49.6793 13.0526 49.2219 12.8509C48.7674 12.6491 48.4094 12.3679 48.1481 12.0071C47.8896 11.6463 47.7433 11.2273 47.7092 10.75H48.8001C48.8285 11.0795 48.9393 11.3523 49.1325 11.5682C49.3285 11.7812 49.5756 11.9403 49.8739 12.0455C50.1751 12.1477 50.4989 12.1989 50.8455 12.1989C51.2489 12.1989 51.6112 12.1335 51.9322 12.0028C52.2532 11.8693 52.5075 11.6847 52.695 11.4489C52.8825 11.2102 52.9762 10.9318 52.9762 10.6136C52.9762 10.3239 52.8952 10.0881 52.7333 9.90625C52.5714 9.72443 52.3583 9.5767 52.0941 9.46307C51.8299 9.34943 51.5444 9.25 51.2376 9.16477L50.1637 8.85795C49.4819 8.66193 48.9421 8.3821 48.5444 8.01847C48.1467 7.65483 47.9478 7.17898 47.9478 6.59091C47.9478 6.10227 48.0799 5.67614 48.3441 5.3125C48.6112 4.94602 48.9691 4.66193 49.418 4.46023C49.8697 4.25568 50.3739 4.15341 50.9308 4.15341C51.4933 4.15341 51.9933 4.25426 52.4308 4.45597C52.8683 4.65483 53.2148 4.92756 53.4705 5.27415C53.729 5.62074 53.8654 6.0142 53.8796 6.45455H52.8569ZM56.6058 9.0625V13H55.6001V6.45455H56.5717V7.47727H56.657C56.8104 7.14489 57.0433 6.87784 57.3558 6.67614C57.6683 6.47159 58.0717 6.36932 58.5661 6.36932C59.0092 6.36932 59.397 6.46023 59.7294 6.64205C60.0618 6.82102 60.3203 7.09375 60.505 7.46023C60.6896 7.82386 60.782 8.28409 60.782 8.84091V13H59.7763V8.90909C59.7763 8.39489 59.6428 7.99432 59.3757 7.70739C59.1087 7.41761 58.7422 7.27273 58.2763 7.27273C57.9553 7.27273 57.6683 7.34233 57.4155 7.48153C57.1655 7.62074 56.968 7.82386 56.8232 8.09091C56.6783 8.35795 56.6058 8.68182 56.6058 9.0625ZM65.2788 13.1364C64.6879 13.1364 64.1694 12.9957 63.7234 12.7145C63.2802 12.4332 62.9336 12.0398 62.6836 11.5341C62.4364 11.0284 62.3129 10.4375 62.3129 9.76136C62.3129 9.07955 62.4364 8.48437 62.6836 7.97585C62.9336 7.46733 63.2802 7.07244 63.7234 6.79119C64.1694 6.50994 64.6879 6.36932 65.2788 6.36932C65.8697 6.36932 66.3867 6.50994 66.8299 6.79119C67.2759 7.07244 67.6225 7.46733 67.8697 7.97585C68.1197 8.48437 68.2447 9.07955 68.2447 9.76136C68.2447 10.4375 68.1197 11.0284 67.8697 11.5341C67.6225 12.0398 67.2759 12.4332 66.8299 12.7145C66.3867 12.9957 65.8697 13.1364 65.2788 13.1364ZM65.2788 12.233C65.7276 12.233 66.0969 12.1179 66.3867 11.8878C66.6765 11.6577 66.891 11.3551 67.0302 10.9801C67.1694 10.6051 67.239 10.1989 67.239 9.76136C67.239 9.32386 67.1694 8.91619 67.0302 8.53835C66.891 8.16051 66.6765 7.85511 66.3867 7.62216C66.0969 7.3892 65.7276 7.27273 65.2788 7.27273C64.8299 7.27273 64.4606 7.3892 64.1708 7.62216C63.881 7.85511 63.6665 8.16051 63.5273 8.53835C63.3881 8.91619 63.3185 9.32386 63.3185 9.76136C63.3185 10.1989 63.3881 10.6051 63.5273 10.9801C63.6665 11.3551 63.881 11.6577 64.1708 11.8878C64.4606 12.1179 64.8299 12.233 65.2788 12.233ZM71.0401 13L69.0458 6.45455H70.1026L71.5174 11.4659H71.5856L72.9833 6.45455H74.0572L75.4379 11.4489H75.506L76.9208 6.45455H77.9776L75.9833 13H74.9947L73.5629 7.97159H73.4606L72.0288 13H71.0401ZM79.1495 13.0682C78.9393 13.0682 78.7589 12.9929 78.6083 12.8423C78.4577 12.6918 78.3825 12.5114 78.3825 12.3011C78.3825 12.0909 78.4577 11.9105 78.6083 11.7599C78.7589 11.6094 78.9393 11.5341 79.1495 11.5341C79.3597 11.5341 79.5401 11.6094 79.6907 11.7599C79.8413 11.9105 79.9165 12.0909 79.9165 12.3011C79.9165 12.4403 79.881 12.5682 79.81 12.6847C79.7418 12.8011 79.6495 12.8949 79.533 12.9659C79.4194 13.0341 79.2915 13.0682 79.1495 13.0682ZM85.5906 13H84.4826L87.6871 4.27273H88.7781L91.9826 13H90.8746L88.2667 5.65341H88.1985L85.5906 13ZM85.9996 9.59091H90.4656V10.5284H85.9996V9.59091ZM94.2113 4.27273V13H93.2056V4.27273H94.2113ZM97.0589 4.27273V13H96.0533V4.27273H97.0589ZM102.276 13V6.45455H103.248V7.44318H103.316C103.435 7.11932 103.651 6.85653 103.963 6.65483C104.276 6.45312 104.628 6.35227 105.02 6.35227C105.094 6.35227 105.186 6.35369 105.297 6.35653C105.408 6.35937 105.492 6.36364 105.549 6.36932V7.39205C105.515 7.38352 105.436 7.37074 105.314 7.35369C105.195 7.33381 105.069 7.32386 104.935 7.32386C104.617 7.32386 104.333 7.39062 104.083 7.52415C103.836 7.65483 103.64 7.83665 103.495 8.0696C103.353 8.29972 103.282 8.5625 103.282 8.85795V13H102.276ZM106.741 13V6.45455H107.746V13H106.741ZM107.252 5.36364C107.056 5.36364 106.887 5.29688 106.745 5.16335C106.606 5.02983 106.536 4.86932 106.536 4.68182C106.536 4.49432 106.606 4.33381 106.745 4.20028C106.887 4.06676 107.056 4 107.252 4C107.448 4 107.616 4.06676 107.755 4.20028C107.897 4.33381 107.968 4.49432 107.968 4.68182C107.968 4.86932 107.897 5.02983 107.755 5.16335C107.616 5.29688 107.448 5.36364 107.252 5.36364ZM112.23 15.5909C111.745 15.5909 111.327 15.5284 110.978 15.4034C110.628 15.2812 110.337 15.1193 110.104 14.9176C109.874 14.7188 109.691 14.5057 109.554 14.2784L110.355 13.7159C110.446 13.8352 110.561 13.9716 110.701 14.125C110.84 14.2812 111.03 14.4162 111.272 14.5298C111.516 14.6463 111.836 14.7045 112.23 14.7045C112.759 14.7045 113.195 14.5767 113.539 14.321C113.882 14.0653 114.054 13.6648 114.054 13.1193V11.7898H113.969C113.895 11.9091 113.79 12.0568 113.654 12.233C113.52 12.4062 113.327 12.5611 113.074 12.6974C112.824 12.831 112.486 12.8977 112.06 12.8977C111.532 12.8977 111.057 12.7727 110.637 12.5227C110.219 12.2727 109.888 11.9091 109.644 11.4318C109.402 10.9545 109.282 10.375 109.282 9.69318C109.282 9.02273 109.4 8.43892 109.635 7.94176C109.871 7.44176 110.199 7.0554 110.62 6.78267C111.04 6.5071 111.526 6.36932 112.077 6.36932C112.503 6.36932 112.841 6.44034 113.091 6.58239C113.344 6.72159 113.537 6.88068 113.671 7.05966C113.807 7.2358 113.912 7.38068 113.986 7.49432H114.088V6.45455H115.06V13.1875C115.06 13.75 114.932 14.2074 114.676 14.5597C114.424 14.9148 114.083 15.1747 113.654 15.3395C113.228 15.5071 112.753 15.5909 112.23 15.5909ZM112.196 11.9943C112.6 11.9943 112.941 11.902 113.219 11.7173C113.498 11.5327 113.709 11.267 113.854 10.9205C113.999 10.5739 114.071 10.1591 114.071 9.67614C114.071 9.20455 114 8.78835 113.858 8.42756C113.716 8.06676 113.506 7.78409 113.228 7.57955C112.949 7.375 112.605 7.27273 112.196 7.27273C111.77 7.27273 111.415 7.38068 111.131 7.59659C110.85 7.8125 110.638 8.10227 110.496 8.46591C110.357 8.82955 110.287 9.23295 110.287 9.67614C110.287 10.1307 110.358 10.5327 110.5 10.8821C110.645 11.2287 110.858 11.5014 111.14 11.7003C111.424 11.8963 111.776 11.9943 112.196 11.9943ZM117.907 9.0625V13H116.901V4.27273H117.907V7.47727H117.992C118.145 7.1392 118.375 6.87074 118.682 6.67188C118.992 6.47017 119.404 6.36932 119.918 6.36932C120.364 6.36932 120.755 6.45881 121.09 6.63778C121.425 6.81392 121.685 7.08523 121.87 7.4517C122.057 7.81534 122.151 8.27841 122.151 8.84091V13H121.145V8.90909C121.145 8.3892 121.01 7.98722 120.74 7.70312C120.473 7.41619 120.103 7.27273 119.628 7.27273C119.299 7.27273 119.003 7.34233 118.742 7.48153C118.483 7.62074 118.279 7.82386 118.128 8.09091C117.98 8.35795 117.907 8.68182 117.907 9.0625ZM126.837 6.45455V7.30682H123.445V6.45455H126.837ZM124.434 4.88636H125.44V11.125C125.44 11.4091 125.481 11.6222 125.563 11.7642C125.648 11.9034 125.756 11.9972 125.887 12.0455C126.021 12.0909 126.161 12.1136 126.309 12.1136C126.42 12.1136 126.511 12.108 126.582 12.0966C126.653 12.0824 126.71 12.071 126.752 12.0625L126.957 12.9659C126.888 12.9915 126.793 13.017 126.671 13.0426C126.549 13.071 126.394 13.0852 126.207 13.0852C125.923 13.0852 125.644 13.0241 125.371 12.902C125.102 12.7798 124.877 12.5938 124.698 12.3438C124.522 12.0938 124.434 11.7784 124.434 11.3977V4.88636ZM132.869 7.92045L131.966 8.17614C131.909 8.02557 131.825 7.87926 131.714 7.73722C131.607 7.59233 131.459 7.47301 131.271 7.37926C131.084 7.28551 130.844 7.23864 130.551 7.23864C130.151 7.23864 129.817 7.33097 129.55 7.51562C129.286 7.69744 129.153 7.92898 129.153 8.21023C129.153 8.46023 129.244 8.65767 129.426 8.80256C129.608 8.94744 129.892 9.06818 130.278 9.16477L131.25 9.40341C131.835 9.54545 132.271 9.76278 132.558 10.0554C132.845 10.3452 132.989 10.7187 132.989 11.1761C132.989 11.5511 132.881 11.8864 132.665 12.1818C132.452 12.4773 132.153 12.7102 131.77 12.8807C131.386 13.0511 130.94 13.1364 130.432 13.1364C129.764 13.1364 129.212 12.9915 128.774 12.7017C128.337 12.4119 128.06 11.9886 127.943 11.4318L128.898 11.1932C128.989 11.5455 129.161 11.8097 129.413 11.9858C129.669 12.1619 130.003 12.25 130.415 12.25C130.884 12.25 131.256 12.1506 131.531 11.9517C131.81 11.75 131.949 11.5085 131.949 11.2273C131.949 11 131.869 10.8097 131.71 10.6562C131.551 10.5 131.307 10.3835 130.977 10.3068L129.886 10.0511C129.287 9.90909 128.847 9.68892 128.565 9.39062C128.287 9.08949 128.148 8.71307 128.148 8.26136C128.148 7.89205 128.251 7.56534 128.459 7.28125C128.669 6.99716 128.955 6.77415 129.315 6.61222C129.679 6.45028 130.091 6.36932 130.551 6.36932C131.199 6.36932 131.707 6.51136 132.077 6.79545C132.449 7.07955 132.713 7.45455 132.869 7.92045ZM137.877 13V6.45455H138.849V7.44318H138.917C139.037 7.11932 139.252 6.85653 139.565 6.65483C139.877 6.45312 140.23 6.35227 140.622 6.35227C140.696 6.35227 140.788 6.35369 140.899 6.35653C141.01 6.35937 141.093 6.36364 141.15 6.36932V7.39205C141.116 7.38352 141.038 7.37074 140.916 7.35369C140.797 7.33381 140.67 7.32386 140.537 7.32386C140.218 7.32386 139.934 7.39062 139.684 7.52415C139.437 7.65483 139.241 7.83665 139.096 8.0696C138.954 8.29972 138.883 8.5625 138.883 8.85795V13H137.877ZM144.887 13.1364C144.257 13.1364 143.713 12.9972 143.255 12.7188C142.801 12.4375 142.45 12.0455 142.203 11.5426C141.958 11.0369 141.836 10.4489 141.836 9.77841C141.836 9.10795 141.958 8.51705 142.203 8.00568C142.45 7.49148 142.794 7.09091 143.234 6.80398C143.677 6.5142 144.194 6.36932 144.785 6.36932C145.126 6.36932 145.463 6.42614 145.795 6.53977C146.127 6.65341 146.43 6.83807 146.703 7.09375C146.975 7.34659 147.193 7.68182 147.355 8.09943C147.517 8.51705 147.598 9.03125 147.598 9.64205V10.0682H142.552V9.19886H146.575C146.575 8.82955 146.501 8.5 146.353 8.21023C146.208 7.92045 146.001 7.69176 145.731 7.52415C145.464 7.35653 145.149 7.27273 144.785 7.27273C144.385 7.27273 144.038 7.37216 143.745 7.57102C143.456 7.76705 143.233 8.02273 143.076 8.33807C142.92 8.65341 142.842 8.99148 142.842 9.35227V9.93182C142.842 10.4261 142.927 10.8452 143.098 11.1889C143.271 11.5298 143.511 11.7898 143.818 11.9688C144.125 12.1449 144.481 12.233 144.887 12.233C145.152 12.233 145.39 12.196 145.603 12.1222C145.819 12.0455 146.005 11.9318 146.162 11.7812C146.318 11.6278 146.439 11.4375 146.524 11.2102L147.495 11.483C147.393 11.8125 147.221 12.1023 146.98 12.3523C146.738 12.5994 146.44 12.7926 146.085 12.9318C145.73 13.0682 145.331 13.1364 144.887 13.1364ZM153.764 7.92045L152.86 8.17614C152.804 8.02557 152.72 7.87926 152.609 7.73722C152.501 7.59233 152.353 7.47301 152.166 7.37926C151.978 7.28551 151.738 7.23864 151.446 7.23864C151.045 7.23864 150.711 7.33097 150.444 7.51562C150.18 7.69744 150.048 7.92898 150.048 8.21023C150.048 8.46023 150.139 8.65767 150.321 8.80256C150.502 8.94744 150.787 9.06818 151.173 9.16477L152.145 9.40341C152.73 9.54545 153.166 9.76278 153.453 10.0554C153.74 10.3452 153.883 10.7187 153.883 11.1761C153.883 11.5511 153.775 11.8864 153.559 12.1818C153.346 12.4773 153.048 12.7102 152.664 12.8807C152.281 13.0511 151.835 13.1364 151.326 13.1364C150.659 13.1364 150.106 12.9915 149.669 12.7017C149.231 12.4119 148.954 11.9886 148.838 11.4318L149.792 11.1932C149.883 11.5455 150.055 11.8097 150.308 11.9858C150.564 12.1619 150.897 12.25 151.309 12.25C151.778 12.25 152.15 12.1506 152.426 11.9517C152.704 11.75 152.843 11.5085 152.843 11.2273C152.843 11 152.764 10.8097 152.605 10.6562C152.446 10.5 152.201 10.3835 151.872 10.3068L150.781 10.0511C150.181 9.90909 149.741 9.68892 149.46 9.39062C149.181 9.08949 149.042 8.71307 149.042 8.26136C149.042 7.89205 149.146 7.56534 149.353 7.28125C149.564 6.99716 149.849 6.77415 150.21 6.61222C150.574 6.45028 150.985 6.36932 151.446 6.36932C152.093 6.36932 152.602 6.51136 152.971 6.79545C153.343 7.07955 153.608 7.45455 153.764 7.92045ZM158.141 13.1364C157.511 13.1364 156.967 12.9972 156.509 12.7188C156.055 12.4375 155.704 12.0455 155.457 11.5426C155.212 11.0369 155.09 10.4489 155.09 9.77841C155.09 9.10795 155.212 8.51705 155.457 8.00568C155.704 7.49148 156.048 7.09091 156.488 6.80398C156.931 6.5142 157.448 6.36932 158.039 6.36932C158.38 6.36932 158.717 6.42614 159.049 6.53977C159.381 6.65341 159.684 6.83807 159.957 7.09375C160.229 7.34659 160.447 7.68182 160.609 8.09943C160.771 8.51705 160.852 9.03125 160.852 9.64205V10.0682H155.806V9.19886H159.829C159.829 8.82955 159.755 8.5 159.607 8.21023C159.462 7.92045 159.255 7.69176 158.985 7.52415C158.718 7.35653 158.403 7.27273 158.039 7.27273C157.638 7.27273 157.292 7.37216 156.999 7.57102C156.71 7.76705 156.487 8.02273 156.33 8.33807C156.174 8.65341 156.096 8.99148 156.096 9.35227V9.93182C156.096 10.4261 156.181 10.8452 156.352 11.1889C156.525 11.5298 156.765 11.7898 157.072 11.9688C157.379 12.1449 157.735 12.233 158.141 12.233C158.406 12.233 158.644 12.196 158.857 12.1222C159.073 12.0455 159.259 11.9318 159.415 11.7812C159.572 11.6278 159.692 11.4375 159.778 11.2102L160.749 11.483C160.647 11.8125 160.475 12.1023 160.234 12.3523C159.992 12.5994 159.694 12.7926 159.339 12.9318C158.984 13.0682 158.585 13.1364 158.141 13.1364ZM162.381 13V6.45455H163.353V7.44318H163.421C163.54 7.11932 163.756 6.85653 164.069 6.65483C164.381 6.45312 164.734 6.35227 165.126 6.35227C165.2 6.35227 165.292 6.35369 165.403 6.35653C165.513 6.35937 165.597 6.36364 165.654 6.36932V7.39205C165.62 7.38352 165.542 7.37074 165.42 7.35369C165.3 7.33381 165.174 7.32386 165.04 7.32386C164.722 7.32386 164.438 7.39062 164.188 7.52415C163.941 7.65483 163.745 7.83665 163.6 8.0696C163.458 8.29972 163.387 8.5625 163.387 8.85795V13H162.381ZM172.398 6.45455L169.977 13H168.955L166.534 6.45455H167.625L169.432 11.6705H169.5L171.307 6.45455H172.398ZM176.235 13.1364C175.604 13.1364 175.06 12.9972 174.603 12.7188C174.148 12.4375 173.798 12.0455 173.55 11.5426C173.306 11.0369 173.184 10.4489 173.184 9.77841C173.184 9.10795 173.306 8.51705 173.55 8.00568C173.798 7.49148 174.141 7.09091 174.582 6.80398C175.025 6.5142 175.542 6.36932 176.133 6.36932C176.474 6.36932 176.81 6.42614 177.143 6.53977C177.475 6.65341 177.778 6.83807 178.05 7.09375C178.323 7.34659 178.54 7.68182 178.702 8.09943C178.864 8.51705 178.945 9.03125 178.945 9.64205V10.0682H173.9V9.19886H177.923C177.923 8.82955 177.849 8.5 177.701 8.21023C177.556 7.92045 177.349 7.69176 177.079 7.52415C176.812 7.35653 176.496 7.27273 176.133 7.27273C175.732 7.27273 175.386 7.37216 175.093 7.57102C174.803 7.76705 174.58 8.02273 174.424 8.33807C174.268 8.65341 174.19 8.99148 174.19 9.35227V9.93182C174.19 10.4261 174.275 10.8452 174.445 11.1889C174.619 11.5298 174.859 11.7898 175.165 11.9688C175.472 12.1449 175.829 12.233 176.235 12.233C176.499 12.233 176.738 12.196 176.951 12.1222C177.167 12.0455 177.353 11.9318 177.509 11.7812C177.665 11.6278 177.786 11.4375 177.871 11.2102L178.843 11.483C178.741 11.8125 178.569 12.1023 178.327 12.3523C178.086 12.5994 177.788 12.7926 177.433 12.9318C177.077 13.0682 176.678 13.1364 176.235 13.1364ZM182.947 13.1364C182.401 13.1364 181.92 12.9986 181.502 12.723C181.085 12.4446 180.758 12.0526 180.522 11.5469C180.286 11.0384 180.168 10.4375 180.168 9.74432C180.168 9.05682 180.286 8.46023 180.522 7.95455C180.758 7.44886 181.086 7.05824 181.506 6.78267C181.927 6.5071 182.413 6.36932 182.964 6.36932C183.39 6.36932 183.727 6.44034 183.974 6.58239C184.224 6.72159 184.414 6.88068 184.545 7.05966C184.678 7.2358 184.782 7.38068 184.856 7.49432H184.941V4.27273H185.947V13H184.975V11.9943H184.856C184.782 12.1136 184.677 12.2642 184.54 12.446C184.404 12.625 184.21 12.7855 183.957 12.9276C183.704 13.0668 183.367 13.1364 182.947 13.1364ZM183.083 12.233C183.487 12.233 183.827 12.1278 184.106 11.9176C184.384 11.7045 184.596 11.4105 184.741 11.0355C184.886 10.6577 184.958 10.2216 184.958 9.72727C184.958 9.23864 184.887 8.81108 184.745 8.4446C184.603 8.07528 184.393 7.78835 184.114 7.58381C183.836 7.37642 183.492 7.27273 183.083 7.27273C182.657 7.27273 182.302 7.3821 182.018 7.60085C181.737 7.81676 181.525 8.1108 181.383 8.48295C181.244 8.85227 181.174 9.26705 181.174 9.72727C181.174 10.1932 181.245 10.6165 181.387 10.9972C181.532 11.375 181.745 11.6761 182.026 11.9006C182.31 12.1222 182.663 12.233 183.083 12.233ZM188.661 13.0682C188.451 13.0682 188.271 12.9929 188.12 12.8423C187.969 12.6918 187.894 12.5114 187.894 12.3011C187.894 12.0909 187.969 11.9105 188.12 11.7599C188.271 11.6094 188.451 11.5341 188.661 11.5341C188.871 11.5341 189.052 11.6094 189.202 11.7599C189.353 11.9105 189.428 12.0909 189.428 12.3011C189.428 12.4403 189.393 12.5682 189.322 12.6847C189.254 12.8011 189.161 12.8949 189.045 12.9659C188.931 13.0341 188.803 13.0682 188.661 13.0682Z" fill="black" fill-opacity="0.4"/>
</svg>
