<svg width="79" height="18" viewBox="0 0 79 18" fill="none" xmlns="http://www.w3.org/2000/svg">
<path d="M3 8.63636C3 8.17045 3.11364 7.74574 3.34091 7.36222C3.56818 6.97869 3.87358 6.6733 4.2571 6.44602C4.64063 6.21875 5.06534 6.10511 5.53125 6.10511C5.93466 6.10511 6.30682 6.19176 6.64773 6.36506C6.99148 6.53835 7.27557 6.77557 7.5 7.0767C7.72443 7.375 7.86364 7.71307 7.91761 8.09091H6.88636C6.82955 7.7983 6.67188 7.55966 6.41335 7.375C6.15483 7.1875 5.8608 7.09375 5.53125 7.09375C5.24716 7.09375 4.98864 7.16335 4.75568 7.30256C4.52273 7.44176 4.33665 7.62784 4.19744 7.8608C4.05824 8.09375 3.98864 8.35227 3.98864 8.63636C3.98864 8.92045 4.05824 9.17898 4.19744 9.41193C4.33665 9.64489 4.52273 9.83097 4.75568 9.97017C4.98864 10.1094 5.24716 10.179 5.53125 10.179C5.8608 10.179 6.1392 10.0866 6.36648 9.90199C6.59659 9.71449 6.74148 9.47443 6.80114 9.18182H7.83239C7.77841 9.55966 7.64631 9.89915 7.43608 10.2003C7.22585 10.4986 6.95597 10.7344 6.62642 10.9077C6.29972 11.081 5.93466 11.1676 5.53125 11.1676C5.06534 11.1676 4.64063 11.054 4.2571 10.8267C3.87358 10.5994 3.56818 10.294 3.34091 9.91051C3.11364 9.52699 3 9.10227 3 8.63636ZM5.48864 13.1364C4.86932 13.1364 4.28693 13.0199 3.74148 12.7869C3.19886 12.554 2.72017 12.2315 2.3054 11.8196C1.89347 11.4048 1.5696 10.9261 1.33381 10.3835C1.10085 9.84091 0.985795 9.25852 0.988636 8.63636C0.991477 8.0142 1.10938 7.43182 1.34233 6.8892C1.57813 6.34659 1.90199 5.86932 2.31392 5.45739C2.72585 5.04261 3.20313 4.71875 3.74574 4.4858C4.28835 4.25284 4.86932 4.13636 5.48864 4.13636C6.1108 4.13636 6.69318 4.25284 7.2358 4.4858C7.78125 4.71875 8.25852 5.04261 8.66761 5.45739C9.07955 5.86932 9.40199 6.34659 9.63494 6.8892C9.8679 7.43182 9.9858 8.0142 9.98864 8.63636C9.99148 9.25852 9.87642 9.84091 9.64347 10.3835C9.41051 10.9261 9.08807 11.4048 8.67614 11.8196C8.2642 12.2315 7.78551 12.554 7.24006 12.7869C6.6946 13.0199 6.1108 13.1364 5.48864 13.1364ZM5.48864 12.1477C5.97443 12.1477 6.4304 12.0568 6.85653 11.875C7.28267 11.6932 7.65625 11.4418 7.97727 11.1207C8.2983 10.7997 8.54972 10.4276 8.73153 10.0043C8.91335 9.57812 9.00284 9.12358 9 8.64062C8.99716 8.15483 8.90483 7.69886 8.72301 7.27273C8.54119 6.84659 8.28977 6.47301 7.96875 6.15199C7.64773 5.83097 7.27557 5.57955 6.85227 5.39773C6.42898 5.21591 5.97443 5.125 5.48864 5.125C5.00568 5.125 4.55256 5.21591 4.12926 5.39773C3.70597 5.57955 3.33381 5.83239 3.01278 6.15625C2.69176 6.47727 2.43892 6.85085 2.25426 7.27699C2.07244 7.70028 1.98011 8.15483 1.97727 8.64062C1.97443 9.12074 2.06392 9.57386 2.24574 10C2.42756 10.4233 2.67898 10.7955 3 11.1165C3.32386 11.4375 3.69744 11.6903 4.12074 11.875C4.54688 12.0568 5.00284 12.1477 5.48864 12.1477ZM15.2589 13V12.233L18.1396 9.07955C18.4776 8.71023 18.756 8.3892 18.9748 8.11648C19.1935 7.84091 19.3555 7.58239 19.4606 7.34091C19.5685 7.09659 19.6225 6.84091 19.6225 6.57386C19.6225 6.26705 19.5487 6.00142 19.4009 5.77699C19.256 5.55256 19.0572 5.37926 18.8043 5.2571C18.5515 5.13494 18.2674 5.07386 17.9521 5.07386C17.6168 5.07386 17.3242 5.14347 17.0742 5.28267C16.8271 5.41903 16.6353 5.6108 16.4989 5.85795C16.3654 6.10511 16.2987 6.39489 16.2987 6.72727H15.293C15.293 6.21591 15.4109 5.76705 15.6467 5.38068C15.8825 4.99432 16.2035 4.69318 16.6097 4.47727C17.0188 4.26136 17.4776 4.15341 17.9862 4.15341C18.4975 4.15341 18.9506 4.26136 19.3455 4.47727C19.7404 4.69318 20.0501 4.98437 20.2745 5.35085C20.4989 5.71733 20.6112 6.125 20.6112 6.57386C20.6112 6.89489 20.5529 7.20881 20.4364 7.51562C20.3228 7.8196 20.1239 8.15909 19.8398 8.53409C19.5586 8.90625 19.168 9.3608 18.668 9.89773L16.7077 11.9943V12.0625H20.7646V13H15.2589ZM25.3711 13.1193C24.729 13.1193 24.1822 12.9446 23.7305 12.5952C23.2788 12.2429 22.9336 11.733 22.695 11.0653C22.4563 10.3949 22.337 9.58523 22.337 8.63636C22.337 7.69318 22.4563 6.88778 22.695 6.22017C22.9364 5.54972 23.283 5.03835 23.7347 4.68608C24.1893 4.33097 24.7347 4.15341 25.3711 4.15341C26.0075 4.15341 26.5515 4.33097 27.0032 4.68608C27.4577 5.03835 27.8043 5.54972 28.043 6.22017C28.2844 6.88778 28.4052 7.69318 28.4052 8.63636C28.4052 9.58523 28.2859 10.3949 28.0472 11.0653C27.8086 11.733 27.4634 12.2429 27.0117 12.5952C26.56 12.9446 26.0131 13.1193 25.3711 13.1193ZM25.3711 12.1818C26.0075 12.1818 26.5018 11.875 26.854 11.2614C27.2063 10.6477 27.3825 9.77273 27.3825 8.63636C27.3825 7.88068 27.3015 7.23722 27.1396 6.70597C26.9805 6.17472 26.7504 5.76989 26.4492 5.49148C26.1509 5.21307 25.7915 5.07386 25.3711 5.07386C24.7404 5.07386 24.2475 5.38494 23.8924 6.0071C23.5373 6.62642 23.3597 7.50284 23.3597 8.63636C23.3597 9.39205 23.4393 10.0341 23.5984 10.5625C23.7575 11.0909 23.9862 11.4929 24.2844 11.7685C24.5856 12.044 24.9478 12.1818 25.3711 12.1818ZM30.0245 13V12.233L32.9052 9.07955C33.2433 8.71023 33.5217 8.3892 33.7404 8.11648C33.9592 7.84091 34.1211 7.58239 34.2262 7.34091C34.3342 7.09659 34.3881 6.84091 34.3881 6.57386C34.3881 6.26705 34.3143 6.00142 34.1665 5.77699C34.0217 5.55256 33.8228 5.37926 33.57 5.2571C33.3171 5.13494 33.033 5.07386 32.7177 5.07386C32.3825 5.07386 32.0898 5.14347 31.8398 5.28267C31.5927 5.41903 31.4009 5.6108 31.2646 5.85795C31.131 6.10511 31.0643 6.39489 31.0643 6.72727H30.0586C30.0586 6.21591 30.1765 5.76705 30.4123 5.38068C30.6481 4.99432 30.9691 4.69318 31.3754 4.47727C31.7844 4.26136 32.2433 4.15341 32.7518 4.15341C33.2631 4.15341 33.7163 4.26136 34.1112 4.47727C34.506 4.69318 34.8157 4.98437 35.0401 5.35085C35.2646 5.71733 35.3768 6.125 35.3768 6.57386C35.3768 6.89489 35.3185 7.20881 35.2021 7.51562C35.0884 7.8196 34.8896 8.15909 34.6055 8.53409C34.3242 8.90625 33.9336 9.3608 33.4336 9.89773L31.4734 11.9943V12.0625H35.5302V13H30.0245ZM37.2901 13V12.233L40.1708 9.07955C40.5089 8.71023 40.7873 8.3892 41.006 8.11648C41.2248 7.84091 41.3867 7.58239 41.4918 7.34091C41.5998 7.09659 41.6538 6.84091 41.6538 6.57386C41.6538 6.26705 41.5799 6.00142 41.4322 5.77699C41.2873 5.55256 41.0884 5.37926 40.8356 5.2571C40.5827 5.13494 40.2987 5.07386 39.9833 5.07386C39.6481 5.07386 39.3555 5.14347 39.1055 5.28267C38.8583 5.41903 38.6665 5.6108 38.5302 5.85795C38.3967 6.10511 38.3299 6.39489 38.3299 6.72727H37.3242C37.3242 6.21591 37.4421 5.76705 37.6779 5.38068C37.9137 4.99432 38.2347 4.69318 38.641 4.47727C39.0501 4.26136 39.5089 4.15341 40.0174 4.15341C40.5288 4.15341 40.9819 4.26136 41.3768 4.47727C41.7717 4.69318 42.0813 4.98437 42.3058 5.35085C42.5302 5.71733 42.6424 6.125 42.6424 6.57386C42.6424 6.89489 42.5842 7.20881 42.4677 7.51562C42.354 7.8196 42.1552 8.15909 41.8711 8.53409C41.5898 8.90625 41.1992 9.3608 40.6992 9.89773L38.739 11.9943V12.0625H42.7958V13H37.2901ZM52.8569 6.45455C52.8058 6.02273 52.5984 5.6875 52.2347 5.44886C51.8711 5.21023 51.4251 5.09091 50.8967 5.09091C50.5103 5.09091 50.1722 5.15341 49.8825 5.27841C49.5955 5.40341 49.3711 5.57528 49.2092 5.79403C49.0501 6.01278 48.9705 6.26136 48.9705 6.53977C48.9705 6.77273 49.0259 6.97301 49.1367 7.14062C49.2504 7.3054 49.3952 7.44318 49.5714 7.55398C49.7475 7.66193 49.9322 7.75142 50.1254 7.82244C50.3185 7.89062 50.4961 7.94602 50.658 7.98864L51.5444 8.22727C51.7717 8.28693 52.0245 8.36932 52.3029 8.47443C52.5842 8.57955 52.8526 8.72301 53.1083 8.90483C53.3668 9.08381 53.5799 9.31392 53.7475 9.59517C53.9151 9.87642 53.9989 10.2216 53.9989 10.6307C53.9989 11.1023 53.8754 11.5284 53.6282 11.9091C53.3839 12.2898 53.0259 12.5923 52.5543 12.8168C52.0856 13.0412 51.516 13.1534 50.8455 13.1534C50.2205 13.1534 49.6793 13.0526 49.2219 12.8509C48.7674 12.6491 48.4094 12.3679 48.1481 12.0071C47.8896 11.6463 47.7433 11.2273 47.7092 10.75H48.8001C48.8285 11.0795 48.9393 11.3523 49.1325 11.5682C49.3285 11.7812 49.5756 11.9403 49.8739 12.0455C50.1751 12.1477 50.4989 12.1989 50.8455 12.1989C51.2489 12.1989 51.6112 12.1335 51.9322 12.0028C52.2532 11.8693 52.5075 11.6847 52.695 11.4489C52.8825 11.2102 52.9762 10.9318 52.9762 10.6136C52.9762 10.3239 52.8952 10.0881 52.7333 9.90625C52.5714 9.72443 52.3583 9.5767 52.0941 9.46307C51.8299 9.34943 51.5444 9.25 51.2376 9.16477L50.1637 8.85795C49.4819 8.66193 48.9421 8.3821 48.5444 8.01847C48.1467 7.65483 47.9478 7.17898 47.9478 6.59091C47.9478 6.10227 48.0799 5.67614 48.3441 5.3125C48.6112 4.94602 48.9691 4.66193 49.418 4.46023C49.8697 4.25568 50.3739 4.15341 50.9308 4.15341C51.4933 4.15341 51.9933 4.25426 52.4308 4.45597C52.8683 4.65483 53.2148 4.92756 53.4705 5.27415C53.729 5.62074 53.8654 6.0142 53.8796 6.45455H52.8569ZM56.6058 9.0625V13H55.6001V6.45455H56.5717V7.47727H56.657C56.8104 7.14489 57.0433 6.87784 57.3558 6.67614C57.6683 6.47159 58.0717 6.36932 58.5661 6.36932C59.0092 6.36932 59.397 6.46023 59.7294 6.64205C60.0618 6.82102 60.3203 7.09375 60.505 7.46023C60.6896 7.82386 60.782 8.28409 60.782 8.84091V13H59.7763V8.90909C59.7763 8.39489 59.6428 7.99432 59.3757 7.70739C59.1087 7.41761 58.7422 7.27273 58.2763 7.27273C57.9553 7.27273 57.6683 7.34233 57.4155 7.48153C57.1655 7.62074 56.968 7.82386 56.8232 8.09091C56.6783 8.35795 56.6058 8.68182 56.6058 9.0625ZM65.2788 13.1364C64.6879 13.1364 64.1694 12.9957 63.7234 12.7145C63.2802 12.4332 62.9336 12.0398 62.6836 11.5341C62.4364 11.0284 62.3129 10.4375 62.3129 9.76136C62.3129 9.07955 62.4364 8.48437 62.6836 7.97585C62.9336 7.46733 63.2802 7.07244 63.7234 6.79119C64.1694 6.50994 64.6879 6.36932 65.2788 6.36932C65.8697 6.36932 66.3867 6.50994 66.8299 6.79119C67.2759 7.07244 67.6225 7.46733 67.8697 7.97585C68.1197 8.48437 68.2447 9.07955 68.2447 9.76136C68.2447 10.4375 68.1197 11.0284 67.8697 11.5341C67.6225 12.0398 67.2759 12.4332 66.8299 12.7145C66.3867 12.9957 65.8697 13.1364 65.2788 13.1364ZM65.2788 12.233C65.7276 12.233 66.0969 12.1179 66.3867 11.8878C66.6765 11.6577 66.891 11.3551 67.0302 10.9801C67.1694 10.6051 67.239 10.1989 67.239 9.76136C67.239 9.32386 67.1694 8.91619 67.0302 8.53835C66.891 8.16051 66.6765 7.85511 66.3867 7.62216C66.0969 7.3892 65.7276 7.27273 65.2788 7.27273C64.8299 7.27273 64.4606 7.3892 64.1708 7.62216C63.881 7.85511 63.6665 8.16051 63.5273 8.53835C63.3881 8.91619 63.3185 9.32386 63.3185 9.76136C63.3185 10.1989 63.3881 10.6051 63.5273 10.9801C63.6665 11.3551 63.881 11.6577 64.1708 11.8878C64.4606 12.1179 64.8299 12.233 65.2788 12.233ZM71.0401 13L69.0458 6.45455H70.1026L71.5174 11.4659H71.5856L72.9833 6.45455H74.0572L75.4379 11.4489H75.506L76.9208 6.45455H77.9776L75.9833 13H74.9947L73.5629 7.97159H73.4606L72.0288 13H71.0401Z" fill="black" fill-opacity="0.4"/>
</svg>
