<svg width="85" height="26" viewBox="0 0 85 26" fill="none" xmlns="http://www.w3.org/2000/svg">
<path d="M38.2922 17.6814C37.7484 18.1546 36.9409 18.3912 35.8694 18.3912C34.8939 18.3912 34.0704 18.2256 33.3987 17.8943C32.7271 17.5473 32.2074 17.2003 31.8396 16.8533C31.6157 16.9322 31.4158 17.0662 31.2399 17.2555C31.08 17.429 31 17.6498 31 17.918C31 18.2334 31.1999 18.5568 31.5997 18.888C32.0155 19.2035 32.5832 19.4716 33.3028 19.6924C34.0384 19.8975 34.8939 20 35.8694 20C37.5326 20 38.8199 19.6136 39.7314 18.8407C40.6589 18.0678 41.1227 17.0584 41.1227 15.8123C41.1227 14.6451 40.7549 13.7303 40.0192 13.0678C39.2996 12.4054 38.3081 11.9006 37.0448 11.5536L35.5816 11.1278C34.702 10.8754 34.0624 10.5757 33.6626 10.2287C33.2788 9.8817 33.0869 9.43218 33.0869 8.88013C33.0869 8.18612 33.3588 7.64196 33.9025 7.24763C34.4462 6.83754 35.1818 6.63249 36.1093 6.63249C36.9089 6.63249 37.6445 6.75079 38.3161 6.98738C39.0038 7.22398 39.5475 7.5 39.9473 7.81546C40.1232 7.72082 40.2671 7.59464 40.3791 7.43691C40.491 7.26341 40.547 7.07413 40.547 6.86908C40.547 6.55363 40.3471 6.25394 39.9473 5.97003C39.5635 5.68612 39.0278 5.45741 38.3401 5.28391C37.6685 5.09464 36.9009 5 36.0373 5C34.5501 5 33.3588 5.347 32.4632 6.04101C31.5677 6.71924 31.1199 7.66562 31.1199 8.88013C31.1199 9.52681 31.2479 10.0946 31.5037 10.5836C31.7756 11.0568 32.1594 11.459 32.6551 11.7902C33.1509 12.1057 33.7346 12.3659 34.4062 12.571L36.4931 13.1861C37.4046 13.4385 38.0683 13.7776 38.4841 14.2035C38.9158 14.6293 39.1317 15.1656 39.1317 15.8123C39.1317 16.5694 38.8519 17.1924 38.2922 17.6814Z" fill="#1C1C1C"/>
<path d="M52.3129 9.44795C53.1605 10.0946 53.5843 11.1041 53.5843 12.4763V19.6451C53.5043 19.6767 53.3764 19.7082 53.2005 19.7397C53.0406 19.7871 52.8726 19.8107 52.6967 19.8107C52.3449 19.8107 52.0811 19.7476 51.9052 19.6215C51.7452 19.4795 51.6653 19.2587 51.6653 18.959V12.571C51.6653 11.6877 51.4094 11.041 50.8977 10.6309C50.4019 10.2208 49.7303 10.0158 48.8828 10.0158C48.2431 10.0158 47.6754 10.0946 47.1796 10.2524C46.6839 10.4101 46.2601 10.5915 45.9083 10.7965V19.6451C45.8284 19.6767 45.7084 19.7082 45.5485 19.7397C45.3886 19.7871 45.2127 19.8107 45.0208 19.8107C44.685 19.8107 44.4291 19.7476 44.2532 19.6215C44.0773 19.4795 43.9893 19.2587 43.9893 18.959V10.8912C43.9893 10.5599 44.0533 10.2918 44.1812 10.0868C44.3252 9.86593 44.565 9.653 44.9009 9.44795C45.3166 9.21136 45.8683 8.99054 46.556 8.78549C47.2436 8.56467 48.0192 8.45426 48.8828 8.45426C50.338 8.45426 51.4814 8.78549 52.3129 9.44795Z" fill="#1C1C1C"/>
<path fill-rule="evenodd" clip-rule="evenodd" d="M67.4683 14.2271C67.4683 15.3943 67.2444 16.4117 66.7966 17.2792C66.3488 18.1467 65.7172 18.817 64.9016 19.2902C64.086 19.7634 63.1265 20 62.0231 20C60.9197 20 59.9522 19.7634 59.1207 19.2902C58.3051 18.817 57.6734 18.1467 57.2257 17.2792C56.7779 16.4117 56.554 15.3943 56.554 14.2271C56.554 13.0442 56.7779 12.0268 57.2257 11.1751C57.6894 10.3076 58.3291 9.63722 59.1446 9.16404C59.9762 8.69085 60.9357 8.45426 62.0231 8.45426C63.1106 8.45426 64.062 8.69085 64.8776 9.16404C65.6932 9.63722 66.3249 10.3076 66.7726 11.1751C67.2364 12.0268 67.4683 13.0442 67.4683 14.2271ZM62.0231 10.0158C60.9517 10.0158 60.0961 10.3943 59.4565 11.1514C58.8328 11.8927 58.521 12.918 58.521 14.2271C58.521 15.5521 58.8248 16.5852 59.4325 17.3265C60.0562 18.0678 60.9197 18.4385 62.0231 18.4385C63.1106 18.4385 63.9581 18.0678 64.5658 17.3265C65.1895 16.5694 65.5013 15.5363 65.5013 14.2271C65.5013 12.918 65.1895 11.8927 64.5658 11.1514C63.9581 10.3943 63.1106 10.0158 62.0231 10.0158Z" fill="#1C1C1C"/>
<path d="M77.2761 11.5536C76.9882 12.5473 76.6764 13.541 76.3406 14.5347C76.0207 15.5284 75.7089 16.459 75.4051 17.3265C75.1012 18.194 74.8214 18.9432 74.5655 19.5741C74.4376 19.653 74.2936 19.7161 74.1337 19.7634C73.9738 19.8107 73.7579 19.8344 73.4861 19.8344C73.2302 19.8344 72.9903 19.7871 72.7665 19.6924C72.5586 19.6136 72.4146 19.4795 72.3347 19.2902C72.1748 18.9748 71.9909 18.5174 71.783 17.918C71.5911 17.3186 71.3832 16.6325 71.1593 15.8596C70.9514 15.0868 70.7355 14.2902 70.5116 13.47C70.2878 12.6341 70.0799 11.8297 69.888 11.0568C69.7121 10.2839 69.5602 9.59779 69.4322 8.99842C69.5442 8.88801 69.6801 8.78549 69.84 8.69085C70.0159 8.59622 70.2238 8.5489 70.4637 8.5489C70.7675 8.5489 70.9914 8.63565 71.1353 8.80915C71.2952 8.96688 71.4072 9.22713 71.4711 9.58991C71.6151 10.2524 71.775 11.0016 71.9509 11.8375C72.1428 12.6735 72.3347 13.5016 72.5266 14.3218C72.7345 15.142 72.9184 15.8833 73.0783 16.5457C73.2542 17.1924 73.3821 17.6735 73.4621 17.989H73.558C73.686 17.6104 73.8859 16.9953 74.1577 16.1435C74.4296 15.276 74.7494 14.2902 75.1172 13.1861C75.501 12.082 75.8848 10.9621 76.2686 9.8265C76.3965 9.74763 76.5485 9.69243 76.7244 9.66088C76.9003 9.61357 77.0922 9.58991 77.3001 9.58991C77.5879 9.58991 77.8278 9.64511 78.0197 9.75552C78.2116 9.85016 78.3395 10 78.4035 10.205C78.7873 11.2934 79.1471 12.3659 79.4829 13.4227C79.8187 14.4637 80.1146 15.3943 80.3704 16.2145C80.6263 17.0189 80.8102 17.6183 80.9221 18.0126H81.0421C81.4099 16.6088 81.8097 15.1025 82.2415 13.4937C82.6732 11.8849 83.025 10.3076 83.2969 8.76183C83.5208 8.61987 83.7926 8.5489 84.1125 8.5489C84.3843 8.5489 84.6002 8.61199 84.7601 8.73817C84.92 8.86435 85 9.06151 85 9.32965C85 9.50315 84.944 9.83438 84.8321 10.3233C84.7361 10.8123 84.6002 11.388 84.4243 12.0505C84.2484 12.7129 84.0485 13.4227 83.8246 14.1798C83.6167 14.9211 83.4008 15.6467 83.177 16.3565C82.9531 17.0505 82.7372 17.6814 82.5293 18.2492C82.3374 18.817 82.1695 19.2587 82.0256 19.5741C81.9456 19.6372 81.8097 19.6924 81.6178 19.7397C81.4419 19.8028 81.234 19.8344 80.9941 19.8344C80.3385 19.8344 79.9547 19.6845 79.8427 19.3849C79.6188 18.817 79.363 18.1151 79.0751 17.2792C78.7873 16.4274 78.4914 15.5126 78.1876 14.5347L77.2761 11.5536Z" fill="#1C1C1C"/>
<path d="M11.4977 0C11.8883 0 12.2048 0.312534 12.2048 0.698063V5.27471L14.6862 2.82506C14.9623 2.55245 15.41 2.55245 15.6862 2.82506C15.9623 3.09767 15.9623 3.53966 15.6862 3.81227L12.2048 7.24913V11.7896L16.1941 9.51586L17.4667 4.82712C17.5678 4.45473 17.9555 4.23373 18.3327 4.33351C18.7099 4.4333 18.9338 4.81607 18.8327 5.18846L17.9261 8.52865L21.937 6.24256C22.2752 6.04979 22.7076 6.16419 22.9029 6.49807C23.0982 6.83195 22.9823 7.25888 22.6441 7.45164L18.6293 9.73996L22.0189 10.6366C22.3961 10.7364 22.6199 11.1192 22.5189 11.4915C22.4178 11.8639 22.0301 12.0849 21.6529 11.9851L16.8973 10.7272L12.9142 12.9974L16.9034 15.2712L21.6529 14.0149C22.0301 13.9151 22.4178 14.1361 22.5189 14.5085C22.6199 14.8809 22.3961 15.2636 22.0189 15.3634L18.6355 16.2584L22.6463 18.5445C22.9845 18.7373 23.1004 19.1642 22.9051 19.4981C22.7099 19.8319 22.2774 19.9463 21.9392 19.7536L17.9245 17.4653L18.8327 20.8115C18.9338 21.1839 18.7099 21.5667 18.3327 21.6665C17.9555 21.7663 17.5678 21.5453 17.4667 21.1729L16.1924 16.478L12.2048 14.2052V18.7623L15.6862 22.1992C15.9623 22.4718 15.9623 22.9138 15.6862 23.1864C15.41 23.459 14.9623 23.459 14.6862 23.1864L12.2048 20.7367V25.3019C12.2048 25.6875 11.8883 26 11.4977 26C11.1072 26 10.7906 25.6875 10.7906 25.3019V20.7412L8.31382 23.1864C8.03768 23.459 7.58997 23.459 7.31384 23.1864C7.0377 22.9138 7.0377 22.4718 7.31384 22.1992L10.7906 18.7668V14.2078L6.79753 16.4838L5.52327 21.1786C5.4222 21.551 5.03447 21.772 4.65726 21.6722C4.28005 21.5724 4.05619 21.1897 4.15727 20.8173L5.0655 17.471L1.06076 19.7536C0.722563 19.9463 0.290111 19.8319 0.0948512 19.4981C-0.100408 19.1642 0.0154667 18.7373 0.353667 18.5445L4.35449 16.2641L0.971083 15.3691C0.593871 15.2693 0.370016 14.8866 0.47109 14.5142C0.572164 14.1418 0.959891 13.9208 1.3371 14.0206L6.08652 15.2769L10.0858 12.9974L6.09269 10.7214L1.3371 11.9794C0.959887 12.0792 0.57216 11.8582 0.471086 11.4858C0.370013 11.1134 0.593867 10.7307 0.971079 10.6309L4.36066 9.73424L0.355925 7.45164C0.017725 7.25887 -0.0981498 6.83194 0.0971096 6.49807C0.292369 6.16419 0.724822 6.04979 1.06302 6.24256L5.06384 8.52292L4.15726 5.18274C4.05619 4.81035 4.28004 4.42757 4.65726 4.32779C5.03447 4.22801 5.4222 4.449 5.52327 4.8214L6.79587 9.51013L10.7906 11.7871V7.24466L7.31384 3.81227C7.0377 3.53966 7.0377 3.09767 7.31384 2.82506C7.58997 2.55245 8.03768 2.55245 8.31382 2.82506L10.7906 5.27024V0.698063C10.7906 0.312534 11.1072 0 11.4977 0Z" fill="#1C1C1C"/>
</svg>
