<svg width="1440" height="96" fill="none" xmlns="http://www.w3.org/2000/svg"><rect width="1440" height="96" rx="16" fill="#E5ECF6"/><path d="M35.7 39.298l3.588-3.588a1 1 0 011.415 0l3.585 3.586a1 1 0 010 1.414L40.7 44.298a1 1 0 01-1.414 0L35.7 40.713a1 1 0 010-1.415zM43.701 47.298l3.589-3.588a1 1 0 011.414 0l3.586 3.586a1 1 0 010 1.414L48.7 52.298a1 1 0 01-1.414 0L43.7 48.713a1 1 0 010-1.415zM27.7 47.287l3.588-3.588a1 1 0 011.415 0l3.585 3.586a1 1 0 010 1.414L32.7 52.287a1 1 0 01-1.414 0L27.7 48.702a1 1 0 010-1.415zM35.701 55.287l3.588-3.588a1 1 0 011.415 0l3.586 3.586a1 1 0 010 1.414L40.7 60.287a1 1 0 01-1.414 0L35.7 56.702a1 1 0 010-1.415z" fill="#000" fill-opacity=".1"/><path fill-rule="evenodd" clip-rule="evenodd" d="M34.993 41.42s-.586-.586-.586-1.414c0 0 0-.829.586-1.415l3.588-3.588s.586-.586 1.415-.586c0 0 .828 0 1.414.586l3.586 3.586s.585.586.585 1.414c0 0 0 .828-.585 1.414l-3.589 3.589s-.586.586-1.414.586c0 0-.829 0-1.414-.586l-3.586-3.586zm1.414-1.414l3.586 3.586 3.588-3.589-3.585-3.586-3.589 3.589zM42.994 49.42s-.586-.586-.586-1.414c0 0 0-.829.586-1.415l3.589-3.588s.585-.586 1.414-.586c0 0 .828 0 1.414.586l3.586 3.586s.586.586.586 1.414c0 0 0 .828-.586 1.414l-3.589 3.589s-.585.586-1.414.586c0 0-.828 0-1.414-.586l-3.586-3.586zm1.414-1.414l3.586 3.586 3.589-3.589-3.586-3.586-3.589 3.589zM26.993 49.409s-.586-.586-.586-1.415c0 0 0-.828.586-1.414l3.588-3.588s.586-.586 1.415-.586c0 0 .828 0 1.414.586l3.586 3.586s.585.585.585 1.414c0 0 0 .828-.585 1.414l-3.589 3.589s-.586.585-1.414.585c0 0-.828 0-1.414-.585l-3.586-3.586zm1.414-1.415l3.586 3.586 3.588-3.588-3.585-3.586-3.589 3.588zM34.994 57.409s-.586-.586-.586-1.415c0 0 0-.828.586-1.414l3.589-3.588s.585-.586 1.414-.586c0 0 .828 0 1.414.586l3.586 3.586s.586.585.586 1.414c0 0 0 .828-.586 1.414l-3.589 3.589s-.585.585-1.414.585c0 0-.828 0-1.414-.585l-3.586-3.586zm1.414-1.415l3.586 3.586 3.589-3.588-3.586-3.586-3.589 3.588z" fill="#1C1C1C"/><path d="M75.443 65V30.09h13.364c2.522 0 4.62.399 6.29 1.194 1.681.784 2.937 1.858 3.767 3.222.84 1.363 1.261 2.909 1.261 4.636 0 1.42-.273 2.636-.818 3.648a6.881 6.881 0 01-2.199 2.437 9.308 9.308 0 01-3.085 1.347v.34c1.238.069 2.426.45 3.562 1.143 1.148.682 2.086 1.648 2.813 2.898.727 1.25 1.091 2.76 1.091 4.534 0 1.806-.438 3.431-1.313 4.875-.875 1.431-2.193 2.562-3.954 3.392-1.762.83-3.978 1.244-6.648 1.244h-14.13zm6.324-5.284h6.801c2.296 0 3.949-.438 4.96-1.313 1.023-.886 1.534-2.022 1.534-3.409 0-1.034-.255-1.966-.766-2.795-.512-.841-1.24-1.5-2.182-1.977-.944-.489-2.069-.733-3.375-.733h-6.972v10.227zm0-14.779h6.256c1.09 0 2.074-.198 2.949-.596.875-.41 1.562-.983 2.062-1.722.511-.75.767-1.636.767-2.659 0-1.352-.477-2.466-1.432-3.34-.943-.876-2.346-1.313-4.21-1.313h-6.392v9.63zM106.717 65V38.818h5.983v4.364h.273c.477-1.512 1.295-2.676 2.455-3.495 1.17-.829 2.505-1.244 4.005-1.244.341 0 .722.017 1.142.051.432.023.79.063 1.074.12v5.676c-.261-.091-.676-.17-1.244-.239-.557-.08-1.097-.12-1.619-.12-1.125 0-2.137.245-3.035.734a5.361 5.361 0 00-2.096 1.994c-.512.852-.767 1.835-.767 2.949V65h-6.171zm26.097.528c-1.659 0-3.153-.295-4.483-.886-1.318-.602-2.364-1.489-3.136-2.659-.762-1.17-1.142-2.614-1.142-4.33 0-1.477.272-2.698.818-3.664a6.33 6.33 0 012.233-2.319c.943-.58 2.005-1.017 3.187-1.312a25.892 25.892 0 013.699-.665c1.534-.159 2.778-.301 3.733-.426.955-.136 1.648-.34 2.08-.614.443-.284.664-.721.664-1.312v-.102c0-1.284-.38-2.279-1.142-2.983-.761-.705-1.858-1.057-3.289-1.057-1.512 0-2.711.33-3.597.989-.875.659-1.466 1.437-1.773 2.335l-5.761-.819c.454-1.59 1.204-2.92 2.25-3.988 1.045-1.08 2.324-1.886 3.835-2.42 1.511-.546 3.182-.819 5.011-.819 1.262 0 2.517.148 3.767.444a10.6 10.6 0 013.427 1.465c1.034.67 1.863 1.586 2.488 2.745.637 1.159.955 2.608.955 4.346V65h-5.932v-3.597h-.205c-.375.728-.903 1.41-1.585 2.046-.67.625-1.517 1.13-2.54 1.517-1.011.375-2.198.562-3.562.562zm1.602-4.534c1.239 0 2.313-.244 3.222-.733.909-.5 1.608-1.159 2.096-1.977.5-.818.75-1.71.75-2.676v-3.085c-.193.159-.522.306-.988.443-.455.136-.966.256-1.534.358-.569.102-1.131.193-1.688.273-.557.08-1.04.147-1.449.204-.92.125-1.744.33-2.471.614-.728.284-1.301.682-1.722 1.193-.42.5-.631 1.148-.631 1.943 0 1.136.415 1.994 1.245 2.574.829.58 1.886.87 3.17.87zm24.597-11.335V65h-6.171V38.818h5.898v4.449h.307a7.477 7.477 0 012.881-3.494c1.329-.864 2.971-1.296 4.926-1.296 1.807 0 3.38.387 4.721 1.16 1.353.772 2.398 1.891 3.137 3.357.75 1.466 1.119 3.245 1.108 5.336V65h-6.171V49.284c0-1.75-.454-3.12-1.363-4.108-.898-.989-2.143-1.483-3.733-1.483-1.08 0-2.04.239-2.881.716-.83.466-1.483 1.142-1.96 2.029-.466.886-.699 1.96-.699 3.221zm32.795 15.801c-2.057 0-3.897-.528-5.522-1.585-1.625-1.057-2.91-2.59-3.853-4.602-.943-2.012-1.415-4.455-1.415-7.33 0-2.909.478-5.363 1.432-7.363.966-2.012 2.267-3.529 3.904-4.552 1.636-1.034 3.46-1.55 5.471-1.55 1.534 0 2.796.26 3.784.783.989.512 1.773 1.131 2.353 1.858.579.716 1.028 1.392 1.346 2.029h.256V30.09h6.187V65h-6.068v-4.125h-.375c-.318.636-.778 1.313-1.38 2.028-.603.705-1.398 1.307-2.387 1.807-.988.5-2.233.75-3.733.75zm1.722-5.062c1.307 0 2.42-.353 3.341-1.057.92-.716 1.619-1.71 2.096-2.983.478-1.273.716-2.756.716-4.449s-.238-3.165-.716-4.415c-.466-1.25-1.159-2.221-2.079-2.914-.909-.694-2.029-1.04-3.358-1.04-1.375 0-2.523.358-3.443 1.074-.921.716-1.614 1.704-2.08 2.966-.466 1.26-.699 2.704-.699 4.33 0 1.636.233 3.096.699 4.38.477 1.273 1.176 2.278 2.097 3.017.932.727 2.074 1.09 3.426 1.09z" fill="#1C1C1C"/></svg>