<svg width="1440" height="96" viewBox="0 0 1440 96" fill="none" xmlns="http://www.w3.org/2000/svg">
<rect width="1440" height="96" rx="16" fill="#E5ECF6"/>
<path d="M35.6997 39.2984L39.2883 35.7099C39.6789 35.3194 40.3119 35.3194 40.7025 35.7099L44.2884 39.2958C44.6789 39.6863 44.6789 40.3195 44.2884 40.7101L40.6999 44.2985C40.3093 44.6891 39.6762 44.6892 39.2857 44.2985L35.6998 40.7127C35.3092 40.3221 35.3091 39.689 35.6997 39.2984Z" fill="black" fill-opacity="0.1"/>
<path d="M43.701 47.2985L47.2896 43.71C47.6801 43.3194 48.3133 43.3195 48.7038 43.71L52.2897 47.2959C52.6802 47.6864 52.6802 48.3196 52.2897 48.7101L48.701 52.2985C48.3106 52.6892 47.6774 52.6892 47.2869 52.2985L43.701 48.7127C43.3104 48.322 43.3104 47.6891 43.701 47.2985Z" fill="black" fill-opacity="0.1"/>
<path d="M27.6998 47.2873L31.2883 43.6987C31.6789 43.3082 32.3121 43.3082 32.7025 43.6987L36.2885 47.2847C36.679 47.6752 36.6789 48.3083 36.2885 48.6989L32.6998 52.2872C32.3094 52.678 31.6762 52.678 31.2857 52.2873L27.6998 48.7015C27.3093 48.3108 27.3093 47.6778 27.6998 47.2873Z" fill="black" fill-opacity="0.1"/>
<path d="M35.701 55.2871L39.2895 51.6986C39.6801 51.3082 40.3132 51.3082 40.7037 51.6986L44.2896 55.2846C44.6801 55.6751 44.6802 56.3083 44.2897 56.6988L40.7011 60.2873C40.3105 60.6779 39.6774 60.678 39.2869 60.2873L35.701 56.7015C35.3105 56.3109 35.3105 55.6778 35.701 55.2871Z" fill="black" fill-opacity="0.1"/>
<path fill-rule="evenodd" clip-rule="evenodd" d="M34.9928 41.4198C34.9928 41.4198 34.407 40.834 34.407 40.0056C34.407 40.0056 34.407 39.1772 34.9928 38.5914L38.5814 35.0028C38.5814 35.0028 39.1672 34.417 39.9956 34.417C39.9956 34.417 40.824 34.417 41.4098 35.0028L44.9957 38.5887C44.9957 38.5887 45.5815 39.1745 45.5815 40.003C45.5815 40.003 45.5815 40.8314 44.9957 41.4172L41.4072 45.0057C41.4072 45.0057 40.8214 45.5915 39.993 45.5915C39.993 45.5915 39.1645 45.5915 38.5787 45.0057L34.9928 41.4198ZM36.407 40.0056L39.993 43.5915L43.5815 40.003L39.9956 36.417L36.407 40.0056Z" fill="#1C1C1C"/>
<path fill-rule="evenodd" clip-rule="evenodd" d="M42.994 49.4198C42.994 49.4198 42.4083 48.834 42.4083 48.0056C42.4083 48.0056 42.4083 47.1772 42.994 46.5914L46.5826 43.0028C46.5826 43.0028 47.1684 42.417 47.9968 42.417C47.9968 42.417 48.8253 42.417 49.411 43.0028L52.997 46.5887C52.997 46.5887 53.5827 47.1745 53.5827 48.003C53.5827 48.003 53.5827 48.8314 52.997 49.4172L49.4084 53.0057C49.4084 53.0057 48.8226 53.5915 47.9942 53.5915C47.9942 53.5915 47.1657 53.5915 46.58 53.0057L42.994 49.4198ZM44.4083 48.0056L47.9942 51.5915L51.5827 48.003L47.9968 44.417L44.4083 48.0056Z" fill="#1C1C1C"/>
<path fill-rule="evenodd" clip-rule="evenodd" d="M26.9928 49.4086C26.9928 49.4086 26.407 48.8228 26.407 47.9944C26.407 47.9944 26.407 47.166 26.9928 46.5802L30.5814 42.9916C30.5814 42.9916 31.1672 42.4058 31.9956 42.4058C31.9956 42.4058 32.824 42.4058 33.4098 42.9916L36.9957 46.5775C36.9957 46.5775 37.5815 47.1633 37.5815 47.9917C37.5815 47.9917 37.5815 48.8202 36.9957 49.4059L33.4072 52.9945C33.4072 52.9945 32.8214 53.5803 31.993 53.5803C31.993 53.5803 31.1645 53.5803 30.5787 52.9945L26.9928 49.4086ZM28.407 47.9944L31.993 51.5803L35.5815 47.9917L31.9956 44.4058L28.407 47.9944Z" fill="#1C1C1C"/>
<path fill-rule="evenodd" clip-rule="evenodd" d="M34.994 57.4086C34.994 57.4086 34.4083 56.8228 34.4083 55.9944C34.4083 55.9944 34.4083 55.166 34.994 54.5802L38.5826 50.9916C38.5826 50.9916 39.1684 50.4058 39.9968 50.4058C39.9968 50.4058 40.8253 50.4058 41.411 50.9916L44.997 54.5775C44.997 54.5775 45.5827 55.1633 45.5827 55.9917C45.5827 55.9917 45.5827 56.8202 44.997 57.4059L41.4084 60.9945C41.4084 60.9945 40.8226 61.5803 39.9942 61.5803C39.9942 61.5803 39.1657 61.5803 38.58 60.9945L34.994 57.4086ZM36.4083 55.9944L39.9942 59.5803L43.5827 55.9917L39.9968 52.4058L36.4083 55.9944Z" fill="#1C1C1C"/>
<path d="M75.4432 65V30.0909H88.8068C91.3295 30.0909 93.4261 30.4886 95.0966 31.2841C96.7784 32.0682 98.0341 33.142 98.8636 34.5057C99.7045 35.8693 100.125 37.4148 100.125 39.142C100.125 40.5625 99.8523 41.7784 99.3068 42.7898C98.7614 43.7898 98.0284 44.6023 97.108 45.2273C96.1875 45.8523 95.1591 46.3011 94.0227 46.5739V46.9148C95.2614 46.983 96.4489 47.3636 97.5852 48.0568C98.733 48.7386 99.6705 49.7045 100.398 50.9545C101.125 52.2045 101.489 53.7159 101.489 55.4886C101.489 57.2955 101.051 58.9205 100.176 60.3636C99.3011 61.7955 97.983 62.9261 96.2216 63.7557C94.4602 64.5852 92.2443 65 89.5739 65H75.4432ZM81.767 59.7159H88.5682C90.8636 59.7159 92.517 59.2784 93.5284 58.4034C94.5511 57.517 95.0625 56.3807 95.0625 54.9943C95.0625 53.9602 94.8068 53.0284 94.2955 52.1989C93.7841 51.358 93.0568 50.6989 92.1136 50.2216C91.1705 49.733 90.0455 49.4886 88.7386 49.4886H81.767V59.7159ZM81.767 44.9375H88.0227C89.1136 44.9375 90.0966 44.7386 90.9716 44.3409C91.8466 43.9318 92.5341 43.358 93.0341 42.6193C93.5455 41.8693 93.8011 40.983 93.8011 39.9602C93.8011 38.608 93.3239 37.4943 92.3693 36.6193C91.4261 35.7443 90.0227 35.3068 88.1591 35.3068H81.767V44.9375ZM106.717 65V38.8182H112.7V43.1818H112.973C113.45 41.6705 114.268 40.5057 115.428 39.6875C116.598 38.858 117.933 38.4432 119.433 38.4432C119.774 38.4432 120.155 38.4602 120.575 38.4943C121.007 38.517 121.365 38.5568 121.649 38.6136V44.2898C121.388 44.1989 120.973 44.1193 120.405 44.0511C119.848 43.9716 119.308 43.9318 118.786 43.9318C117.661 43.9318 116.649 44.1761 115.751 44.6648C114.865 45.142 114.166 45.8068 113.655 46.6591C113.143 47.5114 112.888 48.4943 112.888 49.608V65H106.717ZM132.814 65.5284C131.155 65.5284 129.661 65.233 128.331 64.642C127.013 64.0398 125.967 63.1534 125.195 61.983C124.433 60.8125 124.053 59.3693 124.053 57.6534C124.053 56.1761 124.325 54.9545 124.871 53.9886C125.416 53.0227 126.161 52.25 127.104 51.6705C128.047 51.0909 129.109 50.6534 130.291 50.358C131.484 50.0511 132.717 49.8295 133.99 49.6932C135.524 49.5341 136.768 49.392 137.723 49.267C138.678 49.1307 139.371 48.9261 139.803 48.6534C140.246 48.3693 140.467 47.9318 140.467 47.3409V47.2386C140.467 45.9545 140.087 44.9602 139.325 44.2557C138.564 43.5511 137.467 43.1989 136.036 43.1989C134.524 43.1989 133.325 43.5284 132.439 44.1875C131.564 44.8466 130.973 45.625 130.666 46.5227L124.905 45.7045C125.359 44.1136 126.109 42.7841 127.155 41.7159C128.2 40.6364 129.479 39.8295 130.99 39.2955C132.501 38.75 134.172 38.4773 136.001 38.4773C137.263 38.4773 138.518 38.625 139.768 38.9205C141.018 39.2159 142.161 39.7045 143.195 40.3864C144.229 41.0568 145.058 41.9716 145.683 43.1307C146.32 44.2898 146.638 45.7386 146.638 47.4773V65H140.706V61.4034H140.501C140.126 62.1307 139.598 62.8125 138.916 63.4489C138.246 64.0739 137.399 64.5795 136.376 64.9659C135.365 65.3409 134.178 65.5284 132.814 65.5284ZM134.416 60.9943C135.655 60.9943 136.729 60.75 137.638 60.2614C138.547 59.7614 139.246 59.1023 139.734 58.2841C140.234 57.4659 140.484 56.5739 140.484 55.608V52.5227C140.291 52.6818 139.962 52.8295 139.496 52.9659C139.041 53.1023 138.53 53.2216 137.962 53.3239C137.393 53.4261 136.831 53.517 136.274 53.5966C135.717 53.6761 135.234 53.7443 134.825 53.8011C133.905 53.9261 133.081 54.1307 132.354 54.4148C131.626 54.6989 131.053 55.0966 130.632 55.608C130.212 56.108 130.001 56.7557 130.001 57.5511C130.001 58.6875 130.416 59.5455 131.246 60.125C132.075 60.7045 133.132 60.9943 134.416 60.9943ZM159.013 49.6591V65H152.842V38.8182H158.74V43.267H159.047C159.649 41.8011 160.609 40.6364 161.928 39.7727C163.257 38.9091 164.899 38.4773 166.854 38.4773C168.661 38.4773 170.234 38.8636 171.575 39.6364C172.928 40.4091 173.973 41.5284 174.712 42.9943C175.462 44.4602 175.831 46.2386 175.82 48.3295V65H169.649V49.2841C169.649 47.5341 169.195 46.1648 168.286 45.1761C167.388 44.1875 166.143 43.6932 164.553 43.6932C163.473 43.6932 162.513 43.9318 161.672 44.4091C160.842 44.875 160.189 45.5511 159.712 46.4375C159.246 47.3239 159.013 48.3977 159.013 49.6591ZM191.808 65.4602C189.751 65.4602 187.911 64.9318 186.286 63.875C184.661 62.8182 183.376 61.2841 182.433 59.2727C181.49 57.2614 181.018 54.8182 181.018 51.9432C181.018 49.0341 181.496 46.5795 182.45 44.5795C183.416 42.5682 184.717 41.0511 186.354 40.0284C187.99 38.9943 189.814 38.4773 191.825 38.4773C193.359 38.4773 194.621 38.7386 195.609 39.2614C196.598 39.7727 197.382 40.392 197.962 41.1193C198.541 41.8352 198.99 42.5114 199.308 43.1477H199.564V30.0909H205.751V65H199.683V60.875H199.308C198.99 61.5114 198.53 62.1875 197.928 62.9034C197.325 63.608 196.53 64.2102 195.541 64.7102C194.553 65.2102 193.308 65.4602 191.808 65.4602ZM193.53 60.3977C194.837 60.3977 195.95 60.0455 196.871 59.3409C197.791 58.625 198.49 57.6307 198.967 56.358C199.445 55.0852 199.683 53.6023 199.683 51.9091C199.683 50.2159 199.445 48.7443 198.967 47.4943C198.501 46.2443 197.808 45.2727 196.888 44.5795C195.979 43.8864 194.859 43.5398 193.53 43.5398C192.155 43.5398 191.007 43.8977 190.087 44.6136C189.166 45.3295 188.473 46.3182 188.007 47.5795C187.541 48.8409 187.308 50.2841 187.308 51.9091C187.308 53.5455 187.541 55.0057 188.007 56.2898C188.484 57.5625 189.183 58.5682 190.104 59.3068C191.036 60.0341 192.178 60.3977 193.53 60.3977Z" fill="#1C1C1C"/>
</svg>
