<svg width="20" height="20" viewBox="0 0 20 20" fill="none" xmlns="http://www.w3.org/2000/svg">
<path d="M10 4C9.58579 4 9.25 4.33579 9.25 4.75V6.25C9.25 6.66421 9.58579 7 10 7C10.4142 7 10.75 6.66421 10.75 6.25V4.75C10.75 4.33579 10.4142 4 10 4Z" fill="#1C1C1C"/>
<path d="M10 13C9.58579 13 9.25 13.3358 9.25 13.75V15.25C9.25 15.6642 9.58579 16 10 16C10.4142 16 10.75 15.6642 10.75 15.25V13.75C10.75 13.3358 10.4142 13 10 13Z" fill="#1C1C1C"/>
<path fill-rule="evenodd" clip-rule="evenodd" d="M10 0.25C10 0.25 11.9831 0.25 13.7954 1.01651C13.7954 1.01651 15.5452 1.75663 16.8943 3.10571C16.8943 3.10571 18.2434 4.45478 18.9835 6.20463C18.9835 6.20463 19.75 8.01687 19.75 10C19.75 10 19.75 11.9831 18.9835 13.7954C18.9835 13.7954 18.2434 15.5452 16.8943 16.8943C16.8943 16.8943 15.5452 18.2434 13.7954 18.9835C13.7954 18.9835 11.9831 19.75 10 19.75C10 19.75 8.01687 19.75 6.20463 18.9835C6.20463 18.9835 4.45478 18.2434 3.10571 16.8943C3.10571 16.8943 1.75663 15.5452 1.01651 13.7954C1.01651 13.7954 0.25 11.9831 0.25 10C0.25 10 0.25 8.01687 1.01651 6.20463C1.01651 6.20463 1.75663 4.45478 3.10571 3.10571C3.10571 3.10571 4.45478 1.75663 6.20463 1.01651C6.20463 1.01651 8.01687 0.25 10 0.25ZM10 1.75C10 1.75 8.32105 1.75 6.78896 2.39802C6.78896 2.39802 5.30857 3.02417 4.16637 4.16637C4.16637 4.16637 3.02417 5.30857 2.39802 6.78896C2.39802 6.78896 1.75 8.32104 1.75 10C1.75 10 1.75 11.679 2.39802 13.211C2.39802 13.211 3.02417 14.6914 4.16637 15.8336C4.16637 15.8336 5.30857 16.9758 6.78896 17.602C6.78896 17.602 8.32105 18.25 10 18.25C10 18.25 11.679 18.25 13.211 17.602C13.211 17.602 14.6914 16.9758 15.8336 15.8336C15.8336 15.8336 16.9758 14.6914 17.602 13.211C17.602 13.211 18.25 11.6789 18.25 10C18.25 10 18.25 8.32105 17.602 6.78896C17.602 6.78896 16.9758 5.30857 15.8336 4.16637C15.8336 4.16637 14.6914 3.02417 13.211 2.39802C13.211 2.39802 11.679 1.75 10 1.75Z" fill="#1C1C1C"/>
<path d="M8.875 7H12.25C12.6642 7 13 6.66421 13 6.25C13 5.83579 12.6642 5.5 12.25 5.5H8.875C7.78769 5.5 7.01884 6.26884 7.01884 6.26884C6.25 7.03769 6.25 8.125 6.25 8.125C6.25 9.21231 7.01884 9.98116 7.01884 9.98116C7.78769 10.75 8.875 10.75 8.875 10.75H11.125C11.591 10.75 11.9205 11.0795 11.9205 11.0795C12.25 11.409 12.25 11.875 12.25 11.875C12.25 12.341 11.9205 12.6705 11.9205 12.6705C11.591 13 11.125 13 11.125 13H7.75C7.33579 13 7 13.3358 7 13.75C7 14.1642 7.33579 14.5 7.75 14.5H11.125C12.2123 14.5 12.9812 13.7312 12.9812 13.7312C13.75 12.9623 13.75 11.875 13.75 11.875C13.75 10.7877 12.9812 10.0188 12.9812 10.0188C12.2123 9.25 11.125 9.25 11.125 9.25H8.875C8.40901 9.25 8.0795 8.9205 8.0795 8.9205C7.75 8.59099 7.75 8.125 7.75 8.125C7.75 7.65901 8.0795 7.32951 8.0795 7.32951C8.40901 7 8.875 7 8.875 7Z" fill="#1C1C1C"/>
</svg>
