<svg width="10" height="10" viewBox="0 0 10 10" fill="none" xmlns="http://www.w3.org/2000/svg">
<path d="M8.82982 4.73293C8.89962 4.80464 8.93828 4.90101 8.9374 5.00108C8.93653 5.10115 8.89618 5.19682 8.82513 5.2673L4.98138 9.10637C4.48908 9.59867 3.82136 9.87525 3.12513 9.87525C2.4289 9.87525 1.76119 9.59867 1.26888 9.10637C0.776576 8.61406 0.5 7.94634 0.5 7.25012C0.5 6.55389 0.776576 5.88617 1.26888 5.39387L5.92357 0.678241C6.09579 0.496653 6.30262 0.35138 6.53186 0.250985C6.76111 0.15059 7.00814 0.0971046 7.25838 0.0936813C7.50862 0.090258 7.75702 0.136966 7.98893 0.231053C8.22083 0.32514 8.43156 0.4647 8.60868 0.641509C8.7858 0.818317 8.92573 1.0288 9.02023 1.26054C9.11473 1.49228 9.16187 1.74059 9.15889 1.99084C9.15591 2.24109 9.10286 2.48821 9.00287 2.71763C8.90288 2.94705 8.75798 3.15414 8.5767 3.32668L3.92201 8.0423C3.81796 8.14795 3.6939 8.2318 3.55708 8.28894C3.42026 8.34609 3.27341 8.37538 3.12513 8.37512C2.90223 8.37566 2.68418 8.30998 2.49867 8.1864C2.31316 8.06282 2.16853 7.88692 2.08316 7.68101C1.99778 7.4751 1.9755 7.24847 2.01914 7.02988C2.06277 6.81129 2.17037 6.61058 2.32826 6.45324L6.23295 2.48762C6.26673 2.44972 6.30787 2.41907 6.35385 2.39754C6.39984 2.37602 6.44971 2.36405 6.50046 2.36237C6.55121 2.36069 6.60176 2.36934 6.64907 2.38778C6.69638 2.40622 6.73945 2.43408 6.77566 2.46966C6.81188 2.50525 6.8405 2.54782 6.85978 2.59479C6.87905 2.64176 6.88859 2.69216 6.88781 2.74293C6.88703 2.7937 6.87595 2.84378 6.85524 2.89013C6.83453 2.93649 6.80462 2.97816 6.76732 3.01262L2.86263 6.98293C2.82709 7.01777 2.79883 7.05934 2.77952 7.10521C2.76021 7.15108 2.75022 7.20034 2.75013 7.25012C2.75151 7.32389 2.77435 7.39567 2.81587 7.45667C2.85739 7.51767 2.91578 7.56525 2.9839 7.59359C3.05203 7.62194 3.12694 7.62982 3.19947 7.61627C3.27201 7.60272 3.33902 7.56833 3.39232 7.5173L8.04232 2.79699C8.14797 2.69295 8.23181 2.56889 8.28896 2.43206C8.3461 2.29524 8.3754 2.14839 8.37513 2.00012C8.37568 1.77721 8.31 1.55917 8.18642 1.37365C8.06284 1.18814 7.88694 1.04352 7.68103 0.95814C7.47512 0.872764 7.24849 0.850481 7.0299 0.894119C6.81131 0.937756 6.6106 1.04535 6.45326 1.20324L1.80326 5.92355C1.62167 6.09577 1.4764 6.3026 1.376 6.53185C1.27561 6.76109 1.22212 7.00812 1.2187 7.25836C1.21528 7.5086 1.26198 7.757 1.35607 7.98891C1.45016 8.22082 1.58972 8.43154 1.76653 8.60866C1.94334 8.78578 2.15381 8.92572 2.38555 9.02021C2.61729 9.11471 2.86561 9.16186 3.11586 9.15888C3.3661 9.1559 3.61322 9.10285 3.84265 9.00286C4.07207 8.90287 4.27916 8.75796 4.4517 8.57668L8.29545 4.73293C8.36654 4.66251 8.46257 4.62301 8.56263 4.62301C8.6627 4.62301 8.75872 4.66251 8.82982 4.73293Z" fill="white" fill-opacity="0.4"/>
</svg>
