<svg width="20" height="17" viewBox="0 0 20 17" fill="none" xmlns="http://www.w3.org/2000/svg">
<path d="M1.75 14.75V5.75C1.75 5.33579 1.41421 5 1 5C0.585786 5 0.25 5.33579 0.25 5.75V14.75C0.25 15.3713 0.68934 15.8107 0.68934 15.8107C1.12868 16.25 1.75 16.25 1.75 16.25H18.25C18.8713 16.25 19.3107 15.8107 19.3107 15.8107C19.75 15.3713 19.75 14.75 19.75 14.75V4.25C19.75 3.62868 19.3107 3.18934 19.3107 3.18934C18.8713 2.75 18.25 2.75 18.25 2.75H10C9.58579 2.75 9.25 3.08579 9.25 3.5C9.25 3.91421 9.58579 4.25 10 4.25H18.25V14.75H1.75Z" fill="#1C1C1C"/>
<path fill-rule="evenodd" clip-rule="evenodd" d="M7.6444 6.20185C7.6444 6.20185 7.24649 6.49773 6.7507 6.49999L6.74688 6.5H1C0.585786 6.5 0.25 6.16421 0.25 5.75V2C0.25 2 0.25 1.37868 0.68934 0.93934C0.68934 0.93934 1.12868 0.5 1.75 0.5L6.74996 0.500006C6.74996 0.500006 7.24619 0.502047 7.64655 0.799759L10.4497 2.89976C10.5068 2.94253 10.5575 2.99323 10.6002 3.05032C10.7195 3.20951 10.7706 3.40957 10.7424 3.60646C10.7142 3.80336 10.6089 3.98098 10.4497 4.10024L7.6444 6.20185ZM6.74412 5C6.74412 5 6.747 4.9999 6.74935 4.99815L8.74911 3.5L6.7472 2.00024C6.7472 2.00024 6.74687 2.00001 6.74379 1.99999L1.75 2V5H6.74412Z" fill="#1C1C1C"/>
</svg>
