<svg width="24" height="17" viewBox="0 0 24 17" fill="none" xmlns="http://www.w3.org/2000/svg">
<path fill-rule="evenodd" clip-rule="evenodd" d="M12 4.62501C12 4.62501 13.864 4.62501 15.182 5.94303C15.182 5.94303 16.5 7.26105 16.5 9.12501C16.5 9.12501 16.5 10.989 15.182 12.307C15.182 12.307 13.864 13.625 12 13.625C12 13.625 10.136 13.625 8.81802 12.307C8.81802 12.307 7.5 10.989 7.5 9.12501C7.5 9.12501 7.5 7.26105 8.81802 5.94303C8.81802 5.94303 10.136 4.62501 12 4.62501ZM12 6.12501C12 6.12501 10.7574 6.12501 9.87868 7.00369C9.87868 7.00369 9 7.88237 9 9.12501C9 9.12501 9 10.3677 9.87868 11.2463C9.87868 11.2463 10.7574 12.125 12 12.125C12 12.125 13.2426 12.125 14.1213 11.2463C14.1213 11.2463 15 10.3677 15 9.12501C15 9.12501 15 7.88237 14.1213 7.00369C14.1213 7.00369 13.2426 6.12501 12 6.12501Z" fill="#1C1C1C"/>
<path d="M22.274 9.57369C22.3931 9.73301 22.5708 9.83884 22.7677 9.8673C22.8032 9.87244 22.8391 9.87502 22.875 9.87502L22.8763 9.87502C23.0377 9.87473 23.1947 9.82239 23.324 9.72577C23.5135 9.58418 23.625 9.36153 23.625 9.12502L23.625 9.11643C23.6232 8.95753 23.5709 8.8033 23.4758 8.67601L23.4751 8.67517C22.5736 7.46938 21.227 6.79606 21.227 6.79606C19.8799 6.1225 18.3738 6.12502 18.3738 6.12502L18.375 6.12502C18.7892 6.12502 19.125 6.4608 19.125 6.87502C19.125 7.28858 18.7902 7.6241 18.3767 7.62502L22.274 9.57369Z" fill="#1C1C1C"/>
<path d="M3.44384 8.1377C4.47305 7.62309 5.62375 7.62502 5.62375 7.62502L5.6248 7.62502C5.63639 7.62502 5.64819 7.62475 5.65977 7.62421C5.84603 7.61557 6.02238 7.53786 6.15444 7.40623C6.29533 7.26582 6.37467 7.07518 6.375 6.87627L6.375 6.87524C6.375 6.82988 6.37089 6.78439 6.36271 6.73978C6.29751 6.38413 5.98783 6.12562 5.62625 6.12502L5.625 6.12502C4.11958 6.12278 2.77302 6.79606 2.77302 6.79606C1.42638 7.46938 0.524888 8.67517 0.524888 8.67517L0.524345 8.67589C0.427356 8.80566 0.375 8.96317 0.375 9.12502L0.375041 9.13287C0.37539 9.16616 0.377954 9.19938 0.382716 9.23233C0.411176 9.42919 0.516675 9.60669 0.676004 9.72577C0.805645 9.82266 0.963152 9.87502 1.125 9.87502C1.13503 9.87502 1.14505 9.87482 1.15507 9.87441C1.38084 9.86535 1.59049 9.755 1.72575 9.57401C2.41463 8.6523 3.44384 8.1377 3.44384 8.1377Z" fill="#1C1C1C"/>
<path d="M14.786 14.4259C16.064 15.2241 16.7254 16.5777 16.7254 16.5777L16.7258 16.5786C16.8516 16.8362 17.1134 17 17.4 17L17.4205 16.9997C17.5276 16.9968 17.6328 16.9709 17.7291 16.9239C17.9866 16.7982 18.15 16.5366 18.15 16.25L18.1497 16.2295C18.1468 16.1224 18.1209 16.0172 18.0739 15.9209C17.2239 14.1804 15.5806 13.1537 15.5806 13.1537C13.9374 12.1274 12 12.1274 12 12.1274C10.0626 12.1274 8.41936 13.1537 8.41936 13.1537C6.77641 14.1798 5.92633 15.9203 5.92633 15.9203C5.87626 16.0229 5.84999 16.1359 5.84999 16.25L5.85005 16.2598C5.85109 16.3395 5.86483 16.4185 5.89074 16.4938C5.95542 16.682 6.09217 16.8367 6.27091 16.9239C6.37339 16.974 6.48594 17 6.59999 17L6.61721 16.9998C6.89756 16.9934 7.1509 16.8311 7.27394 16.5791C7.93538 15.2245 9.21395 14.4259 9.21395 14.4259C10.4925 13.6274 12 13.6274 12 13.6274C13.5074 13.6274 14.786 14.4259 14.786 14.4259Z" fill="#1C1C1C"/>
<path d="M7.26176 2.33438C7.70944 2.81089 7.83204 3.45312 7.83204 3.45312C7.86933 3.6485 7.98272 3.82107 8.14725 3.93285C8.27158 4.01733 8.41842 4.06249 8.56873 4.06249L8.5736 4.06248C8.61916 4.06218 8.6646 4.05773 8.70936 4.04919C9.06296 3.98169 9.31874 3.67248 9.31874 3.31249L9.31872 3.30827C9.31846 3.26249 9.31402 3.21683 9.30543 3.17187C9.10111 2.10149 8.35497 1.3073 8.35497 1.3073C7.60884 0.513118 6.55328 0.242484 6.55328 0.242484C5.49772 -0.0281501 4.4615 0.309059 4.4615 0.309059C3.42528 0.646269 2.73116 1.48629 2.73116 1.48629C2.03703 2.32632 1.90119 3.40752 1.90119 3.40752C1.76535 4.48872 2.2301 5.47435 2.2301 5.47435C2.69486 6.45998 3.61545 7.04304 3.61545 7.04304C4.53572 7.62589 5.6248 7.62502 5.6248 7.62502L5.62575 7.62499C5.82466 7.62479 6.01534 7.54558 6.15585 7.40478C6.29618 7.26417 6.375 7.07389 6.375 6.87524L6.37498 6.87423C6.37456 6.46031 6.03892 6.12502 5.625 6.12502L5.62422 6.12499C4.9704 6.12566 4.41805 5.77582 4.41805 5.77582C3.86569 5.42598 3.58684 4.83461 3.58684 4.83461C3.30799 4.24323 3.38949 3.59451 3.38949 3.59451C3.471 2.94579 3.88747 2.44177 3.88747 2.44177C4.30395 1.93776 4.92568 1.73543 4.92568 1.73543C5.54741 1.53311 6.18074 1.69549 6.18074 1.69549C6.81408 1.85787 7.26176 2.33438 7.26176 2.33438Z" fill="#1C1C1C"/>
<path d="M19.5819 5.77582C19.0296 6.12566 18.3758 6.12499 18.3758 6.12499L18.375 6.12502C18.3633 6.12502 18.3515 6.12527 18.3397 6.12582L17.6258 6.91026C17.6346 7.0965 17.7124 7.27281 17.8441 7.40478C17.9846 7.54558 18.1753 7.62479 18.3742 7.62499L18.375 7.62499C19.4643 7.62589 20.3845 7.04304 20.3845 7.04304C21.3051 6.45998 21.7699 5.47435 21.7699 5.47435C22.2346 4.48872 22.0988 3.40752 22.0988 3.40752C21.963 2.32632 21.2688 1.48629 21.2688 1.48629C20.5747 0.646269 19.5385 0.30906 19.5385 0.30906C18.5023 -0.0281501 17.4467 0.242484 17.4467 0.242484C16.3912 0.513118 15.645 1.3073 15.645 1.3073C14.8989 2.10149 14.6946 3.17187 14.6946 3.17187C14.6857 3.21822 14.6813 3.2653 14.6813 3.31249C14.6813 3.33503 14.6823 3.35756 14.6843 3.38C14.7144 3.71338 14.9618 3.98643 15.2906 4.04919C15.337 4.05804 15.3841 4.06249 15.4313 4.06249C15.4538 4.06249 15.4763 4.06147 15.4988 4.05945C15.8321 4.02931 16.1052 3.78191 16.168 3.45312C16.2906 2.81089 16.7382 2.33438 16.7382 2.33438C17.1859 1.85787 17.8193 1.69549 17.8193 1.69549C18.4526 1.53311 19.0743 1.73543 19.0743 1.73543C19.696 1.93776 20.1125 2.44177 20.1125 2.44177C20.529 2.94579 20.6105 3.59451 20.6105 3.59451C20.692 4.24323 20.4132 4.83461 20.4132 4.83461C20.1343 5.42598 19.5819 5.77582 19.5819 5.77582Z" fill="#1C1C1C"/>
</svg>
