<svg width="12" height="12" viewBox="0 0 12 12" fill="none" xmlns="http://www.w3.org/2000/svg">
<path d="M9.82982 5.73293C9.89962 5.80464 9.93828 5.90101 9.9374 6.00108C9.93653 6.10115 9.89618 6.19682 9.82513 6.2673L5.98138 10.1064C5.48908 10.5987 4.82136 10.8752 4.12513 10.8752C3.4289 10.8752 2.76119 10.5987 2.26888 10.1064C1.77658 9.61406 1.5 8.94634 1.5 8.25012C1.5 7.55389 1.77658 6.88617 2.26888 6.39387L6.92357 1.67824C7.09579 1.49665 7.30262 1.35138 7.53186 1.25099C7.76111 1.15059 8.00814 1.0971 8.25838 1.09368C8.50862 1.09026 8.75702 1.13697 8.98893 1.23105C9.22083 1.32514 9.43156 1.4647 9.60868 1.64151C9.7858 1.81832 9.92573 2.0288 10.0202 2.26054C10.1147 2.49228 10.1619 2.74059 10.1589 2.99084C10.1559 3.24109 10.1029 3.48821 10.0029 3.71763C9.90288 3.94705 9.75798 4.15414 9.5767 4.32668L4.92201 9.0423C4.81796 9.14795 4.6939 9.2318 4.55708 9.28894C4.42026 9.34609 4.27341 9.37538 4.12513 9.37512C3.90223 9.37566 3.68418 9.30998 3.49867 9.1864C3.31316 9.06282 3.16853 8.88692 3.08316 8.68101C2.99778 8.4751 2.9755 8.24847 3.01914 8.02988C3.06277 7.81129 3.17037 7.61058 3.32826 7.45324L7.23295 3.48762C7.26673 3.44972 7.30787 3.41907 7.35385 3.39754C7.39984 3.37602 7.44971 3.36405 7.50046 3.36237C7.55121 3.36069 7.60176 3.36934 7.64907 3.38778C7.69638 3.40622 7.73945 3.43408 7.77566 3.46966C7.81188 3.50525 7.8405 3.54782 7.85978 3.59479C7.87905 3.64176 7.88859 3.69216 7.88781 3.74293C7.88703 3.7937 7.87595 3.84378 7.85524 3.89013C7.83453 3.93649 7.80462 3.97816 7.76732 4.01262L3.86263 7.98293C3.82709 8.01777 3.79883 8.05934 3.77952 8.10521C3.76021 8.15108 3.75022 8.20034 3.75013 8.25012C3.75151 8.32389 3.77435 8.39567 3.81587 8.45667C3.85739 8.51767 3.91578 8.56525 3.9839 8.59359C4.05203 8.62194 4.12694 8.62982 4.19947 8.61627C4.27201 8.60272 4.33902 8.56833 4.39232 8.5173L9.04232 3.79699C9.14797 3.69295 9.23181 3.56889 9.28896 3.43206C9.3461 3.29524 9.3754 3.14839 9.37513 3.00012C9.37568 2.77721 9.31 2.55917 9.18642 2.37365C9.06284 2.18814 8.88694 2.04352 8.68103 1.95814C8.47512 1.87276 8.24849 1.85048 8.0299 1.89412C7.81131 1.93776 7.6106 2.04535 7.45326 2.20324L2.80326 6.92355C2.62167 7.09577 2.4764 7.3026 2.376 7.53185C2.27561 7.76109 2.22212 8.00812 2.2187 8.25836C2.21528 8.5086 2.26198 8.757 2.35607 8.98891C2.45016 9.22082 2.58972 9.43154 2.76653 9.60866C2.94334 9.78578 3.15381 9.92572 3.38555 10.0202C3.61729 10.1147 3.86561 10.1619 4.11586 10.1589C4.3661 10.1559 4.61322 10.1028 4.84265 10.0029C5.07207 9.90287 5.27916 9.75796 5.4517 9.57668L9.29545 5.73293C9.36654 5.66251 9.46257 5.62301 9.56263 5.62301C9.6627 5.62301 9.75872 5.66251 9.82982 5.73293Z" fill="black" fill-opacity="0.4"/>
</svg>
