<svg width="32" height="32" viewBox="0 0 32 32" fill="none" xmlns="http://www.w3.org/2000/svg">
<path d="M10.2929 12.2929C9.90237 12.6834 9.90237 13.3166 10.2929 13.7071C10.6834 14.0976 11.3166 14.0976 11.7071 13.7071L16 9.41421L20.2929 13.7071C20.6834 14.0976 21.3166 14.0976 21.7071 13.7071C22.0976 13.3166 22.0976 12.6834 21.7071 12.2929L16.7071 7.29289C16.3166 6.90237 15.6834 6.90237 15.2929 7.29289L10.2929 12.2929Z" fill="#1C1C1C"/>
<path d="M21.7071 19.7071C22.0976 19.3166 22.0976 18.6834 21.7071 18.2929C21.3166 17.9024 20.6834 17.9024 20.2929 18.2929L16 22.5858L11.7071 18.2929C11.3166 17.9024 10.6834 17.9024 10.2929 18.2929C9.90237 18.6834 9.90237 19.3166 10.2929 19.7071L15.2929 24.7071C15.6834 25.0976 16.3166 25.0976 16.7071 24.7071L21.7071 19.7071Z" fill="#1C1C1C"/>
</svg>
