<svg width="32" height="32" viewBox="0 0 32 32" fill="none" xmlns="http://www.w3.org/2000/svg">
<path fill-rule="evenodd" clip-rule="evenodd" d="M11 7C8.79086 7 7 8.79086 7 11V21C7 23.2091 8.79086 25 11 25H21C23.2091 25 25 23.2091 25 21V11C25 8.79086 23.2091 7 21 7H11ZM19.7071 14.7071C20.0976 14.3166 20.0976 13.6834 19.7071 13.2929C19.3166 12.9024 18.6834 12.9024 18.2929 13.2929L15 16.5858L13.7071 15.2929C13.3166 14.9024 12.6834 14.9024 12.2929 15.2929C11.9024 15.6834 11.9024 16.3166 12.2929 16.7071L14.2929 18.7071C14.6834 19.0976 15.3166 19.0976 15.7071 18.7071L19.7071 14.7071Z" fill="#1C1C1C"/>
</svg>
