<svg width="32" height="32" viewBox="0 0 32 32" fill="none" xmlns="http://www.w3.org/2000/svg">
<path d="M10.3428 8.92888C9.95232 8.53836 9.31916 8.53836 8.92864 8.92888C8.53811 9.3194 8.53811 9.95257 8.92864 10.3431L14.5855 16L8.92871 21.6568C8.53819 22.0473 8.53819 22.6805 8.92871 23.071C9.31923 23.4615 9.9524 23.4615 10.3429 23.071L15.9997 17.4142L21.6566 23.071C22.0471 23.4615 22.6802 23.4615 23.0708 23.071C23.4613 22.6805 23.4613 22.0473 23.0708 21.6568L17.414 16L23.0708 10.3431C23.4614 9.95257 23.4614 9.31941 23.0708 8.92888C22.6803 8.53836 22.0472 8.53836 21.6566 8.92888L15.9997 14.5858L10.3428 8.92888Z" fill="#1C1C1C"/>
</svg>
