<svg width="32" height="32" viewBox="0 0 32 32" fill="none" xmlns="http://www.w3.org/2000/svg">
<path d="M28.7002 28.7125C28.5135 28.8963 28.2622 28.9996 28.0002 29C27.7347 28.9989 27.4796 28.896 27.2877 28.7125L21.8877 23.3C19.6134 25.2103 16.6895 26.1688 13.7257 25.9756C10.7619 25.7825 7.9871 24.4526 5.98 22.2633C3.97291 20.074 2.88849 17.1944 2.95291 14.225C3.01733 11.2556 4.22563 8.42577 6.32579 6.32561C8.42596 4.22545 11.2558 3.01715 14.2252 2.95273C17.1946 2.8883 20.0742 3.97272 22.2635 5.97982C24.4528 7.98692 25.7826 10.7617 25.9758 13.7255C26.169 16.6893 25.2104 19.6132 23.3002 21.8875L28.7002 27.2875C28.7947 27.3806 28.8697 27.4915 28.9209 27.6138C28.9721 27.7361 28.9985 27.8674 28.9985 28C28.9985 28.1326 28.9721 28.2639 28.9209 28.3862C28.8697 28.5085 28.7947 28.6195 28.7002 28.7125ZM14.5002 24C16.3791 24 18.2158 23.4428 19.7781 22.399C21.3404 21.3551 22.558 19.8714 23.277 18.1355C23.9961 16.3996 24.1842 14.4895 23.8177 12.6467C23.4511 10.8038 22.5463 9.11109 21.2177 7.7825C19.8891 6.4539 18.1964 5.54911 16.3536 5.18255C14.5107 4.81599 12.6006 5.00412 10.8647 5.72316C9.1288 6.44219 7.64511 7.65983 6.60123 9.22209C5.55736 10.7844 5.00019 12.6211 5.00019 14.5C5.0035 17.0186 6.00545 19.433 7.78633 21.2139C9.56721 22.9948 11.9817 23.9967 14.5002 24Z" fill="#1C1C1C"/>
</svg>
