<svg width="14" height="10" viewBox="0 0 14 10" fill="none" xmlns="http://www.w3.org/2000/svg">
<path d="M2.77219 7.96591V2.34091H3.72674V7.96591H2.77219ZM0.436967 5.63068V4.67614H6.06197V5.63068H0.436967ZM10.9167 9.61932C10.3542 9.61932 9.85281 9.52273 9.41246 9.32955C8.97496 9.13636 8.62695 8.8679 8.36843 8.52415C8.11275 8.17756 7.97354 7.77557 7.95082 7.31818H9.02468C9.04741 7.59943 9.144 7.84233 9.31445 8.04688C9.48491 8.24858 9.70792 8.40483 9.98349 8.51562C10.2591 8.62642 10.5645 8.68182 10.8997 8.68182C11.2747 8.68182 11.6071 8.61648 11.8968 8.4858C12.1866 8.35511 12.4139 8.1733 12.5787 7.94034C12.7434 7.70739 12.8258 7.4375 12.8258 7.13068C12.8258 6.80966 12.7463 6.52699 12.5872 6.28267C12.4281 6.03551 12.1951 5.84233 11.8883 5.70312C11.5815 5.56392 11.2065 5.49432 10.7633 5.49432H10.0645V4.55682H10.7633C11.1099 4.55682 11.4139 4.49432 11.6752 4.36932C11.9395 4.24432 12.1454 4.06818 12.2931 3.84091C12.4437 3.61364 12.519 3.34659 12.519 3.03977C12.519 2.74432 12.4537 2.48722 12.323 2.26847C12.1923 2.04972 12.0076 1.87926 11.769 1.7571C11.5332 1.63494 11.2548 1.57386 10.9338 1.57386C10.6326 1.57386 10.3485 1.62926 10.0815 1.74006C9.81729 1.84801 9.60138 2.00568 9.43377 2.21307C9.26616 2.41761 9.17525 2.66477 9.16104 2.95455H8.13832C8.15536 2.49716 8.29315 2.09659 8.55167 1.75284C8.81019 1.40625 9.14826 1.13636 9.56587 0.943182C9.98633 0.75 10.448 0.653409 10.9508 0.653409C11.4906 0.653409 11.9537 0.762784 12.34 0.981534C12.7264 1.19744 13.0233 1.48295 13.2306 1.83807C13.438 2.19318 13.5417 2.5767 13.5417 2.98864C13.5417 3.48011 13.4125 3.89915 13.1539 4.24574C12.8983 4.59233 12.5502 4.83239 12.1099 4.96591V5.03409C12.661 5.125 13.0914 5.35937 13.4011 5.73722C13.7108 6.11222 13.8656 6.5767 13.8656 7.13068C13.8656 7.60511 13.7363 8.03125 13.4778 8.40909C13.2221 8.78409 12.8727 9.07955 12.4295 9.29545C11.9863 9.51136 11.4821 9.61932 10.9167 9.61932Z" fill="#1C1C1C"/>
</svg>
