<svg width="24" height="24" viewBox="0 0 24 24" fill="none" xmlns="http://www.w3.org/2000/svg">
<rect width="24" height="24" rx="12" fill="#E5ECF6"/>
<path d="M7.77219 13.9659V8.34091H8.72674V13.9659H7.77219ZM5.43697 11.6307V10.6761H11.062V11.6307H5.43697ZM15.9167 15.6193C15.3542 15.6193 14.8528 15.5227 14.4125 15.3295C13.975 15.1364 13.627 14.8679 13.3684 14.5241C13.1127 14.1776 12.9735 13.7756 12.9508 13.3182H14.0247C14.0474 13.5994 14.144 13.8423 14.3145 14.0469C14.4849 14.2486 14.7079 14.4048 14.9835 14.5156C15.2591 14.6264 15.5645 14.6818 15.8997 14.6818C16.2747 14.6818 16.6071 14.6165 16.8968 14.4858C17.1866 14.3551 17.4139 14.1733 17.5787 13.9403C17.7434 13.7074 17.8258 13.4375 17.8258 13.1307C17.8258 12.8097 17.7463 12.527 17.5872 12.2827C17.4281 12.0355 17.1951 11.8423 16.8883 11.7031C16.5815 11.5639 16.2065 11.4943 15.7633 11.4943H15.0645V10.5568H15.7633C16.1099 10.5568 16.4139 10.4943 16.6752 10.3693C16.9395 10.2443 17.1454 10.0682 17.2931 9.84091C17.4437 9.61364 17.519 9.34659 17.519 9.03977C17.519 8.74432 17.4537 8.48722 17.323 8.26847C17.1923 8.04972 17.0076 7.87926 16.769 7.7571C16.5332 7.63494 16.2548 7.57386 15.9338 7.57386C15.6326 7.57386 15.3485 7.62926 15.0815 7.74006C14.8173 7.84801 14.6014 8.00568 14.4338 8.21307C14.2662 8.41761 14.1752 8.66477 14.161 8.95455H13.1383C13.1554 8.49716 13.2931 8.09659 13.5517 7.75284C13.8102 7.40625 14.1483 7.13636 14.5659 6.94318C14.9863 6.75 15.448 6.65341 15.9508 6.65341C16.4906 6.65341 16.9537 6.76278 17.34 6.98153C17.7264 7.19744 18.0233 7.48295 18.2306 7.83807C18.438 8.19318 18.5417 8.5767 18.5417 8.98864C18.5417 9.48011 18.4125 9.89915 18.1539 10.2457C17.8983 10.5923 17.5502 10.8324 17.1099 10.9659V11.0341C17.661 11.125 18.0914 11.3594 18.4011 11.7372C18.7108 12.1122 18.8656 12.5767 18.8656 13.1307C18.8656 13.6051 18.7363 14.0312 18.4778 14.4091C18.2221 14.7841 17.8727 15.0795 17.4295 15.2955C16.9863 15.5114 16.4821 15.6193 15.9167 15.6193Z" fill="#1C1C1C"/>
</svg>
