<svg width="32" height="32" viewBox="0 0 32 32" fill="none" xmlns="http://www.w3.org/2000/svg">
<path fill-rule="evenodd" clip-rule="evenodd" d="M23.1523 14.2773L26.7366 10.9064C26.7656 10.8832 26.7933 10.8584 26.8195 10.8322L26.8945 10.7572C26.9163 10.7354 26.9371 10.7126 26.9568 10.6889C26.9568 10.6889 27.9926 9.55902 27.9926 8.00008C27.9926 8.00008 27.9926 6.34107 26.8195 5.16797C26.8195 5.16797 25.6464 3.99487 23.9874 3.99487C23.9874 3.99487 22.3284 3.99487 21.1553 5.16797C21.1008 5.22246 21.0528 5.28307 21.0122 5.34858L17.7122 8.83595L7.32915 5.06028C6.96402 4.92751 6.55503 5.01824 6.2803 5.29297L3.2803 8.29297C3.23374 8.33953 3.19189 8.39058 3.15536 8.44538C2.84901 8.90491 2.97318 9.52577 3.43271 9.83213L11.4178 15.1555L9.5732 17.0001H6.98741C6.72219 17.0001 6.46784 17.1054 6.2803 17.293L3.2803 20.293C3.17139 20.4019 3.0891 20.5345 3.03987 20.6805C2.9551 20.9318 2.97363 21.2064 3.09139 21.4441C3.20914 21.6817 3.41648 21.8629 3.66778 21.9476L8.42409 23.552L10.0403 28.321C10.0896 28.4665 10.1717 28.5986 10.2803 28.7072C10.6708 29.0977 11.304 29.0977 11.6945 28.7072L14.6945 25.7072C14.8821 25.5196 14.9874 25.2653 14.9874 25.0001V22.4424L16.8347 20.7631L22.1616 28.564C22.1966 28.6153 22.2364 28.6632 22.2803 28.7072C22.6708 29.0977 23.304 29.0977 23.6945 28.7072L26.6945 25.7072C26.9692 25.4325 27.06 25.0235 26.9272 24.6583L23.1523 14.2773ZM21.3023 13.2716L25.4597 9.36167C25.4597 9.36167 25.9926 8.79124 25.9926 8.00008C25.9926 8.00008 25.9926 7.1695 25.4053 6.58218C25.4053 6.58218 24.818 5.99487 23.9874 5.99487C23.9874 5.99487 23.2701 5.99487 22.7343 6.43289C22.7159 6.45607 22.6966 6.47843 22.6763 6.4999L18.7138 10.6874C18.4398 10.9769 18.0202 11.0761 17.6457 10.9399L7.24419 7.15751L5.55705 8.84465L13.5421 14.168C13.5969 14.2046 13.648 14.2464 13.6945 14.293C14.085 14.6835 14.085 15.3167 13.6945 15.7072L10.6945 18.7072C10.507 18.8947 10.2526 19.0001 9.98741 19.0001H7.40162L5.83407 20.5676L9.53204 21.815C9.82742 21.9147 10.0594 22.1464 10.1595 22.4416L11.4181 26.1552L12.9874 24.5859V22.0001C12.9874 21.7183 13.1063 21.4497 13.3147 21.2601L16.3397 18.5101C16.374 18.479 16.4103 18.4503 16.4485 18.4242C16.6675 18.2747 16.937 18.2183 17.1976 18.2674C17.4582 18.3165 17.6887 18.4671 17.8382 18.6862L23.1331 26.4402L24.83 24.7433L21.0476 14.3418C20.911 13.9662 21.0112 13.5454 21.3023 13.2716Z" fill="#1C1C1C"/>
</svg>
