<svg width="32" height="32" viewBox="0 0 32 32" fill="none" xmlns="http://www.w3.org/2000/svg">
<path d="M8.99991 28H26.9999C27.5522 28 27.9999 27.5523 27.9999 27C27.9999 26.4477 27.5522 26 26.9999 26H8.99991C8.44762 26 7.99991 26.4477 7.99991 27C7.99991 27.5523 8.44762 28 8.99991 28Z" fill="#1C1C1C"/>
<path fill-rule="evenodd" clip-rule="evenodd" d="M2.45359 9.20972C2.45359 9.20972 2.87795 8.99838 3.35188 9H5.49991C5.79668 9 6.07813 9.13182 6.26813 9.35982L8.46828 12H10.6125L9.48749 8.625C9.48749 8.625 9.33713 8.16795 9.4111 7.69252C9.4111 7.69252 9.48507 7.2171 9.76719 6.82733C9.76719 6.82733 10.0493 6.43757 10.4778 6.21876C10.4778 6.21876 10.9063 5.99996 11.3874 6H13.4999C13.7802 6 14.0477 6.11765 14.2371 6.32428L19.4398 12H25.9999C25.9999 12 28.071 12 29.5354 13.4645C29.5354 13.4645 30.9999 14.9289 30.9999 17V20C30.9999 20.5523 30.5522 21 29.9999 21L7.97337 21C7.97337 21 6.31969 20.9975 4.99362 20.0094C4.99362 20.0094 3.66756 19.0214 3.19225 17.4379L1.42963 11.575C1.42963 11.575 1.29293 11.1196 1.37579 10.6515C1.37579 10.6515 1.45864 10.1833 1.74332 9.80248C1.74332 9.80248 2.028 9.42167 2.45359 9.20972ZM3.34518 11L5.10756 16.8621C5.10756 16.8621 5.39295 17.8128 6.18858 18.4057C6.18858 18.4057 6.98422 18.9985 7.97644 19L28.9999 19V17C28.9999 17 28.9999 15.7574 28.1212 14.8787C28.1212 14.8787 27.2425 14 25.9999 14H18.9999C18.7196 14 18.4522 13.8824 18.2628 13.6757L13.06 8L11.3873 8L12.9486 12.6838C13.1232 13.2077 12.8401 13.774 12.3161 13.9487C12.2142 13.9827 12.1074 14 11.9999 14H7.99991C7.70313 14 7.42168 13.8682 7.23168 13.6402L5.03153 11H3.34991L3.34518 11Z" fill="#1C1C1C"/>
</svg>
