<svg width="32" height="32" viewBox="0 0 32 32" fill="none" xmlns="http://www.w3.org/2000/svg">
<path fill-rule="evenodd" clip-rule="evenodd" d="M16.0001 11C16.0001 11 17.6569 11 18.8285 12.1716C18.8285 12.1716 20.0001 13.3431 20.0001 15C20.0001 15 20.0001 16.6569 18.8285 17.8284C18.8285 17.8284 17.6569 19 16.0001 19C16.0001 19 14.3432 19 13.1716 17.8284C13.1716 17.8284 12.0001 16.6569 12.0001 15C12.0001 15 12.0001 13.3431 13.1716 12.1716C13.1716 12.1716 14.3432 11 16.0001 11ZM16.0001 13C16.0001 13 15.1716 13 14.5859 13.5858C14.5859 13.5858 14.0001 14.1716 14.0001 15C14.0001 15 14.0001 15.8284 14.5859 16.4142C14.5859 16.4142 15.1716 17 16.0001 17C16.0001 17 16.8285 17 17.4143 16.4142C17.4143 16.4142 18.0001 15.8284 18.0001 15C18.0001 15 18.0001 14.1716 17.4143 13.5858C17.4143 13.5858 16.8285 13 16.0001 13Z" fill="#1C1C1C"/>
<path fill-rule="evenodd" clip-rule="evenodd" d="M15.6378 29H16.3624C16.3624 29 17.4372 29.0002 18.2675 28.3179C18.2675 28.3179 19.0979 27.6356 19.3061 26.5812L20.5056 20.5836C20.5056 20.5836 20.6365 19.9208 20.4723 19.2679C20.4723 19.2679 20.308 18.6151 19.8805 18.095C19.8805 18.095 19.453 17.5749 18.8443 17.2874C18.8443 17.2874 18.2356 16.9999 17.5624 17H14.4376C14.4376 17 13.7645 16.9999 13.1558 17.2874C13.1558 17.2874 12.5471 17.5749 12.1196 18.095C12.1196 18.095 11.6921 18.6151 11.5279 19.2679C11.5279 19.2679 11.3636 19.9208 11.494 20.5813L12.6945 26.5836C12.6945 26.5836 12.9022 27.6356 13.7326 28.3179C13.7326 28.3179 14.563 29.0002 15.6378 29ZM16.3628 27C16.3628 27 16.721 27.0001 16.9978 26.7726C16.9978 26.7726 17.2746 26.5452 17.344 26.1938L18.5445 20.1914C18.5445 20.1914 18.5875 19.9736 18.5327 19.756C18.5327 19.756 18.478 19.5384 18.3355 19.365C18.3355 19.365 18.193 19.1916 17.9901 19.0958C17.9901 19.0958 17.7872 19 17.5628 19H14.4376C14.4376 19 14.213 19 14.01 19.0958C14.01 19.0958 13.8071 19.1916 13.6646 19.365C13.6646 19.365 13.5221 19.5384 13.4674 19.756C13.4674 19.756 13.4126 19.9736 13.4561 20.1938L14.6556 26.1914C14.6556 26.1914 14.7255 26.5452 15.0023 26.7726C15.0023 26.7726 15.2791 27.0001 15.6374 27H16.3628Z" fill="#1C1C1C"/>
<path d="M22.9529 15.2055C23.1536 16.9249 22.5298 18.5396 22.5298 18.5396C22.4854 18.6546 22.4626 18.7768 22.4626 18.9L22.4626 18.9083C22.466 19.3185 22.7196 19.685 23.1022 19.8328C23.2172 19.8772 23.3394 19.9 23.4626 19.9L23.4709 19.9C23.8811 19.8965 24.2476 19.643 24.3954 19.2603C24.3962 19.2583 24.3969 19.2565 24.3969 19.2565C25.1972 17.1822 24.9394 14.9736 24.9394 14.9736C24.6814 12.7629 23.4227 10.9274 23.4227 10.9274C22.164 9.09179 20.1949 8.05444 20.1949 8.05444C18.2258 7.01709 16.0001 7.01709 16.0001 7.01709C13.7745 7.01709 11.8053 8.05444 11.8053 8.05444C9.8362 9.09179 8.57753 10.9274 8.57753 10.9274C7.31887 12.7629 7.06081 14.9736 7.06081 14.9736C6.80276 17.1842 7.6048 19.2603 7.6048 19.2603C7.75371 19.6458 8.12438 19.9 8.53761 19.9L8.55407 19.8999C8.67175 19.8979 8.78818 19.8752 8.89797 19.8328C9.28344 19.6839 9.53761 19.3132 9.53761 18.9L9.53748 18.8835C9.53554 18.7658 9.51284 18.6494 9.47042 18.5396C8.84661 16.9249 9.04732 15.2055 9.04732 15.2055C9.24803 13.4861 10.227 12.0584 10.227 12.0584C11.206 10.6307 12.7375 9.82392 12.7375 9.82392C14.269 9.01709 16.0001 9.01709 16.0001 9.01709C17.7312 9.01709 19.2627 9.82392 19.2627 9.82392C20.7943 10.6307 21.7732 12.0584 21.7732 12.0584C22.7522 13.4861 22.9529 15.2055 22.9529 15.2055Z" fill="#1C1C1C"/>
<path d="M26.2957 19.8663C25.0047 23.2984 21.9125 25.2693 21.9125 25.2693C21.6245 25.4529 21.45 25.7709 21.45 26.1126C21.45 26.1257 21.4503 26.1389 21.4508 26.1521C21.4578 26.329 21.5116 26.5008 21.6068 26.6501C21.7904 26.9382 22.1084 27.1126 22.45 27.1126C22.4632 27.1126 22.4764 27.1123 22.4896 27.1118C22.6664 27.1048 22.8383 27.051 22.9875 26.9558C26.6419 24.6265 28.1676 20.5705 28.1676 20.5705C29.6934 16.5144 28.4803 12.3541 28.4803 12.3541C27.2671 8.19387 23.8004 5.59364 23.8004 5.59364C20.3336 2.99341 16 2.99341 16 2.99341C11.6665 2.99341 8.19974 5.59364 8.19974 5.59364C4.73298 8.19387 3.51983 12.3541 3.51983 12.3541C2.30668 16.5144 3.83245 20.5705 3.83245 20.5705C5.35822 24.6265 9.01255 26.9558 9.01255 26.9558C9.17313 27.0582 9.35961 27.1126 9.55005 27.1126L9.5616 27.1125C9.89912 27.1086 10.2119 26.9347 10.3933 26.6501C10.4957 26.4895 10.55 26.303 10.55 26.1126L10.5498 26.0891C10.5482 26.0242 10.5404 25.9597 10.5264 25.8964C10.469 25.6374 10.3112 25.4118 10.0875 25.2693L10.0865 25.2686C6.99521 23.2978 5.70439 19.8663 5.70439 19.8663C4.41335 16.4343 5.43986 12.914 5.43986 12.914C6.46637 9.3938 9.39979 7.1936 9.39979 7.1936C12.3332 4.99341 16 4.99341 16 4.99341C19.6669 4.99341 22.6003 7.1936 22.6003 7.1936C25.5337 9.3938 26.5602 12.914 26.5602 12.914C27.5867 16.4343 26.2957 19.8663 26.2957 19.8663Z" fill="#1C1C1C"/>
</svg>
