<svg width="32" height="32" viewBox="0 0 32 32" fill="none" xmlns="http://www.w3.org/2000/svg">
<path d="M4.9751 11.4624V6.46239C4.9751 5.91011 4.52738 5.46239 3.9751 5.46239C3.42281 5.46239 2.9751 5.91011 2.9751 6.46239V12.4624C2.9751 13.0147 3.42281 13.4624 3.9751 13.4624H9.9751C10.5274 13.4624 10.9751 13.0147 10.9751 12.4624C10.9751 11.9101 10.5274 11.4624 9.9751 11.4624H4.9751Z" fill="#1C1C1C"/>
<path d="M7.51903 7.5168L3.26903 11.7543C3.08086 11.9419 2.9751 12.1967 2.9751 12.4624C2.9751 12.4792 2.97552 12.496 2.97636 12.5127C2.9888 12.7597 3.09232 12.9934 3.26695 13.1685C3.45457 13.3567 3.70937 13.4624 3.9751 13.4624C3.99186 13.4624 4.00862 13.462 4.02537 13.4612C4.27238 13.4487 4.50602 13.3452 4.68116 13.1706L8.93116 8.93309C11.077 6.78551 14.0525 6.19269 14.0525 6.19269C17.0281 5.59987 19.8314 6.76037 19.8314 6.76037C22.6347 7.92087 24.3206 10.4434 24.3206 10.4434C26.0064 12.9659 26.0064 15.9999 26.0064 15.9999C26.0064 19.034 24.3206 21.5565 24.3206 21.5565C22.6347 24.079 19.8314 25.2395 19.8314 25.2395C17.0281 26.4 14.0525 25.8072 14.0525 25.8072C11.077 25.2144 8.93249 23.0681 8.93249 23.0681C8.74493 22.8804 8.49046 22.7749 8.2251 22.7749C8.20798 22.7749 8.19086 22.7754 8.17376 22.7763C7.92677 22.789 7.69324 22.8927 7.51828 23.0676C7.33067 23.255 7.22521 23.5093 7.2251 23.7745C7.2251 23.7904 7.22548 23.8067 7.22623 23.8226C7.23807 24.0709 7.34199 24.3059 7.5177 24.4818C10.091 27.057 13.6618 27.7687 13.6618 27.7687C17.2324 28.48 20.5964 27.0874 20.5964 27.0874C23.9604 25.6948 25.9834 22.6678 25.9834 22.6678C28.0064 19.6408 28.0064 15.9999 28.0064 15.9999C28.0064 12.3591 25.9834 9.33208 25.9834 9.33208C23.9604 6.30505 20.5964 4.91245 20.5964 4.91245C17.2324 3.51985 13.6618 4.23124 13.6618 4.23124C10.0911 4.94262 7.51903 7.5168 7.51903 7.5168Z" fill="#1C1C1C"/>
</svg>
