<svg width="32" height="32" viewBox="0 0 32 32" fill="none" xmlns="http://www.w3.org/2000/svg">
<path d="M29.025 12.4623V6.46234C29.025 5.91005 28.5773 5.46234 28.025 5.46234C27.4727 5.46234 27.025 5.91005 27.025 6.46234V11.4623H22.025C21.4727 11.4623 21.025 11.91 21.025 12.4623C21.025 13.0146 21.4727 13.4623 22.025 13.4623H28.025C28.5773 13.4623 29.025 13.0146 29.025 12.4623Z" fill="#1C1C1C"/>
<path d="M27.3189 13.1705C27.5064 13.3574 27.7603 13.4623 28.025 13.4623L28.0265 13.4624C28.2917 13.462 28.5459 13.3563 28.7331 13.1685C28.92 12.981 29.025 12.727 29.025 12.4623L29.025 12.4609C29.0246 12.1957 28.9189 11.9415 28.7311 11.7542L24.4811 7.51674C21.909 4.94257 18.3383 4.23118 18.3383 4.23118C14.7677 3.5198 11.4037 4.9124 11.4037 4.9124C8.03975 6.305 6.0167 9.33203 6.0167 9.33203C3.99365 12.3591 3.99365 15.9999 3.99365 15.9999C3.99365 19.6407 6.0167 22.6678 6.0167 22.6678C8.03974 25.6948 11.4037 27.0874 11.4037 27.0874C14.7677 28.48 18.3383 27.7686 18.3383 27.7686C21.9087 27.0573 24.4819 24.4822 24.4819 24.4822C24.6693 24.2946 24.775 24.04 24.775 23.7749C24.7749 23.5097 24.6694 23.255 24.4818 23.0675C24.2943 22.8801 24.0401 22.7749 23.775 22.7749C23.5098 22.775 23.2551 22.8805 23.0676 23.0681C20.9231 25.2143 17.9476 25.8071 17.9476 25.8071C14.972 26.4 12.1687 25.2395 12.1687 25.2395C9.36539 24.079 7.67952 21.5564 7.67952 21.5564C5.99365 19.0339 5.99365 15.9999 5.99365 15.9999C5.99365 12.9659 7.67952 10.4433 7.67952 10.4433C9.36539 7.92081 12.1687 6.76031 12.1687 6.76031C14.972 5.59981 17.9476 6.19263 17.9476 6.19263C20.9231 6.78545 23.0689 8.93304 23.0689 8.93304L27.3189 13.1705Z" fill="#1C1C1C"/>
</svg>
