<svg width="32" height="32" viewBox="0 0 32 32" fill="none" xmlns="http://www.w3.org/2000/svg">
<path d="M4.9751 11.4624V6.4624C4.9751 5.91012 4.52738 5.4624 3.9751 5.4624C3.42281 5.4624 2.9751 5.91012 2.9751 6.4624V12.4624C2.9751 13.0147 3.42281 13.4624 3.9751 13.4624H9.9751C10.5274 13.4624 10.9751 13.0147 10.9751 12.4624C10.9751 11.9101 10.5274 11.4624 9.9751 11.4624H4.9751Z" fill="#1C1C1C"/>
<path d="M7.51903 7.51691L3.26903 11.7544C3.08122 11.9417 2.97549 12.1959 2.9751 12.4611L2.9751 12.4624C2.9751 12.4779 2.97546 12.4936 2.97618 12.5091C2.98776 12.7575 3.09142 12.9926 3.26695 13.1686C3.45457 13.3568 3.70937 13.4624 3.9751 13.4624C3.99186 13.4624 4.00862 13.4621 4.02537 13.4613C4.27238 13.4489 4.50602 13.3453 4.68116 13.1707L8.93116 8.9332C10.3378 7.52452 12.1747 6.76287 12.1747 6.76287C14.0116 6.00122 16.0001 6.00122 16.0001 6.00122C17.9886 6.00122 19.8255 6.76287 19.8255 6.76287C21.6624 7.52452 23.0675 8.93164 23.0675 8.93164C23.2551 9.1195 23.5096 9.22505 23.7751 9.22505C23.7921 9.22505 23.8091 9.22462 23.8261 9.22375C24.0731 9.21113 24.3067 9.10743 24.4817 8.93268C24.6695 8.7451 24.7751 8.49052 24.7751 8.22505C24.7751 8.20804 24.7747 8.19103 24.7738 8.17404C24.7612 7.92704 24.6575 7.69347 24.4827 7.51846C22.7963 5.82956 20.5916 4.91539 20.5916 4.91539C18.3868 4.00122 16.0001 4.00122 16.0001 4.00122C13.6134 4.00122 11.4086 4.91539 11.4086 4.91539C9.20392 5.82956 7.51903 7.51691 7.51903 7.51691Z" fill="#1C1C1C"/>
<path d="M27.0251 20.5376V25.5376C27.0251 26.0899 27.4729 26.5376 28.0251 26.5376C28.5774 26.5376 29.0251 26.0899 29.0251 25.5376V19.5376C29.0251 18.9853 28.5774 18.5376 28.0251 18.5376H22.0251C21.4729 18.5376 21.0251 18.9853 21.0251 19.5376C21.0251 20.0899 21.4729 20.5376 22.0251 20.5376H27.0251Z" fill="#1C1C1C"/>
<path d="M28.7322 20.2447C28.9197 20.0572 29.0251 19.8028 29.0251 19.5376C29.0251 19.2729 28.9201 19.019 28.7332 18.8315L28.7322 18.8305C28.545 18.6433 28.2913 18.538 28.0266 18.5376L28.0251 18.5376C27.7604 18.5376 27.5065 18.6426 27.319 18.8294L23.069 23.0669C21.6624 24.4756 19.8255 25.2373 19.8255 25.2373C17.9886 25.9989 16.0001 25.9989 16.0001 25.9989C14.0116 25.9989 12.1747 25.2373 12.1747 25.2373C10.3378 24.4756 8.93272 23.0685 8.93272 23.0685C8.74532 22.8808 8.49104 22.7753 8.22583 22.7751C8.21005 22.7751 8.19355 22.7755 8.17779 22.7762C7.92947 22.788 7.69442 22.8918 7.51851 23.0675C7.33066 23.2551 7.2251 23.5096 7.2251 23.7751C7.2251 23.7921 7.22553 23.8091 7.2264 23.8261C7.23902 24.0731 7.34272 24.3067 7.51748 24.4817C9.20392 26.1706 11.4086 27.0848 11.4086 27.0848C13.6134 27.9989 16.0001 27.9989 16.0001 27.9989C18.3868 27.9989 20.5916 27.0848 20.5916 27.0848C22.7963 26.1706 24.4812 24.4832 24.4812 24.4832L28.7322 20.2447Z" fill="#1C1C1C"/>
</svg>
