<svg width="32" height="32" viewBox="0 0 32 32" fill="none" xmlns="http://www.w3.org/2000/svg">
<path d="M4.5127 17.5125V10.5125C4.5127 9.96017 4.06498 9.51245 3.5127 9.51245C2.96041 9.51245 2.5127 9.96017 2.5127 10.5125V18.5125C2.5127 19.0647 2.96041 19.5125 3.5127 19.5125H11.5127C12.065 19.5125 12.5127 19.0647 12.5127 18.5125C12.5127 17.9602 12.065 17.5125 11.5127 17.5125H4.5127Z" fill="#1C1C1C"/>
<path d="M6.80559 13.8054L2.80559 17.8054C2.61805 17.993 2.5127 18.2472 2.5127 18.5125C2.5127 18.7777 2.61805 19.0321 2.80559 19.2196C2.99313 19.4072 3.24748 19.5125 3.5127 19.5125C3.77791 19.5125 4.03227 19.4072 4.2198 19.2196L8.2198 15.2196C10.5795 12.8587 13.8531 12.2072 13.8531 12.2072C17.1266 11.5557 20.2103 12.8331 20.2103 12.8331C23.2939 14.1106 25.1477 16.8863 25.1477 16.8863C27.0014 19.6619 27.0002 22.9997 27.0002 22.9997C27.0002 23.0606 27.0058 23.1217 27.0168 23.1816C27.1044 23.6557 27.5177 23.9999 27.9998 24C28.061 24 28.1219 23.9945 28.1818 23.9834C28.6559 23.8959 29 23.4825 29.0002 23.0004C29.0015 19.056 26.8108 15.7755 26.8108 15.7755C24.62 12.4952 20.9757 10.9854 20.9757 10.9854C17.3315 9.47569 13.4627 10.2456 13.4627 10.2456C9.59395 11.0156 6.80559 13.8054 6.80559 13.8054Z" fill="#1C1C1C"/>
</svg>
