<svg width="32" height="32" viewBox="0 0 32 32" fill="none" xmlns="http://www.w3.org/2000/svg">
<path d="M15.0001 5V16C15.0001 16.5523 15.4478 17 16.0001 17C16.5524 17 17.0001 16.5523 17.0001 16V5C17.0001 4.44772 16.5524 4 16.0001 4C15.4478 4 15.0001 4.44772 15.0001 5Z" fill="#1C1C1C"/>
<path d="M15.6903 16.9509C15.7901 16.9833 15.8952 17 16.0001 17L16.0289 16.9997C16.1769 16.9954 16.3221 16.9583 16.454 16.8911C16.6904 16.7707 16.8692 16.5614 16.9511 16.3092C16.9836 16.2093 17.0001 16.1049 17.0001 16C17.0001 15.9791 16.9994 15.9583 16.9981 15.9374C16.9724 15.528 16.6993 15.1758 16.3092 15.0491L5.84683 11.6491C5.74685 11.6166 5.64255 11.6001 5.5376 11.6001C5.51668 11.6001 5.49576 11.6008 5.47488 11.6021C5.06549 11.6278 4.71333 11.9009 4.58656 12.291C4.55412 12.3909 4.5376 12.4951 4.5376 12.6001C4.5376 12.621 4.53825 12.6419 4.53957 12.6628C4.56529 13.0722 4.83842 13.4244 5.22854 13.5511L15.6903 16.9509Z" fill="#1C1C1C"/>
<path d="M10.3468 25.4876L16.8093 16.5876C16.9333 16.4168 17.0001 16.2111 17.0001 16L17 15.988C16.9994 15.9395 16.9953 15.8912 16.9877 15.8433C16.9462 15.5814 16.8023 15.3467 16.5877 15.1908C16.4169 15.0668 16.2112 15 16.0001 15C15.9821 15 15.9642 15.0005 15.9462 15.0015C15.6454 15.0177 15.3679 15.1687 15.1909 15.4124L8.72842 24.3124C8.60439 24.4832 8.5376 24.6889 8.5376 24.9C8.5376 24.918 8.53808 24.9359 8.53905 24.9539C8.55528 25.2547 8.70626 25.5322 8.95003 25.7092C9.12084 25.8332 9.32651 25.9 9.5376 25.9L9.54962 25.8999C9.59808 25.8993 9.64644 25.8952 9.6943 25.8876C9.95624 25.8461 10.1909 25.7022 10.3468 25.4876Z" fill="#1C1C1C"/>
<path d="M16.8093 15.4124C16.6212 15.1533 16.3203 15 16.0001 15C15.9838 15 15.9674 15.0004 15.9511 15.0012C15.757 15.0107 15.5698 15.0766 15.4126 15.1908C15.1535 15.379 15.0001 15.6798 15.0001 16C15.0001 16.0163 15.0005 16.0327 15.0013 16.049C15.0108 16.2431 15.0767 16.4303 15.1909 16.5876L21.6534 25.4876C21.8416 25.7467 22.1424 25.9 22.4626 25.9C22.479 25.9 22.4953 25.8996 22.5116 25.8988C22.7058 25.8893 22.8929 25.8234 23.0502 25.7092C23.3093 25.521 23.4626 25.2202 23.4626 24.9C23.4626 24.8837 23.4622 24.8673 23.4614 24.851C23.4519 24.6569 23.386 24.4697 23.2718 24.3124L16.8093 15.4124Z" fill="#1C1C1C"/>
<path d="M15.6911 15.0491C15.2791 15.1829 15.0001 15.5668 15.0001 16L15.0002 16.0112C15.0013 16.1124 15.0178 16.2129 15.0491 16.3092C15.131 16.5614 15.3099 16.7707 15.5462 16.8911C15.6868 16.9628 15.8423 17 16.0001 17L16.021 16.9999C16.1189 16.9978 16.216 16.9814 16.3092 16.9511L26.7713 13.5513C27.1833 13.4174 27.4626 13.0333 27.4626 12.6001L27.4626 12.589C27.4614 12.4878 27.4449 12.3873 27.4137 12.291C27.3317 12.0388 27.1529 11.8295 26.9166 11.7091C26.776 11.6374 26.6204 11.6001 26.4626 11.6001L26.4417 11.6003C26.3438 11.6024 26.2467 11.6188 26.1536 11.6491L15.6911 15.0491Z" fill="#1C1C1C"/>
</svg>
