<svg width="32" height="32" viewBox="0 0 32 32" fill="none" xmlns="http://www.w3.org/2000/svg">
<path d="M15.0001 5V27C15.0001 27.5523 15.4478 28 16.0001 28C16.5524 28 17.0001 27.5523 17.0001 27V5C17.0001 4.44772 16.5524 4 16.0001 4C15.4478 4 15.0001 4.44772 15.0001 5Z" fill="#1C1C1C"/>
<path d="M25.0243 22.3656C25.1763 22.4534 25.3495 22.5 25.5251 22.5L25.543 22.4998C25.6244 22.4984 25.7053 22.487 25.7839 22.4659C26.04 22.3973 26.2585 22.2297 26.3911 22C26.4789 21.848 26.5251 21.6756 26.5251 21.5C26.5251 21.4815 26.5246 21.4631 26.5236 21.4447C26.5049 21.1076 26.3175 20.8028 26.0251 20.634L6.97531 9.6341C6.82312 9.54622 6.65065 9.5 6.4751 9.5C6.45664 9.5 6.43819 9.50051 6.41976 9.50153C6.08274 9.52021 5.77789 9.70765 5.6091 9.99995C5.52131 10.152 5.4751 10.3244 5.4751 10.5C5.4751 10.5185 5.47561 10.5369 5.47663 10.5553C5.49531 10.8924 5.68274 11.1972 5.97505 11.366L25.0243 22.3656Z" fill="#1C1C1C"/>
<path d="M26.0244 11.3664C26.0404 11.3572 26.0569 11.3471 26.0723 11.337C26.3548 11.1523 26.5251 10.8375 26.5251 10.5C26.5251 10.3244 26.4789 10.152 26.3911 9.99996C26.3819 9.98397 26.3722 9.96824 26.3621 9.95279C26.2274 9.74682 26.0216 9.59774 25.7839 9.53406L25.7769 9.53223C25.6947 9.51083 25.6101 9.5 25.5251 9.5C25.3495 9.5 25.1771 9.54622 25.025 9.634L5.97505 20.634C5.66567 20.8126 5.4751 21.1428 5.4751 21.5C5.4751 21.5155 5.47546 21.531 5.47618 21.5464C5.4836 21.7061 5.52918 21.8616 5.6091 22C5.74172 22.2297 5.96015 22.3973 6.21633 22.4659C6.30073 22.4885 6.38773 22.5 6.4751 22.5C6.48563 22.5 6.49615 22.4998 6.50668 22.4995C6.67145 22.4943 6.83238 22.4484 6.97515 22.366L26.0244 11.3664Z" fill="#1C1C1C"/>
</svg>
