<svg width="32" height="32" viewBox="0 0 32 32" fill="none" xmlns="http://www.w3.org/2000/svg">
<path fill-rule="evenodd" clip-rule="evenodd" d="M15.9999 9.99989C15.9999 9.99989 18.4851 9.99989 20.2425 11.7572C20.2425 11.7572 21.9999 13.5146 21.9999 15.9999C21.9999 15.9999 21.9999 18.4852 20.2425 20.2425C20.2425 20.2425 18.4851 21.9999 15.9999 21.9999C15.9999 21.9999 13.5146 21.9999 11.7572 20.2425C11.7572 20.2425 9.99985 18.4852 9.99985 15.9999C9.99985 15.9999 9.99985 13.5146 11.7572 11.7572C11.7572 11.7572 13.5146 9.99989 15.9999 9.99989ZM15.9999 11.9999C15.9999 11.9999 14.343 11.9999 13.1714 13.1715C13.1714 13.1715 11.9998 14.343 11.9999 15.9999C11.9999 15.9999 11.9999 17.6567 13.1714 18.8283C13.1714 18.8283 14.343 19.9999 15.9999 19.9999C15.9999 19.9999 17.6567 19.9999 18.8283 18.8283C18.8283 18.8283 19.9999 17.6567 19.9999 15.9999C19.9999 15.9999 19.9999 14.343 18.8283 13.1715C18.8283 13.1715 17.6567 11.9999 15.9999 11.9999Z" fill="#1C1C1C"/>
<path d="M21.9999 15.9999L21.9999 10.9999C21.9999 10.4476 21.5522 9.99991 20.9999 9.99991C20.4476 9.99991 19.9999 10.4476 19.9999 10.9999L19.9999 15.9999C19.9998 18.5146 20.9631 20.0639 20.9631 20.0639C22.1669 21.9999 24.4999 21.9999 24.4999 21.9999C26.8328 21.9999 28.0366 20.0639 28.0366 20.0639C28.9999 18.5146 28.9999 15.9999 28.9999 15.9999C28.9988 11.5303 26.2497 8.00638 26.2497 8.00638C23.5005 4.48249 19.1657 3.39409 19.1657 3.39409C14.8308 2.30569 10.7431 4.11298 10.7431 4.11298C6.65538 5.92027 4.54319 9.85909 4.54319 9.85909C2.431 13.7979 3.1874 18.2028 3.1874 18.2028C3.9438 22.6078 7.24897 25.6164 7.24897 25.6164C10.5541 28.6249 15.0106 28.965 15.0106 28.965C19.4665 29.3051 23.1897 26.8336 23.1897 26.8336L23.1905 26.833C23.4696 26.6477 23.6374 26.3349 23.6374 25.9999L23.6374 25.9928C23.636 25.7985 23.578 25.6087 23.4705 25.4468C23.2852 25.1677 22.9724 24.9999 22.6374 24.9999L22.6303 24.9999C22.4359 25.0013 22.2462 25.0593 22.0842 25.1668C18.9336 27.2586 15.1628 26.9708 15.1628 26.9708C11.3919 26.683 8.59526 24.1373 8.59526 24.1373C5.79858 21.5916 5.15855 17.8644 5.15855 17.8644C4.51852 14.1371 6.30576 10.8043 6.30576 10.8043C8.09299 7.47142 11.5518 5.94217 11.5518 5.94217C15.0107 4.41293 18.6786 5.33388 18.6786 5.33388C22.3466 6.25483 24.6728 9.23659 24.6728 9.23659C26.999 12.2183 26.9999 15.9999 26.9999 15.9999C26.9999 17.9435 26.3381 19.0078 26.3381 19.0078C25.7213 19.9999 24.4999 19.9999 24.4999 19.9999C23.2784 19.9999 22.6616 19.0078 22.6616 19.0078C21.9999 17.9435 21.9999 15.9999 21.9999 15.9999Z" fill="#1C1C1C"/>
</svg>
