<svg width="32" height="32" viewBox="0 0 32 32" fill="none" xmlns="http://www.w3.org/2000/svg">
<path d="M11.9999 29H19.9999C20.5522 29 20.9999 28.5522 20.9999 28C20.9999 27.4477 20.5522 27 19.9999 27H11.9999C11.4476 27 10.9999 27.4477 10.9999 28C10.9999 28.5522 11.4476 29 11.9999 29Z" fill="#1C1C1C"/>
<path fill-rule="evenodd" clip-rule="evenodd" d="M6.0249 13.9999V12.9999C6.0249 12.9999 6.02209 11.0056 6.78643 9.16207C6.78643 9.16207 7.55076 7.31855 8.96486 5.91033C8.96486 5.91033 10.379 4.5021 12.2256 3.74544C12.2256 3.74544 14.0723 2.98877 16.068 2.99988C16.068 2.99988 18.0972 3.01525 19.945 3.82591C19.945 3.82591 21.7228 4.60585 23.0914 6.01167C23.0914 6.01167 24.4547 7.41201 25.2023 9.21769C25.2023 9.21769 25.9749 11.0835 25.9749 13.1124V13.9999C25.9749 13.9999 25.9749 19.187 27.6028 21.9988C27.6028 21.9988 27.8709 22.4631 27.8714 22.9981C27.8714 22.9981 27.8718 23.5331 27.6052 23.9968C27.6052 23.9968 27.3385 24.4606 26.8759 24.7293C26.8759 24.7293 26.4134 24.998 25.8784 24.9999L6.1249 24.9999C6.1249 24.9999 5.58642 24.998 5.12384 24.7293C5.12384 24.7293 4.66127 24.4606 4.39461 23.9968C4.39461 23.9968 4.12795 23.5331 4.12842 22.9981C4.12842 22.9981 4.12889 22.4631 4.39638 21.9999C4.39638 21.9999 6.0249 19.187 6.0249 13.9999ZM8.0249 13.9999C8.0249 13.9999 8.0249 19.7241 6.12842 22.9999L25.8714 22.9999C25.8714 22.9999 23.9749 19.7232 23.9749 13.9999V13.1124C23.9749 13.1124 23.9749 9.7863 21.6584 7.4068C21.6584 7.4068 19.3393 5.02472 16.0568 4.99985C16.0568 4.99985 14.4608 4.99097 12.9839 5.59611C12.9839 5.59611 11.507 6.20125 10.3761 7.32748C10.3761 7.32748 9.24521 8.45371 8.63393 9.92806C8.63393 9.92806 8.02265 11.4024 8.0249 12.9999V13.9999Z" fill="#1C1C1C"/>
<path d="M13.4999 19H18.4999C19.0522 19 19.4999 18.5522 19.4999 18C19.4999 17.4477 19.0522 17 18.4999 17H15.6349L19.2681 12.6401C19.4379 12.4364 19.5198 12.1736 19.4958 11.9094C19.4718 11.6453 19.3438 11.4015 19.1401 11.2317C18.9603 11.082 18.7338 11 18.4999 11H13.4999C12.9476 11 12.4999 11.4477 12.4999 12C12.4999 12.5522 12.9476 13 13.4999 13H16.3648L12.7317 17.3598C12.5819 17.5395 12.4999 17.766 12.4999 18C12.4999 18.5522 12.9476 19 13.4999 19Z" fill="#1C1C1C"/>
</svg>
