<svg width="32" height="32" viewBox="0 0 32 32" fill="none" xmlns="http://www.w3.org/2000/svg">
<path fill-rule="evenodd" clip-rule="evenodd" d="M4 5.99997C4 5.99997 4 5.17155 4.58579 4.58576C4.58579 4.58576 5.17157 3.99997 6 3.99997H10C10 3.99997 10.8284 3.99997 11.4142 4.58576C11.4142 4.58576 12 5.17155 12 5.99997V26C12 26 12 26.8284 11.4142 27.4142C11.4142 27.4142 10.8284 28 10 28H6C6 28 5.17157 28 4.58579 27.4142C4.58579 27.4142 4 26.8284 4 26V5.99997ZM6 5.99997V26H10V5.99997H6Z" fill="#1C1C1C"/>
<path d="M5 11H11C11.5523 11 12 10.5523 12 9.99997C12 9.44769 11.5523 8.99997 11 8.99997H5C4.44772 8.99997 4 9.44769 4 9.99997C4 10.5523 4.44772 11 5 11Z" fill="#1C1C1C"/>
<path fill-rule="evenodd" clip-rule="evenodd" d="M10 5.99997C10 5.99997 10 5.17155 10.5858 4.58576C10.5858 4.58576 11.1716 3.99997 12 3.99997H16C16 3.99997 16.8284 3.99997 17.4142 4.58576C17.4142 4.58576 18 5.17155 18 5.99997V26C18 26 18 26.8284 17.4142 27.4142C17.4142 27.4142 16.8284 28 16 28H12C12 28 11.1716 28 10.5858 27.4142C10.5858 27.4142 10 26.8284 10 26V5.99997ZM12 5.99997V26H16V5.99997H12Z" fill="#1C1C1C"/>
<path d="M11 23H17C17.5523 23 18 22.5523 18 22C18 21.4477 17.5523 21 17 21H11C10.4477 21 10 21.4477 10 22C10 22.5523 10.4477 23 11 23Z" fill="#1C1C1C"/>
<path fill-rule="evenodd" clip-rule="evenodd" d="M16.382 7.20267C16.382 7.20267 16.1666 6.39909 16.5825 5.67858C16.5825 5.67858 16.9984 4.95806 17.802 4.74267L21.682 3.70267C21.682 3.70267 22.4856 3.48728 23.2061 3.90319C23.2061 3.90319 23.9266 4.31909 24.142 5.12267L29.342 24.5227C29.342 24.5227 29.5574 25.3262 29.1415 26.0468C29.1415 26.0468 28.7256 26.7673 27.922 26.9827L24.042 28.0227C24.042 28.0227 23.2384 28.2381 22.5179 27.8222C22.5179 27.8222 21.7974 27.4062 21.582 26.6027L16.382 7.20267ZM18.322 6.68267L23.522 26.0827L27.402 25.0427L22.202 5.64267L18.322 6.68267Z" fill="#1C1C1C"/>
<path d="M21.6601 23.3656L27.4601 21.8031C27.7162 21.7341 27.9344 21.5662 28.0667 21.3363C28.154 21.1846 28.2 21.0126 28.2 20.8375L28.1998 20.8181C28.1982 20.7368 28.1867 20.6559 28.1656 20.5774C28.048 20.1408 27.6521 19.8375 27.2 19.8375L27.1914 19.8375C27.1064 19.8383 27.0219 19.8498 26.9399 19.8719L21.1399 21.4344C20.7033 21.552 20.4 21.9479 20.4 22.4L20.4 22.4086C20.4008 22.4935 20.4123 22.5781 20.4344 22.6601C20.552 23.0967 20.9479 23.4 21.4 23.4L21.4086 23.4C21.4935 23.3992 21.5781 23.3877 21.6601 23.3656Z" fill="#1C1C1C"/>
<path d="M18.5582 11.7661L24.3582 10.2161C24.6144 10.1476 24.8329 9.98014 24.9657 9.75054C25.0537 9.59839 25.1 9.42573 25.1 9.24997L25.0998 9.23263C25.0984 9.15127 25.0871 9.0704 25.0661 8.99179C24.9492 8.55429 24.5528 8.24997 24.1 8.24997L24.0934 8.24999C24.0084 8.25055 23.9239 8.26194 23.8418 8.28388L18.0418 9.83388C17.6043 9.95079 17.3 10.3471 17.3 10.8L17.3 10.8065C17.3006 10.8915 17.312 10.9761 17.3339 11.0582C17.4508 11.4957 17.8471 11.8 18.3 11.8L18.3066 11.8C18.3915 11.7994 18.4761 11.788 18.5582 11.7661Z" fill="#1C1C1C"/>
</svg>
