<svg width="32" height="32" viewBox="0 0 32 32" fill="none" xmlns="http://www.w3.org/2000/svg">
<path fill-rule="evenodd" clip-rule="evenodd" d="M16.0001 11C16.0001 11 18.0712 11 19.5357 12.4645C19.5357 12.4645 21.0001 13.9289 21.0001 16C21.0001 16 21.0001 18.0711 19.5357 19.5355C19.5357 19.5355 18.0712 21 16.0001 21C16.0001 21 13.9291 21 12.4646 19.5355C12.4646 19.5355 11.0001 18.0711 11.0001 16C11.0001 16 11.0001 13.9289 12.4646 12.4645C12.4646 12.4645 13.9291 11 16.0001 11ZM16.0001 13C16.0001 13 14.7575 13 13.8788 13.8787C13.8788 13.8787 13.0001 14.7574 13.0001 16C13.0001 16 13.0001 17.2426 13.8788 18.1213C13.8788 18.1213 14.7575 19 16.0001 19C16.0001 19 17.2428 19 18.1214 18.1213C18.1214 18.1213 19.0001 17.2426 19.0001 16C19.0001 16 19.0001 14.7574 18.1214 13.8787C18.1214 13.8787 17.2428 13 16.0001 13Z" fill="#1C1C1C"/>
<path d="M10.3443 10.3449C10.5319 10.1574 10.6376 9.90267 10.6376 9.63745C10.6376 9.37243 10.5324 9.11824 10.3451 8.93074C10.1576 8.7432 9.90283 8.63745 9.63762 8.63745C9.37259 8.63745 9.1184 8.74266 8.9309 8.92995C7.54836 10.311 6.79081 12.1123 6.79081 12.1123C5.99988 13.9737 5.99988 16 5.99988 16C5.99988 18.0262 6.79225 19.891 6.79225 19.891C7.54836 21.6889 8.9309 23.0699 8.9309 23.0699C9.1184 23.2572 9.37259 23.3624 9.63762 23.3624C9.90283 23.3623 10.1577 23.2568 10.3451 23.0692C10.5324 22.8817 10.6376 22.6275 10.6376 22.3625C10.6375 22.0972 10.532 21.8424 10.3443 21.655C9.23969 20.5515 8.63298 19.1089 8.63298 19.1089C7.99988 17.6189 7.99988 16 7.99988 16C7.99988 14.381 8.63442 12.8876 8.63442 12.8876C9.23969 11.4484 10.3443 10.3449 10.3443 10.3449Z" fill="#1C1C1C"/>
<path d="M23.0697 8.93034C24.452 10.3112 25.208 12.1089 25.208 12.1089C26.0003 13.9737 26.0003 16 26.0003 16C26.0003 18.0262 25.2094 19.8876 25.2094 19.8876C24.4519 21.6889 23.0693 23.0699 23.0693 23.0699C22.8943 23.2447 22.6608 23.3485 22.4138 23.3611C22.3968 23.362 22.3797 23.3624 22.3626 23.3624C22.0972 23.3624 21.8427 23.2569 21.6551 23.0692C21.4794 22.8933 21.3755 22.6583 21.3637 22.4099C21.363 22.3941 21.3626 22.3783 21.3626 22.3624C21.3628 22.0972 21.4683 21.8424 21.6559 21.655C22.7605 20.5515 23.3658 19.1123 23.3658 19.1123C24.0003 17.6189 24.0003 16 24.0003 16C24.0003 14.381 23.3672 12.891 23.3672 12.891C22.7605 11.4484 21.6559 10.3449 21.6559 10.3449C21.4681 10.1574 21.3626 9.90286 21.3626 9.63745C21.3626 9.37448 21.4662 9.12209 21.6509 8.93494L21.6551 8.93073C21.8207 8.76492 22.0393 8.66255 22.2728 8.6415C22.3024 8.63882 22.3322 8.63747 22.3621 8.63745C22.6228 8.63745 22.8738 8.73929 23.0605 8.92125L23.0697 8.93034Z" fill="#1C1C1C"/>
<path d="M6.8072 6.8072L6.81177 6.80261C6.99651 6.61546 7.1001 6.36307 7.1001 6.1001C7.1001 5.83456 6.99449 5.57993 6.80656 5.39234L6.79799 5.3839C6.61125 5.20193 6.36083 5.1001 6.1001 5.1001C6.07041 5.10012 6.03981 5.10147 6.01024 5.10414C5.7767 5.12521 5.558 5.22768 5.39234 5.39364C3.32494 7.46503 2.17976 10.159 2.17976 10.159C1 12.9622 1 16.0001 1 16.0001C1 19.038 2.1784 21.838 2.1784 21.838C3.32458 24.535 5.39234 26.6066 5.39234 26.6066C5.5797 26.7943 5.83396 26.8999 6.09918 26.9001C6.11489 26.9001 6.13152 26.8997 6.14721 26.899C6.39554 26.8873 6.6306 26.7835 6.80655 26.6079C6.99448 26.4203 7.10009 26.1656 7.1001 25.9001C7.1001 25.8832 7.09967 25.8662 7.0988 25.8493C7.08623 25.6023 6.98258 25.3687 6.80785 25.1936C5.01375 23.3962 4.0218 21.0622 4.0218 21.0622C3 18.6343 3 16.0001 3 16.0001C3 13.3659 4.02043 10.9412 4.02043 10.9412C5.01357 8.60439 6.8072 6.8072 6.8072 6.8072Z" fill="#1C1C1C"/>
<path d="M26.6085 5.39425L26.6073 5.39299C26.4199 5.20568 26.166 5.10034 25.9011 5.1001C25.6362 5.1001 25.3812 5.2052 25.1937 5.39234C25.0062 5.57988 24.9001 5.83488 24.9001 6.1001C24.9001 6.365 25.0053 6.61907 25.1924 6.80655C26.9865 8.60396 27.9784 10.938 27.9784 10.938C29.0002 13.3659 29.0002 16.0001 29.0002 16.0001C29.0002 18.6343 27.9798 21.059 27.9798 21.059C26.9865 23.3962 25.1924 25.1936 25.1924 25.1936C25.0053 25.3811 24.9001 25.6352 24.9001 25.9001C24.9004 26.1653 25.006 26.4205 25.1937 26.6079C25.3812 26.795 25.6352 26.9001 25.9001 26.9001C26.1654 26.8999 26.4205 26.7943 26.6079 26.6066C28.6757 24.535 29.8205 21.8412 29.8205 21.8412C31.0002 19.038 31.0002 16.0001 31.0002 16.0001C31.0002 12.9622 29.8218 10.1622 29.8218 10.1622C28.6758 7.4656 26.6085 5.39425 26.6085 5.39425Z" fill="#1C1C1C"/>
</svg>
