<svg width="32" height="32" viewBox="0 0 32 32" fill="none" xmlns="http://www.w3.org/2000/svg">
<path d="M6.73991 4.32736C6.72924 4.31562 6.71829 4.30414 6.70707 4.29293C6.53117 4.11702 6.29602 4.013 6.04753 4.00117L6.04455 4.00103C6.0297 4.00036 6.01483 4.00003 5.99997 4.00003C5.7512 4.00003 5.51136 4.09276 5.32729 4.26009C5.31556 4.27076 5.30407 4.28171 5.29286 4.29293C5.11695 4.46883 5.01293 4.70398 5.0011 4.95247L5.00096 4.95545C5.0003 4.9703 4.99997 4.98517 4.99997 5.00003C4.99997 5.2488 5.09269 5.48863 5.26003 5.67271L25.26 27.6727C25.4495 27.8812 25.7182 28 26 28L26.0041 28C26.2515 27.999 26.4896 27.9063 26.6726 27.74C26.8811 27.5505 27 27.2818 27 27L27 26.9959C26.9989 26.7485 26.9063 26.5104 26.7399 26.3274L6.73991 4.32736Z" fill="#1C1C1C"/>
<path d="M24 5.41423V19.9501C24 20.0111 24.0056 20.072 24.0167 20.132C24.1044 20.6061 24.5179 20.9501 25 20.9501C25.5523 20.9501 26 20.5023 26 19.9501V5.41255C25.999 4.80256 25.6594 4.29782 25.6594 4.29782C25.3199 3.79309 24.7568 3.56292 24.7568 3.56292C24.1937 3.33274 23.5978 3.4551 23.5978 3.4551C23.0019 3.57745 22.575 4.01088 22.575 4.01088L16.2179 10.3679C16.0304 10.5555 15.925 10.8098 15.925 11.0751C15.925 11.0911 15.9254 11.1071 15.9262 11.1231C15.9381 11.3714 16.0421 11.6064 16.2179 11.7822C16.4054 11.9697 16.6598 12.0751 16.925 12.0751C17.1902 12.0751 17.4446 11.9697 17.6321 11.7822L24 5.41423Z" fill="#1C1C1C"/>
<path d="M14.8067 14.6074C14.9943 14.4199 15.1 14.1652 15.1 13.8999C15.1 13.6347 14.9946 13.3804 14.8071 13.1928L14.7985 13.1843C14.6117 13.0023 14.3607 12.8999 14.1 12.8999C14.07 12.8999 14.04 12.9013 14.0101 12.904C13.7769 12.925 13.5585 13.0272 13.3929 13.1928L2.00538 24.5803C1.57738 25.0018 1.45503 25.5977 1.45503 25.5977C1.33268 26.1936 1.56285 26.7567 1.56285 26.7567C1.79302 27.3198 2.29776 27.6593 2.29776 27.6593C2.80249 27.9989 3.41082 27.9999 3.41082 27.9999L26 28C26.5522 28 27 27.5523 27 27C27 26.4478 26.5523 25.9999 26 25.9999L3.41416 25.9999L3.41959 25.9945L14.8067 14.6074Z" fill="#1C1C1C"/>
</svg>
