<svg width="32" height="32" viewBox="0 0 32 32" fill="none" xmlns="http://www.w3.org/2000/svg">
<path fill-rule="evenodd" clip-rule="evenodd" d="M13.7431 28.805C13.7431 28.805 11.6214 28.4328 9.74364 27.4014L5.99721 28.4622C5.99721 28.4622 5.48273 28.6127 4.95504 28.4777C4.95504 28.4777 4.42735 28.3427 4.04221 27.9576C4.04221 27.9576 3.65706 27.5724 3.52208 27.0447C3.52208 27.0447 3.3871 26.517 3.54 25.9943L4.59835 22.2561C4.59835 22.2561 3.56694 20.3783 3.19478 18.2566C3.19478 18.2566 2.78484 15.9196 3.22775 13.5885C3.22775 13.5885 3.67065 11.2575 4.90918 9.23359C4.90918 9.23359 6.14771 7.20973 8.02185 5.75454C8.02185 5.75454 9.89598 4.29934 12.1636 3.60083C12.1636 3.60083 14.4312 2.90231 16.7993 3.05072C16.7993 3.05072 19.1674 3.19913 21.3301 4.17529C21.3301 4.17529 23.4927 5.15145 25.1705 6.82924C25.1705 6.82924 26.8483 8.50703 27.8245 10.6697C27.8245 10.6697 28.8006 12.8323 28.949 15.2005C28.949 15.2005 29.0975 17.5686 28.3989 19.8362C28.3989 19.8362 27.7004 22.1038 26.2452 23.9779C26.2452 23.9779 24.79 25.8521 22.7662 27.0906C22.7662 27.0906 20.7423 28.3291 18.4113 28.772C18.4113 28.772 16.0802 29.2149 13.7431 28.805ZM18.0379 26.8072C18.0379 26.8072 13.958 27.5824 10.3854 25.4652C10.1496 25.3254 9.86608 25.2881 9.60236 25.3628L5.46571 26.534L6.63696 22.3974C6.71163 22.1337 6.67478 21.8509 6.53503 21.6151C6.53503 21.6151 4.41731 18.0422 5.19259 13.9618C5.19259 13.9618 5.96787 9.88147 9.24843 7.33425C9.24843 7.33425 12.529 4.78703 16.6742 5.04681C16.6742 5.04681 20.8194 5.30659 23.7563 8.24346C23.7563 8.24346 26.6932 11.1803 26.953 15.3256C26.953 15.3256 27.2128 19.4708 24.6655 22.7513C24.6655 22.7513 22.1183 26.0319 18.0379 26.8072Z" fill="#1C1C1C"/>
<path d="M11.9998 15H19.9998C20.5521 15 20.9998 14.5523 20.9998 14C20.9998 13.4477 20.5521 13 19.9998 13H11.9998C11.4475 13 10.9998 13.4477 10.9998 14C10.9998 14.5523 11.4475 15 11.9998 15Z" fill="#1C1C1C"/>
<path d="M11.9998 19H19.9998C20.5521 19 20.9998 18.5523 20.9998 18C20.9998 17.4477 20.5521 17 19.9998 17H11.9998C11.4475 17 10.9998 17.4477 10.9998 18C10.9998 18.5523 11.4475 19 11.9998 19Z" fill="#1C1C1C"/>
</svg>
