<svg width="32" height="32" viewBox="0 0 32 32" fill="none" xmlns="http://www.w3.org/2000/svg">
<path d="M5.37844 13.1465C6.14322 10.3037 8.22102 8.21819 8.22102 8.21819C8.40775 8.03077 8.5126 7.77698 8.5126 7.5124L8.5126 7.51054C8.5121 7.24533 8.40627 6.99117 8.21839 6.80398C8.03096 6.61725 7.77717 6.5124 7.5126 6.5124L7.51074 6.5124C7.24552 6.5129 6.99137 6.61873 6.80418 6.80661C4.3502 9.26972 3.44703 12.6272 3.44703 12.6272C3.42425 12.7119 3.4126 12.7997 3.4126 12.8874L3.41307 12.918C3.41811 13.0828 3.46381 13.2437 3.5461 13.3866C3.67849 13.6164 3.89675 13.7842 4.15286 13.8531C4.23756 13.8759 4.32489 13.8874 4.4126 13.8874L4.4286 13.8873C4.87486 13.8801 5.26252 13.5775 5.37844 13.1465Z" fill="#1C1C1C"/>
<path d="M8.22002 23.7808C6.13545 21.6943 5.37916 18.8436 5.37916 18.8436C5.26286 18.4053 4.86612 18.1 4.4126 18.1L4.40784 18.1001C4.32287 18.1005 4.2383 18.1117 4.15617 18.1335C3.71781 18.2498 3.4126 18.6465 3.4126 19.1L3.41261 19.1048C3.41301 19.1898 3.42425 19.2743 3.44603 19.3565C4.3403 22.7273 6.80518 25.1943 6.80518 25.1943C6.99274 25.3821 7.24723 25.4875 7.5126 25.4875C7.52971 25.4875 7.54681 25.4871 7.5639 25.4862C7.81089 25.4735 8.04443 25.3698 8.21939 25.195C8.40701 25.0075 8.51248 24.7532 8.5126 24.488C8.5126 24.4721 8.51222 24.4558 8.51146 24.44C8.49963 24.1916 8.39573 23.9566 8.22002 23.7808Z" fill="#1C1C1C"/>
<path d="M13.1643 26.6229C16.0065 27.4001 18.8488 26.6228 18.8488 26.6228C18.9307 26.6004 19.0152 26.5885 19.1002 26.5874L19.1126 26.5874C19.5633 26.5874 19.9583 26.8888 20.0772 27.3236C20.0986 27.402 20.1104 27.4828 20.1123 27.5642L20.1126 27.5874C20.1126 27.7611 20.0673 27.9319 19.9812 28.0829C19.8498 28.3132 19.6322 28.482 19.3764 28.5519C16.0067 29.4734 12.6366 28.552 12.6366 28.552C12.401 28.4876 12.1968 28.339 12.0631 28.1346C12.052 28.1177 12.0415 28.1004 12.0315 28.0829C11.9454 27.9319 11.9001 27.7611 11.9001 27.5874C11.9001 27.5024 11.9109 27.4178 11.9323 27.3355L11.9355 27.3236C12 27.0879 12.1484 26.884 12.3529 26.7504C12.3698 26.7393 12.387 26.7288 12.4046 26.7188C12.5555 26.6326 12.7263 26.5874 12.9001 26.5874C12.9851 26.5874 13.0697 26.5982 13.1519 26.6196L13.1643 26.6229Z" fill="#1C1C1C"/>
<path d="M26.6219 18.8528C25.8572 21.696 23.7792 23.7817 23.7792 23.7817C23.5924 23.9691 23.4876 24.2229 23.4876 24.4875L23.4876 24.4894C23.4881 24.7546 23.5939 25.0087 23.7818 25.1959C23.9692 25.3827 24.223 25.4875 24.4876 25.4875L24.4894 25.4875C24.7547 25.487 25.0088 25.3812 25.196 25.1933C27.6501 22.73 28.5533 19.3722 28.5533 19.3722C28.576 19.2875 28.5876 19.2002 28.5876 19.1125L28.5875 19.0965C28.5803 18.6502 28.2783 18.2627 27.8473 18.1468C27.7626 18.124 27.6753 18.1125 27.5876 18.1125L27.5716 18.1126C27.1253 18.1198 26.7378 18.4218 26.6219 18.8528Z" fill="#1C1C1C"/>
<path d="M26.6209 13.156C26.7372 13.5944 27.1341 13.8999 27.5876 13.8999L27.5923 13.8999C27.6773 13.8995 27.7619 13.8883 27.844 13.8665C28.1004 13.7985 28.3192 13.6314 28.4524 13.402C28.5409 13.2495 28.5876 13.0763 28.5876 12.8999L28.5875 12.8844C28.5862 12.803 28.575 12.7221 28.5541 12.6435L28.5538 12.6422C27.6594 9.27222 25.195 6.80561 25.195 6.80561C25.0074 6.61788 24.7529 6.5124 24.4876 6.5124C24.4705 6.5124 24.4534 6.51284 24.4363 6.51372C24.1893 6.52641 23.9557 6.63018 23.7808 6.80498C23.5932 6.99243 23.4877 7.24674 23.4876 7.51196C23.4876 7.52783 23.488 7.54414 23.4887 7.56C23.5005 7.80832 23.6044 8.04333 23.7802 8.21919C25.8646 10.3055 26.6209 13.156 26.6209 13.156Z" fill="#1C1C1C"/>
<path d="M18.8352 5.37669L18.8363 5.377C18.9223 5.40051 19.011 5.41242 19.1001 5.41242L19.1119 5.41235C19.5582 5.40709 19.9469 5.10673 20.0647 4.67622C20.0882 4.59026 20.1001 4.50154 20.1001 4.41242L20.1001 4.41084L20.0998 4.38606C20.0954 4.22126 20.0504 4.06009 19.9687 3.9169C19.8373 3.68653 19.6197 3.51781 19.3639 3.44785C15.9942 2.52627 12.6245 3.44765 12.6245 3.44765C12.5785 3.46024 12.5327 3.4763 12.489 3.49532C12.443 3.51529 12.3986 3.53869 12.3562 3.56532C12.2165 3.65293 12.1007 3.77371 12.019 3.9169C11.9329 4.06785 11.8876 4.23864 11.8876 4.41242L11.8879 4.43559C11.8898 4.51693 11.9016 4.59774 11.923 4.67622C12.0419 5.11095 12.4369 5.41242 12.8876 5.41242L12.9 5.41235C12.985 5.41129 13.0694 5.39942 13.1514 5.377C15.9933 4.59978 18.8352 5.37669 18.8352 5.37669Z" fill="#1C1C1C"/>
</svg>
