<svg width="32" height="32" viewBox="0 0 32 32" fill="none" xmlns="http://www.w3.org/2000/svg">
<path d="M11.4157 5.99715L11.4169 5.99658C11.658 5.88608 11.8453 5.68432 11.9377 5.4357C11.979 5.32428 12.0002 5.20638 12.0002 5.08752C12.0002 5.07517 12 5.06281 11.9995 5.05046C11.9947 4.91922 11.964 4.79024 11.9093 4.67086C11.7988 4.42976 11.597 4.24244 11.3484 4.15009C11.237 4.10871 11.1191 4.08752 11.0002 4.08752C10.9879 4.08752 10.9755 4.08775 10.9632 4.08821C10.8319 4.09308 10.7029 4.12375 10.5836 4.17847L10.5832 4.17862C6.41669 6.08847 4.36929 10.1892 4.36929 10.1892C2.32182 14.2901 3.29922 18.7683 3.29922 18.7683C4.27662 23.2465 7.84661 26.1214 7.84661 26.1214C11.4166 28.9962 16.0002 28.9962 16.0002 28.9962C20.5838 28.9962 24.1538 26.1214 24.1538 26.1214C27.7238 23.2465 28.7012 18.7683 28.7012 18.7683C29.6786 14.2901 27.6312 10.1892 27.6312 10.1892C25.5842 6.08937 21.419 4.17945 21.419 4.17945L21.4171 4.17855C21.2862 4.11854 21.144 4.08752 21.0002 4.08752L20.9876 4.0876C20.873 4.08905 20.7595 4.11019 20.652 4.1501C20.4034 4.24244 20.2017 4.42976 20.0912 4.67086C20.0312 4.80159 20.0002 4.94371 20.0002 5.08752L20.0003 5.10017C20.0018 5.21476 20.0229 5.32826 20.0628 5.4357C20.1551 5.68432 20.3425 5.88608 20.5836 5.99658C20.585 5.99723 20.5862 5.9978 20.5862 5.9978C24.11 7.61391 25.8418 11.0826 25.8418 11.0826C27.5743 14.5526 26.7472 18.3419 26.7472 18.3419C25.9202 22.1311 22.8994 24.5637 22.8994 24.5637C19.8787 26.9962 16.0002 26.9962 16.0002 26.9962C12.1218 26.9962 9.10101 24.5637 9.10101 24.5637C6.08025 22.1311 5.25322 18.3419 5.25322 18.3419C4.42619 14.5526 6.15867 11.0826 6.15867 11.0826C7.89072 7.61345 11.4152 5.99737 11.4152 5.99737L11.4157 5.99715Z" fill="#1C1C1C"/>
</svg>
