<svg width="32" height="32" viewBox="0 0 32 32" fill="none" xmlns="http://www.w3.org/2000/svg">
<path d="M15 9.99999V16C15 16.5523 15.4477 17 16 17C16.5523 17 17 16.5523 17 16V9.99999C17 9.44771 16.5523 8.99999 16 8.99999C15.4477 8.99999 15 9.44771 15 9.99999Z" fill="#1C1C1C"/>
<path d="M16.4999 15.1339L21.6997 18.1338C21.9921 18.3025 22.1796 18.6073 22.1984 18.9443C22.1995 18.9628 22.2 18.9814 22.2 19C22.2 19.1754 22.1539 19.3478 22.0662 19.4997C21.8975 19.7921 21.5927 19.9796 21.2557 19.9984C21.2372 19.9995 21.2186 20 21.2 20C21.0246 20 20.8522 19.9538 20.7003 19.8662L15.5004 16.8663C15.2755 16.7365 15.11 16.5246 15.0386 16.2752L15.0342 16.2591C15.0115 16.1746 15 16.0875 15 16C15 15.8402 15.0383 15.6827 15.1117 15.5407C15.1188 15.5271 15.1261 15.5136 15.1338 15.5003C15.2635 15.2755 15.4754 15.11 15.7248 15.0386L15.7409 15.0342C15.8254 15.0115 15.9125 15 16 15C16.1598 15 16.3173 15.0383 16.4593 15.1117C16.4729 15.1188 16.4864 15.1261 16.4999 15.1339Z" fill="#1C1C1C"/>
<path d="M29.025 12.4625V7.46252C29.025 6.91023 28.5773 6.46252 28.025 6.46252C27.4727 6.46252 27.025 6.91023 27.025 7.46252V11.4625H23.025C22.4727 11.4625 22.025 11.9102 22.025 12.4625C22.025 13.0148 22.4727 13.4625 23.025 13.4625H28.025C28.5773 13.4625 29.025 13.0148 29.025 12.4625Z" fill="#1C1C1C"/>
<path d="M27.3189 13.1706C27.5064 13.3575 27.7603 13.4625 28.025 13.4625L28.0265 13.4624C28.2917 13.4621 28.5459 13.3563 28.7331 13.1685C28.92 12.9811 29.025 12.7272 29.025 12.4625L29.025 12.461C29.0246 12.1958 28.9189 11.9416 28.7311 11.7543L24.4811 7.5168C21.909 4.94263 18.3383 4.23124 18.3383 4.23124C14.7677 3.51986 11.4037 4.91246 11.4037 4.91246C8.03975 6.30506 6.0167 9.33209 6.0167 9.33209C3.99365 12.3591 3.99365 16 3.99365 16C3.99365 19.6408 6.0167 22.6678 6.0167 22.6678C8.03974 25.6948 11.4037 27.0874 11.4037 27.0874C14.7677 28.48 18.3383 27.7687 18.3383 27.7687C21.9087 27.0573 24.4819 24.4822 24.4819 24.4822C24.6693 24.2947 24.775 24.04 24.775 23.775C24.7749 23.5097 24.6694 23.255 24.4818 23.0676C24.2943 22.8802 24.0401 22.775 23.775 22.775C23.5098 22.7751 23.2551 22.8805 23.0676 23.0681C20.9231 25.2144 17.9476 25.8072 17.9476 25.8072C14.972 26.4 12.1687 25.2395 12.1687 25.2395C9.36539 24.079 7.67952 21.5565 7.67952 21.5565C5.99365 19.034 5.99365 16 5.99365 16C5.99365 12.9659 7.67952 10.4434 7.67952 10.4434C9.36539 7.92087 12.1687 6.76037 12.1687 6.76037C14.972 5.59988 17.9476 6.1927 17.9476 6.1927C20.9231 6.78551 23.0689 8.9331 23.0689 8.9331L27.3189 13.1706Z" fill="#1C1C1C"/>
</svg>
