<svg width="32" height="32" viewBox="0 0 32 32" fill="none" xmlns="http://www.w3.org/2000/svg">
<path fill-rule="evenodd" clip-rule="evenodd" d="M16.9811 4.65525L29.4936 11.7553C29.7243 11.8861 29.8935 12.1033 29.9641 12.359C30.0346 12.6146 30.0007 12.8878 29.8699 13.1185C29.7807 13.2756 29.6507 13.4056 29.4936 13.4948L16.4936 20.8698C16.1875 21.0434 15.8127 21.0434 15.5067 20.8698L2.50669 13.4948C2.27601 13.3639 2.10676 13.1468 2.03618 12.8911C1.96561 12.6355 1.99947 12.3622 2.13034 12.1316C2.21947 11.9744 2.3495 11.8444 2.50661 11.7553L15.0191 4.65525L15.0427 4.64226C15.0427 4.64226 15.4916 4.40332 16.0001 4.40332C16.0001 4.40332 16.5086 4.40332 16.9575 4.64226L16.9811 4.65525ZM16.0001 6.40332C16.0001 6.40332 16.0073 6.40332 16.0138 6.40588L26.9737 12.6249L16.0001 18.8503L5.02657 12.6249L15.9865 6.40588C15.9865 6.40588 15.993 6.40332 16.0001 6.40332Z" fill="#1C1C1C"/>
<path fill-rule="evenodd" clip-rule="evenodd" d="M16.4936 12.3802L29.4936 19.7552C29.7243 19.8861 29.8935 20.1032 29.9641 20.3589C30.0347 20.6145 30.0008 20.8878 29.87 21.1184C29.7808 21.2756 29.6508 21.4056 29.4937 21.4947L16.9812 28.5947L16.9576 28.6077C16.9576 28.6077 16.5087 28.8467 16.0002 28.8467C16.0002 28.8467 15.4917 28.8467 15.0428 28.6077L15.0192 28.5947L2.50666 21.4947C2.02632 21.2222 1.85788 20.6118 2.13044 20.1315C2.21959 19.9744 2.34962 19.8443 2.50674 19.7552L15.5067 12.3802C15.8128 12.2066 16.1876 12.2066 16.4936 12.3802ZM5.02662 20.6251L16.0002 14.3997L26.9737 20.6251L16.0138 26.8441C16.0138 26.8441 16.0073 26.8467 16.0002 26.8467C16.0002 26.8467 15.993 26.8467 15.9865 26.8441L5.02662 20.6251Z" fill="#1C1C1C"/>
<path d="M28.0001 12.625V20.625C28.0001 21.1773 28.4478 21.625 29.0001 21.625C29.5524 21.625 30.0001 21.1773 30.0001 20.625V12.625C30.0001 12.0727 29.5524 11.625 29.0001 11.625C28.4478 11.625 28.0001 12.0727 28.0001 12.625Z" fill="#1C1C1C"/>
<path d="M2.00012 12.625V20.625C2.00012 21.1773 2.44784 21.625 3.00012 21.625C3.55241 21.625 4.00012 21.1773 4.00012 20.625V12.625C4.00012 12.0727 3.55241 11.625 3.00012 11.625C2.44784 11.625 2.00012 12.0727 2.00012 12.625Z" fill="#1C1C1C"/>
<path d="M15.0001 20V27.85C15.0001 28.4023 15.4478 28.85 16.0001 28.85C16.5524 28.85 17.0001 28.4023 17.0001 27.85V20C17.0001 19.4477 16.5524 19 16.0001 19C15.4478 19 15.0001 19.4477 15.0001 20Z" fill="#1C1C1C"/>
<path d="M15.0001 5.3999V13.2499C15.0001 13.8022 15.4478 14.2499 16.0001 14.2499C16.5524 14.2499 17.0001 13.8022 17.0001 13.2499V5.3999C17.0001 4.84762 16.5524 4.3999 16.0001 4.3999C15.4478 4.3999 15.0001 4.84762 15.0001 5.3999Z" fill="#1C1C1C"/>
</svg>
