<svg width="32" height="32" viewBox="0 0 32 32" fill="none" xmlns="http://www.w3.org/2000/svg">
<path fill-rule="evenodd" clip-rule="evenodd" d="M28.794 15.0525C28.794 15.0525 28.9931 15.4578 29 15.9092L29.0001 15.9176C29.0001 15.9176 29.0192 18.5281 28.0254 20.9422C28.0254 20.9422 27.0316 23.3562 25.1822 25.1946C25.1822 25.1946 23.3404 27.0364 20.933 28.0169C20.933 28.0169 18.6106 28.9628 16.0865 28.9796C16.0865 28.9796 13.5624 28.9964 11.2273 28.0816C11.2273 28.0816 8.80688 27.1334 6.94022 25.3166C6.94022 25.3166 4.08933 22.5424 3.279 18.648C3.279 18.648 2.46866 14.7535 3.97639 11.0724C3.97639 11.0724 5.48411 7.39132 8.79357 5.18425C8.79357 5.18425 12.103 2.97718 16.0899 3.00005C16.0899 3.00005 16.5419 3.00672 16.9476 3.20604C16.9476 3.20604 17.3533 3.40537 17.6348 3.75906C17.6348 3.75906 17.9163 4.11275 18.0195 4.55286C18.0195 4.55286 18.1227 4.99296 18.0259 5.44378C18.0259 5.44378 17.8775 6.10536 18.0281 6.76645C18.0281 6.76645 18.1786 7.42753 18.5988 7.95962C18.5988 7.95962 19.019 8.49171 19.6272 8.79138C19.6272 8.79138 20.2354 9.09104 20.9001 9.09995C20.9001 9.09995 21.7285 9.09995 22.3143 9.68573C22.3143 9.68573 22.9001 10.2715 22.9 11.0867C22.9 11.0867 22.909 11.7646 23.2087 12.3728C23.2087 12.3728 23.5084 12.981 24.0404 13.4012C24.0404 13.4012 24.5725 13.8215 25.2336 13.972C25.2336 13.972 25.8947 14.1226 26.5651 13.9722C26.5651 13.9722 27.0071 13.8773 27.4472 13.9805C27.4472 13.9805 27.8873 14.0837 28.241 14.3652C28.241 14.3652 28.5947 14.6468 28.794 15.0525ZM27 15.9374C26.9998 15.9365 26.9995 15.9354 26.9989 15.9344C26.9989 15.9344 26.9985 15.9335 26.9977 15.9324C26.9972 15.9317 26.9964 15.9308 26.9955 15.9301C26.9955 15.9301 26.9933 15.9283 26.9906 15.9277C26.9906 15.9277 26.9894 15.9274 26.9878 15.9274C26.987 15.9274 26.986 15.9274 26.9851 15.9277C26.9851 15.9277 25.8913 16.173 24.7895 15.9221C24.7895 15.9221 23.6877 15.6712 22.8009 14.9708C22.8009 14.9708 21.9141 14.2704 21.4146 13.2568C21.4146 13.2568 20.9152 12.2431 20.9002 11.1132L20.9001 11.0999C20.9001 11.0999 19.7569 11.0849 18.7433 10.5854C18.7433 10.5854 17.7296 10.086 17.0293 9.19917C17.0293 9.19917 16.3289 8.31235 16.078 7.21055C16.078 7.21055 15.8271 6.10889 16.0743 5.00642C16.0743 5.00642 16.0734 5.01037 16.0728 5.01033C16.0728 5.01033 16.0717 5.00675 16.07 5.00455C16.07 5.00455 16.0682 5.00235 16.0657 5.00112C16.0657 5.00112 16.0632 4.99988 16.0604 4.99984C16.0604 4.99984 12.7035 4.98066 9.90324 6.84818C9.90324 6.84818 7.10293 8.7157 5.82716 11.8305C5.82716 11.8305 4.55139 14.9452 5.23706 18.2406C5.23706 18.2406 5.92273 21.5359 8.33502 23.8833C8.33502 23.8833 9.91242 25.4185 11.9569 26.2194C11.9569 26.2194 13.9338 26.9939 16.0731 26.9797C16.0731 26.9797 18.2125 26.9654 20.1786 26.1646C20.1786 26.1646 22.2119 25.3365 23.768 23.7803C23.768 23.7803 25.3356 22.222 26.176 20.1808C26.176 20.1808 27.015 18.1427 27.0002 15.9389C27.0002 15.9389 27.0001 15.9383 27 15.9374Z" fill="#1C1C1C"/>
<path d="M21.0001 21.5C21.0001 22.3284 20.3286 23 19.5001 23C18.6717 23 18.0001 22.3284 18.0001 21.5C18.0001 20.6716 18.6717 20 19.5001 20C20.3286 20 21.0001 20.6716 21.0001 21.5Z" fill="#1C1C1C"/>
<path d="M13.0001 20.5C13.0001 21.3284 12.3286 22 11.5001 22C10.6717 22 10.0001 21.3284 10.0001 20.5C10.0001 19.6716 10.6717 19 11.5001 19C12.3286 19 13.0001 19.6716 13.0001 20.5Z" fill="#1C1C1C"/>
<path d="M12.0001 13.5C12.0001 14.3284 11.3286 15 10.5001 15C9.67169 15 9.00012 14.3284 9.00012 13.5C9.00012 12.6716 9.67169 12 10.5001 12C11.3286 12 12.0001 12.6716 12.0001 13.5Z" fill="#1C1C1C"/>
<path d="M18.5001 15.5C18.5001 16.3284 17.8286 17 17.0001 17C16.1717 17 15.5001 16.3284 15.5001 15.5C15.5001 14.6716 16.1717 14 17.0001 14C17.8286 14 18.5001 14.6716 18.5001 15.5Z" fill="#1C1C1C"/>
</svg>
