<svg width="32" height="32" viewBox="0 0 32 32" fill="none" xmlns="http://www.w3.org/2000/svg">
<path fill-rule="evenodd" clip-rule="evenodd" d="M1.48948 11.1935C1.48948 11.1935 1.35706 10.641 1.53515 10.1011C1.53515 10.1011 1.71384 9.55946 2.15136 9.19353C2.15136 9.19353 2.58889 8.8276 3.15362 8.7475C3.15362 8.7475 3.71835 8.6674 4.24373 8.89872L10.5654 11.7097C10.5654 11.7097 10.5698 11.7117 10.5744 11.7102C10.5744 11.7102 10.5761 11.7096 10.5767 11.7102C10.5767 11.7102 10.5776 11.7111 10.5755 11.7148L14.2499 5.09083C14.2499 5.09083 14.5141 4.61336 14.9842 4.33622C14.9842 4.33622 15.4542 4.05908 15.9999 4.05908C15.9999 4.05908 16.5456 4.05908 17.0157 4.33622C17.0157 4.33622 17.4857 4.61336 17.7494 5.08988L21.4186 11.7045C21.4186 11.7045 21.4209 11.7087 21.4255 11.7102C21.4255 11.7102 21.4301 11.7117 21.4311 11.7112L27.7595 8.89724C27.7595 8.89724 28.2815 8.6674 28.8462 8.7475C28.8462 8.7475 29.411 8.82759 29.8485 9.19353C29.8485 9.19353 30.286 9.55946 30.4647 10.1011C30.4647 10.1011 30.6434 10.6428 30.5108 11.1916L27.3216 24.7364C27.3216 24.7364 27.2252 25.1323 26.9825 25.4596C26.9825 25.4596 26.7397 25.7868 26.3888 25.9939C26.3888 25.9939 26.0378 26.2009 25.634 26.2552C25.634 26.2552 25.2301 26.3094 24.8331 26.2012C24.8331 26.2012 15.9937 23.7536 7.15035 26.2023C7.15035 26.2023 6.75721 26.3094 6.35336 26.2552C6.35336 26.2552 5.94952 26.2009 5.59857 25.9939C5.59857 25.9939 5.24762 25.7868 5.00487 25.4596C5.00487 25.4596 4.76211 25.1323 4.66384 24.7283L1.48948 11.1935ZM3.43601 10.7341L6.61094 24.2713C6.61094 24.2713 6.61009 24.2677 6.61054 24.2675C6.61054 24.2675 6.61269 24.2701 6.61487 24.2713C6.61487 24.2713 6.61705 24.2726 6.61955 24.273C6.61955 24.273 6.6202 24.2731 6.62115 24.2731C6.62207 24.2731 6.62329 24.273 6.6245 24.2726C6.6245 24.2726 15.9937 21.6784 25.3668 24.2737L25.3678 24.273C25.3678 24.273 25.3685 24.2729 25.3694 24.2726C25.3703 24.2724 25.3714 24.272 25.3725 24.2713C25.3725 24.2713 25.3747 24.2701 25.3762 24.268C25.3762 24.268 25.3777 24.266 25.3783 24.2635L28.564 10.7333L28.5654 10.7277L22.2437 13.5387C22.2437 13.5387 21.5328 13.8517 20.7986 13.6094C20.7986 13.6094 20.0644 13.367 19.6813 12.6954L16.0005 6.06004L15.9999 6.05908L12.3244 12.685C12.3244 12.685 11.9355 13.367 11.2013 13.6094C11.2013 13.6094 10.4671 13.8517 9.75945 13.5402L3.43447 10.7277L3.43601 10.7341Z" fill="#1C1C1C"/>
<path d="M12.1074 21.2068C15.9999 20.7859 19.8924 21.2068 19.8924 21.2068C19.9281 21.2107 19.964 21.2126 19.9999 21.2126C20.0125 21.2126 20.025 21.2124 20.0375 21.2119C20.2526 21.2038 20.4593 21.1265 20.6269 20.9916C20.8335 20.8253 20.9656 20.5838 20.9941 20.3201C20.998 20.2844 20.9999 20.2485 20.9999 20.2126C20.9999 20.1875 20.999 20.1624 20.9971 20.1374C20.9608 19.6566 20.5867 19.2702 20.1074 19.2184C16.0004 18.7744 11.8929 19.2183 11.8929 19.2183C11.6291 19.2469 11.3872 19.379 11.2209 19.5856C11.0779 19.7633 10.9999 19.9845 10.9999 20.2126L11 20.2238C11.0003 20.2559 11.0023 20.2881 11.0057 20.3201C11.0606 20.8278 11.4892 21.2126 11.9999 21.2126L12.0062 21.2126C12.04 21.2124 12.0738 21.2104 12.1074 21.2068Z" fill="#1C1C1C"/>
</svg>
