<svg width="32" height="32" viewBox="0 0 32 32" fill="none" xmlns="http://www.w3.org/2000/svg">
<path d="M18.56 6.15646C20.9396 6.62957 22.6556 8.34474 22.6556 8.34474C22.8431 8.53217 23.0974 8.63747 23.3625 8.63747C23.6279 8.63741 23.8823 8.53199 24.0698 8.34441C24.2572 8.15689 24.3625 7.9026 24.3625 7.63747C24.3624 7.37202 24.257 7.11769 24.0694 6.9302C21.9245 4.78624 18.95 4.19486 18.95 4.19486C15.9755 3.60348 13.1736 4.76391 13.1736 4.76391C10.3717 5.92435 8.68634 8.44564 8.68634 8.44564C7.00098 10.9669 7 13.9996 7 13.9996L7 18C7.00098 21.033 8.68634 23.5543 8.68634 23.5543C10.3717 26.0756 13.1736 27.236 13.1736 27.236C15.9755 28.3965 18.95 27.8051 18.95 27.8051C21.9238 27.2138 24.0684 25.0708 24.0684 25.0708L24.0694 25.0697C24.2571 24.8822 24.3625 24.6278 24.3625 24.3625C24.3625 24.3453 24.3621 24.3281 24.3612 24.311C24.3484 24.064 24.2446 23.8304 24.0698 23.6555C23.8822 23.4679 23.6278 23.3625 23.3625 23.3625C23.3453 23.3625 23.3281 23.3629 23.311 23.3638C23.064 23.3765 22.8305 23.4804 22.6556 23.6552C20.9396 25.3704 18.56 25.8435 18.56 25.8435C16.1804 26.3166 13.9389 25.3882 13.9389 25.3882C11.6974 24.4599 10.3491 22.4428 10.3491 22.4428C9.00079 20.4258 9 18 9 18V14.0003C9.00079 11.5741 10.3491 9.55709 10.3491 9.55709C11.6974 7.54005 13.9389 6.61171 13.9389 6.61171C16.1804 5.68336 18.56 6.15646 18.56 6.15646Z" fill="#1C1C1C"/>
<path d="M5 15H17C17.5523 15 18 14.5523 18 14C18 13.4477 17.5523 13 17 13H5C4.44772 13 4 13.4477 4 14C4 14.5523 4.44772 15 5 15Z" fill="#1C1C1C"/>
<path d="M5 19H15C15.5523 19 16 18.5523 16 18C16 17.4477 15.5523 17 15 17H5C4.44772 17 4 17.4477 4 18C4 18.5523 4.44772 19 5 19Z" fill="#1C1C1C"/>
</svg>
