<svg width="32" height="32" viewBox="0 0 32 32" fill="none" xmlns="http://www.w3.org/2000/svg">
<path d="M7 17.5H17C17.5523 17.5 18 17.0523 18 16.5C18 15.9477 17.5523 15.5 17 15.5H7C6.44772 15.5 6 15.9477 6 16.5C6 17.0523 6.44772 17.5 7 17.5Z" fill="#1C1C1C"/>
<path d="M18.7229 6.33863C19.5482 6.68095 20.1767 7.31599 20.1767 7.31599C20.3646 7.50577 20.6205 7.61256 20.8875 7.61256C20.903 7.61256 20.9186 7.61219 20.9341 7.61147C21.1811 7.59995 21.4152 7.49729 21.5909 7.32331C21.7794 7.13675 21.8861 6.88294 21.8875 6.61773L21.8875 6.61256C21.8875 6.59826 21.8872 6.58397 21.8866 6.56969C21.8759 6.32131 21.7731 6.08581 21.5983 5.90912C20.6865 4.98786 19.4892 4.49125 19.4892 4.49125C18.292 3.99464 16.9958 4.00006 16.9958 4.00006C14.3076 4.00005 12.4038 5.90386 12.4038 5.90386C10.5 7.80767 10.5 10.5001 10.5 10.5001V21.5001C10.5 22.9498 9.47487 23.9749 9.47487 23.9749C8.44975 25.0001 7 25.0001 7 25.0001C6.44772 25.0001 6 25.4478 6 26.0001C6 26.5523 6.44772 27.0001 7 27.0001H23C23.5523 27.0001 24 26.5523 24 26.0001C24 25.4478 23.5523 25.0001 23 25.0001H11.2465C12.5 23.5097 12.5 21.5001 12.5 21.5001V10.5001C12.5 8.63609 13.818 7.31807 13.818 7.31807C15.136 6.00005 17.0042 6.00005 17.0042 6.00005C17.8977 5.9963 18.7229 6.33863 18.7229 6.33863Z" fill="#1C1C1C"/>
</svg>
