<svg width="32" height="32" viewBox="0 0 32 32" fill="none" xmlns="http://www.w3.org/2000/svg">
<path fill-rule="evenodd" clip-rule="evenodd" d="M10.9925 9.41977C10.9925 9.41977 10.4067 8.83399 10.4067 8.00556C10.4067 8.00556 10.4067 7.17713 10.9925 6.59135L14.5811 3.00278C14.5811 3.00278 15.1669 2.41699 15.9953 2.41699C15.9953 2.41699 16.8237 2.41699 17.4095 3.00278L20.9954 6.58869C20.9954 6.58869 21.5812 7.17448 21.5812 8.00291C21.5812 8.00291 21.5812 8.83133 20.9954 9.41712L17.4069 13.0057C17.4069 13.0057 16.8211 13.5915 15.9927 13.5915C15.9927 13.5915 15.1642 13.5915 14.5784 13.0057L10.9925 9.41977ZM12.4067 8.00556L15.9927 11.5915L19.5812 8.00291L15.9953 4.41699L12.4067 8.00556Z" fill="#1C1C1C"/>
<path fill-rule="evenodd" clip-rule="evenodd" d="M18.9937 17.4198C18.9937 17.4198 18.408 16.834 18.408 16.0056C18.408 16.0056 18.408 15.1771 18.9937 14.5913L22.5823 11.0028C22.5823 11.0028 23.1681 10.417 23.9965 10.417C23.9965 10.417 24.825 10.417 25.4107 11.0028L28.9967 14.5887C28.9967 14.5887 29.5824 15.1745 29.5824 16.0029C29.5824 16.0029 29.5824 16.8313 28.9967 17.4171L25.4081 21.0057C25.4081 21.0057 24.8223 21.5915 23.9939 21.5915C23.9939 21.5915 23.1654 21.5915 22.5797 21.0057L18.9937 17.4198ZM20.408 16.0056L23.9939 19.5915L27.5824 16.0029L23.9965 12.417L20.408 16.0056Z" fill="#1C1C1C"/>
<path fill-rule="evenodd" clip-rule="evenodd" d="M2.99252 17.4085C2.99252 17.4085 2.40674 16.8228 2.40674 15.9943C2.40674 15.9943 2.40674 15.1659 2.99252 14.5801L6.58109 10.9915C6.58109 10.9915 7.16688 10.4058 7.99531 10.4058C7.99531 10.4058 8.82373 10.4058 9.40952 10.9915L12.9954 14.5775C12.9954 14.5775 13.5812 15.1632 13.5812 15.9917C13.5812 15.9917 13.5812 16.8201 12.9954 17.4059L9.40687 20.9945C9.40687 20.9945 8.82108 21.5802 7.99265 21.5802C7.99265 21.5802 7.16423 21.5802 6.57844 20.9945L2.99252 17.4085ZM4.40674 15.9943L7.99265 19.5802L11.5812 15.9917L7.99531 12.4058L4.40674 15.9943Z" fill="#1C1C1C"/>
<path fill-rule="evenodd" clip-rule="evenodd" d="M10.9937 25.4085C10.9937 25.4085 10.408 24.8228 10.408 23.9943C10.408 23.9943 10.408 23.1659 10.9937 22.5801L14.5823 18.9915C14.5823 18.9915 15.1681 18.4058 15.9965 18.4058C15.9965 18.4058 16.825 18.4058 17.4107 18.9915L20.9967 22.5775C20.9967 22.5775 21.5824 23.1632 21.5824 23.9917C21.5824 23.9917 21.5824 24.8201 20.9967 25.4059L17.4081 28.9945C17.4081 28.9945 16.8223 29.5802 15.9939 29.5802C15.9939 29.5802 15.1654 29.5802 14.5797 28.9945L10.9937 25.4085ZM12.408 23.9943L15.9939 27.5802L19.5824 23.9917L15.9965 20.4058L12.408 23.9943Z" fill="#1C1C1C"/>
</svg>
