<svg width="32" height="32" viewBox="0 0 32 32" fill="none" xmlns="http://www.w3.org/2000/svg">
<path fill-rule="evenodd" clip-rule="evenodd" d="M2.49667 17.4141C2.49667 17.4141 1.91089 16.8284 1.91089 15.9999C1.91089 15.9999 1.91089 15.1715 2.49667 14.5857L14.5794 2.50302C14.5794 2.50302 15.1652 1.91724 15.9936 1.91724C15.9936 1.91724 16.822 1.91724 17.4078 2.50302L29.494 14.5892C29.494 14.5892 30.0798 15.175 30.0798 16.0035C30.0798 16.0035 30.0798 16.8319 29.494 17.4177L17.4113 29.5004C17.4113 29.5004 16.8255 30.0861 15.9971 30.0861C15.9971 30.0861 15.1687 30.0861 14.5829 29.5004L2.49667 17.4141ZM3.91089 15.9999L15.9971 28.0861L28.0798 16.0035L15.9936 3.91724L3.91089 15.9999Z" fill="#1C1C1C"/>
</svg>
