<svg width="32" height="32" viewBox="0 0 32 32" fill="none" xmlns="http://www.w3.org/2000/svg">
<path d="M13.5002 18C13.5002 18.8284 12.8286 19.5 12.0002 19.5C11.1718 19.5 10.5002 18.8284 10.5002 18C10.5002 17.1717 11.1718 16.5 12.0002 16.5C12.8286 16.5 13.5002 17.1717 13.5002 18Z" fill="#1C1C1C"/>
<path d="M21.5002 18C21.5002 18.8284 20.8286 19.5 20.0002 19.5C19.1718 19.5 18.5002 18.8284 18.5002 18C18.5002 17.1717 19.1718 16.5 20.0002 16.5C20.8286 16.5 21.5002 17.1717 21.5002 18Z" fill="#1C1C1C"/>
<path d="M22.3989 10.9534L22.4012 10.9541C22.498 10.9845 22.5988 10.9999 22.7003 10.9999C22.7247 10.9999 22.7491 10.999 22.7734 10.9972C23.1825 10.9672 23.5318 10.6904 23.6545 10.299C23.6848 10.2022 23.7003 10.1013 23.7003 9.9999C23.7003 9.97548 23.6994 9.95107 23.6976 9.92672C23.6676 9.5176 23.3907 9.16832 22.9993 9.04565C19.5783 7.97359 15.9929 7.99993 15.9929 7.99993C12.4224 7.97342 9.00118 9.04567 9.00118 9.04567C8.58411 9.17638 8.30025 9.56282 8.30025 9.9999C8.30031 10.1011 8.31575 10.2024 8.34602 10.299C8.47673 10.716 8.86317 10.9999 9.30025 10.9999C9.40148 10.9998 9.50273 10.9844 9.59932 10.9541C12.7213 9.97568 16.0076 9.99987 16.0076 9.99987C19.2776 9.97569 22.3989 10.9534 22.3989 10.9534Z" fill="#1C1C1C"/>
<path d="M9.59932 21.0458C12.7213 22.0242 15.9929 22 15.9929 22C19.2792 22.0242 22.4012 21.0458 22.4012 21.0458C22.498 21.0155 22.5988 21 22.7003 21C23.1104 21 23.479 21.2505 23.63 21.6319C23.639 21.6546 23.6472 21.6777 23.6545 21.701C23.6848 21.7977 23.7003 21.8986 23.7003 22C23.7003 22.4102 23.4497 22.7788 23.0683 22.9298C23.0456 22.9388 23.0226 22.947 22.9993 22.9543C19.5783 24.0263 16.0076 24 16.0076 24C12.4227 24.0265 9.00178 22.9544 9.00178 22.9544C8.5847 22.8237 8.30025 22.4371 8.30025 22C8.30025 21.8988 8.31562 21.7982 8.34583 21.7015C8.47655 21.2845 8.86317 21 9.30025 21C9.40148 21 9.50271 21.0156 9.59932 21.0458Z" fill="#1C1C1C"/>
<path d="M19.3007 5.92371L18.3132 8.91121C18.2797 9.01246 18.2627 9.11841 18.2627 9.22505L18.2629 9.24879C18.2665 9.39683 18.3028 9.54224 18.3694 9.67451C18.4886 9.91143 18.697 10.0913 18.9488 10.1745C19.0501 10.208 19.156 10.2251 19.2627 10.2251C19.2819 10.2251 19.3011 10.2245 19.3203 10.2234C19.7299 10.1997 20.0834 9.92837 20.2121 9.5389L21.1996 6.5514C21.199 6.55338 21.1996 6.55389 21.1996 6.55389C21.2002 6.55445 21.2024 6.55322 21.2024 6.55322C21.2066 6.55088 21.2112 6.5519 21.2112 6.5519C23.0279 6.94553 24.7456 7.65022 24.7456 7.65022L24.7563 7.65454L28.9922 21.7994C28.9933 21.8032 28.9923 21.8067 28.9923 21.8067C28.9913 21.8103 28.9886 21.8127 28.9886 21.8127C26.2126 24.2281 21.7817 25.3146 21.7817 25.3146L21.7806 25.3124L20.2683 22.3128C20.1489 22.0759 19.9401 21.8959 19.6882 21.8128C19.5872 21.7795 19.4815 21.7626 19.3752 21.7626L19.3506 21.7629C19.2026 21.7665 19.0572 21.803 18.925 21.8696C18.5878 22.0396 18.3752 22.385 18.3752 22.7626C18.3752 22.7759 18.3754 22.7893 18.376 22.8027C18.3817 22.9454 18.4179 23.0852 18.4822 23.2127L19.9903 26.204C20.2956 26.836 20.9329 27.1334 20.9329 27.1334C21.5762 27.4336 22.2505 27.2589 22.2505 27.2589C27.1574 26.0572 30.3117 23.3124 30.3117 23.3124C30.7535 22.9227 30.9154 22.3562 30.9154 22.3562C31.0772 21.7897 30.9081 21.2257 30.9081 21.2257L26.6744 7.08865C26.5465 6.63959 26.2301 6.29623 26.2301 6.29623C25.9196 5.9593 25.4928 5.79502 25.4928 5.79502C23.6176 5.02688 21.6391 4.5982 21.6391 4.5982C20.889 4.43393 20.2201 4.81106 20.2201 4.81106C19.5513 5.18819 19.3007 5.92371 19.3007 5.92371Z" fill="#1C1C1C"/>
<path d="M11.7879 9.538C11.8711 9.78981 12.0513 9.99915 12.2882 10.1184C12.4277 10.1885 12.5816 10.2251 12.7377 10.2251H12.7388C12.8451 10.2249 12.9506 10.2079 13.0515 10.1745C13.4611 10.0391 13.7377 9.65641 13.7377 9.22505L13.7376 9.20891C13.7359 9.1077 13.7189 9.00732 13.6872 8.91121L12.6997 5.92371C12.4491 5.18819 11.7802 4.81106 11.7802 4.81106C11.1113 4.43393 10.3612 4.5982 10.3612 4.5982C8.38278 5.02688 6.50751 5.79501 6.50751 5.79501C6.08075 5.9593 5.77024 6.29623 5.77024 6.29623C5.45381 6.63959 5.32592 7.08865 5.32592 7.08865L1.09222 21.2257C0.923121 21.7897 1.08497 22.3562 1.08497 22.3562C1.24682 22.9227 1.6886 23.3124 1.6886 23.3124C4.84298 26.0572 9.74981 27.2589 9.74981 27.2589C10.4241 27.4336 11.0674 27.1334 11.0674 27.1334C11.7048 26.836 12.01 26.204 12.01 26.204L13.5179 23.2131C13.5883 23.0735 13.6252 22.9189 13.6252 22.7626L13.6251 22.7523C13.6213 22.3785 13.4092 22.0379 13.0754 21.8696C12.9357 21.7992 12.7816 21.7626 12.6252 21.7626C12.5189 21.7626 12.413 21.7796 12.3121 21.8128C12.0602 21.8959 11.8516 22.0755 11.7322 22.3124L10.2197 25.3124L10.2186 25.3146C5.78771 24.2281 3.01177 21.8127 3.01177 21.8127C3.00902 21.8103 3.00802 21.8067 3.00802 21.8067C3.00701 21.8032 3.00815 21.7994 3.00815 21.7994L7.24402 7.65455L7.25474 7.65022C8.97242 6.94553 10.7891 6.5519 10.7891 6.5519C10.7938 6.55088 10.7979 6.55322 10.7979 6.55322C10.8001 6.55445 10.8008 6.55389 10.8008 6.55389C10.8014 6.55338 10.8007 6.5514 10.8007 6.5514L11.7879 9.538Z" fill="#1C1C1C"/>
<path d="M13.5002 18C13.5002 18.8284 12.8286 19.5 12.0002 19.5C11.1718 19.5 10.5002 18.8284 10.5002 18C10.5002 17.1717 11.1718 16.5 12.0002 16.5C12.8286 16.5 13.5002 17.1717 13.5002 18Z" fill="#1C1C1C"/>
<path d="M21.5002 18C21.5002 18.8284 20.8286 19.5 20.0002 19.5C19.1718 19.5 18.5002 18.8284 18.5002 18C18.5002 17.1717 19.1718 16.5 20.0002 16.5C20.8286 16.5 21.5002 17.1717 21.5002 18Z" fill="#1C1C1C"/>
<path d="M22.3989 10.9534L22.4012 10.9541C22.498 10.9845 22.5988 10.9999 22.7003 10.9999C22.7247 10.9999 22.7491 10.999 22.7734 10.9972C23.1825 10.9672 23.5318 10.6904 23.6545 10.299C23.6848 10.2022 23.7003 10.1013 23.7003 9.9999C23.7003 9.97548 23.6994 9.95107 23.6976 9.92672C23.6676 9.5176 23.3907 9.16832 22.9993 9.04565C19.5783 7.97359 15.9929 7.99993 15.9929 7.99993C12.4224 7.97342 9.00118 9.04567 9.00118 9.04567C8.58411 9.17638 8.30025 9.56282 8.30025 9.9999C8.30031 10.1011 8.31575 10.2024 8.34602 10.299C8.47673 10.716 8.86317 10.9999 9.30025 10.9999C9.40148 10.9998 9.50273 10.9844 9.59932 10.9541C12.7213 9.97568 16.0076 9.99987 16.0076 9.99987C19.2776 9.97569 22.3989 10.9534 22.3989 10.9534Z" fill="#1C1C1C"/>
<path d="M9.59932 21.0458C12.7213 22.0242 15.9929 22 15.9929 22C19.2792 22.0242 22.4012 21.0458 22.4012 21.0458C22.498 21.0155 22.5988 21 22.7003 21C23.1104 21 23.479 21.2505 23.63 21.6319C23.639 21.6546 23.6472 21.6777 23.6545 21.701C23.6848 21.7977 23.7003 21.8986 23.7003 22C23.7003 22.4102 23.4497 22.7788 23.0683 22.9298C23.0456 22.9388 23.0226 22.947 22.9993 22.9543C19.5783 24.0263 16.0076 24 16.0076 24C12.4227 24.0265 9.00178 22.9544 9.00178 22.9544C8.5847 22.8237 8.30025 22.4371 8.30025 22C8.30025 21.8988 8.31562 21.7982 8.34583 21.7015C8.47655 21.2845 8.86317 21 9.30025 21C9.40148 21 9.50271 21.0156 9.59932 21.0458Z" fill="#1C1C1C"/>
<path d="M19.3007 5.92371L18.3132 8.91121C18.2797 9.01246 18.2627 9.11841 18.2627 9.22505L18.2629 9.24879C18.2665 9.39683 18.3028 9.54224 18.3694 9.67451C18.4886 9.91143 18.697 10.0913 18.9488 10.1745C19.0501 10.208 19.156 10.2251 19.2627 10.2251C19.2819 10.2251 19.3011 10.2245 19.3203 10.2234C19.7299 10.1997 20.0834 9.92837 20.2121 9.5389L21.1996 6.5514C21.199 6.55338 21.1996 6.55389 21.1996 6.55389C21.2002 6.55445 21.2024 6.55322 21.2024 6.55322C21.2066 6.55088 21.2112 6.5519 21.2112 6.5519C23.0279 6.94553 24.7456 7.65022 24.7456 7.65022L24.7563 7.65454L28.9922 21.7994C28.9933 21.8032 28.9923 21.8067 28.9923 21.8067C28.9913 21.8103 28.9886 21.8127 28.9886 21.8127C26.2126 24.2281 21.7817 25.3146 21.7817 25.3146L21.7806 25.3124L20.2683 22.3128C20.1489 22.0759 19.9401 21.8959 19.6882 21.8128C19.5872 21.7795 19.4815 21.7626 19.3752 21.7626L19.3506 21.7629C19.2026 21.7665 19.0572 21.803 18.925 21.8696C18.5878 22.0396 18.3752 22.385 18.3752 22.7626C18.3752 22.7759 18.3754 22.7893 18.376 22.8027C18.3817 22.9454 18.4179 23.0852 18.4822 23.2127L19.9903 26.204C20.2956 26.836 20.9329 27.1334 20.9329 27.1334C21.5762 27.4336 22.2505 27.2589 22.2505 27.2589C27.1574 26.0572 30.3117 23.3124 30.3117 23.3124C30.7535 22.9227 30.9154 22.3562 30.9154 22.3562C31.0772 21.7897 30.9081 21.2257 30.9081 21.2257L26.6744 7.08865C26.5465 6.63959 26.2301 6.29623 26.2301 6.29623C25.9196 5.9593 25.4928 5.79502 25.4928 5.79502C23.6176 5.02688 21.6391 4.5982 21.6391 4.5982C20.889 4.43393 20.2201 4.81106 20.2201 4.81106C19.5513 5.18819 19.3007 5.92371 19.3007 5.92371Z" fill="#1C1C1C"/>
<path d="M11.7879 9.538C11.8711 9.78981 12.0513 9.99915 12.2882 10.1184C12.4277 10.1885 12.5816 10.2251 12.7377 10.2251H12.7388C12.8451 10.2249 12.9506 10.2079 13.0515 10.1745C13.4611 10.0391 13.7377 9.65641 13.7377 9.22505L13.7376 9.20891C13.7359 9.1077 13.7189 9.00732 13.6872 8.91121L12.6997 5.92371C12.4491 5.18819 11.7802 4.81106 11.7802 4.81106C11.1113 4.43393 10.3612 4.5982 10.3612 4.5982C8.38278 5.02688 6.50751 5.79501 6.50751 5.79501C6.08075 5.9593 5.77024 6.29623 5.77024 6.29623C5.45381 6.63959 5.32592 7.08865 5.32592 7.08865L1.09222 21.2257C0.923121 21.7897 1.08497 22.3562 1.08497 22.3562C1.24682 22.9227 1.6886 23.3124 1.6886 23.3124C4.84298 26.0572 9.74981 27.2589 9.74981 27.2589C10.4241 27.4336 11.0674 27.1334 11.0674 27.1334C11.7048 26.836 12.01 26.204 12.01 26.204L13.5179 23.2131C13.5883 23.0735 13.6252 22.9189 13.6252 22.7626L13.6251 22.7523C13.6213 22.3785 13.4092 22.0379 13.0754 21.8696C12.9357 21.7992 12.7816 21.7626 12.6252 21.7626C12.5189 21.7626 12.413 21.7796 12.3121 21.8128C12.0602 21.8959 11.8516 22.0755 11.7322 22.3124L10.2197 25.3124L10.2186 25.3146C5.78771 24.2281 3.01177 21.8127 3.01177 21.8127C3.00902 21.8103 3.00802 21.8067 3.00802 21.8067C3.00701 21.8032 3.00815 21.7994 3.00815 21.7994L7.24402 7.65455L7.25474 7.65022C8.97242 6.94553 10.7891 6.5519 10.7891 6.5519C10.7938 6.55088 10.7979 6.55322 10.7979 6.55322C10.8001 6.55445 10.8008 6.55389 10.8008 6.55389C10.8014 6.55338 10.8007 6.5514 10.8007 6.5514L11.7879 9.538Z" fill="#1C1C1C"/>
</svg>
