<svg width="32" height="32" viewBox="0 0 32 32" fill="none" xmlns="http://www.w3.org/2000/svg">
<path d="M6.73994 4.32742C6.72927 4.31569 6.71832 4.30421 6.70711 4.29299C6.5312 4.11709 6.29605 4.01306 6.04757 4.00123L6.04458 4.00109C6.02973 4.00043 6.01487 4.0001 6 4.0001C5.75123 4.0001 5.5114 4.09282 5.32733 4.26016C5.31559 4.27083 5.30411 4.28177 5.29289 4.29299C5.11699 4.46889 5.01296 4.70405 5.00113 4.95253L5.00099 4.95552C5.00033 4.97037 5 4.98523 5 5.0001C5 5.24886 5.09272 5.4887 5.26006 5.67277L25.2601 27.6728C25.4496 27.8812 25.7183 28.0001 26 28.0001L26.0042 28.0001C26.2515 27.9991 26.4897 27.9064 26.6727 27.74C26.8811 27.5505 27 27.2818 27 27.0001L27 26.9959C26.999 26.7486 26.9063 26.5104 26.7399 26.3274L6.73994 4.32742Z" fill="#1C1C1C"/>
<path d="M10.5111 10.5693C9.99462 11.7321 9.99999 13.0044 9.99999 13.0044C10.0023 13.555 10.4493 14.0002 11 14.0002L11.0035 14.0002C11.5541 13.9979 12 13.5508 12 13.0002L12 12.9967C11.9964 12.1529 12.3389 11.3811 12.3389 11.3811C12.3957 11.2533 12.425 11.115 12.425 10.9752L12.4247 10.9507C12.4219 10.8362 12.3994 10.7229 12.3582 10.616C12.263 10.3685 12.0733 10.1689 11.8309 10.0613C11.7031 10.0045 11.5648 9.97519 11.425 9.97519C11.4052 9.97519 11.3855 9.97578 11.3658 9.97695C10.9925 9.99908 10.6628 10.2276 10.5111 10.5693Z" fill="#1C1C1C"/>
<path d="M23.7781 8.47156C25.0002 10.5709 25 13 25 13C25 13.0611 25.0056 13.1219 25.0167 13.1819C25.1044 13.656 25.5178 14 25.9999 14C26.061 14 26.1219 13.9945 26.1819 13.9834C26.656 13.8957 27 13.4822 27 13.0001C27.0002 10.0312 25.5065 7.46537 25.5065 7.46537C24.0129 4.89955 21.4311 3.43369 21.4311 3.43369C18.8493 1.96783 15.8806 2.00006 15.8806 2.00006C12.9124 2.03228 10.3635 3.55326 10.3635 3.55326C10.1926 3.65496 10.056 3.80528 9.97099 3.98502C9.94326 4.04366 9.9213 4.10486 9.90542 4.16775C9.88522 4.24777 9.875 4.33 9.875 4.41254C9.875 4.42788 9.87535 4.44322 9.87606 4.45854C9.88364 4.62322 9.93182 4.78348 10.0163 4.92504C10.1968 5.22737 10.5229 5.41254 10.875 5.41254L10.8851 5.41249C11.0622 5.41069 11.2355 5.36194 11.3875 5.27122C13.4733 4.02631 15.9023 3.99994 15.9023 3.99994C18.3313 3.97357 20.4436 5.17291 20.4436 5.17291C22.556 6.37225 23.7781 8.47156 23.7781 8.47156Z" fill="#1C1C1C"/>
<path d="M8.72031 7.7021L8.72102 7.70113C8.84546 7.53015 8.9125 7.32412 8.91251 7.11265C8.91251 7.09506 8.91204 7.07747 8.91111 7.05991C8.89523 6.75907 8.74456 6.48142 8.50099 6.30413C8.33001 6.17969 8.12398 6.11265 7.91251 6.11265L7.90162 6.1127C7.85315 6.11323 7.8048 6.11728 7.75692 6.12482C7.49494 6.16609 7.26007 6.30973 7.104 6.52416C4.99641 9.41976 5.00001 13.0011 5.00001 13.0011C5.00001 15.741 5.9099 17.5186 5.9099 17.5186C6.46109 18.5955 7.80783 19.8939 7.80783 19.8939C8.71958 20.7729 9.01791 21.3023 9.01791 21.3023C9.50001 22.1578 9.50001 23.5001 9.50001 23.5001C9.50233 25.5559 10.6851 27.2358 10.6851 27.2358C11.8679 28.9158 13.8014 29.6108 13.8014 29.6108C15.7349 30.3058 17.7165 29.7632 17.7165 29.7632C19.6978 29.2207 21.0075 27.6382 21.0075 27.6382C21.1559 27.4588 21.2375 27.2329 21.2375 27.0001L21.2375 26.9965C21.2364 26.6998 21.1036 26.4189 20.875 26.2297C20.6957 26.0813 20.4702 26.0001 20.2375 26.0001L20.2338 26.0002C20.2036 26.0003 20.1735 26.0017 20.1435 26.0046C19.8794 26.0295 19.6361 26.1583 19.4671 26.3626C18.5603 27.4585 17.1884 27.8342 17.1884 27.8342C15.8164 28.2098 14.4779 27.7287 14.4779 27.7287C13.1393 27.2476 12.3205 26.0845 12.3205 26.0845C11.5016 24.9214 11.5 23.5001 11.5 23.5001C11.5 21.633 10.7603 20.3204 10.7603 20.3204C10.3183 19.5361 9.19597 18.454 9.19597 18.454C8.0894 17.3872 7.69023 16.6073 7.69023 16.6073C7.00001 15.2589 7 12.9991 7 12.9991C6.99706 10.0702 8.72031 7.7021 8.72031 7.7021Z" fill="#1C1C1C"/>
<path d="M14.0467 7.33057C13.6445 7.47035 13.375 7.84941 13.375 8.27514L13.375 8.28209C13.3758 8.39153 13.3945 8.50009 13.4304 8.60346C13.5702 9.00559 13.9493 9.27514 14.375 9.27514L14.382 9.27511C14.4914 9.27435 14.6 9.25563 14.7033 9.2197C15.6191 8.90138 16.5788 9.03907 16.5788 9.03907C17.5385 9.17677 18.3279 9.73974 18.3279 9.73974C19.1172 10.3027 19.56 11.1653 19.56 11.1653C20.0027 12.0278 20 12.9973 20 12.9973C20.0136 13.7155 19.5919 14.2694 19.5919 14.2694C19.4593 14.4435 19.3875 14.6563 19.3875 14.8751L19.388 14.9064C19.3974 15.2075 19.542 15.4883 19.7817 15.6708C19.9559 15.8034 20.1687 15.8751 20.3875 15.8751L20.4187 15.8747C20.7198 15.8652 21.0007 15.7206 21.1831 15.4809C22.0266 14.373 22 13.0029 22 13.0029C22.0041 11.5471 21.3393 10.2519 21.3393 10.2519C20.6745 8.95678 19.4892 8.11144 19.4892 8.11144C18.3039 7.2661 16.8629 7.05935 16.8629 7.05935C15.4219 6.8526 14.0467 7.33057 14.0467 7.33057Z" fill="#1C1C1C"/>
<path d="M18.5 18.992C18.4967 18.5891 18.6372 18.2114 18.6372 18.2114C18.6787 18.0998 18.7 17.9817 18.7 17.8626L18.6998 17.8419C18.6913 17.4318 18.4332 17.0685 18.0487 16.9254C17.9371 16.8839 17.819 16.8626 17.7 16.8626L17.6793 16.8629C17.2691 16.8714 16.9058 17.1295 16.7628 17.5139C16.4938 18.2369 16.5 19.0083 16.5 19.0083C16.5049 19.8609 16.9022 20.618 16.9022 20.618C17.2995 21.3751 18.0003 21.8649 18.0003 21.8649C18.7011 22.3547 19.5487 22.4676 19.5487 22.4676C20.3962 22.5805 21.2008 22.2912 21.2008 22.2912C21.5978 22.1485 21.8625 21.772 21.8625 21.3501L21.8623 21.3326C21.8604 21.2232 21.8405 21.1148 21.8035 21.0118C21.6608 20.6149 21.2843 20.3501 20.8625 20.3501L20.8449 20.3503C20.7355 20.3522 20.6271 20.3721 20.5242 20.4091C20.1777 20.5337 19.8127 20.4851 19.8127 20.4851C19.4478 20.4365 19.146 20.2255 19.146 20.2255C18.8442 20.0146 18.6732 19.6886 18.6732 19.6886C18.5021 19.3626 18.5 18.992 18.5 18.992Z" fill="#1C1C1C"/>
</svg>
