<svg width="32" height="32" viewBox="0 0 32 32" fill="none" xmlns="http://www.w3.org/2000/svg">
<path d="M24.2722 16.4142L27.1347 21.3517C27.3136 21.6602 27.6432 21.8501 27.9998 21.8501C28.0159 21.8501 28.032 21.8497 28.048 21.8489C28.2076 21.8412 28.3631 21.7954 28.5014 21.7152C28.8099 21.5364 28.9998 21.2067 28.9998 20.8501C28.9998 20.834 28.9994 20.818 28.9987 20.8019C28.991 20.6423 28.9451 20.4868 28.865 20.3485L26.0025 15.411C25.8236 15.1025 25.494 14.9126 25.1373 14.9126C25.1213 14.9126 25.1052 14.913 25.0892 14.9138C24.9295 14.9215 24.774 14.9673 24.6358 15.0475C24.3272 15.2263 24.1373 15.556 24.1373 15.9126C24.1373 15.9287 24.1377 15.9447 24.1385 15.9608C24.1462 16.1204 24.192 16.2759 24.2722 16.4142Z" fill="#1C1C1C"/>
<path d="M18.29 18.8361L19.1775 23.8736C19.2235 24.1348 19.3714 24.367 19.5886 24.5192C19.7567 24.6369 19.957 24.7001 20.1623 24.7001L20.1669 24.7001C20.2235 24.6998 20.28 24.6948 20.3358 24.6849C20.8138 24.6007 21.1623 24.1854 21.1623 23.7001L21.1623 23.6969C21.1621 23.6398 21.1571 23.5828 21.1471 23.5266L20.2596 18.4891C20.2136 18.2279 20.0657 17.9957 19.8485 17.8435C19.6804 17.7258 19.4801 17.6626 19.2748 17.6626L19.2703 17.6626C19.2136 17.6629 19.1571 17.6679 19.1013 17.6778C18.8401 17.7238 18.6079 17.8717 18.4557 18.0889C18.338 18.257 18.2748 18.4573 18.2748 18.6626L18.2748 18.6671C18.2751 18.7238 18.2801 18.7803 18.29 18.8361Z" fill="#1C1C1C"/>
<path d="M11.7274 18.477L10.8399 23.5268C10.8299 23.584 10.8248 23.6419 10.8248 23.6999L10.8249 23.7089C10.8292 24.191 11.1769 24.6014 11.6517 24.6848C11.7089 24.6949 11.7668 24.6999 11.8248 24.6999L11.8453 24.6997C12.0437 24.6956 12.2364 24.6326 12.3989 24.5187C12.616 24.3665 12.7638 24.1342 12.8097 23.873L13.6972 18.8234C13.7072 18.7662 13.7123 18.7079 13.7123 18.6499L13.7121 18.6294C13.7081 18.431 13.6451 18.2383 13.5312 18.0759C13.3789 17.8587 13.1466 17.7109 12.8854 17.665C12.8283 17.655 12.7704 17.6499 12.7123 17.6499L12.7033 17.6499C12.2212 17.6543 11.8109 18.002 11.7274 18.477Z" fill="#1C1C1C"/>
<path d="M5.98358 15.4129L3.12108 20.3754C3.03344 20.5274 2.9873 20.6997 2.9873 20.8751C2.9873 20.8937 2.98782 20.9123 2.98886 20.9309C3.00769 21.2679 3.19526 21.5727 3.48765 21.7413C3.63958 21.829 3.8119 21.8751 3.9873 21.8751L4.00571 21.8749C4.08706 21.8734 4.16792 21.862 4.2465 21.8409C4.50266 21.7722 4.72101 21.6045 4.85353 21.3748L7.71603 16.4123C7.80367 16.2603 7.8498 16.088 7.8498 15.9126C7.8498 15.894 7.84929 15.8754 7.84825 15.8568C7.82942 15.5198 7.64184 15.215 7.34946 15.0464C7.19753 14.9587 7.02521 14.9126 6.84981 14.9126C6.8312 14.9126 6.81259 14.9131 6.79401 14.9142C6.457 14.933 6.15224 15.1206 5.98358 15.4129Z" fill="#1C1C1C"/>
<path d="M28.7762 13.7428C28.7769 13.7419 28.7777 13.741 28.7777 13.741C28.9214 13.563 28.9998 13.3412 28.9998 13.1126L28.9998 13.1031C28.9995 13.0709 28.9976 13.0388 28.9942 13.0068C28.9662 12.743 28.8345 12.5013 28.6282 12.3346C28.4503 12.1909 28.2285 12.1125 27.9998 12.1125L27.9973 12.1126C27.696 12.1133 27.4112 12.2498 27.2219 12.4842C27.2211 12.4851 27.2204 12.486 27.2204 12.486C25.3609 14.7877 22.9801 16.1658 22.9801 16.1658C19.8115 18 15.9998 18 15.9998 18C12.1882 18 9.01955 16.1658 9.01955 16.1658C6.63825 14.7874 4.77844 12.4851 4.77844 12.4851C4.65369 12.3303 4.48564 12.2162 4.29574 12.1573C4.23378 12.1381 4.1701 12.125 4.1056 12.1182C4.07046 12.1144 4.03515 12.1125 3.99982 12.1125C3.9867 12.1125 3.97359 12.1128 3.96048 12.1133C3.74545 12.1218 3.53889 12.1994 3.37148 12.3346C3.13643 12.5245 2.99982 12.8104 2.99982 13.1125C2.99982 13.1289 3.00022 13.1452 3.00102 13.1616C3.0097 13.3385 3.06526 13.51 3.16199 13.6585C3.18054 13.687 3.20053 13.7145 3.22188 13.7409C5.31493 16.3323 8.01758 17.8968 8.01758 17.8968C11.6511 20 15.9998 20 15.9998 20C20.3486 20 23.982 17.8968 23.982 17.8968C26.6837 16.3329 28.7762 13.7428 28.7762 13.7428Z" fill="#1C1C1C"/>
</svg>
