<svg width="32" height="32" viewBox="0 0 32 32" fill="none" xmlns="http://www.w3.org/2000/svg">
<path d="M25 11.4142V16C25 16.5523 25.4477 17 26 17C26.5523 17 27 16.5523 27 16V11C27 10.7348 26.8946 10.4804 26.7071 10.2929L19.7071 3.29289C19.5196 3.10536 19.2652 3 19 3L7 3C6.17157 3 5.58579 3.58579 5.58579 3.58579C5 4.17157 5 5 5 5V16C5 16.5523 5.44772 17 6 17C6.55228 17 7 16.5523 7 16V5H18.5858L25 11.4142Z" fill="#1C1C1C"/>
<path d="M19 12H26C26.5523 12 27 11.5523 27 11C27 10.4477 26.5523 10 26 10H20V4C20 3.44772 19.5523 3 19 3C18.4477 3 18 3.44772 18 4V11C18 11.5523 18.4477 12 19 12Z" fill="#1C1C1C"/>
<path fill-rule="evenodd" clip-rule="evenodd" d="M5 27V21C5 20.4477 5.44772 20 6 20H8C8 20 9.24264 20 10.1213 20.8787C10.1213 20.8787 11 21.7574 11 23C11 23 11 24.2426 10.1213 25.1213C10.1213 25.1213 9.24264 26 8 26H7V27C7 27.5523 6.55228 28 6 28C5.44772 28 5 27.5523 5 27ZM8 24H7V22H8C8 22 8.41421 22 8.70711 22.2929C8.70711 22.2929 9 22.5858 9 23C9 23 9 23.4142 8.70711 23.7071C8.70711 23.7071 8.41421 24 8 24Z" fill="#1C1C1C"/>
<path d="M22.5 21V27C22.5 27.5523 22.9477 28 23.5 28C24.0523 28 24.5 27.5523 24.5 27V22H27C27.5523 22 28 21.5523 28 21C28 20.4477 27.5523 20 27 20H23.5C22.9477 20 22.5 20.4477 22.5 21Z" fill="#1C1C1C"/>
<path d="M26.5 23.5H23.5C22.9477 23.5 22.5 23.9477 22.5 24.5C22.5 25.0523 22.9477 25.5 23.5 25.5H26.5C27.0523 25.5 27.5 25.0523 27.5 24.5C27.5 23.9477 27.0523 23.5 26.5 23.5Z" fill="#1C1C1C"/>
<path fill-rule="evenodd" clip-rule="evenodd" d="M14.25 28C13.6977 28 13.25 27.5523 13.25 27V21C13.25 20.4477 13.6977 20 14.25 20H16C16 20 17.6569 20 18.8284 21.1716C18.8284 21.1716 20 22.3431 20 24C20 24 20 25.6569 18.8284 26.8284C18.8284 26.8284 17.6569 28 16 28H14.25ZM16 26H15.25V22H16C16 22 16.8284 22 17.4142 22.5858C17.4142 22.5858 18 23.1716 18 24C18 24 18 24.8284 17.4142 25.4142C17.4142 25.4142 16.8284 26 16 26Z" fill="#1C1C1C"/>
</svg>
