<svg width="32" height="32" viewBox="0 0 32 32" fill="none" xmlns="http://www.w3.org/2000/svg">
<path d="M8 17H24C24.5523 17 25 16.5523 25 16C25 15.4477 24.5523 15 24 15H8C7.44772 15 7 15.4477 7 16C7 16.5523 7.44772 17 8 17Z" fill="#1C1C1C"/>
<path d="M3 11H29C29.5523 11 30 10.5523 30 10C30 9.44772 29.5523 9 29 9H3C2.44772 9 2 9.44772 2 10C2 10.5523 2.44772 11 3 11Z" fill="#1C1C1C"/>
<path d="M13 23H19C19.5523 23 20 22.5523 20 22C20 21.4477 19.5523 21 19 21H13C12.4477 21 12 21.4477 12 22C12 22.5523 12.4477 23 13 23Z" fill="#1C1C1C"/>
</svg>
