<svg width="32" height="32" viewBox="0 0 32 32" fill="none" xmlns="http://www.w3.org/2000/svg">
<path fill-rule="evenodd" clip-rule="evenodd" d="M8.48619 6.11166L11.0679 13.0001H20.9317L23.5134 6.11166C23.5134 6.11166 23.6905 5.64938 24.0995 5.38367C24.0995 5.38367 24.5085 5.11795 24.9955 5.14359C24.9955 5.14359 25.4826 5.16922 25.8614 5.4764C25.8614 5.4764 26.2403 5.78358 26.366 6.25482L29.7909 19.0669L29.7967 19.0898C29.7967 19.0898 29.9425 19.6919 29.7265 20.2725C29.7265 20.2725 29.5104 20.8532 29.0065 21.2135L17.1438 29.4224C17.1438 29.4224 16.6267 29.7792 15.9998 29.7792C15.9998 29.7792 15.3729 29.7792 14.8569 29.4232L3.00577 21.2224C3.00577 21.2224 2.48918 20.8532 2.27313 20.2725C2.27313 20.2725 2.05708 19.6919 2.20288 19.0898L2.20872 19.0669L5.63372 6.25437C5.63372 6.25437 5.75933 5.78358 6.13817 5.4764C6.13817 5.4764 6.517 5.16922 7.00406 5.14359C7.00406 5.14359 7.49111 5.11795 7.9001 5.38367C7.9001 5.38367 8.30909 5.64938 8.4836 6.10482L8.48619 6.11166ZM4.14613 19.5637L7.16269 8.27914L9.4384 14.3511C9.58472 14.7415 9.95788 15.0001 10.3748 15.0001H21.6248C22.0417 15.0001 22.4149 14.7415 22.5612 14.3511L24.8369 8.27914L27.8535 19.5637C27.8535 19.5637 27.8541 19.5695 27.852 19.5751C27.852 19.5751 27.8493 19.5822 27.8431 19.5867L16.0058 27.7778L16.0034 27.7788L15.9998 27.7792C15.9998 27.7792 15.9959 27.7792 15.9927 27.777L4.14384 19.5778L4.14799 19.5793C4.14799 19.5793 4.14889 19.5786 4.14757 19.5751C4.14757 19.5751 4.14548 19.5695 4.14613 19.5637Z" fill="#1C1C1C"/>
<path d="M22.3179 15H27.3998C27.9521 15 28.3998 14.5523 28.3998 14C28.3998 13.4477 27.9521 13 27.3998 13H21.6248C21.2079 13 20.8347 13.2587 20.6884 13.649L15.1509 28.424C15.1088 28.5363 15.0873 28.6551 15.0873 28.775L15.0874 28.7934C15.095 29.2035 15.3522 29.5674 15.7363 29.7114C15.8486 29.7535 15.9674 29.775 16.0873 29.775L16.1057 29.7748C16.5158 29.7673 16.8797 29.5101 17.0237 29.1259L22.3179 15Z" fill="#1C1C1C"/>
<path d="M9.68159 15L14.9758 29.1259C15.1222 29.5163 15.4953 29.775 15.9122 29.775L15.9186 29.775C16.0363 29.7742 16.153 29.7527 16.2632 29.7114C16.6536 29.5651 16.9122 29.1919 16.9122 28.775L16.9122 28.7686C16.9115 28.6509 16.8899 28.5343 16.8486 28.424L11.3111 13.649C11.1648 13.2587 10.7916 13 10.3747 13H4.59973C4.04745 13 3.59973 13.4477 3.59973 14C3.59973 14.5523 4.04745 15 4.59973 15H9.68159Z" fill="#1C1C1C"/>
</svg>
