<svg width="32" height="32" viewBox="0 0 32 32" fill="none" xmlns="http://www.w3.org/2000/svg">
<path fill-rule="evenodd" clip-rule="evenodd" d="M15.9999 2C15.9999 2 18.0338 2 19.8927 2.78626C19.8927 2.78626 21.6874 3.54538 23.071 4.92893C23.071 4.92893 24.4545 6.31249 25.2137 8.10724C25.2137 8.10724 25.9999 9.96617 25.9999 12C25.9999 12 25.9999 14.0338 25.2137 15.8928C25.2137 15.8928 24.4545 17.6875 23.071 19.0711C23.071 19.0711 21.6874 20.4546 19.8927 21.2137C19.8927 21.2137 18.0338 22 15.9999 22C15.9999 22 13.9661 22 12.1072 21.2137C12.1072 21.2137 10.3124 20.4546 8.92886 19.0711C8.92886 19.0711 7.5453 17.6875 6.78618 15.8928C6.78618 15.8928 5.99992 14.0338 5.99992 12C5.99992 12 5.99992 9.96617 6.78618 8.10724C6.78618 8.10724 7.5453 6.31249 8.92886 4.92893C8.92886 4.92893 10.3124 3.54538 12.1072 2.78626C12.1072 2.78626 13.9661 2 15.9999 2ZM15.9999 4C15.9999 4 12.6862 4 10.3431 6.34315C10.3431 6.34315 7.99992 8.68629 7.99992 12C7.99992 12 7.99992 15.3137 10.3431 17.6569C10.3431 17.6569 12.6862 20 15.9999 20C15.9999 20 19.3136 20 21.6568 17.6569C21.6568 17.6569 23.9999 15.3137 23.9999 12C23.9999 12 23.9999 8.68629 21.6568 6.34315C21.6568 6.34315 19.3136 4 15.9999 4Z" fill="#1C1C1C"/>
<path d="M4.91976 7.41044C5.83267 5.20646 7.51953 3.51961 7.51953 3.51961C7.70707 3.33207 7.81242 3.07772 7.81242 2.8125C7.81242 2.54728 7.70707 2.29293 7.51953 2.10539C7.33199 1.91786 7.07764 1.8125 6.81242 1.8125C6.79517 1.8125 6.77791 1.81295 6.76068 1.81384C6.51369 1.82664 6.2802 1.93051 6.10532 2.10539C4.13716 4.07355 3.072 6.64508 3.072 6.64508C2.00684 9.2166 2.00684 12 2.00684 12C2.00684 14.7834 3.072 17.3549 3.072 17.3549C4.13716 19.9264 6.10532 21.8946 6.10532 21.8946C8.07348 23.8628 10.645 24.9279 10.645 24.9279C13.2165 25.9931 15.9999 25.9931 15.9999 25.9931C18.7833 25.9931 21.3548 24.9279 21.3548 24.9279C23.9264 23.8628 25.8945 21.8946 25.8945 21.8946C26.0821 21.7071 26.1874 21.4527 26.1874 21.1875C26.1874 20.9223 26.0821 20.6679 25.8945 20.4804C25.707 20.2929 25.4526 20.1875 25.1874 20.1875C24.9222 20.1875 24.6679 20.2929 24.4803 20.4804C22.7935 22.1673 20.5895 23.0802 20.5895 23.0802C18.3855 23.9931 15.9999 23.9931 15.9999 23.9931C13.6144 23.9931 11.4104 23.0802 11.4104 23.0802C9.20639 22.1673 7.51953 20.4804 7.51953 20.4804C5.83267 18.7935 4.91976 16.5896 4.91976 16.5896C4.00684 14.3856 4.00684 12 4.00684 12C4.00684 9.61443 4.91976 7.41044 4.91976 7.41044Z" fill="#1C1C1C"/>
<path d="M11.9999 30H19.9999C20.5522 30 20.9999 29.5523 20.9999 29C20.9999 28.4477 20.5522 28 19.9999 28H11.9999C11.4476 28 10.9999 28.4477 10.9999 29C10.9999 29.5523 11.4476 30 11.9999 30Z" fill="#1C1C1C"/>
<path d="M14.9999 25V29C14.9999 29.5523 15.4476 30 15.9999 30C16.5522 30 16.9999 29.5523 16.9999 29V25C16.9999 24.4477 16.5522 24 15.9999 24C15.4476 24 14.9999 24.4477 14.9999 25Z" fill="#1C1C1C"/>
</svg>
