<svg width="32" height="32" viewBox="0 0 32 32" fill="none" xmlns="http://www.w3.org/2000/svg">
<path fill-rule="evenodd" clip-rule="evenodd" d="M3.97514 3.97873C3.97514 3.97873 3.97979 3.44128 4.25323 2.97856C4.25323 2.97856 4.52667 2.51584 4.99522 2.25253C4.99522 2.25253 5.46377 1.98921 6.0012 1.99623C6.0012 1.99623 6.53863 2.00326 6.98457 2.26963L27.948 14.2755C27.948 14.2755 28.4173 14.5301 28.693 14.9888C28.693 14.9888 28.9735 15.4555 28.9735 15.9999C28.9735 15.9999 28.9735 16.5443 28.693 17.011C28.693 17.011 28.4173 17.4697 27.948 17.7243L7.00014 29.7211C7.00014 29.7211 6.53863 29.9965 6.0012 30.0036C6.0012 30.0036 5.46377 30.0106 4.99522 29.7473C4.99522 29.7473 4.52667 29.4839 4.25323 29.0212C4.25323 29.0212 3.97979 28.5585 3.9751 28.0124V3.9874L3.97514 3.97873ZM26.9346 15.9999L5.9751 28.0037V3.99608L5.99062 4.00516L26.9346 15.9999Z" fill="#1C1C1C"/>
<path d="M4.56816 3.98208L21.2805 20.6945C21.4681 20.882 21.7224 20.9874 21.9876 20.9874C22.2529 20.9874 22.5072 20.882 22.6948 20.6945C22.8823 20.5069 22.9876 20.2526 22.9876 19.9874C22.9876 19.7221 22.8823 19.4678 22.6948 19.2803L5.98237 2.56787C5.79472 2.38021 5.54036 2.27486 5.27515 2.27486C5.00993 2.27486 4.75558 2.38021 4.56804 2.56775C4.3805 2.75529 4.27515 3.00964 4.27515 3.27486C4.27515 3.54007 4.3805 3.79443 4.56816 3.98208Z" fill="#1C1C1C"/>
<path d="M5.98225 29.432L22.6948 12.7195C22.8823 12.532 22.9876 12.2776 22.9876 12.0124C22.9876 11.7472 22.8823 11.4928 22.6948 11.3053C22.5072 11.1178 22.2529 11.0124 21.9876 11.0124C21.7224 11.0124 21.4681 11.1178 21.2805 11.3053L4.56804 28.0178C4.3805 28.2053 4.27515 28.4597 4.27515 28.7249C4.27515 28.9901 4.3805 29.2445 4.56804 29.432C4.75558 29.6196 5.00993 29.7249 5.27515 29.7249C5.54036 29.7249 5.79472 29.6196 5.98225 29.432Z" fill="#1C1C1C"/>
</svg>
