<svg width="32" height="32" viewBox="0 0 32 32" fill="none" xmlns="http://www.w3.org/2000/svg">
<path d="M18.9586 12.1619L18.9591 12.1629C19.0919 12.3925 19.3104 12.56 19.5666 12.6285C19.6509 12.651 19.7377 12.6624 19.8249 12.6624C19.8356 12.6624 19.8463 12.6623 19.8569 12.6619C20.0217 12.6567 20.1826 12.6107 20.3254 12.5282C20.6345 12.3495 20.8249 12.0195 20.8249 11.6625C20.8249 11.6468 20.8246 11.6312 20.8238 11.6156C20.8163 11.4559 20.7707 11.3004 20.6907 11.162L16.9407 4.6745C16.9337 4.66234 16.9264 4.65033 16.9188 4.63847C16.1642 3.45131 14.7978 3.11663 14.7978 3.11663C13.4315 2.78196 12.2136 3.48595 12.2136 3.48595C10.9957 4.18994 10.6037 5.54096 10.6037 5.54096C10.2119 6.89167 10.8635 8.13788 10.8635 8.13788C10.9866 8.37308 11.198 8.55002 11.4511 8.62927C11.5478 8.65954 11.6486 8.67495 11.7499 8.67495C11.7631 8.67495 11.7763 8.67469 11.7895 8.67417C11.9374 8.66831 12.0822 8.62967 12.2134 8.56103C12.5432 8.38852 12.7499 8.04713 12.7499 7.67495L12.7499 7.67018C12.7491 7.51036 12.7101 7.35304 12.636 7.21142C12.3565 6.67722 12.5245 6.09821 12.5245 6.09821C12.6925 5.51919 13.2145 5.21748 13.2145 5.21748C13.7364 4.91577 14.322 5.05921 14.322 5.05921C14.8985 5.20041 15.2209 5.69571 15.2209 5.69571L18.9586 12.1619Z" fill="#1C1C1C"/>
<path d="M14.1335 13.7994C14.3121 14.1088 14.6426 14.3 14.9999 14.3C15.0153 14.3 15.0308 14.2997 15.0462 14.2989C15.2059 14.2915 15.3614 14.246 15.4998 14.1661C15.8093 13.9875 15.9999 13.6573 15.9999 13.3C15.9999 13.2846 15.9995 13.2691 15.9988 13.2537C15.9914 13.0941 15.9459 12.9385 15.866 12.8001L11.616 5.43759C11.6088 5.42525 11.6015 5.41307 11.5938 5.40105C10.8391 4.21388 9.4728 3.87921 9.4728 3.87921C8.10646 3.54453 6.88856 4.24852 6.88856 4.24852C5.67065 4.95251 5.27871 6.30354 5.27871 6.30354C4.88676 7.65456 5.53882 8.90105 5.53882 8.90105C5.54528 8.9134 5.552 8.92562 5.55898 8.93769L7.55898 12.4002C7.73764 12.7095 8.06771 12.9 8.4249 12.9C8.44044 12.9 8.45597 12.8997 8.47148 12.8989C8.63114 12.8915 8.78668 12.8459 8.92508 12.7659C9.23438 12.5873 9.4249 12.2572 9.4249 11.9C9.4249 11.8845 9.42454 11.869 9.42382 11.8534C9.41637 11.6938 9.37077 11.5382 9.29083 11.3998L7.30248 7.95751C7.03412 7.43086 7.19951 6.86078 7.19951 6.86078C7.36749 6.28177 7.88945 5.98006 7.88945 5.98006C8.41141 5.67835 8.99698 5.82178 8.99698 5.82178C9.57333 5.96295 9.89573 6.45806 9.89573 6.45806L14.1335 13.7994Z" fill="#1C1C1C"/>
<path d="M7.55898 12.4002L10.3089 17.1625C10.4876 17.4719 10.8177 17.6625 11.1749 17.6625C11.1904 17.6625 11.2059 17.6621 11.2214 17.6614C11.381 17.654 11.5366 17.6084 11.675 17.5285C11.9844 17.3498 12.1749 17.0197 12.1749 16.6625C12.1749 16.647 12.1746 16.6315 12.1739 16.616C12.1664 16.4564 12.1209 16.3008 12.0409 16.1624L9.29083 11.3998C8.56662 10.1433 7.16537 9.76681 7.16537 9.76681C5.76402 9.39021 4.50682 10.1148 4.50682 10.1148C3.24963 10.8394 2.87303 12.2408 2.87303 12.2408C2.69218 12.9137 2.78263 13.6047 2.78263 13.6047C2.87307 14.2956 3.22104 14.8993 3.22104 14.8993L8.47125 23.9997C9.56535 25.8952 11.3014 27.2276 11.3014 27.2276C13.0374 28.5601 15.1512 29.1267 15.1512 29.1267C17.265 29.6933 19.4348 29.4079 19.4348 29.4079C21.6045 29.1225 23.4998 28.0285 23.4998 28.0285C25.3952 26.9345 26.7276 25.1985 26.7276 25.1985C28.06 23.4625 28.6267 21.3487 28.6267 21.3487C29.1933 19.2349 28.9079 17.0651 28.9079 17.0651C28.6225 14.8954 27.5285 13.0001 27.5285 13.0001L25.0288 8.6631C24.3042 7.40591 22.9029 7.02931 22.9029 7.02931C21.5015 6.65271 20.2443 7.37732 20.2443 7.37732C18.9871 8.10193 18.6105 9.50328 18.6105 9.50328C18.2339 10.9046 18.9586 12.1619 18.9586 12.1619L19.7514 13.5413C19.2323 13.9693 18.8148 14.5132 18.8148 14.5132C18.0879 15.4598 17.7796 16.6128 17.7796 16.6128C17.4713 17.7658 17.6287 18.9489 17.6287 18.9489C17.786 20.132 18.385 21.1643 18.385 21.1643C18.5639 21.4727 18.8934 21.6625 19.2499 21.6625C19.2661 21.6625 19.2823 21.6621 19.2984 21.6613C19.4581 21.6535 19.6135 21.6076 19.7518 21.5274C20.0601 21.3485 20.2499 21.019 20.2499 20.6625C20.2499 20.6463 20.2495 20.6301 20.2488 20.614C20.241 20.4543 20.1951 20.2989 20.1149 20.1606L20.1141 20.1592C19.7159 19.4723 19.6112 18.6852 19.6112 18.6852C19.5064 17.8973 19.7118 17.1295 19.7118 17.1295C19.9171 16.3616 20.4011 15.7311 20.4011 15.7311C20.8852 15.1007 21.574 14.704 21.574 14.704C22.0523 14.4286 22.217 13.8177 21.9419 13.3392L20.6913 11.1631C20.3804 10.6237 20.542 10.0223 20.542 10.0223C20.7036 9.42103 21.243 9.11011 21.243 9.11011C21.7825 8.79918 22.3838 8.96078 22.3838 8.96078C22.9851 9.12237 23.296 9.66183 23.296 9.66183L25.7964 13.9999C26.6915 15.5507 26.925 17.326 26.925 17.326C27.1585 19.1013 26.6949 20.8308 26.6949 20.8308C26.2313 22.5603 25.141 23.9808 25.141 23.9808C24.0508 25.4013 22.5 26.2964 22.5 26.2964C20.9492 27.1915 19.1739 27.425 19.1739 27.425C17.3986 27.6585 15.6691 27.1949 15.6691 27.1949C13.9396 26.7313 12.5191 25.6411 12.5191 25.6411C11.0986 24.5509 10.2036 23.0002 10.2036 23.0002L4.95383 13.9006C4.80452 13.6415 4.76571 13.3451 4.76571 13.3451C4.7269 13.0486 4.8045 12.7598 4.8045 12.7598C4.96609 12.1585 5.50555 11.8476 5.50555 11.8476C6.045 11.5367 6.64631 11.6983 6.64631 11.6983C7.24762 11.8599 7.55898 12.4002 7.55898 12.4002Z" fill="#1C1C1C"/>
<path d="M10.7052 29.1768C8.31206 27.5262 6.86777 25.0032 6.86777 25.0032C6.68963 24.692 6.35849 24.5 5.99991 24.5C5.98567 24.5 5.97144 24.5003 5.95721 24.5009C5.79753 24.5077 5.64181 24.5527 5.50311 24.6321C5.19191 24.8103 4.99991 25.1414 4.99991 25.5C4.99991 25.5142 5.00021 25.5285 5.00082 25.5427C5.00765 25.7024 5.05264 25.8581 5.13205 25.9968C6.80222 28.9144 9.56964 30.8232 9.56964 30.8232C9.73659 30.9383 9.9346 31 10.1374 31C10.1635 31 10.1895 30.999 10.2155 30.997C10.5158 30.9734 10.7895 30.8158 10.9606 30.5678C11.0757 30.4008 11.1374 30.2028 11.1374 30C11.1374 29.974 11.1364 29.9479 11.1344 29.9219C11.1108 29.6216 10.9532 29.3479 10.7052 29.1768Z" fill="#1C1C1C"/>
<path d="M22.0027 4.87503C23.4752 4.87105 24.7502 5.60772 24.7502 5.60772C26.0252 6.3444 26.7572 7.62213 26.7572 7.62213C26.9354 7.93316 27.2665 8.12503 27.6249 8.12503C27.6393 8.12503 27.6536 8.12472 27.6679 8.1241C27.8276 8.11723 27.9833 8.07218 28.122 7.99273C28.433 7.81454 28.6249 7.48349 28.6249 7.12503C28.6249 7.11068 28.6246 7.09633 28.624 7.082C28.6171 6.92232 28.5721 6.76662 28.4926 6.62794C27.4926 4.88239 25.7507 3.87599 25.7507 3.87599C24.0091 2.86971 21.9977 2.87503 21.9977 2.87503L21.9999 2.87503C22.5522 2.87503 22.9999 3.32275 22.9999 3.87503C22.9999 4.42624 22.5539 4.8735 22.0027 4.87503Z" fill="#1C1C1C"/>
</svg>
