<svg width="32" height="32" viewBox="0 0 32 32" fill="none" xmlns="http://www.w3.org/2000/svg">
<path fill-rule="evenodd" clip-rule="evenodd" d="M31.1585 15.6329C31.1585 15.6329 30.8959 15.9389 30.5353 16.1192L30.5338 16.1199L27.4457 17.6577C26.9582 17.9005 26.3661 17.7085 26.1137 17.2259L22.1137 9.57591L22.1055 9.55977C21.8585 9.06579 22.0587 8.46512 22.5527 8.21813L25.6708 6.65912C25.6708 6.65912 26.4005 6.28716 27.1804 6.53732C27.1804 6.53732 27.9603 6.78748 28.3363 7.5121L31.4088 13.3949C31.4088 13.3949 31.5978 13.752 31.6333 14.1545C31.6333 14.1545 31.6688 14.557 31.5452 14.9417C31.5452 14.9417 31.4217 15.3264 31.1585 15.6329ZM29.641 14.3302L26.568 8.44652L24.3579 9.55158L27.4318 15.4304L29.641 14.3302Z" fill="#1C1C1C"/>
<path fill-rule="evenodd" clip-rule="evenodd" d="M9.88643 9.43774L5.88643 17.1002C5.63371 17.5844 5.03935 17.7762 4.55129 17.5312L1.46379 15.9812C1.46379 15.9812 1.10979 15.8077 0.845307 15.5027C0.845307 15.5027 0.58082 15.1976 0.456342 14.8135C0.456342 14.8135 0.331865 14.4294 0.367133 14.0271C0.367133 14.0271 0.4024 13.6249 0.591822 13.2683L3.66357 7.38702C3.66357 7.38702 4.03803 6.66725 4.80999 6.41236C4.80999 6.41236 5.58195 6.15746 6.31283 6.51344L9.44716 8.08055C9.94114 8.32754 10.1414 8.92821 9.89438 9.42219L9.88643 9.43774ZM5.43707 8.31151L7.64256 9.41429L4.56896 15.3022L2.36402 14.1952L5.43633 8.31293L5.43707 8.31151Z" fill="#1C1C1C"/>
<path d="M5.61541 15.8493L12.4528 21.1867L12.4678 21.1986L19.6673 22.9985C19.6792 22.9999 19.6909 22.9966 19.6909 22.9966C19.7025 22.9934 19.7119 22.9863 19.7119 22.9863L24.2644 18.4337L26.2384 16.1143C26.4103 15.9124 26.6554 15.7869 26.9197 15.7657C26.9464 15.7635 26.9732 15.7625 26.9999 15.7625C27.2374 15.7625 27.4672 15.847 27.6481 16.0009C27.85 16.1728 27.9754 16.4179 27.9967 16.6823C27.9988 16.7083 27.9999 16.7344 27.9999 16.7605L27.9999 16.7625C27.9999 17 27.9154 17.2297 27.7615 17.4106L25.7615 19.7606C25.7441 19.781 25.726 19.8006 25.707 19.8196L21.107 24.4196C21.0991 24.4275 21.0911 24.4352 21.083 24.4429C20.7125 24.7893 20.2236 24.9244 20.2236 24.9244C19.7346 25.0595 19.2388 24.9524 19.2388 24.9524C19.2283 24.9501 19.2178 24.9477 19.2074 24.9451L11.9574 23.1326L11.9314 23.1257C11.5298 23.0138 11.2221 22.7632 11.2221 22.7632L4.38474 17.4258C4.14184 17.2362 3.99994 16.9454 3.99994 16.6375C3.99994 16.4431 4.05658 16.2529 4.16294 16.0902C4.17823 16.0669 4.19449 16.0441 4.21167 16.0221C4.40118 15.7794 4.69197 15.6375 4.99994 15.6375C5.19431 15.6375 5.38446 15.6941 5.54715 15.8005C5.57053 15.8157 5.59326 15.832 5.61541 15.8493Z" fill="#1C1C1C"/>
<path d="M17.9141 10.1126H22.9999C23.5522 10.1126 23.9999 9.66485 23.9999 9.11257C23.9999 8.56028 23.5522 8.11257 22.9999 8.11257H17.9124C17.5201 8.11119 17.1539 8.26158 17.1539 8.26158C16.7877 8.41198 16.5071 8.69121 16.5071 8.69121L11.6062 13.5796C11.2944 13.8995 11.1465 14.3058 11.1465 14.3058C10.9987 14.7121 11.0307 15.1433 11.0307 15.1433C11.0628 15.5745 11.2692 15.9545 11.2692 15.9545C11.4755 16.3344 11.8197 16.5961 11.8197 16.5961L12.4952 17.109C13.8356 18.1095 15.4999 18.1095 15.4999 18.1095C17.1642 18.1095 18.498 17.114 18.498 17.114L19.5091 16.3557L24.4115 19.9211C24.5827 20.0456 24.7886 20.1126 24.9999 20.1126C25.0176 20.1126 25.0353 20.1121 25.053 20.1112C25.3539 20.0952 25.6315 19.9444 25.8087 19.7007C25.933 19.5298 25.9999 19.3239 25.9999 19.1126C25.9999 19.0949 25.9994 19.0771 25.9985 19.0595C25.9825 18.7586 25.8317 18.481 25.5881 18.3038L20.0881 14.3038C19.733 14.0456 19.2511 14.0492 18.8999 14.3126L17.3018 15.5112C16.5002 16.1095 15.4999 16.1095 15.4999 16.1095C14.4997 16.1095 13.7046 15.5161 13.7046 15.5161L13.0301 15.004C13.028 15.0024 13.0267 15 13.0267 15C13.0254 14.9977 13.0252 14.995 13.0252 14.995C13.025 14.9923 13.026 14.9898 13.026 14.9898C13.0254 14.9894 13.0203 14.9939 13.0203 14.9939L17.9141 10.1126Z" fill="#1C1C1C"/>
<path d="M20.0867 10.0232C20.2165 10.0821 20.3574 10.1126 20.5 10.1126C20.517 10.1126 20.5341 10.1121 20.5512 10.1113C20.9246 10.0921 21.2561 9.86625 21.4106 9.52577C21.4695 9.39598 21.5 9.25509 21.5 9.11256L21.4998 9.09612C21.4979 8.98153 21.4764 8.86811 21.4361 8.76083C21.3428 8.51256 21.1547 8.31152 20.9132 8.20193L16.5882 6.23943C15.9176 5.93639 15.2118 6.13881 15.2118 6.13881L8.7945 8.01519C8.53975 8.08968 8.32518 8.26219 8.19781 8.49482C8.1172 8.64205 8.07495 8.80721 8.07495 8.97506L8.07508 8.99099C8.07651 9.08063 8.08998 9.16967 8.11514 9.25571C8.2398 9.68205 8.63076 9.97506 9.07495 9.97506L9.08066 9.97505C9.17373 9.97452 9.26627 9.96099 9.3556 9.93487L15.7631 8.06132L20.0867 10.0232Z" fill="#1C1C1C"/>
<path d="M7.65512 22.2445C7.47328 22.0868 7.24065 22 6.99994 22C6.97628 22 6.95263 22.0008 6.92903 22.0025C6.66448 22.0213 6.41824 22.1445 6.24447 22.3448C6.08676 22.5267 5.99994 22.7593 5.99994 23C5.99994 23.0237 6.00078 23.0473 6.00246 23.0709C6.02126 23.3355 6.14439 23.5817 6.34475 23.7555L9.16975 26.2055C9.5253 26.5233 10.0029 26.6347 10.0029 26.6347L13.7551 27.5821C13.8352 27.6023 13.9174 27.6125 13.9999 27.6125C14.0104 27.6125 14.0209 27.6123 14.0314 27.612C14.4775 27.598 14.8602 27.29 14.9695 26.8573C14.9897 26.7773 14.9999 26.6951 14.9999 26.6125C14.9999 26.5972 14.9996 26.5818 14.9989 26.5665C14.9913 26.4018 14.9431 26.2416 14.8586 26.1C14.7227 25.8723 14.5019 25.7079 14.2447 25.6429L10.4822 24.6929L10.4767 24.6915L7.65512 22.2445Z" fill="#1C1C1C"/>
</svg>
