<svg width="32" height="32" viewBox="0 0 32 32" fill="none" xmlns="http://www.w3.org/2000/svg">
<path d="M15.674 13.1229C15.3041 14.3573 15.8807 15.5098 15.8807 15.5098C15.9993 15.747 16.2073 15.9274 16.459 16.0112C16.5609 16.0451 16.6676 16.0624 16.775 16.0624L16.7964 16.0622C16.9445 16.059 17.09 16.023 17.2224 15.9568C17.5611 15.7874 17.775 15.4412 17.775 15.0624C17.775 15.0501 17.7748 15.0378 17.7743 15.0255C17.769 14.8827 17.7332 14.7428 17.6693 14.6151C17.448 14.1721 17.5899 13.697 17.5899 13.697C17.7321 13.2223 18.1611 12.974 18.1611 12.974C18.5901 12.7257 19.0726 12.8388 19.0726 12.8388C19.5419 12.9489 19.8138 13.3425 19.8138 13.3425L21.9211 16.9992C23.535 19.8576 22.668 23.0326 22.668 23.0326C21.801 26.2075 18.9507 27.8532 18.9507 27.8532C16.1005 29.4989 12.9173 28.6625 12.9173 28.6625C9.73415 27.826 8.06117 24.9916 8.06117 24.9916L3.44107 16.9875C3.31681 16.7721 3.2844 16.5254 3.2844 16.5254C3.252 16.2786 3.31649 16.0382 3.31649 16.0382C3.38098 15.7978 3.53256 15.6004 3.53256 15.6004C3.68414 15.403 3.89972 15.2786 3.89972 15.2786C4.11531 15.1543 4.36208 15.1219 4.36208 15.1219C4.60885 15.0894 4.84923 15.1539 4.84923 15.1539C5.08962 15.2184 5.28703 15.37 5.28703 15.37C5.48444 15.5216 5.60881 15.7372 5.60881 15.7372C5.78741 16.0467 6.11762 16.2374 6.475 16.2374C6.49036 16.2374 6.50572 16.2371 6.52106 16.2364C6.68072 16.229 6.83628 16.1835 6.97472 16.1036C7.20445 15.9711 7.37212 15.7527 7.44084 15.4966C7.46352 15.4121 7.475 15.3249 7.475 15.2374L7.47451 15.2062C7.46937 15.0415 7.42357 14.8805 7.34119 14.7377C7.01801 14.1776 6.50506 13.7837 6.50506 13.7837C5.99212 13.3898 5.36749 13.2223 5.36749 13.2223C4.74287 13.0547 4.10166 13.1389 4.10166 13.1389C3.46045 13.2231 2.90028 13.5463 2.90028 13.5463C2.3401 13.8694 1.94625 14.3824 1.94625 14.3824C1.55239 14.8953 1.3848 15.52 1.3848 15.52C1.21722 16.1446 1.30143 16.7858 1.30143 16.7858C1.38564 17.427 1.70893 17.9874 1.70893 17.9874L6.33883 26.0083C7.34358 27.7105 8.92042 28.9025 8.92042 28.9025C10.4973 30.0944 12.409 30.5968 12.409 30.5968C14.3208 31.0992 16.2799 30.8364 16.2799 30.8364C18.239 30.5736 19.9508 29.5853 19.9508 29.5853C21.6626 28.5969 22.8696 27.0316 22.8696 27.0316C24.0767 25.4662 24.5974 23.5594 24.5974 23.5594C25.1181 21.6526 24.8741 19.691 24.8741 19.691C24.6302 17.7295 23.6539 16.0006 23.6539 16.0006L21.5289 12.3131C21.5185 12.295 21.5075 12.2773 21.4959 12.2598C20.7838 11.1858 19.5292 10.8917 19.5292 10.8917C18.2746 10.5975 17.1593 11.243 17.1593 11.243C16.0439 11.8885 15.674 13.1229 15.674 13.1229Z" fill="#1C1C1C"/>
<path d="M8.6088 20.9372C8.74143 21.1669 8.96013 21.3349 9.21632 21.4035C9.3007 21.4261 9.38767 21.4375 9.47503 21.4375C9.48557 21.4375 9.49612 21.4374 9.50666 21.437C9.67144 21.4318 9.83237 21.386 9.97513 21.3035C10.2845 21.1249 10.475 20.7948 10.475 20.4376C10.475 20.422 10.4747 20.4065 10.4739 20.391C10.4665 20.2314 10.4209 20.0759 10.341 19.9374L5.59099 11.7124C5.46684 11.4972 5.43443 11.2505 5.43443 11.2505C5.40202 11.0037 5.46651 10.7633 5.46651 10.7633C5.53101 10.5229 5.68259 10.3255 5.68259 10.3255C5.83416 10.1281 6.04975 10.0037 6.04975 10.0037C6.26533 9.87936 6.5121 9.84695 6.5121 9.84695C6.75887 9.81454 6.99926 9.87904 6.99926 9.87904C7.23965 9.94353 7.43706 10.0951 7.43706 10.0951C7.63446 10.2467 7.75884 10.4623 7.75884 10.4623L12.5091 18.6876C12.6877 18.997 13.0178 19.1875 13.375 19.1875C13.3905 19.1875 13.406 19.1872 13.4215 19.1865C13.5812 19.179 13.7367 19.1334 13.8751 19.0535C14.1845 18.8749 14.375 18.5448 14.375 18.1876C14.375 18.172 14.3747 18.1565 14.3739 18.141C14.3665 17.9814 14.3209 17.8259 14.241 17.6874L9.49121 9.46282C9.16803 8.90265 8.65509 8.50879 8.65509 8.50879C8.14214 8.11493 7.51752 7.94735 7.51752 7.94735C6.89289 7.77977 6.25168 7.86398 6.25168 7.86398C5.61048 7.94818 5.0503 8.27136 5.0503 8.27136C4.49013 8.59454 4.09627 9.10749 4.09627 9.10749C3.70241 9.62043 3.53483 10.2451 3.53483 10.2451C3.36725 10.8697 3.45145 11.5109 3.45145 11.5109C3.53566 12.1521 3.85906 12.7127 3.85906 12.7127L8.6088 20.9372Z" fill="#1C1C1C"/>
<path d="M8.43479 9.71997C8.08582 11.0207 8.7588 12.1872 8.7588 12.1872C8.89134 12.4169 9.1097 12.5846 9.36586 12.6533C9.45037 12.676 9.53749 12.6875 9.62499 12.6875L9.65619 12.687C9.82096 12.6818 9.98191 12.636 10.1247 12.5536C10.4343 12.3751 10.625 12.0448 10.625 11.6875C10.625 11.6721 10.6246 11.6567 10.6239 11.6414C10.6166 11.4817 10.571 11.3262 10.4912 11.1877C10.2322 10.7388 10.3665 10.2382 10.3665 10.2382C10.5008 9.73765 10.9497 9.47865 10.9497 9.47865C11.3986 9.21965 11.8992 9.35395 11.8992 9.35395C12.3998 9.48825 12.6588 9.93718 12.6588 9.93718L17.9084 19.0365C18.087 19.346 18.4176 19.5375 18.775 19.5375C18.7903 19.5375 18.8057 19.5371 18.821 19.5364C18.9807 19.529 19.1363 19.4835 19.2747 19.4036C19.5843 19.2251 19.775 18.8948 19.775 18.5375C19.775 18.5221 19.7746 18.5067 19.7739 18.4914C19.7666 18.3317 19.721 18.1762 19.6412 18.0377L14.3912 8.93774C13.7182 7.77124 12.4175 7.42227 12.4175 7.42227C11.1168 7.07329 9.95026 7.74628 9.95026 7.74628C8.78376 8.41926 8.43479 9.71997 8.43479 9.71997Z" fill="#1C1C1C"/>
<path d="M6.62429 9.49243C6.80369 9.79891 7.13236 9.98756 7.48748 9.98756L7.48913 9.98756C7.66614 9.98727 7.8399 9.94 7.99266 9.85057C8.22155 9.71659 8.38784 9.49717 8.45494 9.24059C8.47655 9.15798 8.48748 9.07294 8.48748 8.98756C8.48748 8.97505 8.48725 8.96255 8.48678 8.95005C8.4806 8.78531 8.43378 8.62465 8.3505 8.48238L8.0505 7.96988C7.79467 7.52641 7.92897 7.02583 7.92897 7.02583C8.06328 6.52524 8.51221 6.26625 8.51221 6.26625C8.96114 6.00725 9.46172 6.14155 9.46172 6.14155C9.9623 6.27585 10.2213 6.72478 10.2213 6.72478L11.5082 8.9613C11.6867 9.27141 12.0172 9.46256 12.375 9.46256C12.39 9.46256 12.405 9.46222 12.4199 9.46155C12.5796 9.45437 12.7352 9.40902 12.8737 9.32931C13.1838 9.15087 13.375 8.82034 13.375 8.46256C13.375 8.44758 13.3746 8.43259 13.374 8.41763C13.3668 8.25796 13.3214 8.10234 13.2417 7.96381L11.9537 5.72534C11.2807 4.55883 9.97998 4.20986 9.97998 4.20986C8.67927 3.86089 7.51276 4.53387 7.51276 4.53387C6.34626 5.20686 5.99729 6.50757 5.99729 6.50757C5.64832 7.80828 6.32447 8.98024 6.32447 8.98024L6.62429 9.49243Z" fill="#1C1C1C"/>
<path d="M17.964 10.6359C18.0482 11.2771 18.3714 11.8373 18.3714 11.8373C18.5499 12.1468 18.8802 12.3375 19.2375 12.3375C19.2529 12.3375 19.2683 12.3372 19.2836 12.3365C19.4433 12.3291 19.5988 12.2836 19.7373 12.2037C19.967 12.0712 20.1347 11.8528 20.2034 11.5967C20.2261 11.5122 20.2375 11.425 20.2375 11.3375L20.237 11.3063C20.2319 11.1416 20.1861 10.9806 20.1037 10.8378C19.9793 10.6222 19.9469 10.3755 19.9469 10.3755C19.9145 10.1287 19.979 9.88831 19.979 9.88831C20.0435 9.64792 20.1951 9.45052 20.1951 9.45052C20.3467 9.25311 20.5623 9.12873 20.5623 9.12873C20.7778 9.00436 21.0246 8.97195 21.0246 8.97195C21.2714 8.93954 21.5118 9.00404 21.5118 9.00404C21.7522 9.06853 21.9496 9.22011 21.9496 9.22011C22.147 9.37169 22.2714 9.58727 22.2714 9.58727L24.3968 13.2631C25.8058 15.7122 25.3653 18.5052 25.3653 18.5052C24.925 21.2972 22.8305 23.1948 22.8305 23.1948C22.8296 23.1955 22.8288 23.1963 22.8288 23.1963C22.6195 23.3859 22.5 23.6551 22.5 23.9375L22.5 23.9398C22.5006 24.1871 22.5928 24.4254 22.7588 24.6088C22.9368 24.8054 23.1856 24.9232 23.4505 24.9363C23.467 24.9371 23.4835 24.9375 23.5 24.9375C23.5157 24.9375 23.5313 24.9372 23.547 24.9364C23.7787 24.9256 23.9993 24.8345 24.1713 24.6788C24.1728 24.6774 24.1741 24.6762 24.1741 24.6762C26.7907 22.3052 27.3409 18.8168 27.3409 18.8168C27.8914 15.3266 26.1282 12.262 26.1282 12.262L24.0037 8.58783C23.6805 8.02765 23.1676 7.63379 23.1676 7.63379C22.6547 7.23993 22.03 7.07235 22.03 7.07235C21.4054 6.90477 20.7642 6.98898 20.7642 6.98898C20.123 7.07318 19.5628 7.39636 19.5628 7.39636C19.0026 7.71954 18.6088 8.23249 18.6088 8.23249C18.2149 8.74543 18.0473 9.37006 18.0473 9.37006C17.8798 9.99468 17.964 10.6359 17.964 10.6359Z" fill="#1C1C1C"/>
<path d="M10.8973 5.995C10.5483 7.29571 11.2213 8.46221 11.2213 8.46221C11.3539 8.69194 11.5722 8.8596 11.8284 8.92833C11.9129 8.951 12 8.96249 12.0875 8.96249L12.1187 8.962C12.2835 8.95686 12.4444 8.91105 12.5872 8.82867C12.8968 8.65008 13.0875 8.31987 13.0875 7.96249C13.0875 7.94713 13.0872 7.93177 13.0865 7.91643C13.0791 7.75677 13.0336 7.6012 12.9537 7.46276C12.6947 7.01383 12.829 6.51325 12.829 6.51325C12.9633 6.01267 13.4122 5.75367 13.4122 5.75367C13.8612 5.49467 14.3617 5.62898 14.3617 5.62898C14.8623 5.76328 15.1213 6.21221 15.1213 6.21221L18.6588 12.3371C18.7914 12.5668 19.0101 12.7348 19.2663 12.8034C19.3507 12.826 19.4377 12.8375 19.525 12.8375C19.5356 12.8375 19.5461 12.8373 19.5567 12.837C19.7215 12.8318 19.8824 12.7859 20.0251 12.7034C20.2548 12.5708 20.4224 12.3524 20.491 12.0962C20.5136 12.0118 20.525 11.9248 20.525 11.8375C20.525 11.8269 20.5248 11.8164 20.5245 11.8058C20.5193 11.641 20.4734 11.4801 20.391 11.3374L16.8537 5.21276C16.1807 4.04626 14.88 3.69729 14.88 3.69729C13.5793 3.34832 12.4128 4.0213 12.4128 4.0213C11.2463 4.69428 10.8973 5.995 10.8973 5.995Z" fill="#1C1C1C"/>
<path d="M21.1337 1.1552L20.6212 3.0802C20.5989 3.16413 20.5875 3.25062 20.5875 3.33748L20.5877 3.35603C20.596 3.80227 20.899 4.18899 21.3303 4.30381C21.4142 4.32616 21.5007 4.33748 21.5875 4.33748C21.5986 4.33748 21.6096 4.33729 21.6207 4.33693C21.7854 4.33147 21.9463 4.28536 22.0889 4.2027C22.3184 4.06972 22.4856 3.85104 22.5539 3.59475L23.0663 1.67002C23.0886 1.58609 23.1 1.49933 23.1 1.41248C23.1 1.40143 23.0999 1.39039 23.0995 1.37936C23.094 1.21459 23.0479 1.05373 22.9653 0.91109C22.8323 0.681618 22.6136 0.51437 22.3573 0.446137C22.2734 0.423791 22.1869 0.412476 22.1 0.412476L22.0815 0.412648C21.6352 0.420929 21.2485 0.723915 21.1337 1.1552Z" fill="#1C1C1C"/>
<path d="M26.7057 3.75004C26.712 3.74097 26.7184 3.73153 26.7245 3.72226C26.8309 3.55957 26.8875 3.36942 26.8875 3.17505C26.8875 2.84928 26.7288 2.54393 26.4622 2.3567C26.4532 2.35033 26.444 2.34412 26.4347 2.33805C26.272 2.23169 26.0819 2.17505 25.8875 2.17505C25.8298 2.17505 25.7721 2.18005 25.7152 2.19L25.7055 2.19174C25.4481 2.23938 25.2196 2.38608 25.0692 2.60033L23.9193 4.2376C23.8009 4.40616 23.7375 4.60685 23.7375 4.81255L23.7375 4.81584C23.7377 4.87249 23.7427 4.92902 23.7525 4.98482C23.7981 5.24607 23.9457 5.47847 24.1628 5.6309C24.3311 5.74912 24.5318 5.81255 24.7375 5.81255C24.7607 5.81255 24.7839 5.81174 24.8071 5.81012C25.1077 5.78915 25.3827 5.63381 25.5559 5.38727L26.7057 3.75004Z" fill="#1C1C1C"/>
<path d="M28.2503 5.2942L26.6128 6.4442C26.3462 6.63142 26.1875 6.93678 26.1875 7.26255C26.1875 7.27363 26.1877 7.2847 26.1881 7.29578C26.1945 7.49004 26.2575 7.67821 26.3692 7.83727C26.5216 8.05431 26.754 8.20191 27.0152 8.2476C27.0721 8.25755 27.1298 8.26255 27.1875 8.26255L27.2088 8.26232C27.4072 8.25809 27.5998 8.19494 27.7622 8.0809L29.3997 6.9309C29.6168 6.77847 29.7644 6.54607 29.8101 6.28482C29.82 6.22794 29.825 6.1703 29.825 6.11255L29.8248 6.09125C29.8206 5.89286 29.7574 5.70022 29.6434 5.53783C29.4561 5.27123 29.1508 5.11255 28.825 5.11255C28.8139 5.11255 28.8029 5.11273 28.7918 5.1131C28.5975 5.11956 28.4094 5.18249 28.2503 5.2942Z" fill="#1C1C1C"/>
</svg>
