<svg width="32" height="32" viewBox="0 0 32 32" fill="none" xmlns="http://www.w3.org/2000/svg">
<path d="M20.9999 11H29.9999C30.5522 11 30.9999 10.5523 30.9999 10C30.9999 9.44772 30.5522 9 29.9999 9H20.9999C20.4476 9 19.9999 9.44772 19.9999 10C19.9999 10.5523 20.4476 11 20.9999 11Z" fill="#1C1C1C"/>
<path d="M20.9999 23H29.9999C30.5522 23 30.9999 22.5523 30.9999 22C30.9999 21.4477 30.5522 21 29.9999 21H20.9999C20.4476 21 19.9999 21.4477 19.9999 22C19.9999 22.5523 20.4476 23 20.9999 23Z" fill="#1C1C1C"/>
<path d="M20.9999 15H29.9999C30.5522 15 30.9999 14.5523 30.9999 14C30.9999 13.4477 30.5522 13 29.9999 13H20.9999C20.4476 13 19.9999 13.4477 19.9999 14C19.9999 14.5523 20.4476 15 20.9999 15Z" fill="#1C1C1C"/>
<path d="M20.9999 19H29.9999C30.5522 19 30.9999 18.5523 30.9999 18C30.9999 17.4477 30.5522 17 29.9999 17H20.9999C20.4476 17 19.9999 17.4477 19.9999 18C19.9999 18.5523 20.4476 19 20.9999 19Z" fill="#1C1C1C"/>
<path fill-rule="evenodd" clip-rule="evenodd" d="M15.9999 26H10.9999C10.9999 26 9.00177 26 7.157 25.2322C7.157 25.2322 5.31224 24.4644 3.90421 23.0466C3.90421 23.0466 2.49618 21.6288 1.74112 19.7787C1.74112 19.7787 0.986069 17.9287 0.999945 15.9306C0.999945 15.9306 1.0153 13.8986 1.82556 12.0466C1.82556 12.0466 2.60525 10.2645 4.01069 8.8923C4.01069 8.8923 5.41102 7.52507 7.21676 6.77511C7.21676 6.77511 9.08308 6 11.1124 6H15.9999C15.9999 6 16.8284 6 17.4141 6.58579C17.4141 6.58579 17.9999 7.17157 17.9999 8V24C17.9999 24 17.9999 24.8284 17.4141 25.4142C17.4141 25.4142 16.8284 26 15.9999 26ZM15.9999 24V8L11.1124 8C11.1124 8 7.78745 8 5.4079 10.3233C5.4079 10.3233 3.02479 12.6501 2.9999 15.9444C2.9999 15.9444 2.9888 17.543 3.59284 19.023C3.59284 19.023 4.19689 20.503 5.32331 21.6372C5.32331 21.6372 6.44974 22.7715 7.92554 23.3858C7.92554 23.3858 9.40136 24 10.9999 24H15.9999Z" fill="#1C1C1C"/>
</svg>
