<svg width="32" height="32" viewBox="0 0 32 32" fill="none" xmlns="http://www.w3.org/2000/svg">
<path fill-rule="evenodd" clip-rule="evenodd" d="M3 15.9998C2.99993 13.4016 3.99856 11.003 3.99856 11.003C4.99718 8.60434 6.84106 6.7738 6.84106 6.7738C8.68495 4.94326 11.0908 3.96209 11.0908 3.96209C13.4966 2.98092 16.0948 2.99987 16.0948 2.99987C18.6791 2.97821 21.0873 3.95817 21.0873 3.95817C23.4956 4.93814 25.3417 6.76897 25.3417 6.76897C27.1878 8.5998 28.1877 10.9998 28.1877 10.9998C29.1876 13.3998 29.1875 15.9998 29.1875 15.9998V22.9998C29.1875 24.2425 28.3088 25.1212 28.3088 25.1212C27.4301 25.9998 26.1875 25.9998 26.1875 25.9998H24.1875C22.9449 25.9998 22.0662 25.1212 22.0662 25.1212C21.1875 24.2425 21.1875 22.9998 21.1875 22.9998V17.9998C21.1875 16.7572 22.0662 15.8785 22.0662 15.8785C22.9449 14.9998 24.1875 14.9998 24.1875 14.9998H27.1431C26.9936 13.3342 26.3415 11.769 26.3415 11.769C25.4954 9.7382 23.9333 8.18904 23.9333 8.18904C22.3713 6.63987 20.3335 5.81067 20.3335 5.81067C18.2958 4.98147 16.0802 4.99981 16.0802 4.99981C13.8818 4.98378 11.8461 5.814 11.8461 5.814C9.81034 6.64423 8.25013 8.19314 8.25013 8.19314C6.68992 9.74206 5.84493 11.7717 5.84493 11.7717C5.19382 13.3356 5.04446 14.9998 5.04446 14.9998H8C9.24264 14.9998 10.1213 15.8785 10.1213 15.8785C11 16.7572 11 17.9998 11 17.9998V22.9998C11 24.2425 10.1213 25.1212 10.1213 25.1212C9.24264 25.9998 8 25.9998 8 25.9998H6C4.75736 25.9998 3.87868 25.1212 3.87868 25.1212C3 24.2425 3 22.9998 3 22.9998V15.9998ZM5 16.9998V22.9998C5 23.4141 5.29289 23.7069 5.29289 23.7069C5.58579 23.9998 6 23.9998 6 23.9998H8C8.41421 23.9998 8.70711 23.7069 8.70711 23.7069C9 23.4141 9 22.9998 9 22.9998V17.9998C9 17.5856 8.70711 17.2927 8.70711 17.2927C8.41421 16.9998 8 16.9998 8 16.9998H5ZM24.1875 16.9998H27.1875V22.9998C27.1875 22.9998 27.1875 23.414 26.8946 23.7069C26.8946 23.7069 26.6017 23.9998 26.1875 23.9998H24.1875C24.1875 23.9998 23.7733 23.9998 23.4804 23.7069C23.4804 23.7069 23.1875 23.414 23.1875 22.9998V17.9998C23.1875 17.9998 23.1875 17.5856 23.4804 17.2927C23.4804 17.2927 23.7733 16.9998 24.1875 16.9998Z" fill="#1C1C1C"/>
<path d="M24.1875 28.9999H17C16.4477 28.9999 16 29.4476 16 29.9999C16 30.5522 16.4477 30.9999 17 30.9999H24.1875C26.2586 30.9999 27.723 29.5354 27.723 29.5354C29.1875 28.071 29.1875 25.9999 29.1875 25.9999V22.9998C29.1875 22.4476 28.7398 21.9999 28.1875 21.9999C27.6352 21.9999 27.1875 22.4476 27.1875 22.9998V25.9999C27.1875 27.2425 26.3088 28.1212 26.3088 28.1212C25.4301 28.9999 24.1875 28.9999 24.1875 28.9999Z" fill="#1C1C1C"/>
</svg>
