<svg width="32" height="32" viewBox="0 0 32 32" fill="none" xmlns="http://www.w3.org/2000/svg">
<path fill-rule="evenodd" clip-rule="evenodd" d="M3 16.9998C2.99993 14.4016 3.99856 12.003 3.99856 12.003C4.99718 9.60434 6.84106 7.7738 6.84106 7.7738C8.68495 5.94326 11.0908 4.96209 11.0908 4.96209C13.4966 3.98092 16.0948 3.99987 16.0948 3.99987C18.6791 3.97821 21.0873 4.95817 21.0873 4.95817C23.4956 5.93814 25.3417 7.76897 25.3417 7.76897C27.1878 9.5998 28.1877 11.9998 28.1877 11.9998C29.1876 14.3998 29.1875 16.9998 29.1875 16.9998V23.9998C29.1875 25.2425 28.3088 26.1212 28.3088 26.1212C27.4301 26.9998 26.1875 26.9998 26.1875 26.9998H24.1875C22.9449 26.9998 22.0662 26.1212 22.0662 26.1212C21.1875 25.2425 21.1875 23.9998 21.1875 23.9998V18.9998C21.1875 17.7572 22.0662 16.8785 22.0662 16.8785C22.9449 15.9998 24.1875 15.9998 24.1875 15.9998H27.1431C26.9936 14.3342 26.3415 12.769 26.3415 12.769C25.4954 10.7382 23.9333 9.18904 23.9333 9.18904C22.3713 7.63987 20.3335 6.81067 20.3335 6.81067C18.2958 5.98147 16.0802 5.99981 16.0802 5.99981C13.8818 5.98378 11.8461 6.814 11.8461 6.814C9.81034 7.64423 8.25013 9.19314 8.25013 9.19314C6.68992 10.7421 5.84493 12.7717 5.84493 12.7717C5.19382 14.3356 5.04446 15.9998 5.04446 15.9998H8C9.24264 15.9998 10.1213 16.8785 10.1213 16.8785C11 17.7572 11 18.9998 11 18.9998V23.9998C11 25.2425 10.1213 26.1212 10.1213 26.1212C9.24264 26.9998 8 26.9998 8 26.9998H6C4.75736 26.9998 3.87868 26.1212 3.87868 26.1212C3 25.2425 3 23.9998 3 23.9998V16.9998ZM5 17.9998V23.9998C5 24.4141 5.29289 24.7069 5.29289 24.7069C5.58579 24.9998 6 24.9998 6 24.9998H8C8.41421 24.9998 8.70711 24.7069 8.70711 24.7069C9 24.4141 9 23.9998 9 23.9998V18.9998C9 18.5856 8.70711 18.2927 8.70711 18.2927C8.41421 17.9998 8 17.9998 8 17.9998H5ZM24.1875 17.9998H27.1875V23.9998C27.1875 23.9998 27.1875 24.414 26.8946 24.7069C26.8946 24.7069 26.6017 24.9998 26.1875 24.9998H24.1875C24.1875 24.9998 23.7733 24.9998 23.4804 24.7069C23.4804 24.7069 23.1875 24.414 23.1875 23.9998V18.9998C23.1875 18.9998 23.1875 18.5856 23.4804 18.2927C23.4804 18.2927 23.7733 17.9998 24.1875 17.9998Z" fill="#1C1C1C"/>
</svg>
