<svg width="32" height="32" viewBox="0 0 32 32" fill="none" xmlns="http://www.w3.org/2000/svg">
<path fill-rule="evenodd" clip-rule="evenodd" d="M17.4163 27.1981L17.4154 27.1989L17.414 27.2003C17.414 27.2003 16.8264 27.7807 16.0001 27.7807C16.0001 27.7807 15.1721 27.7807 14.5839 27.1981L4.19296 16.8072C4.19296 16.8072 3.10034 15.7137 2.52911 14.2778C2.52911 14.2778 1.95787 12.8418 2.00084 11.297C2.00084 11.297 2.04381 9.75222 2.69398 8.35023C2.69398 8.35023 3.34415 6.94825 4.49559 5.91749C4.49559 5.91749 6.74117 3.89754 9.86953 4.10061C9.86953 4.10061 12.9007 4.29736 15.0679 6.45369L16.0004 7.39333L17.1906 6.19528C17.1906 6.19528 18.2864 5.10034 19.7223 4.52911C19.7223 4.52911 21.1583 3.95787 22.7031 4.00084C22.7031 4.00084 24.2479 4.04381 25.6499 4.69398C25.6499 4.69398 27.0519 5.34415 28.0826 6.49559C28.0826 6.49559 30.1026 8.74117 29.8995 11.8695C29.8995 11.8695 29.7028 14.9007 27.5464 17.0679L17.4197 27.1947L17.4163 27.1981ZM16.0001 25.7807C16.0001 25.7807 16.0049 25.7807 16.0085 25.7775L26.1287 15.6572C26.1287 15.6572 27.7556 14.0222 27.9037 11.74C27.9037 11.74 28.0522 9.45234 26.5925 7.82955C26.5925 7.82955 25.8366 6.98516 24.8085 6.50837C24.8085 6.50837 23.7804 6.03158 22.6475 6.00007C22.6475 6.00007 21.5146 5.96856 20.4616 6.38746C20.4616 6.38746 19.4086 6.80637 18.6095 7.60485L16.7095 9.51735L16.7045 9.52236C16.3125 9.9114 15.6793 9.90899 15.2903 9.51698L13.6572 7.87145C13.6572 7.87145 12.0222 6.24454 9.73998 6.09641C9.73998 6.09641 7.45234 5.94791 5.82955 7.40764C5.82955 7.40764 4.98516 8.16353 4.50837 9.19165C4.50837 9.19165 4.03158 10.2198 4.00007 11.3526C4.00007 11.3526 3.96856 12.4855 4.38746 13.5385C4.38746 13.5385 4.80636 14.5916 5.60718 15.393L15.9913 25.7771C15.9913 25.7771 15.9949 25.7807 16.0001 25.7807Z" fill="#1C1C1C"/>
</svg>
