<svg width="32" height="32" viewBox="0 0 32 32" fill="none" xmlns="http://www.w3.org/2000/svg">
<path d="M19.5356 18.5355C18.0711 20 16.0001 20 16.0001 20C15.4478 20 15.0001 20.4477 15.0001 21C15.0001 21.5523 15.4478 22 16.0001 22C18.8996 22 20.9498 19.9497 20.9498 19.9497C23.0001 17.8995 23.0001 15 23.0001 15C23.0001 14.4477 22.5524 14 22.0001 14C21.4478 14 21.0001 14.4477 21.0001 15C21.0001 17.0711 19.5356 18.5355 19.5356 18.5355Z" fill="#1C1C1C"/>
<path fill-rule="evenodd" clip-rule="evenodd" d="M14.5236 21.347L11.2506 25.931C11.2506 25.931 9.84356 25.2598 8.66766 24.2055C8.48421 24.041 8.24648 23.95 8.00007 23.95C7.98193 23.95 7.96378 23.9505 7.94566 23.9515C7.68084 23.9659 7.43259 24.085 7.25554 24.2824C7.09105 24.4659 7.00007 24.7036 7.00007 24.95C7.00007 24.9681 7.00057 24.9863 7.00155 25.0044C7.01598 25.2692 7.13503 25.5175 7.33249 25.6945C7.33249 25.6945 9.16856 27.3408 11.4812 28.1971C11.4812 28.1971 13.7938 29.0534 16.257 28.9998C16.257 28.9998 18.8283 28.9499 21.1798 27.921C21.1798 27.921 23.4505 26.9275 25.209 25.16C25.209 25.16 26.9677 23.3922 27.9488 21.1168C27.9488 21.1168 28.965 18.76 29 16.1896C29 16.1896 29.038 13.5792 28.0653 11.1565C28.0653 11.1565 27.0927 8.73374 25.26 6.87439C25.26 6.87439 23.4274 5.01505 21.019 4.00738C21.019 4.00738 18.6107 2.99972 16.0001 3H15.0001C14.4478 3 14.0001 3.44772 14.0001 4V7.44121L1.47598 15.1483C1.45496 15.1613 1.43443 15.175 1.41443 15.1894C0.966764 15.5129 0.866063 16.138 1.18951 16.5856L2.91301 18.9711C2.91301 18.9711 3.58196 19.902 4.64316 20.3355C4.64316 20.3355 5.70436 20.769 6.82606 20.574C6.82606 20.574 11.268 19.8379 14.5236 21.347ZM16.2182 27.0002C16.2182 27.0002 14.6721 27.0338 13.1982 26.6452L16.8139 21.5811C16.968 21.3652 17.0301 21.097 16.9864 20.8354C16.9428 20.5738 16.797 20.3403 16.5812 20.1862C16.5598 20.1709 16.538 20.1566 16.5155 20.1431C16.5155 20.1431 14.1037 18.6924 10.9946 18.4119C10.9946 18.4119 8.82265 18.2159 6.49909 18.601C6.49909 18.601 5.92844 18.7001 5.39951 18.484C5.39951 18.484 4.87057 18.2679 4.53714 17.8039L3.44132 16.2873L15.5242 8.85166C15.8199 8.66966 16.0001 8.34726 16.0001 8V5C16.0001 5 18.2092 4.99977 20.2471 5.8524C20.2471 5.8524 22.2849 6.70504 23.8356 8.27833C23.8356 8.27833 25.3863 9.85162 26.2093 11.9016C26.2093 11.9016 27.0324 13.9516 27.0002 16.1604C27.0002 16.1604 26.9706 18.3342 26.1123 20.325C26.1123 20.325 25.2817 22.2512 23.7912 23.7494C23.7912 23.7494 22.3007 25.2476 20.3781 26.0887C20.3781 26.0887 18.3914 26.958 16.2182 27.0002Z" fill="#1C1C1C"/>
<path d="M17.0001 12.5C17.0001 13.3284 16.3284 14 15.5001 14C14.6717 14 14.0001 13.3284 14.0001 12.5C14.0001 11.6716 14.6717 11 15.5001 11C16.3284 11 17.0001 11.6716 17.0001 12.5Z" fill="#1C1C1C"/>
</svg>
