<svg width="32" height="32" viewBox="0 0 32 32" fill="none" xmlns="http://www.w3.org/2000/svg">
<path d="M17.9279 12.323L17.9273 12.3236C17.7648 12.5066 17.6751 12.7428 17.6751 12.9875L17.6751 12.9928C17.6752 13.0108 17.6758 13.0288 17.6769 13.0468C17.6926 13.3116 17.8129 13.5592 18.0112 13.7353C18.1942 13.8978 18.4304 13.9875 18.6751 13.9875C18.6949 13.9875 18.7147 13.9869 18.7345 13.9857C18.9992 13.97 19.2469 13.8497 19.4229 13.6514L19.4235 13.6507L20.4896 12.4499C21.5536 11.3989 23.0229 11.1077 23.0229 11.1077C24.5064 10.8136 25.9034 11.393 25.9034 11.393C27.3003 11.9723 28.1403 13.23 28.1403 13.23C28.9802 14.4876 28.9802 16 28.9802 16C28.9802 17.5123 28.1403 18.77 28.1403 18.77C27.3003 20.0276 25.9034 20.607 25.9034 20.607C24.5064 21.1864 23.0229 20.8923 23.0229 20.8923C21.5536 20.601 20.4896 19.5501 20.4896 19.5501L12.9854 11.0985C12.9721 11.0835 12.9583 11.0689 12.9441 11.0548C11.4446 9.55785 9.36622 9.14585 9.36622 9.14585C7.28786 8.73386 5.3307 9.54554 5.3307 9.54554C3.37354 10.3572 2.19678 12.1192 2.19678 12.1192C1.02002 13.8812 1.02002 16 1.02002 16C1.02002 18.1188 2.19678 19.8808 2.19678 19.8808C3.37354 21.6427 5.3307 22.4544 5.3307 22.4544C7.28786 23.2661 9.36622 22.8541 9.36622 22.8541C11.4446 22.4421 12.9441 20.9452 12.9441 20.9452C12.9583 20.931 12.9721 20.9164 12.9855 20.9014L14.073 19.6764C14.2354 19.4934 14.3251 19.2572 14.3251 19.0125L14.3251 19.0072C14.325 18.9892 14.3244 18.9711 14.3234 18.9531C14.3076 18.6884 14.1873 18.4407 13.989 18.2647C13.806 18.1022 13.5698 18.0125 13.3251 18.0125C13.3053 18.0125 13.2855 18.0131 13.2658 18.0142C13.001 18.03 12.7534 18.1503 12.5773 18.3486L11.5106 19.5501C10.4466 20.601 8.97733 20.8923 8.97733 20.8923C7.49384 21.1864 6.09687 20.607 6.09687 20.607C4.6999 20.0276 3.85996 18.77 3.85996 18.77C3.02002 17.5123 3.02002 16 3.02002 16C3.02002 14.4876 3.85996 13.23 3.85996 13.23C4.6999 11.9723 6.09687 11.393 6.09687 11.393C7.49385 10.8136 8.97733 11.1077 8.97733 11.1077C10.4467 11.3989 11.5107 12.4499 11.5107 12.4499L19.0148 20.9014C19.0282 20.9164 19.0419 20.931 19.0561 20.9452C20.5557 22.4421 22.634 22.8541 22.634 22.8541C24.7124 23.2661 26.6695 22.4544 26.6695 22.4544C28.6267 21.6427 29.8035 19.8808 29.8035 19.8808C30.9802 18.1188 30.9802 16 30.9802 16C30.9802 13.8812 29.8035 12.1192 29.8035 12.1192C28.6267 10.3572 26.6695 9.54554 26.6695 9.54554C24.7124 8.73386 22.634 9.14585 22.634 9.14585C20.5557 9.55785 19.0561 11.0548 19.0561 11.0548C19.0419 11.069 19.0281 11.0836 19.0148 11.0986L17.9279 12.323Z" fill="#1C1C1C"/>
</svg>
