<svg width="32" height="32" viewBox="0 0 32 32" fill="none" xmlns="http://www.w3.org/2000/svg">
<path fill-rule="evenodd" clip-rule="evenodd" d="M23.3665 14.9523L25.7071 17.2929C26.059 17.6448 26.0986 18.2019 25.8 18.6C25.1993 19.401 24.1081 20.5248 24.1081 20.5248C21.9428 22.7547 19.4358 24.4529 19.4358 24.4529C15.9039 26.8455 12.1764 27.8264 12.1764 27.8264C7.48448 29.0612 2.77514 27.9744 2.77514 27.9744C2.59647 27.9332 2.43258 27.8436 2.30138 27.7155C2.11162 27.5302 2.00324 27.2771 2.00007 27.0119C1.99691 26.7467 2.09922 26.4911 2.28451 26.3014L17.5399 10.6776C17.5605 10.6525 17.5824 10.6284 17.6054 10.6054C17.6228 10.588 17.6408 10.5713 17.6594 10.5552L24.0304 4.03039C25.0533 3.00745 26.5 3.00745 26.5 3.00745C27.9467 3.00745 28.9696 4.03039 28.9696 4.03039C29.9926 5.05334 29.9926 6.5 29.9926 6.5C29.9926 7.93792 28.9819 8.95722 28.9819 8.95722L23.3665 14.9523ZM18.3235 12.7377L5.03245 26.3499C11.7944 27.2137 18.3142 22.7971 18.3142 22.7971C20.651 21.2141 22.6732 19.1315 22.6732 19.1315C23.2408 18.547 23.6551 18.0693 23.6551 18.0693L18.3235 12.7377ZM27.5327 7.57887L21.9515 13.5373L19.7208 11.3066L25.4446 5.4446C25.4446 5.4446 25.8818 5.00745 26.5 5.00745C26.5 5.00745 27.1182 5.00745 27.5554 5.4446C27.5554 5.4446 27.9926 5.88176 27.9926 6.5C27.9926 6.5 27.9926 7.11823 27.5554 7.55539C27.5477 7.56309 27.5401 7.57092 27.5327 7.57887Z" fill="#1C1C1C"/>
</svg>
