<svg width="32" height="32" viewBox="0 0 32 32" fill="none" xmlns="http://www.w3.org/2000/svg">
<path d="M20.7067 12.7075C20.8943 12.5199 21 12.2652 21 12C21 11.7348 20.8946 11.4804 20.7071 11.2929L20.6985 11.2844C20.5117 11.1024 20.2607 11 20 11C19.7348 11 19.4804 11.1054 19.2929 11.2929L4.29327 26.2925C4.10573 26.4801 4 26.7348 4 27C4 27.2652 4.10536 27.5196 4.29289 27.7071C4.48043 27.8946 4.73478 28 5 28C5.26522 28 5.51957 27.8946 5.70711 27.7071L20.7067 12.7075Z" fill="#1C1C1C"/>
<path fill-rule="evenodd" clip-rule="evenodd" d="M27.9982 4.94125C27.9982 4.94125 28.3723 11.3006 26.8137 16.2829C26.8137 16.2829 25.323 21.0483 22.3064 23.8569C22.3064 23.8569 19.2922 26.6632 15.4017 26.9504C15.4017 26.9504 11.4588 27.2415 7.48546 24.8575C7.34471 24.773 7.22691 24.6552 7.14246 24.5145C7.14246 24.5145 4.75846 20.5411 5.04954 16.5982C5.04954 16.5982 5.33676 12.7077 8.14306 9.69356C8.14306 9.69356 10.9517 6.67691 15.717 5.18621C15.717 5.18621 20.6994 3.62762 27.0587 4.0017C27.5647 4.03147 27.9685 4.43519 27.9982 4.94125ZM16.3141 7.09499C16.3141 7.09499 20.5977 5.755 26.0446 5.95531C26.0446 5.95531 26.2449 11.4022 24.9049 15.6858C24.9049 15.6858 23.5724 19.9455 20.9435 22.3931C20.9435 22.3931 18.4439 24.7204 15.2545 24.9558C15.2545 24.9558 12.0482 25.1925 8.7302 23.2697C8.7302 23.2697 6.80741 19.9517 7.04411 16.7455C7.04411 16.7455 7.27958 13.5561 9.60685 11.0564C9.60685 11.0564 12.0544 8.42752 16.3141 7.09499Z" fill="#1C1C1C"/>
</svg>
