<svg width="32" height="32" viewBox="0 0 32 32" fill="none" xmlns="http://www.w3.org/2000/svg">
<path d="M11 9H27C27.5523 9 28 8.55228 28 8C28 7.44772 27.5523 7 27 7H11C10.4477 7 10 7.44772 10 8C10 8.55228 10.4477 9 11 9Z" fill="#1C1C1C"/>
<path d="M11 17H27C27.5523 17 28 16.5523 28 16C28 15.4477 27.5523 15 27 15H11C10.4477 15 10 15.4477 10 16C10 16.5523 10.4477 17 11 17Z" fill="#1C1C1C"/>
<path d="M11 25H27C27.5523 25 28 24.5523 28 24C28 23.4477 27.5523 23 27 23H11C10.4477 23 10 23.4477 10 24C10 24.5523 10.4477 25 11 25Z" fill="#1C1C1C"/>
<path d="M7 8C7 8.82837 6.32837 9.5 5.5 9.5C4.67163 9.5 4 8.82837 4 8C4 7.17163 4.67163 6.5 5.5 6.5C6.32837 6.5 7 7.17163 7 8Z" fill="#1C1C1C"/>
<path d="M7 16C7 16.8284 6.32837 17.5 5.5 17.5C4.67163 17.5 4 16.8284 4 16C4 15.1716 4.67163 14.5 5.5 14.5C6.32837 14.5 7 15.1716 7 16Z" fill="#1C1C1C"/>
<path d="M7 24C7 24.8284 6.32837 25.5 5.5 25.5C4.67163 25.5 4 24.8284 4 24C4 23.1716 4.67163 22.5 5.5 22.5C6.32837 22.5 7 23.1716 7 24Z" fill="#1C1C1C"/>
</svg>
