<svg width="32" height="32" viewBox="0 0 32 32" fill="none" xmlns="http://www.w3.org/2000/svg">
<path fill-rule="evenodd" clip-rule="evenodd" d="M8.42268 20.9792C8.42268 20.9792 7.83955 21.567 7.01158 21.5742C7.01158 21.5742 6.18361 21.5815 5.58063 20.9945L1.99228 17.4061C1.99228 17.4061 1.4082 16.8207 1.4082 15.9936C1.4082 15.9936 1.4082 15.1666 1.98889 14.5846L10.2558 6.21758C10.2558 6.21758 11.8118 4.66255 13.8461 3.8255C13.8461 3.8255 15.8804 2.98845 18.0802 2.99813C18.0802 2.99813 20.2799 3.00781 22.3068 3.86274C22.3068 3.86274 24.3337 4.71767 25.8755 6.28599C25.8755 6.28599 27.4409 7.87676 28.2488 9.94599C28.2488 9.94599 29.0262 11.9374 28.9986 14.0971C28.9986 14.0971 28.9711 16.249 28.1487 18.2365C28.1487 18.2365 27.2988 20.2906 25.7134 21.8759L17.4039 30.0351C17.4039 30.0351 16.8129 30.6003 15.9951 30.5931C15.9951 30.5931 15.1773 30.5859 14.5931 30.007L10.9961 26.4099C10.9961 26.4099 10.4186 25.8165 10.4259 24.9886C10.4259 24.9886 10.4332 24.1606 11.0295 23.5691L19.3931 15.4678C19.3931 15.4678 20.006 14.8549 20.0112 13.9861C20.0112 13.9861 20.0163 13.1303 19.422 12.5605C19.422 12.5605 18.8311 11.9962 18.0141 12.0035C18.0141 12.0035 17.197 12.0107 16.6283 12.5734L8.42832 20.9734L8.42268 20.9792ZM15.1972 11.1764L7.00219 19.5712C7.00219 19.5712 6.99875 19.5743 6.99404 19.5743C6.99404 19.5743 6.99219 19.5743 6.99177 19.5751C6.99177 19.5751 6.99106 19.5765 6.99471 19.5802L3.4082 15.9936L3.41159 15.9902L11.6696 7.63221C11.6696 7.63221 12.9427 6.35991 14.6071 5.67505C14.6071 5.67505 16.2715 4.99019 18.0714 4.99811C18.0714 4.99811 19.8712 5.00603 21.5295 5.70552C21.5295 5.70552 23.1879 6.405 24.45 7.68881C24.45 7.68881 25.7273 8.98676 26.3857 10.6733C26.3857 10.6733 27.0214 12.3017 26.9988 14.0715C26.9988 14.0715 26.9761 15.8393 26.3006 17.4719C26.3006 17.4719 25.603 19.158 24.3121 20.4489L16.0215 28.5897C16.0215 28.5897 16.0179 28.5932 16.0128 28.5932C16.0128 28.5932 16.0113 28.5932 16.0099 28.5931C16.0087 28.5931 16.0075 28.593 16.0073 28.5928L12.4294 25.0149C12.4294 25.0149 12.4258 25.0112 12.4258 25.0061C12.4258 25.0061 12.4258 25.0039 12.425 25.0035C12.425 25.0035 12.4238 25.0029 12.4211 25.0056L20.8073 16.882C20.8073 16.882 22.0011 15.6882 22.0112 13.998C22.0112 13.998 22.0214 12.2819 20.8034 11.1142C20.8034 11.1142 19.6253 9.98899 17.9962 10.0035C17.9962 10.0035 16.3671 10.0181 15.1972 11.1764Z" fill="#1C1C1C"/>
<path d="M20.1176 25.9816C20.3051 26.1691 20.56 26.275 20.8252 26.275C21.0904 26.275 21.3448 26.1697 21.5323 25.9821C21.7199 25.7946 21.8252 25.5402 21.8252 25.275C21.8252 25.0098 21.7199 24.7555 21.5323 24.5679L16.5574 19.593C16.3698 19.4054 16.1154 19.3 15.8502 19.3C15.585 19.3 15.3306 19.4054 15.1431 19.5929C14.9556 19.7805 14.8502 20.0348 14.8502 20.3C14.8502 20.5652 14.9556 20.8196 15.1431 21.0071L20.1176 25.9816Z" fill="#1C1C1C"/>
<path d="M11.0044 16.8808C11.192 17.0688 11.4471 17.1749 11.7127 17.1749C11.7296 17.1749 11.7464 17.1745 11.7632 17.1736C12.0102 17.1612 12.2439 17.0576 12.419 16.8829C12.607 16.6953 12.7127 16.4406 12.7127 16.1749C12.7127 16.1581 12.7123 16.1413 12.7115 16.1244C12.699 15.8774 12.5954 15.6438 12.4207 15.4687L7.45824 10.4937C7.27063 10.3056 7.0159 10.1999 6.75024 10.1999C6.73341 10.1999 6.71657 10.2003 6.69976 10.2012C6.45275 10.2137 6.21913 10.3173 6.04403 10.4919C5.85595 10.6795 5.75024 10.9343 5.75024 11.1999C5.75024 11.2168 5.75067 11.2336 5.75152 11.2504C5.76401 11.4974 5.86758 11.731 6.04225 11.9061L11.0044 16.8808Z" fill="#1C1C1C"/>
</svg>
