<svg width="32" height="32" viewBox="0 0 32 32" fill="none" xmlns="http://www.w3.org/2000/svg">
<path fill-rule="evenodd" clip-rule="evenodd" d="M13.7436 28.805C13.7436 28.805 11.6219 28.4328 9.74413 27.4014L5.9977 28.4622C5.9977 28.4622 5.48321 28.6127 4.95553 28.4777C4.95553 28.4777 4.42784 28.3427 4.04269 27.9576C4.04269 27.9576 3.65755 27.5724 3.52257 27.0447C3.52257 27.0447 3.38758 26.517 3.54048 25.9943L4.59884 22.2561C4.59884 22.2561 3.56743 20.3783 3.19527 18.2566C3.19527 18.2566 2.78533 15.9196 3.22823 13.5885C3.22823 13.5885 3.67114 11.2575 4.90967 9.23359C4.90967 9.23359 6.1482 7.20973 8.02233 5.75454C8.02233 5.75454 9.89647 4.29934 12.1641 3.60083C12.1641 3.60083 14.4317 2.90231 16.7998 3.05072C16.7998 3.05072 19.1679 3.19913 21.3306 4.17529C21.3306 4.17529 23.4932 5.15145 25.171 6.82924C25.171 6.82924 26.8488 8.50703 27.825 10.6697C27.825 10.6697 28.8011 12.8323 28.9495 15.2005C28.9495 15.2005 29.0979 17.5686 28.3994 19.8362C28.3994 19.8362 27.7009 22.1038 26.2457 23.9779C26.2457 23.9779 24.7905 25.8521 22.7667 27.0906C22.7667 27.0906 20.7428 28.3291 18.4118 28.772C18.4118 28.772 16.0807 29.2149 13.7436 28.805ZM18.0384 26.8072C18.0384 26.8072 13.9585 27.5824 10.3859 25.4652C10.1501 25.3254 9.86657 25.2881 9.60285 25.3628L5.4662 26.534L6.63745 22.3974C6.71212 22.1337 6.67527 21.8509 6.53552 21.6151C6.53552 21.6151 4.4178 18.0422 5.19308 13.9618C5.19308 13.9618 5.96836 9.88147 9.24892 7.33425C9.24892 7.33425 12.5295 4.78703 16.6747 5.04681C16.6747 5.04681 20.8199 5.30659 23.7568 8.24346C23.7568 8.24346 26.6937 11.1803 26.9535 15.3256C26.9535 15.3256 27.2132 19.4708 24.666 22.7513C24.666 22.7513 22.1188 26.0319 18.0384 26.8072Z" fill="#1C1C1C"/>
<path d="M22.707 14.7075C22.8945 14.5199 23.0002 14.2652 23.0002 14C23.0002 13.7348 22.8949 13.4804 22.7074 13.2929L22.6987 13.2844C22.512 13.1024 22.261 13 22.0002 13C21.9702 13 21.9403 13.0014 21.9104 13.004C21.6772 13.0251 21.4587 13.1273 21.2931 13.2929L18.0002 16.5858L14.7074 13.2929C14.5198 13.1054 14.2655 13 14.0002 13C13.735 13 13.4807 13.1054 13.2931 13.2929L9.29314 17.2929C9.1056 17.4804 9.00024 17.7348 9.00024 18C9.00024 18.016 9.00063 18.032 9.0014 18.048C9.01334 18.2964 9.11735 18.5313 9.29314 18.7071C9.48067 18.8946 9.73503 19 10.0002 19C10.2655 19 10.5198 18.8946 10.7074 18.7071L14.0002 15.4142L17.2931 18.7071C17.4807 18.8946 17.735 19 18.0002 19C18.2655 19 18.5198 18.8946 18.7074 18.7071L22.707 14.7075Z" fill="#1C1C1C"/>
</svg>
