<svg width="32" height="32" viewBox="0 0 32 32" fill="none" xmlns="http://www.w3.org/2000/svg">
<path fill-rule="evenodd" clip-rule="evenodd" d="M28.0508 19.3437L28.0503 19.3452C28.0503 19.3452 27.1564 22.555 24.7832 24.894C24.7832 24.894 22.4093 27.2338 19.1855 28.0809C19.1855 28.0809 15.9618 28.928 12.7443 28.0576C12.7443 28.0576 9.52677 27.1871 7.16986 24.8302C7.16986 24.8302 4.81294 22.4733 3.94247 19.2557C3.94247 19.2557 3.072 16.0382 3.91912 12.8145C3.91912 12.8145 4.76625 9.59075 7.10602 7.21681C7.10602 7.21681 9.44579 4.84287 12.6569 3.9491C12.9124 3.87798 13.1857 3.91128 13.4167 4.04166C13.6476 4.17204 13.8173 4.38883 13.8884 4.64434C13.9374 4.82039 13.9373 5.00652 13.8879 5.18248C13.8879 5.18248 13.1204 7.91963 13.8402 10.6697C13.8402 10.6697 14.56 13.4198 16.5701 15.4299C16.5701 15.4299 18.5802 17.44 21.3303 18.1598C21.3303 18.1598 24.0804 18.8797 26.8175 18.1121C26.988 18.0643 27.1681 18.0626 27.3394 18.1072L27.3557 18.1116C27.6926 18.2054 27.956 18.4683 28.0504 18.805C28.0982 18.9754 28.0999 19.1555 28.0553 19.3268L28.0508 19.3437ZM23.3793 23.4696C23.3793 23.4696 24.7548 22.1138 25.5388 20.4098C25.5388 20.4098 23.1853 20.7128 20.8239 20.0947C20.8239 20.0947 17.5494 19.2376 15.1559 16.8441C15.1559 16.8441 12.7625 14.4507 11.9054 11.1761C11.9054 11.1761 11.2873 8.8147 11.5902 6.46126C11.5902 6.46126 9.88619 7.24519 8.53045 8.62073C8.53045 8.62073 6.56504 10.6148 5.85345 13.3228C5.85345 13.3228 5.14187 16.0307 5.87306 18.7334C5.87306 18.7334 6.60426 21.4361 8.58407 23.416C8.58407 23.416 10.5639 25.3958 13.2666 26.127C13.2666 26.127 15.9693 26.8582 18.6772 26.1466C18.6772 26.1466 21.3852 25.435 23.3793 23.4696Z" fill="#1C1C1C"/>
</svg>
