<svg width="32" height="32" viewBox="0 0 32 32" fill="none" xmlns="http://www.w3.org/2000/svg">
<path fill-rule="evenodd" clip-rule="evenodd" d="M3.73053 6.27909C3.73053 6.27909 3.54046 5.73605 3.66815 5.17484C3.66815 5.17484 3.79614 4.61229 4.20409 4.20434C4.20409 4.20434 4.61204 3.79638 5.1746 3.66839C5.1746 3.66839 5.73715 3.5404 6.28144 3.73169L27.4395 11.0551C27.4395 11.0551 28.0896 11.2778 28.4581 11.8406C28.4581 11.8406 28.7947 12.3545 28.7825 12.979C28.7825 12.979 28.7703 13.6016 28.4159 14.1031C28.4159 14.1031 28.0288 14.6508 27.3717 14.8551L17.8072 17.8057L17.8013 17.8075L14.8555 27.3696C14.8555 27.3696 14.6506 28.029 14.1028 28.4162C14.1028 28.4162 13.6014 28.7706 12.9788 28.7827C12.9788 28.7827 12.3543 28.7949 11.8403 28.4584C11.8403 28.4584 11.2775 28.0899 11.0538 27.4366L3.73053 6.27909ZM12.9459 26.7886L5.61987 5.62303L5.6183 5.61855L26.7853 12.9451L26.7781 12.9452L17.2341 15.8895C17.2341 15.8895 16.7524 16.0226 16.3947 16.3736C16.3947 16.3736 16.0284 16.733 15.888 17.2266L12.9442 26.7807L12.9459 26.7886Z" fill="#1C1C1C"/>
</svg>
