<svg width="32" height="32" viewBox="0 0 32 32" fill="none" xmlns="http://www.w3.org/2000/svg">
<path d="M21.775 13.9501L11.9986 27H22C22.5523 27 23 27.4477 23 28C23 28.5523 22.5523 29 22 29H10C9.44772 29 9 28.5523 9 28C9 27.7838 9.07006 27.5734 9.19967 27.4004L20.1603 12.7696C21.0048 11.5163 21 10.0032 21 10.0032C20.9993 8.21716 19.8704 6.83681 19.8704 6.83681C18.7415 5.45646 16.9939 5.102 16.9939 5.102C15.2462 4.74755 13.6687 5.57898 13.6687 5.57898C12.0912 6.41041 11.3958 8.05245 11.3958 8.05245C11.25 8.39675 10.9243 8.63094 10.5515 8.65956C10.5261 8.66152 10.5005 8.66249 10.475 8.66249C10.341 8.66249 10.2084 8.63557 10.085 8.58333C9.84082 8.47991 9.64769 8.2837 9.54813 8.03788C9.50198 7.92392 9.47723 7.80241 9.47514 7.67947L9.475 7.66249C9.475 7.52852 9.50192 7.39591 9.55417 7.27254L9.55441 7.27196C10.528 4.97354 12.7362 3.80968 12.7362 3.80968C14.9447 2.64568 17.3914 3.14191 17.3914 3.14191C19.8381 3.63815 21.4186 5.57064 21.4186 5.57064C22.9991 7.50313 23 9.9968 23 9.9968C23.0068 12.1399 21.802 13.9122 21.802 13.9122C21.7936 13.9245 21.785 13.9366 21.7761 13.9485L21.7753 13.9496L21.775 13.9501Z" fill="#1C1C1C"/>
</svg>
