<svg width="32" height="32" viewBox="0 0 32 32" fill="none" xmlns="http://www.w3.org/2000/svg">
<path fill-rule="evenodd" clip-rule="evenodd" d="M22.7703 11.6663C22.7703 11.6663 23.3398 10.3784 23.3499 8.97021L23.3499 8.95823C23.3499 8.95823 23.3439 7.54748 22.7734 6.2572C22.7734 6.2572 22.203 4.96692 21.1635 4.01313C21.1635 4.01313 18.9756 1.99866 15.9999 1.99866C15.9999 1.99866 13.0241 1.99866 10.835 4.0143C10.835 4.0143 9.79416 4.96309 9.22322 6.25607C9.22322 6.25607 8.65229 7.54904 8.65229 8.96245C8.65229 8.96245 8.65229 10.3759 9.22322 11.6688C9.22322 11.6688 9.79416 12.9618 10.8387 13.914C10.8387 13.914 13.0323 15.9129 15.9999 15.9129C15.9999 15.9129 18.9675 15.9129 21.1609 13.9141C21.1609 13.9141 22.2007 12.9546 22.7703 11.6663ZM20.9443 7.06595C20.9443 7.06595 21.3446 7.97135 21.3499 8.96106C21.3499 8.96106 21.3418 9.95149 20.9411 10.8576C20.9411 10.8576 20.5394 11.7663 19.8138 12.4358C19.8138 12.4358 18.1929 13.9129 15.9999 13.9129C15.9999 13.9129 13.8069 13.9129 12.1861 12.4359C12.1861 12.4359 11.4533 11.768 11.0528 10.861C11.0528 10.861 10.6523 9.95396 10.6523 8.96245C10.6523 8.96245 10.6523 7.97095 11.0528 7.06394C11.0528 7.06394 11.4533 6.15693 12.1897 5.48561C12.1897 5.48561 13.8047 3.99866 15.9999 3.99866C15.9999 3.99866 18.1951 3.99866 19.8113 5.48679C19.8113 5.48679 20.5428 6.15797 20.9443 7.06595Z" fill="#1C1C1C"/>
<path fill-rule="evenodd" clip-rule="evenodd" d="M23.8365 18.8351C23.8365 18.8351 24.495 20.3279 24.4999 21.9595C24.4999 21.9595 24.492 23.5952 23.8336 25.084C23.8336 25.084 23.1752 26.5728 21.9763 27.674C21.9763 27.674 19.4411 30.0012 15.9999 30.0012C15.9999 30.0012 12.5587 30.0012 10.0237 27.6742C10.0237 27.6742 8.81909 26.5771 8.15906 25.0833C8.15906 25.0833 7.49902 23.5894 7.49902 21.9562C7.49902 21.9562 7.49902 20.3231 8.15906 18.8292C8.15906 18.8292 8.81909 17.3353 10.0265 16.2357C10.0265 16.2357 12.5587 13.9113 15.9999 13.9113C15.9999 13.9113 19.4411 13.9113 21.9761 16.2383C21.9761 16.2383 23.178 17.3422 23.8365 18.8351ZM22.0066 19.6422C22.0066 19.6422 21.5169 18.5322 20.6237 17.7117C20.6237 17.7117 18.6623 15.9113 15.9999 15.9113C15.9999 15.9113 13.3375 15.9113 11.3732 17.7143C11.3732 17.7143 10.4779 18.5298 9.98845 19.6375C9.98845 19.6375 9.49902 20.7452 9.49902 21.9562C9.49902 21.9562 9.49902 23.1673 9.98845 24.275C9.98845 24.275 10.4779 25.3827 11.3761 26.2008C11.3761 26.2008 13.3375 28.0012 15.9999 28.0012C15.9999 28.0012 18.6623 28.0012 20.6234 26.201C20.6234 26.201 21.5149 25.3822 22.0045 24.2751C22.0045 24.2751 22.494 23.1681 22.4999 21.9655C22.4999 21.9655 22.4962 20.7523 22.0066 19.6422Z" fill="#1C1C1C"/>
</svg>
