<svg width="32" height="32" viewBox="0 0 32 32" fill="none" xmlns="http://www.w3.org/2000/svg">
<path d="M22.9875 18.5001C22.9875 19.3284 22.316 20.0001 21.4875 20.0001C20.6591 20.0001 19.9875 19.3284 19.9875 18.5001C19.9875 17.6717 20.6591 17.0001 21.4875 17.0001C22.316 17.0001 22.9875 17.6717 22.9875 18.5001Z" fill="#1C1C1C"/>
<path d="M15.9875 9.00005L15.9886 9.00005C16.5404 8.99945 16.9875 8.55191 16.9875 8.00006L16.9875 7.99895C16.9872 7.73374 16.8815 7.4795 16.6938 7.29217C16.5063 7.10511 16.2523 7.00005 15.9875 7.00005C12.8343 7.00352 10.1611 8.67669 10.1611 8.67669C7.48871 10.3499 6.10846 13.1846 6.10846 13.1846C4.72822 16.0194 5.05924 19.1549 5.05924 19.1549C5.39027 22.2904 7.33203 24.7745 7.33203 24.7745C9.2738 27.2586 12.2366 28.3368 12.2366 28.3368C15.1995 29.4151 18.2836 28.7601 18.2836 28.7601C21.3678 28.1051 23.6367 25.9157 23.6367 25.9157C25.9055 23.7264 26.6701 20.6676 26.6701 20.6676C26.6899 20.5882 26.7 20.5068 26.7 20.4251C26.7 20.4138 26.6998 20.4025 26.6994 20.3912C26.6843 19.9452 26.3755 19.5631 25.9425 19.4549C25.8632 19.4351 25.7817 19.4251 25.7 19.4251C25.6838 19.4251 25.6677 19.4254 25.6516 19.4262C25.4869 19.4342 25.3268 19.4828 25.1854 19.5676C24.958 19.704 24.7941 19.9253 24.7298 20.1825C24.1042 22.6852 22.2479 24.4765 22.2479 24.4765C20.3915 26.2678 17.8681 26.8037 17.8681 26.8037C15.3447 27.3396 12.9206 26.4574 12.9206 26.4574C10.4965 25.5752 8.90775 23.5428 8.90775 23.5428C7.31903 21.5104 7.04819 18.9449 7.04819 18.9449C6.77735 16.3795 7.90664 14.0602 7.90664 14.0602C9.03594 11.7408 11.2224 10.3718 11.2224 10.3718C13.4084 9.00318 15.9875 9.00005 15.9875 9.00005Z" fill="#1C1C1C"/>
<path d="M26.432 4.81797C25.114 3.49995 23.25 3.49995 23.25 3.49995C22.6977 3.49995 22.25 3.94767 22.25 4.49995C22.25 5.05224 22.6977 5.49995 23.25 5.49995C24.2855 5.49995 25.0178 6.23219 25.0178 6.23219C25.75 6.96442 25.75 7.99995 25.75 7.99995C25.75 9.03549 25.0178 9.76772 25.0178 9.76772C24.3618 10.4237 23.4623 10.492 23.4623 10.492L9.18474 3.5994C9.05444 3.53649 8.91203 3.50262 8.76735 3.5001C6.94661 3.4685 5.61629 4.71203 5.61629 4.71203C4.28598 5.95557 4.19488 7.77431 4.19488 7.77431C4.10378 9.59305 5.30317 10.9633 5.30317 10.9633C6.50234 12.3333 8.31668 12.484 8.31668 12.484C8.34426 12.4863 8.37241 12.4875 8.39999 12.4875C8.43342 12.4875 8.46682 12.4858 8.50007 12.4824C8.97976 12.4342 9.35673 12.0506 9.39657 11.5701C9.39885 11.5426 9.39999 11.515 9.39999 11.4875C9.39999 11.454 9.39832 11.4206 9.39497 11.3874C9.34673 10.9077 8.96309 10.5307 8.48264 10.4909C7.47442 10.4073 6.80809 9.64602 6.80809 9.64602C6.14177 8.88477 6.19238 7.87436 6.19238 7.87436C6.24299 6.86395 6.98205 6.1731 6.98205 6.1731C7.64561 5.55282 8.52882 5.50361 8.52882 5.50361L22.8152 12.4005C22.9508 12.466 23.0994 12.5 23.25 12.5C25.114 12.5 26.432 11.1819 26.432 11.1819C27.75 9.86391 27.75 7.99995 27.75 7.99995C27.75 6.13599 26.432 4.81797 26.432 4.81797Z" fill="#1C1C1C"/>
<path d="M14.9874 15.6668V28.0001C14.9874 28.5523 15.4351 29.0001 15.9874 29.0001C16.5397 29.0001 16.9874 28.5523 16.9874 28.0001V14.0001C16.9874 13.4478 16.5397 13.0001 15.9874 13.0001C15.8233 13.0001 15.6616 13.0405 15.5168 13.1177L5.60428 18.4052C5.37027 18.5301 5.19544 18.7427 5.11823 18.9965C5.08952 19.0908 5.07492 19.1889 5.07492 19.2876C5.07492 19.3034 5.0753 19.3193 5.07606 19.3351C5.0831 19.4831 5.12291 19.6275 5.1926 19.7582C5.36641 20.084 5.70564 20.2876 6.07492 20.2876L6.08775 20.2875C6.24756 20.2854 6.40455 20.2451 6.54557 20.1699L14.9874 15.6668Z" fill="#1C1C1C"/>
<path d="M10.9875 16.1375V27.1625C10.9875 27.7148 11.4352 28.1625 11.9875 28.1625C12.5398 28.1625 12.9875 27.7148 12.9875 27.1625V16.1375C12.9875 15.5852 12.5398 15.1375 11.9875 15.1375C11.4352 15.1375 10.9875 15.5852 10.9875 16.1375Z" fill="#1C1C1C"/>
</svg>
