<svg width="32" height="32" viewBox="0 0 32 32" fill="none" xmlns="http://www.w3.org/2000/svg">
<path fill-rule="evenodd" clip-rule="evenodd" d="M29 22.1679L29 22.1708C29 22.1708 28.9963 22.7094 28.7241 23.1742C28.7241 23.1742 28.451 23.6404 27.9813 23.9071L16.9778 30.0966C16.9778 30.0966 16.5292 30.3557 16 30.3557C16 30.3557 15.4708 30.3557 15.0125 30.0911L4.02224 23.9091C4.02224 23.9091 3.54895 23.6403 3.27593 23.1742C3.27593 23.1742 3.00292 22.7081 3.00001 22.1679L3 9.83753C3 9.83753 3.00292 9.29197 3.27593 8.82585C3.27593 8.82585 3.54895 8.35972 4.01869 8.09297L15.0222 1.90346C15.0222 1.90346 15.4708 1.64441 16 1.64441C16 1.64441 16.5292 1.64441 16.9875 1.90901L27.9778 8.09096C27.9778 8.09096 28.451 8.35972 28.7241 8.82584C28.7241 8.82584 28.9971 9.29198 29 9.83217L29 22.1625L29 22.1679ZM27 9.8429L27 22.1572C27 22.1572 26.9999 22.1608 26.9983 22.1634C26.9983 22.1634 26.9977 22.1644 26.9967 22.1655C26.9959 22.1664 26.9949 22.1673 26.9937 22.168L15.9999 28.3519L5.00291 22.166C5.00291 22.166 5.00312 22.1658 5.0017 22.1634C5.0017 22.1634 5 22.1605 4.99999 22.1572L5 9.83753C5 9.83753 5.00063 9.83849 5.0017 9.83665C5.0017 9.83665 5.0034 9.83376 5.00631 9.8321L16.0001 3.64813L26.9971 9.83408C26.9972 9.83445 26.9977 9.83561 26.9983 9.83666C26.9983 9.83666 27 9.83955 27 9.8429Z" fill="#1C1C1C"/>
<path d="M10.483 4.99936C10.3351 4.91778 10.1689 4.875 10 4.875L9.98717 4.87508C9.89753 4.87623 9.80845 4.88943 9.72233 4.91432C9.46754 4.98797 9.25244 5.15981 9.12436 5.39204C9.04278 5.53994 9 5.7061 9 5.875L9.00008 5.88783C9.00123 5.97747 9.01443 6.06655 9.03932 6.15267C9.11297 6.40746 9.28481 6.62256 9.51704 6.75064L21.125 13.153V19.0625C21.125 19.6148 21.5727 20.0625 22.125 20.0625C22.6773 20.0625 23.125 19.6148 23.125 19.0625V12.5625C23.125 12.1982 22.9269 11.8628 22.608 11.6869L10.483 4.99936Z" fill="#1C1C1C"/>
<path d="M16.1078 14.8525L4.62433 8.45148C4.47547 8.36851 4.30788 8.32495 4.13745 8.32495L4.12911 8.32499C4.03946 8.32573 3.95033 8.33853 3.86409 8.36304C3.60898 8.43554 3.39311 8.60641 3.26398 8.83807C3.18101 8.98693 3.13745 9.15453 3.13745 9.32495L3.13749 9.3333C3.13823 9.42294 3.15103 9.51208 3.17554 9.59831C3.24804 9.85342 3.41891 10.0693 3.65057 10.1984L15.6256 16.8734C15.9308 17.0435 16.3026 17.042 16.6064 16.8694L28.3564 10.1944C28.587 10.0634 28.7561 9.8462 28.8265 9.5905C28.8504 9.504 28.8624 9.41468 28.8624 9.32495L28.8621 9.3004C28.8581 9.1356 28.8134 8.97435 28.7319 8.83101C28.5542 8.5182 28.2222 8.32495 27.8624 8.32495C27.8493 8.32495 27.8362 8.32521 27.823 8.32573C27.6633 8.33203 27.5075 8.37651 27.3685 8.45546L16.1078 14.8525Z" fill="#1C1C1C"/>
<path d="M15 29.3416L15 29.35C15 29.4082 15.0051 29.4663 15.0152 29.5237C15.0989 29.9985 15.5095 30.3459 15.9916 30.35C16.0076 30.3501 16.0236 30.3498 16.0396 30.3492C16.288 30.3394 16.5239 30.2373 16.7011 30.063C16.8902 29.8771 16.9977 29.6236 17 29.3584L17.1125 16.0086L17.1125 16C17.1125 15.9868 17.1122 15.9736 17.1117 15.9604C17.1019 15.712 16.9998 15.4761 16.8255 15.2989C16.6396 15.1098 16.3861 15.0023 16.1209 15L16.1125 15C16.0993 15 16.0861 15.0003 16.0729 15.0008C15.8245 15.0106 15.5886 15.1127 15.4114 15.287C15.2223 15.4729 15.1148 15.7264 15.1125 15.9916L15 29.3416Z" fill="#1C1C1C"/>
</svg>
