<svg width="32" height="32" viewBox="0 0 32 32" fill="none" xmlns="http://www.w3.org/2000/svg">
<path fill-rule="evenodd" clip-rule="evenodd" d="M15.1446 1.29289L28.5821 14.7304C28.9726 15.1209 28.9726 15.7541 28.5821 16.1446L16.5571 28.1696C16.5571 28.1696 15.6723 29.0415 14.4375 29.0415C14.4375 29.0415 13.2027 29.0415 12.3231 28.1748L1.70536 17.5571C1.70536 17.5571 0.833496 16.6723 0.833496 15.4375C0.833496 15.4375 0.833496 14.2027 1.70016 13.3231L13.7304 1.29289C13.9179 1.10536 14.1723 1 14.4375 1C14.7027 1 14.957 1.10536 15.1446 1.29289ZM3.12478 14.7269L14.4375 3.41421L26.4608 15.4375L15.1429 26.7554C15.1429 26.7554 14.8525 27.0415 14.4375 27.0415C14.4375 27.0415 14.0225 27.0415 13.7268 26.7502L3.11958 16.1429C3.11958 16.1429 2.8335 15.8525 2.8335 15.4375C2.8335 15.4375 2.8335 15.0225 3.12478 14.7269Z" fill="#1C1C1C"/>
<path fill-rule="evenodd" clip-rule="evenodd" d="M15.4999 11C15.4999 11 16.9497 11 17.9748 12.0251C17.9748 12.0251 18.9999 13.0503 18.9999 14.5C18.9999 14.5 18.9999 15.9497 17.9748 16.9749C17.9748 16.9749 16.9497 18 15.4999 18C15.4999 18 14.0502 18 13.0251 16.9749C13.0251 16.9749 11.9999 15.9497 11.9999 14.5C11.9999 14.5 11.9999 13.0503 13.0251 12.0251C13.0251 12.0251 14.0502 11 15.4999 11ZM15.4999 13C15.4999 13 14.8786 13 14.4393 13.4393C14.4393 13.4393 13.9999 13.8787 13.9999 14.5C13.9999 14.5 13.9999 15.1213 14.4393 15.5607C14.4393 15.5607 14.8786 16 15.4999 16C15.4999 16 16.1213 16 16.5606 15.5607C16.5606 15.5607 16.9999 15.1213 16.9999 14.5C16.9999 14.5 16.9999 13.8787 16.5606 13.4393C16.5606 13.4393 16.1213 13 15.4999 13Z" fill="#1C1C1C"/>
<path fill-rule="evenodd" clip-rule="evenodd" d="M26.0251 27.9749C26.0251 27.9749 24.9999 26.9497 24.9999 25.5C24.9999 25.5 24.9999 23.6347 26.4179 21.5078C26.4179 21.5078 27.0978 20.4879 27.7928 19.7929C28.1834 19.4024 28.8165 19.4024 29.207 19.7929C29.207 19.7929 29.9021 20.4879 30.582 21.5078C30.582 21.5078 31.9999 23.6347 31.9999 25.5C31.9999 25.5 31.9999 26.9497 30.9748 27.9749C30.9748 27.9749 29.9497 29 28.4999 29C28.4999 29 27.0502 29 26.0251 27.9749ZM26.9999 25.5C26.9999 25.5 26.9999 26.1213 27.4393 26.5607C27.4393 26.5607 27.8786 27 28.4999 27C28.4999 27 29.1213 27 29.5606 26.5607C29.5606 26.5607 29.9999 26.1213 29.9999 25.5C29.9999 25.5 29.9999 24.2403 28.9179 22.6172C28.9179 22.6172 28.7079 22.3022 28.4999 22.0279C28.4999 22.0279 28.292 22.3022 28.082 22.6172C28.082 22.6172 26.9999 24.2403 26.9999 25.5Z" fill="#1C1C1C"/>
<path d="M5.44453 3.03044C5.257 2.84291 5.00264 2.73755 4.73743 2.73755C4.47221 2.73755 4.21786 2.84291 4.03032 3.03044C3.84278 3.21798 3.73743 3.47233 3.73743 3.73755C3.73743 4.00277 3.84278 4.25712 4.03032 4.44466L13.0303 13.4447C13.2179 13.6322 13.4722 13.7375 13.7374 13.7375C14.0026 13.7375 14.257 13.6322 14.4445 13.4447C14.6321 13.2571 14.7374 13.0028 14.7374 12.7375C14.7374 12.4723 14.6321 12.218 14.4445 12.0304L5.44453 3.03044Z" fill="#1C1C1C"/>
</svg>
