<svg width="32" height="32" viewBox="0 0 32 32" fill="none" xmlns="http://www.w3.org/2000/svg">
<path fill-rule="evenodd" clip-rule="evenodd" d="M28.6748 18.8971L28.6742 18.9L28.6739 18.9011C28.6739 18.9011 28.3593 20.262 27.2657 21.1313C27.2657 21.1313 26.1717 22.0009 24.7742 22H18.9998C18.9998 22 18.5981 21.9983 18.2306 22.1497C18.2306 22.1497 17.863 22.301 17.5819 22.5821C17.5819 22.5821 17.3008 22.8632 17.1495 23.2307C17.1495 23.2307 16.9981 23.5983 16.9998 23.9958L16.9998 24.4875C16.9998 24.4875 17.0045 25.4592 16.5574 26.3274C16.5574 26.3274 16.1103 27.1956 15.3127 27.7589C15.3127 27.7589 14.515 28.3223 13.5473 28.4533C13.5473 28.4533 12.5796 28.5843 11.6609 28.2533C11.6609 28.2533 9.50644 27.4913 7.73782 26.035C7.73782 26.035 5.9692 24.5787 4.80498 22.6055C4.80498 22.6055 3.64075 20.6323 3.22119 18.38C3.22119 18.38 2.80163 16.1277 3.17729 13.8677C3.17729 13.8677 3.55295 11.6077 4.67857 9.61224C4.67857 9.61224 5.80419 7.61679 7.54414 6.12635C7.54414 6.12635 9.28409 4.63591 11.4287 3.83006C11.4287 3.83006 13.5734 3.02421 15.8643 3.00006C15.8643 3.00006 18.4999 2.9751 20.9287 3.97896C20.9287 3.97896 23.2722 4.9476 25.0935 6.7327C25.0935 6.7327 26.9165 8.51941 27.929 10.8427C27.929 10.8427 28.9798 13.2537 28.9998 15.8924C28.9998 15.8924 29.0129 17.4133 28.6748 18.8971ZM26.9998 15.9076C26.9998 15.9076 27.0109 17.1954 26.7254 18.45L26.7248 18.4529C26.7248 18.4529 26.5671 19.1318 26.0212 19.5656C26.0212 19.5656 25.4742 20.0004 24.7754 20H18.9998C18.9998 20 18.2065 19.9967 17.4691 20.3003C17.4691 20.3003 16.7316 20.604 16.1677 21.1679C16.1677 21.1679 15.6038 21.7318 15.3001 22.4693C15.3001 22.4693 14.9965 23.2067 14.9998 24.0042L14.9998 24.4875C14.9998 24.4875 15.0022 24.979 14.7793 25.4117C14.7793 25.4117 14.5565 25.8445 14.1589 26.1253C14.1589 26.1253 13.7613 26.406 13.279 26.4713C13.279 26.4713 12.7967 26.5367 12.3387 26.3717C12.3387 26.3717 8.56088 25.0354 6.52749 21.5892C6.52749 21.5892 4.49411 18.1429 5.15022 14.1957C5.15022 14.1957 5.80633 10.2484 8.84525 7.64527C8.84525 7.64527 11.8842 5.04214 15.8854 4.99994C15.8854 4.99994 18.112 4.97886 20.1647 5.82729C20.1647 5.82729 22.1495 6.64766 23.6936 8.16105C23.6936 8.16105 25.2386 9.6753 26.0956 11.6417C26.0956 11.6417 26.983 13.6778 26.9998 15.9076Z" fill="#1C1C1C"/>
<path d="M17.4998 9.5C17.4998 10.3284 16.8282 11 15.9998 11C15.1714 11 14.4998 10.3284 14.4998 9.5C14.4998 8.67163 15.1714 8 15.9998 8C16.8282 8 17.4998 8.67163 17.4998 9.5Z" fill="#1C1C1C"/>
<path d="M11.8748 12.75C11.8748 13.5784 11.2032 14.25 10.3748 14.25C9.54645 14.25 8.87482 13.5784 8.87482 12.75C8.87482 11.9216 9.54645 11.25 10.3748 11.25C11.2032 11.25 11.8748 11.9216 11.8748 12.75Z" fill="#1C1C1C"/>
<path d="M11.8748 19.25C11.8748 20.0784 11.2032 20.75 10.3748 20.75C9.54645 20.75 8.87482 20.0784 8.87482 19.25C8.87482 18.4216 9.54645 17.75 10.3748 17.75C11.2032 17.75 11.8748 18.4216 11.8748 19.25Z" fill="#1C1C1C"/>
<path d="M23.1248 12.75C23.1248 13.5784 22.4532 14.25 21.6248 14.25C20.7964 14.25 20.1248 13.5784 20.1248 12.75C20.1248 11.9216 20.7964 11.25 21.6248 11.25C22.4532 11.25 23.1248 11.9216 23.1248 12.75Z" fill="#1C1C1C"/>
</svg>
