<svg width="32" height="32" viewBox="0 0 32 32" fill="none" xmlns="http://www.w3.org/2000/svg">
<path fill-rule="evenodd" clip-rule="evenodd" d="M27.0574 3.50979C27.0574 3.50979 26.5346 3.37605 26.0166 3.52492L26.0125 3.52608L2.72395 10.0854C2.72395 10.0854 2.11442 10.252 1.71129 10.7386C1.71129 10.7386 1.30815 11.2252 1.25776 11.8551C1.25776 11.8551 1.20737 12.485 1.52802 13.0295C1.52802 13.0295 1.84867 13.574 2.40999 13.8289L13.1091 18.891L18.1648 29.5762C18.1648 29.5762 18.4262 30.1515 18.9707 30.4721C18.9707 30.4721 19.5152 30.7928 20.1451 30.7424C20.1451 30.7424 20.7749 30.692 21.2615 30.2889C21.2615 30.2889 21.7481 29.8857 21.9127 29.2836L28.4725 5.99321C28.4725 5.99321 28.6254 5.47044 28.4904 4.94275C28.4904 4.94275 28.3554 4.41506 27.9702 4.02992C27.9702 4.02992 27.5851 3.64477 27.0574 3.50979ZM3.25139 12.0146L26.5468 5.45342L19.9876 28.7414L19.9856 28.7488L14.9166 18.0348C14.9166 18.0348 14.6155 17.3846 13.9579 17.0801L3.26535 12.0211L3.25139 12.0146Z" fill="#1C1C1C"/>
<path d="M20.2194 13.195C20.4069 13.0075 20.5127 12.7528 20.5127 12.4875C20.5127 12.2223 20.4073 11.968 20.2198 11.7804L20.2111 11.7719C20.0244 11.5899 19.7734 11.4875 19.5127 11.4875C19.4827 11.4875 19.4527 11.4889 19.4228 11.4916C19.1896 11.5126 18.9711 11.6149 18.8056 11.7804L13.1559 17.4301C12.9684 17.6176 12.8627 17.8723 12.8627 18.1375C12.8627 18.1536 12.8631 18.1696 12.8638 18.1856C12.8758 18.4339 12.9798 18.6689 13.1556 18.8447C13.3431 19.0322 13.5975 19.1375 13.8627 19.1375C14.1279 19.1375 14.3822 19.0322 14.5698 18.8447L20.2194 13.195Z" fill="#1C1C1C"/>
</svg>
