<svg width="32" height="32" viewBox="0 0 32 32" fill="none" xmlns="http://www.w3.org/2000/svg">
<path fill-rule="evenodd" clip-rule="evenodd" d="M27.9264 14.2525C27.9264 14.2525 28.4007 14.5164 28.6765 14.9842C28.6765 14.9842 28.9536 15.4543 28.9536 15.9999C28.9536 15.9999 28.9536 16.5456 28.6765 17.0157C28.6765 17.0157 28.3993 17.4858 27.9219 17.7499L6.81391 29.5724C6.81391 29.5724 6.26261 29.877 5.64173 29.8146C5.64173 29.8146 5.02086 29.7522 4.54561 29.3479C4.54561 29.3479 4.07036 28.9435 3.90938 28.3406C3.90938 28.3406 3.7484 27.7377 3.95881 27.1502L7.93392 15.9999L3.95831 4.84824C3.95831 4.84824 3.7484 4.26217 3.90938 3.65929C3.90938 3.65929 4.07036 3.05641 4.54561 2.65203C4.54561 2.65203 5.02085 2.24765 5.64173 2.18527C5.64173 2.18527 6.26261 2.12289 6.8088 2.42463L27.9219 14.2499L27.9264 14.2525ZM5.84168 4.17525L26.9491 15.9974L26.9536 15.9999L5.84168 27.8246L9.81119 16.69C9.81119 16.69 10.0816 15.9999 9.81119 15.3098L5.84168 4.17525Z" fill="#1C1C1C"/>
<path d="M9.00024 17H17.0002C17.5525 17 18.0002 16.5523 18.0002 16C18.0002 15.4477 17.5525 15 17.0002 15H9.00024C8.44796 15 8.00024 15.4477 8.00024 16C8.00024 16.5523 8.44796 17 9.00024 17Z" fill="#1C1C1C"/>
</svg>
