<svg width="32" height="32" viewBox="0 0 32 32" fill="none" xmlns="http://www.w3.org/2000/svg">
<path d="M26.2059 16.7084L26.2063 16.708C26.3944 16.5204 26.5001 16.2657 26.5001 16C26.5001 15.9832 26.4996 15.9663 26.4988 15.9495C26.4863 15.7025 26.3827 15.4689 26.208 15.2938C26.0207 15.106 25.7665 15.0003 25.5013 15L25.5001 15C25.4844 15 25.4688 15.0004 25.4532 15.0011C25.2049 15.0127 24.9698 15.1165 24.7938 15.292L24.7934 15.2925L14.5313 25.5295C13.0681 26.9927 11.0001 26.9927 11.0001 26.9927C8.932 26.9927 7.46966 25.5304 7.46966 25.5304C6.00732 24.0681 6.00732 22 6.00732 22C6.00732 19.9319 7.46966 18.4696 7.46966 18.4696L19.8661 5.89844C20.7487 5.11091 21.9347 5.14011 21.9347 5.14011C23.1339 5.16964 23.9822 6.01788 23.9822 6.01788C24.8304 6.86613 24.86 8.06536 24.86 8.06536C24.8892 9.25469 24.0973 10.1389 24.0973 10.1389L11.7233 22.6872C11.4329 22.9397 11.045 22.9301 11.045 22.9301C10.6453 22.9203 10.3625 22.6375 10.3625 22.6375C10.0798 22.3548 10.07 21.955 10.07 21.955C10.0603 21.5639 10.3171 21.2719 10.3171 21.2719L20.713 10.7012C20.897 10.5142 21.0001 10.2623 21.0001 10L21 9.99168C20.9978 9.72647 20.8903 9.473 20.7012 9.28703C20.5142 9.10309 20.2624 9.00001 20.0001 9.00001L19.9917 9.00004C19.7265 9.00225 19.473 9.10973 19.2871 9.29882L8.87458 19.8863C8.86502 19.896 8.85566 19.906 8.84651 19.9161C8.04103 20.805 8.07056 22.0043 8.07056 22.0043C8.10009 23.2035 8.94833 24.0517 8.94833 24.0517C9.79658 24.9 10.9958 24.9295 10.9958 24.9295C12.195 24.959 13.084 24.1536 13.084 24.1536C13.0979 24.141 13.1114 24.128 13.1246 24.1146L25.5371 11.5271C25.547 11.5171 25.5567 11.5069 25.5661 11.4965C26.9086 10.0149 26.8593 8.01613 26.8593 8.01613C26.8101 6.01741 25.3964 4.60367 25.3964 4.60367C23.9827 3.18993 21.9839 3.14072 21.9839 3.14072C19.9852 3.09151 18.5036 4.43396 18.5036 4.43396C18.4897 4.44655 18.4762 4.45952 18.463 4.47287L6.05545 17.0554C4.00732 19.1035 4.00732 22 4.00732 22C4.00732 24.8965 6.05545 26.9446 6.05545 26.9446C8.10357 28.9927 11.0001 28.9927 11.0001 28.9927C13.8965 28.9927 15.9438 26.9455 15.9438 26.9455L26.2059 16.7084Z" fill="#1C1C1C"/>
</svg>
