<svg width="32" height="32" viewBox="0 0 32 32" fill="none" xmlns="http://www.w3.org/2000/svg">
<path fill-rule="evenodd" clip-rule="evenodd" d="M14.5002 14C14.5002 14 15.9499 14 16.975 15.0251C16.975 15.0251 18.0002 16.0503 18.0002 17.5C18.0002 17.5 18.0002 18.9497 16.975 19.9749C16.975 19.9749 15.9499 21 14.5002 21C14.5002 21 13.0504 21 12.0253 19.9749C12.0253 19.9749 11.0002 18.9497 11.0002 17.5C11.0002 17.5 11.0002 16.0503 12.0253 15.0251C12.0253 15.0251 13.0504 14 14.5002 14ZM14.5002 16C14.5002 16 13.8788 16 13.4395 16.4393C13.4395 16.4393 13.0002 16.8787 13.0002 17.5C13.0002 17.5 13.0002 18.1213 13.4395 18.5607C13.4395 18.5607 13.8788 19 14.5002 19C14.5002 19 15.1215 19 15.5608 18.5607C15.5608 18.5607 16.0002 18.1213 16.0002 17.5C16.0002 17.5 16.0002 16.8787 15.5608 16.4393C15.5608 16.4393 15.1215 16 14.5002 16Z" fill="#1C1C1C"/>
<path d="M13.4444 19.9699C13.632 19.7823 13.7377 19.5277 13.7377 19.2625C13.7377 18.9972 13.6323 18.7429 13.4448 18.5553C13.2572 18.3678 13.0029 18.2625 12.7377 18.2625C12.4724 18.2625 12.2181 18.3678 12.0305 18.5553L3.29342 27.2925C3.10588 27.48 3.00015 27.7347 3.00015 28C3.00015 28.2652 3.10551 28.5195 3.29305 28.7071C3.48058 28.8946 3.73494 29 4.00015 29C4.26537 29 4.51972 28.8946 4.70726 28.7071L13.4444 19.9699Z" fill="#1C1C1C"/>
<path fill-rule="evenodd" clip-rule="evenodd" d="M5.91455 10.406C5.91455 10.406 6.00478 9.87992 6.34385 9.46772C6.34385 9.46772 6.68291 9.05553 7.18636 8.86376L14.6489 6.06376C15.0161 5.92598 15.4299 6.01559 15.7073 6.29292L25.7073 16.2929C25.9846 16.5703 26.0742 16.9841 25.9364 17.3513L23.1405 24.8027C23.1405 24.8027 22.958 25.3073 22.5464 25.6514C22.5464 25.6514 22.1347 25.9955 21.6017 26.0865L4.16421 28.9865C4.05555 29.0046 3.94465 29.0045 3.83599 28.9865C3.29119 28.8958 2.92306 28.3806 3.01372 27.8359L5.91372 10.4109L5.91455 10.406ZM7.88586 10.7436L5.21628 26.784L21.2624 24.1154L23.8376 17.2517L14.7485 8.16254L7.88895 10.7363C7.88895 10.7363 7.88984 10.7365 7.88843 10.7383C7.88843 10.7383 7.88648 10.7406 7.88586 10.7436Z" fill="#1C1C1C"/>
<path d="M17.5805 3.00528L14.293 6.29278C14.1055 6.48032 14.0002 6.73467 14.0002 6.99989C14.0002 7.01591 14.0005 7.03193 14.0013 7.04793C14.0132 7.29624 14.1173 7.53121 14.293 7.707C14.4806 7.89453 14.7349 7.99989 15.0002 7.99989C15.2654 7.99989 15.5197 7.89453 15.7073 7.707L18.9948 4.4195L19.0002 4.41406L27.5805 12.9945C27.586 12.9999 27.586 12.9999 27.586 12.9999L24.2936 16.2923C24.106 16.4798 24.0002 16.7347 24.0002 16.9999C24.0002 17.2651 24.1055 17.5195 24.293 17.707C24.4806 17.8945 24.7349 17.9999 25.0002 17.9999C25.2654 17.9999 25.5197 17.8945 25.7073 17.707L28.9893 14.4249C29.2756 14.143 29.4308 13.7723 29.4308 13.7723C29.586 13.4017 29.586 12.9999 29.586 12.9999C29.586 12.5981 29.4308 12.2275 29.4308 12.2275C29.2756 11.8568 28.9948 11.5803 28.9948 11.5803L20.4252 3.01072C20.1432 2.72443 19.7726 2.56925 19.7726 2.56925C19.402 2.41406 19.0002 2.41406 19.0002 2.41406C18.5983 2.41406 18.2277 2.56925 18.2277 2.56925C17.8571 2.72443 17.5805 3.00528 17.5805 3.00528Z" fill="#1C1C1C"/>
</svg>
