<svg width="32" height="32" viewBox="0 0 32 32" fill="none" xmlns="http://www.w3.org/2000/svg">
<path d="M14.9998 19V31C14.9998 31.5523 15.4475 32 15.9998 32C16.5521 32 16.9998 31.5523 16.9998 31V19C16.9998 18.4477 16.5521 18 15.9998 18C15.4475 18 14.9998 18.4477 14.9998 19Z" fill="#1C1C1C"/>
<path fill-rule="evenodd" clip-rule="evenodd" d="M15.9998 13C15.9998 13 17.4496 13 18.4747 14.0251C18.4747 14.0251 19.4998 15.0503 19.4998 16.5C19.4998 16.5 19.4998 17.9497 18.4747 18.9749C18.4747 18.9749 17.4496 20 15.9998 20C15.9998 20 14.5501 20 13.5249 18.9749C13.5249 18.9749 12.4998 17.9497 12.4998 16.5C12.4998 16.5 12.4998 15.0503 13.5249 14.0251C13.5249 14.0251 14.5501 13 15.9998 13ZM15.9998 15C15.9998 15 15.3785 15 14.9392 15.4393C14.9392 15.4393 14.4998 15.8787 14.4998 16.5C14.4998 16.5 14.4998 17.1213 14.9392 17.5607C14.9392 17.5607 15.3785 18 15.9998 18C15.9998 18 16.6211 18 17.0605 17.5607C17.0605 17.5607 17.4998 17.1213 17.4998 16.5C17.4998 16.5 17.4998 15.8787 17.0605 15.4393C17.0605 15.4393 16.6211 15 15.9998 15Z" fill="#1C1C1C"/>
<path d="M21.9998 4V9C21.9998 9.55228 22.4475 10 22.9998 10C23.5521 10 23.9998 9.55228 23.9998 9V4C23.9998 3.17157 23.414 2.58579 23.414 2.58579C22.8282 2 21.9998 2 21.9998 2H9.99982C9.17139 2 8.5856 2.58579 8.5856 2.58579C7.99982 3.17157 7.99982 4 7.99982 4V9C7.99982 9.55228 8.44753 10 8.99982 10C9.5521 10 9.99982 9.55228 9.99982 9V4H21.9998Z" fill="#1C1C1C"/>
<path fill-rule="evenodd" clip-rule="evenodd" d="M22.9998 8C23.3802 8 23.7276 8.21576 23.8962 8.55667L27.3259 15.4913C27.3259 15.4913 27.5655 15.9892 27.5191 16.5397C27.5191 16.5397 27.4726 17.0903 27.1425 17.5555L16.805 31.593C16.7454 31.674 16.6738 31.7456 16.5928 31.8052C16.3793 31.9625 16.112 32.0285 15.8498 31.9887C15.5875 31.9489 15.3519 31.8065 15.1946 31.593L4.84664 17.541C4.84664 17.541 4.52701 17.0903 4.48057 16.5397C4.48057 16.5397 4.43414 15.9892 4.67847 15.4817L8.10347 8.55667C8.27208 8.21576 8.61949 8 8.99983 8H22.9998ZM9.62087 10H22.3788L25.5238 16.3587C25.5238 16.3587 25.5267 16.3649 25.5262 16.3716C25.5262 16.3716 25.5259 16.3742 25.5267 16.3745C25.5267 16.3745 25.5272 16.3747 25.5284 16.3738C25.5292 16.3731 25.5303 16.372 25.5318 16.3699L15.9998 29.3136L6.47802 16.384C6.47802 16.384 6.47407 16.3784 6.4735 16.3716C6.4735 16.3716 6.47313 16.3673 6.47227 16.3672C6.47227 16.3672 6.4718 16.3671 6.47119 16.3683L9.62087 10Z" fill="#1C1C1C"/>
</svg>
