<svg width="32" height="32" viewBox="0 0 32 32" fill="none" xmlns="http://www.w3.org/2000/svg">
<path fill-rule="evenodd" clip-rule="evenodd" d="M15.9997 7.99683C11.7553 7.99683 7.68451 9.682 4.68198 12.682C3.82268 13.5424 3.30638 14.6864 3.22969 15.9C3.15307 17.1124 3.52052 18.3113 4.26329 19.2725L4.26617 19.2713L10.1699 16.9124C10.1731 16.9109 10.176 16.9086 10.1782 16.9059C10.1805 16.9032 10.1821 16.9 10.1831 16.8967L10.906 13.2196L10.9089 13.2055C10.9802 12.8685 11.1374 12.5556 11.3652 12.2972C11.5927 12.0391 11.8829 11.844 12.2078 11.7308C14.6491 10.8773 17.307 10.8726 19.7514 11.7174L19.4247 12.6625L19.7599 11.7204C20.0839 11.8356 20.3725 12.033 20.5974 12.2932C20.8211 12.552 20.9742 12.8641 21.0419 13.1993L21.8136 16.896C21.8146 16.8993 21.8162 16.9023 21.8184 16.9048C21.8208 16.9076 21.8238 16.9099 21.8271 16.9114L27.7362 19.2726C28.479 18.3113 28.8464 17.1125 28.7698 15.9C28.6931 14.6863 28.1767 13.5421 27.3172 12.6817C24.3147 9.6819 20.2441 7.99683 15.9997 7.99683ZM19.0829 13.6024C17.0681 12.9099 14.8787 12.9156 12.8673 13.619L12.8657 13.6195L12.1411 17.305C12.0734 17.6281 11.9277 17.9297 11.7168 18.1837C11.5059 18.4376 11.2361 18.6362 10.931 18.762L10.9208 18.7662L5.01318 21.1267C4.6102 21.2919 4.16402 21.3202 3.74328 21.2071C3.32125 21.0936 2.94842 20.8443 2.68243 20.4976C1.64139 19.1515 1.12635 17.4722 1.23367 15.7739C1.34104 14.0747 2.06402 12.4729 3.26725 11.2683C6.64485 7.89332 11.225 5.99683 15.9997 5.99683C20.7745 5.99683 25.354 7.89265 28.7316 11.2676C29.9348 12.4722 30.6585 14.0747 30.7658 15.7739C30.8731 17.4722 30.3581 19.1515 29.3171 20.4976C29.0511 20.8443 28.6783 21.0936 28.2562 21.2071C27.8355 21.3202 27.3893 21.2919 26.9863 21.1267L21.0714 18.7632C20.7692 18.6397 20.5013 18.4449 20.2906 18.1955C20.0799 17.9461 19.9327 17.6495 19.8614 17.3309L19.8583 17.3169L19.0829 13.6024Z" fill="#1C1C1C"/>
<path fill-rule="evenodd" clip-rule="evenodd" d="M3.99976 25C3.99976 24.4477 4.44747 24 4.99976 24H26.9998C27.552 24 27.9998 24.4477 27.9998 25C27.9998 25.5523 27.552 26 26.9998 26H4.99976C4.44747 26 3.99976 25.5523 3.99976 25Z" fill="#1C1C1C"/>
</svg>
