<svg width="32" height="32" viewBox="0 0 32 32" fill="none" xmlns="http://www.w3.org/2000/svg">
<path d="M6.73975 4.32733C6.72908 4.31559 6.71813 4.30411 6.70691 4.29289C6.53101 4.11699 6.29586 4.01296 6.04737 4.00113L6.04439 4.00099C6.02954 4.00033 6.01467 4 5.99981 4C5.75104 4 5.51121 4.09272 5.32713 4.26006C5.3154 4.27073 5.30392 4.28168 5.2927 4.29289C5.1168 4.4688 5.01277 4.70395 5.00094 4.95243L5.0008 4.95542C5.00014 4.97027 4.99981 4.98513 4.99981 5C4.99981 5.24877 5.09253 5.4886 5.25987 5.67267L25.2599 27.6727C25.4494 27.8811 25.7181 28 25.9998 28L26.004 28C26.2513 27.999 26.4895 27.9063 26.6725 27.7399C26.881 27.5504 26.9998 27.2818 26.9998 27L26.9998 26.9958C26.9988 26.7485 26.9061 26.5103 26.7397 26.3273L6.73975 4.32733Z" fill="#1C1C1C"/>
<path d="M4.68109 14.683C7.29976 12.0703 10.799 10.871 10.799 10.871C11.2033 10.7325 11.4748 10.3524 11.4748 9.92505L11.4748 9.92244C11.4745 9.813 11.4563 9.70436 11.4208 9.60083C11.2822 9.19659 10.9021 8.92505 10.4748 8.92505L10.4722 8.92505C10.3628 8.92534 10.2541 8.94359 10.1506 8.97907C6.21425 10.3282 3.26851 13.2671 3.26851 13.2671C1.40033 15.1374 1.23372 17.7739 1.23372 17.7739C1.06712 20.4104 2.68397 22.4996 2.68397 22.4996C3.09079 23.0317 3.74333 23.2071 3.74333 23.2071C4.39587 23.3825 5.0201 23.1239 5.0201 23.1239L10.9209 20.7662C11.3957 20.5704 11.7169 20.1837 11.7169 20.1837C12.038 19.797 12.1411 19.305 12.1411 19.305L12.8657 15.6196C13.6801 15.3336 14.5296 15.2005 14.5296 15.2005C15.0162 15.1242 15.3748 14.7051 15.3748 14.2126L15.3748 14.2048C15.3744 14.1556 15.3704 14.1064 15.3627 14.0577C15.2865 13.5711 14.8673 13.2126 14.3748 13.2125L14.3671 13.2126C14.3178 13.213 14.2686 13.217 14.22 13.2246L14.2189 13.2248C13.1893 13.3862 12.209 13.7305 12.209 13.7305C11.7126 13.903 11.3652 14.2972 11.3652 14.2972C11.0178 14.6914 10.9061 15.2196 10.9061 15.2196L10.1835 18.8951C10.1823 18.9011 10.1783 18.9059 10.1783 18.9059C10.176 18.9086 10.1765 18.9092 10.1765 18.9092C10.1769 18.9097 10.1788 18.9089 10.1788 18.9089L4.26342 21.2727C3.11085 19.7814 3.22974 17.9 3.22974 17.9C3.34875 16.0168 4.68109 14.683 4.68109 14.683Z" fill="#1C1C1C"/>
<path d="M27.7337 21.2715L27.2337 21.0715C27.1156 21.0242 26.9895 21 26.8623 21L26.8596 21C26.4517 21.001 26.0853 21.2498 25.9338 21.6286C25.8866 21.7467 25.8623 21.8727 25.8623 22L25.8623 22.0026C25.8634 22.4105 26.1122 22.7769 26.4909 22.9284L26.9909 23.1284C27.6037 23.3824 28.2563 23.207 28.2563 23.207C28.9088 23.0316 29.3192 22.4948 29.3192 22.4948C30.9325 20.4103 30.7659 17.7738 30.7659 17.7738C30.5993 15.1373 28.7323 13.2682 28.7323 13.2682C26.0149 10.5539 22.4279 9.18417 22.4279 9.18417C18.8411 7.81449 15.0076 8.02645 15.0076 8.02645C14.7428 8.0411 14.4941 8.16038 14.3172 8.35799C14.1531 8.54137 14.0623 8.77884 14.0623 9.02496L14.0623 9.02613C14.0623 9.04416 14.0628 9.06219 14.0638 9.08019C14.0932 9.61021 14.5315 10.025 15.0623 10.025L15.0673 10.0249C15.0841 10.0249 15.1008 10.0244 15.1175 10.0234C18.5257 9.83489 21.7144 11.0526 21.7144 11.0526C24.9031 12.2703 27.3173 14.6817 27.3173 14.6817C28.6509 16.0167 28.7699 17.8999 28.7699 17.8999C28.8886 19.7784 27.7362 21.2726 27.7362 21.2726C27.7352 21.2721 27.7337 21.2715 27.7337 21.2715Z" fill="#1C1C1C"/>
</svg>
