<svg width="32" height="32" viewBox="0 0 32 32" fill="none" xmlns="http://www.w3.org/2000/svg">
<path fill-rule="evenodd" clip-rule="evenodd" d="M8.05301 3.10555C8.54698 2.85856 9.14766 3.05878 9.39465 3.55276L17.6446 20.0528C17.8916 20.5467 17.6914 21.1474 17.1974 21.3944C16.7035 21.6414 16.1028 21.4412 15.8558 20.9472L7.60579 4.44719C7.3588 3.95321 7.55903 3.35254 8.05301 3.10555Z" fill="#1C1C1C"/>
<path fill-rule="evenodd" clip-rule="evenodd" d="M7.50024 4C7.50024 3.44772 7.94796 3 8.50024 3H16.7502C17.3025 3 17.7502 3.44772 17.7502 4V20.5C17.7502 21.0523 17.3025 21.5 16.7502 21.5H8.50024C7.94796 21.5 7.50024 21.0523 7.50024 20.5V4ZM9.50024 5V19.5H15.7502V5H9.50024Z" fill="#1C1C1C"/>
<path fill-rule="evenodd" clip-rule="evenodd" d="M8.50177 19.5C9.05406 19.5008 9.50109 19.9492 9.50025 20.5015C9.49881 21.4538 9.68531 22.397 10.0491 23.2771C10.4128 24.1572 10.9467 24.9568 11.6201 25.6302C12.2934 26.3036 13.0931 26.8374 13.9732 27.2012C14.5439 27.4371 15.1412 27.5984 15.7503 27.6823V20.5C15.7503 19.9477 16.198 19.5 16.7503 19.5C17.3025 19.5 17.7502 19.9477 17.7502 20.5L17.7503 28.75C17.7503 29.3017 17.3035 29.7492 16.7518 29.75C15.5363 29.7518 14.3325 29.5138 13.2092 29.0495C12.0859 28.5853 11.0653 27.9039 10.2058 27.0444C9.3464 26.185 8.665 25.1643 8.20073 24.0411C7.73645 22.9178 7.49841 21.7139 7.50025 20.4985C7.50109 19.9462 7.94949 19.4992 8.50177 19.5Z" fill="#1C1C1C"/>
<path fill-rule="evenodd" clip-rule="evenodd" d="M15.7502 4C15.7502 3.44772 16.198 3 16.7502 3H17.7502C20.2035 3 22.5563 3.97455 24.291 5.70926C26.0257 7.44397 27.0002 9.79675 27.0002 12.25C27.0002 14.7033 26.0257 17.056 24.291 18.7907C22.5563 20.5254 20.2035 21.5 17.7502 21.5H16.7502C16.198 21.5 15.7503 21.0523 15.7503 20.5C15.7503 19.9477 16.198 19.5 16.7503 19.5H17.7502C19.6731 19.5 21.5171 18.7362 22.8768 17.3765C24.2364 16.0169 25.0002 14.1728 25.0002 12.25C25.0002 10.3272 24.2364 8.48311 22.8768 7.12348C21.5171 5.76384 19.6731 5 17.7502 5H16.7502C16.198 5 15.7502 4.55228 15.7502 4Z" fill="#1C1C1C"/>
</svg>
