<svg width="32" height="32" viewBox="0 0 32 32" fill="none" xmlns="http://www.w3.org/2000/svg">
<path fill-rule="evenodd" clip-rule="evenodd" d="M5.29454 26.6998C5.29454 26.6998 3.34458 24.7498 3.34595 21.991C3.34595 21.991 3.34732 19.2328 5.29851 17.2816L17.2928 5.28728C17.2928 5.28728 19.244 3.33609 22.0022 3.33472C22.0022 3.33472 24.7611 3.33334 26.711 5.2833C26.711 5.2833 28.661 7.23326 28.6596 9.99209C28.6596 9.99209 28.6582 12.7503 26.7071 14.7015L14.7128 26.6958C14.7128 26.6958 12.7616 28.647 10.0033 28.6484C10.0033 28.6484 7.24449 28.6498 5.29454 26.6998ZM6.70875 25.2856C6.70875 25.2856 8.07251 26.6493 10.0023 26.6484C10.0023 26.6484 11.9327 26.6474 13.2985 25.2816L25.2928 13.2873C25.2928 13.2873 26.6587 11.9215 26.6596 9.99109C26.6596 9.99109 26.6606 8.06128 25.2968 6.69752C25.2968 6.69752 23.9331 5.33376 22.0032 5.33472C22.0032 5.33472 20.0728 5.33568 18.707 6.7015L6.71273 18.6958C6.71273 18.6958 5.34691 20.0616 5.34595 21.992C5.34595 21.992 5.34499 23.9218 6.70875 25.2856Z" fill="#1C1C1C"/>
<path d="M19.2923 20.7066C19.4798 20.8941 19.7347 21 19.9999 21C20.2651 21 20.5195 20.8946 20.707 20.7071C20.8946 20.5196 20.9999 20.2652 20.9999 20C20.9999 19.7348 20.8946 19.4804 20.707 19.2929L12.7072 11.293C12.5195 11.1054 12.2651 11 11.9999 11C11.7347 11 11.4804 11.1054 11.2928 11.2929C11.1053 11.4804 10.9999 11.7348 10.9999 12C10.9999 12.2652 11.1053 12.5196 11.2928 12.7071L19.2923 20.7066Z" fill="#1C1C1C"/>
<path d="M20.7078 14.7311L23.7576 11.7813C23.9524 11.5929 24.0624 11.3335 24.0624 11.0625C24.0624 11.0508 24.0622 11.0391 24.0618 11.0274C24.0531 10.7802 23.9532 10.5451 23.7812 10.3673C23.5928 10.1725 23.3334 10.0625 23.0624 10.0625C23.0507 10.0625 23.039 10.0627 23.0273 10.0631C22.7802 10.0718 22.545 10.1718 22.3672 10.3437L19.3174 13.2935C19.1224 13.4821 19.0124 13.7415 19.0124 14.0125C19.0124 14.0242 19.0126 14.0359 19.013 14.0476C19.0217 14.2948 19.1217 14.53 19.2936 14.7077C19.482 14.9025 19.7414 15.0125 20.0124 15.0125C20.0241 15.0125 20.0358 15.0123 20.0475 15.0119C20.2947 15.0032 20.5299 14.9032 20.7078 14.7311Z" fill="#1C1C1C"/>
</svg>
