<svg width="32" height="32" viewBox="0 0 32 32" fill="none" xmlns="http://www.w3.org/2000/svg">
<path d="M14.0267 10.771L10.0267 27.771C10.009 27.8461 10.0001 27.9229 10.0001 28.0001C10.0001 28.0159 10.0005 28.0318 10.0013 28.0477C10.0225 28.4935 10.3366 28.8712 10.7711 28.9735C10.8462 28.9911 10.923 29.0001 11.0001 29.0001L11.0128 29C11.1945 28.9977 11.372 28.9459 11.5265 28.8503C11.752 28.7107 11.9128 28.4873 11.9735 28.2291L15.9735 11.2291C15.9912 11.154 16.0001 11.0772 16.0001 11.0001C16.0001 10.9842 15.9997 10.9683 15.999 10.9524C15.9777 10.5066 15.6636 10.1289 15.2292 10.0266C15.1541 10.009 15.0772 10.0001 15.0001 10.0001L14.9874 10.0001C14.8058 10.0024 14.6282 10.0542 14.4738 10.1498C14.2483 10.2894 14.0875 10.5128 14.0267 10.771Z" fill="#1C1C1C"/>
<path d="M13.7111 19.95L13.7104 19.9484C13.5481 19.5916 13.1922 19.3625 12.8002 19.3625C12.6572 19.3626 12.5161 19.3932 12.3861 19.4523C12.1447 19.5622 11.9568 19.7634 11.8637 20.0117C11.8217 20.1239 11.8002 20.2427 11.8002 20.3625C11.8002 20.374 11.8004 20.3854 11.8008 20.3968C11.8053 20.5281 11.8356 20.6571 11.89 20.7767L11.8906 20.778C12.2865 21.6471 13.2642 22.453 13.2642 22.453C15.1412 24 18.0002 24 18.0002 24C19.7162 24 21.3401 23.2862 21.3401 23.2862C22.9631 22.5728 24.2209 21.2652 24.2209 21.2652C27.0002 18.3758 27.0002 14 27.0002 14C26.996 11.387 25.8185 9.05609 25.8185 9.05609C24.6409 6.72518 22.5414 5.17227 22.5414 5.17227C20.4418 3.61936 17.8683 3.17586 17.8683 3.17586C15.2948 2.73236 12.7966 3.49292 12.7966 3.49292C10.2983 4.25348 8.40851 6.05578 8.40851 6.05578C6.5187 7.85808 5.64064 10.3175 5.64064 10.3175C4.76258 12.7769 5.08366 15.3685 5.08366 15.3685C5.4047 17.9598 6.85607 20.1304 6.85607 20.1304C7.04171 20.408 7.35384 20.575 7.68769 20.575L7.6981 20.575C7.89246 20.573 8.08201 20.5143 8.24358 20.4063C8.46404 20.2589 8.61691 20.0299 8.66855 19.7697C8.68128 19.7056 8.68769 19.6404 8.68769 19.575C8.68769 19.5591 8.6873 19.5432 8.68654 19.5272C8.67786 19.3458 8.61991 19.1701 8.51894 19.0191C7.33119 17.2431 7.06848 15.1226 7.06848 15.1226C6.80578 13.0022 7.5242 10.99 7.5242 10.99C8.24261 8.97772 9.78882 7.5031 9.78882 7.5031C11.335 6.02849 13.379 5.40622 13.379 5.40622C15.4231 4.78395 17.5287 5.14681 17.5287 5.14681C19.6343 5.50968 21.3521 6.78024 21.3521 6.78024C23.0699 8.0508 24.0333 9.9579 24.0333 9.9579C24.9968 11.865 25.0002 14 25.0002 14C25.0002 17.5701 22.7795 19.8787 22.7795 19.8787C21.796 20.9011 20.5353 21.4553 20.5353 21.4553C19.296 22 18.0002 22 18.0002 22C15.8592 22 14.5362 20.9096 14.5362 20.9096C13.9157 20.3982 13.7111 19.95 13.7111 19.95Z" fill="#1C1C1C"/>
</svg>
