<svg width="32" height="32" viewBox="0 0 32 32" fill="none" xmlns="http://www.w3.org/2000/svg">
<path fill-rule="evenodd" clip-rule="evenodd" d="M15.348 15.9424L10.898 3.72995C10.7089 3.21104 10.9763 2.6371 11.4952 2.44802L11.5118 2.44214C11.5118 2.44214 14.4125 1.44267 17.182 2.76268C17.182 2.76268 19.9515 4.08269 21.0019 6.9653C21.0019 6.9653 22.0522 9.84791 20.7812 12.6402C20.7812 12.6402 19.5101 15.4326 16.6464 16.5335C16.3989 16.6287 16.1237 16.6216 15.8813 16.5138C15.639 16.4061 15.4494 16.2065 15.3542 15.9589L15.348 15.9424ZM18.9609 11.8116C18.9609 11.8116 18.2473 13.3794 16.8491 14.2201L13.1553 4.08289C13.1553 4.08289 14.7666 3.82699 16.3215 4.5681C16.3215 4.5681 18.3525 5.53611 19.1227 7.65002C19.1227 7.65002 19.893 9.76393 18.9609 11.8116Z" fill="#1C1C1C"/>
<path fill-rule="evenodd" clip-rule="evenodd" d="M15.9424 14.6521L3.72995 19.1021C3.21104 19.2912 2.6371 19.0238 2.44802 18.5049L2.44214 18.4883C2.44214 18.4883 1.44267 15.5877 2.76268 12.8182C2.76268 12.8182 4.08269 10.0487 6.9653 8.99829C6.9653 8.99829 9.8479 7.94793 12.6402 9.21899C12.6402 9.21899 15.4326 10.4901 16.5335 13.3537C16.6287 13.6013 16.6216 13.8765 16.5138 14.1188C16.4061 14.3612 16.2065 14.5508 15.9589 14.646L15.9424 14.6521ZM11.8116 11.0393C11.8116 11.0393 13.3794 11.7529 14.2201 13.1511L4.08289 16.8449C4.08289 16.8449 3.82699 15.2336 4.5681 13.6787C4.5681 13.6787 5.53611 11.6477 7.65002 10.8774C7.65002 10.8774 9.76393 10.1072 11.8116 11.0393Z" fill="#1C1C1C"/>
<path fill-rule="evenodd" clip-rule="evenodd" d="M14.6522 14.0575L19.1022 26.27C19.2912 26.789 19.0239 27.3629 18.5049 27.552L18.4884 27.5578C18.4884 27.5578 15.5877 28.5573 12.8182 27.2373C12.8182 27.2373 10.0487 25.9173 8.9983 23.0347C8.9983 23.0347 7.94794 20.1521 9.219 17.3598C9.219 17.3598 10.4901 14.5674 13.3537 13.4665C13.6013 13.3713 13.8765 13.3784 14.1189 13.4861C14.3612 13.5939 14.5508 13.7935 14.646 14.0411L14.6522 14.0575ZM11.0393 18.1884C11.0393 18.1884 11.7529 16.6206 13.1511 15.7799L16.8449 25.9171C16.8449 25.9171 15.2336 26.173 13.6787 25.4319C13.6787 25.4319 11.6477 24.4639 10.8774 22.35C10.8774 22.35 10.1072 20.2361 11.0393 18.1884Z" fill="#1C1C1C"/>
<path fill-rule="evenodd" clip-rule="evenodd" d="M14.0577 15.3478L26.2702 10.8978C26.5194 10.807 26.7945 10.8189 27.0349 10.9309C27.2753 11.0429 27.4614 11.2459 27.5522 11.495L27.558 11.5116C27.558 11.5116 28.5575 14.4123 27.2375 17.1818C27.2375 17.1818 25.9175 19.9513 23.0349 21.0017C23.0349 21.0017 20.1523 22.0521 17.36 20.781C17.36 20.781 14.5676 19.5099 13.4667 16.6462C13.3715 16.3987 13.3786 16.1235 13.4863 15.8811C13.5941 15.6388 13.7937 15.4492 14.0412 15.354L14.0577 15.3478ZM18.1885 18.9607C18.1885 18.9607 16.6208 18.2471 15.7801 16.8489L25.9173 13.1551C25.9173 13.1551 26.1732 14.7664 25.4321 16.3213C25.4321 16.3213 24.4641 18.3523 22.3502 19.1226C22.3502 19.1226 20.2362 19.8928 18.1885 18.9607Z" fill="#1C1C1C"/>
<path d="M27.2925 28.7066C27.48 28.8941 27.7349 29 28.0001 29C28.2653 29 28.5197 28.8946 28.7072 28.7071C28.8947 28.5196 29.0001 28.2652 29.0001 28C29.0001 27.7348 28.8947 27.4804 28.7072 27.2929L21.2698 19.8555C21.0822 19.6679 20.8278 19.5625 20.5626 19.5625C20.2974 19.5625 20.043 19.6679 19.8555 19.8554C19.6679 20.0429 19.5626 20.2973 19.5626 20.5625C19.5626 20.8277 19.6679 21.0821 19.8555 21.2696L27.2925 28.7066Z" fill="#1C1C1C"/>
</svg>
