<svg width="32" height="32" viewBox="0 0 32 32" fill="none" xmlns="http://www.w3.org/2000/svg">
<path fill-rule="evenodd" clip-rule="evenodd" d="M29.0289 14.2937C29.0289 14.2937 29.4773 14.5613 29.7362 15.0153C29.7362 15.0153 29.9974 15.473 29.9974 16C29.9974 16 29.9974 16.527 29.7362 16.9848C29.7362 16.9848 29.4751 17.4425 29.0215 17.7108L11.0467 28.7031C11.0467 28.7031 10.5875 28.9864 10.0442 28.9984C10.0442 28.9984 9.50094 29.0104 9.02628 28.7459C9.02628 28.7459 8.55162 28.4813 8.27611 28.0129C8.27611 28.0129 8.0006 27.5445 8 27.0011V5.00003C8 5.00003 8.0006 4.45551 8.27611 3.98712C8.27611 3.98712 8.55162 3.51873 9.02628 3.25417C9.02628 3.25417 9.50094 2.9896 10.0442 3.00162C10.0442 3.00162 10.5875 3.01363 11.05 3.29893L29.0289 14.2937ZM10 5.00113L27.9858 16.0001L10.0033 26.9969L10 26.9989L10 5.00113Z" fill="#1C1C1C"/>
</svg>
