<svg width="32" height="32" viewBox="0 0 32 32" fill="none" xmlns="http://www.w3.org/2000/svg">
<path d="M10.0088 12.1322L12.0088 27.1322C12.0438 27.3951 12.1819 27.6333 12.3925 27.7944C12.567 27.9277 12.7804 28 13 28L13.0117 27.9999C13.052 27.9995 13.0922 27.9966 13.1322 27.9912C13.629 27.925 14 27.5012 14 27L14 26.992C13.9996 26.9504 13.9967 26.909 13.9912 26.8678L11.9912 11.8678C11.925 11.371 11.5012 11 11 11L10.992 11C10.9504 11.0004 10.909 11.0033 10.8678 11.0088C10.371 11.075 10 11.4988 10 12L10 12.008C10.0004 12.0496 10.0033 12.091 10.0088 12.1322Z" fill="#1C1C1C"/>
<path d="M20.0087 11.8681L18.0088 26.8678C18.0029 26.9116 18 26.9558 18 27C18 27.0168 18.0004 27.0336 18.0013 27.0504C18.0256 27.5319 18.39 27.9275 18.8678 27.9912C18.9116 27.9971 18.9558 28 19 28L19.0128 27.9999C19.228 27.9972 19.4365 27.9251 19.6074 27.7944C19.8181 27.6333 19.9562 27.3951 19.9912 27.1322L21.9912 12.1324C21.997 12.0886 22 12.0442 22 12L21.9999 11.9872C21.9972 11.772 21.9251 11.5635 21.7944 11.3925C21.6333 11.1819 21.3951 11.0438 21.1322 11.0088C21.0884 11.0029 21.0442 11 21 11C20.9832 11 20.9664 11.0004 20.9496 11.0013C20.4681 11.0256 20.0725 11.3902 20.0087 11.8681Z" fill="#1C1C1C"/>
<path d="M4 10.5C4.00021 11.0522 4.44786 11.5 5 11.5C5.26522 11.4999 5.5199 11.3945 5.70737 11.2069C5.89474 11.0194 6 10.7651 6 10.5C5.99973 9.57857 6.45326 8.77576 6.45326 8.77576C6.90687 7.97348 7.69676 7.49865 7.69676 7.49865C8.48666 7.02381 9.40798 6.99958 9.40798 6.99958C10.3293 6.97535 11.1431 7.408 11.1431 7.408C11.3772 7.53251 11.6513 7.55889 11.9049 7.48134C12.1585 7.40379 12.371 7.22866 12.4955 6.99449C12.5389 6.91278 12.5708 6.82545 12.5902 6.73497C12.8491 5.52949 13.808 4.75455 13.808 4.75455C14.767 3.97961 16 3.97961 16 3.97961C17.233 3.97961 18.192 4.75455 18.192 4.75455C19.1509 5.52949 19.4098 6.73497 19.4098 6.73497C19.4655 6.99428 19.6219 7.22085 19.8446 7.36484C20.0673 7.50882 20.3381 7.55844 20.5974 7.50276C20.6879 7.48333 20.7752 7.45144 20.8569 7.408C21.6707 6.97535 22.592 6.99958 22.592 6.99958C23.5133 7.02381 24.3032 7.49865 24.3032 7.49865C25.0931 7.97348 25.5467 8.77576 25.5467 8.77576C26.0003 9.57804 26 10.4997 26 10.4997C26 10.5606 26.0056 10.6217 26.0166 10.6816C26.1042 11.1557 26.5175 11.4999 26.9996 11.5C27.0158 11.5 27.0318 11.4997 27.0477 11.4989C27.296 11.4871 27.531 11.3831 27.7068 11.2074C27.8944 11.0199 27.9999 10.7656 28 10.5004C28.0004 9.05234 27.2877 7.79141 27.2877 7.79141C26.5749 6.53069 25.3337 5.78452 25.3337 5.78452C24.0924 5.03835 22.6446 5.00027 22.6446 5.00027C21.7963 4.97796 21.0059 5.20217 21.0059 5.20217C20.4893 4.03958 19.449 3.19896 19.449 3.19896C17.94 1.97961 16 1.97961 16 1.97961C14.06 1.97961 12.551 3.19896 12.551 3.19896C11.5107 4.03957 10.9941 5.20217 10.9941 5.20217C10.2037 4.97796 9.35539 5.00027 9.35539 5.00027C7.90761 5.03835 6.66634 5.78452 6.66634 5.78452C5.42508 6.53069 4.71227 7.79141 4.71227 7.79141C3.99955 9.05197 4 10.5 4 10.5Z" fill="#1C1C1C"/>
</svg>
