<svg width="32" height="32" viewBox="0 0 32 32" fill="none" xmlns="http://www.w3.org/2000/svg">
<path fill-rule="evenodd" clip-rule="evenodd" d="M25.0002 26H19C19 26 17.3281 26 16.1566 24.7846C16.1566 24.7846 15 23.5847 15 21.8875C15 21.8875 15 20.1903 16.1566 18.9904C16.1566 18.9904 17.3281 17.775 19 17.775C19 17.775 19.2096 17.7734 19.4151 17.795C19.4151 17.795 19.8381 16.7117 20.6716 15.8439C20.6716 15.8439 21.8754 14.5905 23.5627 14.1744C23.5627 14.1744 25.25 13.7584 26.8985 14.3086C26.8985 14.3086 28.5469 14.8588 29.6462 16.2048C29.6462 16.2048 30.7454 17.5508 30.9551 19.276C30.9551 19.276 31.1648 21.0011 30.4201 22.5713C30.4201 22.5713 29.6753 24.1415 28.2067 25.0705C28.2067 25.0705 26.7381 25.9996 25.0002 26ZM19 24H25C25 24 26.1584 23.9997 27.1375 23.3804C27.1375 23.3804 28.1166 22.761 28.6131 21.7142C28.6131 21.7142 29.1096 20.6674 28.9697 19.5173C28.9697 19.5173 28.8299 18.3672 28.0971 17.4699C28.0971 17.4699 27.3643 16.5725 26.2653 16.2057C26.2653 16.2057 25.1663 15.8389 24.0414 16.1163C24.0414 16.1163 22.9166 16.3936 22.114 17.2292C22.114 17.2292 21.3115 18.0648 21.0798 19.2C21.0658 19.2686 21.0446 19.3355 21.0166 19.3997C20.9106 19.6428 20.7124 19.8339 20.4655 19.9308C20.2187 20.0277 19.9434 20.0226 19.7003 19.9166C19.7003 19.9166 19.369 19.7722 19 19.775C19 19.775 18.1781 19.775 17.5965 20.3784C17.5965 20.3784 17 20.9973 17 21.8875C17 21.8875 17 22.7777 17.5965 23.3966C17.5965 23.3966 18.1781 24 19 24Z" fill="#1C1C1C"/>
<path d="M21.6646 12.1162L21.6656 12.1172C21.8523 12.2986 22.1023 12.4 22.3625 12.4L22.3769 12.3999C22.6421 12.3961 22.8949 12.2871 23.0797 12.0969C23.261 11.9103 23.3625 11.6603 23.3625 11.4L23.3624 11.3857C23.3586 11.1205 23.2496 10.8677 23.0594 10.6828C23.0582 10.6817 23.0572 10.6807 23.0572 10.6807C20.2486 7.95283 16.4003 7.22985 16.4003 7.22985C12.5506 6.5066 8.94211 8.03062 8.94211 8.03062C5.33365 9.55463 3.16786 12.8185 3.16786 12.8185C1.00206 16.0824 1 19.9995 1 19.9995L1 22C1 22.5523 1.44772 23 2 23C2.55228 23 3 22.5523 3 22L3 20.0005C3.00174 16.6861 4.83434 13.9243 4.83434 13.9243C6.66694 11.1626 9.72025 9.87303 9.72025 9.87303C12.7736 8.58348 16.031 9.19546 16.031 9.19546C19.2878 9.80732 21.6646 12.1162 21.6646 12.1162Z" fill="#1C1C1C"/>
<path d="M14.577 13.0202C16.55 13.1834 18.1453 14.3558 18.1453 14.3558C18.317 14.482 18.5245 14.55 18.7375 14.55C18.7536 14.55 18.7696 14.5496 18.7856 14.5488C19.0866 14.5343 19.3649 14.3849 19.5433 14.1422C19.6695 13.9705 19.7375 13.763 19.7375 13.55L19.7375 13.5437C19.7372 13.4952 19.7333 13.4469 19.726 13.3989C19.686 13.1368 19.5434 12.9012 19.3297 12.7442C17.2786 11.2368 14.7418 11.027 14.7418 11.027C12.205 10.8172 9.93416 11.9671 9.93416 11.9671C7.66328 13.1171 6.33107 15.286 6.33107 15.286C4.99886 17.455 5 20.0004 5 20.0004V22C5 22.5523 5.44772 23 6 23C6.55229 23 7 22.5523 7 22V19.9995C6.99911 18.0198 8.03527 16.3328 8.03527 16.3328C9.07144 14.6458 10.8377 13.7514 10.8377 13.7514C12.6039 12.857 14.577 13.0202 14.577 13.0202Z" fill="#1C1C1C"/>
<path d="M14.0035 17C14.3479 16.9988 14.6819 17.0825 14.6819 17.0825C14.7614 17.1025 14.843 17.1125 14.925 17.1125C14.9361 17.1125 14.9471 17.1124 14.9582 17.112C15.4042 17.0972 15.7865 16.7886 15.895 16.3557C15.9149 16.2762 15.925 16.1945 15.925 16.1125C15.925 16.0966 15.9246 16.0807 15.9239 16.0648C15.916 15.9002 15.8675 15.74 15.7828 15.5986C15.6465 15.3711 15.4254 15.207 15.1681 15.1425C14.5912 14.9979 13.9965 15 13.9965 15C11.9289 15 10.4645 16.4645 10.4645 16.4645C9 17.929 9 20 9 20V22C9 22.5523 9.44771 23 10 23C10.5523 23 11 22.5523 11 22V20C11 18.7574 11.8787 17.8787 11.8787 17.8787C12.7574 17 14.0035 17 14.0035 17Z" fill="#1C1C1C"/>
</svg>
