<svg width="32" height="32" viewBox="0 0 32 32" fill="none" xmlns="http://www.w3.org/2000/svg">
<path d="M17.4145 26L19.7073 23.7071C19.8949 23.5196 20.0002 23.2652 20.0002 23C20.0002 22.7348 19.8949 22.4804 19.7073 22.2929C19.5198 22.1054 19.2655 22 19.0002 22C18.735 22 18.4807 22.1054 18.2931 22.2929L15.2931 25.2929C14.9026 25.6834 14.9026 26.3166 15.2931 26.7071L18.2928 29.7068C18.4804 29.8943 18.735 30 19.0002 30C19.2655 30 19.5198 29.8946 19.7073 29.7071C19.8949 29.5196 20.0002 29.2652 20.0002 29C20.0002 28.7348 19.8949 28.4804 19.7073 28.2929L17.4145 26Z" fill="#1C1C1C"/>
<path d="M22.5187 12.2742L19.3976 11.4343C19.3128 11.4115 19.2255 11.3999 19.1377 11.3999L19.1218 11.4C18.6756 11.4071 18.288 11.7091 18.1721 12.14C18.1492 12.2248 18.1377 12.3121 18.1377 12.3999L18.1378 12.4158C18.1449 12.862 18.4468 13.2496 18.8778 13.3655L22.9653 14.4655C23.4986 14.6091 24.0473 14.2931 24.1908 13.7598L25.2909 9.65945C25.3136 9.57494 25.3252 9.4874 25.3252 9.3999L25.3251 9.38327C25.3176 8.93702 25.0154 8.54971 24.5843 8.43406C24.4998 8.41139 24.4127 8.3999 24.3252 8.3999L24.294 8.40039C24.1292 8.40553 23.9683 8.45133 23.8255 8.53372C23.5957 8.66625 23.4281 8.88462 23.3594 9.14077L22.5187 12.2742Z" fill="#1C1C1C"/>
<path d="M4.41616 13.6342C4.16001 13.7029 3.94164 13.8706 3.80911 14.1003C3.72144 14.2522 3.67529 14.4246 3.67529 14.6L3.67546 14.6183C3.67695 14.6997 3.68837 14.7805 3.70945 14.8591C3.77817 15.1153 3.94584 15.3337 4.17557 15.4662C4.32752 15.5539 4.49986 15.6 4.67529 15.6L4.69362 15.5998C4.77497 15.5983 4.85584 15.5869 4.93442 15.5658L8.06858 14.725L8.90933 17.8587C9.02658 18.2957 9.42281 18.6 9.87529 18.6L9.88284 18.6C9.96781 18.5993 10.0524 18.5879 10.1344 18.5658C10.5715 18.4486 10.8753 18.0525 10.8753 17.6L10.8753 17.5925C10.8746 17.5075 10.8632 17.4229 10.8411 17.3409L9.74113 13.2409C9.67241 12.9847 9.50474 12.7664 9.27501 12.6338C9.04529 12.5013 8.77232 12.4654 8.51616 12.5342L4.41616 13.6342Z" fill="#1C1C1C"/>
<path d="M26.6041 17.3255C26.5948 17.3095 26.5849 17.2932 26.5747 17.2777C26.4401 17.0718 26.2343 16.9227 25.9966 16.859L25.9896 16.8572C25.9073 16.8358 25.8227 16.825 25.7377 16.825C25.5622 16.825 25.3898 16.8712 25.2378 16.9589C25.2218 16.9682 25.206 16.9778 25.1905 16.988C24.908 17.1727 24.7377 17.4874 24.7377 17.825C24.7377 18.0005 24.7839 18.1729 24.8717 18.3249L27.8592 23.4999C27.993 23.7316 27.9932 23.9991 27.9932 23.9991C27.9934 24.2666 27.8601 24.4984 27.8601 24.4984C27.7268 24.7303 27.4955 24.8647 27.4955 24.8647C27.2642 24.999 26.9967 25 26.9967 25L16.0002 25C15.448 25 15.0002 25.4477 15.0002 26C15.0002 26.5522 15.448 27 16.0002 27L27.0038 26.9999C27.8062 26.9971 28.5001 26.5941 28.5001 26.5941C29.1939 26.191 29.5939 25.4954 29.5939 25.4954C29.9939 24.7997 29.9932 23.9973 29.9932 23.9973C29.9925 23.1949 29.5913 22.5 29.5913 22.5L26.6041 17.3255Z" fill="#1C1C1C"/>
<path d="M9.64071 14.001C9.64866 13.9873 9.65628 13.9734 9.66356 13.9593C9.73697 13.8173 9.77528 13.6598 9.77528 13.5C9.77528 13.1432 9.58513 12.8134 9.27632 12.6346C9.26259 12.6266 9.24867 12.619 9.23457 12.6117C9.0926 12.5383 8.93511 12.5 8.77528 12.5C8.41844 12.5 8.08864 12.6901 7.90985 12.999L2.40926 22.5C2.00804 23.1949 2.00733 23.9974 2.00733 23.9974C2.00661 24.7998 2.40661 25.4954 2.40661 25.4954C2.8066 26.1911 3.50046 26.5941 3.50046 26.5941C4.19433 26.9972 5.00028 27 5.00028 27H11.0003C11.5526 27 12.0003 26.5523 12.0003 26C12.0003 25.4477 11.5526 25 11.0003 25H5.00028C4.73632 24.9991 4.50504 24.8647 4.50504 24.8647C4.27375 24.7304 4.14042 24.4985 4.14042 24.4985C4.00709 24.2666 4.00732 23.9991 4.00732 23.9991C4.00756 23.7316 4.1413 23.5 4.1413 23.5L9.64071 14.001Z" fill="#1C1C1C"/>
<path d="M13.4101 3.49854L10.4101 8.67354C10.3218 8.82592 10.2753 8.99894 10.2753 9.17507C10.2753 9.19296 10.2757 9.21084 10.2767 9.22871C10.2948 9.56576 10.4817 9.87093 10.7737 10.0402C10.9261 10.1286 11.0991 10.1751 11.2753 10.1751L11.2915 10.1749C11.3729 10.1736 11.4538 10.1624 11.5324 10.1415C11.7887 10.0733 12.0074 9.90605 12.1404 9.6766L15.1404 4.5016C15.2751 4.26624 15.5049 4.133 15.5049 4.133C15.7347 3.99976 16.0003 3.99976 16.0003 3.99976C16.2659 3.99976 16.4956 4.133 16.4956 4.133C16.7254 4.26624 16.8573 4.49677 16.8573 4.49677L22.3598 14.001C22.5386 14.3099 22.8684 14.5001 23.2253 14.5001C23.2411 14.5001 23.257 14.4997 23.2728 14.4989C23.4325 14.4913 23.588 14.4456 23.7263 14.3655C24.0351 14.1867 24.2253 13.8569 24.2253 13.5001C24.2253 13.4842 24.2249 13.4683 24.2241 13.4525C24.2165 13.2929 24.1708 13.1374 24.0907 12.999L18.5932 3.50338C18.1941 2.80596 17.4989 2.40286 17.4989 2.40286C16.8038 1.99976 16.0003 1.99976 16.0003 1.99976C15.1967 1.99976 14.5016 2.40286 14.5016 2.40286C13.8065 2.80596 13.4101 3.49854 13.4101 3.49854Z" fill="#1C1C1C"/>
</svg>
