<svg width="32" height="32" viewBox="0 0 32 32" fill="none" xmlns="http://www.w3.org/2000/svg">
<path fill-rule="evenodd" clip-rule="evenodd" d="M23.5001 1C23.5001 1 24.7428 1 25.6214 1.87868C25.6214 1.87868 26.5001 2.75736 26.5001 4C26.5001 4 26.5001 5.24264 25.6214 6.12132C25.6214 6.12132 24.7428 7 23.5001 7C23.5001 7 22.2575 7 21.3788 6.12132C21.3788 6.12132 20.5001 5.24264 20.5001 4C20.5001 4 20.5001 2.75736 21.3788 1.87868C21.3788 1.87868 22.2575 1 23.5001 1ZM23.5001 3C23.5001 3 23.0859 3 22.793 3.29289C22.793 3.29289 22.5001 3.58579 22.5001 4C22.5001 4 22.5001 4.41421 22.793 4.70711C22.793 4.70711 23.0859 5 23.5001 5C23.5001 5 23.9143 5 24.2072 4.70711C24.2072 4.70711 24.5001 4.41421 24.5001 4C24.5001 4 24.5001 3.58579 24.2072 3.29289C24.2072 3.29289 23.9143 3 23.5001 3Z" fill="#1C1C1C"/>
<path d="M12.3344 21.1117C12.1925 21.0384 12.0348 21 11.8751 21C11.5012 21.0001 11.1583 21.2088 10.9867 21.541C10.9134 21.6829 10.8751 21.8403 10.8751 22C10.8753 22.3739 11.084 22.7168 11.4162 22.8885C13.5728 24.0025 16.0001 24.0025 16.0001 24.0025C18.4275 24.0025 20.5841 22.8885 20.5841 22.8885C20.8197 22.7667 20.9974 22.5564 21.0779 22.3037C21.1092 22.2055 21.1251 22.1031 21.1251 22C21.1251 21.9885 21.1249 21.9771 21.1245 21.9656C21.1194 21.8176 21.0815 21.6726 21.0136 21.541C20.8918 21.3054 20.6815 21.1278 20.4288 21.0472C20.3306 21.0159 20.2282 21 20.1251 21C20.1136 21 20.1022 21.0002 20.0907 21.0006C19.9427 21.0057 19.7977 21.0436 19.6661 21.1116C17.9415 22.0024 16.0001 22.0025 16.0001 22.0025C14.059 22.0025 12.3344 21.1117 12.3344 21.1117Z" fill="#1C1C1C"/>
<path d="M17.824 4.13924L21.3722 4.68814C21.4228 4.69596 21.4739 4.69989 21.5251 4.69989L21.5546 4.69946C22.0365 4.68524 22.4397 4.32921 22.5134 3.85277C22.5212 3.80219 22.5251 3.75108 22.5251 3.69989C22.5251 3.68624 22.5248 3.67259 22.5243 3.65895C22.5162 3.46068 22.4492 3.26931 22.332 3.1092C22.1754 2.8952 21.9401 2.75219 21.678 2.71165L17.153 2.01165C16.6117 1.92791 16.1038 2.29521 16.0137 2.83549L15.0137 8.83549C15.0047 8.88982 15.0001 8.94481 15.0001 8.99989L15.0003 9.01772C15.0089 9.49975 15.3602 9.90703 15.8357 9.98629C15.8901 9.99534 15.945 9.99989 16.0001 9.99989L16.0294 9.99946C16.2278 9.99365 16.4199 9.92896 16.5814 9.81363C16.7972 9.65947 16.9429 9.4259 16.9865 9.16429L17.824 4.13924Z" fill="#1C1C1C"/>
<path fill-rule="evenodd" clip-rule="evenodd" d="M30.3152 15.2421C30.3152 15.2421 30.0501 15.6349 29.7098 15.948C29.7098 15.948 30.001 16.9454 30.0002 18C30.0002 18 30.0002 20.1138 28.8312 22.0266C28.8312 22.0266 27.7337 23.8222 25.7598 25.188C25.7598 25.188 23.8274 26.525 21.3392 27.2531C21.3392 27.2531 18.787 28 16.0002 28C16.0002 28 13.2134 28 10.6611 27.2531C10.6611 27.2531 8.17291 26.525 6.24057 25.188C6.24057 25.188 4.26663 23.8222 3.16918 22.0266C3.16918 22.0266 2.00018 20.1138 2.00018 18.0008C2.00018 18.0008 1.99931 16.9456 2.29055 15.948C2.29055 15.948 1.95031 15.6349 1.68516 15.2421C1.68516 15.2421 1.18045 14.4943 1.04557 13.6023C1.04557 13.6023 0.910696 12.7103 1.17177 11.8467C1.17177 11.8467 1.43284 10.9832 2.03932 10.3153C2.03932 10.3153 2.64579 9.64739 3.48024 9.30449C3.48024 9.30449 4.31469 8.96158 5.21554 9.01006C5.21554 9.01006 6.11639 9.05853 6.90923 9.489C6.90923 9.489 7.29245 9.69707 7.61457 9.97491C7.61457 9.97491 11.2671 8 16.0002 8C16.0002 8 20.7332 8 24.3858 9.97491C24.3858 9.97491 24.7079 9.69706 25.0911 9.489C25.0911 9.489 25.884 9.05853 26.7848 9.01006C26.7848 9.01006 27.6857 8.96158 28.5201 9.30449C28.5201 9.30449 29.3546 9.64739 29.961 10.3153C29.961 10.3153 30.5675 10.9832 30.8286 11.8467C30.8286 11.8467 31.0897 12.7103 30.9548 13.6023C30.9548 13.6023 30.8199 14.4943 30.3152 15.2421ZM28.0167 14.7264L28.0183 14.7255C28.0183 14.7255 28.4056 14.4963 28.6575 14.1232C28.6575 14.1232 28.9098 13.7493 28.9773 13.3033C28.9773 13.3033 29.0447 12.8573 28.9142 12.4255C28.9142 12.4255 28.7836 11.9937 28.4804 11.6598C28.4804 11.6598 28.1771 11.3258 27.7599 11.1544C27.7599 11.1544 27.3427 10.9829 26.8923 11.0072C26.8923 11.0072 26.4419 11.0314 26.0454 11.2466C26.0454 11.2466 25.649 11.4619 25.3834 11.8264C25.0765 12.2476 24.4976 12.3625 24.0532 12.0904C24.0532 12.0904 20.6375 9.99989 16.0001 9.99989C16.0001 9.99989 11.3628 10 7.94719 12.0904L6.62651 11.8393L6.61699 11.8264L6.61591 11.8249C6.61591 11.8249 6.35053 11.4614 5.95492 11.2466C5.95492 11.2466 5.5585 11.0314 5.10808 11.0072C5.10808 11.0072 4.65765 10.9829 4.24043 11.1544C4.24043 11.1544 3.8232 11.3258 3.51997 11.6598C3.51997 11.6598 3.21673 11.9937 3.08619 12.4255C3.08619 12.4255 2.95566 12.8573 3.0231 13.3033C3.0231 13.3033 3.09053 13.7493 3.34289 14.1232C3.34289 14.1232 3.59525 14.4971 3.98366 14.7264C4.39879 14.9716 4.57991 15.478 4.4144 15.9308C4.40992 15.9431 4.40519 15.9553 4.40023 15.9673L4.39952 15.9691C4.39952 15.9691 3.99931 16.9446 4.00018 17.9992C4.00018 17.9992 4.00018 19.5511 4.8757 20.9836C4.8757 20.9836 5.75251 22.4182 7.37853 23.5433C7.37853 23.5433 9.04497 24.6963 11.2228 25.3336C11.2228 25.3336 13.5 26 16.0002 26C16.0002 26 18.5004 26 20.7775 25.3336C20.7775 25.3336 22.9554 24.6963 24.6218 23.5433C24.6218 23.5433 26.2478 22.4182 27.1247 20.9836C27.1247 20.9836 28.0002 19.5511 28.0002 18C28.0002 18 28.001 16.9437 27.6001 15.9673C27.5182 15.7678 27.503 15.5471 27.5568 15.3382C27.6229 15.0813 27.7883 14.8613 28.0167 14.7264Z" fill="#1C1C1C"/>
<path d="M13.0001 16.5C13.0001 17.6046 12.1047 18.5 11.0001 18.5C9.89555 18.5 9.00012 17.6046 9.00012 16.5C9.00012 15.3954 9.89555 14.5 11.0001 14.5C12.1047 14.5 13.0001 15.3954 13.0001 16.5Z" fill="#1C1C1C"/>
<path d="M23.0001 16.5C23.0001 17.6046 22.1047 18.5 21.0001 18.5C19.8956 18.5 19.0001 17.6046 19.0001 16.5C19.0001 15.3954 19.8956 14.5 21.0001 14.5C22.1047 14.5 23.0001 15.3954 23.0001 16.5Z" fill="#1C1C1C"/>
</svg>
