<svg width="32" height="32" viewBox="0 0 32 32" fill="none" xmlns="http://www.w3.org/2000/svg">
<path d="M17.9999 27H13.9999C13.4476 27 12.9999 27.4477 12.9999 28C12.9999 28.5523 13.4476 29 13.9999 29H17.9999C18.5522 29 18.9999 28.5523 18.9999 28C18.9999 27.4477 18.5522 27 17.9999 27Z" fill="#1C1C1C"/>
<path fill-rule="evenodd" clip-rule="evenodd" d="M15.9999 1.24829C15.9999 1.24829 16.7162 1.24829 17.2561 1.69935C17.2561 1.69935 18.6637 2.84487 19.8732 4.32001C19.8732 4.32001 21.7009 6.54914 22.677 9.08621C22.677 9.08621 25.4728 16.3534 20.8704 24.4922C20.6929 24.806 20.3604 25 19.9999 25H11.9999C11.6425 25 11.3123 24.8092 11.1337 24.4997C11.1337 24.4997 6.43603 16.357 9.26308 9.07853C9.26308 9.07853 10.2495 6.53879 12.1008 4.30987C12.1008 4.30987 13.3289 2.83114 14.7339 1.70744C14.7339 1.70744 15.2836 1.24829 15.9999 1.24829ZM13.6393 5.58771C13.6393 5.58771 14.7304 4.27403 15.9997 3.25547C15.9997 3.25547 17.2475 4.27202 18.3266 5.58811C18.3266 5.58811 19.95 7.56803 20.8104 9.80433C20.8104 9.80433 23.1818 15.9685 19.4093 23H12.5847C12.5847 23 8.73237 15.9688 11.1274 9.80264C11.1274 9.80264 11.996 7.56628 13.6393 5.58771Z" fill="#1C1C1C"/>
<path d="M12.624 24.7814C12.8612 24.5917 12.9999 24.3038 12.9999 24C12.9999 23.9853 12.9996 23.9705 12.9989 23.9557C12.9895 23.744 12.9131 23.5408 12.7808 23.3754C12.591 23.1381 12.3037 23 11.9999 23C11.9851 23 11.9703 23.0004 11.9556 23.001C11.7439 23.0104 11.5407 23.0868 11.3752 23.2192L7.6257 26.2188L6.08889 19.2594L6.08816 19.2561L10.0047 14.5664C10.1549 14.3866 10.2374 14.1593 10.2374 13.925L10.2374 13.9198C10.2373 13.8917 10.2359 13.8636 10.2334 13.8356C10.2097 13.5714 10.082 13.3275 9.8784 13.1575C9.69857 13.0073 9.47171 12.925 9.23742 12.925L9.23217 12.9251C9.20404 12.9252 9.17594 12.9265 9.14792 12.9291C8.88377 12.9528 8.63987 13.0805 8.46987 13.2841L4.55316 17.9743C4.24426 18.3346 4.13555 18.7967 4.13555 18.7967C4.02878 19.2504 4.13856 19.7026 4.13856 19.7026L5.67414 26.6563C5.78727 27.161 6.13087 27.5475 6.13087 27.5475C6.47446 27.9341 6.96237 28.1056 6.96237 28.1056C7.45029 28.2771 7.96018 28.1906 7.96018 28.1906C8.47009 28.1041 8.87461 27.7809 8.87461 27.7809L12.624 24.7814Z" fill="#1C1C1C"/>
<path d="M20.6251 23.2195C20.4478 23.0776 20.227 23 19.9999 23L19.9927 23C19.6915 23.0021 19.4072 23.14 19.219 23.3753C19.0772 23.5526 18.9999 23.7729 18.9999 24L18.9999 24.0019C19 24.0382 19.002 24.0744 19.006 24.1104C19.0353 24.374 19.1681 24.6151 19.3752 24.7808L23.1252 27.7808C23.5297 28.104 24.0396 28.1905 24.0396 28.1905C24.5495 28.277 25.0375 28.1055 25.0375 28.1055C25.5254 27.934 25.869 27.5474 25.869 27.5474C26.2126 27.1609 26.3257 26.6562 26.3257 26.6562L27.8613 19.7025C27.9711 19.2504 27.8643 18.7966 27.8643 18.7966C27.7556 18.3345 27.4467 17.9742 27.4467 17.9742L23.4556 13.1848C23.2656 12.9568 22.9842 12.825 22.6874 12.825L22.6746 12.825C22.4451 12.828 22.2236 12.9098 22.0472 13.0567C21.8192 13.2467 21.6874 13.5282 21.6874 13.825L21.6875 13.8378C21.6904 14.0673 21.7722 14.2888 21.9192 14.4651L25.9117 19.256L25.9109 19.2593L24.3741 26.2187L20.6251 23.2195Z" fill="#1C1C1C"/>
<path d="M17.4999 12C17.4999 12.8284 16.8283 13.5 15.9999 13.5C15.1715 13.5 14.4999 12.8284 14.4999 12C14.4999 11.1716 15.1715 10.5 15.9999 10.5C16.8283 10.5 17.4999 11.1716 17.4999 12Z" fill="#1C1C1C"/>
</svg>
