<svg width="32" height="32" viewBox="0 0 32 32" fill="none" xmlns="http://www.w3.org/2000/svg">
<path d="M12.4733 23.3159C13.0044 24.6038 13 25.9969 13 25.9969C13 26.0129 13.0003 26.0289 13.001 26.0449C13.0122 26.2933 13.1154 26.5285 13.2907 26.7049C13.4776 26.893 13.7316 26.9992 13.9969 27L14 27C14.06 27 14.1199 26.9946 14.1789 26.9839L15 26C15.005 24.2091 14.3222 22.5534 14.3222 22.5534C13.6389 20.8962 12.3713 19.6287 12.3713 19.6287C11.1038 18.3611 9.4466 17.6778 9.4466 17.6778C7.78959 16.9945 5.99724 17 5.99724 17C5.44611 17.0017 5 17.4489 5 18L5 18.0031C5.00174 18.5542 5.44894 19 6 19L6.00314 19C7.39604 18.9957 8.68414 19.5267 8.68414 19.5267C9.97203 20.0578 10.9571 21.0429 10.9571 21.0429C11.9422 22.028 12.4733 23.3159 12.4733 23.3159Z" fill="#1C1C1C"/>
<path d="M18.0104 21.0251C19 23.4141 19 26 19 26C19 26.5522 19.4477 27 20 27C20.5523 27 21 26.5522 21 26C21 23.0163 19.8582 20.2597 19.8582 20.2597C18.7164 17.5031 16.6066 15.3934 16.6066 15.3934C14.4968 13.2836 11.7403 12.1418 11.7403 12.1418C8.98369 11 6 11 6 11C5.44772 11 5 11.4477 5 12C5 12.5522 5.44772 13 6 13C8.58586 13 10.9749 13.9895 10.9749 13.9895C13.3639 14.9791 15.1924 16.8076 15.1924 16.8076C17.0209 18.6361 18.0104 21.0251 18.0104 21.0251Z" fill="#1C1C1C"/>
<path d="M25 25.9971L25 26C25 26.0604 25.0055 26.1207 25.0164 26.1801C25.1032 26.6543 25.516 26.9991 25.9981 27L26 27C26.0604 27 26.1207 26.9945 26.1801 26.9836C26.6543 26.8968 26.9991 26.484 27 26.0019L27 26C27.0075 21.8215 25.4069 17.9617 25.4069 17.9617C23.806 14.101 20.8427 11.1535 20.8427 11.1535C17.899 8.19405 14.0383 6.59309 14.0383 6.59309C10.1776 4.99214 5.99812 5 5.99812 5C5.44657 5.00104 5 5.44845 5 6L5 6.00188C5.0005 6.2671 5.10634 6.52125 5.29422 6.70843C5.48165 6.89516 5.73544 7 6 7L6.00188 7C9.7807 6.99306 13.2722 8.44055 13.2722 8.44055C16.7633 9.88821 19.4323 12.5715 19.4323 12.5715C22.1118 15.2367 23.5594 18.7278 23.5594 18.7278C25.0069 22.2184 25 25.9971 25 25.9971Z" fill="#1C1C1C"/>
<path d="M8 25.5C8 26.3284 7.32843 27 6.5 27C5.67157 27 5 26.3284 5 25.5C5 24.6715 5.67157 24 6.5 24C7.32843 24 8 24.6715 8 25.5Z" fill="#1C1C1C"/>
</svg>
