<svg width="32" height="32" viewBox="0 0 32 32" fill="none" xmlns="http://www.w3.org/2000/svg">
<path fill-rule="evenodd" clip-rule="evenodd" d="M3.00034 22.4081C3.00034 22.4081 2.41455 21.8223 2.41455 20.9939C2.41455 20.9939 2.41455 20.1655 3.00034 19.5797L19.582 2.99802C19.582 2.99802 20.1678 2.41223 20.9962 2.41223C20.9962 2.41223 21.8246 2.41223 22.4104 2.99802L28.9962 9.58384C28.9962 9.58384 29.582 10.1696 29.582 10.998C29.582 10.998 29.582 11.8265 28.9962 12.4123L12.4146 28.9939C12.4146 28.9939 11.8288 29.5797 11.0004 29.5797C11.0004 29.5797 10.1719 29.5797 9.58615 28.9939L3.00034 22.4081ZM4.41455 20.9939L11.0004 27.5797L27.582 10.998L20.9962 4.41223L4.41455 20.9939Z" fill="#1C1C1C"/>
<path d="M19.7924 12.2068C19.9799 12.3943 20.2346 12.5 20.4998 12.5C20.5171 12.5 20.5343 12.4995 20.5516 12.4986C20.7986 12.4859 21.032 12.382 21.2069 12.2071C21.3945 12.0196 21.4998 11.7652 21.4998 11.5C21.4998 11.2348 21.3945 10.9804 21.2069 10.7929L17.2069 6.79288C17.0194 6.60535 16.765 6.49999 16.4998 6.49999C16.2346 6.49999 15.9802 6.60535 15.7927 6.79288C15.6052 6.98042 15.4998 7.23477 15.4998 7.49999C15.4998 7.76521 15.6052 8.01956 15.7927 8.2071L19.7924 12.2068Z" fill="#1C1C1C"/>
<path d="M15.2924 16.7068C15.4799 16.8943 15.7346 17 15.9998 17C16.0171 17 16.0343 16.9995 16.0516 16.9986C16.2986 16.9859 16.532 16.882 16.7069 16.7071C16.8945 16.5196 16.9998 16.2652 16.9998 16C16.9998 15.7348 16.8945 15.4804 16.7069 15.2929L12.7069 11.2929C12.5194 11.1053 12.265 11 11.9998 11C11.7346 11 11.4802 11.1053 11.2927 11.2929C11.1052 11.4804 10.9998 11.7348 10.9998 12C10.9998 12.2652 11.1052 12.5196 11.2927 12.7071L15.2924 16.7068Z" fill="#1C1C1C"/>
<path d="M10.7924 21.2068C10.9799 21.3943 11.2346 21.5 11.4998 21.5C11.5171 21.5 11.5343 21.4995 11.5516 21.4986C11.7986 21.4859 12.032 21.382 12.2069 21.2071C12.3945 21.0196 12.4998 20.7652 12.4998 20.5C12.4998 20.2348 12.3945 19.9804 12.2069 19.7929L8.20693 15.7929C8.01939 15.6053 7.76504 15.5 7.49982 15.5C7.2346 15.5 6.98025 15.6053 6.79271 15.7929C6.60518 15.9804 6.49982 16.2348 6.49982 16.5C6.49982 16.7652 6.60518 17.0196 6.79271 17.2071L10.7924 21.2068Z" fill="#1C1C1C"/>
</svg>
