<svg width="32" height="32" viewBox="0 0 32 32" fill="none" xmlns="http://www.w3.org/2000/svg">
<path d="M22 4H4.99997C4.44768 4 3.99997 4.44772 3.99997 5C3.99997 5.55229 4.44768 6 4.99997 6H22C22.4017 5.99833 22.7692 6.14967 22.7692 6.14967C23.1368 6.30102 23.4179 6.5821 23.4179 6.5821C23.6989 6.86318 23.8503 7.23074 23.8503 7.23074C24.0016 7.59831 24 7.99581 24 7.99581L24 22C24 22.5523 24.4477 23 25 23C25.5523 23 26 22.5523 26 22L26 8.00419C26.0033 7.20669 25.6997 6.46925 25.6997 6.46925C25.396 5.73181 24.8321 5.16789 24.8321 5.16789C24.2682 4.60396 23.5307 4.30031 23.5307 4.30031C22.7933 3.99667 22 4 22 4Z" fill="#1C1C1C"/>
<path d="M13 14H21C21.5523 14 22 13.5522 22 13C22 12.4477 21.5523 12 21 12H13C12.4477 12 12 12.4477 12 13C12 13.5522 12.4477 14 13 14Z" fill="#1C1C1C"/>
<path d="M13 18H21C21.5523 18 22 17.5522 22 17C22 16.4477 21.5523 16 21 16H13C12.4477 16 12 16.4477 12 17C12 17.5522 12.4477 18 13 18Z" fill="#1C1C1C"/>
<path fill-rule="evenodd" clip-rule="evenodd" d="M10.5251 27.9701C10.5251 27.9701 10.7412 27.996 10.9545 27.999C10.9696 27.9997 10.9848 28 11 28H25C25 28 26.1828 28.0006 27.176 27.3573C27.176 27.3573 28.1692 26.714 28.6525 25.6339C28.6525 25.6339 29.1358 24.5538 28.9538 23.3846C28.9538 23.3846 28.7717 22.2153 27.9828 21.3333C27.7931 21.1212 27.522 21 27.2375 21H13.2375C12.6852 21 12.2375 21.4477 12.2375 22C12.2375 22.2457 12.3279 22.4829 12.4916 22.6661C12.4916 22.6661 12.8203 23.0342 12.9401 23.5128C12.9401 23.5128 13.0599 23.9915 12.9434 24.4709C12.9434 24.4709 12.8268 24.9504 12.5006 25.3206C12.5006 25.3206 12.1744 25.6908 11.7134 25.8668C11.7134 25.8668 11.2525 26.0428 10.7626 25.9843C10.7626 25.9843 10.2726 25.9257 9.86616 25.646C9.86616 25.646 9.45969 25.3663 9.22996 24.9296C9.22996 24.9296 9.00024 24.4929 8.99997 23.9995V8.00001C8.99997 8.00001 8.99944 7.01264 8.53999 6.13929C8.53999 6.13929 8.08053 5.26593 7.26759 4.70649C7.26759 4.70649 6.45465 4.14704 5.47479 4.0299C5.47479 4.0299 4.49493 3.91276 3.57302 4.2648C3.57302 4.2648 2.65112 4.61684 1.99873 5.35727C1.99873 5.35727 1.34635 6.09771 1.1132 7.05661C1.1132 7.05661 0.880062 8.01551 1.11967 8.97282C1.11967 8.97282 1.35927 9.93013 2.01664 10.6661C2.20636 10.8786 2.47766 11 2.76247 11C2.77816 11 2.79385 10.9996 2.80953 10.9989C3.03882 10.9881 3.25741 10.8988 3.4286 10.7458C3.64103 10.5561 3.76247 10.2848 3.76247 10C3.76247 9.98432 3.7621 9.96863 3.76136 9.95296C3.75056 9.72367 3.66121 9.50508 3.50831 9.33388C3.50831 9.33388 3.17962 8.96587 3.05982 8.48722C3.05982 8.48722 2.94002 8.00857 3.05659 7.52911C3.05659 7.52911 3.17316 7.04966 3.49935 6.67945C3.49935 6.67945 3.82554 6.30923 4.2865 6.13321C4.2865 6.13321 4.74745 5.95719 5.23738 6.01576C5.23738 6.01576 5.72731 6.07433 6.13378 6.35405C6.13378 6.35405 6.54025 6.63377 6.76998 7.07045C6.76998 7.07045 6.99971 7.50713 6.99997 8.00001V24.0005C6.99997 24.0005 7.0005 24.9874 7.45995 25.8607C7.45995 25.8607 7.91941 26.7341 8.73235 27.2935C8.73235 27.2935 9.54529 27.853 10.5251 27.9701ZM25 26H14.465C14.465 26 14.749 25.5098 14.8867 24.9434C14.8867 24.9434 15.1199 23.9845 14.8803 23.0272L14.8734 23H26.7352C26.7352 23 26.9191 23.3165 26.9776 23.6923C26.9776 23.6923 27.0686 24.2769 26.827 24.8169C26.827 24.8169 26.5853 25.357 26.0887 25.6786C26.0887 25.6786 25.5921 26.0003 25 26Z" fill="#1C1C1C"/>
</svg>
