<svg width="32" height="32" viewBox="0 0 32 32" fill="none" xmlns="http://www.w3.org/2000/svg">
<path d="M16.5041 29.8638L28.5041 22.8638C28.7331 22.7301 28.8998 22.511 28.9673 22.2545C28.9891 22.1714 29.0002 22.0859 29.0002 22C29.0002 21.988 29 21.976 28.9995 21.964C28.9936 21.7993 28.947 21.6385 28.864 21.4961C28.6848 21.1889 28.3559 21 28.0002 21C27.823 21 27.6492 21.047 27.4963 21.1362L16.0002 27.8423L4.50417 21.1363C4.35112 21.047 4.17724 21 4.00018 21C3.9832 21 3.96622 21.0004 3.94925 21.0013C3.61216 21.0185 3.30648 21.2046 3.1364 21.4961C3.04719 21.6491 3.00018 21.8229 3.00018 22C3.00018 22.017 3.00062 22.034 3.00148 22.0509C3.01867 22.388 3.20476 22.6937 3.49631 22.8638L15.4963 29.8638C15.8077 30.0454 16.1927 30.0454 16.5041 29.8638Z" fill="#1C1C1C"/>
<path d="M16.5041 23.8638L28.5041 16.8638C28.7331 16.7301 28.8998 16.511 28.9673 16.2545C28.9891 16.1714 29.0002 16.0859 29.0002 16C29.0002 15.988 29 15.976 28.9995 15.964C28.9936 15.7993 28.947 15.6385 28.864 15.4961C28.6848 15.1889 28.3559 15 28.0002 15C27.823 15 27.6492 15.047 27.4963 15.1362L16.0002 21.8423L4.50417 15.1363C4.35112 15.047 4.17724 15 4.00018 15C3.9832 15 3.96622 15.0004 3.94925 15.0013C3.61216 15.0185 3.30648 15.2046 3.1364 15.4961C3.04719 15.6491 3.00018 15.8229 3.00018 16C3.00018 16.017 3.00062 16.034 3.00148 16.0509C3.01867 16.388 3.20476 16.6937 3.49631 16.8638L15.4963 23.8638C15.8077 24.0454 16.1927 24.0454 16.5041 23.8638Z" fill="#1C1C1C"/>
<path fill-rule="evenodd" clip-rule="evenodd" d="M15.4963 2.13622C15.8077 1.95459 16.1927 1.95459 16.504 2.13622L28.504 9.13622C28.653 9.22314 28.777 9.34713 28.8639 9.49613C29.1422 9.97318 28.9811 10.5855 28.504 10.8638L16.504 17.8638C16.1927 18.0454 15.8077 18.0454 15.4963 17.8638L3.49629 10.8638C3.34729 10.7769 3.2233 10.6529 3.13638 10.5039C2.8581 10.0268 3.01924 9.4145 3.49629 9.13622L15.4963 2.13622ZM5.9848 10L16.0002 4.1577L26.0155 10L16.0002 15.8423L5.9848 10Z" fill="#1C1C1C"/>
</svg>
