<svg width="32" height="32" viewBox="0 0 32 32" fill="none" xmlns="http://www.w3.org/2000/svg">
<path d="M14.9999 3V23.675C14.9999 24.2273 15.4476 24.675 15.9999 24.675C16.5522 24.675 16.9999 24.2273 16.9999 23.675V3C16.9999 2.44772 16.5522 2 15.9999 2C15.4476 2 14.9999 2.44772 14.9999 3Z" fill="#1C1C1C"/>
<path d="M28.0732 10.7519L26.6357 10.6644C26.6154 10.6632 26.5952 10.6626 26.5749 10.6626C26.5342 10.6626 26.4935 10.6651 26.453 10.6701C25.9745 10.7288 25.606 11.1206 25.5768 11.6018C25.5755 11.6221 25.5749 11.6423 25.5749 11.6626C25.5749 11.7033 25.5774 11.744 25.5824 11.7845C25.6411 12.263 26.0329 12.6315 26.5141 12.6608L27.9516 12.7483C27.9805 12.7501 27.9946 12.7958 27.9946 12.7958C28.0143 12.8594 27.9735 12.8933 27.9735 12.8933L26.8821 13.809C26.6557 13.999 26.5249 14.2795 26.5249 14.5751L26.525 14.5913C26.5287 14.8208 26.6113 15.042 26.7589 15.2179C26.9489 15.4443 27.2293 15.5751 27.5249 15.5751L27.5411 15.575C27.7706 15.5713 27.9918 15.4887 28.1677 15.3411L29.2513 14.4319C29.7643 14.0058 29.9321 13.3689 29.9321 13.3689C30.0855 12.7869 29.9052 12.2044 29.9052 12.2044C29.7229 11.6154 29.2614 11.2254 29.2614 11.2254C28.7535 10.7961 28.0732 10.7519 28.0732 10.7519Z" fill="#1C1C1C"/>
<path d="M23.6056 19.1407L24.8556 18.0907C25.0818 17.9007 25.2124 17.6204 25.2124 17.325L25.2122 17.3082C25.2084 17.0787 25.1257 16.8575 24.9781 16.6818C24.7881 16.4556 24.5078 16.325 24.2124 16.325L24.1957 16.3251C23.9662 16.3289 23.7449 16.4116 23.5692 16.5592L22.3192 17.6092C21.8612 17.9879 21.6728 18.5597 21.6728 18.5597C21.4843 19.1315 21.6293 19.7158 21.6293 19.7158L22.0427 21.3567C22.1075 21.6139 22.2718 21.8348 22.4994 21.9709C22.6545 22.0635 22.8317 22.1124 23.0124 22.1124L23.0154 22.1124C23.0967 22.1122 23.1778 22.102 23.2567 22.0822C23.701 21.9702 24.0124 21.5706 24.0124 21.1124L24.0123 21.0962C24.011 21.0193 24.0009 20.9428 23.9821 20.8682L23.5704 19.2341C23.5644 19.2096 23.5723 19.1857 23.5723 19.1857C23.5802 19.1617 23.6056 19.1407 23.6056 19.1407Z" fill="#1C1C1C"/>
<path d="M17.4515 25.5943C17.6117 25.696 17.7976 25.75 17.9874 25.75L18.0008 25.7499C18.3383 25.7454 18.6508 25.5709 18.8317 25.286C18.9334 25.1257 18.9874 24.9398 18.9874 24.75L18.9873 24.7366C18.9828 24.3991 18.8083 24.0867 18.5233 23.9058L18.5224 23.9052L17.0858 22.9933C16.5892 22.6775 15.9999 22.6775 15.9999 22.6775C15.4106 22.6775 14.9133 22.9937 14.9133 22.9937L9.05238 26.7052C8.91628 26.7918 8.78631 26.693 8.78631 26.693C8.62979 26.574 8.68125 26.3726 8.68125 26.3726L10.3692 19.721C10.5154 19.1315 10.327 18.5598 10.327 18.5598C10.1386 17.988 9.67463 17.6044 9.67463 17.6044L4.02791 12.8946C3.98548 12.8593 4.00518 12.7957 4.00518 12.7957C4.01931 12.7501 4.05219 12.7479 4.05219 12.7479L11.4267 12.273C12.0261 12.2381 12.5138 11.8773 12.5138 11.8773C12.9962 11.5205 13.2079 10.9601 13.2079 10.9601L15.9543 4.04411L15.9646 4.01687C15.9687 4.00576 15.9784 3.99897 15.9784 3.99897C15.9881 3.99219 15.9999 3.99219 15.9999 3.99219C16.0117 3.99219 16.0214 3.99897 16.0214 3.99897C16.0311 4.00576 16.0351 4.01687 16.0351 4.01687L16.0454 4.04379L18.1579 9.36879L18.7921 10.9607C19.0038 11.5207 19.4859 11.8773 19.4859 11.8773C19.9737 12.2381 20.5793 12.2733 20.5793 12.2733L22.2133 12.3731C22.2336 12.3744 22.2546 12.375 22.2749 12.375C22.3156 12.375 22.3562 12.3725 22.3966 12.3676C22.8751 12.3089 23.2436 11.9172 23.273 11.436C23.2743 11.4157 23.2749 11.3954 23.2749 11.375C23.2749 11.3344 23.2724 11.2937 23.2675 11.2533C23.2088 10.7748 22.8171 10.4063 22.3358 10.3769L20.6955 10.2767C20.6843 10.2761 20.6754 10.2694 20.6754 10.2694C20.6664 10.2628 20.6625 10.2523 20.6625 10.2523L20.6539 10.2299L20.0169 8.63128L17.9089 3.31768C17.6882 2.72463 17.1687 2.36078 17.1687 2.36078C16.6424 1.99219 15.9999 1.99219 15.9999 1.99219C15.3574 1.99219 14.8311 2.36078 14.8311 2.36078C14.3116 2.72457 14.0909 3.31749 14.0909 3.31749L11.3455 10.231L11.3373 10.2523C11.3334 10.2628 11.3244 10.2694 11.3244 10.2694C11.3155 10.2761 11.2981 10.2771 11.2981 10.2771L3.92259 10.7521C3.24628 10.796 2.73835 11.2254 2.73835 11.2254C2.27691 11.6154 2.0946 12.2043 2.0946 12.2043C1.91431 12.7868 2.06765 13.3689 2.06765 13.3689C2.23544 14.0057 2.74687 14.4305 2.74687 14.4305L8.40016 19.1457C8.4196 19.1618 8.4275 19.1857 8.4275 19.1857C8.4354 19.2097 8.43061 19.2291 8.43061 19.2291L6.74353 25.8774C6.5622 26.587 6.81146 27.2571 6.81146 27.2571C7.04327 27.8802 7.57598 28.2852 7.57598 28.2852C8.11543 28.6953 8.77828 28.7415 8.77828 28.7415C9.4986 28.7918 10.1224 28.3949 10.1224 28.3949L15.9865 24.6814C15.9926 24.6775 15.9999 24.6775 15.9999 24.6775C16.0072 24.6775 16.014 24.6818 16.014 24.6818L17.4515 25.5943Z" fill="#1C1C1C"/>
<path d="M25.3934 26.4013L25.0434 25.0388C24.9299 24.5967 24.5314 24.2876 24.0749 24.2876L24.054 24.2878C23.9771 24.2894 23.9006 24.2999 23.8261 24.319C23.384 24.4326 23.0749 24.8311 23.0749 25.2876L23.0751 25.3085C23.0767 25.3854 23.0872 25.4619 23.1063 25.5364L23.4563 26.8989C23.4711 26.9573 23.4274 26.9904 23.4274 26.9904C23.4064 27.0063 23.3834 26.9918 23.3834 26.9918L22.1597 26.2176C21.9996 26.1163 21.8142 26.0626 21.6249 26.0626L21.6099 26.0627C21.2725 26.0678 20.9603 26.2427 20.7798 26.528C20.6786 26.6879 20.6249 26.8733 20.6249 27.0626L20.6249 27.0648C20.6251 27.1379 20.6332 27.2108 20.6493 27.2821C20.7075 27.5409 20.8661 27.7659 21.0903 27.9077L22.3164 28.6834C22.8862 29.0428 23.5408 28.9977 23.5408 28.9977C24.1444 28.9562 24.6348 28.5848 24.6348 28.5848C25.1186 28.2185 25.3299 27.6535 25.3299 27.6535C25.5569 27.0465 25.3934 26.4013 25.3934 26.4013Z" fill="#1C1C1C"/>
</svg>
