<svg width="32" height="32" viewBox="0 0 32 32" fill="none" xmlns="http://www.w3.org/2000/svg">
<path fill-rule="evenodd" clip-rule="evenodd" d="M16.0133 24.6814C16.0133 24.6814 16.0072 24.6775 15.9999 24.6775C15.9999 24.6775 15.9926 24.6775 15.9865 24.6814L10.1224 28.3949C10.1224 28.3949 9.4986 28.7918 8.77828 28.7415C8.77828 28.7415 8.11543 28.6953 7.57598 28.2852C7.57598 28.2852 7.04327 27.8802 6.81146 27.2571C6.81146 27.2571 6.5622 26.587 6.74353 25.8774L8.43061 19.2291C8.43061 19.2291 8.4354 19.2097 8.4275 19.1857C8.4275 19.1857 8.4196 19.1618 8.40016 19.1457L2.74687 14.4305C2.74687 14.4305 2.23544 14.0057 2.06765 13.3689C2.06765 13.3689 1.91431 12.7868 2.0946 12.2043C2.0946 12.2043 2.27691 11.6154 2.73835 11.2254C2.73835 11.2254 3.24628 10.796 3.92259 10.7521L11.2981 10.2771C11.2981 10.2771 11.3155 10.2761 11.3244 10.2694C11.3244 10.2694 11.3334 10.2628 11.3373 10.2523L11.3455 10.231L14.0909 3.31749C14.0909 3.31749 14.3116 2.72457 14.8311 2.36078C14.8311 2.36078 15.3574 1.99219 15.9999 1.99219C15.9999 1.99219 16.6424 1.99219 17.1687 2.36078C17.1687 2.36078 17.6881 2.72457 17.9089 3.31749L20.6543 10.231L20.6625 10.2523C20.6625 10.2523 20.6664 10.2628 20.6754 10.2694C20.6754 10.2694 20.6843 10.2761 20.6955 10.2767L28.0767 10.7521C28.0767 10.7521 28.7535 10.796 29.2614 11.2254C29.2614 11.2254 29.7229 11.6154 29.9052 12.2043C29.9052 12.2043 30.0855 12.7868 29.9321 13.3689C29.9321 13.3689 29.7643 14.0057 29.2513 14.4318L23.6029 19.143C23.6029 19.143 23.5802 19.1618 23.5723 19.1857C23.5723 19.1857 23.5644 19.2097 23.5705 19.2342L25.394 26.4035C25.394 26.4035 25.5569 27.0465 25.3299 27.6535C25.3299 27.6535 25.1186 28.2184 24.6348 28.5847C24.6348 28.5847 24.1444 28.9561 23.5408 28.9977C23.5408 28.9977 22.8862 29.0427 22.3164 28.6833L16.0133 24.6814ZM23.3834 26.9917L17.0867 22.9938C17.0867 22.9938 16.5888 22.6775 15.9999 22.6775C15.9999 22.6775 15.4106 22.6775 14.9133 22.9937L9.05238 26.7052C9.05238 26.7052 8.91628 26.7918 8.78631 26.693C8.78631 26.693 8.62979 26.574 8.68125 26.3726L10.3692 19.721C10.3692 19.721 10.5154 19.1315 10.327 18.5598C10.327 18.5598 10.1386 17.988 9.67463 17.6044L4.02791 12.8946C4.02791 12.8946 3.98548 12.8593 4.00518 12.7957C4.00518 12.7957 4.01931 12.7501 4.05219 12.7479L11.4267 12.273C11.4267 12.273 12.0261 12.2381 12.5138 11.8773C12.5138 11.8773 12.9962 11.5205 13.2079 10.9601L15.9543 4.04411L15.9646 4.01687C15.9646 4.01687 15.9687 4.00576 15.9784 3.99897C15.9784 3.99897 15.9881 3.99219 15.9999 3.99219C15.9999 3.99219 16.0117 3.99219 16.0214 3.99897C16.0214 3.99897 16.0311 4.00576 16.0351 4.01687L16.0455 4.04411L18.7919 10.9601C18.7919 10.9601 19.0035 11.5205 19.4859 11.8773C19.4859 11.8773 19.9737 12.2381 20.5793 12.2733L27.9481 12.748C27.9481 12.748 27.9805 12.7501 27.9946 12.7957C27.9946 12.7957 28.0143 12.8593 27.9735 12.8932L22.3219 17.6071C22.3219 17.6071 21.8612 17.988 21.6728 18.5598C21.6728 18.5598 21.4843 19.1315 21.6293 19.7159L23.4557 26.8965C23.4557 26.8965 23.4711 26.9572 23.4274 26.9903C23.4274 26.9903 23.4064 27.0062 23.3834 26.9917Z" fill="#1C1C1C"/>
</svg>
