<svg width="32" height="32" viewBox="0 0 32 32" fill="none" xmlns="http://www.w3.org/2000/svg">
<path fill-rule="evenodd" clip-rule="evenodd" d="M20.7788 20.7787C20.7788 20.7787 20.777 20.7805 20.776 20.7828L17.8751 28.7604C17.8751 28.7604 17.6568 29.3483 17.142 29.7064C17.142 29.7064 16.6272 30.0645 16.0001 30.0645C16.0001 30.0645 15.373 30.0645 14.8581 29.7064C14.8581 29.7064 14.3433 29.3483 14.1228 28.7542L11.2242 20.7832C11.2242 20.7832 11.2239 20.7824 11.2234 20.7814C11.2229 20.7806 11.2222 20.7795 11.2213 20.7787L11.2202 20.7772L3.23958 17.8749C3.23958 17.8749 2.65166 17.6567 2.29361 17.1419C2.29361 17.1419 1.93555 16.627 1.93555 15.9999C1.93555 15.9999 1.93555 15.3728 2.29361 14.858C2.29361 14.858 2.65166 14.3432 3.24582 14.1226L11.2168 11.2241C11.2168 11.2241 11.2175 11.2239 11.2184 11.2233C11.2193 11.2229 11.2204 11.2222 11.2213 11.2212L11.2228 11.2201L14.1251 3.23945C14.1251 3.23945 14.3433 2.65154 14.8581 2.29348C14.8581 2.29348 15.373 1.93542 16.0001 1.93542C16.0001 1.93542 16.6272 1.93542 17.142 2.29348C17.142 2.29348 17.6568 2.65154 17.8774 3.2457L20.7759 11.2167C20.7759 11.2167 20.7763 11.2177 20.777 11.2189C20.7774 11.2196 20.778 11.2205 20.7788 11.2212L20.7799 11.2227L28.7605 14.1249C28.7605 14.1249 29.3485 14.3432 29.7065 14.858C29.7065 14.858 30.0646 15.3728 30.0646 15.9999C30.0646 15.9999 30.0646 16.627 29.7065 17.1419C29.7065 17.1419 29.3485 17.6567 28.7543 17.8772L20.7833 20.7758C20.7833 20.7758 20.7825 20.7761 20.7815 20.7766C20.7807 20.7771 20.7797 20.7778 20.7788 20.7787ZM18.8995 20.0911C18.8995 20.0911 19.0525 19.6765 19.3646 19.3644C19.3646 19.3644 19.6771 19.0519 20.0918 18.8991L28.0646 15.9999L20.0958 13.1022C20.0958 13.1022 19.6771 12.948 19.3646 12.6354C19.3646 12.6354 19.052 12.3229 18.8992 11.9082L16 3.93546L13.1024 11.9042C13.1024 11.9042 12.9481 12.3229 12.6356 12.6354C12.6356 12.6354 12.323 12.948 11.9083 13.1008L3.93558 16L11.9043 18.8976C11.9043 18.8976 12.323 19.0519 12.6356 19.3644C12.6356 19.3644 12.9481 19.677 13.1009 20.0917L16.0001 28.0645L18.8978 20.0957L18.8995 20.0911Z" fill="#1C1C1C"/>
</svg>
