<svg width="32" height="32" viewBox="0 0 32 32" fill="none" xmlns="http://www.w3.org/2000/svg">
<path d="M27.0002 26V17.45C27.0002 16.8977 26.5525 16.45 26.0002 16.45C25.448 16.45 25.0002 16.8977 25.0002 17.45V26H7.00024V17.45C7.00024 16.8977 6.55253 16.45 6.00024 16.45C5.44796 16.45 5.00024 16.8977 5.00024 17.45V26C5.00024 26.8284 5.58603 27.4142 5.58603 27.4142C6.17182 28 7.00024 28 7.00024 28H25.0002C25.8287 28 26.4145 27.4142 26.4145 27.4142C27.0002 26.8284 27.0002 26 27.0002 26Z" fill="#1C1C1C"/>
<path fill-rule="evenodd" clip-rule="evenodd" d="M25.2585 4.00003L6.75048 4L6.74203 4.00003C6.74203 4.00003 6.07809 4.0055 5.54775 4.40497C5.54775 4.40497 5.01742 4.80445 4.82891 5.44108L3.03852 11.726C2.88721 12.2572 3.19514 12.8104 3.7263 12.9617C3.8154 12.9871 3.90761 13 4.00026 13H28.0003C28.5525 13 29.0003 12.5523 29.0003 12C29.0003 11.9073 28.9874 11.8151 28.962 11.726L27.1745 5.45104C27.1745 5.45104 26.9831 4.80445 26.4528 4.40497C26.4528 4.40497 25.9224 4.0055 25.2585 4.00003ZM6.75107 6.00248C6.75107 6.00248 6.75402 6.00026 6.75764 6L25.242 5.99997C25.242 5.99997 25.2462 6 25.2494 6.00248L25.2512 6.00313C25.2512 6.00313 25.2521 6.00265 25.251 5.99906L26.6756 11H5.32489L6.74661 6.00892C6.74661 6.00892 6.74778 6.00496 6.75107 6.00248Z" fill="#1C1C1C"/>
<path d="M5.87892 16.1213C5.00024 15.2426 5.00024 14 5.00024 14V12C5.00024 11.4477 4.55253 11 4.00024 11C3.44796 11 3.00024 11.4477 3.00024 12V14C3.00024 16.0711 4.46471 17.5355 4.46471 17.5355C5.92918 19 8.00024 19 8.00024 19C10.0713 19 11.5358 17.5355 11.5358 17.5355C13.0002 16.0711 13.0002 14 13.0002 14V12C13.0002 11.4477 12.5525 11 12.0002 11C11.448 11 11.0002 11.4477 11.0002 12V14C11.0002 15.2426 10.1216 16.1213 10.1216 16.1213C9.24288 17 8.00024 17 8.00024 17C6.7576 17 5.87892 16.1213 5.87892 16.1213Z" fill="#1C1C1C"/>
<path d="M13.8789 16.1213C13.0002 15.2426 13.0002 14 13.0002 14V12C13.0002 11.4477 12.5525 11 12.0002 11C11.448 11 11.0002 11.4477 11.0002 12V14C11.0002 16.0711 12.4647 17.5355 12.4647 17.5355C13.9292 19 16.0002 19 16.0002 19C18.0713 19 19.5358 17.5355 19.5358 17.5355C21.0002 16.0711 21.0002 14 21.0002 14V12C21.0002 11.4477 20.5525 11 20.0002 11C19.448 11 19.0002 11.4477 19.0002 12V14C19.0002 15.2426 18.1216 16.1213 18.1216 16.1213C17.2429 17 16.0002 17 16.0002 17C14.7576 17 13.8789 16.1213 13.8789 16.1213Z" fill="#1C1C1C"/>
<path d="M21.8789 16.1213C21.0002 15.2426 21.0002 14 21.0002 14V12C21.0002 11.4477 20.5525 11 20.0002 11C19.448 11 19.0002 11.4477 19.0002 12V14C19.0002 16.0711 20.4647 17.5355 20.4647 17.5355C21.9292 19 24.0002 19 24.0002 19C26.0713 19 27.5358 17.5355 27.5358 17.5355C29.0002 16.0711 29.0002 14 29.0002 14L29.0003 12C29.0003 11.4477 28.5525 11 28.0002 11C27.448 11 27.0002 11.4477 27.0002 12V14C27.0002 15.2426 26.1216 16.1213 26.1216 16.1213C25.2429 17 24.0002 17 24.0002 17C22.7576 17 21.8789 16.1213 21.8789 16.1213Z" fill="#1C1C1C"/>
</svg>
