<svg width="32" height="32" viewBox="0 0 32 32" fill="none" xmlns="http://www.w3.org/2000/svg">
<path fill-rule="evenodd" clip-rule="evenodd" d="M8.14103 27.9372C8.14103 27.9372 5.86176 27.5707 4.52453 25.6395C4.52453 25.6395 3.20183 23.7293 3.60241 21.4517L6.62752 4.31358C6.62752 4.31358 6.68985 3.93171 6.90174 3.59289C6.90174 3.59289 7.11363 3.25406 7.44001 3.02347C7.44001 3.02347 7.7664 2.79287 8.15654 2.70635C8.15654 2.70635 8.54668 2.61982 8.93995 2.69082L15.8354 3.9025C15.8354 3.9025 16.6546 4.05561 17.1257 4.72976C17.1257 4.72976 17.5969 5.40391 17.4611 6.2151L14.4221 23.461C14.4221 23.461 14.0252 25.6756 12.1955 26.98C12.1955 26.98 10.3658 28.2844 8.14561 27.938L8.14103 27.9372ZM8.45398 25.9619L8.45856 25.9626C8.45856 25.9626 9.87055 26.1813 11.0345 25.3515C11.0345 25.3515 12.2004 24.5204 12.4525 23.1139L15.4885 5.88473C15.4885 5.88473 15.4894 5.87969 15.4865 5.8755C15.4865 5.8755 15.4861 5.87497 15.4858 5.87434C15.4855 5.87377 15.4854 5.87313 15.4856 5.87274C15.4856 5.87274 15.4862 5.87178 15.4892 5.87231L8.59707 4.66124L5.57218 21.7981C5.57218 21.7981 5.31395 23.2664 6.16882 24.5009C6.16882 24.5009 7.01947 25.7294 8.45398 25.9619Z" fill="#1C1C1C"/>
<path d="M10.1961 25.7851C9.94687 25.8758 9.74306 26.0621 9.63098 26.3024C9.56927 26.4348 9.53729 26.579 9.53729 26.725L9.53731 26.7311C9.53801 26.8457 9.5584 26.9594 9.5976 27.0671C9.74139 27.4621 10.1169 27.725 10.5373 27.725L10.5588 27.7248C10.6682 27.7225 10.7765 27.7022 10.8793 27.6647L27.3293 21.6772C28.1039 21.3952 28.4548 20.6495 28.4548 20.6495C28.8058 19.9037 28.5294 19.1272 28.5294 19.1272L26.1267 12.5447C25.9931 12.1729 25.7234 11.8774 25.7234 11.8774C25.4537 11.5818 25.091 11.4128 25.091 11.4128C24.7283 11.2438 24.3285 11.2273 24.3285 11.2273C23.9288 11.2109 23.5534 11.3495 23.5534 11.3495L14.4459 14.6601C14.0507 14.8038 13.7873 15.1795 13.7873 15.6L13.7875 15.6211C13.7898 15.7305 13.8101 15.8388 13.8475 15.9417C13.9381 16.1909 14.124 16.394 14.3643 16.5062C14.4967 16.568 14.6411 16.6 14.7873 16.6L14.793 16.6C14.9076 16.5994 15.0212 16.579 15.1289 16.5399L24.2462 13.2256L24.2479 13.2304L26.6452 19.7979L10.1961 25.7851Z" fill="#1C1C1C"/>
<path d="M26.4998 26H8.99982C8.44753 26 7.99982 26.4477 7.99982 27C7.99982 27.5523 8.44753 28 8.99982 28H26.4998C27.3282 28 27.914 27.4142 27.914 27.4142C28.4998 26.8284 28.4998 26 28.4998 26V20.3125C28.4998 19.7602 28.0521 19.3125 27.4998 19.3125C26.9475 19.3125 26.4998 19.7602 26.4998 20.3125V26Z" fill="#1C1C1C"/>
<path d="M10.4998 22.5C10.4998 23.3284 9.82819 24 8.99982 24C8.17145 24 7.49982 23.3284 7.49982 22.5C7.49982 21.6716 8.17145 21 8.99982 21C9.82819 21 10.4998 21.6716 10.4998 22.5Z" fill="#1C1C1C"/>
</svg>
