<svg width="32" height="32" viewBox="0 0 32 32" fill="none" xmlns="http://www.w3.org/2000/svg">
<path fill-rule="evenodd" clip-rule="evenodd" d="M15.1461 2.256C15.1461 2.256 15.6367 2.16019 16.1143 2.30614C16.1143 2.30614 16.5924 2.45223 16.9456 2.80611L29.9948 15.8554C29.9948 15.8554 30.2736 16.1278 30.4293 16.4976C30.4293 16.4976 30.585 16.8674 30.585 17.2687C30.585 17.2687 30.585 17.67 30.4293 18.0399C30.4293 18.0399 30.2736 18.4097 29.9866 18.6902L18.6823 29.9946C18.6823 29.9946 18.4099 30.2734 18.0401 30.4291C18.0401 30.4291 17.6702 30.5848 17.269 30.5848C17.269 30.5848 16.8677 30.5848 16.4978 30.4291C16.4978 30.4291 16.128 30.2734 15.8475 29.9864L2.8056 16.9446C2.8056 16.9446 2.45247 16.5922 2.30637 16.1141C2.30637 16.1141 2.16028 15.6359 2.25635 15.1453L4.26954 5.05433C4.34859 4.65809 4.65832 4.34835 5.05456 4.2693L15.1421 2.2568L15.1461 2.256ZM6.10032 6.10008L15.5299 4.21885L28.5798 17.2688L17.2689 28.5796L4.21908 15.5296L6.10032 6.10008Z" fill="#1C1C1C"/>
<path d="M12.0002 10.5C12.0002 11.3284 11.3287 12 10.5002 12C9.67181 12 9.00024 11.3284 9.00024 10.5C9.00024 9.67163 9.67181 9 10.5002 9C11.3287 9 12.0002 9.67163 12.0002 10.5Z" fill="#1C1C1C"/>
</svg>
