<svg width="32" height="32" viewBox="0 0 32 32" fill="none" xmlns="http://www.w3.org/2000/svg">
<path fill-rule="evenodd" clip-rule="evenodd" d="M23.4124 25.7633C23.4124 25.7633 23.8585 25.5236 24.1352 25.1L29.4508 17.1141C29.4508 17.1141 29.795 16.6102 29.795 16C29.795 16 29.795 15.3897 29.4576 14.8959L24.139 6.90572C24.139 6.90572 23.8615 6.47799 23.4124 6.23666C23.4124 6.23666 22.9633 5.99533 22.4626 5.99997H3.00011C2.80291 5.99997 2.61012 6.05828 2.44598 6.16755C1.98624 6.47358 1.86164 7.09437 2.16768 7.55411L7.78997 15.9999L2.16768 24.4458C2.05841 24.61 2.00011 24.8028 2.00011 25C2.00011 25.5523 2.44782 26 3.00011 26L22.4534 25.9999C22.4534 25.9999 22.9633 26.0046 23.4124 25.7633ZM27.79 16L22.4677 23.9959L22.4649 24L4.86709 24L9.45754 17.1041C9.45754 17.1041 9.79504 16.6102 9.79504 16C9.79504 16 9.79504 15.3897 9.45081 14.8859L4.86707 7.99997H22.4626L22.465 7.99988L27.79 16Z" fill="#1C1C1C"/>
</svg>
