<svg width="32" height="32" viewBox="0 0 32 32" fill="none" xmlns="http://www.w3.org/2000/svg">
<path fill-rule="evenodd" clip-rule="evenodd" d="M24.4123 25.7633C24.4123 25.7633 24.8582 25.5237 25.1349 25.1004L30.8321 16.5547C31.056 16.2188 31.056 15.7812 30.8321 15.4453L25.1389 6.90572C25.1389 6.90572 24.8614 6.47799 24.4123 6.23666C24.4123 6.23666 23.9632 5.99533 23.4625 5.99997H5C5 5.99997 4.17157 5.99997 3.58579 6.58576C3.58579 6.58576 3 7.17155 3 7.99997V24C3 24 3 24.8284 3.58579 25.4142C3.58579 25.4142 4.17157 26 5 26L23.4533 25.9999C23.4533 25.9999 23.9632 26.0046 24.4123 25.7633ZM28.7982 16L23.4679 23.9953L23.4648 24L5 24V7.99997H23.4625L23.4648 7.99988L28.7982 16Z" fill="#1C1C1C"/>
</svg>
