<svg width="32" height="32" viewBox="0 0 32 32" fill="none" xmlns="http://www.w3.org/2000/svg">
<path d="M28.7067 4.70759C28.8943 4.52006 29 4.26533 29 4.00011C29 3.73489 28.8946 3.48054 28.7071 3.293L28.6985 3.28448C28.5117 3.10251 28.2607 3.00011 28 3.00011C27.97 3.00011 27.94 3.00146 27.9101 3.00416C27.6769 3.0252 27.4585 3.12742 27.2929 3.293L15.2933 15.2926C15.1057 15.4802 15 15.7349 15 16.0001C15 16.0161 15.0004 16.0321 15.0011 16.0481C15.0131 16.2965 15.1171 16.5314 15.2929 16.7072C15.4804 16.8948 15.7348 17.0001 16 17.0001C16.2652 17.0001 16.5196 16.8948 16.7071 16.7072L28.7067 4.70759Z" fill="#1C1C1C"/>
<path d="M27.7275 10.3945C27.5616 10.0466 27.2104 9.82506 26.825 9.82506L26.8067 9.82523C26.6639 9.82784 26.5233 9.86101 26.3944 9.92251C26.155 10.0367 25.9708 10.2413 25.8823 10.4913C25.8444 10.5985 25.825 10.7114 25.825 10.8251L25.825 10.8278C25.8254 10.9759 25.8587 11.122 25.9224 11.2556C26.8143 13.1254 26.9669 15.192 26.9669 15.192C27.1193 17.2583 26.5111 19.2389 26.5111 19.2389C25.9029 21.2196 24.6172 22.8443 24.6172 22.8443C23.3314 24.4691 21.5436 25.5162 21.5436 25.5162C19.7557 26.5633 17.7097 26.8899 17.7097 26.8899C15.6637 27.2165 13.6387 26.7781 13.6387 26.7781C11.6137 26.3396 9.88602 25.1959 9.88602 25.1959C8.15835 24.0522 6.96375 22.3593 6.96375 22.3593C5.76916 20.6665 5.27064 18.6554 5.27064 18.6554C4.77213 16.6444 5.03772 14.5895 5.03772 14.5895C5.30331 12.5347 6.29676 10.7165 6.29676 10.7165C7.29021 8.89824 8.87596 7.56473 8.87596 7.56473C10.4617 6.23122 12.4234 5.56437 12.4234 5.56437C14.3851 4.89753 16.455 4.98834 16.455 4.98834C18.525 5.07916 20.4207 5.91525 20.4207 5.91525C22.3145 6.75049 23.7764 8.21566 23.7764 8.21566C23.7772 8.21652 23.7781 8.21737 23.7781 8.21737L23.7793 8.2186C23.9666 8.40642 24.2208 8.51216 24.486 8.51256L24.4875 8.51256C24.503 8.51256 24.5185 8.5122 24.534 8.51148C24.7823 8.49991 25.0175 8.39625 25.1935 8.22073C25.3813 8.03347 25.4871 7.77928 25.4875 7.51406L25.4875 7.51256C25.4875 7.49704 25.4871 7.48152 25.4864 7.46602C25.4748 7.21769 25.3712 6.98257 25.1956 6.80651L25.1946 6.80545C23.4667 5.07277 21.2278 4.08532 21.2278 4.08532C18.9881 3.09756 16.5427 2.99027 16.5427 2.99027C14.0972 2.88297 11.7797 3.67079 11.7797 3.67079C9.46216 4.4586 7.58874 6.03402 7.58874 6.03402C5.71532 7.60944 4.54165 9.7575 4.54165 9.7575C3.36798 11.9056 3.05422 14.3332 3.05422 14.3332C2.74045 16.7607 3.3294 19.1366 3.3294 19.1366C3.91835 21.5125 5.32965 23.5125 5.32965 23.5125C6.74094 25.5124 8.78203 26.8636 8.78203 26.8636C10.8231 28.2148 13.2155 28.7328 13.2155 28.7328C15.6078 29.2508 18.025 28.8649 18.025 28.8649C20.4422 28.479 22.5544 27.242 22.5544 27.242C24.6665 26.0049 26.1855 24.0854 26.1855 24.0854C27.7045 22.166 28.423 19.826 28.423 19.826C29.1415 17.4861 28.9615 15.0449 28.9615 15.0449C28.7816 12.6046 27.7283 10.3961 27.7283 10.3961L27.7275 10.3945Z" fill="#1C1C1C"/>
<path d="M21.6252 20.1605C23.1293 18.1292 22.9859 15.6058 22.9859 15.6058C22.9558 15.0764 22.5177 14.6626 21.9875 14.6626C21.9689 14.6626 21.9493 14.6631 21.9307 14.6642C21.666 14.6792 21.418 14.7989 21.2414 14.9967C21.0779 15.18 20.9875 15.417 20.9875 15.6626L20.9875 15.6653C20.9875 15.6833 20.9881 15.7013 20.9891 15.7193C21.0915 17.5205 20.0179 18.9703 20.0179 18.9703C18.9443 20.4202 17.1917 20.8477 17.1917 20.8477C15.439 21.2753 13.8184 20.4827 13.8184 20.4827C12.1978 19.6901 11.4592 18.0442 11.4592 18.0442C10.7207 16.3982 11.206 14.6607 11.206 14.6607C11.6913 12.9231 13.1758 11.8981 13.1758 11.8981C14.6604 10.8731 16.4572 11.0349 16.4572 11.0349C18.2532 11.1967 19.5304 12.4697 19.5304 12.4697L19.5314 12.4707C19.7188 12.6576 19.9728 12.7626 20.2375 12.7626L20.2389 12.7626C20.5041 12.7622 20.7583 12.6565 20.9456 12.4687C21.1325 12.2812 21.2375 12.0273 21.2375 11.7626L21.2375 11.7612C21.2371 11.496 21.1314 11.2418 20.9436 11.0545C19.1539 9.26979 16.6366 9.043 16.6366 9.043C14.1193 8.81622 12.0395 10.2523 12.0395 10.2523C9.95959 11.6883 9.2797 14.1227 9.2797 14.1227C8.5998 16.557 9.63453 18.8629 9.63453 18.8629C10.6693 21.1689 12.9397 22.2793 12.9397 22.2793C15.2102 23.3898 17.6657 22.7907 17.6657 22.7907C20.1212 22.1917 21.6252 20.1605 21.6252 20.1605Z" fill="#1C1C1C"/>
</svg>
