<svg width="32" height="32" viewBox="0 0 32 32" fill="none" xmlns="http://www.w3.org/2000/svg">
<path d="M11 7V25C11 25.5523 11.4477 26 12 26C12.5523 26 13 25.5523 13 25V7C13 6.44772 12.5523 6 12 6C11.4477 6 11 6.44772 11 7Z" fill="#1C1C1C"/>
<path fill-rule="evenodd" clip-rule="evenodd" d="M2.00001 24V20.9C2.00001 20.9 1.99606 20.1883 2.45101 19.6338C2.45101 19.6338 2.90596 19.0794 3.61015 18.9432C3.61015 18.9432 4.63601 18.7252 5.30757 17.8961C5.30757 17.8961 5.97912 17.067 5.97912 16C5.97912 16 5.97912 14.933 5.30757 14.1039C5.30757 14.1039 4.63601 13.2748 3.59231 13.0532C3.59231 13.0532 2.90596 12.9206 2.45101 12.3662C2.45101 12.3662 1.99606 11.8117 2.00003 11.0945L2.00001 8C2.00001 8 2.00001 7.17157 2.5858 6.58579C2.5858 6.58579 3.17158 6 4.00001 6H28C28 6 28.8284 6 29.4142 6.58579C29.4142 6.58579 30 7.17157 30 8V11.1C30 11.1 30.004 11.8117 29.549 12.3662C29.549 12.3662 29.0941 12.9206 28.3899 13.0568C28.3899 13.0568 27.364 13.2748 26.6925 14.1039C26.6925 14.1039 26.0209 14.933 26.0209 16C26.0209 16 26.0209 17.067 26.6925 17.8961C26.6925 17.8961 27.364 18.7252 28.4077 18.9468C28.4077 18.9468 29.0941 19.0794 29.549 19.6338C29.549 19.6338 30.004 20.1883 30 20.9055L30 24C30 24 30 24.8284 29.4142 25.4142C29.4142 25.4142 28.8284 26 28 26H4.00001C4.00001 26 3.17158 26 2.5858 25.4142C2.5858 25.4142 2.00001 24.8284 2.00001 24ZM4.00001 24H28L28 20.9044C28 20.9044 27.9973 20.9042 27.9923 20.9032C27.9923 20.9032 26.2557 20.5345 25.1383 19.1549C25.1383 19.1549 24.0209 17.7753 24.0209 16C24.0209 16 24.0209 14.2247 25.1383 12.8451C25.1383 12.8451 26.2525 11.4695 28 11.0954V8H4.00001L4 11.0956C4 11.0956 4.00273 11.0958 4.00771 11.0968C4.00771 11.0968 5.74432 11.4655 6.86172 12.8451C6.86172 12.8451 7.97913 14.2247 7.97913 16C7.97913 16 7.97913 17.7753 6.86172 19.1549C6.86172 19.1549 5.74755 20.5305 4.00001 20.9046V24Z" fill="#1C1C1C"/>
</svg>
