<svg width="32" height="32" viewBox="0 0 32 32" fill="none" xmlns="http://www.w3.org/2000/svg">
<path fill-rule="evenodd" clip-rule="evenodd" d="M21.9998 15.0442V19.5C21.9998 19.5 22.001 22.2672 20.516 24.6022C20.516 24.6022 19.0309 26.9374 16.524 28.1097C16.524 28.1097 14.0171 29.282 11.2728 28.9245C11.2728 28.9245 8.5285 28.5671 6.40553 26.7917C6.40553 26.7917 4.28256 25.0164 3.44516 22.3787C3.44516 22.3787 2.60776 19.7409 3.31796 17.0662C3.31796 17.0662 4.02816 14.3914 6.06374 12.5165C6.06374 12.5165 8.09932 10.6416 10.8233 10.1532C10.8816 10.1428 10.9406 10.1375 10.9998 10.1375C11.5521 10.1375 11.9998 10.5852 11.9998 11.1375V16.3375C11.9998 16.7238 11.7774 17.0755 11.4284 17.241C11.4284 17.241 10.8109 17.5339 10.4283 18.1001C10.4283 18.1001 10.0457 18.6664 10.0044 19.3485C10.0044 19.3485 9.96305 20.0307 10.2745 20.639C10.2745 20.639 10.5859 21.2473 11.1634 21.6126C11.1634 21.6126 11.741 21.9779 12.4241 21.9986C12.4241 21.9986 13.1072 22.0193 13.7058 21.6897C13.7058 21.6897 14.3044 21.36 14.6521 20.7717C14.6521 20.7717 14.9998 20.1833 14.9998 19.5V3.5C14.9998 2.94772 15.4475 2.5 15.9998 2.5H20.9998C21.5521 2.5 21.9998 2.94772 21.9998 3.5C21.9998 3.5 21.9998 5.98528 23.7572 7.74264C23.7572 7.74264 25.5145 9.5 27.9998 9.5C28.5521 9.5 28.9998 9.94772 28.9998 10.5V15.5C28.9998 16.052 28.5525 16.4996 28.0005 16.5C28.0005 16.5 24.7655 16.5023 21.9998 15.0442ZM19.9998 19.5005V13.25C19.9998 12.6977 20.4475 12.25 20.9998 12.25C21.2091 12.25 21.4131 12.3156 21.583 12.4377C21.583 12.4377 24.0474 14.2071 26.9998 14.4584V11.4384C26.9998 11.4384 25.9409 11.3063 24.9384 10.891C24.9384 10.891 23.4682 10.2821 22.343 9.15685C22.343 9.15685 21.2177 8.03163 20.6088 6.56147C20.6088 6.56147 20.1935 5.5589 20.0614 4.5H16.9998V19.5C16.9998 19.5 16.9997 20.7302 16.3739 21.7892C16.3739 21.7892 15.7481 22.8482 14.6706 23.4416C14.6706 23.4416 13.593 24.035 12.3635 23.9977C12.3635 23.9977 11.1339 23.9604 10.0943 23.3029C10.0943 23.3029 9.05473 22.6453 8.49419 21.5504C8.49419 21.5504 7.93364 20.4554 8.00806 19.2276C8.00806 19.2276 8.08247 17.9997 8.77115 16.9804C8.77115 16.9804 9.27317 16.2374 9.99982 15.7559V12.4287C9.99982 12.4287 8.56982 12.9273 7.4187 13.9876C7.4187 13.9876 5.81167 15.4677 5.25099 17.5794C5.25099 17.5794 4.6903 19.6911 5.3514 21.7735C5.3514 21.7735 6.0125 23.8559 7.68854 25.2575C7.68854 25.2575 9.36457 26.6591 11.5311 26.9413C11.5311 26.9413 13.6976 27.2235 15.6768 26.298C15.6768 26.298 17.6559 25.3725 18.8284 23.5289C18.8284 23.5289 20.0009 21.6853 19.9998 19.5005Z" fill="#1C1C1C"/>
</svg>
