<svg width="32" height="32" viewBox="0 0 32 32" fill="none" xmlns="http://www.w3.org/2000/svg">
<path fill-rule="evenodd" clip-rule="evenodd" d="M13.4094 4.49903C13.4094 4.49903 13.8082 3.8047 14.5011 3.40286C14.5011 3.40286 15.1962 2.99976 15.9998 2.99976C15.9998 2.99976 16.8033 2.99976 17.4985 3.40286C17.4985 3.40286 18.1936 3.80596 18.5927 4.50338L29.5902 23.499C29.5902 23.499 29.992 24.195 29.9927 24.9974C29.9927 24.9974 29.9935 25.7999 29.5935 26.4955C29.5935 26.4955 29.1935 27.1911 28.4996 27.5942C28.4996 27.5942 27.8057 27.9972 27.0033 28.0001L4.99979 28.0001C4.99979 28.0001 4.19384 27.9972 3.49997 27.5942C3.49997 27.5942 2.80611 27.1911 2.40612 26.4955C2.40612 26.4955 2.00613 25.7999 2.00684 24.9974C2.00684 24.9974 2.00755 24.195 2.40877 23.5001L13.4069 4.50337L13.4094 4.49903ZM4.14081 24.5001L15.1401 5.50135L15.1426 5.4969L15.1432 5.49592C15.1432 5.49592 15.2751 5.266 15.5044 5.133C15.5044 5.133 15.7342 4.99976 15.9998 4.99976C15.9998 4.99976 16.2654 4.99976 16.4952 5.133C16.4952 5.133 16.7249 5.26624 16.8569 5.49677L27.8594 24.5011C27.8594 24.5011 27.9925 24.7317 27.9927 24.9992C27.9927 24.9992 27.993 25.2667 27.8597 25.4986C27.8597 25.4986 27.7263 25.7304 27.495 25.8648C27.495 25.8648 27.2638 25.9991 26.9963 26.0001L4.99979 26.0001C4.99979 26.0001 4.73584 25.9991 4.50455 25.8648C4.50455 25.8648 4.27326 25.7304 4.13993 25.4986C4.13993 25.4986 4.0066 25.2667 4.00684 24.9992C4.00684 24.9992 4.00707 24.7317 4.14081 24.5001Z" fill="#1C1C1C"/>
</svg>
