<svg width="32" height="32" viewBox="0 0 32 32" fill="none" xmlns="http://www.w3.org/2000/svg">
<path d="M24.4958 4.13154C24.3448 4.04534 24.1739 4 24 4C23.9799 4 23.9598 4.00061 23.9398 4.00182C23.6028 4.02217 23.2989 4.2111 23.1316 4.50424C23.0454 4.65525 23 4.82612 23 5C23 5.02011 23.0007 5.04021 23.0019 5.06028C23.0222 5.3972 23.2111 5.70112 23.5043 5.86846L29.6793 9.39346C29.6787 9.39375 29.6795 9.39749 29.6795 9.39749C29.6809 9.40222 29.6787 9.40664 29.6787 9.40664L27.382 14L24 14C23.4478 14 23 14.4477 23 15C23 15.5523 23.4478 16 24 16L27.3853 16C27.9536 16.0013 28.4367 15.7019 28.4367 15.7019C28.9198 15.4025 29.1695 14.8972 29.1695 14.8972L31.4714 10.2934C31.8239 9.58066 31.5941 8.81948 31.5941 8.81948C31.3643 8.05829 30.6708 7.65654 30.6708 7.65654L24.4958 4.13154Z" fill="#1C1C1C"/>
<path d="M2.32074 9.39346L8.49574 5.86846C8.80753 5.69048 8.99998 5.35901 8.99998 5C8.99998 4.98616 8.9997 4.97233 8.99912 4.9585C8.99249 4.79881 8.94768 4.64304 8.86844 4.50424C8.69046 4.19245 8.359 4 7.99998 4C7.98615 4 7.97231 4.00029 7.95849 4.00086C7.7988 4.00749 7.64303 4.05231 7.50422 4.13154L1.32922 7.65654C0.635703 8.05829 0.405911 8.81948 0.405911 8.81948C0.176119 9.58066 0.528639 10.2934 0.528639 10.2934L2.83056 14.8972C3.08026 15.4025 3.56333 15.7019 3.56333 15.7019C4.0464 16.0013 4.61472 16 4.61472 16L7.99998 16C8.55227 16 8.99998 15.5523 8.99998 15C8.99998 14.4477 8.55227 14 7.99998 14L4.61802 14L2.32133 9.40664C2.31914 9.40222 2.32057 9.39749 2.32057 9.39749C2.32171 9.39368 2.32074 9.39346 2.32074 9.39346Z" fill="#1C1C1C"/>
<path fill-rule="evenodd" clip-rule="evenodd" d="M24 4C24.5523 4 25 4.44772 25 5V26C25 26 25 26.8284 24.4143 27.4142C24.4143 27.4142 23.8285 28 23 28H9.00004C9.00004 28 8.17162 28 7.58583 27.4142C7.58583 27.4142 7.00004 26.8284 7.00004 26V5C7.00004 4.44772 7.4477 4 7.99998 4H12C12.5523 4 13 4.44772 13 5C13 5 13 6.24264 13.8787 7.12132C13.8787 7.12132 14.7574 8 16 8C16 8 17.2427 8 18.1214 7.12132C18.1214 7.12132 19 6.24264 19 5C19 4.44772 19.4478 4 20 4H24ZM20.9081 6H23V26H9.00004V6H11.092C11.092 6 11.3671 7.43809 12.4645 8.53553C12.4645 8.53553 13.929 10 16 10C16 10 18.0711 10 19.5356 8.53553C19.5356 8.53553 20.633 7.43809 20.9081 6Z" fill="#1C1C1C"/>
</svg>
