<svg width="32" height="32" viewBox="0 0 32 32" fill="none" xmlns="http://www.w3.org/2000/svg">
<path fill-rule="evenodd" clip-rule="evenodd" d="M8.81678 8.80085C8.81678 8.80085 12.0085 10.9952 15.0002 11.7661V10.9999C15.0002 10.9999 15.0002 8.51907 16.7974 6.74327C16.7974 6.74327 18.5958 4.96616 21.0764 4.99999C21.0764 4.99999 22.8448 5.0204 24.3205 5.99878C24.3205 5.99878 25.5125 6.78908 26.2037 7.9999H30.0002C30.5525 7.9999 31.0002 8.44761 31.0002 8.9999C31.0002 9.26511 30.8949 9.51947 30.7074 9.707L26.9321 13.4823C26.9321 13.4823 26.6714 16.5066 25.3708 19.2625C25.3708 19.2625 23.9885 22.1914 21.6256 24.4063C21.6256 24.4063 19.2627 26.6212 16.2506 27.8114C16.2506 27.8114 13.2385 29.0015 9.99975 28.9999C9.99975 28.9999 7.26418 28.9999 5.55304 28.1443C5.55304 28.1443 4.56551 27.6506 4.1682 27.0546C3.86185 26.5951 3.98602 25.9742 4.44555 25.6678C4.5092 25.6254 4.5775 25.5904 4.64913 25.5636C4.64913 25.5636 5.56385 25.2205 6.73575 24.5174C6.73575 24.5174 8.47001 23.4768 9.53646 22.2648C9.53646 22.2648 9.36199 22.1404 9.17598 21.9988C9.17598 21.9988 7.62416 20.8181 6.44519 19.2181C6.44519 19.2181 2.68917 14.1206 4.01638 6.82101C4.11518 6.27763 4.63576 5.91723 5.17913 6.01603C5.37926 6.05241 5.56353 6.14896 5.70736 6.29279C5.70736 6.29279 6.89243 7.47787 8.81678 8.80085ZM17.0002 12.9999C17.0002 13.055 16.9957 13.11 16.9866 13.1643C16.8958 13.7091 16.3806 14.0771 15.8358 13.9863C15.8358 13.9863 11.8668 13.3248 7.68372 10.4489C7.68372 10.4489 6.60847 9.70971 5.73737 9.00055C5.73737 9.00055 5.28018 14.2655 8.05531 18.0317C8.05531 18.0317 9.06384 19.4004 10.387 20.4072C10.387 20.4072 11.0312 20.8974 11.4475 21.1055C11.4845 21.124 11.5204 21.1448 11.5549 21.1678C12.0145 21.4742 12.1387 22.0951 11.8323 22.5546C11.8323 22.5546 10.4576 24.6167 7.76474 26.2324C7.76474 26.2324 7.42128 26.4385 7.09401 26.6185C7.09401 26.6185 8.25868 26.9999 10.0007 26.9999C10.0007 26.9999 12.8581 27.0013 15.5156 25.9513C15.5156 25.9513 18.1731 24.9013 20.2579 22.9471C20.2579 22.9471 22.3426 20.993 23.5621 18.4089C23.5621 18.4089 24.7816 15.8248 24.9648 12.9733C24.9804 12.7307 25.0838 12.5022 25.2556 12.3303L27.586 9.9999H25.5877C25.1901 9.9999 24.8302 9.76429 24.6712 9.39983C24.6712 9.39983 24.1991 8.31795 23.2153 7.6657C23.2153 7.6657 22.2315 7.01346 21.0491 6.9998C21.0491 6.9998 19.4059 6.9774 18.2031 8.1659C18.2031 8.1659 17.0002 9.3545 17.0002 10.9999V12.9999Z" fill="#1C1C1C"/>
</svg>
