<svg width="32" height="32" viewBox="0 0 32 32" fill="none" xmlns="http://www.w3.org/2000/svg">
<path fill-rule="evenodd" clip-rule="evenodd" d="M16 9C16 9 18.4853 9 20.2426 10.7574C20.2426 10.7574 22 12.5147 22 15C22 15 22 17.4853 20.2426 19.2426C20.2426 19.2426 18.4853 21 16 21C16 21 13.5147 21 11.7574 19.2426C11.7574 19.2426 10 17.4853 10 15C10 15 10 12.5147 11.7574 10.7574C11.7574 10.7574 13.5147 9 16 9ZM16 11C16 11 14.3431 11 13.1716 12.1716C13.1716 12.1716 12 13.3432 12 15C12 15 12 16.6569 13.1716 17.8284C13.1716 17.8284 14.3431 19 16 19C16 19 17.6569 19 18.8284 17.8284C18.8284 17.8284 20 16.6569 20 15C20 15 20 13.3432 18.8284 12.1716C18.8284 12.1716 17.6569 11 16 11Z" fill="#1C1C1C"/>
<path d="M20.1849 22.1812C22.1105 23.3631 23.1333 25.3777 23.1333 25.3777C23.2534 25.6142 23.4625 25.7933 23.7146 25.8756C23.8148 25.9084 23.9196 25.925 24.025 25.925L24.0523 25.9247C24.2004 25.9206 24.3456 25.8837 24.4777 25.8167C24.8134 25.6462 25.025 25.3016 25.025 24.925C25.025 24.9107 25.0247 24.8964 25.0241 24.8821C25.0179 24.7394 24.9813 24.5997 24.9166 24.4723L24.9161 24.4714C23.6377 21.9538 21.2312 20.4767 21.2312 20.4767C18.8242 18.9993 16 19 16 19C13.1758 19 10.7688 20.4767 10.7688 20.4767C8.36181 21.9541 7.08331 24.4723 7.08331 24.4723C7.01209 24.6126 6.97498 24.7677 6.97498 24.925L6.975 24.9325C6.97778 25.3063 7.18889 25.6474 7.52228 25.8167C7.66256 25.8879 7.81766 25.925 7.97498 25.925L7.98239 25.925C8.35628 25.9222 8.69738 25.7111 8.86664 25.3777C9.88945 23.3631 11.815 22.1812 11.815 22.1812C13.7406 20.9993 16 21 16 21C18.2594 21 20.1849 22.1812 20.1849 22.1812Z" fill="#1C1C1C"/>
<path d="M28.7071 19.7071L31.7067 16.7075C31.8943 16.5199 32 16.2652 32 16C32 15.7348 31.8946 15.4804 31.7071 15.2929C31.5196 15.1054 31.2652 15 31 15C30.7348 15 30.4804 15.1054 30.2929 15.2929L28 17.5858L25.7071 15.2929C25.5196 15.1054 25.2652 15 25 15C24.7348 15 24.4804 15.1054 24.2929 15.2929C24.1054 15.4804 24 15.7348 24 16C24 16.2652 24.1054 16.5196 24.2929 16.7071L27.2929 19.7071C27.6834 20.0976 28.3166 20.0976 28.7071 19.7071Z" fill="#1C1C1C"/>
<path d="M6.29258 16.7068C6.48012 16.8943 6.73478 17 7 17C7.01602 17 7.03204 16.9996 7.04804 16.9988C7.29635 16.9869 7.53132 16.8829 7.70711 16.7071C7.89464 16.5196 8 16.2652 8 16C8 15.7348 7.89464 15.4804 7.70711 15.2929L4.70711 12.2929C4.31658 11.9024 3.68342 11.9024 3.29289 12.2929L0.292893 15.2929C0.105357 15.4804 0 15.7348 0 16C0 16.2652 0.105357 16.5196 0.292893 16.7071C0.48043 16.8946 0.734784 17 1 17C1.26522 17 1.51957 16.8946 1.70711 16.7071L4 14.4142L6.29258 16.7068Z" fill="#1C1C1C"/>
<path d="M5.07213 8.94544C4.96809 9.10693 4.91248 9.2954 4.91248 9.4875L4.91265 9.5061C4.91386 9.57095 4.92137 9.63553 4.93508 9.69893C4.99116 9.95815 5.14791 10.1845 5.37086 10.3281C5.53234 10.4322 5.72038 10.4875 5.91248 10.4875L5.91914 10.4875C6.25667 10.4852 6.57029 10.3129 6.7531 10.0291C8.73598 6.95154 12.1677 5.67606 12.1677 5.67606C15.5993 4.40058 19.1109 5.43597 19.1109 5.43597C22.6225 6.47136 24.8132 9.40461 24.8132 9.40461C27.004 12.3379 27 15.9989 27 15.9989V19C27 19.5523 27.4477 20 28 20C28.5523 20 29 19.5523 29 19V16.0011C29.0047 11.6744 26.4156 8.20783 26.4156 8.20783C23.8266 4.74127 19.6765 3.51762 19.6765 3.51762C15.5265 2.29398 11.4709 3.80136 11.4709 3.80136C7.4155 5.30866 5.07213 8.94544 5.07213 8.94544Z" fill="#1C1C1C"/>
<path d="M20.5291 28.1986C24.5847 26.6912 26.9281 23.0541 26.9281 23.0541C27.0322 22.8926 27.0875 22.7046 27.0875 22.5125L27.0875 22.5058C27.0852 22.1683 26.9129 21.8547 26.6291 21.6719C26.4676 21.5678 26.2796 21.5125 26.0875 21.5125L26.0808 21.5125C25.7433 21.5148 25.4297 21.6871 25.2469 21.9709C23.264 25.0485 19.8323 26.3239 19.8323 26.3239C16.4006 27.5994 12.8891 26.564 12.8891 26.564C9.37747 25.5286 7.18674 22.5954 7.18674 22.5954C4.99601 19.6621 5.00001 16.0011 5.00001 16.0011V13C5.00001 12.4477 4.55229 12 4.00001 12C3.44772 12 3.00001 12.4477 3.00001 13L3.00001 15.9989C2.99529 20.3256 5.58433 23.7922 5.58433 23.7922C8.17338 27.2587 12.3234 28.4824 12.3234 28.4824C16.4735 29.706 20.5291 28.1986 20.5291 28.1986Z" fill="#1C1C1C"/>
</svg>
