<svg width="32" height="32" viewBox="0 0 32 32" fill="none" xmlns="http://www.w3.org/2000/svg">
<path fill-rule="evenodd" clip-rule="evenodd" d="M16 11.5C16 11.5 18.4853 11.5 20.2426 13.2574C20.2426 13.2574 22 15.0147 22 17.5C22 17.5 22 19.9853 20.2426 21.7426C20.2426 21.7426 18.4853 23.5 16 23.5C16 23.5 13.5147 23.5 11.7574 21.7426C11.7574 21.7426 10 19.9853 10 17.5C10 17.5 10 15.0147 11.7574 13.2574C11.7574 13.2574 13.5147 11.5 16 11.5ZM16 13.5C16 13.5 14.3431 13.5 13.1716 14.6716C13.1716 14.6716 12 15.8432 12 17.5C12 17.5 12 19.1569 13.1716 20.3284C13.1716 20.3284 14.3431 21.5 16 21.5C16 21.5 17.6569 21.5 18.8284 20.3284C18.8284 20.3284 20 19.1569 20 17.5C20 17.5 20 15.8432 18.8284 14.6716C18.8284 14.6716 17.6569 13.5 16 13.5Z" fill="#1C1C1C"/>
<path d="M29.6987 18.0982C29.8575 18.3107 30.0945 18.4518 30.3569 18.4897C30.4043 18.4966 30.4521 18.5 30.5 18.5L30.5018 18.5C30.717 18.4996 30.9263 18.4298 31.0987 18.301C31.3513 18.1122 31.5 17.8154 31.5 17.5L31.5 17.4886C31.4975 17.2767 31.4279 17.0711 31.301 16.9013L31.3002 16.9002C30.0982 15.2925 28.3027 14.3947 28.3027 14.3947C26.5065 13.4967 24.4984 13.5 24.4984 13.5L24.5 13.5C25.0523 13.5 25.5 13.9477 25.5 14.5C25.5 15.0514 25.0537 15.4988 24.5022 15.5L29.6987 18.0982Z" fill="#1C1C1C"/>
<path d="M4.59179 16.1836C5.96407 15.4974 7.49833 15.5 7.49833 15.5L7.49973 15.5C7.51519 15.5 7.53092 15.4997 7.54637 15.4989C7.7947 15.4874 8.02984 15.3838 8.20592 15.2083C8.39377 15.0211 8.49956 14.7669 8.5 14.5017L8.5 14.5003C8.5 14.4398 8.49451 14.3792 8.48361 14.3197C8.39668 13.8455 7.98378 13.5008 7.50167 13.5L7.5 13.5C5.49277 13.497 3.69736 14.3947 3.69736 14.3947C1.90184 15.2925 0.69985 16.9002 0.69985 16.9002L0.699127 16.9012C0.569808 17.0742 0.5 17.2842 0.5 17.5L0.500055 17.5105C0.50052 17.5549 0.503938 17.5992 0.510288 17.6431C0.548235 17.9056 0.6889 18.1422 0.901339 18.301C1.07419 18.4302 1.2842 18.5 1.5 18.5C1.51337 18.5 1.52674 18.4998 1.5401 18.4992C1.84112 18.4871 2.12065 18.34 2.301 18.0987C3.2195 16.8697 4.59179 16.1836 4.59179 16.1836Z" fill="#1C1C1C"/>
<path d="M19.7147 24.5679C21.4186 25.6321 22.3005 27.437 22.3005 27.437L22.3011 27.4381C22.4688 27.7815 22.8178 28 23.2 28L23.2274 27.9996C23.3701 27.9957 23.5104 27.9612 23.6388 27.8986C23.9822 27.7309 24.2 27.3821 24.2 27L24.1996 26.9726C24.1957 26.8298 24.1613 26.6895 24.0986 26.5612C22.9652 24.2405 20.7742 22.8716 20.7742 22.8716C18.5832 21.5032 16 21.5032 16 21.5032C13.4168 21.5032 11.2258 22.8716 11.2258 22.8716C9.03521 24.2397 7.90178 26.5604 7.90178 26.5604C7.83501 26.6971 7.79999 26.8479 7.79999 27L7.80007 27.013C7.80146 27.1193 7.81977 27.2246 7.85432 27.3251C7.94056 27.5759 8.12289 27.7822 8.36121 27.8986C8.49786 27.9653 8.64792 28 8.79999 28L8.82295 27.9997C9.19674 27.9911 9.53453 27.7747 9.69858 27.4388C10.5805 25.6326 12.2853 24.5679 12.2853 24.5679C13.99 23.5032 16 23.5032 16 23.5032C18.0099 23.5032 19.7147 24.5679 19.7147 24.5679Z" fill="#1C1C1C"/>
<path d="M9.68235 8.44583C10.2793 9.08118 10.4427 9.93748 10.4427 9.93748C10.4924 10.198 10.6436 10.4281 10.863 10.5771C11.0288 10.6898 11.2246 10.75 11.425 10.75L11.4315 10.75C11.4922 10.7496 11.5528 10.7436 11.6125 10.7322C12.084 10.6422 12.425 10.23 12.425 9.74998L12.425 9.74435C12.4246 9.68331 12.4187 9.62244 12.4072 9.56248C12.1348 8.13531 11.14 7.0764 11.14 7.0764C10.1451 6.01749 8.7377 5.65664 8.7377 5.65664C7.33029 5.29579 5.94867 5.74541 5.94867 5.74541C4.56705 6.19502 3.64155 7.31505 3.64155 7.31505C2.71605 8.43509 2.53492 9.87669 2.53492 9.87669C2.3538 11.3183 2.97347 12.6325 2.97347 12.6325C3.59314 13.9466 4.8206 14.724 4.8206 14.724C6.04763 15.5012 7.49973 15.5 7.49973 15.5L7.50099 15.5C7.76621 15.4997 8.02046 15.3941 8.2078 15.2064C8.3949 15.0189 8.5 14.7652 8.5 14.5003L8.49998 14.499C8.49942 13.9471 8.05189 13.5 7.5 13.5L7.49896 13.5C6.6272 13.5009 5.89073 13.0344 5.89073 13.0344C5.15425 12.568 4.78245 11.7795 4.78245 11.7795C4.41065 10.991 4.51932 10.126 4.51932 10.126C4.628 9.26105 5.1833 8.58903 5.1833 8.58903C5.7386 7.91701 6.56757 7.64724 6.56757 7.64724C7.39654 7.37747 8.24099 7.59398 8.24099 7.59398C9.08544 7.81049 9.68235 8.44583 9.68235 8.44583Z" fill="#1C1C1C"/>
<path d="M26.1093 13.0344C25.3728 13.5009 24.501 13.5 24.501 13.5L24.5 13.5C24.4843 13.5 24.4687 13.5004 24.453 13.5011L23.5011 14.547C23.5128 14.7953 23.6166 15.0304 23.7922 15.2064C23.9795 15.3941 24.2338 15.4997 24.499 15.5L24.5 15.5C25.9524 15.5012 27.1794 14.724 27.1794 14.724C28.4068 13.9466 29.0265 12.6325 29.0265 12.6325C29.6462 11.3183 29.4651 9.87669 29.4651 9.87669C29.2839 8.43509 28.3584 7.31505 28.3584 7.31505C27.4329 6.19502 26.0513 5.74541 26.0513 5.74541C24.6697 5.29579 23.2623 5.65664 23.2623 5.65664C21.8549 6.01749 20.86 7.0764 20.86 7.0764C19.8652 8.13531 19.5927 9.56248 19.5927 9.56248C19.5809 9.62429 19.575 9.68706 19.575 9.74998C19.575 9.78003 19.5764 9.81007 19.5791 9.84C19.6192 10.2845 19.9491 10.6486 20.3875 10.7322C20.4493 10.744 20.5121 10.75 20.575 10.75C20.6051 10.75 20.6351 10.7486 20.665 10.7459C21.1095 10.7057 21.4736 10.3759 21.5573 9.93748C21.7207 9.08118 22.3176 8.44583 22.3176 8.44583C22.9146 7.81049 23.759 7.59398 23.759 7.59398C24.6034 7.37747 25.4324 7.64724 25.4324 7.64724C26.2614 7.91701 26.8167 8.58903 26.8167 8.58903C27.372 9.26104 27.4807 10.126 27.4807 10.126C27.5893 10.991 27.2175 11.7795 27.2175 11.7795C26.8457 12.568 26.1093 13.0344 26.1093 13.0344Z" fill="#1C1C1C"/>
</svg>
