<svg width="32" height="32" viewBox="0 0 32 32" fill="none" xmlns="http://www.w3.org/2000/svg">
<path d="M29.8099 16.5865L29.8107 16.5854C29.9338 16.415 30 16.2102 30 16L30 15.9976C29.9999 15.9451 29.9956 15.8926 29.9872 15.8407C29.945 15.5789 29.8005 15.3446 29.5855 15.1893C29.4151 15.0662 29.2102 15 29 15L28.9977 15C28.9451 15.0001 28.8927 15.0043 28.8408 15.0127C28.5789 15.0549 28.3446 15.1995 28.1893 15.4145L28.1886 15.4155L22.5 23.292L10.3107 6.41446C9.98732 5.96674 9.36224 5.86591 8.91451 6.18927C8.8279 6.25182 8.75187 6.32785 8.68932 6.41446L2.18966 15.414L2.18932 15.4145C2.06624 15.5849 2 15.7897 2 16L2 16.0023C2.00013 16.0548 2.00439 16.1073 2.01276 16.1592C2.05499 16.421 2.1995 16.6553 2.41451 16.8106C2.58492 16.9337 2.78979 17 3 17C3.01882 17 3.03763 16.9994 3.05642 16.9984C3.3572 16.9814 3.63429 16.8297 3.81068 16.5854L3.81102 16.585L9.5 8.70792L21.6893 25.5854C21.7519 25.6721 21.8279 25.7481 21.9145 25.8106C22.1295 25.9659 22.3974 26.0294 22.6592 25.9872C22.9211 25.945 23.1554 25.8004 23.3107 25.5854L29.8099 16.5865Z" fill="#1C1C1C"/>
</svg>
