<svg width="32" height="32" viewBox="0 0 32 32" fill="none" xmlns="http://www.w3.org/2000/svg">
<path d="M26.6106 10.4367C27.2466 10.0834 27.6247 9.78093 27.6247 9.78093C27.8619 9.59116 28 9.30385 28 9.00007C28 8.98528 27.9997 8.97049 27.999 8.95571C27.9896 8.74404 27.9132 8.54082 27.7809 8.37536C27.6152 8.16826 27.374 8.03546 27.1104 8.00618C27.0738 8.0021 27.0369 8.00006 27 8.00006C26.9884 8.00006 26.9769 8.00026 26.9653 8.00066C26.7503 8.00812 26.5433 8.08476 26.3753 8.21919C26.1284 8.41656 25.6394 8.6884 25.6394 8.6884C24.6296 9.24939 23.5075 9.52992 23.5075 9.52992C19.9366 10.4226 16.5547 8.16801 16.5547 8.16801C12.4366 5.42263 8.00746 6.52992 8.00746 6.52992C6.62958 6.87439 5.38936 7.5634 5.38936 7.5634C4.75341 7.91671 4.3753 8.21919 4.3753 8.21919C4.13809 8.40896 4 8.69628 4 9.00006C4 9.01485 4.00033 9.02963 4.00098 9.04441C4.01038 9.25608 4.08677 9.4593 4.21913 9.62475C4.4089 9.86197 4.69622 10.0001 5 10.0001C5.01479 10.0001 5.02957 9.99973 5.04435 9.99908C5.25602 9.98968 5.45924 9.91329 5.6247 9.78093C5.87159 9.58341 6.36064 9.31172 6.36064 9.31172C7.37042 8.75073 8.49254 8.4702 8.49254 8.4702C12.0634 7.57749 15.4453 9.83211 15.4453 9.83211C19.5634 12.5775 23.9925 11.4702 23.9925 11.4702C25.3704 11.1257 26.6106 10.4367 26.6106 10.4367Z" fill="#1C1C1C"/>
<path d="M26.6106 17.4367C27.2466 17.0834 27.6247 16.7809 27.6247 16.7809C27.8619 16.5912 28 16.3039 28 16.0001C28 15.9853 27.9997 15.9705 27.999 15.9557C27.9896 15.744 27.9132 15.5408 27.7809 15.3754C27.6152 15.1683 27.374 15.0355 27.1104 15.0062C27.0738 15.0021 27.0369 15.0001 27 15.0001C26.9884 15.0001 26.9769 15.0003 26.9653 15.0007C26.7503 15.0081 26.5433 15.0848 26.3753 15.2192C26.1284 15.4166 25.6394 15.6884 25.6394 15.6884C24.6296 16.2494 23.5075 16.5299 23.5075 16.5299C19.9366 17.4226 16.5547 15.168 16.5547 15.168C12.4366 12.4226 8.00746 13.5299 8.00746 13.5299C6.62958 13.8744 5.38936 14.5634 5.38936 14.5634C4.75341 14.9167 4.3753 15.2192 4.3753 15.2192C4.13809 15.409 4 15.6963 4 16.0001C4 16.0148 4.00033 16.0296 4.00098 16.0444C4.01038 16.2561 4.08677 16.4593 4.21913 16.6248C4.4089 16.862 4.69622 17.0001 5 17.0001C5.01479 17.0001 5.02957 16.9997 5.04435 16.9991C5.25602 16.9897 5.45924 16.9133 5.6247 16.7809C5.87159 16.5834 6.36064 16.3117 6.36064 16.3117C7.37042 15.7507 8.49254 15.4702 8.49254 15.4702C12.0634 14.5775 15.4453 16.8321 15.4453 16.8321C19.5634 19.5775 23.9925 18.4702 23.9925 18.4702C25.3704 18.1257 26.6106 17.4367 26.6106 17.4367Z" fill="#1C1C1C"/>
<path d="M26.6106 24.4367C27.2466 24.0834 27.6247 23.7809 27.6247 23.7809C27.8619 23.5912 28 23.3039 28 23.0001C28 22.9853 27.9997 22.9705 27.999 22.9557C27.9896 22.744 27.9132 22.5408 27.7809 22.3754C27.6152 22.1683 27.374 22.0355 27.1104 22.0062C27.0738 22.0021 27.0369 22.0001 27 22.0001C26.9884 22.0001 26.9769 22.0003 26.9653 22.0007C26.7503 22.0081 26.5433 22.0848 26.3753 22.2192C26.1284 22.4166 25.6394 22.6884 25.6394 22.6884C24.6296 23.2494 23.5075 23.5299 23.5075 23.5299C19.9366 24.4226 16.5547 22.168 16.5547 22.168C12.4366 19.4226 8.00746 20.5299 8.00746 20.5299C6.62958 20.8744 5.38936 21.5634 5.38936 21.5634C4.75341 21.9167 4.3753 22.2192 4.3753 22.2192C4.13809 22.409 4 22.6963 4 23.0001C4 23.0148 4.00033 23.0296 4.00098 23.0444C4.01038 23.2561 4.08677 23.4593 4.21913 23.6248C4.4089 23.862 4.69622 24.0001 5 24.0001C5.01479 24.0001 5.02957 23.9997 5.04435 23.9991C5.25602 23.9897 5.45924 23.9133 5.6247 23.7809C5.87159 23.5834 6.36064 23.3117 6.36064 23.3117C7.37042 22.7507 8.49254 22.4702 8.49254 22.4702C12.0634 21.5775 15.4453 23.8321 15.4453 23.8321C19.5634 26.5775 23.9925 25.4702 23.9925 25.4702C25.3704 25.1257 26.6106 24.4367 26.6106 24.4367Z" fill="#1C1C1C"/>
</svg>
