<svg width="32" height="32" viewBox="0 0 32 32" fill="none" xmlns="http://www.w3.org/2000/svg">
<path fill-rule="evenodd" clip-rule="evenodd" d="M16.6743 5.04668C14.003 4.87927 11.3625 5.69265 9.2485 7.33412C7.13446 8.97559 5.69226 11.3323 5.19266 13.9617C4.69306 16.5911 5.17041 19.3125 6.5351 21.615C6.67485 21.8508 6.7117 22.1336 6.63703 22.3973L5.46582 26.5339L9.60243 25.3627C9.86615 25.288 10.149 25.3249 10.3847 25.4646C12.6872 26.8293 15.4086 27.3066 18.038 26.807C20.6674 26.3074 23.0241 24.8652 24.6656 22.7512C26.3071 20.6372 27.1204 17.9967 26.953 15.3254C26.7856 12.6542 25.6489 10.1359 23.7564 8.24333C21.8638 6.35076 19.3455 5.21408 16.6743 5.04668ZM8.02191 5.75441C10.5208 3.81415 13.6419 2.85271 16.7994 3.05059C19.9569 3.24847 22.9335 4.59206 25.1706 6.82911C27.4076 9.06617 28.7512 12.0428 28.9491 15.2003C29.147 18.3578 28.1856 21.4789 26.2453 23.9778C24.305 26.4766 21.5194 28.1814 18.4113 28.7719C15.4464 29.3352 12.3825 28.8477 9.74396 27.4012L6.00074 28.4611C5.65994 28.5598 5.2989 28.5655 4.9551 28.4776C4.60969 28.3892 4.29439 28.2096 4.04227 27.9574C3.79015 27.7053 3.6105 27.39 3.52214 27.0446C3.4342 26.7008 3.43992 26.3398 3.53864 25.999L4.59848 22.2557C3.152 19.6172 2.66446 16.5533 3.22781 13.5884C3.81835 10.4803 5.52306 7.69466 8.02191 5.75441Z" fill="#1C1C1C"/>
<path fill-rule="evenodd" clip-rule="evenodd" d="M12.4204 10.5013L13.8407 12.9777C13.8415 12.9794 13.8419 12.9812 13.8419 12.9831C13.8419 12.9852 13.8413 12.9872 13.8403 12.989C13.8404 12.9889 13.8403 12.9891 13.8403 12.989L12.6669 14.9488C12.499 15.2294 12.4788 15.5743 12.6128 15.8725C13.315 17.4345 14.5654 18.685 16.1274 19.3871C16.4256 19.5212 16.7706 19.501 17.0511 19.333L19.0106 18.1598C19.0105 18.1598 19.0107 18.1597 19.0106 18.1598C19.0124 18.1588 19.0147 18.1581 19.0168 18.158C19.0187 18.158 19.0206 18.1584 19.0223 18.1592L21.4983 19.5793C21.4752 20.2109 21.2148 20.8119 20.7672 21.261C20.3006 21.7293 19.6684 21.9948 19.0074 22C17.8242 22.0027 16.6521 21.7717 15.5584 21.3202C14.4639 20.8685 13.4695 20.2049 12.6323 19.3677C11.795 18.5304 11.1315 17.536 10.6797 16.4415C10.228 15.3472 9.99701 14.1745 9.99991 12.9906C10.0024 12.3293 10.2668 11.6959 10.7353 11.2291C11.1851 10.7809 11.7878 10.5214 12.4204 10.5013ZM12.4964 8.50003C12.8274 8.49819 13.1529 8.5852 13.4389 8.75201C13.7237 8.91817 13.9589 9.15743 14.1202 9.44496L15.5799 11.99L15.5845 11.9982C15.7574 12.3063 15.8461 12.6545 15.8417 13.0078C15.8374 13.3611 15.7401 13.707 15.5597 14.0107L15.5579 14.0137L14.6669 15.5019C15.1058 16.2624 15.7376 16.8941 16.4981 17.333L17.9862 16.4421L17.9892 16.4403C18.293 16.2598 18.6389 16.1626 18.9921 16.1582C19.3454 16.1538 19.6936 16.2425 20.0017 16.4154L20.0099 16.4201L22.5549 17.8797C22.8425 18.041 23.0817 18.2762 23.2479 18.5611C23.4152 18.8478 23.5022 19.1742 23.4999 19.5061C23.4999 19.5067 23.4999 19.5074 23.4999 19.508L22.4999 19.5L23.4999 19.5036C23.4999 19.5044 23.4999 19.5052 23.4999 19.5061C23.495 20.6936 23.0222 21.8314 22.184 22.6727C21.3451 23.5146 20.208 23.9916 19.0195 24L19.0149 24C17.5674 24.0037 16.1334 23.7212 14.7954 23.1689C13.4573 22.6167 12.2416 21.8055 11.218 20.7819C10.1945 19.7583 9.38326 18.5426 8.83099 17.2046C8.27872 15.8665 7.99628 14.4326 7.99991 12.985L7.99992 12.984C8.00417 11.7933 8.48015 10.6528 9.3236 9.81236C10.1662 8.97274 11.307 8.50094 12.4964 8.50003ZM12.4964 8.50003C12.4949 8.50004 12.4934 8.50005 12.4919 8.50006L12.4999 9.50003L12.4999 8.50003C12.4988 8.50003 12.4976 8.50003 12.4964 8.50003Z" fill="#1C1C1C"/>
</svg>
