<svg width="32" height="32" viewBox="0 0 32 32" fill="none" xmlns="http://www.w3.org/2000/svg">
<path d="M19 19H5C4.44772 19 4 19.4477 4 20C4 20.5523 4.44772 21 5 21H19C19.5597 20.9996 20.0379 21.2889 20.0379 21.2889C20.516 21.5783 20.7749 22.0736 20.7749 22.0736C21.0338 22.569 20.9984 23.1268 20.9984 23.1268C20.9629 23.6846 20.6435 24.1432 20.6435 24.1432C20.324 24.6018 19.8131 24.8283 19.8131 24.8283C19.3021 25.0549 18.7478 24.9837 18.7478 24.9837C18.1934 24.9126 17.7562 24.5643 17.7562 24.5643C17.3194 24.2164 17.1261 23.6925 17.1261 23.6925C17.0344 23.4437 16.8473 23.2406 16.6064 23.1295C16.4751 23.0689 16.3322 23.0375 16.1875 23.0375L16.1774 23.0376C16.0628 23.0387 15.9492 23.0596 15.8417 23.0992C15.4486 23.2441 15.1875 23.6186 15.1875 24.0375C15.1876 24.1552 15.2085 24.2729 15.2492 24.3833L15.25 24.3855C15.6367 25.4329 16.5101 26.1287 16.5101 26.1287C17.3844 26.8251 18.4932 26.9675 18.4932 26.9675C19.6019 27.1098 20.6238 26.6567 20.6238 26.6567C21.6456 26.2036 22.2846 25.2863 22.2846 25.2863C22.9235 24.3691 22.9943 23.2535 22.9943 23.2535C23.0652 22.138 22.5474 21.1473 22.5474 21.1473C22.0297 20.1566 21.0734 19.5779 21.0734 19.5779C20.117 18.9991 19 19 19 19Z" fill="#1C1C1C"/>
<path d="M15 11H3C2.44772 11 2 11.4477 2 12C2 12.5523 2.44772 13 3 13H15C16.117 13.0009 17.0734 12.4221 17.0734 12.4221C18.0297 11.8434 18.5474 10.8527 18.5474 10.8527C19.0652 9.86203 18.9943 8.74646 18.9943 8.74646C18.9235 7.63088 18.2846 6.71366 18.2846 6.71366C17.6456 5.79644 16.6238 5.34334 16.6238 5.34334C15.6019 4.89024 14.4932 5.03255 14.4932 5.03255C13.3844 5.17486 12.5101 5.87134 12.5101 5.87134C11.6362 6.56748 11.2496 7.61565 11.2496 7.61565L11.2492 7.61667C11.2084 7.7274 11.1875 7.84449 11.1875 7.9625C11.1875 7.97569 11.1878 7.98888 11.1883 8.00206C11.1935 8.13328 11.2245 8.26219 11.2795 8.38144C11.3906 8.62226 11.5928 8.80908 11.8417 8.9008C11.9524 8.94161 12.0695 8.9625 12.1875 8.9625C12.2007 8.9625 12.2139 8.96224 12.2271 8.96172C12.3583 8.95652 12.4872 8.92553 12.6064 8.87052C12.8473 8.75941 13.0341 8.55719 13.1258 8.30834C13.3191 7.78449 13.7562 7.43567 13.7562 7.43567C14.1934 7.08743 14.7478 7.01628 14.7478 7.01628C15.3021 6.94512 15.8131 7.17167 15.8131 7.17167C16.324 7.39822 16.6435 7.85683 16.6435 7.85683C16.9629 8.31544 16.9984 8.87323 16.9984 8.87323C17.0338 9.43102 16.7749 9.92636 16.7749 9.92636C16.516 10.4217 16.0379 10.7111 16.0379 10.7111C15.5597 11.0004 15 11 15 11Z" fill="#1C1C1C"/>
<path d="M26 15H4C3.44772 15 3 15.4477 3 16C3 16.5523 3.44772 17 4 17H26C27.117 17.0009 28.0734 16.4221 28.0734 16.4221C29.0297 15.8434 29.5474 14.8527 29.5474 14.8527C30.0652 13.862 29.9943 12.7465 29.9943 12.7465C29.9235 11.6309 29.2846 10.7137 29.2846 10.7137C28.6456 9.79644 27.6238 9.34334 27.6238 9.34334C26.6019 8.89024 25.4932 9.03255 25.4932 9.03255C24.3844 9.17486 23.5101 9.87134 23.5101 9.87134C22.6366 10.5672 22.2499 11.6148 22.2499 11.6148L22.2494 11.6161C22.2086 11.7268 22.1875 11.8445 22.1875 11.9625C22.1875 11.9757 22.1878 11.9889 22.1883 12.0021C22.1935 12.1333 22.2245 12.2622 22.2795 12.3814C22.3906 12.6223 22.5928 12.8091 22.8417 12.9008C22.9524 12.9416 23.0695 12.9625 23.1875 12.9625L23.2113 12.9622C23.6214 12.9524 23.9839 12.6932 24.1258 12.3083C24.3191 11.7845 24.7562 11.4357 24.7562 11.4357C25.1934 11.0874 25.7478 11.0163 25.7478 11.0163C26.3021 10.9451 26.8131 11.1717 26.8131 11.1717C27.324 11.3982 27.6435 11.8568 27.6435 11.8568C27.9629 12.3154 27.9984 12.8732 27.9984 12.8732C28.0338 13.431 27.7749 13.9264 27.7749 13.9264C27.516 14.4217 27.0379 14.7111 27.0379 14.7111C26.5597 15.0004 26 15 26 15Z" fill="#1C1C1C"/>
</svg>
