<svg width="32" height="32" viewBox="0 0 32 32" fill="none" xmlns="http://www.w3.org/2000/svg">
<path d="M28 27C28 27.2652 27.8946 27.5196 27.7071 27.7071C27.5196 27.8947 27.2652 28 27 28H8.99999C8.73478 28 8.48042 27.8947 8.29289 27.7071C8.10535 27.5196 7.99999 27.2652 7.99999 27C7.99999 26.7348 8.10535 26.4804 8.29289 26.2929C8.48042 26.1054 8.73478 26 8.99999 26H27C27.2652 26 27.5196 26.1054 27.7071 26.2929C27.8946 26.4804 28 26.7348 28 27ZM26 12.5H19.225L13.8625 6.66252C13.8169 6.6115 13.761 6.57066 13.6985 6.54267C13.6361 6.51467 13.5684 6.50014 13.5 6.50002H11.3875C11.1496 6.49674 10.9146 6.55203 10.7032 6.66103C10.4917 6.77002 10.3103 6.92937 10.175 7.12502C10.0342 7.31667 9.9415 7.53928 9.90453 7.77417C9.86756 8.00906 9.88743 8.24939 9.96249 8.47502L11.3125 12.5H8.23749L5.88749 9.67502C5.83919 9.61981 5.7796 9.57563 5.71275 9.54544C5.6459 9.51524 5.57334 9.49976 5.49999 9.50002H3.34999C3.11518 9.49904 2.88337 9.55276 2.67292 9.6569C2.46247 9.76104 2.27915 9.91275 2.13749 10.1C1.99863 10.2877 1.90591 10.5055 1.86682 10.7357C1.82773 10.9658 1.84338 11.202 1.91249 11.425L3.66249 17.2875C3.93611 18.218 4.5046 19.0344 5.28239 19.6138C6.06017 20.1932 7.00513 20.5042 7.97499 20.5H30C30.1326 20.5 30.2598 20.4473 30.3535 20.3536C30.4473 20.2598 30.5 20.1326 30.5 20V17C30.5 15.8065 30.0259 14.6619 29.182 13.818C28.3381 12.9741 27.1935 12.5 26 12.5Z" fill="#1C1C1C"/>
</svg>
