<svg width="32" height="32" viewBox="0 0 32 32" fill="none" xmlns="http://www.w3.org/2000/svg">
<path d="M26.875 10.775L23.15 14.275L26.925 24.6625C26.9897 24.842 27.0017 25.0362 26.9596 25.2222C26.9175 25.4083 26.8231 25.5784 26.6875 25.7125L23.6875 28.7125C23.5825 28.8149 23.4567 28.8935 23.3187 28.9431C23.1807 28.9927 23.0337 29.0121 22.8875 29C22.7422 28.9838 22.6022 28.9363 22.4771 28.8607C22.3519 28.7852 22.2446 28.6835 22.1625 28.5625L16.8375 20.775L14.4875 22.9375V25.5C14.4843 25.7676 14.3767 26.0233 14.1875 26.2125L11.6875 28.7125C11.5955 28.8041 11.4863 28.8767 11.3661 28.926C11.246 28.9753 11.1174 29.0005 10.9875 29L10.7625 28.975C10.5963 28.9375 10.4424 28.858 10.3156 28.7443C10.1887 28.6305 10.093 28.4862 10.0375 28.3251L8.42501 23.5625L3.66251 21.9501C3.50137 21.8946 3.35707 21.7989 3.24331 21.672C3.12955 21.5451 3.0501 21.3913 3.01251 21.225C2.97624 21.0592 2.9812 20.8871 3.02697 20.7236C3.07273 20.5601 3.1579 20.4104 3.27501 20.2875L5.77501 17.7875C5.96551 17.6018 6.22146 17.4985 6.48751 17.5H9.07501L11.4125 15.15L3.42501 9.83755C3.30591 9.75069 3.20571 9.64052 3.1305 9.51374C3.05529 9.38696 3.00664 9.24621 2.98751 9.10005C2.97357 8.95187 2.99206 8.80243 3.04171 8.66211C3.09136 8.5218 3.17097 8.39399 3.27501 8.28755L6.27501 5.28755C6.40967 5.15274 6.58044 5.05978 6.76675 5.01985C6.95306 4.97993 7.14694 4.99476 7.32501 5.06255L17.7125 8.83755L21.0375 5.31255C21.0724 5.26097 21.1145 5.21466 21.1625 5.17505C21.8957 4.46132 22.8745 4.05571 23.8976 4.04164C24.9208 4.02757 25.9104 4.40611 26.6629 5.09941C27.4154 5.7927 27.8737 6.74802 27.9434 7.76886C28.013 8.7897 27.6889 9.79843 27.0375 10.5875C26.9934 10.6581 26.9386 10.7214 26.875 10.775Z" fill="#1C1C1C"/>
</svg>
