<svg width="32" height="32" viewBox="0 0 32 32" fill="none" xmlns="http://www.w3.org/2000/svg">
<path d="M31 27C31 27.2652 30.8946 27.5196 30.7071 27.7071C30.5196 27.8947 30.2652 28 30 28H12C11.7348 28 11.4804 27.8947 11.2929 27.7071C11.1053 27.5196 11 27.2652 11 27C11 26.7348 11.1053 26.4805 11.2929 26.2929C11.4804 26.1054 11.7348 26 12 26H30C30.2652 26 30.5196 26.1054 30.7071 26.2929C30.8946 26.4805 31 26.7348 31 27ZM28 23.5C28.108 23.4992 28.213 23.4642 28.3 23.4C28.3621 23.3535 28.4125 23.2931 28.4472 23.2236C28.4819 23.1542 28.5 23.0777 28.5 23V18.5375C28.498 17.5536 28.1745 16.5973 27.5788 15.8143C26.983 15.0313 26.1477 14.4644 25.2 14.2L19.3375 12.575L15.4375 5.75003C15.374 5.64602 15.277 5.56669 15.1625 5.52503L13.475 4.96253C13.2494 4.88747 13.009 4.86759 12.7741 4.90457C12.5392 4.94154 12.3166 5.03429 12.125 5.17503C11.9293 5.31036 11.77 5.49174 11.661 5.70319C11.552 5.91464 11.4967 6.14966 11.5 6.38753V10.325L8.34999 9.33753L6.43749 5.76253C6.3779 5.65243 6.28008 5.56795 6.16249 5.52503L4.47499 4.96253C4.24936 4.88747 4.00903 4.86759 3.77414 4.90457C3.53925 4.94154 3.31664 5.03429 3.12499 5.17503C2.92934 5.31036 2.76999 5.49174 2.661 5.70319C2.552 5.91464 2.49671 6.14966 2.49999 6.38753V12.9625C2.50119 13.9448 2.82288 14.8999 3.41621 15.6827C4.00954 16.4655 4.8421 17.0334 5.78749 17.3L27.8625 23.4875L28 23.5Z" fill="#1C1C1C"/>
</svg>
