<svg width="32" height="32" viewBox="0 0 32 32" fill="none" xmlns="http://www.w3.org/2000/svg">
<path d="M22 27C22 27.2652 21.8946 27.5196 21.7071 27.7071C21.5196 27.8946 21.2652 28 21 28H3C2.73478 28 2.48043 27.8946 2.29289 27.7071C2.10535 27.5196 2 27.2652 2 27C2 26.7348 2.10535 26.4804 2.29289 26.2929C2.48043 26.1054 2.73478 26 3 26H21C21.2652 26 21.5196 26.1054 21.7071 26.2929C21.8946 26.4804 22 26.7348 22 27ZM30.8875 11.1875L28.5625 8.3375C27.883 7.50223 26.9258 6.93912 25.8656 6.75095C24.8054 6.56278 23.7129 6.76209 22.7875 7.3125L17.4375 10.45L10.1625 8.025C10.0442 7.98484 9.91527 7.98928 9.8 8.0375L7.7375 8.925C7.50727 9.02459 7.30569 9.18034 7.15121 9.37798C6.99673 9.57562 6.89428 9.80885 6.85325 10.0563C6.81221 10.3038 6.83389 10.5576 6.9163 10.7945C6.99872 11.0314 7.13924 11.2439 7.325 11.4125L10.65 14.4125L7.9625 15.9375L4.7 14.5375C4.57139 14.4873 4.4286 14.4873 4.3 14.5375L2.2125 15.4375C1.98286 15.5353 1.78126 15.6888 1.62597 15.8842C1.47067 16.0796 1.36658 16.3107 1.32313 16.5565C1.27969 16.8022 1.29826 17.055 1.37716 17.2918C1.45606 17.5285 1.59281 17.7419 1.775 17.9125L6.4875 22.325C7.19098 22.9911 8.09162 23.4109 9.0541 23.5214C10.0166 23.6318 10.9889 23.4269 11.825 22.9375L30.75 11.9375C30.8128 11.9001 30.8665 11.8493 30.9076 11.7888C30.9486 11.7284 30.9759 11.6596 30.9875 11.5875C30.9994 11.5175 30.9967 11.4459 30.9795 11.377C30.9623 11.3081 30.931 11.2436 30.8875 11.1875Z" fill="#1C1C1C"/>
</svg>
