<svg width="32" height="32" viewBox="0 0 32 32" fill="none" xmlns="http://www.w3.org/2000/svg">
<path d="M30.025 17V21C30.0275 21.1482 29.9961 21.2951 29.9333 21.4294C29.8705 21.5637 29.7779 21.6819 29.6625 21.775C29.5485 21.8676 29.4153 21.9336 29.2726 21.9682C29.1299 22.0028 28.9812 22.0051 28.8375 21.975L20.025 20.225V23.5875L21.7125 25.3C21.8041 25.392 21.8766 25.5013 21.926 25.6214C21.9753 25.7415 22.0005 25.8701 22 26V29C22.0008 29.1629 21.9613 29.3235 21.8849 29.4675C21.8086 29.6114 21.6978 29.7343 21.5625 29.825C21.3962 29.9371 21.2006 29.998 21 30C20.8713 29.9994 20.744 29.9739 20.625 29.925L16 28.075L11.375 29.925C11.2226 29.9867 11.0573 30.0099 10.8937 29.9924C10.7302 29.975 10.5735 29.9175 10.4375 29.825C10.3022 29.7343 10.1914 29.6114 10.1151 29.4675C10.0387 29.3235 9.9992 29.1629 10 29V26C9.9985 25.734 10.1018 25.478 10.2875 25.2875L12 23.5875V20.225L3.2 21.975C3.05485 22.007 2.90435 22.0058 2.75973 21.9715C2.61511 21.9373 2.48008 21.8708 2.36473 21.7771C2.24937 21.6833 2.15667 21.5648 2.09351 21.4302C2.03036 21.2957 1.99839 21.1486 2 21V17C2.0015 16.8142 2.05347 16.6324 2.15035 16.4738C2.24722 16.3153 2.38536 16.1861 2.55 16.1L12 11.375V6C12 4.93913 12.4214 3.92172 13.1716 3.17157C13.9217 2.42143 14.9391 2 16 2C17.0609 2 18.0783 2.42143 18.8284 3.17157C19.5786 3.92172 20 4.93913 20 6V11.375L29.45 16.1C29.6193 16.1827 29.7625 16.3104 29.864 16.4692C29.9654 16.628 30.0211 16.8116 30.025 17Z" fill="#1C1C1C"/>
</svg>
