<svg width="32" height="32" viewBox="0 0 32 32" fill="none" xmlns="http://www.w3.org/2000/svg">
<path d="M16 18C15.3078 18 14.6311 17.7947 14.0556 17.4101C13.48 17.0256 13.0314 16.4789 12.7665 15.8394C12.5016 15.1999 12.4323 14.4961 12.5673 13.8172C12.7023 13.1383 13.0357 12.5146 13.5252 12.0251C14.0147 11.5356 14.6383 11.2023 15.3172 11.0673C15.9962 10.9322 16.6999 11.0015 17.3394 11.2664C17.979 11.5313 18.5256 11.9799 18.9102 12.5555C19.2948 13.1311 19.5 13.8078 19.5 14.5C19.4968 15.4272 19.1269 16.3156 18.4713 16.9712C17.8156 17.6269 16.9273 17.9967 16 18ZM17.5625 18H14.4375C14.0691 18.0001 13.7053 18.0819 13.3724 18.2398C13.0395 18.3976 12.7458 18.6273 12.5125 18.9125C12.2737 19.1961 12.1024 19.5302 12.0115 19.8896C11.9205 20.2491 11.9124 20.6245 11.9875 20.9875L13.1875 26.9875C13.3025 27.5534 13.6088 28.0625 14.055 28.429C14.5012 28.7955 15.0601 28.9972 15.6375 29H16.3625C16.94 28.9972 17.4989 28.7955 17.9451 28.429C18.3913 28.0625 18.6976 27.5534 18.8125 26.9875L20.0126 20.9875C20.0877 20.6245 20.0796 20.2491 19.9886 19.8896C19.8977 19.5302 19.7264 19.1961 19.4875 18.9125C19.2543 18.6273 18.9606 18.3976 18.6277 18.2398C18.2948 18.0819 17.931 18.0001 17.5625 18ZM22.525 18.5375C22.4401 18.782 22.4533 19.0499 22.5619 19.2848C22.6704 19.5198 22.8658 19.7036 23.107 19.7974C23.3482 19.8913 23.6163 19.888 23.8552 19.7883C24.094 19.6885 24.2848 19.5001 24.3876 19.2625C24.796 18.2235 25.0038 17.1164 25 16C25 13.6131 24.0518 11.3239 22.364 9.63604C20.6762 7.94822 18.387 7.00001 16 7.00001C13.6131 7.00001 11.3239 7.94822 9.63609 9.63604C7.94826 11.3239 7.00005 13.6131 7.00005 16C6.99509 17.1165 7.20297 18.2238 7.61255 19.2625C7.68515 19.4492 7.81214 19.6098 7.97707 19.7234C8.142 19.8371 8.33726 19.8986 8.53755 19.9C8.66227 19.9004 8.78572 19.8749 8.90005 19.825C9.14653 19.7299 9.34536 19.5411 9.4531 19.2998C9.56083 19.0586 9.56873 18.7845 9.47505 18.5375C9.06298 17.4767 8.91576 16.3314 9.04614 15.2009C9.17652 14.0704 9.58056 12.9887 10.2233 12.0495C10.866 11.1104 11.728 10.3421 12.7346 9.81121C13.7412 9.28033 14.862 9.00287 16 9.00287C17.1381 9.00287 18.2589 9.28033 19.2655 9.81121C20.2721 10.3421 21.1341 11.1104 21.7768 12.0495C22.4195 12.9887 22.8236 14.0704 22.954 15.2009C23.0843 16.3314 22.9371 17.4767 22.525 18.5375ZM16 3.00001C13.186 2.99727 10.4471 3.90772 8.19467 5.59458C5.94226 7.28143 4.29803 9.65361 3.50896 12.3548C2.71989 15.0559 2.82861 17.9401 3.81876 20.5742C4.80892 23.2083 6.62706 25.45 9.00005 26.9625C9.22383 27.1067 9.49573 27.1561 9.75593 27.0999C10.0161 27.0436 10.2433 26.8863 10.3875 26.6625C10.5318 26.4387 10.5812 26.1668 10.5249 25.9066C10.4686 25.6464 10.3113 25.4192 10.0875 25.275C8.08043 23.9957 6.54242 22.0998 5.70439 19.872C4.86637 17.6442 4.77355 15.2047 5.43987 12.9197C6.10618 10.6347 7.49568 8.62747 9.39979 7.1993C11.3039 5.77113 13.6199 4.9991 16 4.9991C18.3802 4.9991 20.6962 5.77113 22.6003 7.1993C24.5044 8.62747 25.8939 10.6347 26.5602 12.9197C27.2265 15.2047 27.1337 17.6442 26.2957 19.872C25.4577 22.0998 23.9197 23.9957 21.9125 25.275C21.7318 25.3929 21.5941 25.5661 21.5199 25.7687C21.4457 25.9714 21.4391 26.1925 21.501 26.3993C21.5628 26.606 21.6899 26.7871 21.8632 26.9157C22.0365 27.0442 22.2468 27.1133 22.4625 27.1125C22.6516 27.1095 22.8368 27.0579 23 26.9625C25.373 25.45 27.1912 23.2083 28.1813 20.5742C29.1715 17.9401 29.2802 15.0559 28.4911 12.3548C27.7021 9.65361 26.0578 7.28143 23.8054 5.59458C21.553 3.90772 18.8141 2.99727 16 3.00001Z" fill="#1C1C1C"/>
</svg>
