<svg width="32" height="32" viewBox="0 0 32 32" fill="none" xmlns="http://www.w3.org/2000/svg">
<path d="M29.025 6.46247V12.4625C29.025 12.7277 28.9196 12.982 28.7321 13.1696C28.5445 13.3571 28.2902 13.4625 28.025 13.4625H22.025C21.8282 13.4621 21.6359 13.4038 21.4721 13.2946C21.3083 13.1855 21.1804 13.0305 21.1043 12.849C21.0283 12.6675 21.0075 12.4676 21.0445 12.2743C21.0815 12.0811 21.1747 11.903 21.3125 11.7625L23.6125 9.46247L23.075 8.92497C21.1961 7.05331 18.652 6.00243 16 6.00243C13.3479 6.00243 10.8039 7.05331 8.92498 8.92497C8.833 9.01908 8.72315 9.09386 8.60186 9.14492C8.48058 9.19598 8.35032 9.22228 8.21873 9.22228C8.08713 9.22228 7.95687 9.19598 7.83559 9.14492C7.7143 9.09386 7.60445 9.01908 7.51248 8.92497C7.32546 8.7375 7.22044 8.48352 7.22044 8.21872C7.22044 7.95392 7.32546 7.69994 7.51248 7.51247C9.76633 5.26679 12.8183 4.00586 16 4.00586C19.1816 4.00586 22.2336 5.26679 24.4875 7.51247L25.025 8.04997L27.3125 5.76247C27.4512 5.62169 27.6286 5.52518 27.8221 5.48513C28.0157 5.44509 28.2168 5.4633 28.4 5.53747C28.5824 5.61475 28.7385 5.74325 28.8495 5.90742C28.9604 6.07158 29.0213 6.26438 29.025 6.46247ZM23.075 23.075C21.1961 24.9466 18.652 25.9975 16 25.9975C13.3479 25.9975 10.8039 24.9466 8.92498 23.075L8.38748 22.5375L10.6875 20.2375C10.8252 20.0969 10.9185 19.9189 10.9555 19.7256C10.9925 19.5323 10.9717 19.3324 10.8956 19.1509C10.8195 18.9694 10.6916 18.8144 10.5278 18.7053C10.3641 18.5962 10.1718 18.5378 9.97498 18.5375H3.97498C3.70976 18.5375 3.45541 18.6428 3.26787 18.8304C3.08033 19.0179 2.97498 19.2723 2.97498 19.5375V25.5375C2.97861 25.7356 3.03958 25.9284 3.1505 26.0925C3.26142 26.2567 3.41754 26.3852 3.59998 26.4625C3.71899 26.5114 3.84631 26.5368 3.97498 26.5375C4.10792 26.5387 4.2397 26.5127 4.36223 26.4611C4.48476 26.4095 4.59544 26.3334 4.68748 26.2375L6.97498 23.95L7.51248 24.4875C9.76472 26.7362 12.8173 27.9992 16 27.9992C19.1826 27.9992 22.2352 26.7362 24.4875 24.4875C24.6745 24.3 24.7795 24.046 24.7795 23.7812C24.7795 23.5164 24.6745 23.2624 24.4875 23.075C24.3955 22.9809 24.2856 22.9061 24.1644 22.855C24.0431 22.804 23.9128 22.7777 23.7812 22.7777C23.6496 22.7777 23.5194 22.804 23.3981 22.855C23.2768 22.9061 23.1669 22.9809 23.075 23.075Z" fill="#1C1C1C"/>
</svg>
