<svg width="32" height="32" viewBox="0 0 32 32" fill="none" xmlns="http://www.w3.org/2000/svg">
<path d="M14.2875 28.7125L2.28751 16.7125C2.09973 16.5229 1.99438 16.2668 1.99438 16C1.99438 15.7331 2.09973 15.477 2.28751 15.2875L14.2875 3.28745C14.4321 3.15179 14.6121 3.05984 14.8068 3.02223C15.0015 2.98463 15.2028 3.00291 15.3875 3.07495C15.5695 3.15145 15.7248 3.28012 15.8338 3.44473C15.9428 3.60934 16.0006 3.80253 16 3.99995V8.99995H23C23.2652 8.99995 23.5196 9.10531 23.7071 9.29285C23.8947 9.48038 24 9.73474 24 9.99995V22C24 22.2652 23.8947 22.5195 23.7071 22.7071C23.5196 22.8946 23.2652 23 23 23H16V28C16.0006 28.1974 15.9428 28.3906 15.8338 28.5552C15.7248 28.7198 15.5695 28.8484 15.3875 28.925C15.2028 28.997 15.0015 29.0153 14.8068 28.9777C14.6121 28.9401 14.4321 28.8481 14.2875 28.7125ZM27 23C27.2652 23 27.5196 22.8946 27.7071 22.7071C27.8947 22.5195 28 22.2652 28 22V9.99995C28 9.73474 27.8947 9.48038 27.7071 9.29285C27.5196 9.10531 27.2652 8.99995 27 8.99995C26.7348 8.99995 26.4804 9.10531 26.2929 9.29285C26.1054 9.48038 26 9.73474 26 9.99995V22C26 22.2652 26.1054 22.5195 26.2929 22.7071C26.4804 22.8946 26.7348 23 27 23Z" fill="#1C1C1C"/>
</svg>
