<svg width="32" height="32" viewBox="0 0 32 32" fill="none" xmlns="http://www.w3.org/2000/svg">
<path d="M26.7125 6.71246L23.4125 9.99996L25.7125 12.2875C25.8482 12.432 25.9401 12.6121 25.9777 12.8068C26.0153 13.0014 25.9971 13.2028 25.925 13.3875C25.8485 13.5695 25.7198 13.7247 25.5552 13.8337C25.3906 13.9427 25.1974 14.0006 25 14H19C18.7348 14 18.4804 13.8946 18.2929 13.7071C18.1054 13.5195 18 13.2652 18 13V6.99996C17.9994 6.80254 18.0572 6.60935 18.1662 6.44474C18.2752 6.28013 18.4305 6.15146 18.6125 6.07496C18.7972 6.00292 18.9986 5.98464 19.1932 6.02225C19.3879 6.05985 19.5679 6.1518 19.7125 6.28746L22 8.58746L25.2875 5.28746C25.4818 5.128 25.7285 5.04651 25.9795 5.05884C26.2306 5.07117 26.4681 5.17644 26.6458 5.35417C26.8235 5.53191 26.9288 5.7694 26.9411 6.02045C26.9535 6.2715 26.872 6.51817 26.7125 6.71246ZM13 18H7.00001C6.80258 17.9993 6.60939 18.0572 6.44478 18.1662C6.28017 18.2752 6.15151 18.4305 6.07501 18.6125C6.00296 18.7972 5.98469 18.9985 6.02229 19.1932C6.0599 19.3878 6.15185 19.5679 6.28751 19.7125L8.58751 22L5.28751 25.2875C5.09973 25.4771 4.99438 25.7331 4.99438 26C4.99438 26.2668 5.09973 26.5229 5.28751 26.7125C5.47865 26.8973 5.73413 27.0006 6.00001 27.0006C6.26589 27.0006 6.52137 26.8973 6.71251 26.7125L10 23.4125L12.2875 25.7125C12.4795 25.8959 12.7345 25.9988 13 26C13.1327 25.9994 13.2642 25.9739 13.3875 25.925C13.5695 25.8485 13.7248 25.7198 13.8338 25.5552C13.9428 25.3906 14.0006 25.1974 14 25V19C14 18.7347 13.8947 18.4804 13.7071 18.2929C13.5196 18.1053 13.2652 18 13 18Z" fill="#1C1C1C"/>
</svg>
