<svg width="32" height="32" viewBox="0 0 32 32" fill="none" xmlns="http://www.w3.org/2000/svg">
<path d="M28 16C28 16.2652 27.8947 16.5195 27.7071 16.7071C27.5196 16.8946 27.2652 17 27 17H15V25C15.0006 25.1974 14.9428 25.3906 14.8338 25.5552C14.7248 25.7198 14.5695 25.8484 14.3875 25.925C14.2642 25.9739 14.1327 25.9994 14 26C13.7345 25.9988 13.4795 25.8959 13.2875 25.7125L4.28751 16.7125C4.09973 16.5229 3.99438 16.2668 3.99438 16C3.99438 15.7331 4.09973 15.477 4.28751 15.2875L13.2875 6.28745C13.4321 6.15179 13.6121 6.05984 13.8068 6.02223C14.0015 5.98463 14.2028 6.00291 14.3875 6.07495C14.5695 6.15145 14.7248 6.28012 14.8338 6.44473C14.9428 6.60934 15.0006 6.80253 15 6.99995V15H27C27.2652 15 27.5196 15.1053 27.7071 15.2928C27.8947 15.4804 28 15.7347 28 16Z" fill="#1C1C1C"/>
</svg>
