<svg width="32" height="32" viewBox="0 0 32 32" fill="none" xmlns="http://www.w3.org/2000/svg">
<path d="M29 18C28.9967 20.1207 28.1528 22.1536 26.6532 23.6532C25.1536 25.1527 23.1207 25.9966 21 26H10C9.73479 26 9.48044 25.8946 9.2929 25.7071C9.10537 25.5195 9.00001 25.2652 9.00001 25C9.00001 24.7347 9.10537 24.4804 9.2929 24.2928C9.48044 24.1053 9.73479 24 10 24H21C22.5913 24 24.1174 23.3678 25.2427 22.2426C26.3679 21.1174 27 19.5913 27 18C27 16.4087 26.3679 14.8825 25.2427 13.7573C24.1174 12.6321 22.5913 12 21 12H11V17C11.0006 17.1974 10.9428 17.3906 10.8338 17.5552C10.7248 17.7198 10.5695 17.8484 10.3875 17.925C10.2642 17.9739 10.1327 17.9994 10 18C9.73447 17.9988 9.47947 17.8959 9.28751 17.7125L3.28751 11.7125C3.09973 11.5229 2.99438 11.2668 2.99438 11C2.99438 10.7331 3.09973 10.477 3.28751 10.2875L9.28751 4.28745C9.4321 4.15179 9.61214 4.05984 9.8068 4.02223C10.0015 3.98463 10.2028 4.00291 10.3875 4.07495C10.5695 4.15145 10.7248 4.28012 10.8338 4.44473C10.9428 4.60934 11.0006 4.80253 11 4.99995V9.99995H21C23.1207 10.0033 25.1536 10.8472 26.6532 12.3467C28.1528 13.8463 28.9967 15.8792 29 18Z" fill="#1C1C1C"/>
</svg>
