<svg width="32" height="32" viewBox="0 0 32 32" fill="none" xmlns="http://www.w3.org/2000/svg">
<path d="M29 25C29 25.2652 28.8947 25.5195 28.7071 25.7071C28.5196 25.8946 28.2652 26 28 26C27.7348 26 27.4804 25.8946 27.2929 25.7071C27.1054 25.5195 27 25.2652 27 25C26.9967 22.0836 25.8367 19.2876 23.7745 17.2254C21.7123 15.1632 18.9164 14.0033 16 14H11V19C11.0006 19.1974 10.9428 19.3906 10.8338 19.5552C10.7248 19.7198 10.5695 19.8484 10.3875 19.925C10.2642 19.9739 10.1327 19.9994 10 20C9.73447 19.9988 9.47947 19.8959 9.28751 19.7125L3.28751 13.7125C3.09973 13.5229 2.99438 13.2668 2.99438 13C2.99438 12.7331 3.09973 12.477 3.28751 12.2875L9.28751 6.28745C9.4321 6.15179 9.61214 6.05984 9.8068 6.02223C10.0015 5.98463 10.2028 6.00291 10.3875 6.07495C10.5695 6.15145 10.7248 6.28012 10.8338 6.44473C10.9428 6.60934 11.0006 6.80253 11 6.99995V12H16C19.4458 12.0066 22.7486 13.3783 25.1851 15.8149C27.6216 18.2514 28.9934 21.5542 29 25Z" fill="#1C1C1C"/>
</svg>
