<svg width="32" height="32" viewBox="0 0 32 32" fill="none" xmlns="http://www.w3.org/2000/svg">
<path d="M15 18V25.5C15.0006 25.6974 14.9428 25.8906 14.8338 26.0552C14.7248 26.2198 14.5695 26.3485 14.3875 26.425C14.2642 26.474 14.1327 26.4994 14 26.5C13.7345 26.4989 13.4795 26.396 13.2875 26.2125L10.25 23.1625L5.70002 27.7125C5.51336 27.8963 5.26201 27.9996 5.00002 28C4.73448 27.9989 4.47948 27.896 4.28752 27.7125C4.10051 27.525 3.99548 27.271 3.99548 27.0063C3.99548 26.7415 4.10051 26.4875 4.28752 26.3L8.83752 21.75L5.78752 18.7125C5.65186 18.5679 5.55991 18.3879 5.5223 18.1932C5.4847 17.9985 5.50298 17.7972 5.57502 17.6125C5.65152 17.4305 5.78019 17.2752 5.9448 17.1662C6.10941 17.0572 6.3026 16.9994 6.50002 17H14C14.2652 17 14.5196 17.1054 14.7071 17.2929C14.8947 17.4804 15 17.7348 15 18ZM26 4H9.00002C8.46959 4 7.96088 4.21071 7.58581 4.58579C7.21073 4.96086 7.00002 5.46957 7.00002 6V12C7.00002 12.2652 7.10538 12.5196 7.29291 12.7071C7.48045 12.8946 7.7348 13 8.00002 13C8.26524 13 8.51959 12.8946 8.70713 12.7071C8.89466 12.5196 9.00002 12.2652 9.00002 12V6H26V23H20C19.7348 23 19.4804 23.1054 19.2929 23.2929C19.1054 23.4804 19 23.7348 19 24C19 24.2652 19.1054 24.5196 19.2929 24.7071C19.4804 24.8946 19.7348 25 20 25H26C26.5305 25 27.0392 24.7893 27.4142 24.4142C27.7893 24.0391 28 23.5304 28 23V6C28 5.46957 27.7893 4.96086 27.4142 4.58579C27.0392 4.21071 26.5305 4 26 4Z" fill="#1C1C1C"/>
</svg>
