<svg width="32" height="32" viewBox="0 0 32 32" fill="none" xmlns="http://www.w3.org/2000/svg">
<path d="M24.4875 24.4875C22.2352 26.7362 19.1826 27.9992 16 27.9992C12.8173 27.9992 9.76472 26.7362 7.51248 24.4875C7.32546 24.3 7.22044 24.046 7.22044 23.7812C7.22044 23.5164 7.32546 23.2624 7.51248 23.075C7.60445 22.9809 7.7143 22.9061 7.83559 22.855C7.95687 22.804 8.08713 22.7777 8.21873 22.7777C8.35032 22.7777 8.48058 22.804 8.60186 22.855C8.72315 22.9061 8.833 22.9809 8.92498 23.075C10.3239 24.4724 12.1058 25.4237 14.0453 25.8086C15.9848 26.1936 17.9949 25.9949 19.8215 25.2377C21.6481 24.4805 23.2093 23.1988 24.3076 21.5545C25.4059 19.9103 25.9921 17.9773 25.9921 16C25.9921 14.0226 25.4059 12.0897 24.3076 10.4454C23.2093 8.80117 21.6481 7.51944 19.8215 6.76223C17.9949 6.00503 15.9848 5.80635 14.0453 6.1913C12.1058 6.57625 10.3239 7.52755 8.92498 8.92496L8.38748 9.46246L10.6875 11.7625C10.8252 11.903 10.9185 12.0811 10.9555 12.2743C10.9925 12.4676 10.9717 12.6675 10.8956 12.849C10.8195 13.0305 10.6916 13.1855 10.5278 13.2946C10.3641 13.4038 10.1718 13.4621 9.97498 13.4625H3.97498C3.70976 13.4625 3.45541 13.3571 3.26787 13.1696C3.08033 12.982 2.97498 12.7277 2.97498 12.4625V6.46246C2.97861 6.26437 3.03958 6.07158 3.1505 5.90741C3.26142 5.74325 3.41754 5.61475 3.59998 5.53746C3.78319 5.46329 3.98427 5.44508 4.17783 5.48513C4.37139 5.52517 4.54874 5.62168 4.68748 5.76246L6.97498 8.04996L7.51248 7.51246C9.7635 5.26144 12.8165 3.99683 16 3.99683C19.1834 3.99683 22.2365 5.26144 24.4875 7.51246C26.7385 9.76349 28.0031 12.8165 28.0031 16C28.0031 19.1834 26.7385 22.2364 24.4875 24.4875Z" fill="#1C1C1C"/>
</svg>
