<svg width="32" height="32" viewBox="0 0 32 32" fill="none" xmlns="http://www.w3.org/2000/svg">
<path d="M14.2875 28.7125L2.28751 16.7125C2.09973 16.5229 1.99438 16.2668 1.99438 16C1.99438 15.7331 2.09973 15.477 2.28751 15.2875L14.2875 3.28745C14.4321 3.15179 14.6121 3.05984 14.8068 3.02223C15.0015 2.98463 15.2028 3.00291 15.3875 3.07495C15.5695 3.15145 15.7248 3.28012 15.8338 3.44473C15.9428 3.60934 16.0006 3.80253 16 3.99995V8.99995H26C26.5304 8.99995 27.0392 9.21067 27.4142 9.58574C27.7893 9.96081 28 10.4695 28 11V21C28 21.5304 27.7893 22.0391 27.4142 22.4142C27.0392 22.7892 26.5304 23 26 23H16V28C16.0006 28.1974 15.9428 28.3906 15.8338 28.5552C15.7248 28.7198 15.5695 28.8484 15.3875 28.925C15.2028 28.997 15.0015 29.0153 14.8068 28.9777C14.6121 28.9401 14.4321 28.8481 14.2875 28.7125Z" fill="#1C1C1C"/>
</svg>
