<svg width="32" height="32" viewBox="0 0 32 32" fill="none" xmlns="http://www.w3.org/2000/svg">
<path d="M25 9.99995V28C25 28.2652 24.8947 28.5195 24.7071 28.7071C24.5196 28.8946 24.2652 29 24 29C23.7348 29 23.4804 28.8946 23.2929 28.7071C23.1054 28.5195 23 28.2652 23 28V11H13V16C13.0006 16.1974 12.9428 16.3906 12.8338 16.5552C12.7248 16.7198 12.5695 16.8484 12.3875 16.925C12.2642 16.9739 12.1327 16.9994 12 17C11.7345 16.9988 11.4795 16.8959 11.2875 16.7125L5.28751 10.7125C5.09973 10.5229 4.99438 10.2668 4.99438 9.99995C4.99438 9.7331 5.09973 9.47705 5.28751 9.28745L11.2875 3.28745C11.4321 3.15179 11.6121 3.05984 11.8068 3.02223C12.0015 2.98463 12.2028 3.00291 12.3875 3.07495C12.5695 3.15145 12.7248 3.28012 12.8338 3.44473C12.9428 3.60934 13.0006 3.80253 13 3.99995V8.99995H24C24.2652 8.99995 24.5196 9.10531 24.7071 9.29285C24.8947 9.48038 25 9.73474 25 9.99995Z" fill="#1C1C1C"/>
</svg>
