<svg width="32" height="32" viewBox="0 0 32 32" fill="none" xmlns="http://www.w3.org/2000/svg">
<path d="M9.97498 13.4625H3.97498C3.70976 13.4625 3.45541 13.3571 3.26787 13.1696C3.08033 12.982 2.97498 12.7277 2.97498 12.4625V6.46247C2.97861 6.26438 3.03958 6.07158 3.1505 5.90742C3.26142 5.74325 3.41754 5.61475 3.59998 5.53747C3.78319 5.4633 3.98427 5.44509 4.17783 5.48513C4.37139 5.52518 4.54874 5.62169 4.68748 5.76247L6.97498 8.04997L7.51248 7.51247C9.76633 5.26679 12.8183 4.00586 16 4.00586C19.1816 4.00586 22.2336 5.26679 24.4875 7.51247C24.6745 7.69994 24.7795 7.95392 24.7795 8.21872C24.7795 8.48352 24.6745 8.7375 24.4875 8.92497C24.3955 9.01908 24.2856 9.09386 24.1644 9.14492C24.0431 9.19598 23.9128 9.22228 23.7812 9.22228C23.6496 9.22228 23.5194 9.19598 23.3981 9.14492C23.2768 9.09386 23.1669 9.01908 23.075 8.92497C21.1961 7.05331 18.652 6.00243 16 6.00243C13.3479 6.00243 10.8039 7.05331 8.92498 8.92497L8.38748 9.46247L10.6875 11.7625C10.8252 11.903 10.9185 12.0811 10.9555 12.2743C10.9925 12.4676 10.9717 12.6675 10.8956 12.849C10.8195 13.0305 10.6916 13.1855 10.5278 13.2946C10.3641 13.4038 10.1718 13.4621 9.97498 13.4625ZM28.025 18.5375H22.025C21.8282 18.5378 21.6359 18.5962 21.4721 18.7053C21.3083 18.8144 21.1804 18.9694 21.1043 19.1509C21.0283 19.3324 21.0075 19.5323 21.0445 19.7256C21.0815 19.9189 21.1747 20.0969 21.3125 20.2375L23.6125 22.5375L23.075 23.075C21.1961 24.9466 18.652 25.9975 16 25.9975C13.3479 25.9975 10.8039 24.9466 8.92498 23.075C8.833 22.9809 8.72315 22.9061 8.60186 22.855C8.48058 22.804 8.35032 22.7777 8.21873 22.7777C8.08713 22.7777 7.95687 22.804 7.83559 22.855C7.7143 22.9061 7.60445 22.9809 7.51248 23.075C7.32546 23.2624 7.22044 23.5164 7.22044 23.7812C7.22044 24.046 7.32546 24.3 7.51248 24.4875C9.76472 26.7362 12.8173 27.9992 16 27.9992C19.1826 27.9992 22.2352 26.7362 24.4875 24.4875L25.025 23.95L27.3125 26.2375C27.4045 26.3334 27.5152 26.4095 27.6377 26.4611C27.7602 26.5127 27.892 26.5387 28.025 26.5375C28.1536 26.5368 28.281 26.5114 28.4 26.4625C28.5824 26.3852 28.7385 26.2567 28.8495 26.0925C28.9604 25.9284 29.0213 25.7356 29.025 25.5375V19.5375C29.025 19.4061 28.9991 19.2761 28.9489 19.1548C28.8986 19.0335 28.8249 18.9232 28.7321 18.8304C28.6392 18.7375 28.529 18.6638 28.4077 18.6136C28.2863 18.5633 28.1563 18.5375 28.025 18.5375Z" fill="#1C1C1C"/>
</svg>
