<svg width="32" height="32" viewBox="0 0 32 32" fill="none" xmlns="http://www.w3.org/2000/svg">
<path d="M10.7125 18.2875C10.9003 18.477 11.0056 18.7331 11.0056 19C11.0056 19.2668 10.9003 19.5229 10.7125 19.7125C10.5214 19.8973 10.2659 20.0006 10 20.0006C9.73413 20.0006 9.47865 19.8973 9.28751 19.7125L3.28751 13.7125C3.09973 13.5229 2.99438 13.2668 2.99438 13C2.99438 12.7331 3.09973 12.477 3.28751 12.2875L9.28751 6.28745C9.48181 6.12799 9.72847 6.0465 9.97952 6.05883C10.2306 6.07116 10.4681 6.17643 10.6458 6.35416C10.8235 6.5319 10.9288 6.76939 10.9411 7.02044C10.9535 7.27149 10.872 7.51816 10.7125 7.71245L5.41251 13L10.7125 18.2875ZM17 12.0375V6.99995C17.0006 6.80253 16.9428 6.60934 16.8338 6.44473C16.7248 6.28012 16.5695 6.15145 16.3875 6.07495C16.2028 6.00291 16.0015 5.98463 15.8068 6.02223C15.6121 6.05984 15.4321 6.15179 15.2875 6.28745L9.28751 12.2875C9.09973 12.477 8.99438 12.7331 8.99438 13C8.99438 13.2668 9.09973 13.5229 9.28751 13.7125L15.2875 19.7125C15.4795 19.8959 15.7345 19.9988 16 20C16.1327 19.9994 16.2642 19.9739 16.3875 19.925C16.5695 19.8484 16.7248 19.7198 16.8338 19.5552C16.9428 19.3906 17.0006 19.1974 17 19V14.05C19.7311 14.3021 22.2698 15.5643 24.1193 17.5895C25.9688 19.6148 26.9961 22.2573 27 25C27 25.2652 27.1054 25.5195 27.2929 25.7071C27.4804 25.8946 27.7348 26 28 26C28.2652 26 28.5196 25.8946 28.7071 25.7071C28.8947 25.5195 29 25.2652 29 25C28.9974 21.7259 27.7606 18.5732 25.5364 16.1706C23.3122 13.768 20.2641 12.2922 17 12.0375Z" fill="#1C1C1C"/>
</svg>
