<svg width="32" height="32" viewBox="0 0 32 32" fill="none" xmlns="http://www.w3.org/2000/svg">
<path d="M19 13C19 12.7348 19.1054 12.4804 19.2929 12.2929C19.4804 12.1054 19.7348 12 20 12H30C30.2652 12 30.5196 12.1054 30.7071 12.2929C30.8946 12.4804 31 12.7348 31 13C31 13.2652 30.8946 13.5196 30.7071 13.7071C30.5196 13.8946 30.2652 14 30 14H20C19.7348 14 19.4804 13.8946 19.2929 13.7071C19.1054 13.5196 19 13.2652 19 13ZM30 16H20C19.7348 16 19.4804 16.1054 19.2929 16.2929C19.1054 16.4804 19 16.7348 19 17C19 17.2652 19.1054 17.5196 19.2929 17.7071C19.4804 17.8947 19.7348 18 20 18H30C30.2652 18 30.5196 17.8947 30.7071 17.7071C30.8946 17.5196 31 17.2652 31 17C31 16.7348 30.8946 16.4804 30.7071 16.2929C30.5196 16.1054 30.2652 16 30 16ZM30 20H20C19.7348 20 19.4804 20.1054 19.2929 20.2929C19.1054 20.4804 19 20.7348 19 21C19 21.2652 19.1054 21.5196 19.2929 21.7071C19.4804 21.8946 19.7348 22 20 22H30C30.2652 22 30.5196 21.8946 30.7071 21.7071C30.8946 21.5196 31 21.2652 31 21C31 20.7348 30.8946 20.4804 30.7071 20.2929C30.5196 20.1054 30.2652 20 30 20ZM30 24H9C8.73478 24 8.48043 24.1054 8.29289 24.2929C8.10535 24.4804 8 24.7348 8 25C8 25.2652 8.10535 25.5196 8.29289 25.7071C8.48043 25.8946 8.73478 26 9 26H30C30.2652 26 30.5196 25.8946 30.7071 25.7071C30.8946 25.5196 31 25.2652 31 25C31 24.7348 30.8946 24.4804 30.7071 24.2929C30.5196 24.1054 30.2652 24 30 24ZM9.9875 22C8.78086 22.0026 7.59411 21.6927 6.54281 21.1004C5.49151 20.5082 4.6115 19.6538 3.98847 18.6204C3.36544 17.5871 3.02062 16.41 2.98759 15.2038C2.95456 13.9976 3.23445 12.8034 3.8 11.7375C3.23182 11.2849 2.81856 10.6667 2.61753 9.96859C2.4165 9.27053 2.43765 8.52721 2.67805 7.84171C2.91846 7.15621 3.36621 6.5625 3.9592 6.1429C4.5522 5.72331 5.26106 5.49862 5.9875 5.50001C6.17709 5.49933 6.36315 5.55126 6.525 5.65001L14.25 10.475C14.6171 10.4072 14.9456 10.2049 15.1715 9.9078C15.3975 9.61066 15.5045 9.23996 15.4717 8.86813C15.4388 8.49631 15.2686 8.15007 14.9941 7.89708C14.7197 7.64408 14.3608 7.5025 13.9875 7.50001C13.7223 7.50001 13.4679 7.39465 13.2804 7.20711C13.0929 7.01958 12.9875 6.76522 12.9875 6.50001C12.9875 6.23479 13.0929 5.98044 13.2804 5.7929C13.4679 5.60536 13.7223 5.50001 13.9875 5.50001C14.9158 5.50001 15.806 5.86876 16.4624 6.52513C17.1187 7.18151 17.4875 8.07175 17.4875 9.00001C17.4875 9.92826 17.1187 10.8185 16.4624 11.4749C15.806 12.1313 14.9158 12.5 13.9875 12.5C13.8019 12.5003 13.6199 12.4484 13.4625 12.35L9.7125 10.0125C8.50176 10.0828 7.35785 10.5908 6.49381 11.4418C5.62976 12.2929 5.10448 13.4289 5.0158 14.6385C4.92711 15.848 5.28106 17.0485 6.01172 18.0165C6.74239 18.9844 7.79997 19.6538 8.9875 19.9V14.3125C8.9875 14.0473 9.09285 13.7929 9.28039 13.6054C9.46793 13.4179 9.72228 13.3125 9.9875 13.3125C10.2527 13.3125 10.5071 13.4179 10.6946 13.6054C10.8821 13.7929 10.9875 14.0473 10.9875 14.3125V19.9C11.914 19.7133 12.7686 19.2677 13.4523 18.6151C14.1359 17.9624 14.6205 17.1294 14.85 16.2125C14.8807 16.0858 14.9362 15.9665 15.0133 15.8614C15.0903 15.7563 15.1875 15.6675 15.299 15.6001C15.4106 15.5327 15.5344 15.4881 15.6632 15.4687C15.7921 15.4494 15.9236 15.4558 16.05 15.4875C16.3064 15.5498 16.5277 15.7109 16.6659 15.9356C16.804 16.1604 16.8477 16.4306 16.7875 16.6875C16.4105 18.2054 15.5359 19.5533 14.3035 20.5162C13.071 21.4791 11.5515 22.0014 9.9875 22ZM4.9875 10.1125C5.65499 9.42935 6.45455 8.88922 7.3375 8.52501L5.7375 7.52501C5.38865 7.58397 5.07188 7.76434 4.84315 8.03424C4.61441 8.30415 4.48844 8.64622 4.4875 9.00001C4.48668 9.21037 4.53088 9.41848 4.61712 9.61036C4.70336 9.80224 4.82964 9.97345 4.9875 10.1125Z" fill="#1C1C1C"/>
</svg>
