<svg width="32" height="32" viewBox="0 0 32 32" fill="none" xmlns="http://www.w3.org/2000/svg">
<path d="M26.7751 13.55L17.6126 16.525L23.2751 24.3125C23.3633 24.4175 23.429 24.5395 23.4681 24.671C23.5072 24.8025 23.5189 24.9406 23.5023 25.0767C23.4858 25.2129 23.4414 25.3442 23.3719 25.4624C23.3024 25.5807 23.2094 25.6834 23.0985 25.7642C22.9877 25.845 22.8614 25.9021 22.7275 25.932C22.5937 25.9619 22.4551 25.9639 22.3204 25.938C22.1857 25.912 22.0578 25.8586 21.9446 25.7811C21.8315 25.7036 21.7355 25.6037 21.6626 25.4875L16.0001 17.7L10.3376 25.4875C10.2647 25.6037 10.1686 25.7036 10.0555 25.7811C9.94229 25.8586 9.81439 25.912 9.6797 25.938C9.54502 25.9639 9.40644 25.9619 9.27257 25.932C9.1387 25.9021 9.01242 25.845 8.90157 25.7642C8.79071 25.6834 8.69766 25.5807 8.6282 25.4624C8.55874 25.3442 8.51435 25.2129 8.49779 25.0767C8.48124 24.9406 8.49287 24.8025 8.53197 24.671C8.57106 24.5395 8.63679 24.4175 8.72505 24.3125L14.3876 16.525L5.22505 13.55C4.9731 13.4671 4.76439 13.2875 4.64483 13.0508C4.52528 12.814 4.50467 12.5395 4.58755 12.2875C4.67043 12.0355 4.85001 11.8268 5.08677 11.7073C5.32354 11.5877 5.5981 11.5671 5.85005 11.65L15.0001 14.625V5C15.0001 4.73478 15.1054 4.48043 15.2929 4.29289C15.4805 4.10536 15.7348 4 16.0001 4C16.2653 4 16.5196 4.10536 16.7072 4.29289C16.8947 4.48043 17.0001 4.73478 17.0001 5V14.625L26.1501 11.65C26.402 11.5671 26.6766 11.5877 26.9133 11.7073C27.1501 11.8268 27.3297 12.0355 27.4126 12.2875C27.4954 12.5395 27.4748 12.814 27.3553 13.0508C27.2357 13.2875 27.027 13.4671 26.7751 13.55Z" fill="#1C1C1C"/>
</svg>
