<svg width="32" height="32" viewBox="0 0 32 32" fill="none" xmlns="http://www.w3.org/2000/svg">
<path d="M26.025 20.6375L18 16L26.025 11.3625C26.1493 11.3029 26.26 11.2182 26.35 11.1137C26.44 11.0092 26.5075 10.8873 26.5481 10.7555C26.5887 10.6237 26.6017 10.485 26.5861 10.348C26.5705 10.2109 26.5268 10.0786 26.4576 9.95932C26.3885 9.84002 26.2954 9.73631 26.1842 9.65471C26.0731 9.57311 25.9462 9.51538 25.8117 9.48516C25.6771 9.45494 25.5378 9.45287 25.4024 9.47909C25.267 9.5053 25.1385 9.55924 25.025 9.6375L17 14.2625V5C17 4.73478 16.8946 4.48043 16.7071 4.29289C16.5195 4.10536 16.2652 4 16 4C15.7347 4 15.4804 4.10536 15.2929 4.29289C15.1053 4.48043 15 4.73478 15 5V14.2625L6.97496 9.6375C6.74802 9.52865 6.48836 9.50938 6.24784 9.58355C6.00731 9.65772 5.8036 9.81986 5.67736 10.0376C5.55112 10.2554 5.51165 10.5127 5.56681 10.7583C5.62198 11.0039 5.76772 11.2196 5.97496 11.3625L14 16L5.97496 20.6375C5.74683 20.7707 5.58067 20.9887 5.51275 21.244C5.44483 21.4993 5.48068 21.7711 5.61246 22C5.69688 22.1541 5.82189 22.2822 5.97393 22.3704C6.12598 22.4585 6.29925 22.5033 6.47496 22.5C6.65142 22.5035 6.8251 22.4557 6.97496 22.3625L15 17.7375V27C15 27.2652 15.1053 27.5196 15.2929 27.7071C15.4804 27.8946 15.7347 28 16 28C16.2652 28 16.5195 27.8946 16.7071 27.7071C16.8946 27.5196 17 27.2652 17 27V17.7375L25.025 22.3625C25.1748 22.4557 25.3485 22.5035 25.525 22.5C25.7007 22.5033 25.8739 22.4585 26.026 22.3704C26.178 22.2822 26.303 22.1541 26.3875 22C26.5193 21.7711 26.5551 21.4993 26.4872 21.244C26.4193 20.9887 26.2531 20.7707 26.025 20.6375Z" fill="#1C1C1C"/>
</svg>
