<svg width="32" height="32" viewBox="0 0 32 32" fill="none" xmlns="http://www.w3.org/2000/svg">
<path d="M16 3C14.2504 3.00207 12.5191 3.35696 10.9098 4.04344C9.30047 4.72992 7.84612 5.73389 6.63369 6.99532C5.42127 8.25675 4.47569 9.74974 3.85349 11.385C3.23129 13.0202 2.94525 14.7642 3.01248 16.5125C3.27498 23.35 8.88748 28.8625 15.7375 29C18.033 29.0447 20.2993 28.4807 22.3061 27.3653C24.3129 26.25 25.9885 24.623 27.1625 22.65C27.2116 22.568 27.2362 22.4736 27.2334 22.3781C27.2305 22.2825 27.2004 22.1898 27.1464 22.1109C27.0925 22.0319 27.0171 21.9701 26.9291 21.9327C26.8411 21.8954 26.7442 21.884 26.65 21.9C26.2703 21.967 25.8855 22.0005 25.5 22C23.2125 22 21.9375 21 21.2625 20.1625C21.1066 19.9642 20.9646 19.7554 20.8375 19.5375C20.2323 20.3665 19.4246 21.0265 18.4916 21.4542C17.5586 21.8819 16.5314 22.0631 15.5083 21.9805C14.4852 21.8979 13.5005 21.5542 12.6482 20.9823C11.7958 20.4105 11.1045 19.6295 10.6402 18.7141C10.1759 17.7987 9.9542 16.7795 9.99628 15.754C10.0384 14.7284 10.3428 13.7308 10.8806 12.8566C11.4183 11.9823 12.1713 11.2606 13.0676 10.7605C13.964 10.2603 14.9736 9.9985 16 10C17.4784 9.99549 18.9052 10.5439 20 11.5375V11.0375C19.9959 10.778 20.0903 10.5266 20.2643 10.3341C20.4383 10.1415 20.6789 10.0221 20.9375 10C21.074 9.99145 21.2107 10.011 21.3394 10.0574C21.468 10.1038 21.5858 10.1761 21.6853 10.2698C21.7849 10.3636 21.8642 10.4767 21.9183 10.6023C21.9725 10.7279 22.0002 10.8632 22 11V16C22 17.825 22.6125 20 25.5 20C28.3875 20 28.95 17.975 29 16.1875V16C28.9967 12.5532 27.626 9.24852 25.1887 6.81127C22.7515 4.37401 19.4468 3.00331 16 3Z" fill="#1C1C1C"/>
<path d="M16 20C18.2091 20 20 18.2091 20 16C20 13.7909 18.2091 12 16 12C13.7909 12 12 13.7909 12 16C12 18.2091 13.7909 20 16 20Z" fill="#1C1C1C"/>
</svg>
