<svg width="32" height="32" viewBox="0 0 32 32" fill="none" xmlns="http://www.w3.org/2000/svg">
<path d="M24.5125 16C25.4432 14.7186 26.247 13.3496 26.9125 11.9125C28.3 8.8375 28.3125 6.3875 26.9625 5.0375C24.775 2.8625 20.3125 4.425 16 7.5C11.6875 4.425 7.22502 2.8625 5.03752 5.0375C3.68752 6.3875 3.70002 8.8375 5.08752 11.9125C5.75304 13.3496 6.55683 14.7186 7.48752 16C6.55683 17.2814 5.75304 18.6504 5.08752 20.0875C3.70002 23.1625 3.68752 25.6125 5.03752 26.9625C5.73752 27.6625 6.67502 27.975 7.77502 27.975C10.075 27.975 13.075 26.5875 16 24.5C18.925 26.5875 21.925 27.975 24.225 27.975C25.325 27.975 26.2625 27.6625 26.9625 26.9625C28.3125 25.6125 28.3 23.1625 26.9125 20.0875C26.247 18.6504 25.4432 17.2814 24.5125 16ZM24.225 6.0375C24.825 6.0375 25.275 6.175 25.55 6.45C26.25 7.1625 26.075 8.8875 25.0875 11.0875C24.5671 12.2189 23.948 13.3022 23.2375 14.325C22.4375 13.3375 21.55 12.3625 20.6 11.4C19.65 10.4375 18.675 9.5875 17.6625 8.7625C20.4 6.9 22.75 6.0375 24.225 6.0375ZM22.0125 16C21.1371 17.1194 20.1936 18.1839 19.1875 19.1875C18.1772 20.1904 17.1132 21.1376 16 22.025C14.8869 21.1376 13.8228 20.1904 12.8125 19.1875C11.8064 18.1839 10.863 17.1194 9.98752 16C10.863 14.8806 11.8064 13.8161 12.8125 12.8125C13.8228 11.8096 14.8869 10.8623 16 9.975C17.1132 10.8623 18.1772 11.8096 19.1875 12.8125C20.1936 13.8161 21.1371 14.8806 22.0125 16ZM6.91252 11.0875C5.92502 8.8875 5.75002 7.1625 6.45002 6.45C6.72502 6.175 7.17502 6.0375 7.77502 6.0375C9.25002 6.0375 11.6 6.9 14.3375 8.7625C13.325 9.5875 12.3375 10.475 11.4 11.4C10.4625 12.325 9.56252 13.3375 8.76252 14.325C8.05202 13.3022 7.43296 12.2189 6.91252 11.0875ZM6.45002 25.55C5.75002 24.8375 5.92502 23.1125 6.91252 20.9125C7.43296 19.7811 8.05202 18.6978 8.76252 17.675C9.56252 18.6625 10.45 19.6375 11.4 20.6C12.35 21.5625 13.325 22.4125 14.3375 23.2375C10.4875 25.85 7.40002 26.5 6.45002 25.55ZM25.55 25.55C25.275 25.825 24.825 25.9625 24.225 25.9625C22.75 25.9625 20.4 25.1 17.6625 23.2375C18.675 22.4125 19.6625 21.525 20.6 20.6C21.5375 19.675 22.4375 18.6625 23.2375 17.675C23.948 18.6978 24.5671 19.7811 25.0875 20.9125C26.075 23.1125 26.25 24.8375 25.55 25.55ZM17.5 16C17.5 16.2967 17.4121 16.5867 17.2472 16.8334C17.0824 17.08 16.8481 17.2723 16.574 17.3858C16.3 17.4993 15.9984 17.5291 15.7074 17.4712C15.4164 17.4133 15.1491 17.2704 14.9394 17.0607C14.7296 16.8509 14.5867 16.5836 14.5288 16.2926C14.471 16.0017 14.5007 15.7001 14.6142 15.426C14.7277 15.1519 14.92 14.9176 15.1667 14.7528C15.4133 14.588 15.7034 14.5 16 14.5C16.3978 14.5 16.7794 14.658 17.0607 14.9393C17.342 15.2206 17.5 15.6022 17.5 16Z" fill="#1C1C1C"/>
</svg>
