<svg width="32" height="32" viewBox="0 0 32 32" fill="none" xmlns="http://www.w3.org/2000/svg">
<path d="M16.775 3.025C16.6866 3.01805 16.598 3.03532 16.5187 3.07497C16.4394 3.11461 16.3725 3.17513 16.325 3.25C15.0375 5.2 15 6.9875 15 7C14.998 7.14994 15.0301 7.29838 15.0939 7.43406C15.1578 7.56974 15.2517 7.68909 15.3686 7.78305C15.4855 7.87702 15.6222 7.94315 15.7684 7.9764C15.9146 8.00966 16.0665 8.00918 16.2125 7.975C16.675 7.8875 16.9875 7.45 17 6.975C17.0046 6.83753 17.0371 6.70243 17.0956 6.57794C17.1541 6.45346 17.2374 6.3422 17.3403 6.25096C17.4433 6.15973 17.5637 6.09042 17.6943 6.04727C17.8249 6.00412 17.963 5.98804 18.1 6C18.3518 6.03089 18.5832 6.15407 18.7495 6.34572C18.9157 6.53736 19.005 6.78385 19 7.0375C18.9975 7.43147 18.9175 7.82109 18.7645 8.18412C18.6114 8.54716 18.3884 8.8765 18.1081 9.15333C17.8278 9.43016 17.4957 9.64908 17.1307 9.79756C16.7658 9.94605 16.3752 10.0212 15.9813 10.0188C15.5873 10.0163 15.1977 9.93625 14.8346 9.78322C14.4716 9.63018 14.1423 9.40713 13.8654 9.12681C13.3063 8.56069 12.995 7.79565 13 7C13 6.925 13.0125 5.65 13.675 4C13.7093 3.91527 13.7197 3.82275 13.7051 3.73251C13.6905 3.64227 13.6514 3.55776 13.5922 3.48817C13.5329 3.41858 13.4557 3.36658 13.3689 3.33781C13.2821 3.30904 13.1891 3.30461 13.1 3.325C10.1545 4.00253 7.53675 5.68426 5.69605 8.08149C3.85536 10.4787 2.90655 13.442 3.0125 16.4625C3.25 23.35 8.90001 28.8875 15.7875 29C19.1856 29.0547 22.47 27.7766 24.9372 25.4393C27.4044 23.1021 28.8583 19.8916 28.9874 16.4956C29.1165 13.0995 27.9106 9.78791 25.6279 7.2701C23.3453 4.75228 20.1674 3.22845 16.775 3.025ZM10 16C10 15.7033 10.088 15.4133 10.2528 15.1666C10.4176 14.92 10.6519 14.7277 10.926 14.6142C11.2001 14.5007 11.5017 14.4709 11.7926 14.5288C12.0836 14.5867 12.3509 14.7296 12.5607 14.9393C12.7704 15.1491 12.9133 15.4164 12.9712 15.7074C13.0291 15.9983 12.9994 16.2999 12.8858 16.574C12.7723 16.8481 12.58 17.0824 12.3334 17.2472C12.0867 17.412 11.7967 17.5 11.5 17.5C11.1022 17.5 10.7206 17.342 10.4393 17.0607C10.158 16.7794 10 16.3978 10 16ZM19.875 21.8375C18.725 22.5961 17.3777 23.0004 16 23.0004C14.6224 23.0004 13.275 22.5961 12.125 21.8375C11.9071 21.6879 11.7564 21.459 11.705 21.1997C11.6537 20.9405 11.7057 20.6714 11.85 20.45C11.9221 20.3398 12.0152 20.2449 12.124 20.1708C12.2328 20.0967 12.3551 20.0448 12.484 20.0181C12.613 19.9914 12.7459 19.9904 12.8752 20.0152C13.0045 20.04 13.1276 20.09 13.2375 20.1625C14.0553 20.7085 15.0166 21 16 21C16.9834 21 17.9447 20.7085 18.7625 20.1625C18.8724 20.09 18.9955 20.04 19.1248 20.0152C19.2541 19.9904 19.387 19.9914 19.516 20.0181C19.6449 20.0448 19.7672 20.0967 19.876 20.1708C19.9849 20.2449 20.078 20.3398 20.15 20.45C20.2943 20.6714 20.3464 20.9405 20.295 21.1997C20.2436 21.459 20.0929 21.6879 19.875 21.8375ZM20.5 17.5C20.2033 17.5 19.9133 17.412 19.6666 17.2472C19.42 17.0824 19.2277 16.8481 19.1142 16.574C19.0007 16.2999 18.9709 15.9983 19.0288 15.7074C19.0867 15.4164 19.2296 15.1491 19.4393 14.9393C19.6491 14.7296 19.9164 14.5867 20.2074 14.5288C20.4983 14.4709 20.7999 14.5007 21.074 14.6142C21.3481 14.7277 21.5824 14.92 21.7472 15.1666C21.912 15.4133 22 15.7033 22 16C22 16.3978 21.842 16.7794 21.5607 17.0607C21.2794 17.342 20.8978 17.5 20.5 17.5Z" fill="#1C1C1C"/>
</svg>
