<svg width="32" height="32" viewBox="0 0 32 32" fill="none" xmlns="http://www.w3.org/2000/svg">
<path d="M27 5H8.56253C8.21768 5.00325 7.87937 5.09451 7.57968 5.26514C7.27998 5.43577 7.02883 5.68011 6.85003 5.975L1.13753 15.4875C1.04505 15.6425 0.996216 15.8195 0.996216 16C0.996216 16.1805 1.04505 16.3575 1.13753 16.5125L6.85003 26.025C7.02793 26.3207 7.27888 26.5657 7.57878 26.7364C7.87867 26.9072 8.21744 26.9979 8.56253 27H27C27.5305 27 28.0392 26.7893 28.4142 26.4142C28.7893 26.0391 29 25.5304 29 25V7C29 6.46957 28.7893 5.96086 28.4142 5.58579C28.0392 5.21071 27.5305 5 27 5ZM20.7125 18.2875C20.9003 18.4771 21.0057 18.7332 21.0057 19C21.0057 19.2668 20.9003 19.5229 20.7125 19.7125C20.5192 19.8939 20.2651 19.9964 20 20C19.7345 19.9989 19.4795 19.896 19.2875 19.7125L17 17.4125L14.7125 19.7125C14.5192 19.8939 14.2651 19.9964 14 20C13.7345 19.9989 13.4795 19.896 13.2875 19.7125C13.0997 19.5229 12.9944 19.2668 12.9944 19C12.9944 18.7332 13.0997 18.4771 13.2875 18.2875L15.5875 16L13.2875 13.7125C13.1281 13.5182 13.0466 13.2715 13.0589 13.0205C13.0712 12.7694 13.1765 12.5319 13.3542 12.3542C13.532 12.1765 13.7695 12.0712 14.0205 12.0589C14.2716 12.0465 14.5182 12.128 14.7125 12.2875L17 14.5875L19.2875 12.2875C19.4818 12.128 19.7285 12.0465 19.9795 12.0589C20.2306 12.0712 20.4681 12.1765 20.6458 12.3542C20.8236 12.5319 20.9288 12.7694 20.9412 13.0205C20.9535 13.2715 20.872 13.5182 20.7125 13.7125L18.4125 16L20.7125 18.2875Z" fill="#1C1C1C"/>
</svg>
