<svg width="32" height="32" viewBox="0 0 32 32" fill="none" xmlns="http://www.w3.org/2000/svg">
<path d="M16 17.5C16.8284 17.5 17.5 16.8284 17.5 16C17.5 15.1715 16.8284 14.5 16 14.5C15.1716 14.5 14.5 15.1715 14.5 16C14.5 16.8284 15.1716 17.5 16 17.5Z" fill="#1C1C1C"/>
<path d="M23.075 16L26.5375 12.5375C27.4757 11.5993 28.0028 10.3268 28.0028 8.99997C28.0028 7.67315 27.4757 6.40068 26.5375 5.46247C26.073 4.99792 25.5215 4.62942 24.9145 4.37801C24.3075 4.12659 23.657 3.99719 23 3.99719C21.6732 3.99719 20.4007 4.52427 19.4625 5.46247L16 8.92497L12.5375 5.46247C11.5993 4.52427 10.3268 3.99719 9 3.99719C7.67318 3.99719 6.40071 4.52427 5.4625 5.46247C4.5243 6.40068 3.99722 7.67315 3.99722 8.99997C3.99722 10.3268 4.5243 11.5993 5.4625 12.5375L8.925 16L5.4625 19.4625C4.5243 20.4007 3.99722 21.6732 3.99722 23C3.99722 23.6569 4.12662 24.3075 4.37804 24.9145C4.62945 25.5214 4.99795 26.0729 5.4625 26.5375C5.92705 27.002 6.47856 27.3705 7.08552 27.6219C7.69249 27.8734 8.34303 28.0028 9 28.0028C10.3268 28.0028 11.5993 27.4757 12.5375 26.5375L16 23.075L19.4625 26.5375C20.4007 27.4757 21.6732 28.0028 23 28.0028C24.3268 28.0028 25.5993 27.4757 26.5375 26.5375C27.4757 25.5993 28.0028 24.3268 28.0028 23C28.0028 21.6732 27.4757 20.4007 26.5375 19.4625L23.075 16ZM16 11.7625L20.2375 16L16 20.2375L11.7625 16L16 11.7625ZM20.875 6.87497C21.4386 6.31139 22.203 5.99477 23 5.99477C23.797 5.99477 24.5614 6.31139 25.125 6.87497C25.6886 7.43856 26.0052 8.20294 26.0052 8.99997C26.0052 9.797 25.6886 10.5614 25.125 11.125L21.6625 14.5875L17.4125 10.3375L20.875 6.87497ZM11.125 25.125C10.5614 25.6886 9.79703 26.0052 9 26.0052C8.20297 26.0052 7.43859 25.6886 6.875 25.125C6.31142 24.5614 5.9948 23.797 5.9948 23C5.9948 22.2029 6.31142 21.4386 6.875 20.875L10.3375 17.4125L14.5875 21.6625L11.125 25.125Z" fill="#1C1C1C"/>
</svg>
