<svg width="32" height="32" viewBox="0 0 32 32" fill="none" xmlns="http://www.w3.org/2000/svg">
<path d="M6.48749 7.98762C6.43796 7.93667 6.37814 7.89686 6.31202 7.87085C6.24589 7.84484 6.17498 7.83322 6.10401 7.83677C6.03304 7.84031 5.96365 7.85895 5.90045 7.89143C5.83725 7.9239 5.78169 7.96948 5.73749 8.02512C3.96366 10.3051 3.00058 13.1114 3.00058 16.0001C3.00058 18.8889 3.96366 21.6951 5.73749 23.9751C5.78169 24.0308 5.83725 24.0763 5.90045 24.1088C5.96365 24.1413 6.03304 24.1599 6.10401 24.1635C6.17498 24.167 6.24589 24.1554 6.31202 24.1294C6.37814 24.1034 6.43796 24.0636 6.48749 24.0126L7.39999 23.1001C7.49551 22.9884 7.61448 22.8991 7.74844 22.8386C7.88239 22.7781 8.02803 22.7479 8.17499 22.7501C8.41483 22.7517 8.64588 22.8406 8.82499 23.0001C9.02019 23.1813 9.13718 23.4314 9.15118 23.6974C9.16518 23.9634 9.07509 24.2244 8.89999 24.4251C8.59462 24.7849 8.2691 25.1271 7.92499 25.4501C7.8714 25.4977 7.82895 25.5565 7.80066 25.6223C7.77238 25.6881 7.75895 25.7594 7.76134 25.831C7.76373 25.9026 7.78187 25.9728 7.81448 26.0366C7.84708 26.1004 7.89335 26.1562 7.94999 26.2001C10.2416 28.013 13.078 28.9993 16 28.9993C18.922 28.9993 21.7584 28.013 24.05 26.2001C24.1066 26.1562 24.1529 26.1004 24.1855 26.0366C24.2181 25.9728 24.2363 25.9026 24.2386 25.831C24.241 25.7594 24.2276 25.6881 24.1993 25.6223C24.171 25.5565 24.1286 25.4977 24.075 25.4501C23.7269 25.1228 23.3972 24.7765 23.0875 24.4126C23.0013 24.3133 22.9355 24.198 22.8939 24.0733C22.8523 23.9485 22.8357 23.8168 22.845 23.6857C22.8542 23.5545 22.8893 23.4264 22.948 23.3088C23.0068 23.1912 23.0882 23.0863 23.1875 23.0001C23.2868 22.9139 23.4021 22.8482 23.5269 22.8065C23.6516 22.7649 23.7833 22.7483 23.9145 22.7576C24.1793 22.7763 24.4259 22.8995 24.6 23.1001L25.5125 24.0126C25.562 24.0636 25.6218 24.1034 25.688 24.1294C25.7541 24.1554 25.825 24.167 25.896 24.1635C25.9669 24.1599 26.0363 24.1413 26.0995 24.1088C26.1627 24.0763 26.2183 24.0308 26.2625 23.9751C28.0363 21.6951 28.9994 18.8889 28.9994 16.0001C28.9994 13.1114 28.0363 10.3051 26.2625 8.02512C26.2183 7.96948 26.1627 7.9239 26.0995 7.89143C26.0363 7.85895 25.9669 7.84031 25.896 7.83677C25.825 7.83322 25.7541 7.84484 25.688 7.87085C25.6218 7.89686 25.562 7.93667 25.5125 7.98762L24.6 8.90012C24.5053 9.00956 24.3882 9.09744 24.2567 9.15781C24.1252 9.21819 23.9822 9.24966 23.8375 9.25012C23.5927 9.25527 23.3554 9.16571 23.175 9.00012C22.9798 8.81889 22.8628 8.5688 22.8488 8.30281C22.8348 8.03682 22.9249 7.77583 23.1 7.57512C23.4054 7.2153 23.7309 6.87309 24.075 6.55012C24.1286 6.50256 24.171 6.44377 24.1993 6.37794C24.2276 6.31211 24.241 6.24086 24.2386 6.16924C24.2363 6.09763 24.2181 6.02743 24.1855 5.96363C24.1529 5.89983 24.1066 5.844 24.05 5.80012C21.7584 3.98726 18.922 3.00098 16 3.00098C13.078 3.00098 10.2416 3.98726 7.94999 5.80012C7.89335 5.844 7.84708 5.89983 7.81448 5.96363C7.78187 6.02743 7.76373 6.09763 7.76134 6.16924C7.75895 6.24086 7.77238 6.31211 7.80066 6.37794C7.82895 6.44377 7.8714 6.50256 7.92499 6.55012C8.2691 6.87309 8.59462 7.2153 8.89999 7.57512C9.03092 7.71823 9.11741 7.89634 9.1489 8.08773C9.1804 8.27913 9.15555 8.47556 9.07739 8.65308C8.99923 8.83061 8.87112 8.98157 8.70867 9.08758C8.54623 9.19358 8.35646 9.25005 8.16249 9.25012C8.01777 9.24966 7.87482 9.21819 7.74328 9.15781C7.61175 9.09744 7.49469 9.00956 7.39999 8.90012L6.48749 7.98762ZM9.89999 11.0251C10.0116 10.9785 10.1296 10.949 10.25 10.9376C10.4634 10.9298 10.6739 10.9896 10.8512 11.1086C11.0286 11.2276 11.1638 11.3996 11.2375 11.6001C11.4762 12.2717 11.6601 12.9614 11.7875 13.6626C11.8404 13.9158 11.7931 14.1797 11.6556 14.3988C11.5181 14.6179 11.301 14.7752 11.05 14.8376C10.9732 14.8622 10.8931 14.8748 10.8125 14.8751C10.5771 14.8758 10.3491 14.7935 10.1684 14.6425C9.98779 14.4916 9.86618 14.2819 9.82499 14.0501C9.72091 13.4588 9.56617 12.8775 9.36249 12.3126C9.18749 11.8126 9.39999 11.2251 9.89999 11.0251ZM11.7875 18.3376C11.6601 19.0388 11.4762 19.7286 11.2375 20.4001C11.1659 20.5944 11.0364 20.7621 10.8666 20.8806C10.6967 20.9991 10.4946 21.0626 10.2875 21.0626C10.1533 21.0635 10.0207 21.0336 9.89999 20.9751C9.66442 20.868 9.47808 20.6757 9.37838 20.4369C9.27869 20.1981 9.27301 19.9304 9.36249 19.6876C9.56617 19.1228 9.72091 18.5415 9.82499 17.9501C9.86756 17.7236 9.98614 17.5184 10.1612 17.3683C10.3362 17.2183 10.5571 17.1325 10.7875 17.1251L11.0375 17.1501C11.2902 17.2154 11.5085 17.3746 11.6478 17.5952C11.7872 17.8159 11.8372 18.0814 11.7875 18.3376ZM22.1 20.9751C21.9792 21.0336 21.8467 21.0635 21.7125 21.0626C21.5054 21.0626 21.3033 20.9991 21.1334 20.8806C20.9635 20.7621 20.8341 20.5944 20.7625 20.4001C20.5238 19.7286 20.3399 19.0388 20.2125 18.3376C20.1661 18.095 20.2088 17.8439 20.3328 17.6303C20.4568 17.4167 20.6538 17.255 20.8875 17.1751C21.023 17.134 21.1657 17.1218 21.3062 17.1393C21.4468 17.1568 21.5821 17.2036 21.7034 17.2766C21.8247 17.3496 21.9294 17.4473 22.0106 17.5633C22.0919 17.6793 22.1479 17.8111 22.175 17.9501C22.2791 18.5415 22.4338 19.1228 22.6375 19.6876C22.727 19.9304 22.7213 20.1981 22.6216 20.4369C22.5219 20.6757 22.3356 20.868 22.1 20.9751ZM22.55 12.4751C22.3108 12.9119 22.1861 13.4021 22.1875 13.9001C22.181 14.161 22.0727 14.409 21.8859 14.5911C21.6991 14.7733 21.4484 14.8752 21.1875 14.8751L21.0125 14.8501C20.475 14.7626 20.1125 14.1876 20.2125 13.6501C20.34 12.9665 20.5197 12.2938 20.75 11.6376C20.8356 11.3949 21.0084 11.1927 21.2348 11.0703C21.4612 10.9479 21.725 10.9139 21.975 10.9751C22.1254 11.0171 22.2639 11.0937 22.3794 11.1988C22.4949 11.3039 22.5841 11.4346 22.64 11.5804C22.6959 11.7262 22.7169 11.8831 22.7012 12.0384C22.6856 12.1938 22.6338 12.3434 22.55 12.4751Z" fill="#1C1C1C"/>
</svg>
