<svg width="32" height="32" viewBox="0 0 32 32" fill="none" xmlns="http://www.w3.org/2000/svg">
<path d="M7.95001 5.79997C9.82679 4.31659 12.0755 3.37818 14.45 3.08747C14.5197 3.08046 14.5902 3.08819 14.6567 3.11016C14.7233 3.13213 14.7845 3.16784 14.8363 3.21499C14.8882 3.26214 14.9296 3.31966 14.9578 3.38383C14.986 3.448 15.0004 3.51738 15 3.58747V15H11.9625C11.712 11.7798 10.2729 8.76794 7.92501 6.54997C7.87142 6.50241 7.82897 6.44362 7.80068 6.37779C7.77239 6.31196 7.75897 6.24071 7.76135 6.1691C7.76374 6.09749 7.78188 6.02728 7.81449 5.96348C7.8471 5.89968 7.89337 5.84385 7.95001 5.79997ZM5.75001 8.01247C4.29983 9.87512 3.3799 12.095 3.08751 14.4375C3.0806 14.5078 3.08831 14.5788 3.11017 14.646C3.13202 14.7133 3.16755 14.7752 3.21451 14.8281C3.26146 14.8809 3.31884 14.9234 3.38303 14.953C3.44722 14.9826 3.51684 14.9986 3.58751 15H9.95001C9.70275 12.3039 8.46993 9.7938 6.48751 7.94997C6.43645 7.90253 6.37605 7.86628 6.31016 7.84356C6.24428 7.82084 6.17437 7.81214 6.10493 7.81803C6.03548 7.82391 5.96804 7.84425 5.90692 7.87773C5.84579 7.91122 5.79235 7.95711 5.75001 8.01247ZM24.05 5.79997C22.1732 4.31659 19.9245 3.37818 17.55 3.08747C17.4803 3.08046 17.4098 3.08819 17.3433 3.11016C17.2767 3.13213 17.2155 3.16784 17.1637 3.21499C17.1118 3.26214 17.0704 3.31966 17.0422 3.38383C17.014 3.448 16.9997 3.51738 17 3.58747V15H20.0375C20.288 11.7798 21.7271 8.76794 24.075 6.54997C24.1286 6.50241 24.171 6.44362 24.1993 6.37779C24.2276 6.31196 24.241 6.24071 24.2387 6.1691C24.2363 6.09749 24.2181 6.02728 24.1855 5.96348C24.1529 5.89968 24.1066 5.84385 24.05 5.79997ZM28.9125 14.4375C28.6201 12.095 27.7002 9.87512 26.25 8.01247C26.2077 7.95711 26.1542 7.91122 26.0931 7.87773C26.032 7.84425 25.9645 7.82391 25.8951 7.81803C25.8256 7.81214 25.7557 7.82084 25.6899 7.84356C25.624 7.86628 25.5636 7.90253 25.5125 7.94997C23.5301 9.7938 22.2973 12.3039 22.05 15H28.4125C28.4832 14.9986 28.5528 14.9826 28.617 14.953C28.6812 14.9234 28.7386 14.8809 28.7855 14.8281C28.8325 14.7752 28.868 14.7133 28.8898 14.646C28.9117 14.5788 28.9194 14.5078 28.9125 14.4375ZM3.08751 17.5625C3.3799 19.9049 4.29983 22.1248 5.75001 23.9875C5.79235 24.0428 5.84579 24.0887 5.90692 24.1222C5.96804 24.1557 6.03548 24.176 6.10493 24.1819C6.17437 24.1878 6.24428 24.1791 6.31016 24.1564C6.37605 24.1337 6.43645 24.0974 6.48751 24.05C8.46993 22.2061 9.70275 19.696 9.95001 17H3.58751C3.51684 17.0014 3.44722 17.0173 3.38303 17.0469C3.31884 17.0765 3.26146 17.1191 3.21451 17.1719C3.16755 17.2247 3.13202 17.2867 3.11017 17.3539C3.08831 17.4211 3.0806 17.4921 3.08751 17.5625ZM26.25 23.9875C27.7002 22.1248 28.6201 19.9049 28.9125 17.5625C28.9194 17.4921 28.9117 17.4211 28.8898 17.3539C28.868 17.2867 28.8325 17.2247 28.7855 17.1719C28.7386 17.1191 28.6812 17.0765 28.617 17.0469C28.5528 17.0173 28.4832 17.0014 28.4125 17H22.05C22.2973 19.696 23.5301 22.2061 25.5125 24.05C25.5636 24.0974 25.624 24.1337 25.6899 24.1564C25.7557 24.1791 25.8256 24.1878 25.8951 24.1819C25.9645 24.176 26.032 24.1557 26.0931 24.1222C26.1542 24.0887 26.2077 24.0428 26.25 23.9875ZM7.95001 26.2C9.82679 27.6833 12.0755 28.6218 14.45 28.9125C14.5197 28.9195 14.5902 28.9117 14.6567 28.8898C14.7233 28.8678 14.7845 28.8321 14.8363 28.7849C14.8882 28.7378 14.9296 28.6803 14.9578 28.6161C14.986 28.5519 15.0004 28.4826 15 28.4125V17H11.9625C11.712 20.2201 10.2729 23.232 7.92501 25.45C7.87142 25.4975 7.82897 25.5563 7.80068 25.6221C7.77239 25.688 7.75897 25.7592 7.76135 25.8308C7.76374 25.9025 7.78188 25.9727 7.81449 26.0365C7.8471 26.1003 7.89337 26.1561 7.95001 26.2ZM20.0375 17H17V28.4125C16.9997 28.4826 17.014 28.5519 17.0422 28.6161C17.0704 28.6803 17.1118 28.7378 17.1637 28.7849C17.2155 28.8321 17.2767 28.8678 17.3433 28.8898C17.4098 28.9117 17.4803 28.9195 17.55 28.9125C19.9245 28.6218 22.1732 27.6833 24.05 26.2C24.1066 26.1561 24.1529 26.1003 24.1855 26.0365C24.2181 25.9727 24.2363 25.9025 24.2387 25.8308C24.241 25.7592 24.2276 25.688 24.1993 25.6221C24.171 25.5563 24.1286 25.4975 24.075 25.45C21.7271 23.232 20.288 20.2201 20.0375 17Z" fill="#1C1C1C"/>
</svg>
