<svg width="32" height="32" viewBox="0 0 32 32" fill="none" xmlns="http://www.w3.org/2000/svg">
<path d="M30.7124 5.28752L26.7124 1.28752C26.5181 1.12806 26.2715 1.04657 26.0204 1.0589C25.7694 1.07123 25.5319 1.1765 25.3542 1.35423C25.1764 1.53197 25.0711 1.76946 25.0588 2.02051C25.0465 2.27156 25.128 2.51823 25.2874 2.71252L25.4749 2.88752L18.5874 8.06252L13.7999 9.02502C13.6082 9.06368 13.4309 9.15452 13.2874 9.28752L11.2874 11.2875L4.28744 18.2875L2.71244 19.875C2.43126 20.1529 2.20801 20.4838 2.05565 20.8486C1.90328 21.2133 1.82483 21.6047 1.82483 22C1.82483 22.3953 1.90328 22.7867 2.05565 23.1515C2.20801 23.5163 2.43126 23.8472 2.71244 24.125L7.87494 29.2875C8.1528 29.5687 8.48371 29.792 8.84848 29.9443C9.21325 30.0967 9.60463 30.1751 9.99994 30.1751C10.3953 30.1751 10.7866 30.0967 11.1514 29.9443C11.5162 29.792 11.8471 29.5687 12.1249 29.2875L13.7124 27.7125L20.7124 20.7125L22.7124 18.7125C22.8454 18.5691 22.9363 18.3918 22.9749 18.2L23.9374 13.4125L29.1124 6.52502L29.2874 6.71252C29.4786 6.89734 29.7341 7.00066 29.9999 7.00066C30.2658 7.00066 30.5213 6.89734 30.7124 6.71252C30.9002 6.52293 31.0056 6.26687 31.0056 6.00002C31.0056 5.73318 30.9002 5.47712 30.7124 5.28752ZM9.28744 27.875L4.12494 22.7125C4.03046 22.6195 3.95542 22.5086 3.90421 22.3862C3.85299 22.2639 3.82661 22.1326 3.82661 22C3.82661 21.8674 3.85299 21.7361 3.90421 21.6138C3.95542 21.4915 4.03046 21.3806 4.12494 21.2875L4.99994 20.4125L11.5874 27L10.7124 27.875C10.5228 28.0628 10.2668 28.1681 9.99994 28.1681C9.73309 28.1681 9.47703 28.0628 9.28744 27.875ZM22.1999 12.4C22.1139 12.5194 22.0542 12.6558 22.0249 12.8L21.0749 17.5125L19.9999 18.5875L13.4124 12L14.4874 10.925L19.1999 9.97502C19.3442 9.94572 19.4805 9.88607 19.5999 9.80002L26.8999 4.32502L27.6749 5.10002L22.1999 12.4Z" fill="#1C1C1C"/>
</svg>
