<svg width="32" height="32" viewBox="0 0 32 32" fill="none" xmlns="http://www.w3.org/2000/svg">
<path d="M27.625 21.9875C26.8875 20.7125 26 18.2875 26 14V13.1125C26 7.57501 21.55 3.03751 16.075 3.00001H16C14.6863 2.99836 13.3852 3.2559 12.1712 3.75786C10.9572 4.25983 9.85417 4.99636 8.92526 5.92527C7.99635 6.85418 7.25982 7.95723 6.75785 9.17123C6.25589 10.3852 5.99835 11.6863 6 13V14C6 18.2875 5.1125 20.7125 4.375 21.9875C4.19271 22.291 4.09538 22.638 4.09318 22.992C4.09098 23.3461 4.184 23.6942 4.3625 24C4.53751 24.3057 4.79063 24.5594 5.09593 24.7351C5.40123 24.9108 5.74775 25.0023 6.1 25H25.9C26.2522 25.0023 26.5988 24.9108 26.9041 24.7351C27.2094 24.5594 27.4625 24.3057 27.6375 24C27.816 23.6942 27.909 23.3461 27.9068 22.992C27.9046 22.638 27.8073 22.291 27.625 21.9875Z" fill="#1C1C1C"/>
<path d="M19.9875 27H11.9875C11.7223 27 11.468 27.1054 11.2804 27.2929C11.0929 27.4804 10.9875 27.7348 10.9875 28C10.9875 28.2652 11.0929 28.5196 11.2804 28.7071C11.468 28.8947 11.7223 29 11.9875 29H19.9875C20.2528 29 20.5071 28.8947 20.6947 28.7071C20.8822 28.5196 20.9875 28.2652 20.9875 28C20.9875 27.7348 20.8822 27.4804 20.6947 27.2929C20.5071 27.1054 20.2528 27 19.9875 27Z" fill="#1C1C1C"/>
</svg>
