<svg width="32" height="32" viewBox="0 0 32 32" fill="none" xmlns="http://www.w3.org/2000/svg">
<path d="M21 28C21 28.2653 20.8946 28.5196 20.7071 28.7072C20.5195 28.8947 20.2652 29 20 29H12C11.7348 29 11.4804 28.8947 11.2929 28.7072C11.1053 28.5196 11 28.2653 11 28C11 27.7348 11.1053 27.4805 11.2929 27.2929C11.4804 27.1054 11.7348 27 12 27H20C20.2652 27 20.5195 27.1054 20.7071 27.2929C20.8946 27.4805 21 27.7348 21 28ZM25.975 14C25.985 11.3621 24.9483 8.82794 23.0924 6.95329C21.2365 5.07864 18.7129 4.01657 16.075 4.00004H16C14.6884 4.00169 13.39 4.26164 12.1789 4.76508C10.9678 5.26851 9.86767 6.00557 8.94141 6.93415C8.01514 7.86274 7.28085 8.96467 6.78045 10.177C6.28004 11.3894 6.02334 12.6885 6.02498 14C6.02498 18.2875 5.13748 20.7125 4.39998 21.9875C4.22265 22.2928 4.12821 22.6391 4.12602 22.9921C4.12382 23.3451 4.21396 23.6926 4.38748 24C4.56249 24.3057 4.81561 24.5594 5.12091 24.7352C5.42621 24.9109 5.77273 25.0023 6.12498 25H25.875C26.2272 25.0023 26.5737 24.9109 26.879 24.7352C27.1843 24.5594 27.4375 24.3057 27.6125 24C27.786 23.6926 27.8761 23.3451 27.8739 22.9921C27.8717 22.6391 27.7773 22.2928 27.6 21.9875C26.8625 20.7125 25.975 18.2875 25.975 14ZM28.5625 7.82504C27.4223 5.49657 25.6564 3.53153 23.4625 2.15004C23.237 2.00915 22.9649 1.96358 22.7058 2.02335C22.4468 2.08313 22.2221 2.24336 22.0812 2.46879C21.9403 2.69423 21.8948 2.9664 21.9545 3.22543C22.0143 3.48447 22.1745 3.70915 22.4 3.85004C24.2745 5.03608 25.7877 6.71362 26.775 8.70004C26.8559 8.86975 26.9836 9.01284 27.143 9.11248C27.3024 9.21212 27.487 9.26419 27.675 9.26254C27.8259 9.25794 27.9745 9.22398 28.1125 9.16255C28.3491 9.04442 28.5293 8.83738 28.6136 8.58671C28.698 8.33604 28.6796 8.06218 28.5625 7.82504ZM5.22498 8.70004C6.21221 6.71362 7.72546 5.03608 9.59998 3.85004C9.7116 3.78028 9.80839 3.68921 9.88482 3.58204C9.96125 3.47487 10.0158 3.3537 10.0454 3.22543C10.075 3.09717 10.0791 2.96434 10.0573 2.83451C10.0356 2.70469 9.98849 2.58042 9.91873 2.46879C9.84896 2.35717 9.7579 2.26038 9.65072 2.18395C9.54355 2.10752 9.42238 2.05295 9.29412 2.02335C9.03508 1.96358 8.76291 2.00915 8.53748 2.15004C6.34357 3.53153 4.57762 5.49657 3.43748 7.82504C3.32037 8.06218 3.30198 8.33604 3.38631 8.58671C3.47065 8.83738 3.65085 9.04442 3.88748 9.16255C4.02543 9.22398 4.17403 9.25794 4.32498 9.26254C4.51298 9.26419 4.69754 9.21212 4.85697 9.11248C5.0164 9.01284 5.14407 8.86975 5.22498 8.70004Z" fill="#1C1C1C"/>
</svg>
