<svg width="32" height="32" viewBox="0 0 32 32" fill="none" xmlns="http://www.w3.org/2000/svg">
<path d="M25.975 14C25.985 11.3621 24.9483 8.82794 23.0924 6.95329C21.2365 5.07864 18.7129 4.01657 16.075 4.00004H16C14.6884 4.00169 13.39 4.26164 12.1789 4.76508C10.9678 5.26851 9.86767 6.00557 8.94141 6.93415C8.01514 7.86274 7.28085 8.96467 6.78045 10.177C6.28004 11.3894 6.02334 12.6885 6.02498 14C6.02498 18.2875 5.13748 20.7125 4.39998 21.9875C4.22265 22.2928 4.12821 22.6391 4.12602 22.9921C4.12382 23.3451 4.21396 23.6926 4.38748 24C4.56249 24.3057 4.81561 24.5594 5.12091 24.7352C5.42621 24.9109 5.77273 25.0023 6.12498 25H11C11 26.3261 11.5268 27.5979 12.4644 28.5356C13.4021 29.4733 14.6739 30 16 30C17.3261 30 18.5978 29.4733 19.5355 28.5356C20.4732 27.5979 21 26.3261 21 25H25.875C26.2272 25.0023 26.5737 24.9109 26.879 24.7352C27.1843 24.5594 27.4375 24.3057 27.6125 24C27.786 23.6926 27.8761 23.3451 27.8739 22.9921C27.8717 22.6391 27.7773 22.2928 27.6 21.9875C26.8625 20.7125 25.975 18.2875 25.975 14ZM16 28C15.2053 27.9968 14.4442 27.6796 13.8823 27.1177C13.3204 26.5558 13.0033 25.7947 13 25H19C18.9967 25.7947 18.6796 26.5558 18.1177 27.1177C17.5558 27.6796 16.7946 27.9968 16 28ZM28.1125 9.16255C27.9745 9.22398 27.8259 9.25794 27.675 9.26254C27.487 9.26419 27.3024 9.21212 27.143 9.11248C26.9836 9.01284 26.8559 8.86975 26.775 8.70004C25.7877 6.71362 24.2745 5.03608 22.4 3.85004C22.2884 3.78028 22.1916 3.68921 22.1151 3.58204C22.0387 3.47487 21.9841 3.3537 21.9545 3.22543C21.9249 3.09717 21.9209 2.96434 21.9426 2.83451C21.9644 2.70469 22.0115 2.58042 22.0812 2.46879C22.151 2.35717 22.2421 2.26038 22.3492 2.18395C22.4564 2.10752 22.5776 2.05295 22.7058 2.02335C22.8341 1.99375 22.9669 1.98971 23.0968 2.01145C23.2266 2.03318 23.3509 2.08028 23.4625 2.15004C25.6564 3.53153 27.4223 5.49657 28.5625 7.82504C28.6796 8.06218 28.698 8.33604 28.6136 8.58671C28.5293 8.83738 28.3491 9.04442 28.1125 9.16255ZM4.32498 9.26254C4.17403 9.25794 4.02543 9.22398 3.88748 9.16255C3.65085 9.04442 3.47065 8.83738 3.38631 8.58671C3.30198 8.33604 3.32037 8.06218 3.43748 7.82504C4.57762 5.49657 6.34357 3.53153 8.53748 2.15004C8.76291 2.00915 9.03508 1.96358 9.29412 2.02335C9.42238 2.05295 9.54355 2.10752 9.65072 2.18395C9.7579 2.26038 9.84896 2.35717 9.91873 2.46879C9.98849 2.58042 10.0356 2.70469 10.0573 2.83451C10.0791 2.96434 10.075 3.09717 10.0454 3.22543C10.0158 3.3537 9.96125 3.47487 9.88482 3.58204C9.80839 3.68921 9.7116 3.78028 9.59998 3.85004C7.72546 5.03608 6.21221 6.71362 5.22498 8.70004C5.14407 8.86975 5.0164 9.01284 4.85697 9.11248C4.69754 9.21212 4.51298 9.26419 4.32498 9.26254Z" fill="#1C1C1C"/>
</svg>
