<svg width="32" height="32" viewBox="0 0 32 32" fill="none" xmlns="http://www.w3.org/2000/svg">
<path d="M26.7375 26.325C26.8276 26.4211 26.8977 26.5343 26.9434 26.6578C26.9892 26.7814 27.0098 26.9128 27.004 27.0445C26.9981 27.1761 26.966 27.3052 26.9095 27.4243C26.853 27.5433 26.7733 27.6498 26.675 27.7375C26.4894 27.9043 26.2494 27.9976 26 28C25.8612 28 25.724 27.9711 25.597 27.9151C25.4701 27.8592 25.3561 27.7774 25.2625 27.675L22.825 25H6.12498C5.77266 25.0001 5.42659 24.907 5.12177 24.7304C4.81696 24.5537 4.56423 24.2996 4.38916 23.9939C4.21408 23.6881 4.12288 23.3416 4.12478 22.9892C4.12669 22.6369 4.22162 22.2914 4.39998 21.9875C5.13748 20.7125 6.02498 18.2875 6.02498 14V13C6.02328 11.2408 6.48456 9.51207 7.36248 7.98754L5.26248 5.67504C5.09017 5.47838 5.00173 5.22206 5.01611 4.96099C5.0305 4.69992 5.14656 4.45487 5.33944 4.27833C5.53232 4.1018 5.78667 4.00783 6.04799 4.01656C6.30931 4.02529 6.55682 4.13603 6.73748 4.32504L26.7375 26.325ZM20 27H12C11.7348 27 11.4804 27.1054 11.2929 27.2929C11.1053 27.4805 11 27.7348 11 28C11 28.2653 11.1053 28.5196 11.2929 28.7071C11.4804 28.8947 11.7348 29 12 29H20C20.2652 29 20.5196 28.8947 20.7071 28.7071C20.8946 28.5196 21 28.2653 21 28C21 27.7348 20.8946 27.4805 20.7071 27.2929C20.5196 27.1054 20.2652 27 20 27ZM25.3625 21.8375C25.4561 21.9399 25.5701 22.0217 25.697 22.0776C25.824 22.1336 25.9612 22.1625 26.1 22.1625C26.2856 22.1629 26.4676 22.1109 26.625 22.0125C26.8247 21.8906 26.9754 21.7025 27.0508 21.481C27.1262 21.2594 27.1215 21.0185 27.0375 20.8C26.3375 19.025 25.975 16.725 25.975 14V13.1125C25.975 7.57504 21.5375 3.03754 16.075 3.00004C14.3191 2.98692 12.5906 3.43521 11.0625 4.30004C10.9332 4.37484 10.8222 4.47767 10.7379 4.60097C10.6535 4.72427 10.5979 4.8649 10.575 5.01254C10.5523 5.16193 10.563 5.31448 10.6062 5.45927C10.6495 5.60405 10.7242 5.73749 10.825 5.85004L25.3625 21.8375Z" fill="#1C1C1C"/>
</svg>
