<svg width="32" height="32" viewBox="0 0 32 32" fill="none" xmlns="http://www.w3.org/2000/svg">
<path d="M6.73748 4.32504C6.55682 4.13603 6.30931 4.02529 6.04799 4.01656C5.78667 4.00783 5.53232 4.1018 5.33944 4.27833C5.14656 4.45487 5.0305 4.69992 5.01611 4.96099C5.00173 5.22206 5.09017 5.47838 5.26248 5.67504L7.36248 7.98754C6.48456 9.51207 6.02328 11.2408 6.02498 13V14C6.02498 18.2875 5.13748 20.7125 4.39998 21.9875C4.22162 22.2914 4.12669 22.6369 4.12478 22.9892C4.12288 23.3416 4.21408 23.6881 4.38916 23.9939C4.56423 24.2996 4.81696 24.5537 5.12177 24.7304C5.42659 24.907 5.77266 25.0001 6.12498 25H11C11 26.3261 11.5268 27.5979 12.4644 28.5356C13.4021 29.4733 14.6739 30 16 30C17.3261 30 18.5978 29.4733 19.5355 28.5356C20.4732 27.5979 21 26.3261 21 25H22.825L25.2625 27.675C25.3561 27.7774 25.4701 27.8592 25.597 27.9151C25.724 27.9711 25.8612 28 26 28C26.2494 27.9976 26.4894 27.9043 26.675 27.7375C26.7733 27.6498 26.853 27.5433 26.9095 27.4243C26.966 27.3052 26.9981 27.1761 27.004 27.0445C27.0098 26.9128 26.9892 26.7814 26.9434 26.6578C26.8977 26.5343 26.8276 26.4211 26.7375 26.325L6.73748 4.32504ZM16 28C15.2053 27.9967 14.4442 27.6796 13.8823 27.1177C13.3204 26.5558 13.0033 25.7947 13 25H19C18.9967 25.7947 18.6796 26.5558 18.1177 27.1177C17.5558 27.6796 16.7946 27.9967 16 28ZM10.825 5.85004C10.7245 5.73857 10.65 5.60616 10.607 5.46238C10.564 5.31861 10.5534 5.16706 10.5762 5.01872C10.5989 4.87037 10.6543 4.72893 10.7384 4.60464C10.8225 4.48034 10.9332 4.3763 11.0625 4.30004C12.5906 3.43521 14.3191 2.98692 16.075 3.00004C21.5375 3.03754 25.975 7.57504 25.975 13.1125V14C25.975 16.7375 26.325 19.0125 27.025 20.8C27.1055 21.016 27.1089 21.2532 27.0346 21.4715C26.9603 21.6897 26.8129 21.8756 26.6174 21.9976C26.4218 22.1197 26.1901 22.1704 25.9614 22.1412C25.7327 22.1121 25.5211 22.0048 25.3625 21.8375L10.825 5.85004Z" fill="#1C1C1C"/>
</svg>
