<svg width="32" height="32" viewBox="0 0 32 32" fill="none" xmlns="http://www.w3.org/2000/svg">
<path d="M31 16.5C31.0001 15.1753 30.6243 13.8777 29.9162 12.7581C29.2081 11.6385 28.1969 10.7428 27 10.175V9.00003C26.9991 7.71144 26.5834 6.45738 25.8144 5.42342C25.0454 4.38946 23.9639 3.63055 22.7301 3.25899C21.4962 2.88744 20.1755 2.92297 18.9634 3.36035C17.7514 3.79773 16.7123 4.61371 16 5.68753C15.2877 4.61371 14.2486 3.79773 13.0365 3.36035C11.8245 2.92297 10.5038 2.88744 9.26991 3.25899C8.03606 3.63055 6.95461 4.38946 6.1856 5.42342C5.41658 6.45738 5.00088 7.71144 4.99999 9.00003V10.175C3.80291 10.7426 2.79149 11.6383 2.08325 12.7579C1.37502 13.8776 0.999054 15.1752 0.999054 16.5C0.999054 17.8249 1.37502 19.1225 2.08325 20.2421C2.79149 21.3618 3.80291 22.2574 4.99999 22.825V23C5.00088 24.2886 5.41658 25.5427 6.1856 26.5766C6.95461 27.6106 8.03606 28.3695 9.26991 28.7411C10.5038 29.1126 11.8245 29.0771 13.0365 28.6397C14.2486 28.2023 15.2877 27.3863 16 26.3125C16.7123 27.3863 17.7514 28.2023 18.9634 28.6397C20.1755 29.0771 21.4962 29.1126 22.7301 28.7411C23.9639 28.3695 25.0454 27.6106 25.8144 26.5766C26.5834 25.5427 26.9991 24.2886 27 23V22.825C28.196 22.2561 29.2064 21.3601 29.9143 20.2407C30.6221 19.1214 30.9986 17.8244 31 16.5ZM11 27C10.0131 26.9994 9.06129 26.6341 8.32752 25.9741C7.59376 25.3142 7.12985 24.4063 7.02499 23.425C7.34749 23.4758 7.67352 23.5009 7.99999 23.5H8.99999C9.26521 23.5 9.51956 23.3947 9.7071 23.2071C9.89463 23.0196 9.99999 22.7652 9.99999 22.5C9.99999 22.2348 9.89463 21.9805 9.7071 21.7929C9.51956 21.6054 9.26521 21.5 8.99999 21.5H7.99999C6.82164 21.498 5.68186 21.0799 4.78174 20.3195C3.88161 19.559 3.27899 18.5051 3.08018 17.3436C2.88137 16.1822 3.09916 14.9878 3.69511 13.9713C4.29107 12.9547 5.22689 12.1813 6.33749 11.7875C6.53182 11.7159 6.69953 11.5865 6.81799 11.4166C6.93645 11.2467 6.99997 11.0446 6.99999 10.8375V9.00003C6.99999 7.93916 7.42142 6.92175 8.17156 6.1716C8.92171 5.42146 9.93913 5.00003 11 5.00003C12.0609 5.00003 13.0783 5.42146 13.8284 6.1716C14.5786 6.92175 15 7.93916 15 9.00003V18.5375C13.9052 17.5439 12.4785 16.9955 11 17C10.7348 17 10.4804 17.1054 10.2929 17.2929C10.1053 17.4805 9.99999 17.7348 9.99999 18C9.99999 18.2652 10.1053 18.5196 10.2929 18.7071C10.4804 18.8947 10.7348 19 11 19C12.0609 19 13.0783 19.4215 13.8284 20.1716C14.5786 20.9217 15 21.9392 15 23C15 24.0609 14.5786 25.0783 13.8284 25.8285C13.0783 26.5786 12.0609 27 11 27ZM24 21.5H23C22.7348 21.5 22.4804 21.6054 22.2929 21.7929C22.1053 21.9805 22 22.2348 22 22.5C22 22.7652 22.1053 23.0196 22.2929 23.2071C22.4804 23.3947 22.7348 23.5 23 23.5H24C24.3265 23.5009 24.6525 23.4758 24.975 23.425C24.8929 24.1938 24.5897 24.9222 24.1022 25.5222C23.6147 26.1223 22.9638 26.5682 22.2282 26.806C21.4926 27.0439 20.7038 27.0634 19.9573 26.8624C19.2108 26.6613 18.5386 26.2482 18.022 25.6731C17.5053 25.098 17.1664 24.3855 17.0462 23.6217C16.9261 22.858 17.0298 22.0759 17.3449 21.3699C17.6599 20.6639 18.1728 20.0643 18.8215 19.6438C19.4702 19.2232 20.2269 18.9996 21 19C21.2652 19 21.5196 18.8947 21.7071 18.7071C21.8946 18.5196 22 18.2652 22 18C22 17.7348 21.8946 17.4805 21.7071 17.2929C21.5196 17.1054 21.2652 17 21 17C19.5215 16.9955 18.0948 17.5439 17 18.5375V9.00003C17 7.93916 17.4214 6.92175 18.1716 6.1716C18.9217 5.42146 19.9391 5.00003 21 5.00003C22.0609 5.00003 23.0783 5.42146 23.8284 6.1716C24.5786 6.92175 25 7.93916 25 9.00003V10.8375C25 11.0446 25.0635 11.2467 25.182 11.4166C25.3005 11.5865 25.4682 11.7159 25.6625 11.7875C26.7731 12.1813 27.7089 12.9547 28.3049 13.9713C28.9008 14.9878 29.1186 16.1822 28.9198 17.3436C28.721 18.5051 28.1184 19.559 27.2182 20.3195C26.3181 21.0799 25.1783 21.498 24 21.5ZM7.49999 16C7.23478 16 6.98042 15.8947 6.79288 15.7071C6.60535 15.5196 6.49999 15.2652 6.49999 15C6.49999 14.7348 6.60535 14.4805 6.79288 14.2929C6.98042 14.1054 7.23478 14 7.49999 14C8.16202 13.9967 8.796 13.7323 9.26413 13.2642C9.73226 12.796 9.99671 12.1621 9.99999 11.5V10.5C9.99999 10.2348 10.1053 9.98046 10.2929 9.79292C10.4804 9.60539 10.7348 9.50003 11 9.50003C11.2652 9.50003 11.5196 9.60539 11.7071 9.79292C11.8946 9.98046 12 10.2348 12 10.5V11.5C12 12.6935 11.5259 13.8381 10.682 14.682C9.83806 15.5259 8.69347 16 7.49999 16ZM25.5 15C25.5 15.2652 25.3946 15.5196 25.2071 15.7071C25.0196 15.8947 24.7652 16 24.5 16C23.3065 16 22.1619 15.5259 21.318 14.682C20.4741 13.8381 20 12.6935 20 11.5V10.5C20 10.2348 20.1053 9.98046 20.2929 9.79292C20.4804 9.60539 20.7348 9.50003 21 9.50003C21.2652 9.50003 21.5196 9.60539 21.7071 9.79292C21.8946 9.98046 22 10.2348 22 10.5V11.5C22.0033 12.1621 22.2677 12.796 22.7359 13.2642C23.204 13.7323 23.838 13.9967 24.5 14C24.7652 14 25.0196 14.1054 25.2071 14.2929C25.3946 14.4805 25.5 14.7348 25.5 15Z" fill="#1C1C1C"/>
</svg>
