<svg width="32" height="32" viewBox="0 0 32 32" fill="none" xmlns="http://www.w3.org/2000/svg">
<path d="M16 21C18.7614 21 21 18.7614 21 16C21 13.2386 18.7614 11 16 11C13.2386 11 11 13.2386 11 16C11 18.7614 13.2386 21 16 21Z" fill="#1C1C1C"/>
<path d="M10.3375 10.3375C10.4316 10.2455 10.5064 10.1356 10.5575 10.0144C10.6085 9.89308 10.6348 9.76281 10.6348 9.63122C10.6348 9.49963 10.6085 9.36937 10.5575 9.24808C10.5064 9.1268 10.4316 9.01695 10.3375 8.92497C10.15 8.73796 9.89606 8.63293 9.63126 8.63293C9.36647 8.63293 9.11248 8.73796 8.92501 8.92497C8.0134 9.8395 7.28753 10.9219 6.78751 12.1125C6.2677 13.3426 5.99988 14.6645 5.99988 16C5.99988 17.3354 6.2677 18.6573 6.78751 19.8875C7.28753 21.078 8.0134 22.1604 8.92501 23.075C9.11697 23.2585 9.37197 23.3613 9.63751 23.3625C9.8995 23.362 10.1508 23.2588 10.3375 23.075C10.4316 22.983 10.5064 22.8731 10.5575 22.7519C10.6085 22.6306 10.6348 22.5003 10.6348 22.3687C10.6348 22.2371 10.6085 22.1069 10.5575 21.9856C10.5064 21.8643 10.4316 21.7544 10.3375 21.6625C9.61068 20.9283 9.0296 20.063 8.62501 19.1125C8.21246 18.1266 8 17.0686 8 16C8 14.9313 8.21246 13.8733 8.62501 12.8875C9.0296 11.9369 9.61068 11.0716 10.3375 10.3375Z" fill="#1C1C1C"/>
<path d="M26 16C26.0045 14.6641 25.7365 13.3413 25.2125 12.1125C24.7125 10.9219 23.9866 9.8395 23.075 8.92497C22.8875 8.73796 22.6335 8.63293 22.3687 8.63293C22.1039 8.63293 21.8499 8.73796 21.6625 8.92497C21.5684 9.01695 21.4936 9.1268 21.4425 9.24808C21.3915 9.36937 21.3652 9.49963 21.3652 9.63122C21.3652 9.76281 21.3915 9.89308 21.4425 10.0144C21.4936 10.1356 21.5684 10.2455 21.6625 10.3375C22.3893 11.0716 22.9704 11.9369 23.375 12.8875C23.7875 13.8733 24 14.9313 24 16C24 17.0686 23.7875 18.1266 23.375 19.1125C22.9704 20.063 22.3893 20.9283 21.6625 21.6625C21.5684 21.7544 21.4936 21.8643 21.4425 21.9856C21.3915 22.1069 21.3652 22.2371 21.3652 22.3687C21.3652 22.5003 21.3915 22.6306 21.4425 22.7519C21.4936 22.8731 21.5684 22.983 21.6625 23.075C21.8491 23.2588 22.1005 23.362 22.3625 23.3625C22.628 23.3613 22.883 23.2585 23.075 23.075C23.9866 22.1604 24.7125 21.078 25.2125 19.8875C25.7365 18.6587 26.0045 17.3359 26 16Z" fill="#1C1C1C"/>
<path d="M4.02499 21.0625C3.34841 19.4605 2.99983 17.739 2.99983 16C2.99983 14.2609 3.34841 12.5395 4.02499 10.9375C4.67203 9.39159 5.61951 7.98949 6.81249 6.8125C6.97195 6.6182 7.05344 6.37154 7.04111 6.12049C7.02878 5.86944 6.92351 5.63194 6.74578 5.45421C6.56804 5.27647 6.33055 5.1712 6.0795 5.15887C5.82845 5.14654 5.58179 5.22804 5.38749 5.3875C4.02283 6.76046 2.93252 8.38108 2.17499 10.1625C1.3994 12.011 0.999939 13.9954 0.999939 16C0.999939 18.0046 1.3994 19.989 2.17499 21.8375C2.93252 23.6189 4.02283 25.2395 5.38749 26.6125C5.58081 26.7939 5.83494 26.8964 6.09999 26.9C6.36553 26.8989 6.62053 26.796 6.81249 26.6125C7.00027 26.4229 7.10561 26.1668 7.10561 25.9C7.10561 25.6332 7.00027 25.3771 6.81249 25.1875C5.61951 24.0105 4.67203 22.6084 4.02499 21.0625Z" fill="#1C1C1C"/>
<path d="M29.825 10.1625C29.0674 8.38107 27.9771 6.76045 26.6125 5.38749C26.5228 5.27824 26.4113 5.18898 26.285 5.12544C26.1588 5.06189 26.0206 5.02549 25.8795 5.01855C25.7383 5.01162 25.5973 5.03432 25.4654 5.08518C25.3336 5.13605 25.2138 5.21395 25.1139 5.31389C25.0139 5.41382 24.936 5.53357 24.8852 5.66543C24.8343 5.79729 24.8116 5.93834 24.8185 6.0795C24.8255 6.22066 24.8619 6.35881 24.9254 6.48505C24.989 6.61129 25.0782 6.72283 25.1875 6.81249C26.3977 8.01661 27.3577 9.44835 28.012 11.0252C28.6663 12.602 29.0021 14.2928 29 16C29.0021 17.7072 28.6663 19.398 28.012 20.9748C27.3577 22.5516 26.3977 23.9834 25.1875 25.1875C24.9997 25.3771 24.8944 25.6331 24.8944 25.9C24.8944 26.1668 24.9997 26.4229 25.1875 26.6125C25.3794 26.796 25.6344 26.8989 25.9 26.9C26.165 26.8964 26.4192 26.7938 26.6125 26.6125C27.9771 25.2395 29.0674 23.6189 29.825 21.8375C30.6006 19.989 31 18.0046 31 16C31 13.9954 30.6006 12.0109 29.825 10.1625Z" fill="#1C1C1C"/>
</svg>
