<svg width="32" height="32" viewBox="0 0 32 32" fill="none" xmlns="http://www.w3.org/2000/svg">
<path d="M23.9125 5.87499L25.675 4.23749C25.8667 4.05292 25.979 3.80104 25.9884 3.53511C25.9977 3.26918 25.9033 3.01004 25.725 2.81249C25.5442 2.61869 25.2939 2.50457 25.0291 2.49519C24.7642 2.48582 24.5065 2.58196 24.3125 2.76249L22.3875 4.56249C20.5228 3.22167 18.2842 2.50035 15.9875 2.50035C13.6908 2.50035 11.4521 3.22167 9.5875 4.56249L7.675 2.76249C7.4794 2.58181 7.22004 2.48623 6.95397 2.49678C6.6879 2.50733 6.43693 2.62314 6.25625 2.81874C6.07557 3.01434 5.97999 3.2737 5.99054 3.53977C6.00109 3.80583 6.1169 4.05681 6.3125 4.23749L8.075 5.87499C6.09167 7.9173 4.98388 10.6531 4.9875 13.5V18.5C4.9875 21.4174 6.14642 24.2153 8.20932 26.2782C10.2722 28.3411 13.0701 29.5 15.9875 29.5C18.9049 29.5 21.7028 28.3411 23.7657 26.2782C25.8286 24.2153 26.9875 21.4174 26.9875 18.5V13.5C26.9905 10.6556 25.8879 7.92149 23.9125 5.87499ZM15.9875 4.49999C18.3734 4.5033 20.6607 5.45257 22.3478 7.13968C24.0349 8.82679 24.9842 11.1141 24.9875 13.5V15H6.9875V13.5C6.9908 11.1141 7.94008 8.82679 9.62719 7.13968C11.3143 5.45257 13.6016 4.5033 15.9875 4.49999ZM17.9875 11.5C17.9875 11.2033 18.0755 10.9133 18.2403 10.6666C18.4051 10.42 18.6394 10.2277 18.9135 10.1142C19.1876 10.0006 19.4892 9.97093 19.7801 10.0288C20.0711 10.0867 20.3384 10.2296 20.5482 10.4393C20.7579 10.6491 20.9008 10.9164 20.9587 11.2074C21.0166 11.4983 20.9868 11.7999 20.8733 12.074C20.7598 12.3481 20.5675 12.5824 20.3209 12.7472C20.0742 12.912 19.7842 13 19.4875 13C19.0897 13 18.7081 12.842 18.4268 12.5607C18.1455 12.2793 17.9875 11.8978 17.9875 11.5ZM10.9875 11.5C10.9875 11.2033 11.0755 10.9133 11.2403 10.6666C11.4051 10.42 11.6394 10.2277 11.9135 10.1142C12.1876 10.0006 12.4892 9.97093 12.7801 10.0288C13.0711 10.0867 13.3384 10.2296 13.5482 10.4393C13.7579 10.6491 13.9008 10.9164 13.9587 11.2074C14.0166 11.4983 13.9868 11.7999 13.8733 12.074C13.7598 12.3481 13.5675 12.5824 13.3209 12.7472C13.0742 12.912 12.7842 13 12.4875 13C12.0897 13 11.7081 12.842 11.4268 12.5607C11.1455 12.2793 10.9875 11.8978 10.9875 11.5Z" fill="#1C1C1C"/>
</svg>
