<svg width="32" height="32" viewBox="0 0 32 32" fill="none" xmlns="http://www.w3.org/2000/svg">
<path d="M17 10.9375V7C17 6.73478 16.8946 6.48043 16.7071 6.29289C16.5196 6.10536 16.2652 6 16 6C15.7348 6 15.4804 6.10536 15.2929 6.29289C15.1054 6.48043 15 6.73478 15 7V10.9375C15.3731 11.4405 15.7074 11.9712 16 12.525C16.2926 11.9712 16.6269 11.4405 17 10.9375Z" fill="#1C1C1C"/>
<path d="M28.9251 6.3C28.4626 5.7 27.5876 5 26.0001 5C23.9126 5 21.2376 6.4125 18.8501 8.7875C18.1779 9.45446 17.5592 10.1734 17 10.9375L17.0001 21.5C17.0001 21.7652 16.8947 22.0196 16.7072 22.2071C16.5196 22.3946 16.2653 22.5 16.0001 22.5C15.7348 22.5 15.4805 22.3946 15.2929 22.2071C15.1054 22.0196 15.0001 21.7652 15.0001 21.5L15 10.9375C14.4408 10.1734 13.8222 9.45446 13.1501 8.7875C10.7626 6.4125 8.08755 5 6.00005 5C4.41255 5 3.53755 5.7 3.07505 6.3C2.22505 7.3875 1.55005 9.3125 3.02505 15.2375C3.85005 18.525 5.77505 19.6 7.21255 19.925C6.86361 20.5042 6.63579 21.1483 6.54288 21.8181C6.44997 22.4879 6.49389 23.1696 6.672 23.822C6.85011 24.4743 7.1587 25.0838 7.5791 25.6135C7.99951 26.1431 8.52299 26.582 9.11787 26.9036C9.71276 27.2252 10.3667 27.4227 11.0401 27.4843C11.7136 27.5459 12.3925 27.4702 13.0358 27.2619C13.6792 27.0535 14.2736 26.7169 14.7831 26.2722C15.2926 25.8276 15.7066 25.2842 16.0001 24.675C16.2935 25.2842 16.7075 25.8276 17.217 26.2722C17.7265 26.7169 18.3209 27.0535 18.9643 27.2619C19.6076 27.4702 20.2866 27.5459 20.96 27.4843C21.6334 27.4227 22.2873 27.2252 22.8822 26.9036C23.4771 26.582 24.0006 26.1431 24.421 25.6135C24.8414 25.0838 25.15 24.4743 25.3281 23.822C25.5062 23.1696 25.5501 22.4879 25.4572 21.8181C25.3643 21.1483 25.1365 20.5042 24.7876 19.925C26.2251 19.6 28.1501 18.525 28.9751 15.2375C29.8001 11.95 30.4501 8.25 28.9251 6.3Z" fill="#1C1C1C"/>
</svg>
