<svg width="32" height="32" viewBox="0 0 32 32" fill="none" xmlns="http://www.w3.org/2000/svg">
<path d="M16.5249 3.14999C16.3676 3.05125 16.1857 2.99887 15.9999 2.99887C15.8142 2.99887 15.6322 3.05125 15.4749 3.14999C14.2177 3.96218 13.0598 4.91868 12.0249 5.99999C9.72494 8.38749 8.49994 10.9875 8.49994 13.5C8.49994 15.4891 9.29012 17.3968 10.6966 18.8033C12.1032 20.2098 14.0108 21 15.9999 21C17.9891 21 19.8967 20.2098 21.3032 18.8033C22.7098 17.3968 23.4999 15.4891 23.4999 13.5C23.4999 7.51249 16.8124 3.32499 16.5249 3.14999ZM15.9999 19C15.6055 19.0016 15.2147 18.9252 14.8499 18.775C14.4852 18.6248 14.1538 18.4039 13.8749 18.125C13.596 17.8461 13.3751 17.5147 13.2249 17.15C13.0748 16.7853 12.9983 16.3944 12.9999 16C12.9999 13 15.9999 11 15.9999 11C15.9999 11 18.9999 13 18.9999 16C19.0016 16.3944 18.9251 16.7853 18.7749 17.15C18.6248 17.5147 18.4039 17.8461 18.1249 18.125C17.846 18.4039 17.5147 18.6248 17.1499 18.775C16.7852 18.9252 16.3944 19.0016 15.9999 19ZM27.9499 28.3C27.8863 28.5023 27.76 28.6792 27.5892 28.8051C27.4184 28.9309 27.2121 28.9992 26.9999 29C26.8977 29.0018 26.7961 28.9848 26.6999 28.95L15.9999 25.55L5.29994 28.95C5.20383 28.9848 5.10215 29.0018 4.99994 29C4.78782 28.9992 4.58146 28.9309 4.41068 28.8051C4.23991 28.6792 4.11358 28.5023 4.04994 28.3C4.00933 28.1753 3.99398 28.0437 4.00477 27.913C4.01556 27.7823 4.05229 27.655 4.1128 27.5387C4.17331 27.4223 4.25639 27.3192 4.3572 27.2353C4.45801 27.1514 4.57452 27.0884 4.69994 27.05L12.6999 24.5L4.69994 21.95C4.56464 21.9199 4.43707 21.8619 4.32535 21.7798C4.21363 21.6978 4.1202 21.5934 4.05097 21.4733C3.98175 21.3532 3.93825 21.22 3.92324 21.0822C3.90823 20.9444 3.92203 20.805 3.96378 20.6728C4.00552 20.5406 4.07429 20.4185 4.16572 20.3143C4.25715 20.2101 4.36925 20.1261 4.49489 20.0675C4.62054 20.009 4.75698 19.9772 4.89557 19.9741C5.03416 19.9711 5.17187 19.997 5.29994 20.05L15.9999 23.45L26.6999 20.05C26.828 19.997 26.9657 19.9711 27.1043 19.9741C27.2429 19.9772 27.3793 20.009 27.505 20.0675C27.6306 20.1261 27.7427 20.2101 27.8342 20.3143C27.9256 20.4185 27.9944 20.5406 28.0361 20.6728C28.0779 20.805 28.0917 20.9444 28.0766 21.0822C28.0616 21.22 28.0181 21.3532 27.9489 21.4733C27.8797 21.5934 27.7862 21.6978 27.6745 21.7798C27.5628 21.8619 27.4352 21.9199 27.2999 21.95L19.2999 24.5L27.2999 27.05C27.4254 27.0884 27.5419 27.1514 27.6427 27.2353C27.7435 27.3192 27.8266 27.4223 27.8871 27.5387C27.9476 27.655 27.9843 27.7823 27.9951 27.913C28.0059 28.0437 27.9905 28.1753 27.9499 28.3Z" fill="#1C1C1C"/>
</svg>
