<svg width="32" height="32" viewBox="0 0 32 32" fill="none" xmlns="http://www.w3.org/2000/svg">
<path d="M16.1875 11.75C16.0129 11.5588 15.9193 11.3074 15.9263 11.0487C15.9333 10.7899 16.0404 10.5439 16.225 10.3625L22.5875 3.99997C22.8672 3.72096 23.2232 3.53103 23.6107 3.45414C23.9982 3.37725 24.3998 3.41685 24.7649 3.56794C25.1299 3.71904 25.442 3.97485 25.6618 4.30312C25.8816 4.63139 25.9993 5.01741 26 5.41247V19.95C26.0011 20.1524 25.9407 20.3504 25.8269 20.5178C25.7131 20.6852 25.5511 20.8141 25.3625 20.8875C25.247 20.9324 25.1238 20.9536 25 20.95C24.8611 20.9507 24.7236 20.9221 24.5966 20.8661C24.4695 20.8101 24.3556 20.728 24.2625 20.625L16.1875 11.75ZM26.7375 26.325L6.73747 4.32497C6.55842 4.12943 6.30904 4.013 6.04416 4.00128C5.77929 3.98956 5.5206 4.08351 5.32497 4.26247C5.22667 4.35021 5.14693 4.45673 5.09043 4.57576C5.03393 4.69479 5.00182 4.82392 4.996 4.95555C4.99018 5.08718 5.01075 5.21864 5.05652 5.3422C5.10228 5.46575 5.17231 5.5789 5.26247 5.67497L12.7125 13.875L1.99997 24.5875C1.72096 24.8672 1.53103 25.2232 1.45414 25.6107C1.37725 25.9982 1.41685 26.3998 1.56794 26.7649C1.71904 27.1299 1.97485 27.442 2.30312 27.6618C2.63139 27.8816 3.01741 27.9993 3.41247 28H26C26.2494 27.9975 26.4894 27.9042 26.675 27.7375C26.8705 27.5584 26.9869 27.309 26.9987 27.0442C27.0104 26.7793 26.9164 26.5206 26.7375 26.325Z" fill="#1C1C1C"/>
</svg>
