<svg width="32" height="32" viewBox="0 0 32 32" fill="none" xmlns="http://www.w3.org/2000/svg">
<path d="M24.7625 3.56252C24.3975 3.41095 23.9957 3.37162 23.6082 3.44955C23.2208 3.52748 22.8654 3.71913 22.5875 4.00002L1.99997 24.5875C1.72096 24.8672 1.53103 25.2233 1.45414 25.6108C1.37725 25.9983 1.41685 26.3999 1.56794 26.7649C1.71904 27.13 1.97485 27.4421 2.30312 27.6619C2.63139 27.8817 3.01741 27.9993 3.41247 28H24C24.5304 28 25.0391 27.7893 25.4142 27.4142C25.7893 27.0392 26 26.5305 26 26V5.41252C26.0002 5.01625 25.8827 4.62885 25.6623 4.29947C25.442 3.9701 25.1288 3.7136 24.7625 3.56252Z" fill="#1C1C1C"/>
</svg>
