<svg width="32" height="32" viewBox="0 0 32 32" fill="none" xmlns="http://www.w3.org/2000/svg">
<path d="M24 28H3.41247C3.01741 27.9993 2.63139 27.8816 2.30312 27.6618C1.97485 27.442 1.71904 27.1299 1.56794 26.7649C1.41685 26.3998 1.37725 25.9982 1.45414 25.6107C1.53103 25.2232 1.72096 24.8672 1.99997 24.5875L22.5875 3.99997C22.8672 3.72096 23.2232 3.53103 23.6107 3.45414C23.9982 3.37725 24.3998 3.41685 24.7649 3.56794C25.1299 3.71904 25.442 3.97485 25.6618 4.30312C25.8816 4.63139 25.9993 5.01741 26 5.41247V26C26 26.5304 25.7893 27.0391 25.4142 27.4142C25.0391 27.7893 24.5304 28 24 28ZM3.41247 26H24V5.41247L3.41247 26Z" fill="#1C1C1C"/>
</svg>
