<svg width="32" height="32" viewBox="0 0 32 32" fill="none" xmlns="http://www.w3.org/2000/svg">
<path d="M28.7125 18.2875C28.9003 18.477 29.0056 18.7331 29.0056 19C29.0056 19.2668 28.9003 19.5229 28.7125 19.7125C28.5214 19.8973 28.2659 20.0006 28 20.0006C27.7341 20.0006 27.4787 19.8973 27.2875 19.7125L25 17.4125L22.7125 19.7125C22.5214 19.8973 22.2659 20.0006 22 20.0006C21.7341 20.0006 21.4787 19.8973 21.2875 19.7125C21.0997 19.5229 20.9944 19.2668 20.9944 19C20.9944 18.7331 21.0997 18.477 21.2875 18.2875L23.5875 16L21.2875 13.7125C21.128 13.5182 21.0466 13.2715 21.0589 13.0204C21.0712 12.7694 21.1765 12.5319 21.3542 12.3542C21.532 12.1764 21.7694 12.0712 22.0205 12.0588C22.2716 12.0465 22.5182 12.128 22.7125 12.2875L25 14.5875L27.2875 12.2875C27.4818 12.128 27.7285 12.0465 27.9795 12.0588C28.2306 12.0712 28.4681 12.1764 28.6458 12.3542C28.8235 12.5319 28.9288 12.7694 28.9411 13.0204C28.9535 13.2715 28.872 13.5182 28.7125 13.7125L26.4125 16L28.7125 18.2875ZM25.35 20.6C25.3046 20.5531 25.2502 20.5158 25.19 20.4904C25.1299 20.4649 25.0653 20.4518 25 20.4518C24.9347 20.4518 24.8701 20.4649 24.81 20.4904C24.7499 20.5158 24.6955 20.5531 24.65 20.6L24.125 21.125C23.8457 21.4033 23.5142 21.6239 23.1496 21.774C22.785 21.9241 22.3943 22.0009 22 22C21.5984 22.0022 21.2006 21.9225 20.8309 21.7655C20.4612 21.6086 20.1274 21.3779 19.85 21.0875C18.7 19.9 18.7625 18 19.925 16.825L20.7625 16L19.925 15.175C18.7375 13.975 18.7125 12 19.925 10.8375C20.4922 10.2957 21.2483 9.99655 22.0326 10.0036C22.8169 10.0106 23.5676 10.3232 24.125 10.875L24.65 11.4C24.6955 11.4468 24.7499 11.4841 24.81 11.5095C24.8701 11.535 24.9347 11.5481 25 11.5481C25.0653 11.5481 25.1299 11.535 25.19 11.5095C25.2502 11.4841 25.3046 11.4468 25.35 11.4L25.875 10.875C25.916 10.8394 25.9486 10.7952 25.9702 10.7454C25.9918 10.6957 26.002 10.6417 26 10.5875V5.47496C26.0033 5.08606 25.8972 4.70406 25.6939 4.37254C25.4906 4.04102 25.1982 3.77331 24.85 3.59996C24.4779 3.42418 24.0604 3.36825 23.6551 3.4399C23.2498 3.51155 22.8768 3.70724 22.5875 3.99996L2.03751 24.55C1.76118 24.8202 1.56744 25.1636 1.47891 25.5398C1.39037 25.9161 1.4107 26.3098 1.53751 26.675C1.67458 27.0626 1.92852 27.3983 2.26434 27.6356C2.60016 27.8729 3.00131 28.0002 3.41251 28H24C24.5304 28 25.0392 27.7892 25.4142 27.4142C25.7893 27.0391 26 26.5304 26 26V21.4C25.9994 21.348 25.9879 21.2967 25.9664 21.2493C25.9449 21.202 25.9138 21.1596 25.875 21.125L25.35 20.6Z" fill="#1C1C1C"/>
</svg>
