<svg width="32" height="32" viewBox="0 0 32 32" fill="none" xmlns="http://www.w3.org/2000/svg">
<path d="M27.2875 9.55C27.2746 9.53604 27.2659 9.5187 27.2625 9.5L27.2125 9.4375C25.4416 6.54521 22.6105 4.45947 19.3234 3.62528C16.0362 2.79108 12.5531 3.27447 9.61737 4.97233C6.6816 6.67018 4.52554 9.44806 3.6092 12.7133C2.69286 15.9785 3.08879 19.4726 4.71251 22.45L4.73751 22.5L4.77501 22.55C6.52934 25.4745 9.36261 27.5925 12.664 28.4475C15.9655 29.3024 19.4706 28.8258 22.4239 27.1204C25.3772 25.415 27.5421 22.6174 28.4519 19.3306C29.3617 16.0439 28.9435 12.5313 27.2875 9.55ZM24.9875 9.6625L17 14.2625V5.05C18.5855 5.19644 20.1204 5.68457 21.4993 6.48081C22.8781 7.27704 24.0682 8.36249 24.9875 9.6625ZM16 27C14.238 26.9995 12.502 26.5757 10.9379 25.7643C9.37389 24.9529 8.02765 23.7777 7.01251 22.3375L25.9875 11.3875C26.7617 13.0636 27.1015 14.9077 26.9757 16.7497C26.8499 18.5917 26.2624 20.3724 25.2675 21.9277C24.2725 23.483 22.9021 24.7628 21.2825 25.6493C19.663 26.5357 17.8463 27.0002 16 27Z" fill="#1C1C1C"/>
</svg>
