<svg width="32" height="32" viewBox="0 0 32 32" fill="none" xmlns="http://www.w3.org/2000/svg">
<path d="M13 24C12.735 23.9964 12.4808 23.8938 12.2875 23.7125L5.28752 16.7125C5.12806 16.5182 5.04657 16.2715 5.0589 16.0205C5.07123 15.7694 5.1765 15.5319 5.35423 15.3542C5.53197 15.1764 5.76946 15.0712 6.02051 15.0588C6.27156 15.0465 6.51823 15.128 6.71252 15.2875L13 21.5875L26.2875 8.28746C26.4818 8.128 26.7285 8.04651 26.9795 8.05884C27.2306 8.07117 27.4681 8.17644 27.6458 8.35417C27.8235 8.53191 27.9288 8.7694 27.9411 9.02045C27.9535 9.2715 27.872 9.51817 27.7125 9.71246L13.7125 23.7125C13.5192 23.8938 13.2651 23.9964 13 24Z" fill="#1C1C1C"/>
</svg>
