<svg width="32" height="32" viewBox="0 0 32 32" fill="none" xmlns="http://www.w3.org/2000/svg">
<path d="M8.22503 6.81246C8.41204 6.99993 8.51707 7.25391 8.51707 7.51871C8.51707 7.78351 8.41204 8.0375 8.22503 8.22496C6.8581 9.58716 5.87498 11.2861 5.37503 13.15C5.31797 13.3626 5.19313 13.5509 5.01945 13.6862C4.84576 13.8216 4.63269 13.8966 4.41253 13.9L4.15003 13.8625C4.02267 13.8291 3.90316 13.7708 3.79836 13.6911C3.69356 13.6114 3.60553 13.5118 3.53933 13.398C3.47313 13.2841 3.43006 13.1584 3.41259 13.0279C3.39512 12.8974 3.40359 12.7647 3.43753 12.6375C4.02712 10.4313 5.19178 8.42118 6.81253 6.81246C6.9045 6.71835 7.01436 6.64357 7.13564 6.59251C7.25692 6.54146 7.38719 6.51515 7.51878 6.51515C7.65037 6.51515 7.78063 6.54146 7.90192 6.59251C8.0232 6.64357 8.13306 6.71835 8.22503 6.81246ZM5.37503 18.85C5.30707 18.593 5.13982 18.3736 4.91009 18.24C4.68036 18.1064 4.40696 18.0695 4.15003 18.1375C3.8931 18.2054 3.67369 18.3727 3.54007 18.6024C3.40645 18.8321 3.36957 19.1055 3.43753 19.3625C4.03389 21.5695 5.19744 23.582 6.81253 25.2C6.99919 25.3838 7.25054 25.487 7.51253 25.4875C7.70926 25.4838 7.90066 25.4229 8.06333 25.3122C8.226 25.2015 8.35288 25.0457 8.42847 24.8641C8.50406 24.6824 8.52507 24.4826 8.48894 24.2892C8.45281 24.0958 8.3611 23.9171 8.22503 23.775C6.85763 22.4131 5.87443 20.7141 5.37503 18.85ZM18.85 26.625C16.983 27.1252 15.0171 27.1252 13.15 26.625C12.8931 26.557 12.6197 26.5939 12.39 26.7275C12.1602 26.8611 11.993 27.0805 11.925 27.3375C11.8571 27.5944 11.894 27.8678 12.0276 28.0975C12.1612 28.3273 12.3806 28.4945 12.6375 28.5625C13.7393 28.8514 14.8735 28.9984 16.0125 29C17.1433 28.9985 18.2693 28.8515 19.3625 28.5625C19.6195 28.4945 19.8389 28.3273 19.9725 28.0975C20.1061 27.8678 20.143 27.5944 20.075 27.3375C20.0071 27.0805 19.8398 26.8611 19.6101 26.7275C19.3804 26.5939 19.107 26.557 18.85 26.625ZM27.85 18.1375C27.7228 18.1035 27.5901 18.0951 27.4596 18.1125C27.3291 18.13 27.2034 18.1731 27.0895 18.2393C26.9757 18.3055 26.8761 18.3935 26.7964 18.4983C26.7167 18.6031 26.6584 18.7226 26.625 18.85C26.1251 20.7139 25.142 22.4128 23.775 23.775C23.639 23.9171 23.5473 24.0958 23.5111 24.2892C23.475 24.4826 23.496 24.6824 23.5716 24.8641C23.6472 25.0457 23.7741 25.2015 23.9367 25.3122C24.0994 25.4229 24.2908 25.4838 24.4875 25.4875C24.6185 25.4877 24.7481 25.4612 24.8685 25.4096C24.9888 25.3581 25.0974 25.2825 25.1875 25.1875C26.8083 23.5787 27.9729 21.5686 28.5625 19.3625C28.5965 19.2352 28.6049 19.1026 28.5875 18.9721C28.57 18.8416 28.5269 18.7158 28.4607 18.602C28.3945 18.4881 28.3065 18.3885 28.2017 18.3088C28.0969 18.2291 27.9774 18.1709 27.85 18.1375ZM26.625 13.15C26.6821 13.3626 26.8069 13.5509 26.9806 13.6862C27.1543 13.8216 27.3674 13.8966 27.5875 13.9L27.85 13.8625C27.9774 13.8291 28.0969 13.7708 28.2017 13.6911C28.3065 13.6114 28.3945 13.5118 28.4607 13.398C28.5269 13.2841 28.57 13.1584 28.5875 13.0279C28.6049 12.8974 28.5965 12.7647 28.5625 12.6375C27.9662 10.4305 26.8026 8.41797 25.1875 6.79996C25.0947 6.70666 24.9842 6.63284 24.8625 6.58286C24.7407 6.53287 24.6102 6.50772 24.4786 6.50889C24.3471 6.51005 24.217 6.53751 24.0962 6.58964C23.9754 6.64177 23.8662 6.71753 23.775 6.81246C23.588 6.99993 23.483 7.25391 23.483 7.51871C23.483 7.78351 23.588 8.0375 23.775 8.22496C25.1424 9.5868 26.1256 11.2858 26.625 13.15ZM13.15 5.37496C15.0171 4.87473 16.983 4.87473 18.85 5.37496C18.9353 5.39967 19.0237 5.41229 19.1125 5.41246C19.361 5.41986 19.6033 5.33443 19.7923 5.17285C19.9812 5.01127 20.1031 4.78511 20.1344 4.53848C20.1656 4.29186 20.1038 4.04245 19.9611 3.83889C19.8184 3.63533 19.605 3.49221 19.3625 3.43746C17.1594 2.84995 14.8407 2.84995 12.6375 3.43746C12.3806 3.50542 12.1612 3.67267 12.0276 3.9024C11.894 4.13213 11.8571 4.40553 11.925 4.66246C11.993 4.91939 12.1602 5.1388 12.39 5.27242C12.6197 5.40604 12.8931 5.44292 13.15 5.37496Z" fill="#1C1C1C"/>
</svg>
