<svg width="32" height="32" viewBox="0 0 32 32" fill="none" xmlns="http://www.w3.org/2000/svg">
<path d="M17 9.99997V15.425L21.7 18.1375C21.8889 18.2483 22.0362 18.4181 22.1192 18.6207C22.2023 18.8234 22.2165 19.0477 22.1598 19.2593C22.103 19.4708 21.9783 19.6578 21.8049 19.7916C21.6315 19.9255 21.419 19.9986 21.2 20C21.0233 20.0049 20.8492 19.9571 20.7 19.8625L15.5 16.8625H15.475L15.425 16.8375L15.3875 16.8L15.35 16.775L15.3125 16.7375L15.2875 16.7125C15.2625 16.7 15.25 16.675 15.2375 16.6625L15.2125 16.6375L15.1875 16.5875L15.1625 16.55L15.1375 16.5125C15.1297 16.5066 15.1234 16.4991 15.1191 16.4904C15.1147 16.4817 15.1125 16.4722 15.1125 16.4625L15.0875 16.425C15.0875 16.4125 15.075 16.4 15.075 16.375C15.0705 16.3699 15.067 16.364 15.0649 16.3575C15.0627 16.3511 15.0619 16.3442 15.0625 16.3375L15.0375 16.2875C15.038 16.2807 15.0372 16.2739 15.0351 16.2674C15.0329 16.261 15.0295 16.255 15.025 16.25C15.025 16.225 15.025 16.2125 15.0125 16.2V16.15C15.0125 16.125 15 16.1125 15 16.1V9.99997C15 9.73475 15.1053 9.4804 15.2929 9.29286C15.4804 9.10533 15.7348 8.99997 16 8.99997C16.2652 8.99997 16.5195 9.10533 16.7071 9.29286C16.8946 9.4804 17 9.73475 17 9.99997ZM24.4875 7.51247C22.2336 5.26679 19.1816 4.00586 16 4.00586C12.8183 4.00586 9.76633 5.26679 7.51248 7.51247L6.47498 8.54997L4.68748 6.76247C4.54874 6.62169 4.37139 6.52518 4.17783 6.48513C3.98427 6.44509 3.78319 6.4633 3.59998 6.53747C3.41754 6.61475 3.26142 6.74325 3.1505 6.90742C3.03958 7.07158 2.97861 7.26438 2.97498 7.46247V12.4625C2.97498 12.7277 3.08033 12.982 3.26787 13.1696C3.45541 13.3571 3.70976 13.4625 3.97498 13.4625H8.97498C9.17177 13.4621 9.36409 13.4038 9.52785 13.2946C9.69161 13.1855 9.81954 13.0305 9.89561 12.849C9.97167 12.6675 9.9925 12.4676 9.95548 12.2743C9.91846 12.0811 9.82523 11.903 9.68748 11.7625L7.88748 9.96247L8.92498 8.92497C10.3239 7.52756 12.1058 6.57625 14.0453 6.1913C15.9848 5.80635 17.9949 6.00504 19.8215 6.76224C21.6481 7.51944 23.2093 8.80117 24.3076 10.4454C25.4059 12.0897 25.9921 14.0226 25.9921 16C25.9921 17.9773 25.4059 19.9103 24.3076 21.5545C23.2093 23.1988 21.6481 24.4805 19.8215 25.2377C17.9949 25.9949 15.9848 26.1936 14.0453 25.8086C12.1058 25.4237 10.3239 24.4724 8.92498 23.075C8.833 22.9809 8.72315 22.9061 8.60186 22.855C8.48058 22.804 8.35032 22.7777 8.21873 22.7777C8.08713 22.7777 7.95687 22.804 7.83559 22.855C7.7143 22.9061 7.60445 22.9809 7.51248 23.075C7.32546 23.2624 7.22044 23.5164 7.22044 23.7812C7.22044 24.046 7.32546 24.3 7.51248 24.4875C9.7635 26.7385 12.8165 28.0031 16 28.0031C19.1834 28.0031 22.2365 26.7385 24.4875 24.4875C26.7385 22.2364 28.0031 19.1834 28.0031 16C28.0031 12.8165 26.7385 9.76349 24.4875 7.51247Z" fill="#1C1C1C"/>
</svg>
