<svg width="32" height="32" viewBox="0 0 32 32" fill="none" xmlns="http://www.w3.org/2000/svg">
<path d="M17 10V15.425L21.7 18.1375C21.8889 18.2483 22.0362 18.4181 22.1193 18.6208C22.2024 18.8234 22.2166 19.0478 22.1598 19.2593C22.103 19.4708 21.9783 19.6579 21.805 19.7917C21.6316 19.9255 21.419 19.9987 21.2 20C21.0234 20.005 20.8493 19.9571 20.7 19.8625L15.5 16.8625H15.475L15.425 16.8375L15.3875 16.8L15.35 16.775L15.3125 16.7375L15.2875 16.7125C15.2625 16.7 15.25 16.675 15.2375 16.6625L15.2125 16.6375L15.1875 16.5875L15.1625 16.55L15.1375 16.5125C15.1298 16.5067 15.1235 16.4991 15.1191 16.4905C15.1148 16.4818 15.1125 16.4722 15.1125 16.4625L15.0875 16.425C15.0875 16.4125 15.075 16.4 15.075 16.375C15.0705 16.3699 15.0671 16.364 15.0649 16.3575C15.0628 16.3511 15.0619 16.3443 15.0625 16.3375L15.0375 16.2875C15.0381 16.2807 15.0373 16.2739 15.0351 16.2675C15.033 16.261 15.0295 16.2551 15.025 16.25C15.025 16.225 15.025 16.2125 15.0125 16.2V16.15C15.0125 16.125 15 16.1125 15 16.1V10C15 9.73479 15.1054 9.48043 15.2929 9.2929C15.4804 9.10536 15.7348 9.00001 16 9.00001C16.2652 9.00001 16.5196 9.10536 16.7071 9.2929C16.8947 9.48043 17 9.73479 17 10ZM28.4 6.53751C28.2168 6.46333 28.0157 6.44512 27.8222 6.48517C27.6286 6.52522 27.4513 6.62172 27.3125 6.76251L25.525 8.55001L24.4875 7.51251C22.809 5.8349 20.6708 4.69264 18.3432 4.23012C16.0156 3.76761 13.6032 4.00562 11.4108 4.91405C9.21846 5.82249 7.34468 7.36056 6.02638 9.33382C4.70808 11.3071 4.00446 13.6269 4.00446 16C4.00446 18.3731 4.70808 20.6929 6.02638 22.6662C7.34468 24.6395 9.21846 26.1775 11.4108 27.086C13.6032 27.9944 16.0156 28.2324 18.3432 27.7699C20.6708 27.3074 22.809 26.1651 24.4875 24.4875C24.6745 24.3 24.7796 24.0461 24.7796 23.7813C24.7796 23.5165 24.6745 23.2625 24.4875 23.075C24.3955 22.9809 24.2857 22.9061 24.1644 22.8551C24.0431 22.804 23.9129 22.7777 23.7813 22.7777C23.6497 22.7777 23.5194 22.804 23.3981 22.8551C23.2768 22.9061 23.167 22.9809 23.075 23.075C21.6761 24.4724 19.8942 25.4237 17.9547 25.8087C16.0152 26.1936 14.0051 25.9949 12.1785 25.2377C10.3519 24.4805 8.79074 23.1988 7.69242 21.5546C6.59409 19.9103 6.00788 17.9773 6.00788 16C6.00788 14.0227 6.59409 12.0897 7.69242 10.4455C8.79074 8.80121 10.3519 7.51948 12.1785 6.76227C14.0051 6.00507 16.0152 5.80639 17.9547 6.19134C19.8942 6.57629 21.6761 7.52759 23.075 8.92501L24.1125 9.9625L22.3125 11.7625C22.1748 11.903 22.0815 12.0811 22.0445 12.2744C22.0075 12.4677 22.0283 12.6676 22.1044 12.849C22.1805 13.0305 22.3084 13.1856 22.4721 13.2947C22.6359 13.4038 22.8282 13.4622 23.025 13.4625H28.025C28.2902 13.4625 28.5446 13.3571 28.7321 13.1696C28.9197 12.9821 29.025 12.7277 29.025 12.4625V7.46251C29.0214 7.26441 28.9604 7.07162 28.8495 6.90745C28.7386 6.74329 28.5824 6.61479 28.4 6.53751Z" fill="#1C1C1C"/>
</svg>
