<svg width="32" height="32" viewBox="0 0 32 32" fill="none" xmlns="http://www.w3.org/2000/svg">
<path d="M20.1125 25.55L16.8375 30.55C16.7446 30.6871 16.6199 30.7996 16.4741 30.878C16.3282 30.9563 16.1656 30.9982 16 31C15.8193 31.0004 15.6418 30.9518 15.4865 30.8595C15.3312 30.7671 15.2038 30.6344 15.1179 30.4754C15.032 30.3164 14.9907 30.1371 14.9986 29.9565C15.0065 29.776 15.0631 29.6009 15.1625 29.45L18.45 24.45C18.5167 24.329 18.6077 24.2232 18.7173 24.1391C18.8269 24.055 18.9527 23.9946 19.0868 23.9616C19.221 23.9286 19.3605 23.9237 19.4966 23.9473C19.6327 23.9709 19.7624 24.0224 19.8776 24.0987C19.9928 24.1749 20.091 24.2741 20.1659 24.3902C20.2408 24.5062 20.2909 24.6365 20.313 24.7729C20.335 24.9092 20.3286 25.0487 20.2941 25.1824C20.2596 25.3162 20.1978 25.4413 20.1125 25.55ZM19.9125 2.01249C17.9219 1.9267 15.9546 2.46812 14.2883 3.56034C12.6219 4.65257 11.3405 6.24047 10.625 8.09999C10.2117 9.17286 9.99982 10.3128 10 11.4625C10.0015 11.7192 9.90778 11.9674 9.73692 12.159C9.56606 12.3507 9.33022 12.4722 9.075 12.5C8.9375 12.5103 8.79936 12.4921 8.66924 12.4465C8.53912 12.4009 8.41984 12.3289 8.31889 12.235C8.21793 12.1411 8.13749 12.0273 8.08261 11.9008C8.02774 11.7743 7.99961 11.6379 8 11.5C7.9974 10.6122 8.09808 9.72705 8.3 8.86249C8.32105 8.77722 8.31928 8.68791 8.29485 8.60354C8.27042 8.51918 8.2242 8.44274 8.16084 8.38191C8.09749 8.32109 8.01922 8.27803 7.93393 8.25706C7.84864 8.2361 7.75933 8.23797 7.675 8.26249C6.32107 8.66066 5.13313 9.48786 4.28998 10.6196C3.44684 11.7513 2.99413 13.1262 3 14.5375C3.025 18.125 6.0125 21 9.6 21H14.425L11.525 25.425C11.42 25.5744 11.3579 25.7497 11.3455 25.9319C11.333 26.1141 11.3707 26.2962 11.4544 26.4585C11.5381 26.6208 11.6647 26.757 11.8204 26.8525C11.976 26.9479 12.1549 26.999 12.3375 27C12.5035 27.0004 12.6669 26.9594 12.8131 26.8809C12.9594 26.8023 13.0837 26.6886 13.175 26.55L16.825 21H19.5C21.9717 20.9819 24.339 20.0011 26.0993 18.2659C27.8597 16.5307 28.8744 14.1778 28.9281 11.7066C28.9818 9.2354 28.0702 6.84059 26.3869 5.03059C24.7036 3.2206 22.3811 2.13794 19.9125 2.01249Z" fill="#1C1C1C"/>
</svg>
