<svg width="32" height="32" viewBox="0 0 32 32" fill="none" xmlns="http://www.w3.org/2000/svg">
<path d="M19.5 9C18.6472 9.00273 17.7985 9.11618 16.975 9.3375C16.6455 8.81067 16.2507 8.32767 15.8 7.9L16.975 6.2C17.0515 6.09367 17.1061 5.97317 17.1356 5.84553C17.1651 5.71788 17.1689 5.58564 17.1468 5.45651C17.1247 5.32737 17.0772 5.20393 17.0069 5.09336C16.9366 4.9828 16.845 4.88733 16.7375 4.8125C16.6301 4.73564 16.5087 4.6808 16.38 4.65112C16.2514 4.62145 16.1182 4.61754 15.988 4.63962C15.8578 4.6617 15.7334 4.70933 15.6217 4.77977C15.5101 4.8502 15.4134 4.94205 15.3375 5.05L14.15 6.75C13.111 6.21867 11.9538 5.96057 10.7875 6L10.425 3.9625C10.3786 3.7006 10.23 3.46787 10.012 3.31549C9.79399 3.16312 9.52437 3.10359 9.26247 3.15C9.00057 3.19642 8.76783 3.34497 8.61546 3.56298C8.46309 3.78099 8.40356 4.0506 8.44997 4.3125L8.81247 6.35C7.7018 6.71254 6.70021 7.34874 5.89997 8.2L4.19997 7.0125C3.98257 6.86247 3.71463 6.80456 3.45467 6.8514C3.19471 6.89824 2.96384 7.04603 2.81247 7.2625C2.73594 7.36883 2.68132 7.48933 2.65182 7.61698C2.62231 7.74462 2.6185 7.87687 2.6406 8.006C2.6627 8.13513 2.71028 8.25858 2.78057 8.36914C2.85085 8.47971 2.94243 8.57518 3.04997 8.65L4.74997 9.8375C4.21709 10.8804 3.95895 12.042 3.99997 13.2125L1.96247 13.575C1.71238 13.6146 1.48663 13.7477 1.3308 13.9473C1.17497 14.1469 1.10066 14.3981 1.12287 14.6504C1.14508 14.9026 1.26216 15.1371 1.45047 15.3063C1.63878 15.4756 1.8843 15.5672 2.13747 15.5625H2.31247L4.34997 15.2C4.52661 15.7468 4.77458 16.268 5.08747 16.75C4.12928 17.6363 3.46072 18.7911 3.16915 20.0633C2.87758 21.3356 2.97657 22.6662 3.45317 23.8814C3.92977 25.0965 4.76182 26.1396 5.8406 26.8744C6.91938 27.6092 8.19472 28.0015 9.49997 28H19.5C22.0195 28 24.4359 26.9991 26.2175 25.2175C27.9991 23.4359 29 21.0196 29 18.5C29 15.9804 27.9991 13.5641 26.2175 11.7825C24.4359 10.0009 22.0195 9 19.5 9ZM6.07497 13.8875V13.8375C5.84793 12.5493 6.14005 11.2235 6.88747 10.15V10.125H6.89997C7.65621 9.04813 8.80557 8.31181 10.1 8.075H10.1625C11.4313 7.85298 12.7366 8.13558 13.8 8.8625L13.8625 8.9L13.9125 8.9375C14.3656 9.25329 14.7592 9.64688 15.075 10.1C13.0384 11.177 11.4585 12.9523 10.625 15.1C10.2534 15.0352 9.87711 15.0017 9.49997 15C8.5456 15.0013 7.60294 15.2103 6.73747 15.6125C6.41138 15.0837 6.18671 14.4987 6.07497 13.8875Z" fill="#1C1C1C"/>
</svg>
