<svg width="32" height="32" viewBox="0 0 32 32" fill="none" xmlns="http://www.w3.org/2000/svg">
<path d="M19.5 8.99999C18.981 9.00383 18.4629 9.04561 17.95 9.12499C17.772 7.24762 17.0072 5.474 15.7641 4.05591C14.5211 2.63782 12.8629 1.64731 11.025 1.22499C10.8596 1.18665 10.6872 1.19105 10.524 1.23777C10.3607 1.28449 10.2121 1.372 10.0921 1.49205C9.972 1.6121 9.88449 1.76074 9.83777 1.92396C9.79105 2.08718 9.78665 2.2596 9.82499 2.42499C9.94011 2.94212 9.99879 3.47021 9.99999 3.99999C9.99999 5.85651 9.26249 7.63698 7.94974 8.94974C6.63698 10.2625 4.85651 11 2.99999 11C2.47021 10.9988 1.94212 10.9401 1.42499 10.825C1.2596 10.7867 1.08718 10.791 0.923956 10.8378C0.760737 10.8845 0.6121 10.972 0.492051 11.0921C0.372002 11.2121 0.284494 11.3607 0.237771 11.524C0.191049 11.6872 0.186651 11.8596 0.224992 12.025C0.492624 13.183 0.987274 14.2764 1.68031 15.2419C2.37335 16.2074 3.25101 17.0259 4.26249 17.65C3.55062 18.6184 3.12116 19.7651 3.02185 20.9629C2.92253 22.1606 3.15725 23.3625 3.69992 24.4349C4.24259 25.5072 5.07195 26.4082 6.09586 27.0375C7.11977 27.6669 8.29812 28.0001 9.49999 28H19.5C22.0195 28 24.4359 26.9991 26.2175 25.2175C27.9991 23.4359 29 21.0195 29 18.5C29 15.9804 27.9991 13.5641 26.2175 11.7825C24.4359 10.0009 22.0195 8.99999 19.5 8.99999ZM2.67499 13H2.99999C5.38593 12.9967 7.67319 12.0474 9.3603 10.3603C11.0474 8.67319 11.9967 6.38593 12 3.99999V3.66249C13.1513 4.20375 14.1319 5.05062 14.835 6.11081C15.5381 7.171 15.9368 8.40385 15.9875 9.67499C14.7685 10.1616 13.663 10.8946 12.7403 11.828C11.8175 12.7615 11.0974 13.8754 10.625 15.1C10.2535 15.0352 9.87713 15.0017 9.49999 15C8.15573 15.001 6.84512 15.4204 5.74999 16.2C4.40449 15.4958 3.32502 14.3725 2.67499 13Z" fill="#1C1C1C"/>
</svg>
