<svg width="32" height="32" viewBox="0 0 32 32" fill="none" xmlns="http://www.w3.org/2000/svg">
<path d="M16.825 21L14.85 24H19.25C19.396 23.9963 19.541 24.0245 19.6749 24.0828C19.8088 24.1411 19.9283 24.2281 20.025 24.3375C20.1748 24.4998 20.265 24.7082 20.2809 24.9284C20.2968 25.1487 20.2374 25.3679 20.1125 25.55L16.8375 30.55C16.7446 30.6871 16.62 30.7996 16.4741 30.878C16.3282 30.9563 16.1656 30.9982 16 31C15.7685 30.9973 15.5444 30.9182 15.3625 30.775C15.1735 30.6105 15.0505 30.3832 15.016 30.1351C14.9815 29.887 15.038 29.6347 15.175 29.425L17.425 26H13.025C12.8794 26.0013 12.7351 25.9719 12.6016 25.9138C12.4681 25.8556 12.3483 25.77 12.25 25.6625C12.1061 25.4971 12.0198 25.2895 12.0041 25.0708C11.9883 24.8522 12.0439 24.6343 12.1625 24.45L14.425 21H9.60002C6.01252 21 3.02502 18.125 3.00002 14.5375C2.99289 13.1242 3.44663 11.747 4.29248 10.6147C5.13833 9.48236 6.33021 8.6566 7.68752 8.2625C7.77063 8.23892 7.85843 8.23728 7.94237 8.25773C8.0263 8.27819 8.1035 8.32004 8.16645 8.37921C8.22939 8.43837 8.27593 8.51284 8.30153 8.59535C8.32713 8.67786 8.33092 8.7656 8.31252 8.85C8.10714 9.70996 8.00227 10.5909 8.00002 11.475C8.00192 11.7315 8.09879 11.9783 8.27192 12.1676C8.44506 12.3568 8.68218 12.4753 8.93752 12.5C9.07401 12.5086 9.21079 12.489 9.33943 12.4426C9.46806 12.3962 9.58581 12.3239 9.68539 12.2302C9.78497 12.1364 9.86427 12.0233 9.91839 11.8977C9.97251 11.7721 10.0003 11.6368 10 11.5C9.99979 10.3381 10.2116 9.18588 10.625 8.1C11.2445 6.48374 12.2938 5.06744 13.6596 4.00407C15.0254 2.94071 16.6557 2.2707 18.3745 2.0664C20.0933 1.86211 21.8353 2.1313 23.4123 2.8449C24.9893 3.5585 26.3413 4.68938 27.3224 6.11541C28.3035 7.54143 28.8763 9.2084 28.979 10.9363C29.0817 12.6641 28.7104 14.3872 27.9052 15.9194C27.1 17.4517 25.8914 18.7348 24.4101 19.6302C22.9288 20.5256 21.2309 20.9992 19.5 21H16.825Z" fill="#1C1C1C"/>
</svg>
