<svg width="32" height="32" viewBox="0 0 32 32" fill="none" xmlns="http://www.w3.org/2000/svg">
<path d="M21 28C21 28.2652 20.8946 28.5196 20.7071 28.7071C20.5195 28.8946 20.2652 29 20 29H13C12.7347 29 12.4804 28.8946 12.2929 28.7071C12.1053 28.5196 12 28.2652 12 28C12 27.7348 12.1053 27.4804 12.2929 27.2929C12.4804 27.1053 12.7347 27 13 27H20C20.2652 27 20.5195 27.1053 20.7071 27.2929C20.8946 27.4804 21 27.7348 21 28ZM16 24C16 23.7348 15.8946 23.4804 15.7071 23.2929C15.5195 23.1053 15.2652 23 15 23H8.99996C8.73474 23 8.48039 23.1053 8.29285 23.2929C8.10532 23.4804 7.99996 23.7348 7.99996 24C7.99996 24.2652 8.10532 24.5196 8.29285 24.7071C8.48039 24.8946 8.73474 25 8.99996 25H15C15.2652 25 15.5195 24.8946 15.7071 24.7071C15.8946 24.5196 16 24.2652 16 24ZM23 23H20C19.7347 23 19.4804 23.1053 19.2929 23.2929C19.1053 23.4804 19 23.7348 19 24C19 24.2652 19.1053 24.5196 19.2929 24.7071C19.4804 24.8946 19.7347 25 20 25H23C23.2652 25 23.5195 24.8946 23.7071 24.7071C23.8946 24.5196 24 24.2652 24 24C24 23.7348 23.8946 23.4804 23.7071 23.2929C23.5195 23.1053 23.2652 23 23 23ZM19.9125 2.01249C17.9219 1.9267 15.9546 2.46812 14.2882 3.56034C12.6218 4.65257 11.3405 6.24047 10.625 8.09999C10.216 9.17408 10.0043 10.3132 9.99996 11.4625C10.0015 11.7192 9.90774 11.9674 9.73689 12.159C9.56603 12.3507 9.33019 12.4722 9.07496 12.5C8.93747 12.5103 8.79933 12.4921 8.66921 12.4465C8.53909 12.4009 8.41981 12.3289 8.31885 12.235C8.2179 12.1411 8.13746 12.0273 8.08258 11.9008C8.0277 11.7743 7.99957 11.6379 7.99996 11.5C7.99746 10.6114 8.10239 9.72585 8.31246 8.86249C8.33352 8.77722 8.33174 8.68791 8.30732 8.60354C8.28289 8.51918 8.23667 8.44274 8.17331 8.38191C8.10995 8.32109 8.03169 8.27803 7.9464 8.25706C7.86111 8.2361 7.7718 8.23797 7.68746 8.26249C6.33015 8.65658 5.13827 9.48234 4.29242 10.6147C3.44657 11.747 2.99283 13.1241 2.99996 14.5375C3.02496 18.125 6.01246 21 9.59996 21H19.5C21.9717 20.9819 24.339 20.0011 26.0993 18.2659C27.8596 16.5307 28.8744 14.1778 28.928 11.7066C28.9817 9.2354 28.0701 6.84059 26.3868 5.03059C24.7035 3.2206 22.381 2.13794 19.9125 2.01249Z" fill="#1C1C1C"/>
</svg>
