<svg width="32" height="32" viewBox="0 0 32 32" fill="none" xmlns="http://www.w3.org/2000/svg">
<path d="M8.76251 10.3625C8.68031 10.2602 8.57829 10.1755 8.46258 10.1135C8.34687 10.0516 8.21984 10.0136 8.08912 10.002C7.95839 9.9903 7.82665 10.0051 7.70179 10.0456C7.57693 10.0861 7.46153 10.1513 7.36251 10.2375L1.36251 15.2375C1.24994 15.3301 1.15927 15.4465 1.09703 15.5784C1.03478 15.7102 1.0025 15.8542 1.0025 16C1.0025 16.1458 1.03478 16.2897 1.09703 16.4216C1.15927 16.5534 1.24994 16.6698 1.36251 16.7625L7.36251 21.7625C7.46153 21.8486 7.57693 21.9139 7.70179 21.9543C7.82665 21.9948 7.95839 22.0097 8.08912 21.998C8.21984 21.9863 8.34687 21.9484 8.46258 21.8864C8.57829 21.8245 8.68031 21.7398 8.76251 21.6375C8.84865 21.5384 8.91391 21.423 8.95437 21.2982C8.99484 21.1733 9.00968 21.0416 8.99801 20.9109C8.98634 20.7801 8.94839 20.6531 8.88645 20.5374C8.8245 20.4217 8.73983 20.3197 8.63751 20.2375L3.56251 16L8.63751 11.7625C8.73983 11.6803 8.8245 11.5783 8.88645 11.4626C8.94839 11.3468 8.98634 11.2198 8.99801 11.0891C9.00968 10.9584 8.99484 10.8266 8.95437 10.7018C8.91391 10.5769 8.84865 10.4615 8.76251 10.3625Z" fill="#1C1C1C"/>
<path d="M30.6375 15.2375L24.6375 10.2375C24.4324 10.1014 24.1844 10.0458 23.9408 10.0812C23.6973 10.1166 23.4754 10.2406 23.3175 10.4294C23.1596 10.6182 23.077 10.8586 23.0853 11.1045C23.0936 11.3505 23.1923 11.5848 23.3625 11.7625L28.4375 16L23.3625 20.2375C23.207 20.3694 23.0955 20.5458 23.0431 20.7429C22.9906 20.94 22.9997 21.1484 23.0691 21.3402C23.1384 21.532 23.2648 21.698 23.4312 21.8159C23.5976 21.9338 23.7961 21.9981 24 22C24.2343 22.0011 24.461 21.9166 24.6375 21.7625L30.6375 16.7625C30.7501 16.6699 30.8407 16.5534 30.903 16.4216C30.9652 16.2898 30.9975 16.1458 30.9975 16C30.9975 15.8542 30.9652 15.7102 30.903 15.5784C30.8407 15.4466 30.7501 15.3301 30.6375 15.2375Z" fill="#1C1C1C"/>
<path d="M20.3375 4.06248C20.2145 4.01693 20.0836 3.99635 19.9526 4.00193C19.8215 4.00752 19.6928 4.03917 19.5742 4.09503C19.4555 4.15089 19.3491 4.22984 19.2612 4.32727C19.1734 4.42469 19.1058 4.53865 19.0625 4.66248L11.0625 26.6625C11.017 26.7855 10.9964 26.9164 11.002 27.0474C11.0076 27.1785 11.0392 27.3071 11.0951 27.4258C11.1509 27.5445 11.2299 27.6509 11.3273 27.7388C11.4247 27.8266 11.5387 27.8942 11.6625 27.9375C11.7709 27.9763 11.8849 27.9974 12 28C12.2058 28.001 12.4068 27.9377 12.5749 27.8189C12.743 27.7002 12.8698 27.5318 12.9375 27.3375L20.9375 5.33748C20.9831 5.21445 21.0036 5.08359 20.9981 4.95252C20.9925 4.82146 20.9608 4.69282 20.905 4.57412C20.8491 4.45542 20.7701 4.34904 20.6727 4.26119C20.5753 4.17335 20.4613 4.10579 20.3375 4.06248Z" fill="#1C1C1C"/>
</svg>
