<svg width="32" height="32" viewBox="0 0 32 32" fill="none" xmlns="http://www.w3.org/2000/svg">
<path d="M19 12V5.99995C18.9994 5.80253 19.0572 5.60934 19.1662 5.44473C19.2752 5.28012 19.4305 5.15145 19.6125 5.07495C19.7972 5.00291 19.9986 4.98463 20.1932 5.02223C20.3879 5.05984 20.5679 5.15179 20.7125 5.28745L26.7125 11.2875C26.8482 11.432 26.9401 11.6121 26.9777 11.8067C27.0153 12.0014 26.9971 12.2027 26.925 12.3875C26.8485 12.5695 26.7198 12.7247 26.5552 12.8337C26.3906 12.9427 26.1974 13.0006 26 13H20C19.7348 13 19.4804 12.8946 19.2929 12.7071C19.1054 12.5195 19 12.2652 19 12ZM12 19H6.00001C5.80259 18.9993 5.6094 19.0572 5.44479 19.1662C5.28018 19.2752 5.15151 19.4305 5.07501 19.6125C5.00297 19.7972 4.98469 19.9985 5.0223 20.1932C5.0599 20.3878 5.15185 20.5679 5.28751 20.7125L11.2875 26.7125C11.4795 26.8959 11.7345 26.9988 12 27C12.1327 26.9994 12.2642 26.9739 12.3875 26.925C12.5695 26.8484 12.7248 26.7198 12.8338 26.5552C12.9428 26.3906 13.0006 26.1974 13 26V20C13 19.7347 12.8947 19.4804 12.7071 19.2928C12.5196 19.1053 12.2652 19 12 19ZM12.3875 5.07495C12.2028 5.00291 12.0015 4.98463 11.8068 5.02223C11.6121 5.05984 11.4321 5.15179 11.2875 5.28745L5.28751 11.2875C5.15185 11.432 5.0599 11.6121 5.0223 11.8067C4.98469 12.0014 5.00297 12.2027 5.07501 12.3875C5.15151 12.5695 5.28018 12.7247 5.44479 12.8337C5.6094 12.9427 5.80259 13.0006 6.00001 13H12C12.2652 13 12.5196 12.8946 12.7071 12.7071C12.8947 12.5195 13 12.2652 13 12V5.99995C13.0006 5.80253 12.9428 5.60934 12.8338 5.44473C12.7248 5.28012 12.5695 5.15145 12.3875 5.07495ZM26 19H20C19.7348 19 19.4804 19.1053 19.2929 19.2928C19.1054 19.4804 19 19.7347 19 20V26C18.9994 26.1974 19.0572 26.3906 19.1662 26.5552C19.2752 26.7198 19.4305 26.8484 19.6125 26.925C19.7359 26.9739 19.8673 26.9994 20 27C20.2656 26.9988 20.5206 26.8959 20.7125 26.7125L26.7125 20.7125C26.8482 20.5679 26.9401 20.3878 26.9777 20.1932C27.0153 19.9985 26.9971 19.7972 26.925 19.6125C26.8485 19.4305 26.7198 19.2752 26.5552 19.1662C26.3906 19.0572 26.1974 18.9993 26 19Z" fill="#1C1C1C"/>
</svg>
