<svg width="32" height="32" viewBox="0 0 32 32" fill="none" xmlns="http://www.w3.org/2000/svg">
<path d="M27 22.4999C27 23.6063 26.5925 24.6739 25.8552 25.4988C25.1179 26.3237 24.1026 26.8481 23.0032 26.9718C21.9037 27.0955 20.7973 26.8098 19.8951 26.1694C18.9929 25.5289 18.3583 24.5786 18.1125 23.4999H13.8875C13.6416 24.5786 13.007 25.5289 12.1049 26.1693C11.2027 26.8098 10.0963 27.0954 8.99686 26.9717C7.89745 26.848 6.88213 26.3236 6.14486 25.4987C5.40758 24.6738 5.00002 23.6063 5.00002 22.4999C5.00002 21.3936 5.40758 20.326 6.14486 19.5011C6.88213 18.6762 7.89745 18.1518 8.99686 18.0281C10.0963 17.9044 11.2027 18.1901 12.1049 18.8305C13.007 19.4709 13.6416 20.4212 13.8875 21.4999H18.1125C18.3583 20.4212 18.9929 19.4709 19.8951 18.8304C20.7973 18.19 21.9037 17.9043 23.0032 18.028C24.1026 18.1518 25.1179 18.6761 25.8552 19.501C26.5925 20.3259 27 21.3935 27 22.4999ZM31 13.9999H27.525L21.6625 5.62491C21.4744 5.35884 21.2245 5.14242 20.9343 4.99426C20.6441 4.84609 20.3222 4.77061 19.9964 4.7743C19.6706 4.77799 19.3505 4.86074 19.0637 5.01543C18.777 5.17013 18.532 5.39215 18.35 5.66241L16 9.19991L13.65 5.66241C13.468 5.39215 13.223 5.17013 12.9363 5.01543C12.6495 4.86074 12.3294 4.77799 12.0036 4.7743C11.6778 4.77061 11.3559 4.84609 11.0657 4.99426C10.7755 5.14242 10.5256 5.35884 10.3375 5.62491L4.475 13.9999H1C0.734784 13.9999 0.48043 14.1053 0.292893 14.2928C0.105357 14.4803 0 14.7347 0 14.9999C0 15.2651 0.105357 15.5195 0.292893 15.707C0.48043 15.8946 0.734784 15.9999 1 15.9999H31C31.2652 15.9999 31.5196 15.8946 31.7071 15.707C31.8946 15.5195 32 15.2651 32 14.9999C32 14.7347 31.8946 14.4803 31.7071 14.2928C31.5196 14.1053 31.2652 13.9999 31 13.9999Z" fill="#1C1C1C"/>
</svg>
