<svg width="32" height="32" viewBox="0 0 32 32" fill="none" xmlns="http://www.w3.org/2000/svg">
<path d="M29.5 17.4126L17.4125 29.5001C17.2277 29.6868 17.0077 29.835 16.7652 29.9362C16.5228 30.0373 16.2627 30.0894 16 30.0894C15.7373 30.0894 15.4772 30.0373 15.2348 29.9362C14.9923 29.835 14.7723 29.6868 14.5875 29.5001L2.5 17.4126C2.129 17.0361 1.92103 16.5287 1.92103 16.0001C1.92103 15.4715 2.129 14.9641 2.5 14.5876L14.5875 2.50012C14.964 2.12911 15.4714 1.92114 16 1.92114C16.5286 1.92114 17.036 2.12911 17.4125 2.50012L29.5 14.5876C29.871 14.9641 30.079 15.4715 30.079 16.0001C30.079 16.5287 29.871 17.0361 29.5 17.4126Z" fill="#1C1C1C"/>
</svg>
