<svg width="32" height="32" viewBox="0 0 32 32" fill="none" xmlns="http://www.w3.org/2000/svg">
<path d="M11 9.41255C10.629 9.03603 10.421 8.52865 10.421 8.00005C10.421 7.47146 10.629 6.96408 11 6.58755L14.5875 3.00005C14.7723 2.81335 14.9923 2.66514 15.2347 2.56399C15.4772 2.46285 15.7373 2.41077 16 2.41077C16.2627 2.41077 16.5228 2.46285 16.7652 2.56399C17.0077 2.66514 17.2277 2.81335 17.4125 3.00005L21 6.58755C21.371 6.96408 21.579 7.47146 21.579 8.00005C21.579 8.52865 21.371 9.03603 21 9.41255L17.4125 13.0001C17.2277 13.1868 17.0077 13.335 16.7652 13.4361C16.5228 13.5373 16.2627 13.5893 16 13.5893C15.7373 13.5893 15.4772 13.5373 15.2347 13.4361C14.9923 13.335 14.7723 13.1868 14.5875 13.0001L11 9.41255ZM29 14.5876L25.4125 11.0001C25.2277 10.8134 25.0077 10.6651 24.7652 10.564C24.5228 10.4628 24.2627 10.4108 24 10.4108C23.7373 10.4108 23.4772 10.4628 23.2347 10.564C22.9923 10.6651 22.7723 10.8134 22.5875 11.0001L19 14.5876C18.629 14.9641 18.421 15.4715 18.421 16.0001C18.421 16.5287 18.629 17.036 19 17.4126L22.5875 21.0001C22.7723 21.1868 22.9923 21.335 23.2347 21.4361C23.4772 21.5373 23.7373 21.5893 24 21.5893C24.2627 21.5893 24.5228 21.5373 24.7652 21.4361C25.0077 21.335 25.2277 21.1868 25.4125 21.0001L29 17.4126C29.371 17.036 29.579 16.5287 29.579 16.0001C29.579 15.4715 29.371 14.9641 29 14.5876ZM13 14.5876L9.41249 11.0001C9.22768 10.8134 9.00769 10.6651 8.76524 10.564C8.52279 10.4628 8.2627 10.4108 7.99999 10.4108C7.73729 10.4108 7.4772 10.4628 7.23475 10.564C6.9923 10.6651 6.77231 10.8134 6.58749 11.0001L2.99999 14.5876C2.62899 14.9641 2.42102 15.4715 2.42102 16.0001C2.42102 16.5287 2.62899 17.036 2.99999 17.4126L6.58749 21.0001C6.77231 21.1868 6.9923 21.335 7.23475 21.4361C7.4772 21.5373 7.73729 21.5893 7.99999 21.5893C8.2627 21.5893 8.52279 21.5373 8.76524 21.4361C9.00769 21.335 9.22768 21.1868 9.41249 21.0001L13 17.4126C13.371 17.036 13.579 16.5287 13.579 16.0001C13.579 15.4715 13.371 14.9641 13 14.5876ZM17.4125 19.0001C17.2277 18.8134 17.0077 18.6651 16.7652 18.564C16.5228 18.4628 16.2627 18.4108 16 18.4108C15.7373 18.4108 15.4772 18.4628 15.2347 18.564C14.9923 18.6651 14.7723 18.8134 14.5875 19.0001L11 22.5876C10.629 22.9641 10.421 23.4715 10.421 24.0001C10.421 24.5287 10.629 25.036 11 25.4126L14.5875 29.0001C14.7723 29.1868 14.9923 29.335 15.2347 29.4361C15.4772 29.5373 15.7373 29.5893 16 29.5893C16.2627 29.5893 16.5228 29.5373 16.7652 29.4361C17.0077 29.335 17.2277 29.1868 17.4125 29.0001L21 25.4126C21.371 25.036 21.579 24.5287 21.579 24.0001C21.579 23.4715 21.371 22.9641 21 22.5876L17.4125 19.0001Z" fill="#1C1C1C"/>
</svg>
