<svg width="32" height="32" viewBox="0 0 32 32" fill="none" xmlns="http://www.w3.org/2000/svg">
<path d="M23.5375 5.41252L23.4625 5.35002L23.3625 5.30002C21.2014 3.79822 18.6317 2.99545 16 3.00002C12.8959 2.99763 9.89321 4.10496 7.53388 6.12214C5.17456 8.13932 3.61404 10.9335 3.13401 14.0002C2.65398 17.067 3.28606 20.2043 4.91616 22.8459C6.54625 25.4876 9.06698 27.4595 12.0233 28.4057C14.9797 29.3519 18.1769 29.2102 21.0379 28.006C23.899 26.8018 26.2353 24.6145 27.6252 21.839C29.015 19.0635 29.367 15.8825 28.6174 12.8703C27.8678 9.85802 26.0661 7.21296 23.5375 5.41252ZM16 19C15.4067 19 14.8266 18.8241 14.3333 18.4944C13.84 18.1648 13.4554 17.6962 13.2284 17.1481C13.0013 16.5999 12.9419 15.9967 13.0577 15.4147C13.1734 14.8328 13.4591 14.2983 13.8787 13.8787C14.2982 13.4591 14.8328 13.1734 15.4147 13.0577C15.9967 12.9419 16.5999 13.0013 17.1481 13.2284C17.6962 13.4554 18.1648 13.84 18.4944 14.3333C18.8241 14.8267 19 15.4067 19 16C18.9967 16.7947 18.6796 17.5558 18.1177 18.1177C17.5558 18.6796 16.7946 18.9967 16 19ZM27 16C27 16.3125 26.9875 16.6125 26.9625 16.9125L21 15.8625C20.9664 14.6301 20.4764 13.4542 19.625 12.5625L23.1 7.60002C24.3224 8.63186 25.3046 9.91816 25.9783 11.369C26.6519 12.8199 27.0006 14.4004 27 16Z" fill="#1C1C1C"/>
</svg>
