<svg width="32" height="32" viewBox="0 0 32 32" fill="none" xmlns="http://www.w3.org/2000/svg">
<path d="M13 17.5C13 17.7967 12.9121 18.0867 12.7473 18.3334C12.5824 18.58 12.3482 18.7723 12.0741 18.8858C11.8 18.9994 11.4984 19.0291 11.2074 18.9712C10.9164 18.9133 10.6492 18.7705 10.4394 18.5607C10.2296 18.3509 10.0867 18.0836 10.0289 17.7926C9.97099 17.5017 10.0007 17.2001 10.1142 16.926C10.2278 16.6519 10.42 16.4176 10.6667 16.2528C10.9134 16.088 11.2034 16 11.5 16C11.8979 16 12.2794 16.158 12.5607 16.4394C12.842 16.7207 13 17.1022 13 17.5ZM20.5 16C20.2034 16 19.9134 16.088 19.6667 16.2528C19.42 16.4176 19.2278 16.6519 19.1142 16.926C19.0007 17.2001 18.971 17.5017 19.0289 17.7926C19.0867 18.0836 19.2296 18.3509 19.4394 18.5607C19.6492 18.7705 19.9164 18.9133 20.2074 18.9712C20.4984 19.0291 20.8 18.9994 21.0741 18.8858C21.3482 18.7723 21.5824 18.58 21.7472 18.3334C21.9121 18.0867 22 17.7967 22 17.5C22 17.1022 21.842 16.7207 21.5607 16.4394C21.2794 16.158 20.8979 16 20.5 16ZM29.0875 18C28.8241 18.1177 28.5385 18.1774 28.25 18.175C27.7936 18.1759 27.3512 18.0167 27 17.725V23C27 24.3261 26.4733 25.5979 25.5356 26.5355C24.5979 27.4732 23.3261 28 22 28H10C8.67396 28 7.40219 27.4732 6.46451 26.5355C5.52683 25.5979 5.00005 24.3261 5.00005 23V17.725C4.6489 18.0167 4.20654 18.1759 3.75005 18.175C3.46156 18.1774 3.17594 18.1177 2.91255 18C2.50047 17.818 2.163 17.5006 1.95611 17.1005C1.74921 16.7003 1.68532 16.2415 1.77505 15.8L3.82505 4.86251C3.87658 4.59514 3.98184 4.34101 4.13445 4.1155C4.28706 3.88999 4.48385 3.6978 4.71289 3.55055C4.94194 3.40331 5.19849 3.30408 5.467 3.25886C5.73551 3.21365 6.01041 3.2234 6.27505 3.28751L13.125 5.00001H18.875L25.725 3.28751C25.9897 3.2234 26.2646 3.21365 26.5331 3.25886C26.8016 3.30408 27.0581 3.40331 27.2872 3.55055C27.5162 3.6978 27.713 3.88999 27.8656 4.1155C28.0182 4.34101 28.1235 4.59514 28.175 4.86251L30.225 15.8C30.3148 16.2415 30.2509 16.7003 30.044 17.1005C29.8371 17.5006 29.4996 17.818 29.0875 18ZM25 23V15.25L18.5125 7.00001H13.4875L7.00005 15.25V23C7.00334 23.7946 7.32046 24.5558 7.88236 25.1177C8.44426 25.6796 9.20541 25.9967 10 26H15V24.4125L13.2875 22.7125C13.1281 22.5182 13.0466 22.2716 13.0589 22.0205C13.0713 21.7694 13.1765 21.532 13.3543 21.3542C13.532 21.1765 13.7695 21.0712 14.0205 21.0589C14.2716 21.0466 14.5183 21.128 14.7125 21.2875L16 22.5875L17.2875 21.2875C17.4818 21.128 17.7285 21.0466 17.9796 21.0589C18.2306 21.0712 18.4681 21.1765 18.6458 21.3542C18.8236 21.532 18.9288 21.7694 18.9412 22.0205C18.9535 22.2716 18.872 22.5182 18.7125 22.7125L17 24.4125V26H22C22.7947 25.9967 23.5558 25.6796 24.1177 25.1177C24.6796 24.5558 24.9968 23.7946 25 23Z" fill="#1C1C1C"/>
</svg>
