<svg width="32" height="32" viewBox="0 0 32 32" fill="none" xmlns="http://www.w3.org/2000/svg">
<path d="M4.45 16.7999C4.29002 16.444 4.23907 16.0486 4.30359 15.6637C4.3681 15.2789 4.54519 14.9217 4.8125 14.6374L14.525 4.11241C14.7143 3.91112 14.9429 3.75071 15.1966 3.64106C15.4502 3.53142 15.7236 3.47485 16 3.47485C16.2764 3.47485 16.5498 3.53142 16.8034 3.64106C17.0571 3.75071 17.2857 3.91112 17.475 4.11241L27.1875 14.6374C27.4535 14.9232 27.63 15.2805 27.6953 15.6654C27.7605 16.0503 27.7118 16.4459 27.555 16.8034C27.3981 17.1609 27.1401 17.4646 26.8127 17.6773C26.4853 17.8899 26.1029 18.002 25.7125 17.9999H6.2875C5.89723 18.0024 5.51487 17.8899 5.1881 17.6765C4.86134 17.4631 4.60463 17.1582 4.45 16.7999ZM26 19.9999H6C5.46957 19.9999 4.96086 20.2106 4.58579 20.5857C4.21071 20.9608 4 21.4695 4 21.9999V24.9999C4 25.5303 4.21071 26.0391 4.58579 26.4141C4.96086 26.7892 5.46957 26.9999 6 26.9999H26C26.5304 26.9999 27.0391 26.7892 27.4142 26.4141C27.7893 26.0391 28 25.5303 28 24.9999V21.9999C28 21.4695 27.7893 20.9608 27.4142 20.5857C27.0391 20.2106 26.5304 19.9999 26 19.9999Z" fill="#1C1C1C"/>
</svg>
