<svg width="32" height="32" viewBox="0 0 32 32" fill="none" xmlns="http://www.w3.org/2000/svg">
<path d="M28.55 11.1625L16.55 3.1625C16.3856 3.05796 16.1948 3.00244 16 3.00244C15.8052 3.00244 15.6144 3.05796 15.45 3.1625L3.44998 11.1625C3.31056 11.253 3.19622 11.3771 3.11756 11.5235C3.0389 11.6699 2.99845 11.8338 2.99998 12V25C2.99998 25.5304 3.21069 26.0391 3.58577 26.4142C3.96084 26.7893 4.46955 27 4.99998 27H27C27.5304 27 28.0391 26.7893 28.4142 26.4142C28.7893 26.0391 29 25.5304 29 25V12C29.0015 11.8338 28.9611 11.6699 28.8824 11.5235C28.8037 11.3771 28.6894 11.253 28.55 11.1625ZM4.99998 25V13.9375L13.2375 19.8125C13.4048 19.9336 13.6059 19.9992 13.8125 20H18.1875C18.394 19.9992 18.5951 19.9336 18.7625 19.8125L27 13.9375V25H4.99998Z" fill="#1C1C1C"/>
</svg>
