<svg width="32" height="32" viewBox="0 0 32 32" fill="none" xmlns="http://www.w3.org/2000/svg">
<path d="M28.55 11.1625L16.55 3.1625C16.3856 3.05796 16.1948 3.00244 16 3.00244C15.8052 3.00244 15.6144 3.05796 15.45 3.1625L3.44998 11.1625C3.31056 11.253 3.19622 11.3771 3.11756 11.5235C3.0389 11.6699 2.99845 11.8338 2.99998 12V25C2.99998 25.5304 3.21069 26.0391 3.58577 26.4142C3.96084 26.7893 4.46955 27 4.99998 27H27C27.5304 27 28.0391 26.7893 28.4142 26.4142C28.7893 26.0391 29 25.5304 29 25V12C29.0015 11.8338 28.9611 11.6699 28.8824 11.5235C28.8037 11.3771 28.6894 11.253 28.55 11.1625ZM12.0875 19L4.99998 24V13.9375L12.0875 19ZM14.1375 20H17.8625L24.9375 25H7.06248L14.1375 20ZM19.9125 19L27 13.9375V24L19.9125 19Z" fill="#1C1C1C"/>
</svg>
