<svg width="32" height="32" viewBox="0 0 32 32" fill="none" xmlns="http://www.w3.org/2000/svg">
<path d="M23.325 11.75C24.2224 11.0992 24.8907 10.1812 25.2343 9.12728C25.5779 8.07341 25.5791 6.93783 25.2377 5.88324C24.8963 4.82864 24.23 3.90915 23.334 3.2565C22.438 2.60385 21.3585 2.25152 20.25 2.25H11.75C10.6416 2.25152 9.56204 2.60385 8.66609 3.2565C7.77014 3.90915 7.10374 4.82864 6.76239 5.88324C6.42103 6.93783 6.42223 8.07341 6.76581 9.12728C7.10939 10.1812 7.77772 11.0992 8.67505 11.75C8.00136 12.2352 7.45267 12.8736 7.07422 13.6125C6.69578 14.3515 6.49841 15.1698 6.49841 16C6.49841 16.8302 6.69578 17.6485 7.07422 18.3875C7.45267 19.1264 8.00136 19.7648 8.67505 20.25C7.94634 20.7766 7.36508 21.4815 6.98695 22.2972C6.60883 23.1129 6.44651 24.012 6.51555 24.9084C6.5846 25.8048 6.88269 26.6685 7.38126 27.4166C7.87984 28.1648 8.56219 28.7723 9.36294 29.1811C10.1637 29.5899 11.056 29.7862 11.9544 29.7512C12.8528 29.7162 13.7271 29.4511 14.4936 28.9813C15.2602 28.5114 15.8932 27.8526 16.3321 27.068C16.7709 26.2833 17.0009 25.3991 17 24.5V20.1125C17.545 20.5723 18.1779 20.9163 18.8601 21.1235C19.5423 21.3306 20.2596 21.3967 20.9682 21.3176C21.6768 21.2385 22.3618 21.0158 22.9816 20.6633C23.6013 20.3107 24.1427 19.8356 24.5728 19.267C25.0029 18.6983 25.3127 18.048 25.4832 17.3557C25.6538 16.6634 25.6815 15.9436 25.5648 15.2403C25.448 14.5369 25.1892 13.8647 24.8041 13.2646C24.4191 12.6645 23.9158 12.1492 23.325 11.75ZM23.5 7.5C23.4968 8.36094 23.1533 9.18568 22.5445 9.79446C21.9357 10.4032 21.111 10.7467 20.25 10.75H17V4.25H20.25C21.111 4.25329 21.9357 4.59676 22.5445 5.20554C23.1533 5.81432 23.4968 6.63906 23.5 7.5ZM20.25 19.25C19.3881 19.25 18.5614 18.9076 17.9519 18.2981C17.3425 17.6886 17 16.862 17 16C17 15.138 17.3425 14.3114 17.9519 13.7019C18.5614 13.0924 19.3881 12.75 20.25 12.75C21.112 12.75 21.9387 13.0924 22.5481 13.7019C23.1576 14.3114 23.5 15.138 23.5 16C23.5 16.862 23.1576 17.6886 22.5481 18.2981C21.9387 18.9076 21.112 19.25 20.25 19.25Z" fill="#1C1C1C"/>
</svg>
