<svg width="32" height="32" viewBox="0 0 32 32" fill="none" xmlns="http://www.w3.org/2000/svg">
<path d="M23.5 22V23H25.5C25.7652 23 26.0196 23.1054 26.2071 23.2929C26.3947 23.4804 26.5 23.7348 26.5 24C26.5 24.2652 26.3947 24.5196 26.2071 24.7071C26.0196 24.8947 25.7652 25 25.5 25H23.5V26H26C26.2652 26 26.5196 26.1054 26.7071 26.2929C26.8947 26.4804 27 26.7348 27 27C27 27.2652 26.8947 27.5196 26.7071 27.7071C26.5196 27.8947 26.2652 28 26 28H22.5C22.2348 28 21.9804 27.8947 21.7929 27.7071C21.6054 27.5196 21.5 27.2652 21.5 27V21C21.5 20.7348 21.6054 20.4804 21.7929 20.2929C21.9804 20.1054 22.2348 20 22.5 20H26C26.2652 20 26.5196 20.1054 26.7071 20.2929C26.8947 20.4804 27 20.7348 27 21C27 21.2652 26.8947 21.5196 26.7071 21.7071C26.5196 21.8947 26.2652 22 26 22H23.5ZM10.8875 20.075C10.7661 20.0237 10.6357 19.997 10.5039 19.9962C10.3721 19.9955 10.2415 20.0209 10.1195 20.0708C9.99752 20.1208 9.88662 20.1944 9.79318 20.2873C9.69974 20.3803 9.6256 20.4908 9.57502 20.6125L8.00002 24.4L6.42502 20.6125C6.32225 20.3672 6.12623 20.1727 5.88009 20.0719C5.63395 19.9711 5.35784 19.9722 5.11252 20.075C4.86719 20.1778 4.67274 20.3738 4.57194 20.6199C4.47114 20.8661 4.47225 21.1422 4.57502 21.3875L7.07502 27.3875C7.15036 27.5709 7.27852 27.7278 7.44323 27.8382C7.60793 27.9486 7.80174 28.0075 8.00002 28.0075C8.1983 28.0075 8.39211 27.9486 8.55681 27.8382C8.72151 27.7278 8.84968 27.5709 8.92502 27.3875L11.425 21.3875C11.4763 21.2661 11.5031 21.1357 11.5038 21.0039C11.5045 20.8721 11.4792 20.7415 11.4292 20.6195C11.3793 20.4975 11.3057 20.3866 11.2127 20.2932C11.1198 20.1997 11.0092 20.1256 10.8875 20.075ZM18.5 20C18.2348 20 17.9804 20.1054 17.7929 20.2929C17.6054 20.4804 17.5 20.7348 17.5 21V24.75C17.5 25.0815 17.3683 25.3995 17.1339 25.6339C16.8995 25.8683 16.5815 26 16.25 26C15.9185 26 15.6006 25.8683 15.3661 25.6339C15.1317 25.3995 15 25.0815 15 24.75V21C15 20.7348 14.8947 20.4804 14.7071 20.2929C14.5196 20.1054 14.2652 20 14 20C13.7348 20 13.4804 20.1054 13.2929 20.2929C13.1054 20.4804 13 20.7348 13 21V24.75C13 25.612 13.3424 26.4386 13.9519 27.0481C14.5614 27.6576 15.3881 28 16.25 28C17.112 28 17.9386 27.6576 18.5481 27.0481C19.1576 26.4386 19.5 25.612 19.5 24.75V21C19.5 20.7348 19.3947 20.4804 19.2071 20.2929C19.0196 20.1054 18.7652 20 18.5 20ZM27 11V16C27 16.2652 26.8947 16.5196 26.7071 16.7071C26.5196 16.8947 26.2652 17 26 17H6.00002C5.7348 17 5.48045 16.8947 5.29291 16.7071C5.10537 16.5196 5.00002 16.2652 5.00002 16V5.00002C5.00002 4.46958 5.21073 3.96088 5.5858 3.5858C5.96088 3.21073 6.46958 3.00002 7.00002 3.00002H19C19.2661 2.99852 19.522 3.10179 19.7125 3.28752L26.7125 10.2875C26.8982 10.478 27.0015 10.734 27 11ZM24.5 11L19 5.50002V11H24.5Z" fill="#1C1C1C"/>
</svg>
