<svg width="32" height="32" viewBox="0 0 32 32" fill="none" xmlns="http://www.w3.org/2000/svg">
<path d="M26.7125 10.2875L19.7125 3.28752C19.522 3.10179 19.266 2.99852 19 3.00002H6.99997C6.46954 3.00002 5.96083 3.21073 5.58576 3.5858C5.21069 3.96088 4.99997 4.46958 4.99997 5.00002V17C4.99997 17.2652 5.10533 17.5196 5.29287 17.7071C5.4804 17.8947 5.73476 18 5.99997 18C6.26519 18 6.51954 17.8947 6.70708 17.7071C6.89462 17.5196 6.99997 17.2652 6.99997 17V5.00002H18V11C18 11.2652 18.1053 11.5196 18.2929 11.7071C18.4804 11.8947 18.7348 12 19 12H25V27H24C23.7348 27 23.4804 27.1054 23.2929 27.2929C23.1053 27.4804 23 27.7348 23 28C23 28.2652 23.1053 28.5196 23.2929 28.7071C23.4804 28.8947 23.7348 29 24 29H25C25.5304 29 26.0391 28.7893 26.4142 28.4142C26.7893 28.0392 27 27.5304 27 27V11C27.0015 10.734 26.8982 10.478 26.7125 10.2875ZM20 10V6.41252L23.5875 10H20ZM19.8375 27.45C19.934 27.6019 19.9893 27.7762 19.9981 27.9559C20.0068 28.1356 19.9687 28.3145 19.8875 28.475C19.8012 28.6349 19.673 28.7682 19.5166 28.8607C19.3602 28.9532 19.1816 29.0014 19 29H2.99997C2.82043 28.9991 2.64443 28.9499 2.49047 28.8575C2.33651 28.7651 2.21026 28.633 2.12497 28.475C2.03918 28.3186 1.99737 28.1419 2.00397 27.9636C2.01058 27.7853 2.06535 27.6122 2.16247 27.4625L6.23747 21.1125C6.37323 20.9009 6.55999 20.7268 6.7806 20.6063C7.0012 20.4857 7.24857 20.4225 7.49997 20.4225C7.75138 20.4225 7.99875 20.4857 8.21935 20.6063C8.43995 20.7268 8.62672 20.9009 8.76247 21.1125L9.56247 22.3625L11.75 19.075C11.8868 18.8687 12.0726 18.6995 12.2907 18.5825C12.5088 18.4654 12.7524 18.4042 13 18.4042C13.2475 18.4042 13.4912 18.4654 13.7093 18.5825C13.9274 18.6995 14.1131 18.8687 14.25 19.075L19.8375 27.45Z" fill="#1C1C1C"/>
</svg>
