<svg width="32" height="32" viewBox="0 0 32 32" fill="none" xmlns="http://www.w3.org/2000/svg">
<path d="M26.7125 10.2875L19.7125 3.28752C19.522 3.10179 19.266 2.99852 19 3.00002H6.99998C6.46954 3.00002 5.96084 3.21073 5.58576 3.5858C5.21069 3.96088 4.99998 4.46958 4.99998 5.00002V16C4.99998 16.2652 5.10533 16.5196 5.29287 16.7071C5.48041 16.8947 5.73476 17 5.99998 17C6.26519 17 6.51955 16.8947 6.70708 16.7071C6.89462 16.5196 6.99998 16.2652 6.99998 16V5.00002H18V11C18 11.2652 18.1053 11.5196 18.2929 11.7071C18.4804 11.8947 18.7348 12 19 12H25V27H22C21.7348 27 21.4804 27.1054 21.2929 27.2929C21.1053 27.4804 21 27.7348 21 28C21 28.2652 21.1053 28.5196 21.2929 28.7071C21.4804 28.8947 21.7348 29 22 29H25C25.5304 29 26.0391 28.7893 26.4142 28.4142C26.7893 28.0392 27 27.5304 27 27V11C27.0015 10.734 26.8982 10.478 26.7125 10.2875ZM20 6.41252L23.5875 10H20V6.41252ZM20 22.5C20 24.2239 19.3152 25.8772 18.0962 27.0962C16.8772 28.3152 15.2239 29 13.5 29H7.49998C6.40731 28.9995 5.35216 28.6014 4.53143 27.8801C3.7107 27.1588 3.18047 26.1634 3.03966 25.0799C2.89886 23.9963 3.15712 22.8986 3.76624 21.9914C4.37536 21.0843 5.29373 20.4298 6.34998 20.15C6.11932 20.9121 6.0014 21.7038 5.99998 22.5C5.99998 22.7652 6.10533 23.0196 6.29287 23.2071C6.48041 23.3947 6.73476 23.5 6.99998 23.5C7.26519 23.5 7.51955 23.3947 7.70708 23.2071C7.89462 23.0196 7.99998 22.7652 7.99998 22.5C7.99896 21.6366 8.18667 20.7833 8.54998 20C9.12186 18.758 10.1008 17.7486 11.3247 17.1389C12.5486 16.5293 13.944 16.3559 15.2799 16.6476C16.6157 16.9393 17.8119 17.6785 18.6703 18.7428C19.5287 19.8071 19.9978 21.1327 20 22.5Z" fill="#1C1C1C"/>
</svg>
