<svg width="32" height="32" viewBox="0 0 32 32" fill="none" xmlns="http://www.w3.org/2000/svg">
<path d="M27 13.0001H12.6L26.5125 9.27506C26.6391 9.23979 26.7573 9.17961 26.8604 9.09804C26.9634 9.01648 27.0491 8.91517 27.1125 8.80006C27.1804 8.68886 27.2243 8.56473 27.2415 8.4356C27.2587 8.30646 27.2488 8.17516 27.2125 8.05006L26.175 4.18756C26.1097 3.93357 25.9945 3.69512 25.8361 3.48612C25.6777 3.27713 25.4793 3.10177 25.2524 2.97028C25.0255 2.8388 24.7747 2.75382 24.5146 2.7203C24.2545 2.68678 23.9903 2.7054 23.7375 2.77506L4.41249 7.95006C4.15802 8.01674 3.91932 8.13327 3.71022 8.29289C3.50112 8.45252 3.3258 8.65207 3.19441 8.87997C3.06301 9.10787 2.97817 9.35959 2.9448 9.62052C2.91143 9.88146 2.93019 10.1464 2.99999 10.4001L3.99999 14.1376V25.0001C3.99999 25.5305 4.21071 26.0392 4.58578 26.4143C4.96085 26.7893 5.46956 27.0001 5.99999 27.0001H26C26.5304 27.0001 27.0391 26.7893 27.4142 26.4143C27.7893 26.0392 28 25.5305 28 25.0001V14.0001C28 13.7348 27.8946 13.4805 27.7071 13.293C27.5196 13.1054 27.2652 13.0001 27 13.0001ZM21.1625 8.63756L12.4625 10.9626L8.79999 8.83756L17.4875 6.51256L21.1625 8.63756ZM26 25.0001H5.99999V15.0001H26V25.0001Z" fill="#1C1C1C"/>
</svg>
