<svg width="32" height="32" viewBox="0 0 32 32" fill="none" xmlns="http://www.w3.org/2000/svg">
<path d="M16 3C12.5542 3.00661 9.25143 4.37837 6.81489 6.81491C4.37834 9.25145 3.00658 12.5542 2.99998 16C3.00082 17.2474 2.78947 18.4859 2.37498 19.6625C2.28666 19.9145 2.30147 20.1912 2.41618 20.4323C2.5309 20.6735 2.73623 20.8595 2.98748 20.95C3.09241 20.984 3.20216 21.0009 3.31248 21C3.51957 21 3.72169 20.9365 3.89156 20.818C4.06143 20.6995 4.19089 20.5318 4.26248 20.3375C4.75179 18.9438 5.00116 17.4771 4.99998 16C4.99998 13.0826 6.1589 10.2847 8.2218 8.22183C10.2847 6.15893 13.0826 5 16 5C18.9174 5 21.7153 6.15893 23.7782 8.22183C25.8411 10.2847 27 13.0826 27 16C26.9994 18.2869 26.7775 20.5684 26.3375 22.8125C26.2894 23.0724 26.3449 23.3408 26.492 23.5603C26.6392 23.7799 26.8663 23.9332 27.125 23.9875H27.325C27.5553 23.9888 27.7788 23.9095 27.9568 23.7634C28.1349 23.6173 28.2562 23.4136 28.3 23.1875C28.7641 20.8198 28.9985 18.4128 29 16C28.9967 12.5532 27.626 9.24852 25.1887 6.81127C22.7515 4.37401 19.4468 3.00331 16 3Z" fill="#1C1C1C"/>
<path d="M11.625 10.5375C11.8322 10.3717 11.9651 10.1304 11.9944 9.86671C12.0237 9.60299 11.947 9.33843 11.7813 9.13123C11.6155 8.92403 11.3742 8.79116 11.1105 8.76186C10.8468 8.73256 10.5822 8.80922 10.375 8.97498C9.31918 9.81568 8.46715 10.8843 7.88269 12.1008C7.29823 13.3174 6.99648 14.6503 7.00001 16C7.00738 18.3164 6.47226 20.6025 5.43751 22.675C5.32373 22.9126 5.30709 23.1853 5.39112 23.435C5.47514 23.6848 5.65321 23.8919 5.88751 24.0125C6.02736 24.0813 6.18167 24.1156 6.33751 24.1125C6.52358 24.1124 6.70601 24.061 6.86478 23.9639C7.02355 23.8669 7.15252 23.728 7.23751 23.5625C8.40015 21.2112 9.00336 18.623 9.00001 16C8.99939 14.9508 9.23504 13.915 9.68947 12.9693C10.1439 12.0237 10.8054 11.1925 11.625 10.5375Z" fill="#1C1C1C"/>
<path d="M16 15C15.7348 15 15.4804 15.1054 15.2929 15.2929C15.1054 15.4804 15 15.7348 15 16C15.0043 19.8966 14.0148 23.7299 12.125 27.1375C11.9996 27.3717 11.9713 27.6458 12.0461 27.9006C12.121 28.1555 12.2929 28.3708 12.525 28.5C12.6694 28.5831 12.8334 28.6263 13 28.625C13.1783 28.6253 13.3535 28.578 13.5073 28.4879C13.6611 28.3978 13.7881 28.2682 13.875 28.1125C15.9273 24.4055 17.0027 20.2372 17 16C17 15.7348 16.8947 15.4804 16.7071 15.2929C16.5196 15.1054 16.2652 15 16 15Z" fill="#1C1C1C"/>
<path d="M16 11C14.6749 11.0033 13.4051 11.5311 12.4681 12.4681C11.5311 13.4051 11.0033 14.6749 11 16C11 16.2652 11.1054 16.5196 11.2929 16.7071C11.4804 16.8946 11.7348 17 12 17C12.2652 17 12.5196 16.8946 12.7071 16.7071C12.8946 16.5196 13 16.2652 13 16C13 15.2044 13.3161 14.4413 13.8787 13.8787C14.4413 13.3161 15.2044 13 16 13C16.7956 13 17.5587 13.3161 18.1213 13.8787C18.6839 14.4413 19 15.2044 19 16C19.0099 19.976 18.1345 23.9043 16.4375 27.5C16.3804 27.6189 16.3474 27.748 16.3403 27.8797C16.3333 28.0115 16.3524 28.1433 16.3966 28.2676C16.4407 28.392 16.509 28.5063 16.5976 28.6041C16.6861 28.7019 16.7932 28.7812 16.9125 28.8375C17.0464 28.8963 17.1912 28.9261 17.3375 28.925C17.5283 28.9249 17.7152 28.8708 17.8767 28.7691C18.0381 28.6674 18.1675 28.5221 18.25 28.35C20.0724 24.4886 21.0118 20.2698 21 16C20.9967 14.6749 20.4689 13.4051 19.5319 12.4681C18.5949 11.5311 17.3251 11.0033 16 11Z" fill="#1C1C1C"/>
<path d="M11.8 19.025C11.6719 18.9976 11.5396 18.9961 11.4109 19.0203C11.2822 19.0446 11.1596 19.0943 11.0502 19.1664C10.9408 19.2385 10.8469 19.3317 10.7739 19.4405C10.7009 19.5492 10.6503 19.6714 10.625 19.8C10.2125 21.7973 9.48692 23.7168 8.47501 25.4875C8.34323 25.7164 8.30738 25.9882 8.3753 26.2435C8.44321 26.4988 8.60938 26.7168 8.83751 26.85C8.98985 26.9374 9.16189 26.9847 9.33751 26.9875C9.51195 26.9844 9.68271 26.9369 9.83365 26.8494C9.98458 26.7619 10.1107 26.6373 10.2 26.4875C11.3339 24.5374 12.1364 22.4127 12.575 20.2C12.6024 20.0719 12.6039 19.9396 12.5797 19.8109C12.5554 19.6821 12.5057 19.5595 12.4336 19.4502C12.3615 19.3408 12.2683 19.2469 12.1595 19.1739C12.0508 19.1009 11.9285 19.0503 11.8 19.025Z" fill="#1C1C1C"/>
<path d="M16 7C15.6238 7.00007 15.248 7.02513 14.875 7.075C14.7357 7.07915 14.5987 7.11239 14.473 7.17259C14.3472 7.23279 14.2355 7.31862 14.1448 7.42457C14.0542 7.53052 13.9868 7.65425 13.9468 7.78781C13.9068 7.92138 13.8952 8.06182 13.9127 8.20014C13.9302 8.33845 13.9764 8.47158 14.0484 8.59097C14.1204 8.71036 14.2166 8.81337 14.3308 8.8934C14.4449 8.97343 14.5746 9.0287 14.7113 9.05567C14.8481 9.08264 14.989 9.08071 15.125 9.05C15.4125 9.025 15.7125 9 16 9C17.8566 9 19.637 9.7375 20.9498 11.0503C22.2625 12.363 23 14.1435 23 16C23.0027 17.2954 22.9233 18.5896 22.7625 19.875C22.745 20.0048 22.7536 20.1369 22.7876 20.2634C22.8216 20.3899 22.8805 20.5084 22.9608 20.6119C23.041 20.7154 23.1411 20.802 23.2552 20.8665C23.3692 20.9309 23.4949 20.9721 23.625 20.9875H23.75C23.9942 20.9867 24.2299 20.8978 24.4137 20.737C24.5974 20.5762 24.7169 20.3544 24.75 20.1125C24.9146 18.7436 24.9981 17.3662 25 15.9875C24.9934 13.6037 24.0427 11.3197 22.3559 9.63526C20.6692 7.95085 18.3838 7.0033 16 7Z" fill="#1C1C1C"/>
<path d="M23.2374 23.0375C23.111 23.0037 22.9792 22.9954 22.8495 23.013C22.7198 23.0306 22.595 23.0738 22.4822 23.1401C22.3693 23.2064 22.2708 23.2945 22.1923 23.3992C22.1138 23.5039 22.0569 23.6231 22.0249 23.75C21.8374 24.4625 21.6249 25.175 21.3999 25.875C21.3569 25.9989 21.3389 26.1301 21.3471 26.261C21.3554 26.3919 21.3895 26.5198 21.4477 26.6373C21.5059 26.7548 21.5869 26.8596 21.686 26.9455C21.7851 27.0314 21.9003 27.0966 22.0249 27.1375C22.1297 27.1725 22.2396 27.1894 22.3499 27.1875C22.5573 27.1877 22.7594 27.1226 22.9277 27.0014C23.096 26.8803 23.2218 26.7092 23.2874 26.5125C23.5374 25.7625 23.7624 25.0125 23.9624 24.25C24.0268 23.9931 23.9866 23.7212 23.8507 23.4938C23.7148 23.2665 23.4942 23.1024 23.2374 23.0375Z" fill="#1C1C1C"/>
</svg>
