<svg width="32" height="32" viewBox="0 0 32 32" fill="none" xmlns="http://www.w3.org/2000/svg">
<path d="M22 17.5001C22 17.7967 21.912 18.0868 21.7472 18.3334C21.5824 18.5801 21.3481 18.7724 21.074 18.8859C20.7999 18.9994 20.4983 19.0291 20.2074 18.9712C19.9164 18.9134 19.6491 18.7705 19.4393 18.5607C19.2296 18.351 19.0867 18.0837 19.0288 17.7927C18.9709 17.5017 19.0006 17.2001 19.1142 16.926C19.2277 16.652 19.42 16.4177 19.6666 16.2529C19.9133 16.088 20.2033 16.0001 20.5 16.0001C20.8978 16.0001 21.2793 16.1581 21.5607 16.4394C21.842 16.7207 22 17.1022 22 17.5001ZM11.5 16.0001C11.2033 16.0001 10.9133 16.088 10.6666 16.2529C10.42 16.4177 10.2277 16.652 10.1142 16.926C10.0006 17.2001 9.97094 17.5017 10.0288 17.7927C10.0867 18.0837 10.2296 18.351 10.4393 18.5607C10.6491 18.7705 10.9164 18.9134 11.2074 18.9712C11.4983 19.0291 11.7999 18.9994 12.074 18.8859C12.3481 18.7724 12.5824 18.5801 12.7472 18.3334C12.912 18.0868 13 17.7967 13 17.5001C13 17.1022 12.842 16.7207 12.5607 16.4394C12.2793 16.1581 11.8978 16.0001 11.5 16.0001ZM30 8.00007V18.0001C29.9967 20.386 29.0474 22.6733 27.3603 24.3604C25.6732 26.0475 23.3859 26.9968 21 27.0001H11C8.61406 26.9968 6.3268 26.0475 4.63968 24.3604C2.95257 22.6733 2.0033 20.386 1.99999 18.0001V8.00007C1.99807 7.02512 2.3523 6.08304 2.99609 5.35087C3.63988 4.61871 4.52891 4.14688 5.49609 4.02406C6.46328 3.90125 7.44202 4.1359 8.24838 4.68391C9.05473 5.23193 9.63317 6.05558 9.87499 7.00007H22.125C22.3668 6.05558 22.9453 5.23193 23.7516 4.68391C24.558 4.1359 25.5367 3.90125 26.5039 4.02406C27.4711 4.14688 28.3601 4.61871 29.0039 5.35087C29.6477 6.08304 30.0019 7.02512 30 8.00007ZM25 17.0001C25 15.9392 24.5786 14.9218 23.8284 14.1716C23.0783 13.4215 22.0609 13.0001 21 13.0001H11C9.93913 13.0001 8.92171 13.4215 8.17157 14.1716C7.42142 14.9218 6.99999 15.9392 6.99999 17.0001V18.0001C6.99999 19.0609 7.42142 20.0784 8.17157 20.8285C8.92171 21.5786 9.93913 22.0001 11 22.0001H21C22.0609 22.0001 23.0783 21.5786 23.8284 20.8285C24.5786 20.0784 25 19.0609 25 18.0001V17.0001Z" fill="#1C1C1C"/>
</svg>
