<svg width="32" height="32" viewBox="0 0 32 32" fill="none" xmlns="http://www.w3.org/2000/svg">
<path d="M24.6375 8.325C23.0125 5.725 20.9 3.4875 19.0625 1.65C18.9492 1.53768 18.8106 1.45411 18.6584 1.40627C18.5062 1.35843 18.3447 1.34771 18.1875 1.375C18.0292 1.39994 17.8793 1.46304 17.7508 1.55887C17.6223 1.65469 17.5191 1.78035 17.45 1.925L13.5875 10.025L9.5625 7.3375C9.34173 7.19136 9.0725 7.13752 8.8125 7.1875C8.68352 7.21296 8.56082 7.2636 8.45143 7.33652C8.34204 7.40945 8.24811 7.50323 8.175 7.6125C5.7375 11.2875 4.5 14.6125 4.5 17.5C4.5 20.55 5.7116 23.4751 7.86827 25.6317C10.0249 27.7884 12.95 29 16 29C19.05 29 21.9751 27.7884 24.1317 25.6317C26.2884 23.4751 27.5 20.55 27.5 17.5C27.5 14.3875 26.5625 11.3875 24.6375 8.325ZM23.4125 18.65C23.176 20.2265 22.4401 21.6856 21.3129 22.8129C20.1856 23.9401 18.7265 24.676 17.15 24.9125H17C16.7491 24.9106 16.5081 24.8145 16.3247 24.6432C16.1414 24.4719 16.0292 24.238 16.0103 23.9878C15.9914 23.7376 16.0673 23.4894 16.2228 23.2926C16.3784 23.0957 16.6022 22.9645 16.85 22.925C17.9992 22.7382 19.0606 22.1947 19.8839 21.3714C20.7071 20.5481 21.2507 19.4867 21.4375 18.3375C21.4513 18.2028 21.4924 18.0723 21.5581 17.954C21.6239 17.8356 21.713 17.7318 21.82 17.649C21.9271 17.5661 22.0499 17.5058 22.1809 17.4717C22.312 17.4377 22.4486 17.4306 22.5824 17.451C22.7163 17.4713 22.8446 17.5186 22.9597 17.59C23.0747 17.6614 23.1741 17.7555 23.2517 17.8664C23.3293 17.9774 23.3836 18.1029 23.4112 18.2355C23.4388 18.368 23.4393 18.5048 23.4125 18.6375V18.65Z" fill="#1C1C1C"/>
</svg>
