<svg width="32" height="32" viewBox="0 0 32 32" fill="none" xmlns="http://www.w3.org/2000/svg">
<path d="M27.4875 17.5C27.4875 20.55 26.2759 23.475 24.1192 25.6317C21.9625 27.7884 19.0375 29 15.9875 29C12.9375 29 10.0124 27.7884 7.85576 25.6317C5.69909 23.475 4.48749 20.55 4.48749 17.5C4.48749 14.6125 5.72499 11.2875 8.16249 7.61249C8.3072 7.39452 8.53158 7.24194 8.78749 7.18749C9.05149 7.13547 9.32536 7.18934 9.54999 7.33749L13.575 10.025L17.4375 1.92499C17.5054 1.78189 17.6067 1.65722 17.7329 1.5615C17.859 1.46578 18.0064 1.40181 18.1625 1.37499C18.3216 1.34666 18.4852 1.35684 18.6396 1.40468C18.794 1.45252 18.9347 1.53664 19.05 1.64999C20.8875 3.48749 22.9875 5.72499 24.625 8.32499C26.55 11.3875 27.4875 14.3875 27.4875 17.5Z" fill="#1C1C1C"/>
</svg>
