<svg width="33" height="32" viewBox="0 0 33 32" fill="none" xmlns="http://www.w3.org/2000/svg">
<path d="M22 9.5C22 9.79667 21.912 10.0867 21.7472 10.3334C21.5824 10.58 21.3481 10.7723 21.074 10.8858C20.7999 10.9993 20.4983 11.0291 20.2074 10.9712C19.9164 10.9133 19.6491 10.7704 19.4393 10.5607C19.2296 10.3509 19.0867 10.0836 19.0288 9.79263C18.9709 9.50166 19.0007 9.20006 19.1142 8.92597C19.2277 8.65188 19.42 8.41761 19.6667 8.25279C19.9133 8.08797 20.2033 8 20.5 8C20.8978 8 21.2794 8.15803 21.5607 8.43934C21.842 8.72064 22 9.10217 22 9.5ZM26.7125 19.9375C24.1625 23.175 20.0625 24.95 14.525 25.2L11.925 31.3875C11.8472 31.5685 11.7182 31.7229 11.5539 31.8317C11.3896 31.9405 11.1971 31.999 11 32H10.9375C10.7304 31.989 10.5319 31.913 10.3704 31.7829C10.2088 31.6528 10.0924 31.4751 10.0375 31.275L8.18751 24.8125L1.72501 22.9625C1.52453 22.9065 1.34652 22.7893 1.21581 22.6274C1.08509 22.4654 1.00817 22.2666 0.995791 22.0589C0.983406 21.8511 1.03617 21.6446 1.14672 21.4682C1.25727 21.2919 1.4201 21.1544 1.61251 21.075L7.80001 18.475C8.05001 12.9375 9.81251 8.8375 13.0625 6.2875C18.2 2.2375 25.4875 3.4125 27.6 3.875C27.974 3.95546 28.3168 4.14215 28.5873 4.41266C28.8578 4.68317 29.0445 5.026 29.125 5.4C29.5875 7.5125 30.7625 14.8 26.7125 19.9375ZM27.175 5.825C25.275 5.425 18.75 4.35 14.3 7.8625C13.8282 8.228 13.3929 8.63824 13 9.0875C13.0261 10.3973 13.564 11.6449 14.4986 12.563C15.4331 13.4812 16.6899 13.997 18 14C18.2652 14 18.5196 14.1054 18.7071 14.2929C18.8946 14.4804 19 14.7348 19 15C19.003 16.3101 19.5188 17.5669 20.437 18.5014C21.3551 19.436 22.6027 19.9739 23.9125 20C24.3588 19.6041 24.7688 19.169 25.1375 18.7C28.65 14.25 27.575 7.725 27.175 5.825Z" fill="#1C1C1C"/>
</svg>
