<svg width="32" height="32" viewBox="0 0 32 32" fill="none" xmlns="http://www.w3.org/2000/svg">
<path d="M21 9.49999C21 9.79666 20.912 10.0867 20.7472 10.3333C20.5824 10.58 20.3481 10.7723 20.074 10.8858C19.7999 10.9993 19.4983 11.029 19.2073 10.9712C18.9164 10.9133 18.6491 10.7704 18.4393 10.5606C18.2295 10.3509 18.0867 10.0836 18.0288 9.79262C17.9709 9.50165 18.0006 9.20005 18.1142 8.92596C18.2277 8.65187 18.4199 8.41761 18.6666 8.25278C18.9133 8.08796 19.2033 7.99999 19.5 7.99999C19.8978 7.99999 20.2793 8.15802 20.5606 8.43933C20.8419 8.72063 21 9.10216 21 9.49999ZM24.775 21C21.4625 24.3 16.225 25.675 9.13747 25.1125C9.33747 26.5875 9.61247 28.15 9.97497 29.7875C10.0043 29.9156 10.0078 30.0483 9.98519 30.1778C9.96259 30.3073 9.91436 30.4309 9.84335 30.5415C9.77233 30.6521 9.67995 30.7474 9.57162 30.8219C9.46328 30.8963 9.34118 30.9484 9.21247 30.975L8.99997 31C8.77204 30.9995 8.55111 30.9212 8.3738 30.7779C8.19648 30.6347 8.07341 30.4352 8.02497 30.2125C7.61247 28.35 7.31247 26.575 7.09997 24.9C5.42497 24.6875 3.64997 24.375 1.78747 23.975C1.52723 23.9186 1.30003 23.7612 1.15586 23.5373C1.01169 23.3135 0.962363 23.0415 1.01872 22.7812C1.07508 22.521 1.23251 22.2938 1.45638 22.1496C1.68025 22.0055 1.95223 21.9561 2.21247 22.0125C3.84997 22.375 5.41247 22.6625 6.88747 22.8625C6.32497 15.775 7.69997 10.5375 11 7.22499C16.125 2.09999 24.225 3.36249 26.5875 3.87499C26.9654 3.9542 27.3121 4.1418 27.5851 4.41484C27.8582 4.68789 28.0458 5.03456 28.125 5.41249C28.6375 7.77499 29.9 15.875 24.775 21ZM26.175 5.83749C24.3 5.42499 18.3875 4.47499 14.0125 7.34999C14.1001 10.1434 15.249 12.7985 17.2252 14.7747C19.2015 16.751 21.8565 17.8998 24.65 17.9875C27.525 13.6125 26.575 7.69999 26.175 5.83749Z" fill="#1C1C1C"/>
</svg>
