<svg width="32" height="32" viewBox="0 0 32 32" fill="none" xmlns="http://www.w3.org/2000/svg">
<path d="M23 2H9.00001C8.46958 2 7.96087 2.21071 7.5858 2.58579C7.21072 2.96086 7.00001 3.46957 7.00001 4V9.6625C6.9963 10.0958 7.13704 10.5181 7.40001 10.8625L10 14.3375V28C10 28.5304 10.2107 29.0391 10.5858 29.4142C10.9609 29.7893 11.4696 30 12 30H20C20.5304 30 21.0392 29.7893 21.4142 29.4142C21.7893 29.0391 22 28.5304 22 28V14.3375L24.6 10.8625C24.863 10.5181 25.0037 10.0958 25 9.6625V4C25 3.46957 24.7893 2.96086 24.4142 2.58579C24.0392 2.21071 23.5304 2 23 2ZM17 19C17 19.2652 16.8947 19.5196 16.7071 19.7071C16.5196 19.8946 16.2652 20 16 20C15.7348 20 15.4804 19.8946 15.2929 19.7071C15.1054 19.5196 15 19.2652 15 19V15C15 14.7348 15.1054 14.4804 15.2929 14.2929C15.4804 14.1054 15.7348 14 16 14C16.2652 14 16.5196 14.1054 16.7071 14.2929C16.8947 14.4804 17 14.7348 17 15V19ZM9.00001 7V4H23V7H9.00001Z" fill="#1C1C1C"/>
</svg>
