<svg width="32" height="32" viewBox="0 0 32 32" fill="none" xmlns="http://www.w3.org/2000/svg">
<path d="M27.95 24.975L20 11.725V5H21C21.2652 5 21.5196 4.89464 21.7071 4.70711C21.8947 4.51957 22 4.26522 22 4C22 3.73478 21.8947 3.48043 21.7071 3.29289C21.5196 3.10536 21.2652 3 21 3H11C10.7348 3 10.4805 3.10536 10.2929 3.29289C10.1054 3.48043 10 3.73478 10 4C10 4.26522 10.1054 4.51957 10.2929 4.70711C10.4805 4.89464 10.7348 5 11 5H12V11.725L6.97502 20.0875C6.97502 20.1 6.96252 20.1125 6.96252 20.125L4.05002 24.975C3.86905 25.2782 3.77158 25.6239 3.76753 25.977C3.76347 26.3301 3.85298 26.678 4.02694 26.9853C4.2009 27.2926 4.45313 27.5484 4.75797 27.7266C5.06281 27.9048 5.40941 27.9991 5.76252 28H26.2375C26.5906 27.9991 26.9372 27.9048 27.2421 27.7266C27.5469 27.5484 27.7991 27.2926 27.9731 26.9853C28.1471 26.678 28.2366 26.3301 28.2325 25.977C28.2285 25.6239 28.131 25.2782 27.95 24.975ZM13.7125 12.75C13.8998 12.4408 13.9992 12.0865 14 11.725V5H18V11.725C18.0009 12.0865 18.1003 12.4408 18.2875 12.75L23.1375 20.85C21.5 21.7375 19.2125 21.4875 16.45 20.1C14.6625 19.2125 12.3625 18.4125 10.1625 18.675L13.7125 12.75Z" fill="#1C1C1C"/>
</svg>
