<svg width="32" height="32" viewBox="0 0 32 32" fill="none" xmlns="http://www.w3.org/2000/svg">
<path d="M31.3126 15.1625C31.1797 14.9312 31.0017 14.729 30.7891 14.5679C30.5765 14.4068 30.3337 14.2902 30.0751 14.225C28.936 13.9381 27.7541 13.8618 26.5876 14C26.8893 12.2943 26.7779 10.5412 26.2626 8.88749C26.1122 8.41709 25.792 8.01953 25.3645 7.77228C24.937 7.52502 24.4328 7.44578 23.9501 7.54999C22.7885 7.80724 21.6805 8.26401 20.6751 8.89999C19.8736 7.2117 18.6826 5.73792 17.2001 4.59999C16.8547 4.33841 16.4333 4.19684 16.0001 4.19684C15.5668 4.19684 15.1454 4.33841 14.8001 4.59999C13.3176 5.73792 12.1265 7.2117 11.3251 8.89999C10.3197 8.26401 9.21157 7.80724 8.05006 7.54999C7.56732 7.44578 7.06308 7.52502 6.63558 7.77228C6.20808 8.01953 5.88795 8.41709 5.73756 8.88749C5.22222 10.5412 5.11077 12.2943 5.41256 14C4.24606 13.8618 3.06413 13.9381 1.92506 14.225C1.66671 14.2901 1.42408 14.4064 1.2116 14.5672C0.999117 14.7279 0.821119 14.9297 0.688184 15.1606C0.555249 15.3915 0.470091 15.6467 0.437773 15.9112C0.405455 16.1756 0.426636 16.4439 0.500057 16.7C0.937557 18.275 2.28756 21.2875 6.38756 23.65C10.4876 26.0125 14.0626 26 15.9876 26H16.0126C17.9376 26 21.5376 26 25.6126 23.65C29.6876 21.3 31.0626 18.275 31.5001 16.7C31.5726 16.4441 31.5934 16.1764 31.5612 15.9124C31.529 15.6484 31.4445 15.3934 31.3126 15.1625ZM16.0001 6.19999C17.2001 7.09999 20.0001 9.74999 20.0001 15C20.0001 20.25 17.2001 22.9 16.0001 23.8C14.8001 22.9 12.0001 20.25 12.0001 15C12.0001 9.74999 14.8001 7.09999 16.0001 6.19999ZM2.41256 16.1625C3.18756 15.9625 4.40006 15.8125 5.96256 16.0875C6.27986 16.9961 6.68599 17.8711 7.17506 18.7C8.24692 20.552 9.65424 22.1882 11.3251 23.525C9.94437 23.172 8.61927 22.6293 7.38756 21.9125C3.91256 19.9 2.78756 17.4375 2.41256 16.1625ZM24.6126 21.9125C23.3808 22.6293 22.0557 23.172 20.6751 23.525C22.3459 22.1882 23.7532 20.552 24.8251 18.7C25.3141 17.8711 25.7203 16.9961 26.0376 16.0875C27.2083 15.8629 28.413 15.8842 29.5751 16.15C29.2126 17.4375 28.0876 19.9 24.6126 21.9125Z" fill="#1C1C1C"/>
</svg>
