<svg width="32" height="32" viewBox="0 0 32 32" fill="none" xmlns="http://www.w3.org/2000/svg">
<path d="M22.575 26.3751C22.6149 26.6365 22.551 26.9032 22.3968 27.1182C22.2426 27.3331 22.0105 27.4791 21.75 27.5251H21.5875C21.351 27.5228 21.1228 27.4378 20.9424 27.2848C20.762 27.1318 20.6409 26.9205 20.6 26.6876L20.1125 23.7501C20.0677 23.4882 20.1289 23.2192 20.2824 23.0024C20.436 22.7855 20.6693 22.6386 20.9312 22.5938C21.1932 22.5491 21.4621 22.6102 21.6789 22.7637C21.8958 22.9173 22.0427 23.1507 22.0875 23.4126L22.575 26.3751ZM16 23.0001C15.7348 23.0001 15.4804 23.1054 15.2929 23.293C15.1054 23.4805 15 23.7349 15 24.0001V28.0001C15 28.2653 15.1054 28.5196 15.2929 28.7072C15.4804 28.8947 15.7348 29.0001 16 29.0001C16.2652 29.0001 16.5196 28.8947 16.7071 28.7072C16.8946 28.5196 17 28.2653 17 28.0001V24.0001C17 23.7349 16.8946 23.4805 16.7071 23.293C16.5196 23.1054 16.2652 23.0001 16 23.0001ZM11.0625 22.6126C10.9335 22.5893 10.8012 22.5919 10.6733 22.6203C10.5453 22.6487 10.4243 22.7022 10.3172 22.7779C10.2102 22.8535 10.1193 22.9497 10.0498 23.0608C9.98032 23.1719 9.93364 23.2957 9.9125 23.4251L9.425 26.3751C9.38506 26.6365 9.44902 26.9032 9.60319 27.1182C9.75737 27.3331 9.98952 27.4791 10.25 27.5251H10.4125C10.649 27.5228 10.8772 27.4378 11.0576 27.2848C11.238 27.1318 11.3591 26.9205 11.4 26.6876L11.8875 23.7501C11.9272 23.4901 11.8629 23.2249 11.7085 23.012C11.554 22.7991 11.322 22.6556 11.0625 22.6126ZM31 14.0001C31 16.0251 29.325 17.8626 26.2875 19.1626C23.525 20.3501 19.875 21.0001 16 21.0001C12.125 21.0001 8.475 20.3501 5.7125 19.1626C2.675 17.8626 1 16.0251 1 14.0001C1 12.9501 1.4625 11.4001 3.65 9.93757C5.0625 8.98757 7.0125 8.21257 9.3 7.70007C9.93635 6.6939 10.7906 5.8435 11.7996 5.21164C12.8086 4.57978 13.9466 4.1826 15.1296 4.04942C16.3127 3.91623 17.5105 4.05045 18.6347 4.44216C19.759 4.83387 20.7809 5.47307 21.625 6.31257C22.0552 6.73536 22.4367 7.20495 22.7625 7.71257C27.925 8.88757 31 11.2126 31 14.0001ZM10 12.1001V12.4876C9.99749 12.7111 10.0719 12.9287 10.2107 13.1039C10.3495 13.2792 10.5443 13.4014 10.7625 13.4501C12.4824 13.8279 14.2391 14.0124 16 14.0001C17.7609 14.0124 19.5176 13.8279 21.2375 13.4501C21.4557 13.4014 21.6505 13.2792 21.7893 13.1039C21.9281 12.9287 22.0025 12.7111 22 12.4876V12.0001C22.0024 10.9756 21.7397 9.96796 21.2375 9.07507C20.9557 8.58641 20.6111 8.13676 20.2125 7.73757C19.6509 7.17521 18.9819 6.73158 18.2453 6.43308C17.5088 6.13458 16.7197 5.98733 15.925 6.00007C12.65 6.03757 10 8.77507 10 12.1001Z" fill="#1C1C1C"/>
</svg>
