<svg width="32" height="32" viewBox="0 0 32 32" fill="none" xmlns="http://www.w3.org/2000/svg">
<path d="M30.2375 13.8249C30.0499 13.57 29.8052 13.3626 29.523 13.2193C29.2408 13.076 28.929 13.0009 28.6125 12.9999H27V10.9999C27 10.4695 26.7893 9.96081 26.4142 9.58574C26.0391 9.21066 25.5304 8.99995 25 8.99995H16.3375L12.8625 6.39995C12.518 6.13698 12.0958 5.99624 11.6625 5.99995H4.99999C4.46956 5.99995 3.96085 6.21066 3.58577 6.58574C3.2107 6.96081 2.99999 7.46952 2.99999 7.99995V25.9999C2.99831 26.1317 3.02303 26.2625 3.07269 26.3846C3.12235 26.5067 3.19595 26.6176 3.28914 26.7108C3.38234 26.804 3.49324 26.8776 3.61533 26.9272C3.73741 26.9769 3.8682 27.0016 3.99999 26.9999H26C26.2106 27 26.4158 26.9335 26.5863 26.8101C26.7569 26.6866 26.8842 26.5125 26.95 26.3124L30.5125 15.6374C30.6114 15.3349 30.6381 15.0133 30.5904 14.6985C30.5426 14.3838 30.4217 14.0846 30.2375 13.8249ZM11.6625 7.99995L15.1375 10.5999C15.4819 10.8629 15.9042 11.0037 16.3375 10.9999H25V12.9999H8.72499C8.30539 12.999 7.89614 13.1301 7.55516 13.3746C7.21418 13.6192 6.95873 13.9647 6.82499 14.3624L4.99999 19.8374V7.99995H11.6625Z" fill="#1C1C1C"/>
</svg>
