<svg width="32" height="32" viewBox="0 0 32 32" fill="none" xmlns="http://www.w3.org/2000/svg">
<path d="M28.25 7.03757C28.1077 6.21758 27.7154 5.46162 27.1269 4.87314C26.5384 4.28465 25.7825 3.8924 24.9625 3.75007C21.0375 3.08757 13.6625 2.78757 8.225 8.22507C2.7875 13.6626 3.0875 21.0376 3.75 24.9626C3.89234 25.7825 4.28459 26.5385 4.87308 27.127C5.46156 27.7155 6.21752 28.1077 7.0375 28.2501C8.41326 28.4791 9.80532 28.5962 11.2 28.6001C15.0875 28.6001 19.925 27.6376 23.775 23.7751C29.2125 18.3376 28.9125 10.9626 28.25 7.03757ZM7.375 26.2751C6.96114 26.2091 6.57871 26.014 6.28237 25.7177C5.98603 25.4214 5.79095 25.0389 5.725 24.6251C5.50292 23.3621 5.39001 22.0824 5.3875 20.8001L11.2 26.6126C9.9177 26.6096 8.63802 26.4967 7.375 26.2751ZM20.7125 12.7126L18.825 14.5876L19.95 15.7126C20.137 15.9 20.242 16.154 20.242 16.4188C20.242 16.6836 20.137 16.9376 19.95 17.1251C19.758 17.3085 19.503 17.4114 19.2375 17.4126C18.9755 17.4121 18.7242 17.3089 18.5375 17.1251L17.4125 16.0001L16 17.4126L17.125 18.5376C17.312 18.725 17.417 18.979 17.417 19.2438C17.417 19.5086 17.312 19.7626 17.125 19.9501C17.0319 20.0437 16.9207 20.1175 16.7983 20.167C16.6758 20.2164 16.5445 20.2404 16.4125 20.2376C16.2824 20.2402 16.1531 20.216 16.0326 20.1665C15.9122 20.1171 15.8033 20.0434 15.7125 19.9501L14.5875 18.8251L12.7125 20.7126C12.5214 20.8974 12.2659 21.0007 12 21.0007C11.7341 21.0007 11.4786 20.8974 11.2875 20.7126C11.0997 20.523 10.9944 20.2669 10.9944 20.0001C10.9944 19.7332 11.0997 19.4772 11.2875 19.2876L13.175 17.4126L12.05 16.2876C11.8776 16.0973 11.785 15.8481 11.7914 15.5915C11.7977 15.3349 11.9024 15.0905 12.0839 14.909C12.2655 14.7275 12.5098 14.6227 12.7664 14.6164C13.0231 14.6101 13.2723 14.7027 13.4625 14.8751L14.5875 16.0001L16 14.5876L14.875 13.4626C14.7026 13.2723 14.61 13.0231 14.6164 12.7665C14.6227 12.5099 14.7274 12.2655 14.9089 12.084C15.0905 11.9025 15.3348 11.7977 15.5914 11.7914C15.8481 11.7851 16.0973 11.8777 16.2875 12.0501L17.4125 13.1751L19.2875 11.2876C19.4818 11.1281 19.7285 11.0466 19.9795 11.0589C20.2306 11.0713 20.4681 11.1765 20.6458 11.3543C20.8235 11.532 20.9288 11.7695 20.9411 12.0206C20.9535 12.2716 20.872 12.5183 20.7125 12.7126ZM20.8 5.38757C22.0823 5.39056 23.362 5.50347 24.625 5.72507C25.0389 5.79101 25.4213 5.98609 25.7176 6.28243C26.014 6.57877 26.2091 6.9612 26.275 7.37507C26.4971 8.63801 26.61 9.91774 26.6125 11.2001L20.8 5.38757Z" fill="#1C1C1C"/>
</svg>
