<svg width="32" height="32" viewBox="0 0 32 32" fill="none" xmlns="http://www.w3.org/2000/svg">
<path d="M28.5625 6.18751C28.4068 5.83347 28.1513 5.53255 27.8271 5.32162C27.5029 5.11068 27.1243 4.99892 26.7375 5.00001H5.2625C4.87586 5.00312 4.4983 5.11754 4.17498 5.32959C3.85166 5.54164 3.59627 5.84234 3.43936 6.19573C3.28245 6.54911 3.23066 6.94021 3.29018 7.32226C3.3497 7.7043 3.51802 8.06111 3.775 8.35001L12 17.3875V27.1375C11.9994 27.5003 12.0981 27.8563 12.2854 28.167C12.4727 28.4777 12.7414 28.7312 13.0625 28.9C13.3516 29.0528 13.673 29.1342 14 29.1375C14.3961 29.1376 14.7833 29.0202 15.1125 28.8L19.1125 26.125C19.3864 25.943 19.6109 25.6958 19.7658 25.4056C19.9207 25.1155 20.0012 24.7914 20 24.4625V17.3875L28.225 8.35001C28.4867 8.06215 28.6582 7.70381 28.7182 7.3194C28.7782 6.93499 28.7241 6.54143 28.5625 6.18751Z" fill="#1C1C1C"/>
</svg>
