<svg width="32" height="32" viewBox="0 0 32 32" fill="none" xmlns="http://www.w3.org/2000/svg">
<path d="M30.9375 22.7124H30.925L28.8875 12.1499C28.8875 12.1374 28.8875 12.1374 28.875 12.1249C28.5618 10.3967 27.652 8.83331 26.3043 7.70714C24.9565 6.58098 23.2563 5.96352 21.5 5.9624L10.5 5.9999C8.73548 5.99719 7.02669 6.61774 5.67509 7.75208C4.32348 8.88642 3.41592 10.4617 3.11251 12.1999V12.2249L1.07501 22.6999C0.970763 23.282 0.982592 23.8789 1.10982 24.4564C1.23704 25.0339 1.47715 25.5806 1.81634 26.065C2.15553 26.5494 2.58712 26.962 3.08629 27.279C3.58546 27.596 4.14237 27.8113 4.72501 27.9124C4.98026 27.9627 5.23984 27.9878 5.50001 27.9874C6.69353 27.9849 7.83827 27.5135 8.68751 26.6749L8.73751 26.6124L13.825 20.9874L18.1875 20.9624L23.2625 26.6249L23.325 26.6874C24.1681 27.5276 25.3097 27.9995 26.5 27.9999C26.7643 27.9997 27.028 27.9746 27.2875 27.9249C28.4611 27.7145 29.5038 27.0482 30.1877 26.0715C30.8716 25.0949 31.1412 23.8872 30.9375 22.7124ZM13 14.4999H12V15.4999C12 15.7651 11.8946 16.0195 11.7071 16.207C11.5196 16.3945 11.2652 16.4999 11 16.4999C10.7348 16.4999 10.4804 16.3945 10.2929 16.207C10.1054 16.0195 10 15.7651 10 15.4999V14.4999H9.00001C8.73479 14.4999 8.48044 14.3945 8.2929 14.207C8.10536 14.0195 8.00001 13.7651 8.00001 13.4999C8.00001 13.2347 8.10536 12.9803 8.2929 12.7928C8.48044 12.6053 8.73479 12.4999 9.00001 12.4999H10V11.4999C10 11.2347 10.1054 10.9803 10.2929 10.7928C10.4804 10.6053 10.7348 10.4999 11 10.4999C11.2652 10.4999 11.5196 10.6053 11.7071 10.7928C11.8946 10.9803 12 11.2347 12 11.4999V12.4999H13C13.2652 12.4999 13.5196 12.6053 13.7071 12.7928C13.8946 12.9803 14 13.2347 14 13.4999C14 13.7651 13.8946 14.0195 13.7071 14.207C13.5196 14.3945 13.2652 14.4999 13 14.4999ZM18 13.4999C18 13.2347 18.1054 12.9803 18.2929 12.7928C18.4804 12.6053 18.7348 12.4999 19 12.4999H23C23.2652 12.4999 23.5196 12.6053 23.7071 12.7928C23.8947 12.9803 24 13.2347 24 13.4999C24 13.7651 23.8947 14.0195 23.7071 14.207C23.5196 14.3945 23.2652 14.4999 23 14.4999H19C18.7348 14.4999 18.4804 14.3945 18.2929 14.207C18.1054 14.0195 18 13.7651 18 13.4999ZM26.9375 25.9624C26.5455 26.0312 26.1427 26.0059 25.7624 25.8885C25.3821 25.7712 25.0351 25.5651 24.75 25.2874L20.8625 20.9749H21.5C22.7758 20.9761 24.0308 20.6519 25.1463 20.0329C26.2618 19.4139 27.201 18.5206 27.875 17.4374L28.9625 23.0874C29.0716 23.7367 28.9201 24.4028 28.5409 24.9411C28.1618 25.4794 27.5856 25.8464 26.9375 25.9624Z" fill="#1C1C1C"/>
</svg>
