<svg width="32" height="32" viewBox="0 0 32 32" fill="none" xmlns="http://www.w3.org/2000/svg">
<path d="M29.35 18.8L27.4875 16.325C27.5 16.1 27.4875 15.8625 27.4875 15.6875L29.35 13.2C29.4426 13.0789 29.5056 12.9378 29.5338 12.7881C29.562 12.6383 29.5547 12.4839 29.5125 12.3375C29.1975 11.1851 28.7398 10.0765 28.15 9.03749C28.0739 8.9055 27.9693 8.79214 27.8439 8.70565C27.7185 8.61916 27.5754 8.56171 27.425 8.53749L24.3625 8.09999L23.9 7.63749L23.4625 4.57499C23.438 4.42623 23.3818 4.28448 23.2977 4.15937C23.2136 4.03427 23.1035 3.92875 22.975 3.84999C21.9305 3.26238 20.8181 2.80481 19.6625 2.48749C19.516 2.44527 19.3617 2.43798 19.2119 2.4662C19.0621 2.49442 18.921 2.55737 18.8 2.64999L16.325 4.49999H15.675L13.2 2.64999C13.0789 2.55737 12.9378 2.49442 12.7881 2.4662C12.6383 2.43798 12.4839 2.44527 12.3375 2.48749C11.1851 2.80251 10.0765 3.26022 9.03749 3.84999C8.9055 3.92608 8.79214 4.03063 8.70565 4.15605C8.61916 4.28146 8.56171 4.42458 8.53749 4.57499L8.09999 7.63749L7.63749 8.09999L4.57499 8.53749C4.42458 8.56171 4.28146 8.61916 4.15605 8.70565C4.03063 8.79214 3.92608 8.9055 3.84999 9.03749C3.26022 10.0765 2.80251 11.1851 2.48749 12.3375C2.44527 12.4839 2.43798 12.6383 2.4662 12.7881C2.49442 12.9378 2.55737 13.0789 2.64999 13.2L4.51249 15.675V16.3125L2.64999 18.8C2.55737 18.921 2.49442 19.0621 2.4662 19.2119C2.43798 19.3617 2.44527 19.516 2.48749 19.6625C2.80251 20.8149 3.26022 21.9235 3.84999 22.9625C3.92608 23.0945 4.03063 23.2078 4.15605 23.2943C4.28146 23.3808 4.42458 23.4383 4.57499 23.4625L7.63749 23.9L8.09999 24.3625L8.53749 27.425C8.56171 27.5754 8.61916 27.7185 8.70565 27.8439C8.79214 27.9693 8.9055 28.0739 9.03749 28.15C10.0765 28.7398 11.1851 29.1975 12.3375 29.5125C12.4228 29.5372 12.5112 29.5498 12.6 29.55C12.8168 29.5528 13.0282 29.4823 13.2 29.35L15.675 27.5H16.325L18.8 29.35C18.921 29.4426 19.0621 29.5056 19.2119 29.5338C19.3617 29.562 19.516 29.5547 19.6625 29.5125C20.8157 29.1997 21.9245 28.7419 22.9625 28.15C23.0945 28.0739 23.2078 27.9693 23.2943 27.8439C23.3808 27.7185 23.4383 27.5754 23.4625 27.425L23.9 24.35C24.05 24.2 24.225 24.0375 24.35 23.9L27.425 23.4625C27.5754 23.4383 27.7185 23.3808 27.8439 23.2943C27.9693 23.2078 28.0739 23.0945 28.15 22.9625C28.7398 21.9235 29.1975 20.8149 29.5125 19.6625C29.5547 19.516 29.562 19.3617 29.5338 19.2119C29.5056 19.0621 29.4426 18.921 29.35 18.8ZM16 21.5C14.9122 21.5 13.8488 21.1774 12.9443 20.5731C12.0399 19.9687 11.3349 19.1097 10.9186 18.1047C10.5024 17.0998 10.3934 15.9939 10.6057 14.927C10.8179 13.8601 11.3417 12.8801 12.1109 12.1109C12.8801 11.3417 13.8601 10.8179 14.927 10.6057C15.9939 10.3934 17.0998 10.5024 18.1047 10.9186C19.1097 11.3349 19.9687 12.0399 20.5731 12.9443C21.1774 13.8488 21.5 14.9122 21.5 16C21.5 17.4587 20.9205 18.8576 19.8891 19.8891C18.8576 20.9205 17.4587 21.5 16 21.5Z" fill="#1C1C1C"/>
</svg>
