<svg width="32" height="32" viewBox="0 0 32 32" fill="none" xmlns="http://www.w3.org/2000/svg">
<path d="M29.6876 13.0375C29.6565 12.8977 29.5958 12.7662 29.5095 12.6519C29.4233 12.5376 29.3135 12.4432 29.1876 12.375L26.2126 10.725C26.0542 10.4 25.8792 10.0875 25.6876 9.78748L25.7376 6.38748C25.7387 6.24487 25.7104 6.10355 25.6545 5.97236C25.5986 5.84117 25.5162 5.72291 25.4126 5.62498C23.9313 4.28193 22.1795 3.27177 20.2751 2.66248C20.1383 2.61983 19.994 2.6067 19.8518 2.62393C19.7096 2.64117 19.5727 2.68839 19.4501 2.76248L16.5376 4.51248C16.1751 4.49998 15.8251 4.49998 15.4626 4.51248L12.5501 2.76248C12.4274 2.68839 12.2905 2.64117 12.1483 2.62393C12.0061 2.6067 11.8618 2.61983 11.7251 2.66248C9.81813 3.27224 8.0656 4.28709 6.58755 5.63748C6.48298 5.73204 6.39987 5.84791 6.34381 5.97727C6.28775 6.10664 6.26005 6.24651 6.26255 6.38748L6.32505 9.78748C6.12505 10.0875 5.95005 10.4 5.77505 10.725L2.81255 12.375C2.68507 12.4411 2.57399 12.5349 2.48747 12.6496C2.40096 12.7642 2.34119 12.8967 2.31255 13.0375C1.88751 14.9896 1.88751 17.0103 2.31255 18.9625C2.3436 19.1023 2.40431 19.2338 2.49057 19.3481C2.57684 19.4623 2.68664 19.5568 2.81255 19.625L5.78755 21.275C5.94704 21.5984 6.12655 21.9115 6.32505 22.2125L6.26255 25.6125C6.26141 25.7551 6.28968 25.8964 6.3456 26.0276C6.40152 26.1588 6.48388 26.277 6.58755 26.375C8.0709 27.7152 9.82206 28.725 11.7251 29.3375C11.8618 29.3801 12.0061 29.3933 12.1483 29.376C12.2905 29.3588 12.4274 29.3116 12.5501 29.2375L15.4626 27.4875H16.5376L19.4626 29.2375C19.6146 29.3375 19.7931 29.3897 19.9751 29.3875C20.0767 29.3831 20.1775 29.3663 20.2751 29.3375C22.182 28.7277 23.9345 27.7129 25.4126 26.3625C25.5171 26.2679 25.6002 26.152 25.6563 26.0227C25.7124 25.8933 25.7401 25.7534 25.7376 25.6125L25.6876 22.2125C25.8751 21.9125 26.0501 21.6 26.2251 21.275L29.2001 19.625C29.3242 19.5561 29.4319 19.4612 29.5161 19.3469C29.6002 19.2326 29.6587 19.1015 29.6876 18.9625C30.1126 17.0103 30.1126 14.9896 29.6876 13.0375ZM21.5001 16C21.5001 17.0878 21.1775 18.1511 20.5731 19.0556C19.9688 19.9601 19.1098 20.665 18.1048 21.0813C17.0998 21.4976 15.994 21.6065 14.9271 21.3943C13.8602 21.1821 12.8802 20.6583 12.111 19.8891C11.3418 19.1199 10.818 18.1399 10.6057 17.073C10.3935 16.0061 10.5024 14.9002 10.9187 13.8952C11.335 12.8902 12.0399 12.0312 12.9444 11.4269C13.8489 10.8225 14.9123 10.5 16.0001 10.5C17.4587 10.5 18.8577 11.0794 19.8891 12.1109C20.9206 13.1423 21.5001 14.5413 21.5001 16Z" fill="#1C1C1C"/>
</svg>
