<svg width="32" height="32" viewBox="0 0 32 32" fill="none" xmlns="http://www.w3.org/2000/svg">
<path d="M26 2H21C20.7348 2 20.4804 2.10536 20.2929 2.29289C20.1054 2.48043 20 2.73478 20 3C20 3.26522 20.1054 3.51957 20.2929 3.70711C20.4804 3.89464 20.7348 4 21 4H23.5875L20.5375 7.05C19.53 6.18406 18.3336 5.56633 17.0442 5.24638C15.7548 4.92642 14.4083 4.91315 13.1129 5.20763C11.8175 5.50211 10.6091 6.09614 9.5847 6.94205C8.56033 7.78796 7.74851 8.86221 7.21436 10.0786C6.68021 11.295 6.43862 12.6196 6.50897 13.9463C6.57931 15.2729 6.95964 16.5646 7.61942 17.7176C8.27921 18.8707 9.20009 19.8531 10.3082 20.5859C11.4163 21.3188 12.6807 21.7817 14 21.9375V24.5H11C10.7348 24.5 10.4804 24.6054 10.2929 24.7929C10.1054 24.9804 10 25.2348 10 25.5C10 25.7652 10.1054 26.0196 10.2929 26.2071C10.4804 26.3946 10.7348 26.5 11 26.5H14V29C14 29.2652 14.1054 29.5196 14.2929 29.7071C14.4804 29.8946 14.7348 30 15 30C15.2652 30 15.5196 29.8946 15.7071 29.7071C15.8947 29.5196 16 29.2652 16 29V26.5H19C19.2652 26.5 19.5196 26.3946 19.7071 26.2071C19.8947 26.0196 20 25.7652 20 25.5C20 25.2348 19.8947 24.9804 19.7071 24.7929C19.5196 24.6054 19.2652 24.5 19 24.5H16V21.9375C17.471 21.7658 18.8714 21.2123 20.0622 20.3318C21.253 19.4514 22.1927 18.2747 22.7879 16.9187C23.3831 15.5626 23.6132 14.0744 23.4553 12.6019C23.2973 11.1295 22.7568 9.72394 21.8875 8.525L25 5.4125V8C25 8.26522 25.1054 8.51957 25.2929 8.70711C25.4804 8.89464 25.7348 9 26 9C26.2652 9 26.5196 8.89464 26.7071 8.70711C26.8947 8.51957 27 8.26522 27 8V3C27 2.73478 26.8947 2.48043 26.7071 2.29289C26.5196 2.10536 26.2652 2 26 2ZM15 20C13.7144 20 12.4577 19.6188 11.3888 18.9046C10.3199 18.1903 9.48676 17.1752 8.99479 15.9874C8.50282 14.7997 8.3741 13.4928 8.62491 12.2319C8.87571 10.971 9.49477 9.81285 10.4038 8.90381C11.3129 7.99476 12.471 7.3757 13.7319 7.1249C14.9928 6.87409 16.2997 7.00281 17.4875 7.49478C18.6752 7.98675 19.6903 8.81987 20.4046 9.88879C21.1188 10.9577 21.5 12.2144 21.5 13.5C21.5 15.2239 20.8152 16.8772 19.5962 18.0962C18.3772 19.3152 16.7239 20 15 20Z" fill="#1C1C1C"/>
</svg>
