<svg width="32" height="32" viewBox="0 0 32 32" fill="none" xmlns="http://www.w3.org/2000/svg">
<path d="M27 4H21C20.7348 4 20.4804 4.10536 20.2929 4.29289C20.1054 4.48043 20 4.73478 20 5C20 5.26522 20.1054 5.51957 20.2929 5.70711C20.4804 5.89464 20.7348 6 21 6H24.5875L19.325 11.2625C17.3387 9.63861 14.8043 8.84027 12.2459 9.0326C9.68753 9.22493 7.30093 10.3932 5.57976 12.2958C3.85858 14.1984 2.93451 16.6897 2.99868 19.2545C3.06284 21.8193 4.11033 24.2614 5.92448 26.0755C7.73863 27.8897 10.1807 28.9372 12.7455 29.0013C15.3103 29.0655 17.8016 28.1414 19.7042 26.4202C21.6068 24.6991 22.7751 22.3125 22.9674 19.7541C23.1597 17.1957 22.3614 14.6613 20.7375 12.675L26 7.4125V11C26 11.2652 26.1054 11.5196 26.2929 11.7071C26.4804 11.8946 26.7348 12 27 12C27.2652 12 27.5196 11.8946 27.7071 11.7071C27.8947 11.5196 28 11.2652 28 11V5C28 4.73478 27.8947 4.48043 27.7071 4.29289C27.5196 4.10536 27.2652 4 27 4ZM18.6625 24.6625C17.5431 25.7797 16.1176 26.5401 14.5662 26.8474C13.0147 27.1548 11.407 26.9955 9.94615 26.3895C8.48527 25.7835 7.23678 24.7581 6.35844 23.4429C5.48009 22.1277 5.0113 20.5816 5.0113 19C5.0113 17.4184 5.48009 15.8723 6.35844 14.5571C7.23678 13.2419 8.48527 12.2165 9.94615 11.6105C11.407 11.0045 13.0147 10.8452 14.5662 11.1526C16.1176 11.4599 17.5431 12.2203 18.6625 13.3375C20.1571 14.8431 20.9958 16.8785 20.9958 19C20.9958 21.1215 20.1571 23.1569 18.6625 24.6625Z" fill="#1C1C1C"/>
</svg>
