<svg width="32" height="32" viewBox="0 0 32 32" fill="none" xmlns="http://www.w3.org/2000/svg">
<path d="M27 4H21C20.7348 4 20.4804 4.10536 20.2929 4.29289C20.1053 4.48043 20 4.73478 20 5C20 5.26522 20.1053 5.51957 20.2929 5.70711C20.4804 5.89464 20.7348 6 21 6H24.5875L21 9.5875L18.7125 7.2875C18.5182 7.12804 18.2715 7.04655 18.0205 7.05888C17.7694 7.07121 17.5319 7.17648 17.3542 7.35421C17.1765 7.53195 17.0712 7.76944 17.0589 8.02049C17.0465 8.27154 17.128 8.5182 17.2875 8.7125L19.5875 11L17.6125 12.975C15.8107 11.5343 13.5256 10.8382 11.2265 11.0299C8.92752 11.2215 6.78918 12.2863 5.2508 14.0055C3.71242 15.7247 2.89081 17.9678 2.95477 20.2739C3.01872 22.58 3.96337 24.774 5.59466 26.4053C7.22595 28.0366 9.42001 28.9813 11.7261 29.0452C14.0322 29.1092 16.2753 28.2876 17.9945 26.7492C19.7136 25.2108 20.7784 23.0725 20.9701 20.7735C21.1618 18.4744 20.4657 16.1893 19.025 14.3875L21 12.4125L23.2875 14.7125C23.4786 14.8973 23.7341 15.0006 24 15.0006C24.2659 15.0006 24.5213 14.8973 24.7125 14.7125C24.9003 14.5229 25.0056 14.2668 25.0056 14C25.0056 13.7332 24.9003 13.4771 24.7125 13.2875L22.4125 11L26 7.4125V11C26 11.2652 26.1053 11.5196 26.2929 11.7071C26.4804 11.8946 26.7348 12 27 12C27.2652 12 27.5196 11.8946 27.7071 11.7071C27.8946 11.5196 28 11.2652 28 11V5C28 4.73478 27.8946 4.48043 27.7071 4.29289C27.5196 4.10536 27.2652 4 27 4ZM16.95 24.95C15.6356 26.2599 13.8556 26.9953 12 26.9953C10.1444 26.9953 8.36438 26.2599 7.04999 24.95C5.73716 23.6372 4.99963 21.8566 4.99963 20C4.99963 18.1434 5.73716 16.3628 7.04999 15.05C8.36281 13.7372 10.1434 12.9996 12 12.9996C13.8566 12.9996 15.6372 13.7372 16.95 15.05C17.6001 15.7 18.1158 16.4717 18.4676 17.3211C18.8194 18.1704 19.0005 19.0807 19.0005 20C19.0005 20.9193 18.8194 21.8296 18.4676 22.6789C18.1158 23.5283 17.6001 24.3 16.95 24.95Z" fill="#1C1C1C"/>
</svg>
