<svg width="32" height="32" viewBox="0 0 32 32" fill="none" xmlns="http://www.w3.org/2000/svg">
<path d="M29.7875 19.0625L26.375 6.25003C26.2951 5.93983 26.1179 5.66337 25.8695 5.46113C25.6211 5.25889 25.3144 5.14149 24.9944 5.12612C24.6745 5.11075 24.358 5.19822 24.0913 5.37572C23.8247 5.55322 23.6218 5.81142 23.5125 6.11253L20.9375 13H11.0625L8.4875 6.11253C8.37819 5.81142 8.17536 5.55322 7.90869 5.37572C7.64202 5.19822 7.32554 5.11075 7.00557 5.12612C6.6856 5.14149 6.37896 5.25889 6.13053 5.46113C5.88211 5.66337 5.70495 5.93983 5.625 6.25003L2.2125 19.0625C2.10822 19.4615 2.12903 19.8829 2.27211 20.2697C2.4152 20.6565 2.67365 20.99 3.0125 21.225L14.8625 29.425C15.1258 29.6094 15.4308 29.7254 15.75 29.7625H16.25C16.5693 29.7254 16.8742 29.6094 17.1375 29.425L28.9875 21.225C29.3264 20.99 29.5848 20.6565 29.7279 20.2697C29.871 19.8829 29.8918 19.4615 29.7875 19.0625ZM4.15 19.575L5.3625 15H9.6875L13.9375 26.3625L4.15 19.575ZM18.0625 26.3625L22.3125 15H26.6375L27.85 19.575L18.0625 26.3625Z" fill="#1C1C1C"/>
</svg>
