<svg width="32" height="32" viewBox="0 0 32 32" fill="none" xmlns="http://www.w3.org/2000/svg">
<path d="M28.9875 21.225L17.1375 29.425C16.8053 29.6613 16.4077 29.7883 16 29.7883C15.5923 29.7883 15.1947 29.6613 14.8625 29.425L3.0125 21.225C2.67365 20.99 2.4152 20.6565 2.27211 20.2697C2.12903 19.8829 2.10822 19.4615 2.2125 19.0625L5.625 6.25003C5.70495 5.93983 5.88211 5.66337 6.13053 5.46113C6.37896 5.25889 6.6856 5.14149 7.00557 5.12612C7.32554 5.11075 7.64202 5.19822 7.90869 5.37572C8.17536 5.55322 8.37819 5.81142 8.4875 6.11253L11.0625 13H20.9375L23.5125 6.11253C23.6218 5.81142 23.8247 5.55322 24.0913 5.37572C24.358 5.19822 24.6745 5.11075 24.9944 5.12612C25.3144 5.14149 25.6211 5.25889 25.8695 5.46113C26.1179 5.66337 26.2951 5.93983 26.375 6.25003L29.7875 19.0625C29.8918 19.4615 29.871 19.8829 29.7279 20.2697C29.5848 20.6565 29.3264 20.99 28.9875 21.225Z" fill="#1C1C1C"/>
</svg>
