<svg width="32" height="32" viewBox="0 0 32 32" fill="none" xmlns="http://www.w3.org/2000/svg">
<path d="M16 22C21.5228 22 26 17.5229 26 12C26 6.47718 21.5228 2.00003 16 2.00003C10.4772 2.00003 6 6.47718 6 12C6 17.5229 10.4772 22 16 22Z" fill="#1C1C1C"/>
<path d="M25.9 21.9C26.0724 21.7098 26.165 21.4606 26.1586 21.204C26.1523 20.9473 26.0476 20.703 25.8661 20.5215C25.6845 20.34 25.4402 20.2352 25.1836 20.2289C24.9269 20.2226 24.6777 20.3152 24.4875 20.4875C22.2365 22.7386 19.1834 24.0032 16 24.0032C12.8166 24.0032 9.76352 22.7386 7.51249 20.4875C5.26147 18.2365 3.99686 15.1835 3.99686 12C3.99686 8.8166 5.26147 5.76356 7.51249 3.51253C7.61288 3.42157 7.69374 3.31117 7.75016 3.18801C7.80659 3.06486 7.8374 2.93152 7.84074 2.7961C7.84407 2.66067 7.81986 2.52598 7.76956 2.4002C7.71927 2.27442 7.64394 2.16017 7.54815 2.06438C7.45236 1.96859 7.33811 1.89326 7.21233 1.84296C7.08654 1.79267 6.95185 1.76845 6.81643 1.77179C6.681 1.77512 6.54767 1.80594 6.42451 1.86236C6.30136 1.91879 6.19095 1.99965 6.09999 2.10003C4.20266 3.99782 2.89074 6.40093 2.32045 9.02318C1.75017 11.6454 1.94555 14.3764 2.88333 16.8907C3.82112 19.4051 5.46178 21.5969 7.60996 23.2053C9.75814 24.8137 12.3233 25.7707 15 25.9625V28H12C11.7348 28 11.4804 28.1054 11.2929 28.2929C11.1054 28.4805 11 28.7348 11 29C11 29.2652 11.1054 29.5196 11.2929 29.7071C11.4804 29.8947 11.7348 30 12 30H20C20.2652 30 20.5196 29.8947 20.7071 29.7071C20.8946 29.5196 21 29.2652 21 29C21 28.7348 20.8946 28.4805 20.7071 28.2929C20.5196 28.1054 20.2652 28 20 28H17V25.9625C20.3598 25.7272 23.521 24.2842 25.9 21.9Z" fill="#1C1C1C"/>
</svg>
