<svg width="32" height="32" viewBox="0 0 32 32" fill="none" xmlns="http://www.w3.org/2000/svg">
<path d="M27.7 21.6625C28.5595 19.8988 29.0042 17.9619 29 16C28.9961 13.1364 28.0487 10.354 26.3043 8.08309C24.5599 5.8122 22.1157 4.17946 19.35 3.43747H19.2875C17.2595 2.90354 15.1323 2.86913 13.0881 3.33719C11.0439 3.80524 9.14362 4.76181 7.55 6.12497L7.3875 6.27497C5.40872 8.02137 4.00896 10.3292 3.37464 12.891C2.74032 15.4529 2.90156 18.1472 3.83687 20.6151C4.77219 23.0831 6.43719 25.2075 8.61012 26.7054C10.7831 28.2034 13.3608 29.0037 16 29H16.3C18.6605 28.9416 20.9608 28.2434 22.9554 26.9797C24.95 25.716 26.564 23.9344 27.625 21.825L27.7 21.6625ZM27 16C26.9977 17.3096 26.765 18.6085 26.3125 19.8375L20.5125 16.275C20.2733 16.1246 20.0049 16.0266 19.725 15.9875L16.875 15.6125C16.5089 15.5651 16.1369 15.6194 15.7996 15.7693C15.4623 15.9192 15.1727 16.159 14.9625 16.4625H13.8875L13.4125 15.475C13.2794 15.2023 13.0868 14.963 12.8488 14.7747C12.6108 14.5865 12.3335 14.4541 12.0375 14.3875L11.2125 14.2125L11.525 13.475C11.6029 13.2939 11.7318 13.1396 11.8961 13.0308C12.0605 12.922 12.2529 12.8635 12.45 12.8625H14.4625C14.7992 12.861 15.1301 12.775 15.425 12.6125L16.95 11.7625C17.0846 11.6895 17.2104 11.6014 17.325 11.5L20.6875 8.44997C20.9802 8.19334 21.19 7.85546 21.2901 7.4793C21.3903 7.10313 21.3763 6.70568 21.25 6.33747C22.9889 7.28193 24.4409 8.67799 25.4529 10.3785C26.4648 12.0791 26.9993 14.0211 27 16ZM5 16C4.99715 14.2751 5.40416 12.5742 6.1875 11.0375L7.4875 14.525C7.60639 14.8373 7.8012 15.1152 8.05435 15.3334C8.3075 15.5517 8.61102 15.7034 8.9375 15.775L9.625 15.925H9.6375L11.1375 16.25C11.286 16.28 11.4254 16.3442 11.5447 16.4375C11.6641 16.5308 11.76 16.6506 11.825 16.7875L12.0875 17.3375C12.2529 17.6741 12.5091 17.9578 12.8271 18.1566C13.1452 18.3554 13.5124 18.4613 13.8875 18.4625H14.0375L13.075 20.6125C12.9124 20.9691 12.8588 21.3659 12.9211 21.7529C12.9834 22.1399 13.1587 22.4999 13.425 22.7875L15.4375 24.9625C15.5411 25.0783 15.6174 25.216 15.6607 25.3653C15.7039 25.5146 15.7131 25.6717 15.6875 25.825L15.4625 26.9875C12.6425 26.8465 9.98437 25.6277 8.03728 23.5829C6.09019 21.5381 5.00289 18.8235 5 16Z" fill="#1C1C1C"/>
</svg>
