<svg width="32" height="32" viewBox="0 0 32 32" fill="none" xmlns="http://www.w3.org/2000/svg">
<path d="M27.95 14.275L6.98748 2.26253C6.67854 2.0867 6.32876 1.99528 5.9733 1.99748C5.61784 1.99967 5.26922 2.09539 4.96248 2.27503C4.66193 2.44855 4.41241 2.6982 4.23905 2.99884C4.06569 3.29948 3.97461 3.64049 3.97498 3.98753V28.0125C3.97828 28.5408 4.19045 29.0463 4.56516 29.4187C4.93988 29.791 5.4467 30 5.97498 30C6.32915 29.9988 6.67732 29.9085 6.98748 29.7375L27.95 17.725C28.2605 17.5565 28.5199 17.3073 28.7006 17.0037C28.8813 16.7001 28.9766 16.3533 28.9766 16C28.9766 15.6467 28.8813 15.2999 28.7006 14.9963C28.5199 14.6927 28.2605 14.4435 27.95 14.275ZM18 17.4125L20.3625 19.775L9.33748 26.075L18 17.4125ZM9.33748 5.91253L20.3625 12.225L18 14.5875L9.33748 5.91253ZM22.15 18.7375L19.4125 16L22.15 13.2625L26.95 16L22.15 18.7375Z" fill="#1C1C1C"/>
</svg>
