<svg width="32" height="32" viewBox="0 0 32 32" fill="none" xmlns="http://www.w3.org/2000/svg">
<path d="M22.5 26.2C23.1926 25.897 23.8612 25.5418 24.5 25.1375V30C24.5 30.2652 24.3946 30.5196 24.2071 30.7071C24.0195 30.8947 23.7652 31 23.5 31C23.2348 31 22.9804 30.8947 22.7929 30.7071C22.6053 30.5196 22.5 30.2652 22.5 30V26.2ZM15.1125 11.525C14.9914 11.7613 14.9667 12.0354 15.0436 12.2896C15.1206 12.5437 15.2931 12.7581 15.525 12.8875L21.375 16L23.5 14.8625L16.475 11.1125C16.2387 10.9914 15.9646 10.9667 15.7104 11.0437C15.4563 11.1206 15.2419 11.2932 15.1125 11.525ZM31.475 11.1125L16.475 3.11252C16.3275 3.0388 16.1649 3.00043 16 3.00043C15.8351 3.00043 15.6725 3.0388 15.525 3.11252L0.524977 11.1125C0.365962 11.1998 0.233327 11.3283 0.140942 11.4844C0.0485576 11.6405 -0.000183105 11.8186 -0.000183105 12C-0.000183105 12.1814 0.0485576 12.3595 0.140942 12.5156C0.233327 12.6718 0.365962 12.8002 0.524977 12.8875L3.49998 14.4625V20.6875C3.4981 21.1167 3.63879 21.5344 3.89998 21.875C4.88748 23.2 8.68748 27.5 16 27.5C18.2343 27.5187 20.448 27.0717 22.5 26.1875V16.6L21.375 16L16 18.8625L4.97498 12.9875L3.12498 12L16 5.13752L28.875 12L27.025 12.9875L23.5 14.8625L23.975 15.1125C24.1441 15.2101 24.2826 15.353 24.375 15.525C24.4581 15.6694 24.5013 15.8334 24.5 16V25.1375C25.8813 24.2685 27.0997 23.1644 28.1 21.875C28.3612 21.5344 28.5019 21.1167 28.5 20.6875V14.4625L31.475 12.8875C31.634 12.8002 31.7666 12.6718 31.859 12.5156C31.9514 12.3595 32.0001 12.1814 32.0001 12C32.0001 11.8186 31.9514 11.6405 31.859 11.4844C31.7666 11.3283 31.634 11.1998 31.475 11.1125Z" fill="#1C1C1C"/>
</svg>
