<svg width="32" height="32" viewBox="0 0 32 32" fill="none" xmlns="http://www.w3.org/2000/svg">
<path d="M25.6875 12.5125L23.5625 8.83749C23.3836 8.52389 23.1445 8.24877 22.8589 8.02797C22.5732 7.80716 22.2467 7.64504 21.8982 7.55093C21.5496 7.45682 21.1859 7.43259 20.828 7.47963C20.47 7.52666 20.1249 7.64404 19.8125 7.82499C19.2554 8.14173 18.8298 8.64711 18.6125 9.24999L16.4125 5.46249C16.2336 5.14889 15.9945 4.87377 15.7089 4.65297C15.4232 4.43216 15.0967 4.27004 14.7482 4.17593C14.3996 4.08182 14.0359 4.05759 13.678 4.10463C13.32 4.15166 12.9749 4.26904 12.6625 4.44999C12.1054 4.76673 11.6798 5.27211 11.4625 5.87499C11.0809 5.27687 10.4839 4.84848 9.79505 4.6786C9.10622 4.50872 8.37843 4.61038 7.76251 4.96249C7.44997 5.14374 7.1764 5.38506 6.95757 5.67254C6.73874 5.96002 6.57899 6.28797 6.48751 6.63749C6.37788 7.02818 6.36076 7.43904 6.43751 7.83749C5.94928 7.87487 5.47541 8.02002 5.05001 8.26249C4.3036 8.69621 3.75951 9.40808 3.53694 10.2422C3.31436 11.0763 3.43143 11.9646 3.86251 12.7125L4.11251 13.1375C3.68362 13.1873 3.27027 13.3279 2.90001 13.55C2.15446 13.9813 1.61061 14.6909 1.38795 15.523C1.16528 16.355 1.28202 17.2415 1.71251 17.9875L6.33751 26C7.32579 27.7146 8.80061 29.0974 10.5752 29.9734C12.3499 30.8493 14.3445 31.179 16.3066 30.9207C18.2687 30.6624 20.1101 29.8277 21.5976 28.5223C23.085 27.2169 24.1517 25.4995 24.6625 23.5875L24.7 23.425C25.963 21.9264 26.7351 20.076 26.9117 18.1242C27.0883 16.1724 26.661 14.2134 25.6875 12.5125ZM22.725 23.075C22.4569 24.0901 21.9895 25.0417 21.35 25.8744C20.7105 26.7071 19.9116 27.4041 19 27.925C17.1632 28.9851 14.9806 29.2725 12.932 28.724C10.8834 28.1755 9.1364 26.8361 8.07501 25L3.45001 16.9875C3.32554 16.7738 3.26726 16.528 3.28255 16.2811C3.29783 16.0343 3.38599 15.7975 3.53587 15.6008C3.68575 15.4041 3.89061 15.2563 4.12454 15.176C4.35846 15.0958 4.61094 15.0867 4.85001 15.15C5.17058 15.2399 5.44386 15.4504 5.61251 15.7375L8.61251 20.9375C8.70184 21.0873 8.82794 21.2119 8.97888 21.2994C9.12981 21.3869 9.30058 21.4344 9.47501 21.4375C9.65025 21.4369 9.82225 21.3902 9.97378 21.3022C10.1253 21.2142 10.251 21.0879 10.3384 20.936C10.4257 20.7841 10.4716 20.6119 10.4715 20.4366C10.4713 20.2614 10.4251 20.0893 10.3375 19.9375L5.58751 11.7125C5.42175 11.4241 5.37736 11.0816 5.46409 10.7605C5.55083 10.4393 5.76159 10.1658 6.05001 9.99999C6.33843 9.83423 6.68089 9.78984 7.00205 9.87657C7.3232 9.96331 7.59675 10.1741 7.76251 10.4625L12.5125 18.6875C12.5721 18.8118 12.6569 18.9225 12.7613 19.0125C12.8658 19.1025 12.9877 19.17 13.1195 19.2106C13.2513 19.2513 13.39 19.2642 13.5271 19.2486C13.6641 19.2331 13.7964 19.1893 13.9157 19.1202C14.035 19.051 14.1387 18.9579 14.2203 18.8468C14.3019 18.7356 14.3596 18.6087 14.3898 18.4742C14.4201 18.3396 14.4221 18.2003 14.3959 18.0649C14.3697 17.9295 14.3158 17.801 14.2375 17.6875L10.4875 11.1875C10.3239 10.8986 10.2808 10.5569 10.3673 10.2363C10.4539 9.91581 10.6632 9.64229 10.95 9.47499C11.237 9.31203 11.5769 9.26919 11.8953 9.35584C12.2138 9.44249 12.4851 9.65158 12.65 9.93749L17.9 19.0375C17.9904 19.1891 18.1185 19.3149 18.2718 19.4025C18.4251 19.4901 18.5984 19.5366 18.775 19.5375C18.9504 19.5331 19.1221 19.4859 19.275 19.4C19.5031 19.2668 19.6693 19.0488 19.7372 18.7935C19.8051 18.5382 19.7693 18.2664 19.6375 18.0375L17.6375 14.5625C17.4734 14.2789 17.4284 13.9417 17.5125 13.625C17.5525 13.4642 17.6253 13.3135 17.7265 13.1823C17.8276 13.051 17.9548 12.9422 18.1 12.8625C18.2391 12.7778 18.3942 12.723 18.5556 12.7015C18.717 12.68 18.8811 12.6922 19.0375 12.7375C19.1966 12.7774 19.3461 12.8489 19.4771 12.9476C19.6081 13.0464 19.7179 13.1705 19.8 13.3125L21.925 17C22.4542 17.9091 22.7975 18.9143 22.9348 19.9572C23.0722 21.0001 23.0009 22.0599 22.725 23.075ZM20.625 3.08749L21.1375 1.14999C21.1712 1.02277 21.2295 0.903431 21.3093 0.798774C21.3891 0.694118 21.4887 0.606199 21.6024 0.540037C21.7162 0.473875 21.8419 0.430767 21.9723 0.413172C22.1027 0.395578 22.2353 0.403842 22.3625 0.437493C22.4897 0.471144 22.6091 0.529523 22.7137 0.609297C22.8184 0.689071 22.9063 0.788678 22.9725 0.902429C23.0386 1.01618 23.0817 1.14185 23.0993 1.27226C23.1169 1.40267 23.1087 1.53527 23.075 1.66249L22.55 3.59999C22.4944 3.81244 22.3696 4.0003 22.1953 4.13387C22.021 4.26743 21.8071 4.33909 21.5875 4.33749L21.325 4.31249C21.0701 4.24233 20.8533 4.07405 20.7221 3.84449C20.591 3.61492 20.556 3.34274 20.625 3.08749ZM23.9125 4.23749L25.0625 2.59999C25.2162 2.38268 25.4492 2.23461 25.7112 2.18782C25.9732 2.14103 26.2431 2.19929 26.4625 2.34999C26.5705 2.42597 26.6623 2.52257 26.7327 2.63422C26.8032 2.74587 26.8508 2.87037 26.8729 3.00052C26.895 3.13067 26.8911 3.26391 26.8614 3.39254C26.8317 3.52118 26.7769 3.64266 26.7 3.74999L25.55 5.38749C25.4752 5.49504 25.3797 5.58662 25.2691 5.6569C25.1586 5.72718 25.0351 5.77476 24.906 5.79686C24.7769 5.81897 24.6446 5.81516 24.517 5.78565C24.3893 5.75614 24.2688 5.70153 24.1625 5.62499C23.946 5.47362 23.7982 5.24275 23.7514 4.98279C23.7046 4.72283 23.7625 4.4549 23.9125 4.23749ZM29.4 6.93749L27.7625 8.08749C27.5914 8.19931 27.3919 8.26002 27.1875 8.26249C26.9765 8.26082 26.7714 8.19244 26.6016 8.06715C26.4319 7.94185 26.3061 7.76605 26.2422 7.56491C26.1784 7.36378 26.1799 7.14761 26.2464 6.94735C26.3129 6.74709 26.4411 6.573 26.6125 6.44999L28.25 5.29999C28.3573 5.22313 28.4788 5.16828 28.6075 5.13861C28.7361 5.10894 28.8693 5.10503 28.9995 5.12711C29.1296 5.14919 29.2541 5.19682 29.3658 5.26726C29.4774 5.33769 29.574 5.42954 29.65 5.53749C29.8007 5.75687 29.859 6.02677 29.8122 6.28877C29.7654 6.55078 29.6173 6.78383 29.4 6.93749Z" fill="#1C1C1C"/>
</svg>
