<svg width="32" height="32" viewBox="0 0 32 32" fill="none" xmlns="http://www.w3.org/2000/svg">
<path d="M29.8749 25.775L28.0874 9.77498C28.0348 9.28551 27.8024 8.83299 27.4352 8.50506C27.068 8.17714 26.5922 7.99716 26.0999 7.99998H21.9124C21.6718 6.60634 20.9466 5.3425 19.8648 4.43151C18.783 3.52051 17.4142 3.02094 15.9999 3.02094C14.5857 3.02094 13.2169 3.52051 12.1351 4.43151C11.0533 5.3425 10.3281 6.60634 10.0874 7.99998H5.89994C5.40765 7.99716 4.93184 8.17714 4.56466 8.50506C4.19748 8.83299 3.96507 9.28551 3.91244 9.77498L2.12494 25.775C2.09467 26.0559 2.12351 26.34 2.20962 26.6091C2.29573 26.8782 2.4372 27.1263 2.62494 27.3375C2.81205 27.5467 3.04134 27.7139 3.29773 27.8281C3.55411 27.9423 3.83178 28.0008 4.11244 28H27.8874C28.1681 28.0008 28.4458 27.9423 28.7022 27.8281C28.9585 27.7139 29.1878 27.5467 29.3749 27.3375C29.5627 27.1263 29.7041 26.8782 29.7903 26.6091C29.8764 26.34 29.9052 26.0559 29.8749 25.775ZM15.9999 4.99998C16.8865 5.00167 17.7476 5.29695 18.4486 5.8397C19.1497 6.38244 19.6512 7.14209 19.8749 7.99998H12.1249C12.3487 7.14209 12.8502 6.38244 13.5513 5.8397C14.2523 5.29695 15.1134 5.00167 15.9999 4.99998Z" fill="#1C1C1C"/>
</svg>
