<svg width="32" height="32" viewBox="0 0 32 32" fill="none" xmlns="http://www.w3.org/2000/svg">
<path d="M14.975 26.85C14.9197 27.067 14.794 27.2596 14.6176 27.3976C14.4412 27.5356 14.224 27.6112 14 27.6125C13.9194 27.6122 13.8393 27.5996 13.7625 27.575L9.98752 26.6375C9.68132 26.5602 9.39831 26.4101 9.16252 26.2L6.35002 23.75C6.25153 23.6647 6.17081 23.5607 6.11248 23.4442C6.05415 23.3276 6.01935 23.2007 6.01007 23.0707C6.00078 22.9407 6.01719 22.8102 6.05836 22.6865C6.09953 22.5628 6.16466 22.4485 6.25002 22.35C6.33538 22.2515 6.4393 22.1708 6.55585 22.1125C6.6724 22.0541 6.7993 22.0193 6.92931 22.0101C7.05931 22.0008 7.18987 22.0172 7.31353 22.0584C7.43719 22.0995 7.55153 22.1647 7.65002 22.25L10.475 24.7L14.2375 25.6375C14.4948 25.7026 14.7163 25.8662 14.8542 26.0929C14.9922 26.3197 15.0356 26.5916 14.975 26.85ZM31.55 14.95C31.4678 15.2018 31.3358 15.4344 31.1619 15.6341C30.9879 15.8338 30.7756 15.9965 30.5375 16.1125L27.625 17.575L25.7625 19.7625H25.7375C25.7375 19.775 25.725 19.775 25.725 19.7875H25.7125L21.1125 24.3875C20.7313 24.7601 20.2206 24.9707 19.6875 24.975C19.5272 24.9735 19.3677 24.9525 19.2125 24.9125L11.9625 23.125C11.6888 23.0611 11.4326 22.9373 11.2125 22.7625L4.46252 17.4875L1.46252 15.9875C0.983307 15.7446 0.619409 15.3223 0.450017 14.8125C0.369936 14.5599 0.340852 14.2939 0.364457 14.03C0.388061 13.766 0.463883 13.5094 0.587517 13.275L3.66252 7.38751C3.90552 6.9242 4.3194 6.57373 4.81643 6.41039C5.31345 6.24705 5.85454 6.28368 6.32502 6.51251L9.12502 7.91251L15.2125 6.13751C15.6689 6.01316 16.154 6.04845 16.5875 6.23751L20.7125 8.11251H22.7625L25.675 6.65001C26.1434 6.41696 26.6845 6.37674 27.1823 6.53797C27.68 6.69921 28.0947 7.04906 28.3375 7.51251L31.4125 13.4C31.5365 13.6365 31.6125 13.8953 31.6361 14.1613C31.6597 14.4273 31.6304 14.6953 31.55 14.95ZM23.4625 19.225L19.5125 16.35L18.5 17.1125C17.6329 17.7578 16.5809 18.1063 15.5 18.1063C14.4192 18.1063 13.3671 17.7578 12.5 17.1125L11.825 16.6C11.5944 16.4292 11.4035 16.2105 11.2655 15.959C11.1274 15.7074 11.0455 15.4289 11.0253 15.1427C11.0051 14.8564 11.0471 14.5692 11.1485 14.3008C11.2499 14.0323 11.4082 13.789 11.6125 13.5875L16.5 8.68751L16.725 8.50001L15.7625 8.06251L9.67502 9.83751L6.27502 16.3625L12.45 21.1875L19.6875 23L23.4625 19.225ZM25.8 16.6375L22.4 10.1125H17.9125L13.025 15L13.7 15.5125C14.2217 15.8963 14.8524 16.1033 15.5 16.1033C16.1477 16.1033 16.7783 15.8963 17.3 15.5125L18.9 14.3125C19.0706 14.1838 19.278 14.1131 19.4917 14.1109C19.7054 14.1086 19.9142 14.1749 20.0875 14.3L24.8375 17.75L25.8 16.6375Z" fill="#1C1C1C"/>
</svg>
