<svg width="32" height="32" viewBox="0 0 32 32" fill="none" xmlns="http://www.w3.org/2000/svg">
<path d="M28.075 6.48761C27.3972 5.72695 26.5704 5.11365 25.6458 4.68575C24.7212 4.25785 23.7185 4.02448 22.7 4.00011C21.6824 3.9778 20.6707 4.16116 19.7256 4.53919C18.7806 4.91722 17.9215 5.48214 17.2 6.20011L16 7.38761L15.0625 6.46261C12.15 3.53761 7.4 3.28761 4.4875 5.92511C3.72953 6.60507 3.11822 7.4325 2.69094 8.35678C2.26367 9.28107 2.02942 10.2828 2.00251 11.3007C1.9756 12.3186 2.1566 13.3313 2.53444 14.2769C2.91227 15.2225 3.47901 16.081 4.2 16.8001L14.5875 27.1876C14.7723 27.3743 14.9923 27.5225 15.2347 27.6237C15.4772 27.7248 15.7373 27.7769 16 27.7769C16.2627 27.7769 16.5228 27.7248 16.7652 27.6237C17.0077 27.5225 17.2277 27.3743 17.4125 27.1876L27.5375 17.0626C30.4625 14.1501 30.7 9.40011 28.075 6.48761Z" fill="#1C1C1C"/>
</svg>
