<svg width="32" height="32" viewBox="0 0 32 32" fill="none" xmlns="http://www.w3.org/2000/svg">
<path d="M29.9 11.8751C29.7727 13.8348 28.9323 15.6801 27.5375 17.0626L17.4125 27.1876C17.2277 27.3743 17.0077 27.5225 16.7652 27.6237C16.5228 27.7248 16.2627 27.7769 16 27.7769C15.7373 27.7769 15.4772 27.7248 15.2347 27.6237C14.9923 27.5225 14.7723 27.3743 14.5875 27.1876L4.2 16.8001C3.47901 16.081 2.91227 15.2225 2.53444 14.2769C2.1566 13.3313 1.9756 12.3186 2.00251 11.3007C2.02942 10.2828 2.26367 9.28107 2.69094 8.35678C3.11822 7.43249 3.72953 6.60507 4.4875 5.9251C5.21489 5.27158 6.06758 4.7728 6.99374 4.45906C7.91989 4.14533 8.90017 4.0232 9.875 4.1001C11.4008 4.20093 12.8663 4.73423 14.1 5.6376C14.1594 5.67983 14.2089 5.73452 14.2449 5.79787C14.281 5.86121 14.3027 5.93167 14.3087 6.00431C14.3146 6.07695 14.3046 6.15001 14.2794 6.21838C14.2541 6.28675 14.2142 6.34877 14.1625 6.4001L11.8625 8.7001C11.6755 8.88757 11.5705 9.14156 11.5705 9.40635C11.5705 9.67115 11.6755 9.92514 11.8625 10.1126L16.1625 14.4001L14.2875 16.2876C14.1934 16.3796 14.1186 16.4894 14.0675 16.6107C14.0165 16.732 13.9902 16.8623 13.9902 16.9939C13.9902 17.1254 14.0165 17.2557 14.0675 17.377C14.1186 17.4983 14.1934 17.6081 14.2875 17.7001C14.4742 17.8839 14.7255 17.9872 14.9875 17.9876C15.253 17.9865 15.508 17.8836 15.7 17.7001L18.2875 15.1126C18.4745 14.9251 18.5795 14.6712 18.5795 14.4064C18.5795 14.1416 18.4745 13.8876 18.2875 13.7001L13.9875 9.4001L16.7 6.7001L17.2 6.2001C17.9191 5.47912 18.7776 4.91238 19.7232 4.53454C20.6688 4.1567 21.6815 3.9757 22.6994 4.00262C23.7173 4.02953 24.719 4.26378 25.6433 4.69105C26.5676 5.11832 27.395 5.72963 28.075 6.4876C28.7285 7.215 29.2273 8.06769 29.541 8.99384C29.8548 9.92 29.9769 10.9003 29.9 11.8751Z" fill="#1C1C1C"/>
</svg>
