<svg width="32" height="32" viewBox="0 0 32 32" fill="none" xmlns="http://www.w3.org/2000/svg">
<path d="M29.5 11.5001C29.5 15.3251 27.2875 19.2501 22.925 23.1751C20.944 24.956 18.7871 26.5307 16.4875 27.8751C16.3381 27.9572 16.1704 28.0002 16 28.0002C15.8296 28.0002 15.6619 27.9572 15.5125 27.8751C14.975 27.5751 2.5 20.4876 2.5 11.5001C2.49919 10.1547 2.86033 8.83379 3.54555 7.67591C4.23077 6.51803 5.21485 5.5658 6.39464 4.91903C7.57443 4.27226 8.90647 3.95476 10.2512 3.99981C11.5958 4.04487 12.9037 4.45082 14.0375 5.17512C14.0999 5.21616 14.1523 5.27066 14.1909 5.33461C14.2294 5.39856 14.2532 5.47034 14.2604 5.54468C14.2676 5.61901 14.258 5.69401 14.2324 5.76417C14.2068 5.83433 14.1659 5.89787 14.1125 5.95012L11.8625 8.20012C11.6755 8.38758 11.5705 8.64157 11.5705 8.90637C11.5705 9.17116 11.6755 9.42515 11.8625 9.61262L16.1625 13.9001L14.2875 15.7876C14.1934 15.8796 14.1186 15.9894 14.0676 16.1107C14.0165 16.232 13.9902 16.3623 13.9902 16.4939C13.9902 16.6255 14.0165 16.7557 14.0676 16.877C14.1186 16.9983 14.1934 17.1081 14.2875 17.2001C14.4742 17.3839 14.7255 17.4872 14.9875 17.4876C15.253 17.4865 15.508 17.3836 15.7 17.2001L18.2875 14.6126C18.4745 14.4252 18.5795 14.1712 18.5795 13.9064C18.5795 13.6416 18.4745 13.3876 18.2875 13.2001L13.9875 8.90012L16.7 6.20012C17.3929 5.49957 18.2184 4.94418 19.1285 4.56643C20.0385 4.18869 21.0147 3.99616 22 4.00012C23.9891 4.00012 25.8968 4.79029 27.3033 6.19682C28.7098 7.60334 29.5 9.51099 29.5 11.5001Z" fill="#1C1C1C"/>
</svg>
