<svg width="32" height="32" viewBox="0 0 32 32" fill="none" xmlns="http://www.w3.org/2000/svg">
<path d="M25.1875 6.81249C23.9822 5.60381 22.5502 4.64484 20.9737 3.99052C19.3971 3.3362 17.7069 2.99939 16 2.99939C14.293 2.99939 12.6029 3.3362 11.0263 3.99052C9.44975 4.64484 8.0178 5.60381 6.81249 6.81249C5.60381 8.0178 4.64484 9.44975 3.99052 11.0263C3.3362 12.6029 2.99939 14.293 2.99939 16C2.99939 17.7069 3.3362 19.3971 3.99052 20.9737C4.64484 22.5502 5.60381 23.9822 6.81249 25.1875C8.0178 26.3962 9.44975 27.3551 11.0263 28.0095C12.6029 28.6638 14.293 29.0006 16 29.0006C17.7069 29.0006 19.3971 28.6638 20.9737 28.0095C22.5502 27.3551 23.9822 26.3962 25.1875 25.1875C26.3962 23.9822 27.3551 22.5502 28.0095 20.9737C28.6638 19.3971 29.0006 17.7069 29.0006 16C29.0006 14.293 28.6638 12.6029 28.0095 11.0263C27.3551 9.44975 26.3962 8.0178 25.1875 6.81249ZM12 26.25V19H20V26.25C17.4271 27.2504 14.5728 27.2504 12 26.25ZM23.775 23.775C23.2362 24.3196 22.6412 24.8057 22 25.225V19C22 18.4696 21.7893 17.9608 21.4142 17.5858C21.0391 17.2107 20.5304 17 20 17V8.99999C20.001 8.82934 19.9578 8.66134 19.8745 8.51237C19.7913 8.3634 19.6709 8.23855 19.525 8.14999C19.3803 8.05903 19.2147 8.00667 19.044 7.99792C18.8733 7.98917 18.7032 8.02431 18.55 8.09999L12.55 11.1C12.3854 11.1861 12.2472 11.3153 12.1503 11.4738C12.0535 11.6323 12.0015 11.8142 12 12V17C11.4696 17 10.9608 17.2107 10.5858 17.5858C10.2107 17.9608 9.99999 18.4696 9.99999 19V25.225C8.46967 24.2197 7.21212 22.8511 6.33964 21.2414C5.46716 19.6317 5.00691 17.8309 4.99999 16C4.99894 14.1906 5.44427 12.4088 6.2965 10.8127C7.14873 9.21653 8.38154 7.85525 9.88569 6.8495C11.3898 5.84374 13.1189 5.22456 14.9195 5.04683C16.7202 4.8691 18.5369 5.13832 20.2086 5.83061C21.8804 6.5229 23.3555 7.6169 24.5034 9.01564C25.6512 10.4144 26.4363 12.0747 26.789 13.8494C27.1417 15.6241 27.0512 17.4584 26.5254 19.1898C25.9997 20.9211 25.055 22.4961 23.775 23.775Z" fill="#1C1C1C"/>
</svg>
