<svg width="32" height="32" viewBox="0 0 32 32" fill="none" xmlns="http://www.w3.org/2000/svg">
<path d="M25.2625 6.87508C24.056 5.64284 22.6147 4.66502 21.0237 3.99945C19.4328 3.33387 17.7245 2.99405 16 3.00008H15C14.7348 3.00008 14.4804 3.10544 14.2929 3.29297C14.1054 3.48051 14 3.73486 14 4.00008V7.43758L1.475 15.1501C1.35975 15.2222 1.26041 15.317 1.18304 15.4287C1.10567 15.5405 1.05189 15.6668 1.025 15.8001C0.994528 15.9353 0.993263 16.0756 1.02128 16.2114C1.04931 16.3472 1.10597 16.4754 1.1875 16.5876L2.9125 18.9751C3.3461 19.585 3.94405 20.0592 4.63672 20.3425C5.32938 20.6257 6.08826 20.7064 6.825 20.5751C8.5375 20.2876 11.65 20.0501 14.525 21.3501L11.25 25.9251C10.3127 25.4711 9.44206 24.8907 8.6625 24.2001C8.56484 24.1122 8.45083 24.0445 8.32698 24.0007C8.20314 23.9569 8.07188 23.938 7.94071 23.945C7.80954 23.9519 7.68103 23.9847 7.56251 24.0413C7.444 24.0979 7.3378 24.1774 7.25 24.2751C7.16291 24.3735 7.09609 24.4882 7.05335 24.6125C7.01061 24.7368 6.99279 24.8683 7.00092 24.9995C7.00904 25.1307 7.04295 25.259 7.10071 25.377C7.15846 25.4951 7.23892 25.6006 7.3375 25.6876C9.71642 27.8243 12.8024 29.0044 16 29.0001H16.2625C18.8035 28.9499 21.2741 28.156 23.3686 26.7165C25.4632 25.277 27.0899 23.2552 28.0476 20.901C29.0052 18.5468 29.2518 15.9635 28.7568 13.4707C28.2618 10.9779 27.0469 8.68479 25.2625 6.87508ZM15.5 14.0001C15.2033 14.0001 14.9133 13.9121 14.6666 13.7473C14.42 13.5825 14.2277 13.3482 14.1142 13.0741C14.0006 12.8 13.9709 12.4984 14.0288 12.2074C14.0867 11.9165 14.2296 11.6492 14.4393 11.4394C14.6491 11.2296 14.9164 11.0868 15.2074 11.0289C15.4983 10.971 15.7999 11.0007 16.074 11.1143C16.3481 11.2278 16.5824 11.4201 16.7472 11.6667C16.912 11.9134 17 12.2034 17 12.5001C17 12.8979 16.842 13.2794 16.5607 13.5607C16.2794 13.842 15.8978 14.0001 15.5 14.0001Z" fill="#1C1C1C"/>
</svg>
