<svg width="32" height="32" viewBox="0 0 32 32" fill="none" xmlns="http://www.w3.org/2000/svg">
<path d="M17.4125 16L21.7125 11.7125L26 7.4125C26.279 7.13281 26.4689 6.77675 26.5458 6.38924C26.6227 6.00173 26.5831 5.60012 26.432 5.23509C26.2809 4.87006 26.0251 4.55796 25.6968 4.33815C25.3686 4.11834 24.9825 4.00068 24.5875 4H7.41247C7.01741 4.00068 6.63139 4.11834 6.30312 4.33815C5.97485 4.55796 5.71904 4.87006 5.56794 5.23509C5.41685 5.60012 5.37725 6.00173 5.45414 6.38924C5.53103 6.77675 5.72096 7.13281 5.99997 7.4125L14.5875 16L5.99997 24.5875C5.72096 24.8672 5.53103 25.2233 5.45414 25.6108C5.37725 25.9983 5.41685 26.3999 5.56794 26.7649C5.71904 27.1299 5.97485 27.442 6.30312 27.6619C6.63139 27.8817 7.01741 27.9993 7.41247 28H24.5875C24.9825 27.9993 25.3686 27.8817 25.6968 27.6619C26.0251 27.442 26.2809 27.1299 26.432 26.7649C26.5831 26.3999 26.6227 25.9983 26.5458 25.6108C26.4689 25.2233 26.279 24.8672 26 24.5875L17.4125 16ZM24.5875 6L21.5875 9H10.4125L7.41247 6H24.5875ZM7.41247 26L15 18.4125V21C15 21.2652 15.1053 21.5196 15.2929 21.7071C15.4804 21.8946 15.7348 22 16 22C16.2652 22 16.5195 21.8946 16.7071 21.7071C16.8946 21.5196 17 21.2652 17 21V18.4125L24.5875 26H7.41247Z" fill="#1C1C1C"/>
</svg>
