<svg width="32" height="32" viewBox="0 0 32 32" fill="none" xmlns="http://www.w3.org/2000/svg">
<path d="M26.9375 26.6625L20.5625 9.125L21.7 6H23C23.2653 6 23.5196 5.89464 23.7071 5.70711C23.8947 5.51957 24 5.26522 24 5C24 4.73478 23.8947 4.48043 23.7071 4.29289C23.5196 4.10536 23.2653 4 23 4H11C10.7348 4 10.4805 4.10536 10.2929 4.29289C10.1054 4.48043 10 4.73478 10 5C10 5.26522 10.1054 5.51957 10.2929 5.70711C10.4805 5.89464 10.7348 6 11 6H11.575L4.06254 26.6625C4.01699 26.7855 3.99641 26.9164 4.002 27.0475C4.00758 27.1785 4.03923 27.3072 4.09509 27.4259C4.15095 27.5446 4.2299 27.6509 4.32733 27.7388C4.42476 27.8266 4.53871 27.8942 4.66254 27.9375C4.77097 27.9763 4.88492 27.9974 5.00004 28C5.20586 28.001 5.40686 27.9378 5.57494 27.819C5.74303 27.7002 5.8698 27.5319 5.93754 27.3375L7.15004 24H13.025L12.0625 26.6625C12.017 26.7855 11.9964 26.9164 12.002 27.0475C12.0076 27.1785 12.0392 27.3072 12.0951 27.4259C12.1509 27.5446 12.2299 27.6509 12.3273 27.7388C12.4248 27.8266 12.5387 27.8942 12.6625 27.9375C12.771 27.9763 12.8849 27.9974 13 28C13.2059 28.001 13.4069 27.9378 13.5749 27.819C13.743 27.7002 13.8698 27.5319 13.9375 27.3375L16.25 21H22.75L25.0625 27.3375C25.1303 27.5319 25.257 27.7002 25.4251 27.819C25.5932 27.9378 25.7942 28.001 26 28C26.1152 27.9974 26.2291 27.9763 26.3375 27.9375C26.4614 27.8942 26.5753 27.8266 26.6728 27.7388C26.7702 27.6509 26.8491 27.5446 26.905 27.4259C26.9608 27.3072 26.9925 27.1785 26.9981 27.0475C27.0037 26.9164 26.9831 26.7855 26.9375 26.6625ZM15.9375 16H10.0625L11.5125 12H17.3875L15.9375 16ZM19.575 6L18.5625 8.7875L18.1125 10H12.25L13.7 6H19.575ZM7.88754 22L9.33754 18H15.2125L13.75 22H7.88754ZM16.975 19L19.5 12.05L22.025 19H16.975Z" fill="#1C1C1C"/>
</svg>
