<svg width="32" height="32" viewBox="0 0 32 32" fill="none" xmlns="http://www.w3.org/2000/svg">
<path d="M25.275 25.1C27.6629 22.673 29.0012 19.4047 29.0012 16C29.0012 12.5952 27.6629 9.32692 25.275 6.89996C25.2525 6.86479 25.2227 6.83493 25.1875 6.81246C25.165 6.77729 25.1352 6.74743 25.1 6.72496C22.673 4.33706 19.4047 2.99878 16 2.99878C12.5953 2.99878 9.32695 4.33706 6.89999 6.72496C6.86482 6.74743 6.83496 6.77729 6.81249 6.81246C6.77732 6.83493 6.74746 6.86479 6.72499 6.89996C4.33709 9.32692 2.99881 12.5952 2.99881 16C2.99881 19.4047 4.33709 22.673 6.72499 25.1L6.81249 25.1875C6.83496 25.2226 6.86482 25.2525 6.89999 25.275C9.32695 27.6629 12.5953 29.0011 16 29.0011C19.4047 29.0011 22.673 27.6629 25.1 25.275C25.1352 25.2525 25.165 25.2226 25.1875 25.1875C25.2227 25.165 25.2525 25.1351 25.275 25.1ZM12 16C12 15.2088 12.2346 14.4355 12.6741 13.7777C13.1136 13.1199 13.7384 12.6072 14.4693 12.3044C15.2002 12.0017 16.0044 11.9225 16.7804 12.0768C17.5563 12.2312 18.269 12.6121 18.8284 13.1715C19.3878 13.7309 19.7688 14.4437 19.9231 15.2196C20.0775 15.9955 19.9983 16.7998 19.6955 17.5307C19.3928 18.2616 18.8801 18.8863 18.2223 19.3258C17.5645 19.7654 16.7911 20 16 20C14.9401 19.9967 13.9246 19.5742 13.1752 18.8247C12.4258 18.0753 12.0033 17.0598 12 16ZM23.0375 7.54996L19.475 11.1125C18.4605 10.3894 17.2458 10.0009 16 10.0009C14.7542 10.0009 13.5395 10.3894 12.525 11.1125L8.96249 7.54996C10.9376 5.90264 13.4281 5.0004 16 5.0004C18.5719 5.0004 21.0624 5.90264 23.0375 7.54996ZM8.96249 24.45L12.525 20.8875C13.5395 21.6105 14.7542 21.999 16 21.999C17.2458 21.999 18.4605 21.6105 19.475 20.8875L23.0375 24.45C21.0624 26.0973 18.5719 26.9995 16 26.9995C13.4281 26.9995 10.9376 26.0973 8.96249 24.45Z" fill="#1C1C1C"/>
</svg>
