<svg width="32" height="32" viewBox="0 0 32 32" fill="none" xmlns="http://www.w3.org/2000/svg">
<path d="M22 29C22 29.2652 21.8946 29.5196 21.7071 29.7071C21.5195 29.8947 21.2652 30 21 30H11C10.7348 30 10.4804 29.8947 10.2929 29.7071C10.1053 29.5196 9.99997 29.2652 9.99997 29C9.99997 28.7348 10.1053 28.4805 10.2929 28.2929C10.4804 28.1054 10.7348 28 11 28H21C21.2652 28 21.5195 28.1054 21.7071 28.2929C21.8946 28.4805 22 28.7348 22 29ZM27 13C27.0033 14.6662 26.6268 16.3112 25.899 17.8101C25.1712 19.309 24.1114 20.6222 22.8 21.65C22.5523 21.837 22.3512 22.0787 22.2124 22.3563C22.0736 22.6338 22.0009 22.9397 22 23.25V24C22 24.5305 21.7893 25.0392 21.4142 25.4142C21.0391 25.7893 20.5304 26 20 26H12C11.4695 26 10.9608 25.7893 10.5858 25.4142C10.2107 25.0392 9.99997 24.5305 9.99997 24V23.25C9.99912 22.9441 9.92894 22.6423 9.79471 22.3673C9.66048 22.0924 9.46569 21.8514 9.22497 21.6625C7.91631 20.6418 6.85619 19.3376 6.12438 17.848C5.39257 16.3583 5.00812 14.7222 4.99997 13.0625C4.96247 7.10002 9.78747 2.13752 15.7375 2.00002C17.2044 1.9633 18.6638 2.22078 20.0296 2.75727C21.3954 3.29376 22.6399 4.09839 23.6897 5.12368C24.7394 6.14898 25.5732 7.37416 26.1417 8.72692C26.7103 10.0797 27.0021 11.5326 27 13ZM22.9 11.825C22.6575 10.396 21.9759 9.07808 20.9499 8.05432C19.9239 7.03056 18.6045 6.35185 17.175 6.11252C17.0453 6.09118 16.9127 6.0956 16.7847 6.12551C16.6567 6.15542 16.5359 6.21024 16.4291 6.28685C16.3223 6.36346 16.2317 6.46035 16.1623 6.57199C16.093 6.68364 16.0463 6.80784 16.025 6.93752C16.0036 7.0672 16.008 7.19982 16.038 7.32779C16.0679 7.45577 16.1227 7.5766 16.1993 7.68339C16.2759 7.79017 16.3728 7.88083 16.4844 7.95017C16.5961 8.01951 16.7203 8.06618 16.85 8.08752C17.8689 8.2581 18.8091 8.7424 19.5396 9.47289C20.2701 10.2034 20.7544 11.1436 20.925 12.1625C20.9662 12.3943 21.0878 12.604 21.2684 12.755C21.449 12.9059 21.6771 12.9882 21.9125 12.9875H22.0875C22.2181 12.9665 22.3431 12.9194 22.4552 12.8491C22.5673 12.7788 22.6641 12.6867 22.7398 12.5783C22.8156 12.4699 22.8689 12.3473 22.8964 12.2179C22.9239 12.0885 22.9251 11.9549 22.9 11.825Z" fill="#1C1C1C"/>
</svg>
