<svg width="32" height="32" viewBox="0 0 32 32" fill="none" xmlns="http://www.w3.org/2000/svg">
<path d="M26.825 10.825C26.456 11.1989 26.016 11.4954 25.5309 11.6971C25.0459 11.8989 24.5254 12.0019 24 12C23.2844 11.9982 22.5819 11.8085 21.9625 11.45L11.45 21.9625C11.9001 22.7275 12.0829 23.6204 11.9698 24.5007C11.8566 25.381 11.4539 26.1987 10.825 26.825C10.4546 27.1969 10.0143 27.492 9.52953 27.6933C9.04475 27.8947 8.52498 27.9983 8.00004 27.9983C7.47511 27.9983 6.95534 27.8947 6.47055 27.6933C5.98577 27.492 5.54551 27.1969 5.17504 26.825C4.80315 26.4545 4.50806 26.0143 4.30671 25.5295C4.10536 25.0447 4.00171 24.5249 4.00171 24C4.00171 23.4751 4.10536 22.9553 4.30671 22.4705C4.50806 21.9857 4.80315 21.5455 5.17504 21.175C5.80134 20.5461 6.61902 20.1434 7.49932 20.0303C8.37963 19.9171 9.27256 20.1 10.0375 20.55L20.55 10.0375C20.1691 9.39361 19.9763 8.65578 19.9937 7.90782C20.011 7.15986 20.2378 6.43177 20.6482 5.80624C21.0587 5.18071 21.6363 4.68283 22.3155 4.36916C22.9948 4.05548 23.7483 3.93858 24.4907 4.03174C25.233 4.12491 25.9343 4.42439 26.515 4.89618C27.0956 5.36797 27.5323 5.99315 27.7755 6.7007C28.0186 7.40824 28.0584 8.1698 27.8904 8.89885C27.7224 9.6279 27.3533 10.2952 26.825 10.825Z" fill="#1C1C1C"/>
</svg>
