<svg width="32" height="32" viewBox="0 0 32 32" fill="none" xmlns="http://www.w3.org/2000/svg">
<path d="M29.825 9.82497C29.4559 10.1988 29.0159 10.4953 28.5309 10.6971C28.0458 10.8989 27.5253 11.0018 27 11C26.68 11.0004 26.361 10.9626 26.05 10.8875L22.7125 17.0625L22.825 17.175C23.1969 17.5454 23.492 17.9857 23.6933 18.4705C23.8947 18.9553 23.9983 19.475 23.9983 20C23.9983 20.5249 23.8947 21.0447 23.6933 21.5295C23.492 22.0142 23.1969 22.4545 22.825 22.825C22.4545 23.1969 22.0143 23.492 21.5295 23.6933C21.0447 23.8947 20.5249 23.9983 20 23.9983C19.475 23.9983 18.9553 23.8947 18.4705 23.6933C17.9857 23.492 17.5455 23.1969 17.175 22.825C16.5461 22.1987 16.1434 21.381 16.0302 20.5007C15.9171 19.6204 16.0999 18.7274 16.55 17.9625L14.0375 15.45C13.4182 15.8085 12.7156 15.9981 12 16C11.68 16.0004 11.3611 15.9626 11.05 15.8875L7.71248 22.0625L7.82498 22.175C8.19688 22.5454 8.49197 22.9857 8.69332 23.4705C8.89467 23.9553 8.99832 24.475 8.99832 25C8.99832 25.5249 8.89467 26.0447 8.69332 26.5295C8.49197 27.0142 8.19688 27.4545 7.82498 27.825C7.45451 28.1969 7.01425 28.492 6.52947 28.6933C6.04469 28.8947 5.52492 28.9983 4.99998 28.9983C4.47505 28.9983 3.95528 28.8947 3.47049 28.6933C2.98571 28.492 2.54545 28.1969 2.17498 27.825C1.80308 27.4545 1.508 27.0142 1.30665 26.5295C1.1053 26.0447 1.00165 25.5249 1.00165 25C1.00165 24.475 1.1053 23.9553 1.30665 23.4705C1.508 22.9857 1.80308 22.5454 2.17498 22.175C2.66073 21.6897 3.26288 21.3371 3.92383 21.1511C4.58479 20.9651 5.28242 20.9518 5.94998 21.1125L9.28748 14.9375L9.17498 14.825C8.80308 14.4545 8.508 14.0142 8.30665 13.5295C8.1053 13.0447 8.00165 12.5249 8.00165 12C8.00165 11.475 8.1053 10.9553 8.30665 10.4705C8.508 9.9857 8.80308 9.54544 9.17498 9.17497C9.86308 8.48403 10.7799 8.06825 11.753 8.00578C12.7261 7.94331 13.6885 8.23847 14.4593 8.83575C15.2301 9.43304 15.7562 10.2913 15.9386 11.2492C16.121 12.2071 15.9473 13.1987 15.45 14.0375L17.9625 16.55C18.8647 16.0245 19.935 15.8678 20.95 16.1125L24.2875 9.93747L24.175 9.82497C23.8031 9.4545 23.508 9.01424 23.3066 8.52946C23.1053 8.04467 23.0016 7.5249 23.0016 6.99997C23.0016 6.47503 23.1053 5.95526 23.3066 5.47048C23.508 4.9857 23.8031 4.54544 24.175 4.17497C24.9359 3.48553 25.9328 3.1151 26.9592 3.14037C27.9857 3.16565 28.9632 3.58469 29.6892 4.31073C30.4153 5.03678 30.8343 6.01423 30.8596 7.04071C30.8848 8.06718 30.5144 9.06407 29.825 9.82497Z" fill="#1C1C1C"/>
</svg>
