<svg width="32" height="32" viewBox="0 0 32 32" fill="none" xmlns="http://www.w3.org/2000/svg">
<path d="M17.4125 21.6625L13.875 25.1875C13.4134 25.655 12.8636 26.0262 12.2574 26.2796C11.6512 26.5329 11.0008 26.6634 10.3438 26.6634C9.68677 26.6634 9.03632 26.5329 8.43014 26.2796C7.82396 26.0262 7.27412 25.655 6.81252 25.1875C5.87745 24.2502 5.35233 22.9803 5.35233 21.6563C5.35233 20.3323 5.87745 19.0624 6.81252 18.125L10.3375 14.5875C10.5099 14.3973 10.6025 14.1481 10.5962 13.8915C10.5898 13.6348 10.4851 13.3905 10.3036 13.209C10.1221 13.0275 9.8777 12.9227 9.62108 12.9164C9.36446 12.9101 9.11524 13.0027 8.92502 13.175L5.38752 16.7125C4.07469 18.0253 3.33716 19.8059 3.33716 21.6625C3.33716 23.5191 4.07469 25.2997 5.38752 26.6125C6.70034 27.9254 8.4809 28.6629 10.3375 28.6629C12.1941 28.6629 13.9747 27.9254 15.2875 26.6125L18.825 23.075C19.012 22.8876 19.1171 22.6336 19.1171 22.3688C19.1171 22.104 19.012 21.85 18.825 21.6625C18.733 21.5684 18.6232 21.4936 18.5019 21.4426C18.3806 21.3915 18.2504 21.3652 18.1188 21.3652C17.9872 21.3652 17.8569 21.3915 17.7356 21.4426C17.6143 21.4936 17.5045 21.5684 17.4125 21.6625Z" fill="#1C1C1C"/>
<path d="M26.6125 5.38754C25.9624 4.73746 25.1907 4.22178 24.3414 3.86995C23.4921 3.51812 22.5818 3.33704 21.6625 3.33704C20.7432 3.33704 19.8328 3.51812 18.9835 3.86995C18.1342 4.22178 17.3625 4.73746 16.7125 5.38754L13.175 8.92504C13.0026 9.11527 12.91 9.36449 12.9163 9.62111C12.9226 9.87773 13.0274 10.1221 13.2089 10.3036C13.3904 10.4851 13.6348 10.5899 13.8914 10.5962C14.148 10.6025 14.3972 10.5099 14.5875 10.3375L18.125 6.81254C18.5866 6.34503 19.1364 5.97384 19.7426 5.72049C20.3488 5.46714 20.9992 5.33668 21.6562 5.33668C22.3132 5.33668 22.9637 5.46714 23.5698 5.72049C24.176 5.97384 24.7259 6.34503 25.1875 6.81254C26.1225 7.74987 26.6477 9.01981 26.6477 10.3438C26.6477 11.6678 26.1225 12.9377 25.1875 13.875L21.6625 17.4125C21.5684 17.5045 21.4936 17.6144 21.4425 17.7357C21.3915 17.8569 21.3652 17.9872 21.3652 18.1188C21.3652 18.2504 21.3915 18.3806 21.4425 18.5019C21.4936 18.6232 21.5684 18.7331 21.6625 18.825C21.7526 18.92 21.8612 18.9956 21.9815 19.0472C22.1019 19.0988 22.2315 19.1253 22.3625 19.125C22.4952 19.1248 22.6266 19.0982 22.7489 19.0467C22.8712 18.9952 22.9821 18.9198 23.075 18.825L26.6125 15.2875C27.9223 13.9731 28.6578 12.1932 28.6578 10.3375C28.6578 8.48191 27.9223 6.70194 26.6125 5.38754Z" fill="#1C1C1C"/>
</svg>
