<svg width="32" height="32" viewBox="0 0 32 32" fill="none" xmlns="http://www.w3.org/2000/svg">
<path d="M20.15 27.2125C20.2029 27.2877 20.2339 27.3759 20.2399 27.4675C20.2459 27.5592 20.2265 27.6507 20.1839 27.732C20.1413 27.8134 20.0771 27.8814 19.9983 27.9287C19.9196 27.976 19.8294 28.0006 19.7375 28H12.2625C12.1707 28.0006 12.0805 27.976 12.0017 27.9287C11.923 27.8814 11.8588 27.8134 11.8162 27.732C11.7736 27.6507 11.7542 27.5592 11.7602 27.4675C11.7661 27.3759 11.7972 27.2877 11.85 27.2125C12.3074 26.5319 12.9252 25.9742 13.6489 25.5886C14.3726 25.203 15.18 25.0013 16 25.0013C16.8201 25.0013 17.6275 25.203 18.3512 25.5886C19.0749 25.9742 19.6927 26.5319 20.15 27.2125ZM28.725 27.6875C28.6279 27.788 28.5113 27.8675 28.3823 27.9213C28.2534 27.975 28.1148 28.0018 27.975 28H23.075C22.971 27.9987 22.8698 27.9656 22.7849 27.9053C22.7001 27.8451 22.6356 27.7604 22.6 27.6625C22.1177 26.2975 21.2239 25.1156 20.0419 24.2797C18.8599 23.4438 17.4478 22.9949 16 22.9949C14.5523 22.9949 13.1402 23.4438 11.9582 24.2797C10.7762 25.1156 9.88242 26.2975 9.40004 27.6625C9.36451 27.7604 9.30003 27.8451 9.21517 27.9053C9.13032 27.9656 9.02912 27.9987 8.92504 28H4.02504C3.88512 28.0033 3.74607 27.9772 3.61687 27.9234C3.48768 27.8695 3.37123 27.7892 3.27504 27.6875C3.12546 27.5318 3.03102 27.3314 3.00619 27.1169C2.98136 26.9025 3.02749 26.6858 3.13754 26.5C3.17504 26.4375 7.00004 19.625 7.00004 12C7.00167 10.8133 7.23765 9.63861 7.69443 8.54334C8.15121 7.44806 8.8198 6.45378 9.66182 5.61757C10.5038 4.78135 11.5027 4.11965 12.6011 3.67046C13.6995 3.22127 14.8759 2.99343 16.0625 3.00002C21.0125 3.03752 24.9875 7.11252 25 12.0625C25.025 19.6625 28.825 26.4375 28.8625 26.5C28.9726 26.6858 29.0187 26.9025 28.9939 27.1169C28.9691 27.3314 28.8746 27.5318 28.725 27.6875ZM11 13.5C11 13.7967 11.088 14.0867 11.2528 14.3334C11.4177 14.58 11.6519 14.7723 11.926 14.8858C12.2001 14.9994 12.5017 15.0291 12.7927 14.9712C13.0836 14.9133 13.3509 14.7705 13.5607 14.5607C13.7705 14.3509 13.9133 14.0836 13.9712 13.7927C14.0291 13.5017 13.9994 13.2001 13.8859 12.926C13.7723 12.6519 13.5801 12.4176 13.3334 12.2528C13.0867 12.088 12.7967 12 12.5 12C12.1022 12 11.7207 12.1581 11.4394 12.4394C11.1581 12.7207 11 13.1022 11 13.5ZM20.9 17.55C20.7771 17.3148 20.5676 17.1365 20.3159 17.0526C20.0641 16.9686 19.7895 16.9857 19.55 17.1L16 18.8875L12.45 17.1C12.3319 17.0409 12.2032 17.0057 12.0714 16.9963C11.9396 16.987 11.8072 17.0036 11.6818 17.0454C11.5565 17.0872 11.4406 17.1533 11.3408 17.2399C11.2409 17.3264 11.1591 17.4318 11.1 17.55C11.0409 17.6682 11.0057 17.7969 10.9963 17.9287C10.987 18.0605 11.0037 18.1929 11.0454 18.3182C11.0872 18.4436 11.1533 18.5595 11.2399 18.6593C11.3265 18.7591 11.4319 18.8409 11.55 18.9L15.55 20.9C15.6909 20.9659 15.8445 21 16 21C16.1556 21 16.3092 20.9659 16.45 20.9L20.45 18.9C20.6852 18.777 20.8636 18.5676 20.9475 18.3158C21.0314 18.064 21.0144 17.7895 20.9 17.55ZM21 13.5C21 13.2033 20.9121 12.9133 20.7472 12.6667C20.5824 12.42 20.3482 12.2277 20.0741 12.1142C19.8 12.0007 19.4984 11.971 19.2074 12.0288C18.9164 12.0867 18.6492 12.2296 18.4394 12.4394C18.2296 12.6491 18.0867 12.9164 18.0289 13.2074C17.971 13.4984 18.0007 13.8 18.1142 14.074C18.2278 14.3481 18.42 14.5824 18.6667 14.7472C18.9134 14.912 19.2034 15 19.5 15C19.8979 15 20.2794 14.842 20.5607 14.5607C20.842 14.2794 21 13.8978 21 13.5Z" fill="#1C1C1C"/>
</svg>
