<svg width="32" height="32" viewBox="0 0 32 32" fill="none" xmlns="http://www.w3.org/2000/svg">
<path d="M28 16C28 16.2652 27.8946 16.5196 27.7071 16.7071C27.5196 16.8947 27.2652 17 27 17H13C12.7348 17 12.4804 16.8947 12.2929 16.7071C12.1054 16.5196 12 16.2652 12 16C12 15.7348 12.1054 15.4805 12.2929 15.2929C12.4804 15.1054 12.7348 15 13 15H27C27.2652 15 27.5196 15.1054 27.7071 15.2929C27.8946 15.4805 28 15.7348 28 16ZM13 9.00002H27C27.2652 9.00002 27.5196 8.89467 27.7071 8.70713C27.8946 8.51959 28 8.26524 28 8.00002C28 7.73481 27.8946 7.48045 27.7071 7.29292C27.5196 7.10538 27.2652 7.00002 27 7.00002H13C12.7348 7.00002 12.4804 7.10538 12.2929 7.29292C12.1054 7.48045 12 7.73481 12 8.00002C12 8.26524 12.1054 8.51959 12.2929 8.70713C12.4804 8.89467 12.7348 9.00002 13 9.00002ZM27 23H13C12.7348 23 12.4804 23.1054 12.2929 23.2929C12.1054 23.4805 12 23.7348 12 24C12 24.2652 12.1054 24.5196 12.2929 24.7071C12.4804 24.8947 12.7348 25 13 25H27C27.2652 25 27.5196 24.8947 27.7071 24.7071C27.8946 24.5196 28 24.2652 28 24C28 23.7348 27.8946 23.4805 27.7071 23.2929C27.5196 23.1054 27.2652 23 27 23ZM5.45001 8.40002L6.00001 8.11252V13.5C6.00001 13.7652 6.10536 14.0196 6.2929 14.2071C6.48044 14.3947 6.73479 14.5 7.00001 14.5C7.26522 14.5 7.51958 14.3947 7.70711 14.2071C7.89465 14.0196 8.00001 13.7652 8.00001 13.5V6.50002C8.00102 6.32938 7.9578 6.16138 7.87456 6.01241C7.79131 5.86344 7.67088 5.73859 7.52501 5.65002C7.38031 5.55906 7.21471 5.50671 7.04402 5.49796C6.87333 5.4892 6.70325 5.52434 6.55001 5.60002L4.55001 6.60002C4.43182 6.65912 4.32642 6.74091 4.23984 6.84074C4.15327 6.94057 4.0872 7.05647 4.04541 7.18183C3.96102 7.435 3.98066 7.71133 4.10001 7.95002C4.21935 8.18872 4.42863 8.37023 4.68181 8.45462C4.93498 8.53901 5.21131 8.51937 5.45001 8.40002ZM9.02501 21.2875C9.33666 20.8356 9.50243 20.299 9.50001 19.75C9.5035 19.1132 9.28588 18.4949 8.88428 18.0007C8.48268 17.5065 7.922 17.1669 7.29794 17.0401C6.67388 16.9132 6.02514 17.0068 5.46243 17.305C4.89973 17.6032 4.45795 18.0874 4.21251 18.675C4.10808 18.9203 4.10538 19.1971 4.20501 19.4444C4.30464 19.6917 4.49843 19.8893 4.74376 19.9938C4.98908 20.0982 5.26584 20.1009 5.51316 20.0013C5.76047 19.9016 5.95808 19.7078 6.06251 19.4625C6.11612 19.3244 6.21076 19.2061 6.33367 19.1234C6.45659 19.0407 6.60188 18.9976 6.75001 19C6.94892 19 7.13968 19.079 7.28034 19.2197C7.42099 19.3603 7.50001 19.5511 7.50001 19.75C7.50308 19.8916 7.46392 20.0308 7.38751 20.15L4.20001 24.4C4.08858 24.5486 4.02072 24.7253 4.00405 24.9102C3.98737 25.0952 4.02253 25.2811 4.10558 25.4472C4.18863 25.6133 4.3163 25.753 4.47427 25.8507C4.63225 25.9483 4.81429 26 5.00001 26H8.50001C8.76522 26 9.01958 25.8947 9.20711 25.7071C9.39465 25.5196 9.50001 25.2652 9.50001 25C9.50001 24.7348 9.39465 24.4805 9.20711 24.2929C9.01958 24.1054 8.76522 24 8.50001 24H7.00001L9.00001 21.325L9.02501 21.2875Z" fill="#1C1C1C"/>
</svg>
