<svg width="32" height="32" viewBox="0 0 32 32" fill="none" xmlns="http://www.w3.org/2000/svg">
<path d="M28 16C28 16.2652 27.8946 16.5195 27.7071 16.7071C27.5196 16.8946 27.2652 17 27 17H16C15.7348 17 15.4804 16.8946 15.2929 16.7071C15.1053 16.5195 15 16.2652 15 16C15 15.7348 15.1053 15.4804 15.2929 15.2929C15.4804 15.1053 15.7348 15 16 15H27C27.2652 15 27.5196 15.1053 27.7071 15.2929C27.8946 15.4804 28 15.7348 28 16ZM16 8.99997H27C27.2652 8.99997 27.5196 8.89461 27.7071 8.70708C27.8946 8.51954 28 8.26519 28 7.99997C28 7.73475 27.8946 7.4804 27.7071 7.29286C27.5196 7.10533 27.2652 6.99997 27 6.99997H16C15.7348 6.99997 15.4804 7.10533 15.2929 7.29286C15.1053 7.4804 15 7.73475 15 7.99997C15 8.26519 15.1053 8.51954 15.2929 8.70708C15.4804 8.89461 15.7348 8.99997 16 8.99997ZM27 23H16C15.7348 23 15.4804 23.1053 15.2929 23.2929C15.1053 23.4804 15 23.7348 15 24C15 24.2652 15.1053 24.5195 15.2929 24.7071C15.4804 24.8946 15.7348 25 16 25H27C27.2652 25 27.5196 24.8946 27.7071 24.7071C27.8946 24.5195 28 24.2652 28 24C28 23.7348 27.8946 23.4804 27.7071 23.2929C27.5196 23.1053 27.2652 23 27 23ZM10.825 5.26247L7.16248 8.63747L5.67498 7.26247C5.47833 7.09015 5.222 7.00172 4.96093 7.0161C4.69986 7.03049 4.45481 7.14655 4.27828 7.33943C4.10175 7.53231 4.00778 7.78665 4.01651 8.04797C4.02524 8.30929 4.13597 8.5568 4.32498 8.73747L6.48748 10.7375C6.67178 10.9062 6.91258 10.9999 7.16248 11C7.41624 11.0006 7.66121 10.9071 7.84998 10.7375L12.175 6.73747C12.2751 6.64972 12.3567 6.54286 12.415 6.42316C12.4733 6.30345 12.5071 6.17331 12.5144 6.04037C12.5218 5.90743 12.5025 5.77436 12.4577 5.64897C12.4129 5.52359 12.3435 5.40841 12.2536 5.31019C12.1637 5.21198 12.0551 5.1327 11.9342 5.07701C11.8133 5.02133 11.6824 4.99035 11.5493 4.98591C11.4163 4.98146 11.2836 5.00364 11.1593 5.05113C11.0349 5.09862 10.9212 5.17047 10.825 5.26247ZM10.825 13.2625L7.16248 16.6375L5.67498 15.2625C5.57873 15.1705 5.46508 15.0986 5.3407 15.0511C5.21631 15.0036 5.08369 14.9815 4.95062 14.9859C4.81755 14.9904 4.68671 15.0213 4.56577 15.077C4.44483 15.1327 4.33623 15.212 4.24634 15.3102C4.15644 15.4084 4.08707 15.5236 4.04228 15.649C3.9975 15.7744 3.9782 15.9074 3.98552 16.0404C3.99285 16.1733 4.02665 16.3035 4.08494 16.4232C4.14323 16.5429 4.22484 16.6497 4.32498 16.7375L6.48748 18.7375C6.67178 18.9062 6.91258 18.9999 7.16248 19C7.41624 19.0006 7.66121 18.9071 7.84998 18.7375L12.175 14.7375C12.2751 14.6497 12.3567 14.5429 12.415 14.4232C12.4733 14.3035 12.5071 14.1733 12.5144 14.0404C12.5218 13.9074 12.5025 13.7744 12.4577 13.649C12.4129 13.5236 12.3435 13.4084 12.2536 13.3102C12.1637 13.212 12.0551 13.1327 11.9342 13.077C11.8133 13.0213 11.6824 12.9904 11.5493 12.9859C11.4163 12.9815 11.2836 13.0036 11.1593 13.0511C11.0349 13.0986 10.9212 13.1705 10.825 13.2625ZM10.825 21.2625L7.16248 24.6375L5.67498 23.2625C5.57873 23.1705 5.46508 23.0986 5.3407 23.0511C5.21631 23.0036 5.08369 22.9815 4.95062 22.9859C4.81755 22.9904 4.68671 23.0213 4.56577 23.077C4.44483 23.1327 4.33623 23.212 4.24634 23.3102C4.15644 23.4084 4.08707 23.5236 4.04228 23.649C3.9975 23.7744 3.9782 23.9074 3.98552 24.0404C3.99285 24.1733 4.02665 24.3035 4.08494 24.4232C4.14323 24.5429 4.22484 24.6497 4.32498 24.7375L6.48748 26.7375C6.67178 26.9062 6.91258 26.9999 7.16248 27C7.41624 27.0006 7.66121 26.9071 7.84998 26.7375L12.175 22.7375C12.364 22.5568 12.4747 22.3093 12.4835 22.048C12.4922 21.7867 12.3982 21.5323 12.2217 21.3394C12.0451 21.1466 11.8001 21.0305 11.539 21.0161C11.278 21.0017 11.0216 21.0902 10.825 21.2625Z" fill="#1C1C1C"/>
</svg>
