<svg width="32" height="32" viewBox="0 0 32 32" fill="none" xmlns="http://www.w3.org/2000/svg">
<path d="M31 19C31 19.2652 30.8946 19.5196 30.7071 19.7071C30.5196 19.8946 30.2652 20 30 20H28V22C28 22.2652 27.8946 22.5196 27.7071 22.7071C27.5196 22.8946 27.2652 23 27 23C26.7348 23 26.4804 22.8946 26.2929 22.7071C26.1053 22.5196 26 22.2652 26 22V20H24C23.7348 20 23.4804 19.8946 23.2929 19.7071C23.1053 19.5196 23 19.2652 23 19C23 18.7348 23.1053 18.4804 23.2929 18.2929C23.4804 18.1053 23.7348 18 24 18H26V16C26 15.7348 26.1053 15.4804 26.2929 15.2929C26.4804 15.1054 26.7348 15 27 15C27.2652 15 27.5196 15.1054 27.7071 15.2929C27.8946 15.4804 28 15.7348 28 16V18H30C30.2652 18 30.5196 18.1053 30.7071 18.2929C30.8946 18.4804 31 18.7348 31 19ZM7.99999 8.49999H9.49999V9.99999C9.49999 10.2652 9.60535 10.5196 9.79289 10.7071C9.98042 10.8946 10.2348 11 10.5 11C10.7652 11 11.0196 10.8946 11.2071 10.7071C11.3946 10.5196 11.5 10.2652 11.5 9.99999V8.49999H13C13.2652 8.49999 13.5196 8.39464 13.7071 8.2071C13.8946 8.01956 14 7.76521 14 7.49999C14 7.23478 13.8946 6.98042 13.7071 6.79289C13.5196 6.60535 13.2652 6.49999 13 6.49999H11.5V4.99999C11.5 4.73478 11.3946 4.48042 11.2071 4.29289C11.0196 4.10535 10.7652 3.99999 10.5 3.99999C10.2348 3.99999 9.98042 4.10535 9.79289 4.29289C9.60535 4.48042 9.49999 4.73478 9.49999 4.99999V6.49999H7.99999C7.73478 6.49999 7.48042 6.60535 7.29289 6.79289C7.10535 6.98042 6.99999 7.23478 6.99999 7.49999C6.99999 7.76521 7.10535 8.01956 7.29289 8.2071C7.48042 8.39464 7.73478 8.49999 7.99999 8.49999ZM23 24H22V23C22 22.7348 21.8946 22.4804 21.7071 22.2929C21.5196 22.1053 21.2652 22 21 22C20.7348 22 20.4804 22.1053 20.2929 22.2929C20.1053 22.4804 20 22.7348 20 23V24H19C18.7348 24 18.4804 24.1053 18.2929 24.2929C18.1053 24.4804 18 24.7348 18 25C18 25.2652 18.1053 25.5196 18.2929 25.7071C18.4804 25.8946 18.7348 26 19 26H20V27C20 27.2652 20.1053 27.5196 20.2929 27.7071C20.4804 27.8946 20.7348 28 21 28C21.2652 28 21.5196 27.8946 21.7071 27.7071C21.8946 27.5196 22 27.2652 22 27V26H23C23.2652 26 23.5196 25.8946 23.7071 25.7071C23.8946 25.5196 24 25.2652 24 25C24 24.7348 23.8946 24.4804 23.7071 24.2929C23.5196 24.1053 23.2652 24 23 24ZM22.7125 14.7125L9.41249 28C9.22768 28.1867 9.00769 28.3349 8.76524 28.4361C8.52279 28.5372 8.26269 28.5893 7.99999 28.5893C7.73729 28.5893 7.47719 28.5372 7.23475 28.4361C6.9923 28.3349 6.7723 28.1867 6.58749 28L3.99999 25.4125C3.81329 25.2277 3.66508 25.0077 3.56393 24.7652C3.46279 24.5228 3.41071 24.2627 3.41071 24C3.41071 23.7373 3.46279 23.4772 3.56393 23.2347C3.66508 22.9923 3.81329 22.7723 3.99999 22.5875L22.5875 3.99999C22.964 3.62899 23.4714 3.42102 24 3.42102C24.5286 3.42102 25.036 3.62899 25.4125 3.99999L28 6.58749C28.1867 6.77231 28.3349 6.9923 28.4361 7.23475C28.5372 7.4772 28.5893 7.73729 28.5893 7.99999C28.5893 8.2627 28.5372 8.52279 28.4361 8.76524C28.3349 9.00769 28.1867 9.22768 28 9.41249L22.7125 14.7125ZM19.4125 9.99999L22 12.5875L26.5875 7.99999L24 5.41249L19.4125 9.99999Z" fill="#1C1C1C"/>
</svg>
