<svg width="32" height="32" viewBox="0 0 32 32" fill="none" xmlns="http://www.w3.org/2000/svg">
<path d="M21.9999 14.4999C21.9999 15.9833 21.5601 17.4334 20.736 18.6667C19.9119 19.9001 18.7405 20.8614 17.3701 21.429C15.9996 21.9967 14.4916 22.1452 13.0368 21.8558C11.5819 21.5665 10.2455 20.8521 9.19665 19.8032C8.14775 18.7544 7.43345 17.418 7.14406 15.9631C6.85467 14.5083 7.0032 13.0003 7.57085 11.6298C8.13851 10.2594 9.0998 9.08804 10.3332 8.26393C11.5665 7.43982 13.0166 6.99995 14.4999 6.99995C16.4891 6.99995 18.3967 7.79013 19.8032 9.19665C21.2098 10.6032 21.9999 12.5108 21.9999 14.4999ZM28.6999 28.7124C28.5133 28.8963 28.2619 28.9995 27.9999 28.9999C27.7344 28.9988 27.4794 28.8959 27.2874 28.7124L21.8874 23.2999C19.6132 25.2102 16.6892 26.1687 13.7255 25.9756C10.7617 25.7824 7.98686 24.4525 5.97976 22.2632C3.97266 20.074 2.88824 17.1943 2.95267 14.225C3.01709 11.2556 4.22539 8.42571 6.32555 6.32555C8.42571 4.22539 11.2556 3.01709 14.225 2.95267C17.1943 2.88824 20.074 3.97266 22.2632 5.97976C24.4525 7.98686 25.7824 10.7617 25.9756 13.7255C26.1687 16.6892 25.2102 19.6132 23.2999 21.8874L28.6999 27.2874C28.7944 27.3805 28.8695 27.4914 28.9207 27.6137C28.9719 27.7361 28.9983 27.8673 28.9983 27.9999C28.9983 28.1326 28.9719 28.2638 28.9207 28.3862C28.8695 28.5085 28.7944 28.6194 28.6999 28.7124ZM14.4999 23.9999C16.3789 23.9999 18.2156 23.4428 19.7779 22.3989C21.3401 21.355 22.5578 19.8713 23.2768 18.1354C23.9958 16.3995 24.184 14.4894 23.8174 12.6466C23.4508 10.8038 22.5461 9.11103 21.2175 7.78243C19.8889 6.45384 18.1961 5.54905 16.3533 5.18249C14.5105 4.81593 12.6004 5.00406 10.8645 5.72309C9.12856 6.44213 7.64486 7.65977 6.60099 9.22203C5.55711 10.7843 4.99995 12.621 4.99995 14.4999C5.00326 17.0185 6.00521 19.4329 7.78609 21.2138C9.56697 22.9947 11.9814 23.9966 14.4999 23.9999Z" fill="#1C1C1C"/>
</svg>
