<svg width="32" height="32" viewBox="0 0 32 32" fill="none" xmlns="http://www.w3.org/2000/svg">
<path d="M28.6999 27.2874L23.2999 21.8874C25.2102 19.6132 26.1687 16.6892 25.9756 13.7255C25.7824 10.7617 24.4525 7.98686 22.2632 5.97976C20.074 3.97266 17.1943 2.88824 14.225 2.95267C11.2556 3.01709 8.42571 4.22539 6.32555 6.32555C4.22539 8.42571 3.01709 11.2556 2.95267 14.225C2.88824 17.1943 3.97266 20.074 5.97976 22.2632C7.98686 24.4525 10.7617 25.7824 13.7255 25.9756C16.6892 26.1687 19.6132 25.2102 21.8874 23.2999L27.2874 28.7124C27.4794 28.8959 27.7344 28.9988 27.9999 28.9999C28.1982 28.9996 28.392 28.9403 28.5565 28.8297C28.721 28.719 28.8489 28.5619 28.9239 28.3783C28.999 28.1948 29.0177 27.9931 28.9778 27.7988C28.938 27.6046 28.8412 27.4266 28.6999 27.2874ZM18.4999 15.4999H10.4999C10.2347 15.4999 9.98038 15.3946 9.79284 15.2071C9.60531 15.0195 9.49995 14.7652 9.49995 14.4999C9.49995 14.2347 9.60531 13.9804 9.79284 13.7928C9.98038 13.6053 10.2347 13.4999 10.4999 13.4999H18.4999C18.7652 13.4999 19.0195 13.6053 19.2071 13.7928C19.3946 13.9804 19.4999 14.2347 19.4999 14.4999C19.4999 14.7652 19.3946 15.0195 19.2071 15.2071C19.0195 15.3946 18.7652 15.4999 18.4999 15.4999Z" fill="#1C1C1C"/>
</svg>
