<svg width="32" height="32" viewBox="0 0 32 32" fill="none" xmlns="http://www.w3.org/2000/svg">
<path d="M25.875 6.27502C24.8566 5.23969 23.6427 4.41703 22.3037 3.85482C20.9647 3.29261 19.5273 3.00205 18.075 3.00002H18.0375C16.5905 2.9944 15.1568 3.27663 13.8199 3.83029C12.4829 4.38395 11.2694 5.19799 10.25 6.22502L6.03755 10.4875L1.98755 14.5875C1.6182 14.9657 1.41248 15.474 1.41481 16.0026C1.41715 16.5312 1.62737 17.0376 2.00005 17.4125L5.57505 20.9875C5.75872 21.1756 5.97854 21.3246 6.22128 21.4256C6.46401 21.5265 6.72466 21.5774 6.98755 21.575H7.00005C7.26571 21.576 7.52885 21.5234 7.7737 21.4203C8.01855 21.3172 8.24009 21.1657 8.42505 20.975L12.425 16.875L16.625 12.5875C16.9972 12.2206 17.4974 12.0129 18.02 12.0082C18.5425 12.0036 19.0464 12.2023 19.425 12.5625C19.611 12.7452 19.7588 12.963 19.8597 13.2034C19.9605 13.4438 20.0125 13.7018 20.0125 13.9625C20.0145 14.5238 19.7943 15.063 19.4 15.4625L15.1375 19.5875L11.0375 23.575C10.8454 23.7586 10.692 23.9788 10.5865 24.2226C10.4809 24.4665 10.4253 24.729 10.423 24.9947C10.4207 25.2604 10.4716 25.5239 10.5729 25.7696C10.6742 26.0153 10.8237 26.2381 11.0125 26.425L14.5875 30.0125C14.9655 30.3793 15.4708 30.5855 15.9975 30.5879C16.5242 30.5902 17.0314 30.3885 17.4125 30.025L21.525 25.975L25.725 21.8625C30.025 17.5625 30.1 10.575 25.875 6.27502ZM6.98755 19.575L3.41255 16L6.75005 12.6125L10.3125 16.175L6.98755 19.575ZM16.0125 28.5875L12.425 25.0125L15.8375 21.7L19.4 25.2625L16.0125 28.5875Z" fill="#1C1C1C"/>
</svg>
