<svg width="32" height="32" viewBox="0 0 32 32" fill="none" xmlns="http://www.w3.org/2000/svg">
<path d="M28.6125 6.21245C28.4941 6.11916 28.3562 6.05384 28.209 6.02137C28.0618 5.9889 27.9092 5.99012 27.7625 6.02495L20.1125 7.93745L12.45 4.09995H12.4375L12.3375 4.06245H12.3125L12.225 4.03745H12.1875L12.1 4.01245H11.7625L3.76251 6.01245C3.5423 6.06626 3.34691 6.19329 3.20837 6.37271C3.06983 6.55213 2.99636 6.7733 3.00001 6.99995V25C2.99855 25.1524 3.03284 25.303 3.10014 25.4398C3.16743 25.5765 3.26586 25.6956 3.38751 25.7875C3.56194 25.9252 3.77774 26.0001 4.00001 26L4.23751 25.975L11.8875 24.0625L19.55 27.9H19.5625L19.65 27.9375H19.6625L19.7625 27.975H20.2375L28.2375 25.975C28.4556 25.9216 28.6494 25.7965 28.7877 25.6196C28.926 25.4427 29.0008 25.2245 29 25V6.99995C29.0015 6.84753 28.9672 6.6969 28.8999 6.56013C28.8326 6.42337 28.7342 6.30429 28.6125 6.21245ZM19 25.3875L13 22.3875V6.61245L19 9.61245V25.3875Z" fill="#1C1C1C"/>
</svg>
