<svg width="32" height="32" viewBox="0 0 32 32" fill="none" xmlns="http://www.w3.org/2000/svg">
<path d="M27.125 4.38739C26.8574 4.20358 26.5489 4.08811 26.2264 4.05107C25.9039 4.01403 25.5773 4.05654 25.275 4.17489C23.525 4.86239 19.975 5.99989 16 5.99989C12.025 5.99989 8.475 4.86239 6.725 4.17489C6.42201 4.05704 6.09487 4.01483 5.77189 4.05191C5.44891 4.08899 5.13984 4.20424 4.87145 4.38769C4.60305 4.57113 4.38342 4.81724 4.23157 5.1047C4.07972 5.39215 4.00024 5.71229 4 6.03739V12.9999C4 17.4749 5.2125 21.6874 7.4 24.8749C9.5875 28.0624 12.725 29.9999 16 29.9999C19.275 29.9999 22.3375 28.1874 24.6 24.8749C26.8625 21.5624 28 17.4749 28 12.9999V6.03739C28.0005 5.71172 27.921 5.39092 27.7684 5.10321C27.6158 4.8155 27.3949 4.56968 27.125 4.38739ZM10.0125 16.6624C9.92555 16.761 9.82002 16.8414 9.70195 16.8992C9.58388 16.9569 9.45558 16.9908 9.32439 16.999C9.1932 17.0071 9.0617 16.9893 8.9374 16.9465C8.8131 16.9038 8.69845 16.837 8.6 16.7499C8.50231 16.6621 8.42287 16.5559 8.36623 16.4374C8.30958 16.3189 8.27685 16.1903 8.26988 16.0592C8.26292 15.928 8.28186 15.7968 8.32564 15.6729C8.36941 15.5491 8.43715 15.435 8.525 15.3374C8.89797 14.9165 9.356 14.5795 9.86884 14.3488C10.3817 14.118 10.9376 13.9987 11.5 13.9987C12.0624 13.9987 12.6183 14.118 13.1312 14.3488C13.644 14.5795 14.102 14.9165 14.475 15.3374C14.5628 15.435 14.6306 15.5491 14.6744 15.6729C14.7181 15.7968 14.7371 15.928 14.7301 16.0592C14.7232 16.1903 14.6904 16.3189 14.6338 16.4374C14.5771 16.5559 14.4977 16.6621 14.4 16.7499C14.2165 16.9102 13.9812 16.999 13.7375 16.9999C13.5957 17 13.4555 16.97 13.3262 16.9118C13.1969 16.8536 13.0814 16.7686 12.9875 16.6624C12.7999 16.4537 12.5706 16.2868 12.3143 16.1726C12.058 16.0583 11.7806 15.9993 11.5 15.9993C11.2194 15.9993 10.942 16.0583 10.6857 16.1726C10.4294 16.2868 10.2001 16.4537 10.0125 16.6624ZM19.875 22.8374C18.725 23.596 17.3776 24.0003 16 24.0003C14.6224 24.0003 13.275 23.596 12.125 22.8374C11.9071 22.6878 11.7564 22.4589 11.705 22.1996C11.6537 21.9404 11.7057 21.6713 11.85 21.4499C11.9221 21.3397 12.0152 21.2448 12.124 21.1707C12.2328 21.0966 12.3551 21.0447 12.484 21.018C12.613 20.9913 12.7459 20.9903 12.8752 21.0151C13.0045 21.0398 13.1276 21.0899 13.2375 21.1624C14.0553 21.7084 15.0166 21.9999 16 21.9999C16.9834 21.9999 17.9447 21.7084 18.7625 21.1624C18.8724 21.0899 18.9955 21.0398 19.1248 21.0151C19.2541 20.9903 19.387 20.9913 19.516 21.018C19.6449 21.0447 19.7672 21.0966 19.876 21.1707C19.9848 21.2448 20.0779 21.3397 20.15 21.4499C20.2943 21.6713 20.3463 21.9404 20.295 22.1996C20.2436 22.4589 20.0929 22.6878 19.875 22.8374ZM23.4 16.7499C23.2165 16.9102 22.9812 16.999 22.7375 16.9999C22.5957 17 22.4555 16.97 22.3262 16.9118C22.1969 16.8536 22.0814 16.7686 21.9875 16.6624C21.7999 16.4537 21.5706 16.2868 21.3143 16.1726C21.058 16.0583 20.7806 15.9993 20.5 15.9993C20.2194 15.9993 19.942 16.0583 19.6857 16.1726C19.4294 16.2868 19.2001 16.4537 19.0125 16.6624C18.9256 16.761 18.82 16.8414 18.702 16.8992C18.5839 16.9569 18.4556 16.9908 18.3244 16.999C18.1932 17.0071 18.0617 16.9893 17.9374 16.9465C17.8131 16.9038 17.6985 16.837 17.6 16.7499C17.5023 16.6621 17.4229 16.5559 17.3662 16.4374C17.3096 16.3189 17.2768 16.1903 17.2699 16.0592C17.2629 15.928 17.2819 15.7968 17.3256 15.6729C17.3694 15.5491 17.4372 15.435 17.525 15.3374C17.898 14.9165 18.356 14.5795 18.8688 14.3488C19.3817 14.118 19.9376 13.9987 20.5 13.9987C21.0624 13.9987 21.6183 14.118 22.1312 14.3488C22.644 14.5795 23.102 14.9165 23.475 15.3374C23.5628 15.435 23.6306 15.5491 23.6744 15.6729C23.7181 15.7968 23.7371 15.928 23.7301 16.0592C23.7232 16.1903 23.6904 16.3189 23.6338 16.4374C23.5771 16.5559 23.4977 16.6621 23.4 16.7499Z" fill="#1C1C1C"/>
</svg>
