<svg width="32" height="32" viewBox="0 0 32 32" fill="none" xmlns="http://www.w3.org/2000/svg">
<path d="M27.125 4.38739C26.8574 4.20358 26.5489 4.08811 26.2264 4.05107C25.9039 4.01403 25.5773 4.05654 25.275 4.17489C23.525 4.86239 19.975 5.99989 16 5.99989C12.025 5.99989 8.475 4.86239 6.725 4.17489C6.42201 4.05704 6.09487 4.01483 5.77189 4.05191C5.44891 4.08899 5.13984 4.20424 4.87145 4.38769C4.60305 4.57113 4.38342 4.81724 4.23157 5.1047C4.07972 5.39215 4.00024 5.71229 4 6.03739V12.9999C4 17.4749 5.2125 21.6874 7.4 24.8749C9.5875 28.0624 12.725 29.9999 16 29.9999C19.275 29.9999 22.3375 28.1874 24.6 24.8749C26.8625 21.5624 28 17.4749 28 12.9999V6.03739C28.0005 5.71172 27.921 5.39092 27.7684 5.10321C27.6158 4.8155 27.3949 4.56968 27.125 4.38739ZM8.525 15.6624C8.43715 15.5647 8.36941 15.4507 8.32564 15.3269C8.28186 15.203 8.26292 15.0718 8.26988 14.9406C8.27685 14.8094 8.30958 14.6809 8.36623 14.5624C8.42287 14.4439 8.50231 14.3377 8.6 14.2499C8.69845 14.1628 8.8131 14.096 8.9374 14.0532C9.0617 14.0105 9.1932 13.9927 9.32439 14.0008C9.45558 14.0089 9.58388 14.0428 9.70195 14.1006C9.82002 14.1584 9.92555 14.2388 10.0125 14.3374C10.2001 14.5461 10.4294 14.713 10.6857 14.8272C10.942 14.9414 11.2194 15.0005 11.5 15.0005C11.7806 15.0005 12.058 14.9414 12.3143 14.8272C12.5706 14.713 12.7999 14.5461 12.9875 14.3374C13.0744 14.2388 13.18 14.1584 13.298 14.1006C13.4161 14.0428 13.5444 14.0089 13.6756 14.0008C13.8068 13.9927 13.9383 14.0105 14.0626 14.0532C14.1869 14.096 14.3015 14.1628 14.4 14.2499C14.4977 14.3377 14.5771 14.4439 14.6338 14.5624C14.6904 14.6809 14.7232 14.8094 14.7301 14.9406C14.7371 15.0718 14.7181 15.203 14.6744 15.3269C14.6306 15.4507 14.5628 15.5647 14.475 15.6624C14.102 16.0833 13.644 16.4202 13.1312 16.651C12.6183 16.8818 12.0624 17.0011 11.5 17.0011C10.9376 17.0011 10.3817 16.8818 9.86884 16.651C9.356 16.4202 8.89797 16.0833 8.525 15.6624ZM20.15 23.5499C20.0023 23.7698 19.7743 23.9231 19.5149 23.9768C19.2555 24.0305 18.9854 23.9805 18.7625 23.8374C17.9447 23.2914 16.9834 22.9999 16 22.9999C15.0166 22.9999 14.0553 23.2914 13.2375 23.8374C13.1276 23.9099 13.0045 23.9599 12.8752 23.9847C12.7459 24.0095 12.613 24.0085 12.484 23.9818C12.3551 23.9551 12.2328 23.9032 12.124 23.8291C12.0152 23.7549 11.9221 23.6601 11.85 23.5499C11.7057 23.3285 11.6537 23.0594 11.705 22.8002C11.7564 22.5409 11.9071 22.312 12.125 22.1624C13.275 21.4038 14.6224 20.9995 16 20.9995C17.3776 20.9995 18.725 21.4038 19.875 22.1624C20.0929 22.312 20.2436 22.5409 20.295 22.8002C20.3463 23.0594 20.2943 23.3285 20.15 23.5499ZM23.475 15.6624C23.102 16.0833 22.644 16.4202 22.1312 16.651C21.6183 16.8818 21.0624 17.0011 20.5 17.0011C19.9376 17.0011 19.3817 16.8818 18.8688 16.651C18.356 16.4202 17.898 16.0833 17.525 15.6624C17.4372 15.5647 17.3694 15.4507 17.3256 15.3269C17.2819 15.203 17.2629 15.0718 17.2699 14.9406C17.2768 14.8094 17.3096 14.6809 17.3662 14.5624C17.4229 14.4439 17.5023 14.3377 17.6 14.2499C17.6985 14.1628 17.8131 14.096 17.9374 14.0532C18.0617 14.0105 18.1932 13.9927 18.3244 14.0008C18.4556 14.0089 18.5839 14.0428 18.702 14.1006C18.82 14.1584 18.9256 14.2388 19.0125 14.3374C19.2001 14.5461 19.4294 14.713 19.6857 14.8272C19.942 14.9414 20.2194 15.0005 20.5 15.0005C20.7806 15.0005 21.058 14.9414 21.3143 14.8272C21.5706 14.713 21.7999 14.5461 21.9875 14.3374C22.0744 14.2388 22.18 14.1584 22.298 14.1006C22.4161 14.0428 22.5444 14.0089 22.6756 14.0008C22.8068 13.9927 22.9383 14.0105 23.0626 14.0532C23.1869 14.096 23.3015 14.1628 23.4 14.2499C23.4977 14.3377 23.5771 14.4439 23.6338 14.5624C23.6904 14.6809 23.7232 14.8094 23.7301 14.9406C23.7371 15.0718 23.7181 15.203 23.6744 15.3269C23.6306 15.4507 23.5628 15.5647 23.475 15.6624Z" fill="#1C1C1C"/>
</svg>
