<svg width="32" height="32" viewBox="0 0 32 32" fill="none" xmlns="http://www.w3.org/2000/svg">
<path d="M30 14.9999C30 13.4086 29.3678 11.8825 28.2426 10.7573C27.1174 9.63206 25.5913 8.99992 24 8.99992H19C18.9375 8.99992 12.45 8.91242 6.28749 3.73742C5.99537 3.49089 5.63836 3.33382 5.25925 3.28505C4.88013 3.23627 4.49499 3.29786 4.14999 3.46242C3.80298 3.6202 3.50944 3.87563 3.30522 4.1975C3.101 4.51937 2.99494 4.89376 2.99999 5.27492V24.7249C2.99494 25.1061 3.101 25.4805 3.30522 25.8023C3.50944 26.1242 3.80298 26.3796 4.14999 26.5374C4.41663 26.66 4.7065 26.724 4.99999 26.7249C5.47036 26.728 5.92657 26.5641 6.28749 26.2624C11.025 22.2874 15.9375 21.3124 18 21.0749V25.4624C17.9988 25.7913 18.0793 26.1154 18.2342 26.4055C18.3891 26.6957 18.6135 26.9429 18.8875 27.1249L20.2625 28.0499C20.5332 28.2212 20.8396 28.3283 21.1581 28.3629C21.4765 28.3976 21.7987 28.3589 22.1 28.2499C22.3991 28.1337 22.6656 27.9468 22.8767 27.7052C23.0879 27.4635 23.2374 27.1744 23.3125 26.8624L24.8 20.9499C26.2382 20.7511 27.5562 20.0397 28.5117 18.9465C29.4671 17.8532 29.9956 16.4518 30 14.9999ZM21.375 26.3749L20 25.4624V20.9999H22.725L21.375 26.3749ZM24 18.9999H20V10.9999H24C25.0609 10.9999 26.0783 11.4213 26.8284 12.1715C27.5786 12.9216 28 13.939 28 14.9999C28 16.0608 27.5786 17.0782 26.8284 17.8283C26.0783 18.5785 25.0609 18.9999 24 18.9999Z" fill="#1C1C1C"/>
</svg>
