<svg width="32" height="32" viewBox="0 0 32 32" fill="none" xmlns="http://www.w3.org/2000/svg">
<path d="M27.5625 10.825L17.3 7.83749H17.2875L5.56253 4.41249C5.26393 4.32384 4.9486 4.30707 4.64229 4.36356C4.33598 4.42004 4.04737 4.54817 3.80003 4.73749C3.54944 4.92171 3.34622 5.16285 3.20713 5.44103C3.06803 5.71922 2.99705 6.02648 3.00003 6.33749V23.6625C3.00002 24.1908 3.20902 24.6976 3.58139 25.0723C3.95376 25.447 4.45927 25.6592 4.98753 25.6625C5.18167 25.663 5.37501 25.6377 5.56253 25.5875L16 22.5375V24C16 24.5304 16.2107 25.0391 16.5858 25.4142C16.9609 25.7893 17.4696 26 18 26H22C22.5305 26 23.0392 25.7893 23.4142 25.4142C23.7893 25.0391 24 24.5304 24 24V20.2125L27.5625 19.175C27.9773 19.0513 28.3411 18.7973 28.6 18.4505C28.859 18.1038 28.9993 17.6828 29 17.25V12.75C28.9993 12.3172 28.859 11.8962 28.6 11.5494C28.3411 11.2027 27.9773 10.9486 27.5625 10.825ZM22 24H18V21.9625L22 20.7875V24ZM27 17.25L22.7 18.5L18 19.875V10.125L27 12.75V17.25Z" fill="#1C1C1C"/>
</svg>
