<svg width="32" height="32" viewBox="0 0 32 32" fill="none" xmlns="http://www.w3.org/2000/svg">
<path d="M26.7375 26.3251L6.73747 4.32505C6.55681 4.13604 6.3093 4.02531 6.04798 4.01658C5.78665 4.00785 5.53231 4.10182 5.33943 4.27835C5.14655 4.45488 5.03049 4.69993 5.0161 4.961C5.00172 5.22208 5.09016 5.4784 5.26247 5.67505L9.99997 10.8876V16.0001C10.0003 17.0767 10.2902 18.1335 10.8395 19.0595C11.3888 19.9855 12.1772 20.7466 13.1219 21.2631C14.0666 21.7796 15.1329 22.0323 16.2089 21.9948C17.2849 21.9573 18.331 21.631 19.2375 21.0501L20.6 22.5501C19.463 23.3488 18.1376 23.8377 16.7543 23.9685C15.371 24.0994 13.9774 23.8676 12.7109 23.2962C11.4443 22.7247 10.3485 21.8332 9.53119 20.7095C8.71392 19.5858 8.20342 18.2686 8.04997 16.8876C8.0352 16.7571 7.99486 16.6307 7.93127 16.5158C7.86768 16.4009 7.78208 16.2996 7.67936 16.2178C7.57663 16.136 7.4588 16.0752 7.33258 16.0389C7.20636 16.0026 7.07422 15.9915 6.94372 16.0063C6.81322 16.0211 6.68691 16.0614 6.57199 16.125C6.45708 16.1886 6.35582 16.2742 6.27398 16.3769C6.19215 16.4796 6.13136 16.5975 6.09506 16.7237C6.05877 16.8499 6.0477 16.982 6.06247 17.1126C6.31466 19.3865 7.33989 21.5049 8.96672 23.1135C10.5936 24.7221 12.7234 25.7235 15 25.9501V29.0001C15 29.2653 15.1053 29.5196 15.2929 29.7072C15.4804 29.8947 15.7348 30.0001 16 30.0001C16.2652 30.0001 16.5195 29.8947 16.7071 29.7072C16.8946 29.5196 17 29.2653 17 29.0001V25.9501C18.7933 25.7749 20.5048 25.1136 21.95 24.0376L25.2625 27.6751C25.3561 27.7774 25.4701 27.8592 25.597 27.9151C25.724 27.9711 25.8612 28 26 28.0001C26.2494 27.9976 26.4894 27.9043 26.675 27.7376C26.7733 27.6498 26.853 27.5433 26.9095 27.4243C26.966 27.3052 26.9981 27.1761 27.0039 27.0445C27.0098 26.9128 26.9892 26.7814 26.9434 26.6578C26.8977 26.5343 26.8276 26.4211 26.7375 26.3251Z" fill="#1C1C1C"/>
<path d="M20.2625 16.2251C20.3557 16.3281 20.4695 16.4102 20.5966 16.4662C20.7237 16.5222 20.8611 16.5508 21 16.5501C21.1238 16.5537 21.2471 16.5325 21.3625 16.4876C21.5512 16.4142 21.7131 16.2853 21.8269 16.1179C21.9408 15.9505 22.0011 15.7525 22 15.5501V8.00007C22 6.40877 21.3678 4.88265 20.2426 3.75743C19.1174 2.63221 17.5913 2.00007 16 2.00007C14.9763 1.99518 13.9688 2.25503 13.0752 2.7544C12.1816 3.25376 11.4323 3.97568 10.9 4.85007C10.784 5.0338 10.7311 5.2503 10.7491 5.46681C10.7672 5.68332 10.8552 5.88806 11 6.05007L20.2625 16.2251Z" fill="#1C1C1C"/>
<path d="M24.025 20.2126C24.1417 20.2525 24.2641 20.2736 24.3875 20.2751C24.5886 20.2772 24.7854 20.2171 24.951 20.1029C25.1166 19.9888 25.2429 19.8263 25.3125 19.6376C25.6317 18.8273 25.8418 17.9782 25.9375 17.1126C25.9673 16.849 25.8912 16.5844 25.726 16.3769C25.5607 16.1695 25.3198 16.0362 25.0562 16.0063C24.9257 15.9915 24.7936 16.0026 24.6674 16.0389C24.5412 16.0752 24.4233 16.136 24.3206 16.2178C24.1131 16.3831 23.9798 16.624 23.95 16.8876C23.8783 17.5825 23.71 18.2641 23.45 18.9126C23.3559 19.1613 23.3634 19.4372 23.471 19.6804C23.5786 19.9237 23.7776 20.1148 24.025 20.2126Z" fill="#1C1C1C"/>
</svg>
