<svg width="32" height="32" viewBox="0 0 32 32" fill="none" xmlns="http://www.w3.org/2000/svg">
<path d="M12 10.9999C11.9976 11.3214 12.0143 11.6428 12.05 11.9624L2.7 24.7124C2.41683 25.0981 2.2813 25.5724 2.318 26.0495C2.35469 26.5265 2.56118 26.9746 2.9 27.3124L4.6875 29.0999C5.02531 29.4387 5.47338 29.6452 5.95042 29.6819C6.42746 29.7186 6.90184 29.5831 7.2875 29.2999L20.0375 19.9499C20.3571 19.9856 20.6785 20.0023 21 19.9999C22.8371 20.0001 24.63 19.4373 26.1375 18.3874C26.1969 18.3452 26.2464 18.2905 26.2824 18.2271C26.3185 18.1638 26.3402 18.0933 26.3462 18.0207C26.3521 17.9481 26.3421 17.875 26.3169 17.8066C26.2916 17.7383 26.2517 17.6762 26.2 17.6249L14.375 5.7999C14.3237 5.74816 14.2616 5.70827 14.1933 5.68302C14.1249 5.65777 14.0518 5.64777 13.9792 5.65373C13.9066 5.65968 13.8361 5.68144 13.7728 5.71749C13.7094 5.75354 13.6547 5.80299 13.6125 5.8624C12.5626 7.36986 11.9998 9.16285 12 10.9999ZM14.2125 19.2124L11.7125 21.7124C11.5214 21.8972 11.2659 22.0005 11 22.0005C10.7341 22.0005 10.4786 21.8972 10.2875 21.7124C10.0997 21.5228 9.99437 21.2667 9.99437 20.9999C9.99437 20.7331 10.0997 20.477 10.2875 20.2874L12.7875 17.7874C12.9818 17.6279 13.2285 17.5464 13.4795 17.5588C13.7306 17.5711 13.9681 17.6764 14.1458 17.8541C14.3235 18.0318 14.4288 18.2693 14.4411 18.5204C14.4535 18.7714 14.372 19.0181 14.2125 19.2124ZM29.9875 10.4999C30.098 12.5049 29.5348 14.4894 28.3875 16.1374C28.3453 16.1968 28.2906 16.2463 28.2272 16.2823C28.1639 16.3184 28.0934 16.3401 28.0208 16.3461C27.9482 16.352 27.8751 16.342 27.8067 16.3168C27.7384 16.2915 27.6763 16.2516 27.625 16.1999L15.8 4.3749C15.7483 4.32357 15.7084 4.26155 15.6831 4.19318C15.6579 4.12481 15.6479 4.05175 15.6538 3.97911C15.6598 3.90647 15.6815 3.83601 15.7176 3.77267C15.7536 3.70932 15.8031 3.65462 15.8625 3.6124C17.1773 2.69794 18.7122 2.15088 20.309 2.02766C21.9058 1.90444 23.5065 2.20953 24.946 2.91144C26.3855 3.61336 27.6116 4.68668 28.4979 6.02063C29.3841 7.35459 29.8983 8.90087 29.9875 10.4999Z" fill="#1C1C1C"/>
</svg>
