<svg width="32" height="32" viewBox="0 0 32 32" fill="none" xmlns="http://www.w3.org/2000/svg">
<path d="M28.0375 18.7875C27.9731 18.5798 27.8435 18.3983 27.6679 18.27C27.4923 18.1417 27.28 18.0733 27.0625 18.075L26.7875 18.125C24.9971 18.6192 23.1076 18.6296 21.3119 18.1552C19.5161 17.6808 17.8784 16.7385 16.5656 15.4245C15.2529 14.1105 14.3122 12.4718 13.8396 10.6756C13.3669 8.8794 13.3791 6.98994 13.875 5.20001C13.8995 5.12751 13.9122 5.05153 13.9125 4.97501C13.9244 4.81369 13.8965 4.65192 13.8312 4.50393C13.7659 4.35593 13.6653 4.22624 13.5381 4.12625C13.411 4.02626 13.2612 3.95904 13.102 3.93048C12.9428 3.90193 12.779 3.91293 12.625 3.96251C10.5235 4.55153 8.6129 5.68051 7.08316 7.23714C5.55342 8.79377 4.4579 10.7238 3.90557 12.8352C3.35324 14.9466 3.36336 17.1659 3.93491 19.2722C4.50647 21.3785 5.61954 23.2984 7.16341 24.8411C8.70728 26.3837 10.6281 27.4952 12.7349 28.065C14.8417 28.6349 17.0609 28.6432 19.1719 28.0892C21.2829 27.5351 23.212 26.438 24.7674 24.907C26.3228 23.376 27.4502 21.4645 28.0375 19.3625C28.1004 19.176 28.1004 18.974 28.0375 18.7875Z" fill="#1C1C1C"/>
</svg>
