<svg width="33" height="32" viewBox="0 0 33 32" fill="none" xmlns="http://www.w3.org/2000/svg">
<path d="M18.5 6.5C18.5 5.90666 18.6759 5.32664 19.0056 4.83329C19.3352 4.33994 19.8038 3.95543 20.352 3.72836C20.9001 3.5013 21.5033 3.44189 22.0853 3.55765C22.6672 3.6734 23.2018 3.95912 23.6213 4.37868C24.0409 4.79824 24.3266 5.33279 24.4424 5.91473C24.5581 6.49667 24.4987 7.09987 24.2716 7.64805C24.0446 8.19623 23.6601 8.66477 23.1667 8.99441C22.6734 9.32405 22.0933 9.5 21.5 9.5C20.7054 9.49671 19.9442 9.17958 19.3823 8.61769C18.8204 8.05579 18.5033 7.29464 18.5 6.5ZM32.875 25.5C32.7855 25.6525 32.6576 25.7789 32.5041 25.8666C32.3506 25.9543 32.1768 26.0003 32 26H2C1.82455 26.002 1.65182 25.9566 1.50002 25.8686C1.34821 25.7806 1.22297 25.6532 1.1375 25.5C1.04612 25.3469 0.997864 25.172 0.997864 24.9938C0.997864 24.8155 1.04612 24.6406 1.1375 24.4875L10.275 8.9625C10.4515 8.66175 10.7035 8.41236 11.0061 8.23907C11.3087 8.06578 11.6513 7.97462 12 7.97462C12.3487 7.97462 12.6913 8.06578 12.9939 8.23907C13.2965 8.41236 13.5485 8.66175 13.725 8.9625L19.0125 17.95L22.275 12.4375C22.4539 12.1398 22.7068 11.8935 23.009 11.7225C23.3113 11.5515 23.6527 11.4616 24 11.4616C24.3473 11.4616 24.6887 11.5515 24.991 11.7225C25.2932 11.8935 25.5461 12.1398 25.725 12.4375L32.8625 24.4875C32.9509 24.6411 32.9985 24.8149 33.0007 24.9921C33.0029 25.1694 32.9596 25.3442 32.875 25.5ZM9.0375 15H14.9625L12 9.975L9.0375 15Z" fill="#1C1C1C"/>
</svg>
