<svg width="32" height="32" viewBox="0 0 32 32" fill="none" xmlns="http://www.w3.org/2000/svg">
<path d="M26.2875 7.03744L16.2875 4.03744C16.137 3.99503 15.9787 3.98762 15.8249 4.01578C15.6711 4.04395 15.5257 4.10694 15.4 4.19994C15.2765 4.29375 15.1762 4.41467 15.1069 4.55338C15.0375 4.69208 15.001 4.84486 15 4.99994V18.5374C13.9052 17.5438 12.4785 16.9954 11 16.9999C9.81331 16.9999 8.65328 17.3518 7.66658 18.0111C6.67989 18.6704 5.91085 19.6075 5.45673 20.7038C5.0026 21.8002 4.88378 23.0066 5.11529 24.1705C5.3468 25.3344 5.91825 26.4035 6.75736 27.2426C7.59648 28.0817 8.66558 28.6531 9.82946 28.8847C10.9933 29.1162 12.1997 28.9973 13.2961 28.5432C14.3925 28.0891 15.3295 27.3201 15.9888 26.3334C16.6481 25.3467 17 24.1866 17 22.9999V12.3499L25.7125 14.9624C25.863 15.0049 26.0213 15.0123 26.1751 14.9841C26.3289 14.9559 26.4743 14.8929 26.6 14.7999C26.7235 14.7061 26.8238 14.5852 26.8931 14.4465C26.9625 14.3078 26.999 14.155 27 13.9999V7.99994C26.999 7.78459 26.9294 7.57515 26.8013 7.40206C26.6732 7.22897 26.4932 7.10125 26.2875 7.03744Z" fill="#1C1C1C"/>
</svg>
