<svg width="32" height="32" viewBox="0 0 32 32" fill="none" xmlns="http://www.w3.org/2000/svg">
<path d="M27.4375 11.05L6.27499 3.72495C5.91937 3.59997 5.53568 3.57803 5.16814 3.66166C4.8006 3.74528 4.46417 3.93107 4.19763 4.1976C3.9311 4.46414 3.74531 4.80057 3.66169 5.16811C3.57806 5.53565 3.60001 5.91934 3.72499 6.27495L11.05 27.4375C11.1819 27.8329 11.4355 28.1764 11.7746 28.4189C12.1136 28.6614 12.5207 28.7904 12.9375 28.7875H12.975C13.3969 28.7884 13.8077 28.6524 14.1458 28.4C14.4839 28.1475 14.731 27.7922 14.85 27.3875L17.8 17.8125L27.375 14.85C27.78 14.7296 28.1358 14.4826 28.39 14.1451C28.6443 13.8076 28.7836 13.3975 28.7875 12.975C28.7965 12.5522 28.6705 12.1376 28.4277 11.7914C28.1849 11.4452 27.838 11.1855 27.4375 11.05Z" fill="#1C1C1C"/>
</svg>
