<svg width="32" height="32" viewBox="0 0 32 32" fill="none" xmlns="http://www.w3.org/2000/svg">
<path d="M21.9875 16.25C21.3771 15.6778 20.6865 15.1978 19.9375 14.825C20.381 14.5606 20.7958 14.2506 21.175 13.9C21.8613 13.2723 22.4093 12.5085 22.7843 11.6574C23.1593 10.8062 23.3529 9.88635 23.3529 8.95627C23.3529 8.0262 23.1593 7.10631 22.7843 6.25517C22.4093 5.40402 21.8613 4.64027 21.175 4.01252C19.7621 2.71865 17.9158 2.00098 16 2.00098C14.0842 2.00098 12.2379 2.71865 10.825 4.01252C10.1387 4.64027 9.59066 5.40402 9.2157 6.25517C8.84074 7.10631 8.6471 8.0262 8.6471 8.95627C8.6471 9.88635 8.84074 10.8062 9.2157 11.6574C9.59066 12.5085 10.1387 13.2723 10.825 13.9C11.2042 14.2506 11.619 14.5606 12.0625 14.825C11.3135 15.1978 10.6229 15.6778 10.0125 16.25C9.22094 16.9749 8.58885 17.8566 8.15642 18.839C7.72399 19.8213 7.50067 20.8829 7.50067 21.9563C7.50067 23.0296 7.72399 24.0912 8.15642 25.0736C8.58885 26.056 9.22094 26.9376 10.0125 27.6625C11.6442 29.1656 13.7815 29.9999 16 29.9999C18.2185 29.9999 20.3558 29.1656 21.9875 27.6625C22.7791 26.9376 23.4112 26.056 23.8436 25.0736C24.276 24.0912 24.4993 23.0296 24.4993 21.9563C24.4993 20.8829 24.276 19.8213 23.8436 18.839C23.4112 17.8566 22.7791 16.9749 21.9875 16.25ZM12.2 12.4375C11.7126 11.998 11.3229 11.461 11.0561 10.8613C10.7894 10.2616 10.6515 9.61261 10.6515 8.95627C10.6515 8.29994 10.7894 7.65091 11.0561 7.05122C11.3229 6.45153 11.7126 5.91455 12.2 5.47502C13.2386 4.52726 14.5939 4.00182 16 4.00182C17.4061 4.00182 18.7614 4.52726 19.8 5.47502C20.2874 5.91455 20.6771 6.45153 20.9439 7.05122C21.2106 7.65091 21.3485 8.29994 21.3485 8.95627C21.3485 9.61261 21.2106 10.2616 20.9439 10.8613C20.6771 11.461 20.2874 11.998 19.8 12.4375C18.7614 13.3853 17.4061 13.9107 16 13.9107C14.5939 13.9107 13.2386 13.3853 12.2 12.4375ZM20.625 26.2125C19.3595 27.3632 17.7104 28.0008 16 28.0008C14.2896 28.0008 12.6405 27.3632 11.375 26.2125C10.7837 25.6737 10.3113 25.0174 9.98813 24.2855C9.66492 23.5537 9.49799 22.7625 9.49799 21.9625C9.49799 21.1625 9.66492 20.3713 9.98813 19.6395C10.3113 18.9077 10.7837 18.2514 11.375 17.7125C12.6366 16.5539 14.2871 15.911 16 15.911C17.7129 15.911 19.3634 16.5539 20.625 17.7125C21.2163 18.2514 21.6887 18.9077 22.0119 19.6395C22.3351 20.3713 22.502 21.1625 22.502 21.9625C22.502 22.7625 22.3351 23.5537 22.0119 24.2855C21.6887 25.0174 21.2163 25.6737 20.625 26.2125Z" fill="#1C1C1C"/>
</svg>
