<svg width="32" height="32" viewBox="0 0 32 32" fill="none" xmlns="http://www.w3.org/2000/svg">
<path d="M22.5 12V28C22.5 28.2652 22.3946 28.5196 22.2071 28.7071C22.0196 28.8946 21.7652 29 21.5 29C21.2348 29 20.9804 28.8946 20.7929 28.7071C20.6054 28.5196 20.5 28.2652 20.5 28V21H9.5C9.34049 20.9991 9.18351 20.9601 9.04216 20.8861C8.90082 20.8122 8.77921 20.7055 8.6875 20.575C8.59408 20.4445 8.53388 20.2932 8.5121 20.1342C8.49032 19.9752 8.50762 19.8133 8.5625 19.6625L14.5625 2.66251C14.667 2.43482 14.8532 2.25467 15.0843 2.1577C15.3153 2.06074 15.5743 2.05402 15.81 2.13889C16.0457 2.22375 16.241 2.39401 16.3572 2.61597C16.4734 2.83793 16.5021 3.09543 16.4375 3.33751L10.9125 19H20.5V12C20.5 11.7348 20.6054 11.4804 20.7929 11.2929C20.9804 11.1054 21.2348 11 21.5 11C21.7652 11 22.0196 11.1054 22.2071 11.2929C22.3946 11.4804 22.5 11.7348 22.5 12Z" fill="#1C1C1C"/>
</svg>
