<svg width="32" height="32" viewBox="0 0 32 32" fill="none" xmlns="http://www.w3.org/2000/svg">
<path d="M16 13C15.1733 13.0027 14.3517 13.1291 13.5625 13.375L18.8625 4.51248C18.9984 4.28373 19.0379 4.01036 18.9723 3.7525C18.9066 3.49463 18.7412 3.27341 18.5125 3.13748C18.2837 3.00156 18.0104 2.96207 17.7525 3.02771C17.4946 3.09335 17.2734 3.25873 17.1375 3.48748L9.075 16.9875L9.05 17.05C8.35846 18.2513 7.99626 19.6139 8 21C8 22.5822 8.46919 24.129 9.34824 25.4445C10.2273 26.7601 11.4767 27.7855 12.9385 28.391C14.4003 28.9965 16.0089 29.1549 17.5607 28.8463C19.1126 28.5376 20.538 27.7757 21.6569 26.6568C22.7757 25.538 23.5376 24.1126 23.8463 22.5607C24.155 21.0089 23.9965 19.4003 23.391 17.9385C22.7855 16.4767 21.7602 15.2273 20.4446 14.3482C19.129 13.4692 17.5822 13 16 13ZM16 27C14.9392 26.997 13.8981 26.7135 12.9824 26.1782C12.0666 25.6429 11.3088 24.8748 10.7858 23.9519C10.2628 23.0291 9.99322 21.9843 10.0045 20.9236C10.0158 19.8629 10.3075 18.824 10.85 17.9125L10.875 17.875C11.4203 16.9813 12.1899 16.2458 13.1074 15.7416C14.025 15.2374 15.0584 14.9821 16.1052 15.001C17.152 15.0198 18.1756 15.3123 19.0743 15.8493C19.973 16.3862 20.7156 17.149 21.2283 18.0618C21.741 18.9746 22.0059 20.0057 21.9967 21.0526C21.9875 22.0995 21.7046 23.1257 21.176 24.0294C20.6474 24.9331 19.8915 25.6827 18.9835 26.2039C18.0755 26.725 17.0469 26.9995 16 27Z" fill="#1C1C1C"/>
</svg>
