<svg width="32" height="32" viewBox="0 0 32 32" fill="none" xmlns="http://www.w3.org/2000/svg">
<path d="M16.5 29C16.2348 29 15.9804 28.8947 15.7929 28.7071C15.6054 28.5196 15.5 28.2652 15.5 28V5.87501L11.05 8.82501C10.9408 8.89808 10.8184 8.94893 10.6896 8.97466C10.5607 9.00039 10.4281 9.00049 10.2993 8.97495C10.1704 8.94941 10.0479 8.89874 9.93862 8.82583C9.82936 8.75291 9.73553 8.65919 9.6625 8.55001C9.51939 8.32709 9.46935 8.05697 9.52309 7.79759C9.57684 7.5382 9.7301 7.3102 9.95 7.16251L15.95 3.16251C16.1019 3.06602 16.2762 3.01067 16.4559 3.0019C16.6356 2.99314 16.8145 3.03125 16.975 3.11251C17.1349 3.1988 17.2682 3.32701 17.3607 3.48337C17.4532 3.63973 17.5014 3.81834 17.5 4.00001V28C17.5 28.2652 17.3946 28.5196 17.2071 28.7071C17.0196 28.8947 16.7652 29 16.5 29Z" fill="#1C1C1C"/>
</svg>
