<svg width="32" height="32" viewBox="0 0 32 32" fill="none" xmlns="http://www.w3.org/2000/svg">
<path d="M28.825 3.17504C28.4545 2.80315 28.0143 2.50806 27.5295 2.30671C27.0447 2.10536 26.5249 2.00171 26 2.00171C25.4751 2.00171 24.9553 2.10536 24.4705 2.30671C23.9857 2.50806 23.5455 2.80315 23.175 3.17504L23.1375 3.21254L16.275 10.8625L15.125 9.71254C14.8471 9.43136 14.5162 9.20812 14.1515 9.05575C13.7867 8.90339 13.3953 8.82493 13 8.82493C12.6047 8.82493 12.2133 8.90339 11.8485 9.05575C11.4838 9.20812 11.1529 9.43136 10.875 9.71254L1.28751 19.2875C1.09973 19.4771 0.994385 19.7332 0.994385 20C0.994385 20.2669 1.09973 20.5229 1.28751 20.7125L11.2875 30.7125C11.4787 30.8974 11.7341 31.0007 12 31.0007C12.2659 31.0007 12.5214 30.8974 12.7125 30.7125L22.2875 21.125C22.5687 20.8472 22.7919 20.5163 22.9443 20.1515C23.0967 19.7867 23.1751 19.3954 23.1751 19C23.1751 18.6047 23.0967 18.2133 22.9443 17.8486C22.7919 17.4838 22.5687 17.1529 22.2875 16.875L21.1375 15.725L28.7875 8.86254L28.825 8.82504C29.1969 8.45457 29.492 8.01431 29.6933 7.52953C29.8947 7.04475 29.9983 6.52498 29.9983 6.00004C29.9983 5.47511 29.8947 4.95534 29.6933 4.47055C29.492 3.98577 29.1969 3.54551 28.825 3.17504ZM12 28.5875L10.2375 26.825L13.425 23.625C13.5974 23.4348 13.69 23.1856 13.6837 22.929C13.6773 22.6724 13.5726 22.428 13.3911 22.2465C13.2096 22.065 12.9652 21.9602 12.7086 21.9539C12.452 21.9476 12.2027 22.0402 12.0125 22.2125L8.82501 25.4125L6.73751 23.325L9.92501 20.125C10.0974 19.9348 10.19 19.6856 10.1837 19.429C10.1773 19.1724 10.0726 18.928 9.89107 18.7465C9.70956 18.565 9.46519 18.4602 9.20857 18.4539C8.95196 18.4476 8.70273 18.5402 8.51251 18.7125L5.32501 21.9125L3.41251 20L9.00001 14.4125L17.5875 23L12 28.5875Z" fill="#1C1C1C"/>
</svg>
