<svg width="32" height="32" viewBox="0 0 32 32" fill="none" xmlns="http://www.w3.org/2000/svg">
<path d="M28.125 2.875C25.4625 2.875 22.4625 4.35 19.2375 7.2375C16.975 9.2625 15.0375 11.575 13.7 13.325C12.5781 12.9835 11.3919 12.9094 10.2363 13.1087C9.08066 13.3079 7.98771 13.7748 7.04493 14.4722C6.10215 15.1696 5.33571 16.078 4.80697 17.1247C4.27822 18.1714 4.00186 19.3273 3.99999 20.5C3.99999 24.4 1.97499 26.1375 1.87499 26.225C1.71214 26.3508 1.59392 26.5256 1.53767 26.7236C1.48143 26.9215 1.49013 27.1323 1.56249 27.325C1.62642 27.5227 1.75186 27.6949 1.92051 27.8163C2.08916 27.9377 2.29219 28.0021 2.49999 28H11.5C12.6727 27.9981 13.8286 27.7218 14.8753 27.193C15.922 26.6643 16.8304 25.8978 17.5278 24.9551C18.2251 24.0123 18.6921 22.9193 18.8913 21.7637C19.0905 20.6081 19.0165 19.4219 18.675 18.3C20.425 16.9625 22.7375 15.025 24.7625 12.7625C27.65 9.5375 29.125 6.5375 29.125 3.875C29.125 3.60978 29.0196 3.35543 28.8321 3.16789C28.6446 2.98036 28.3902 2.875 28.125 2.875ZM15.55 14.2C15.9125 13.7375 16.3375 13.2125 16.825 12.6375C17.8255 13.313 18.687 14.1745 19.3625 15.175C18.7875 15.6625 18.2625 16.0875 17.8 16.45C17.2214 15.5462 16.4538 14.7786 15.55 14.2ZM20.875 13.8375C20.1271 12.7895 19.2105 11.8729 18.1625 11.125C20.6125 8.475 23.9125 5.575 27.0125 4.9875C26.425 8.0875 23.525 11.3875 20.875 13.8375Z" fill="#1C1C1C"/>
</svg>
