<svg width="32" height="32" viewBox="0 0 32 32" fill="none" xmlns="http://www.w3.org/2000/svg">
<path d="M25.1 6.7375C22.6779 4.34086 19.4074 2.99762 16 3H15.8625C12.8052 3.0299 9.85627 4.1364 7.53396 6.12505C5.21165 8.1137 3.66456 10.8572 3.16459 13.8735C2.66461 16.8898 3.24374 19.9858 4.80021 22.6174C6.35667 25.249 8.79086 27.2478 11.675 28.2625C12.2781 28.4743 12.9233 28.5384 13.5563 28.4495C14.1893 28.3606 14.7918 28.1212 15.3133 27.7515C15.8348 27.3818 16.2601 26.8925 16.5536 26.3246C16.847 25.7567 17.0001 25.1267 17 24.4875V24C17 23.4696 17.2107 22.9609 17.5858 22.5858C17.9608 22.2107 18.4695 22 19 22H24.775C25.6833 22.0068 26.5664 21.7013 27.2764 21.1347C27.9864 20.5681 28.4802 19.7747 28.675 18.8875C28.9023 17.904 29.0114 16.8969 29 15.8875C28.9899 14.1798 28.6398 12.4912 27.9702 10.9203C27.3006 9.3493 26.3249 7.9274 25.1 6.7375ZM11.125 20.55C10.868 20.6981 10.5729 20.7666 10.2769 20.747C9.98096 20.7274 9.69747 20.6205 9.46226 20.4398C9.22706 20.2591 9.05071 20.0127 8.9555 19.7318C8.86029 19.4509 8.8505 19.1481 8.92735 18.8616C9.00421 18.5751 9.16427 18.3179 9.3873 18.1224C9.61034 17.9268 9.88633 17.8018 10.1804 17.7631C10.4745 17.7244 10.7734 17.7738 11.0394 17.9049C11.3054 18.0361 11.5266 18.2432 11.675 18.5C11.7736 18.6707 11.8376 18.8591 11.8633 19.0546C11.889 19.25 11.876 19.4486 11.8249 19.639C11.7738 19.8294 11.6857 20.0078 11.5656 20.1642C11.4455 20.3205 11.2958 20.4516 11.125 20.55ZM11.675 13.5C11.5266 13.7568 11.3054 13.9639 11.0394 14.0951C10.7734 14.2262 10.4745 14.2756 10.1804 14.2369C9.88633 14.1982 9.61034 14.0732 9.3873 13.8776C9.16427 13.6821 9.00421 13.4249 8.92735 13.1384C8.8505 12.8519 8.86029 12.5491 8.9555 12.2682C9.05071 11.9873 9.22706 11.7409 9.46226 11.5602C9.69747 11.3795 9.98096 11.2726 10.2769 11.253C10.5729 11.2334 10.868 11.3019 11.125 11.45C11.4674 11.6511 11.717 11.9788 11.8199 12.3623C11.9228 12.7459 11.8708 13.1545 11.675 13.5ZM16 11C15.7033 11 15.4133 10.912 15.1666 10.7472C14.92 10.5824 14.7277 10.3481 14.6142 10.074C14.5006 9.79994 14.4709 9.49834 14.5288 9.20737C14.5867 8.9164 14.7295 8.64912 14.9393 8.43934C15.1491 8.22956 15.4164 8.0867 15.7073 8.02883C15.9983 7.97095 16.2999 8.00065 16.574 8.11418C16.8481 8.22772 17.0824 8.41997 17.2472 8.66665C17.412 8.91332 17.5 9.20333 17.5 9.5C17.5 9.89783 17.3419 10.2794 17.0606 10.5607C16.7793 10.842 16.3978 11 16 11ZM22.375 14.05C22.118 14.1981 21.8229 14.2666 21.5269 14.247C21.231 14.2274 20.9475 14.1205 20.7123 13.9398C20.4771 13.7591 20.3007 13.5127 20.2055 13.2318C20.1103 12.9509 20.1005 12.6481 20.1774 12.3616C20.2542 12.0751 20.4143 11.8179 20.6373 11.6224C20.8603 11.4268 21.1363 11.3018 21.4304 11.2631C21.7245 11.2244 22.0234 11.2738 22.2894 11.4049C22.5554 11.5361 22.7766 11.7432 22.925 12C23.1208 12.3455 23.1728 12.7541 23.0699 13.1377C22.967 13.5212 22.7174 13.8489 22.375 14.05Z" fill="#1C1C1C"/>
</svg>
