<svg width="32" height="32" viewBox="0 0 32 32" fill="none" xmlns="http://www.w3.org/2000/svg">
<path d="M28.4625 6.03738L21.9125 29.2749C21.8032 29.6684 21.5755 30.0186 21.2601 30.2781C20.9448 30.5375 20.5571 30.6935 20.15 30.7249H19.975C19.5983 30.724 19.2295 30.6168 18.911 30.4156C18.5926 30.2143 18.3374 29.9273 18.175 29.5874L13.7125 20.1624C13.6687 20.0677 13.6548 19.962 13.6726 19.8593C13.6905 19.7565 13.7393 19.6617 13.8125 19.5874L20.225 13.1749C20.3254 13.0839 20.4062 12.9735 20.4627 12.8504C20.5191 12.7272 20.5499 12.5939 20.5532 12.4584C20.5566 12.323 20.5323 12.1883 20.482 12.0626C20.4318 11.9368 20.3564 11.8225 20.2606 11.7267C20.1648 11.6309 20.0506 11.5556 19.9248 11.5053C19.799 11.455 19.6643 11.4308 19.5289 11.4341C19.3935 11.4375 19.2602 11.4683 19.137 11.5247C19.0138 11.5811 18.9034 11.662 18.8125 11.7624L12.4 18.1874C12.3257 18.2606 12.2308 18.3094 12.1281 18.3272C12.0254 18.3451 11.9196 18.3312 11.825 18.2874L2.44998 13.8499C2.08305 13.6766 1.77499 13.3995 1.56393 13.0529C1.35286 12.7063 1.24806 12.3054 1.26248 11.8999C1.28461 11.4823 1.43786 11.0824 1.70044 10.757C1.96301 10.4316 2.32153 10.1972 2.72498 10.0874L26.0125 3.52488C26.4198 3.40856 26.8535 3.42457 27.2511 3.57059C27.6488 3.71661 27.9898 3.98511 28.225 4.33738C28.3828 4.58772 28.4856 4.86875 28.5265 5.16184C28.5675 5.45493 28.5457 5.75338 28.4625 6.03738Z" fill="#1C1C1C"/>
</svg>
