<svg width="32" height="32" viewBox="0 0 32 32" fill="none" xmlns="http://www.w3.org/2000/svg">
<path d="M27.925 14.25L6.86248 2.46247C6.51153 2.25781 6.10741 2.16275 5.70203 2.18947C5.29665 2.2162 4.90852 2.36351 4.58748 2.61247C4.25961 2.87115 4.02156 3.22655 3.90712 3.62819C3.79269 4.02984 3.80768 4.45733 3.94998 4.84997L7.46248 14.6625C7.49801 14.7603 7.56249 14.845 7.64734 14.9053C7.7322 14.9656 7.8334 14.9986 7.93748 15H16.9625C17.222 14.9959 17.4734 15.0903 17.6659 15.2643C17.8585 15.4383 17.9779 15.6789 18 15.9375C18.0085 16.074 17.989 16.2107 17.9426 16.3394C17.8962 16.468 17.8239 16.5858 17.7301 16.6853C17.6364 16.7849 17.5233 16.8642 17.3977 16.9183C17.2721 16.9725 17.1367 17.0002 17 17H7.93748C7.8334 17.0013 7.7322 17.0344 7.64734 17.0946C7.56249 17.1549 7.49801 17.2396 7.46248 17.3375L3.94998 27.15C3.84458 27.4523 3.81283 27.7753 3.85734 28.0924C3.90186 28.4094 4.02136 28.7112 4.20593 28.9728C4.3905 29.2344 4.63481 29.4481 4.91857 29.5963C5.20232 29.7446 5.51735 29.8229 5.83748 29.825C6.17814 29.8234 6.51311 29.7375 6.81248 29.575L27.925 17.75C28.2343 17.5743 28.4915 17.3198 28.6704 17.0124C28.8494 16.705 28.9437 16.3557 28.9437 16C28.9437 15.6443 28.8494 15.2949 28.6704 14.9875C28.4915 14.6801 28.2343 14.4256 27.925 14.25Z" fill="#1C1C1C"/>
</svg>
