<svg width="32" height="32" viewBox="0 0 32 32" fill="none" xmlns="http://www.w3.org/2000/svg">
<path d="M24 23H5.75001C3.05001 23 0.850006 20.7625 0.850006 18C0.850006 15.2375 3.05001 13 5.75001 13H23.75C24.5457 13 25.3087 13.3161 25.8713 13.8787C26.4339 14.4413 26.75 15.2044 26.75 16C26.75 16.7956 26.4339 17.5587 25.8713 18.1213C25.3087 18.6839 24.5457 19 23.75 19H9.75001C9.48479 19 9.23044 18.8946 9.0429 18.7071C8.85536 18.5196 8.75001 18.2652 8.75001 18C8.75001 17.7348 8.85536 17.4804 9.0429 17.2929C9.23044 17.1054 9.48479 17 9.75001 17H23.75C24.0152 17 24.2696 16.8946 24.4571 16.7071C24.6446 16.5196 24.75 16.2652 24.75 16C24.75 15.7348 24.6446 15.4804 24.4571 15.2929C24.2696 15.1054 24.0152 15 23.75 15H5.75001C4.15001 15 2.85001 16.35 2.85001 18C2.85001 19.65 4.15001 21 5.75001 21H24C25.3261 21 26.5979 20.4732 27.5355 19.5355C28.4732 18.5979 29 17.3261 29 16C29 14.6739 28.4732 13.4021 27.5355 12.4645C26.5979 11.5268 25.3261 11 24 11H10C9.73479 11 9.48044 10.8946 9.2929 10.7071C9.10536 10.5196 9.00001 10.2652 9.00001 10C9.00001 9.73478 9.10536 9.48043 9.2929 9.29289C9.48044 9.10536 9.73479 9 10 9H24C25.8565 9 27.637 9.7375 28.9498 11.0503C30.2625 12.363 31 14.1435 31 16C31 17.8565 30.2625 19.637 28.9498 20.9497C27.637 22.2625 25.8565 23 24 23Z" fill="#1C1C1C"/>
</svg>
