<svg width="32" height="32" viewBox="0 0 32 32" fill="none" xmlns="http://www.w3.org/2000/svg">
<path d="M26.2125 15.2875C26.3986 15.4787 26.5017 15.7357 26.4994 16.0026C26.497 16.2694 26.3894 16.5246 26.2 16.7125L15.95 26.95C14.6372 28.2628 12.8566 29.0004 11 29.0004C9.14338 29.0004 7.36281 28.2628 6.04999 26.95C4.73717 25.6372 3.99963 23.8566 3.99963 22C3.99963 20.1434 4.73717 18.3628 6.04999 17.05L18.4625 4.475C18.9217 3.99077 19.4733 3.60338 20.0846 3.33566C20.6959 3.06794 21.3547 2.92531 22.022 2.91618C22.6893 2.90705 23.3517 3.03161 23.9701 3.2825C24.5885 3.5334 25.1505 3.90556 25.6228 4.37705C26.0951 4.84854 26.4683 5.40982 26.7203 6.02779C26.9722 6.64576 27.098 7.30793 27.09 7.97526C27.0821 8.64259 26.9406 9.30158 26.674 9.91337C26.4073 10.5252 26.0209 11.0774 25.5375 11.5375L13.125 24.1125C12.8475 24.3942 12.5167 24.6178 12.1518 24.7702C11.787 24.9226 11.3954 25.0007 11 25C10.4056 25.0015 9.82412 24.8263 9.32942 24.4968C8.83472 24.1672 8.44906 23.6981 8.22139 23.1491C7.99372 22.6 7.9343 21.9956 8.05067 21.4127C8.16703 20.8298 8.45394 20.2946 8.87499 19.875L19.2875 9.3C19.3776 9.19894 19.4873 9.11722 19.6099 9.05981C19.7325 9.0024 19.8655 8.97049 20.0009 8.96602C20.1362 8.96154 20.271 8.98459 20.3972 9.03377C20.5233 9.08296 20.6382 9.15724 20.7347 9.25213C20.8313 9.34702 20.9076 9.46054 20.959 9.5858C21.0104 9.71106 21.0359 9.84545 21.0338 9.98083C21.0317 10.1162 21.0022 10.2498 20.9469 10.3734C20.8917 10.497 20.8119 10.6081 20.7125 10.7L10.3 21.2875C10.2052 21.3804 10.1299 21.4913 10.0784 21.6136C10.0268 21.7359 10.0002 21.8673 9.99999 22C10.0037 22.1967 10.0646 22.3881 10.1753 22.5508C10.286 22.7135 10.4417 22.8404 10.6234 22.9159C10.805 22.9915 11.0048 23.0125 11.1982 22.9764C11.3917 22.9403 11.5704 22.8486 11.7125 22.7125L24.1125 10.125C24.3942 9.84755 24.6178 9.51673 24.7702 9.15186C24.9226 8.78699 25.0007 8.39541 25 8C25.0015 7.40559 24.8263 6.82414 24.4968 6.32943C24.1672 5.83473 23.6981 5.44907 23.149 5.2214C22.6 4.99373 21.9956 4.93431 21.4127 5.05068C20.8298 5.16705 20.2946 5.45396 19.875 5.875L7.47499 18.4625C6.99076 18.9218 6.60336 19.4733 6.33564 20.0846C6.06792 20.6959 5.92529 21.3547 5.91617 22.022C5.90704 22.6893 6.03159 23.3517 6.28249 23.9701C6.53339 24.5885 6.90555 25.1505 7.37704 25.6228C7.84853 26.0951 8.4098 26.4683 9.02778 26.7203C9.64575 26.9723 10.3079 27.098 10.9752 27.09C11.6426 27.0821 12.3016 26.9406 12.9134 26.674C13.5252 26.4073 14.0774 26.0209 14.5375 25.5375L24.7875 15.2875C24.9771 15.0997 25.2331 14.9944 25.5 14.9944C25.7668 14.9944 26.0229 15.0997 26.2125 15.2875Z" fill="#1C1C1C"/>
</svg>
