<svg width="32" height="32" viewBox="0 0 32 32" fill="none" xmlns="http://www.w3.org/2000/svg">
<path d="M11.9875 6C11.9875 5.20888 12.2221 4.43552 12.6616 3.77772C13.1012 3.11992 13.7259 2.60723 14.4568 2.30448C15.1877 2.00173 15.992 1.92252 16.7679 2.07686C17.5438 2.2312 18.2565 2.61216 18.8159 3.17157C19.3754 3.73098 19.7563 4.44372 19.9107 5.21964C20.065 5.99556 19.9858 6.79983 19.683 7.53074C19.3803 8.26164 18.8676 8.88635 18.2098 9.32588C17.552 9.76541 16.7786 10 15.9875 10C14.9266 10 13.9092 9.57857 13.1591 8.82843C12.4089 8.07828 11.9875 7.06087 11.9875 6ZM28.5125 15.1375C28.3 15.0125 23.2 12 16 12C8.80001 12 3.70001 15.0125 3.48751 15.1375C3.25876 15.2734 3.09338 15.4947 3.02774 15.7525C2.9621 16.0104 3.00159 16.2838 3.13751 16.5125C3.27344 16.7413 3.49466 16.9066 3.75253 16.9723C4.01039 17.0379 4.28376 16.9984 4.51251 16.8625C4.56251 16.825 8.87501 14.2875 15 14.025V18.625L7.25001 27.3375C7.07431 27.5364 6.98482 27.797 7.00122 28.0619C7.01763 28.3268 7.1386 28.5743 7.33751 28.75C7.53643 28.9257 7.79699 29.0152 8.06188 28.9988C8.32678 28.9824 8.57431 28.8614 8.75001 28.6625L16 20.5L23.25 28.6625C23.344 28.7687 23.4594 28.8537 23.5887 28.9119C23.718 28.9701 23.8582 29.0001 24 29C24.2437 28.9991 24.479 28.9104 24.6625 28.75C24.7611 28.6631 24.8416 28.5575 24.8993 28.4395C24.9571 28.3214 24.991 28.1931 24.9991 28.0619C25.0072 27.9307 24.9894 27.7992 24.9467 27.6749C24.9039 27.5506 24.8371 27.436 24.75 27.3375L17 18.625V14.025C23.1 14.2875 27.4375 16.825 27.4875 16.8625C27.6444 16.9499 27.8204 16.9972 28 17C28.2201 17.0014 28.4345 16.9302 28.61 16.7974C28.7855 16.6645 28.9123 16.4775 28.9707 16.2653C29.029 16.0531 29.0158 15.8276 28.933 15.6237C28.8501 15.4198 28.7023 15.2489 28.5125 15.1375Z" fill="#1C1C1C"/>
</svg>
