<svg width="32" height="32" viewBox="0 0 32 32" fill="none" xmlns="http://www.w3.org/2000/svg">
<path d="M15 6C15 5.20888 15.2346 4.43552 15.6741 3.77772C16.1137 3.11992 16.7384 2.60723 17.4693 2.30448C18.2002 2.00173 19.0045 1.92252 19.7804 2.07686C20.5563 2.2312 21.269 2.61216 21.8284 3.17157C22.3879 3.73098 22.7688 4.44372 22.9232 5.21964C23.0775 5.99556 22.9983 6.79983 22.6955 7.53074C22.3928 8.26164 21.8801 8.88635 21.2223 9.32588C20.5645 9.76541 19.7911 10 19 10C17.9402 9.99671 16.9247 9.57422 16.1752 8.82479C15.4258 8.07536 15.0033 7.05985 15 6ZM26 17C22.4375 17 20.7875 15.2375 19.05 13.3625C18.6125 12.8875 18.15 12.4 17.675 11.9625C13.025 7.6625 5.61251 14.975 5.28751 15.2875C5.17827 15.3772 5.089 15.4887 5.02546 15.6149C4.96192 15.7412 4.92551 15.8793 4.91858 16.0205C4.91164 16.1617 4.93434 16.3027 4.98521 16.4346C5.03607 16.5664 5.11398 16.6862 5.21391 16.7861C5.31385 16.886 5.4336 16.9639 5.56546 17.0148C5.69732 17.0657 5.83837 17.0884 5.97953 17.0814C6.12069 17.0745 6.25883 17.0381 6.38507 16.9746C6.51131 16.911 6.62285 16.8217 6.71251 16.7125C7.86041 15.5941 9.14074 14.6202 10.525 13.8125C12.3125 12.7875 13.8125 12.425 14.9875 12.7125L12.775 17.8L8.08751 28.6C8.03378 28.7197 8.00442 28.8488 8.00115 28.98C7.99788 29.1111 8.02077 29.2416 8.06848 29.3637C8.11619 29.4859 8.18777 29.5974 8.27903 29.6916C8.37029 29.7858 8.47941 29.8609 8.60001 29.9125C8.72471 29.9724 8.86168 30.0024 9.00001 30C9.19426 30.0008 9.38445 29.9443 9.54675 29.8376C9.70906 29.7309 9.83629 29.5787 9.91251 29.4L14.1125 19.7375L18 22.5125V29C18 29.2652 18.1054 29.5196 18.2929 29.7071C18.4804 29.8946 18.7348 30 19 30C19.2652 30 19.5196 29.8946 19.7071 29.7071C19.8947 29.5196 20 29.2652 20 29V22C20.0012 21.8401 19.9631 21.6824 19.889 21.5407C19.8149 21.399 19.7071 21.2777 19.575 21.1875L14.9375 17.8625L16.7 13.8L17.5875 14.725C19.3625 16.625 21.5625 19 26 19C26.2652 19 26.5196 18.8946 26.7071 18.7071C26.8947 18.5196 27 18.2652 27 18C27 17.7348 26.8947 17.4804 26.7071 17.2929C26.5196 17.1054 26.2652 17 26 17Z" fill="#1C1C1C"/>
</svg>
