<svg width="32" height="32" viewBox="0 0 32 32" fill="none" xmlns="http://www.w3.org/2000/svg">
<path d="M15 7C15 6.20888 15.2346 5.43552 15.6741 4.77772C16.1136 4.11992 16.7383 3.60723 17.4693 3.30448C18.2002 3.00173 19.0044 2.92252 19.7803 3.07686C20.5563 3.2312 21.269 3.61216 21.8284 4.17157C22.3878 4.73098 22.7688 5.44372 22.9231 6.21964C23.0775 6.99556 22.9983 7.79983 22.6955 8.53074C22.3928 9.26164 21.8801 9.88635 21.2223 10.3259C20.5645 10.7654 19.7911 11 19 11C17.9401 10.9967 16.9246 10.5742 16.1752 9.82479C15.4258 9.07536 15.0033 8.05985 15 7ZM28 16.7C28 16.4348 27.8946 16.1804 27.7071 15.9929C27.5196 15.8054 27.2652 15.7 27 15.7C26.8389 15.6987 26.68 15.7374 26.5375 15.8125H26.55C26.5375 15.8125 25.7375 16.2 24.275 16.05C22.8125 15.9 20.5875 15.25 17.6125 12.9125C15.7375 11.45 12.825 9.8375 9.56249 10.4625C7.58749 10.8375 6.44999 11.85 6.32499 11.9625C6.22669 12.0502 6.14694 12.1568 6.09044 12.2758C6.03394 12.3948 6.00184 12.5239 5.99601 12.6556C5.99019 12.7872 6.01076 12.9187 6.05653 13.0422C6.10229 13.1658 6.17232 13.2789 6.26249 13.375C6.44154 13.5705 6.69092 13.687 6.9558 13.6987C7.22067 13.7104 7.47936 13.6165 7.67499 13.4375C7.81249 13.3125 10.9 10.6375 15.75 14.0125C15.1558 16.0032 14.2303 17.8794 13.0125 19.5625L12.7125 19.95C10.35 22.975 7.44999 24.325 4.09999 23.9875C3.83477 23.961 3.56988 24.0409 3.36359 24.2097C3.1573 24.3785 3.02651 24.6223 2.99999 24.8875C2.97346 25.1527 3.05339 25.4176 3.22217 25.6239C3.39095 25.8302 3.63477 25.961 3.89999 25.9875C4.31249 26.025 4.69999 26.0375 5.08749 26.0375C9.16249 26.0375 12.1625 23.8625 14.2375 21.25C16.6625 21.9 21 23.775 21 28.9875C21 29.2527 21.1053 29.5071 21.2929 29.6946C21.4804 29.8821 21.7348 29.9875 22 29.9875C22.2652 29.9875 22.5196 29.8821 22.7071 29.6946C22.8946 29.5071 23 29.2527 23 28.9875C23 25.9 21.7375 23.3125 19.35 21.5C18.05 20.5125 16.6 19.9 15.45 19.525C16.2777 18.1854 16.9487 16.7552 17.45 15.2625C20.675 17.5 23.225 18.05 24.95 18.05C26.675 18.05 27.3875 17.6125 27.4625 17.5625C27.6227 17.4821 27.7577 17.359 27.8525 17.2068C27.9473 17.0547 27.9984 16.8793 28 16.7Z" fill="#1C1C1C"/>
</svg>
