<svg width="32" height="32" viewBox="0 0 32 32" fill="none" xmlns="http://www.w3.org/2000/svg">
<path d="M15.9875 10C18.4728 10 20.4875 7.98528 20.4875 5.5C20.4875 3.01472 18.4728 1 15.9875 1C13.5022 1 11.4875 3.01472 11.4875 5.5C11.4875 7.98528 13.5022 10 15.9875 10Z" fill="#1C1C1C"/>
<path d="M26.4625 17.4375L21.5375 11.1125L21.4625 11.025C21.1383 10.6989 20.7526 10.4404 20.3277 10.2644C19.9029 10.0885 19.4473 9.99861 18.9875 10H12.9875C12.5276 9.99861 12.0721 10.0885 11.6472 10.2644C11.2224 10.4404 10.8367 10.6989 10.5125 11.025L10.425 11.1125L5.51249 17.4375C5.04338 17.9066 4.77985 18.5429 4.77985 19.2063C4.77985 19.8697 5.04338 20.5059 5.51249 20.975C5.98159 21.4441 6.61783 21.7077 7.28124 21.7077C7.94465 21.7077 8.58089 21.4441 9.04999 20.975L10.8125 19.6L8.32499 27.4375C8.07805 28.022 8.06019 28.678 8.27499 29.275C8.38731 29.5848 8.56007 29.8692 8.78324 30.1117C9.00641 30.3542 9.27554 30.5499 9.57499 30.6875C9.86986 30.828 10.1899 30.9081 10.5161 30.9232C10.8424 30.9382 11.1684 30.8878 11.475 30.775C12.0759 30.557 12.5717 30.1193 12.8625 29.55L15.9875 24.625L19.1125 29.55C19.4022 30.1154 19.8926 30.5522 20.4875 30.775C20.7645 30.8732 21.0561 30.9239 21.35 30.925C21.7135 30.9268 22.0726 30.8456 22.4 30.6875C23.0024 30.4062 23.4695 29.8986 23.7 29.275C23.9172 28.6774 23.8948 28.019 23.6375 27.4375L21.1625 19.6L22.925 20.975C23.3982 21.4227 24.0275 21.668 24.6789 21.6587C25.3303 21.6493 25.9523 21.3861 26.4125 20.925C26.6444 20.6941 26.8279 20.4194 26.9524 20.1167C27.0769 19.8141 27.1398 19.4897 27.1375 19.1625C27.143 18.5221 26.9012 17.9042 26.4625 17.4375Z" fill="#1C1C1C"/>
</svg>
