<svg width="32" height="32" viewBox="0 0 32 32" fill="none" xmlns="http://www.w3.org/2000/svg">
<path d="M15.1125 13.5374H15.1L11.225 9.2499H11.2125L6.73748 4.3249C6.55682 4.13589 6.30931 4.02516 6.04799 4.01643C5.78667 4.0077 5.53232 4.10167 5.33944 4.2782C5.14657 4.45473 5.0305 4.69978 5.01612 4.96085C5.00173 5.22192 5.09017 5.47824 5.26248 5.6749L8.74998 9.5124C6.70721 10.4158 4.85055 11.6917 3.27498 13.2749C2.07188 14.4806 1.34876 16.0831 1.24065 17.7829C1.13254 19.4828 1.64683 21.164 2.68748 22.5124C2.87629 22.7492 3.1158 22.9406 3.38837 23.0726C3.66095 23.2045 3.95965 23.2737 4.26248 23.2749C4.5145 23.2729 4.76418 23.2264 4.99998 23.1374L10.925 20.7624C11.2325 20.6383 11.5043 20.4396 11.716 20.1843C11.9276 19.929 12.0725 19.6251 12.1375 19.2999L12.875 15.6124C13.2469 15.4835 13.6269 15.3791 14.0125 15.2999L25.2625 27.6749C25.3561 27.7773 25.4701 27.859 25.597 27.915C25.724 27.9709 25.8612 27.9999 26 27.9999C26.2494 27.9975 26.4894 27.9041 26.675 27.7374C26.7733 27.6497 26.853 27.5431 26.9095 27.4241C26.966 27.3051 26.9981 27.176 27.004 27.0443C27.0098 26.9127 26.9892 26.7812 26.9434 26.6577C26.8977 26.5341 26.8277 26.421 26.7375 26.3249L15.1125 13.5374Z" fill="#1C1C1C"/>
<path d="M28.725 13.2749C26.9348 11.4878 24.789 10.097 22.4267 9.19256C20.0644 8.28813 17.5384 7.89031 15.0125 8.0249C14.8228 8.03424 14.6396 8.09743 14.4845 8.20707C14.3294 8.31671 14.2087 8.46825 14.1366 8.64398C14.0645 8.8197 14.0439 9.01234 14.0773 9.19933C14.1106 9.38633 14.1966 9.55996 14.325 9.6999L26.125 22.6749C26.2233 22.787 26.3478 22.8729 26.4875 22.9249L27 23.1374C27.2358 23.2264 27.4855 23.2729 27.7375 23.2749C28.0403 23.2737 28.339 23.2045 28.6116 23.0726C28.8842 22.9406 29.1237 22.7492 29.3125 22.5124C30.3532 21.164 30.8674 19.4828 30.7593 17.7829C30.6512 16.0831 29.9281 14.4806 28.725 13.2749Z" fill="#1C1C1C"/>
</svg>
