<svg width="32" height="32" viewBox="0 0 32 32" fill="none" xmlns="http://www.w3.org/2000/svg">
<path d="M28.725 11.2751C21.7125 4.2501 10.2875 4.2501 3.27498 11.2751C2.07188 12.4808 1.34876 14.0833 1.24065 15.7831C1.13254 17.483 1.64683 19.1642 2.68748 20.5126C2.87629 20.7494 3.1158 20.9408 3.38837 21.0728C3.66095 21.2047 3.95965 21.2739 4.26248 21.2751C4.5145 21.2731 4.76418 21.2266 4.99998 21.1376L10.925 18.7626C11.2325 18.6385 11.5043 18.4398 11.716 18.1845C11.9276 17.9292 12.0725 17.6253 12.1375 17.3001L12.875 13.6126C14.8864 12.9152 17.0733 12.9108 19.0875 13.6001L19.8625 17.3126C19.9283 17.6359 20.0737 17.9378 20.2853 18.191C20.497 18.4441 20.7684 18.6406 21.075 18.7626L27 21.1376C27.4015 21.295 27.843 21.3192 28.2594 21.2066C28.6757 21.0941 29.0449 20.8508 29.3125 20.5126C30.3531 19.1642 30.8674 17.483 30.7593 15.7831C30.6512 14.0833 29.9281 12.4808 28.725 11.2751Z" fill="#1C1C1C"/>
<path d="M27 24.0001H5C4.73478 24.0001 4.48043 24.1054 4.29289 24.293C4.10536 24.4805 4 24.7349 4 25.0001C4 25.2653 4.10536 25.5197 4.29289 25.7072C4.48043 25.8947 4.73478 26.0001 5 26.0001H27C27.2652 26.0001 27.5196 25.8947 27.7071 25.7072C27.8946 25.5197 28 25.2653 28 25.0001C28 24.7349 27.8946 24.4805 27.7071 24.293C27.5196 24.1054 27.2652 24.0001 27 24.0001Z" fill="#1C1C1C"/>
</svg>
