<svg width="32" height="32" viewBox="0 0 32 32" fill="none" xmlns="http://www.w3.org/2000/svg">
<path d="M26.7125 5.28748C25.4613 4.04022 23.7667 3.33984 22 3.33984C20.2333 3.33984 18.5387 4.04022 17.2875 5.28748L5.28749 17.2875C4.03766 18.5373 3.33551 20.2325 3.33551 22C3.33551 23.7675 4.03766 25.4626 5.28749 26.7125C6.53732 27.9623 8.23246 28.6645 9.99999 28.6645C11.7675 28.6645 13.4627 27.9623 14.7125 26.7125L26.7125 14.7125C27.9567 13.4597 28.655 11.7657 28.655 9.99998C28.655 8.23431 27.9567 6.54028 26.7125 5.28748ZM25.2875 13.2875L20 18.5875L13.4125 12L18.7125 6.71248C19.1417 6.27634 19.6534 5.92996 20.2178 5.69353C20.7823 5.45709 21.3881 5.33533 22 5.33533C22.6119 5.33533 23.2177 5.45709 23.7821 5.69353C24.3465 5.92996 24.8583 6.27634 25.2875 6.71248C25.7206 7.14341 26.0643 7.65569 26.2988 8.21986C26.5334 8.78404 26.6541 9.389 26.6541 9.99998C26.6541 10.611 26.5334 11.2159 26.2988 11.7801C26.0643 12.3443 25.7206 12.8565 25.2875 13.2875ZM23.775 10.3625C23.8675 10.4561 23.9403 10.5673 23.9893 10.6895C24.0382 10.8117 24.0622 10.9424 24.0599 11.074C24.0575 11.2056 24.0289 11.3354 23.9757 11.4558C23.9225 11.5762 23.8458 11.6847 23.75 11.775L20.7 14.725C20.6064 14.8175 20.4952 14.8903 20.373 14.9393C20.2508 14.9882 20.1201 15.0122 19.9885 15.0099C19.8569 15.0075 19.7271 14.9789 19.6067 14.9257C19.4863 14.8725 19.3778 14.7957 19.2875 14.7C19.195 14.6064 19.1221 14.4952 19.0732 14.373C19.0243 14.2508 19.0003 14.1201 19.0026 13.9885C19.0049 13.8569 19.0336 13.7271 19.0868 13.6067C19.14 13.4863 19.2167 13.3778 19.3125 13.2875L22.3625 10.3375C22.5532 10.1537 22.8091 10.0532 23.0739 10.0579C23.3387 10.0626 23.5909 10.1721 23.775 10.3625Z" fill="#1C1C1C"/>
</svg>
