<svg width="32" height="32" viewBox="0 0 32 32" fill="none" xmlns="http://www.w3.org/2000/svg">
<path d="M28.7125 27.2875L22.6625 21.2375L23.075 21.1125C24.0037 20.7776 24.8565 20.2615 25.584 19.5941C26.3114 18.9268 26.899 18.1215 27.3125 17.225C28.1484 15.4201 28.2382 13.3583 27.5625 11.4875C27.465 11.2404 27.2774 11.0394 27.0375 10.925C26.919 10.8684 26.7901 10.8369 26.6589 10.8326C26.5276 10.8283 26.3969 10.8513 26.275 10.9L20.725 12.9125L20.85 12.6625C21.4793 11.3179 21.6953 9.81669 21.4707 8.34915C21.2462 6.8816 20.5911 5.51373 19.5885 4.41877C18.5859 3.32382 17.2809 2.55105 15.8388 2.19836C14.3966 1.84566 12.8823 1.9289 11.4875 2.43754C11.2403 2.53506 11.0393 2.72267 10.925 2.96254C10.8684 3.08101 10.8369 3.20993 10.8326 3.34117C10.8283 3.47241 10.8513 3.60312 10.9 3.72504L12.9125 9.27504L12.6625 9.15004C11.3178 8.52078 9.81666 8.30475 8.34912 8.52933C6.88157 8.7539 5.5137 9.40897 4.41874 10.4116C3.32379 11.4142 2.55102 12.7192 2.19833 14.1613C1.84563 15.6034 1.92887 17.1178 2.43751 18.5125C2.53503 18.7597 2.72264 18.9607 2.96251 19.075C3.09567 19.1362 3.24103 19.1661 3.38751 19.1625C3.50318 19.166 3.61824 19.1447 3.72501 19.1L9.27501 17.0875L9.15001 17.3375C8.6162 18.4799 8.37904 19.7385 8.46046 20.9968C8.54188 22.2551 8.93925 23.4726 9.61583 24.5367C10.2924 25.6008 11.2263 26.4771 12.3313 27.0846C13.4363 27.6922 14.6765 28.0113 15.9375 28.0125C16.8153 28.0114 17.6864 27.8592 18.5125 27.5625C18.7597 27.465 18.9607 27.2774 19.075 27.0375C19.1316 26.9191 19.1631 26.7901 19.1674 26.6589C19.1717 26.5277 19.1488 26.397 19.1 26.275L17.0875 20.725L17.3375 20.85C18.2163 21.2637 19.1675 21.5015 20.1375 21.55L27.2875 28.7125C27.4786 28.8974 27.7341 29.0007 28 29.0007C28.2659 29.0007 28.5214 28.8974 28.7125 28.7125C28.9003 28.5229 29.0056 28.2669 29.0056 28C29.0056 27.7332 28.9003 27.4771 28.7125 27.2875ZM16.3875 4.50004C17.2921 4.92897 18.0631 5.59561 18.6182 6.42872C19.1732 7.26184 19.4915 8.23011 19.539 9.23009C19.5865 10.2301 19.3614 11.2241 18.8878 12.1061C18.4142 12.9881 17.7098 13.7248 16.85 14.2375L13.15 4.06254C14.2486 3.8755 15.378 4.02813 16.3875 4.50004ZM13.6125 25.5C12.708 25.0711 11.9369 24.4045 11.3819 23.5714C10.8268 22.7382 10.5085 21.77 10.461 20.77C10.4135 19.77 10.6386 18.7759 11.1122 17.894C11.5858 17.012 12.2902 16.2753 13.15 15.7625L16.85 25.9375C15.7515 26.1246 14.622 25.9719 13.6125 25.5Z" fill="#1C1C1C"/>
</svg>
