<svg width="32" height="32" viewBox="0 0 32 32" fill="none" xmlns="http://www.w3.org/2000/svg">
<path d="M27.9125 14.5C27.9672 14.9982 27.9964 15.4988 28 16C28 18.2339 27.3765 20.4234 26.1996 22.3222C25.0227 24.2209 23.3392 25.7534 21.3386 26.7472C19.338 27.7411 17.0996 28.1567 14.8756 27.9474C12.6515 27.7381 10.53 26.9121 8.74996 25.5625C11.825 24.7875 15.4375 23.25 19 21.2C22.5625 19.15 25.7 16.775 27.9125 14.5ZM30.725 7.5C30.0375 6.3125 28.1875 5.2 23.25 6.4375C21.4699 5.08786 19.3484 4.2619 17.1243 4.05259C14.9003 3.84327 12.662 4.25892 10.6613 5.25275C8.66069 6.24657 6.97718 7.7791 5.80031 9.67784C4.62343 11.5766 3.99992 13.7661 3.99996 16C4.00347 16.5012 4.03268 17.0018 4.08746 17.5C0.54996 21.15 0.59996 23.3125 1.27496 24.5C1.73746 25.3 2.76246 26.1 4.99996 26.1C6.0736 26.0795 7.14206 25.9455 8.18746 25.7L8.74996 25.5625C8.10812 25.0645 7.5139 24.5079 6.97496 23.9C4.63746 24.3125 3.31246 24.025 3.01246 23.5C2.82496 23.175 2.92496 22.5625 3.29996 21.825C3.67247 21.1276 4.12103 20.4736 4.63746 19.875C5.14409 21.3574 5.93844 22.7253 6.97496 23.9L7.74996 23.7375C10.75 23.075 14.3875 21.55 18 19.4625C21.6125 17.375 24.75 14.9875 26.825 12.725C27.0144 12.5345 27.1938 12.3342 27.3625 12.125C26.8558 10.6425 26.0615 9.27472 25.025 8.1C25.8069 7.94749 26.6037 7.88458 27.4 7.9125C28.225 7.9625 28.8 8.175 28.9875 8.5C29.2875 9.025 28.875 10.3125 27.3625 12.125C27.6175 12.8983 27.8016 13.6933 27.9125 14.5L28.3 14.0875C31.4625 10.65 31.3625 8.6125 30.725 7.5Z" fill="#1C1C1C"/>
</svg>
