<svg width="32" height="32" viewBox="0 0 32 32" fill="none" xmlns="http://www.w3.org/2000/svg">
<path d="M29.7125 9.71246L25.4125 14L28.7125 17.2875C28.9003 17.4771 29.0056 17.7331 29.0056 18C29.0056 18.2668 28.9003 18.5229 28.7125 18.7125C28.5214 18.8973 28.2659 19.0006 28 19.0006C27.7341 19.0006 27.4786 18.8973 27.2875 18.7125L26.5 17.9125L20.0375 24.375C19.098 25.3108 17.826 25.8362 16.5 25.8362C15.174 25.8362 13.902 25.3108 12.9625 24.375L11 22.4125L4.71251 28.7125C4.52137 28.8973 4.26589 29.0006 4.00001 29.0006C3.73413 29.0006 3.47865 28.8973 3.28751 28.7125C3.09973 28.5229 2.99438 28.2668 2.99438 28C2.99438 27.7331 3.09973 27.4771 3.28751 27.2875L9.58751 21L7.62501 19.0375C6.68918 18.098 6.16374 16.826 6.16374 15.5C6.16374 14.1739 6.68918 12.9019 7.62501 11.9625L14.0875 5.49996L13.2875 4.71246C13.128 4.51817 13.0466 4.2715 13.0589 4.02045C13.0712 3.7694 13.1765 3.53191 13.3542 3.35417C13.532 3.17644 13.7694 3.07117 14.0205 3.05884C14.2716 3.04651 14.5182 3.128 14.7125 3.28746L18 6.58746L22.2875 2.28746C22.4818 2.128 22.7285 2.04651 22.9795 2.05884C23.2306 2.07117 23.4681 2.17644 23.6458 2.35417C23.8235 2.53191 23.9288 2.7694 23.9411 3.02045C23.9535 3.2715 23.872 3.51817 23.7125 3.71246L19.4125 7.99996L24 12.5875L28.2875 8.28746C28.4818 8.128 28.7285 8.04651 28.9795 8.05884C29.2306 8.07117 29.4681 8.17644 29.6458 8.35417C29.8235 8.53191 29.9288 8.7694 29.9411 9.02045C29.9535 9.2715 29.872 9.51817 29.7125 9.71246Z" fill="#1C1C1C"/>
</svg>
