<svg width="32" height="32" viewBox="0 0 32 32" fill="none" xmlns="http://www.w3.org/2000/svg">
<path d="M25.275 25.1C27.6629 22.673 29.0012 19.4047 29.0012 16C29.0012 12.5952 27.6629 9.32692 25.275 6.89996C25.2525 6.86479 25.2227 6.83493 25.1875 6.81246C25.165 6.77729 25.1352 6.74743 25.1 6.72496C22.673 4.33706 19.4047 2.99878 16 2.99878C12.5953 2.99878 9.32695 4.33706 6.89999 6.72496C6.86482 6.74743 6.83496 6.77729 6.81249 6.81246C6.77732 6.83493 6.74746 6.86479 6.72499 6.89996C4.33709 9.32692 2.99881 12.5952 2.99881 16C2.99881 19.4047 4.33709 22.673 6.72499 25.1L6.81249 25.1875C6.83496 25.2226 6.86482 25.2525 6.89999 25.275C9.32695 27.6629 12.5953 29.0011 16 29.0011C19.4047 29.0011 22.673 27.6629 25.1 25.275C25.1352 25.2525 25.165 25.2226 25.1875 25.1875C25.2227 25.165 25.2525 25.1351 25.275 25.1ZM5.04999 17H8.06249C8.24248 18.4227 8.80398 19.7703 9.68749 20.9L7.54999 23.0375C6.1209 21.3267 5.24862 19.2202 5.04999 17ZM7.54999 8.96246L9.68749 11.1C8.80398 12.2296 8.24248 13.5772 8.06249 15H5.04999C5.24862 12.7797 6.1209 10.6732 7.54999 8.96246ZM26.95 15H23.9375C23.7575 13.5772 23.196 12.2296 22.3125 11.1L24.45 8.96246C25.8791 10.6732 26.7514 12.7797 26.95 15ZM20.9 9.68746C19.7704 8.80395 18.4228 8.24245 17 8.06246V5.04996C19.2202 5.24859 21.3268 6.12087 23.0375 7.54996L20.9 9.68746ZM15 8.06246C13.5772 8.24245 12.2296 8.80395 11.1 9.68746L8.96249 7.54996C10.6732 6.12087 12.7798 5.24859 15 5.04996V8.06246ZM11.1 22.3125C12.2296 23.196 13.5772 23.7575 15 23.9375V26.95C12.7798 26.7513 10.6732 25.8791 8.96249 24.45L11.1 22.3125ZM17 23.9375C18.4228 23.7575 19.7704 23.196 20.9 22.3125L23.0375 24.45C21.3268 25.8791 19.2202 26.7513 17 26.95V23.9375ZM22.3125 20.9C23.196 19.7703 23.7575 18.4227 23.9375 17H26.95C26.7514 19.2202 25.8791 21.3267 24.45 23.0375L22.3125 20.9Z" fill="#1C1C1C"/>
</svg>
