<svg width="32" height="32" viewBox="0 0 32 32" fill="none" xmlns="http://www.w3.org/2000/svg">
<path d="M28.825 6.17498C28.4545 5.80308 28.0143 5.50799 27.5295 5.30664C27.0447 5.10529 26.5249 5.00164 26 5.00164C25.475 5.00164 24.9553 5.10529 24.4705 5.30664C23.9857 5.50799 23.5455 5.80308 23.175 6.17498C22.92 6.42218 22.7012 6.70413 22.525 7.01248L19 6.04998C19.0086 5.25559 18.7805 4.47663 18.3447 3.81238C17.9089 3.14814 17.2852 2.62871 16.553 2.32031C15.8209 2.0119 15.0135 1.92849 14.2338 2.0807C13.4541 2.23292 12.7374 2.61386 12.175 3.17498C11.5727 3.77584 11.1776 4.55309 11.0473 5.39381C10.9169 6.23453 11.058 7.09492 11.45 7.84998L7.21248 11.6625C6.44257 11.1537 5.52041 10.9268 4.60232 11.0202C3.68422 11.1136 2.82666 11.5216 2.17498 12.175C1.80308 12.5454 1.508 12.9857 1.30665 13.4705C1.1053 13.9553 1.00165 14.475 1.00165 15C1.00165 15.5249 1.1053 16.0447 1.30665 16.5295C1.508 17.0142 1.80308 17.4545 2.17498 17.825C2.54406 18.1989 2.98402 18.4954 3.46909 18.6971C3.95417 18.8989 4.47462 19.0018 4.99998 19C5.92423 19.0012 6.82055 18.6833 7.53748 18.1L16.2875 24.5125C15.9973 25.2393 15.9267 26.0353 16.0845 26.8018C16.2422 27.5684 16.6214 28.2718 17.175 28.825C17.5455 29.1969 17.9857 29.492 18.4705 29.6933C18.9553 29.8947 19.475 29.9983 20 29.9983C20.5249 29.9983 21.0447 29.8947 21.5295 29.6933C22.0143 29.492 22.4545 29.1969 22.825 28.825C23.1969 28.4545 23.492 28.0142 23.6933 27.5295C23.8947 27.0447 23.9983 26.5249 23.9983 26C23.9983 25.475 23.8947 24.9553 23.6933 24.4705C23.492 23.9857 23.1969 23.5455 22.825 23.175C22.6413 22.9945 22.445 22.8275 22.2375 22.675L25.65 12.9875H26C26.5253 12.9893 27.0458 12.8864 27.5309 12.6846C28.0159 12.4829 28.4559 12.1864 28.825 11.8125C29.5723 11.0647 29.9921 10.0509 29.9921 8.99373C29.9921 7.93659 29.5723 6.92271 28.825 6.17498ZM20.35 22.0125C19.309 21.9249 18.2745 22.2428 17.4625 22.9L8.71248 16.4875C8.92438 15.9516 9.0195 15.3767 8.99147 14.8012C8.96345 14.2256 8.81294 13.6627 8.54998 13.15L12.7875 9.33748C13.445 9.76837 14.2138 9.99857 15 9.99998C15.5253 10.0018 16.0458 9.89887 16.5309 9.69711C17.0159 9.49535 17.4559 9.19886 17.825 8.82498C18.08 8.57778 18.2988 8.29583 18.475 7.98748L22 8.94998C21.9914 9.48372 22.0911 10.0137 22.2931 10.5078C22.495 11.0019 22.795 11.45 23.175 11.825C23.3587 12.0054 23.555 12.1725 23.7625 12.325L20.35 22.0125Z" fill="#1C1C1C"/>
</svg>
