<svg width="32" height="32" viewBox="0 0 32 32" fill="none" xmlns="http://www.w3.org/2000/svg">
<path d="M26.7375 26.325C26.8277 26.4211 26.8977 26.5342 26.9435 26.6578C26.9892 26.7813 27.0098 26.9128 27.004 27.0444C26.9982 27.176 26.966 27.3052 26.9095 27.4242C26.8531 27.5432 26.7733 27.6498 26.675 27.7375C26.4894 27.9042 26.2495 27.9975 26 28C25.8613 27.9999 25.724 27.971 25.5971 27.9151C25.4701 27.8591 25.3562 27.7774 25.2625 27.675L21.9625 24.0375C21.65 25.8125 20.725 27.3125 20.0375 28.225C19.8639 28.4539 19.6439 28.6435 19.3918 28.7814C19.1398 28.9193 18.8614 29.0023 18.575 29.025H18.4375C17.9077 29.0227 17.4001 28.8116 17.025 28.4375L11 22.4125L6.7125 26.7125C6.52136 26.8973 6.26589 27.0006 6 27.0006C5.73412 27.0006 5.47864 26.8973 5.2875 26.7125C5.09972 26.5229 4.99438 26.2668 4.99438 26C4.99438 25.7331 5.09972 25.4771 5.2875 25.2875L9.5875 21L3.5375 14.95C3.33681 14.7522 3.18045 14.5141 3.0788 14.2513C2.97715 13.9886 2.93252 13.7072 2.94789 13.4258C2.96326 13.1445 3.03826 12.8697 3.16793 12.6195C3.2976 12.3694 3.47896 12.1497 3.7 11.975C5.725 10.35 7.6875 9.96249 9.1875 9.99999L5.2625 5.67499C5.09019 5.47834 5.00175 5.22202 5.01614 4.96095C5.03052 4.69988 5.14659 4.45482 5.33946 4.27829C5.53234 4.10176 5.78669 4.00779 6.04801 4.01652C6.30933 4.02525 6.55684 4.13598 6.7375 4.32499L26.7375 26.325ZM29 10.5875L21.4125 2.99999C21.036 2.62899 20.5286 2.42102 20 2.42102C19.4714 2.42102 18.964 2.62899 18.5875 2.99999L13.8375 7.74999C13.6565 7.93087 13.5518 8.17425 13.5448 8.43002C13.5378 8.6858 13.6292 8.93452 13.8 9.12499L22.375 18.55C22.4652 18.651 22.5747 18.733 22.6971 18.7909C22.8194 18.8489 22.9522 18.8817 23.0875 18.8875H23.1125C23.2452 18.8873 23.3766 18.8606 23.4989 18.8091C23.6212 18.7576 23.7321 18.6823 23.825 18.5875L29 13.4125C29.1867 13.2277 29.3349 13.0077 29.4361 12.7652C29.5372 12.5228 29.5893 12.2627 29.5893 12C29.5893 11.7373 29.5372 11.4772 29.4361 11.2347C29.3349 10.9923 29.1867 10.7723 29 10.5875Z" fill="#1C1C1C"/>
</svg>
