<svg width="32" height="32" viewBox="0 0 32 32" fill="none" xmlns="http://www.w3.org/2000/svg">
<path d="M29 13.4125L21.6875 20.725C22.25 22.3125 22.4875 24.9625 20.0375 28.225C19.8639 28.4539 19.6439 28.6435 19.3918 28.7814C19.1398 28.9193 18.8614 29.0023 18.575 29.025H18.4375C17.9077 29.0227 17.4002 28.8116 17.025 28.4375L11 22.4125L6.71252 26.7125C6.52138 26.8973 6.2659 27.0006 6.00002 27.0006C5.73414 27.0006 5.47866 26.8973 5.28752 26.7125C5.09974 26.5229 4.99439 26.2668 4.99439 26C4.99439 25.7331 5.09974 25.4771 5.28752 25.2875L9.58752 21L3.53752 14.95C3.33682 14.7522 3.18046 14.5141 3.07881 14.2513C2.97716 13.9886 2.93254 13.7072 2.9479 13.4258C2.96327 13.1445 3.03828 12.8697 3.16794 12.6195C3.29761 12.3694 3.47898 12.1497 3.70002 11.975C6.87502 9.41249 9.91252 9.92499 11.25 10.3375L18.5875 2.99999C18.964 2.62899 19.4714 2.42102 20 2.42102C20.5286 2.42102 21.036 2.62899 21.4125 2.99999L29 10.5875C29.1867 10.7723 29.3349 10.9923 29.4361 11.2347C29.5372 11.4772 29.5893 11.7373 29.5893 12C29.5893 12.2627 29.5372 12.5228 29.4361 12.7652C29.3349 13.0077 29.1867 13.2277 29 13.4125Z" fill="#1C1C1C"/>
</svg>
