<svg width="32" height="32" viewBox="0 0 32 32" fill="none" xmlns="http://www.w3.org/2000/svg">
<path d="M27 8.99988H10.8125L24.2875 4.96238C24.4139 4.92463 24.5316 4.86235 24.6339 4.7791C24.7363 4.69584 24.8212 4.59325 24.8839 4.47718C24.9466 4.36111 24.9858 4.23382 24.9993 4.1026C25.0127 3.97138 25.0003 3.83878 24.9625 3.71238C24.9247 3.58599 24.8625 3.46826 24.7792 3.36593C24.696 3.26361 24.5934 3.17868 24.4773 3.116C24.3612 3.05332 24.2339 3.01412 24.1027 3.00063C23.9715 2.98714 23.8389 2.99963 23.7125 3.03738L3.7125 9.03738L3.625 9.07488H3.6125L3.55 9.11238H3.5C3.39917 9.16495 3.30991 9.2372 3.2375 9.32488C3.2375 9.3282 3.23618 9.33138 3.23384 9.33372C3.23149 9.33607 3.22832 9.33738 3.225 9.33738C3.2125 9.34988 3.2125 9.36238 3.2 9.38738L3.175 9.41238C3.16777 9.41879 3.16329 9.42775 3.1625 9.43738C3.10311 9.52449 3.0607 9.62204 3.0375 9.72488C3.025 9.73738 3.025 9.74988 3.025 9.77488H3.0125C3.01356 9.80456 3.00933 9.83419 3 9.86238V9.99988V24.9999C3 25.5303 3.21071 26.039 3.58579 26.4141C3.96086 26.7892 4.46957 26.9999 5 26.9999H27C27.5304 26.9999 28.0391 26.7892 28.4142 26.4141C28.7893 26.039 29 25.5303 29 24.9999V10.9999C29 10.4694 28.7893 9.96074 28.4142 9.58567C28.0391 9.2106 27.5304 8.99988 27 8.99988ZM12 22.9999H7C6.73478 22.9999 6.48043 22.8945 6.29289 22.707C6.10536 22.5195 6 22.2651 6 21.9999C6 21.7347 6.10536 21.4803 6.29289 21.2928C6.48043 21.1052 6.73478 20.9999 7 20.9999H12C12.2652 20.9999 12.5196 21.1052 12.7071 21.2928C12.8946 21.4803 13 21.7347 13 21.9999C13 22.2651 12.8946 22.5195 12.7071 22.707C12.5196 22.8945 12.2652 22.9999 12 22.9999ZM12 18.9999H7C6.73478 18.9999 6.48043 18.8945 6.29289 18.707C6.10536 18.5195 6 18.2651 6 17.9999C6 17.7347 6.10536 17.4803 6.29289 17.2928C6.48043 17.1052 6.73478 16.9999 7 16.9999H12C12.2652 16.9999 12.5196 17.1052 12.7071 17.2928C12.8946 17.4803 13 17.7347 13 17.9999C13 18.2651 12.8946 18.5195 12.7071 18.707C12.5196 18.8945 12.2652 18.9999 12 18.9999ZM12 14.9999H7C6.73478 14.9999 6.48043 14.8945 6.29289 14.707C6.10536 14.5195 6 14.2651 6 13.9999C6 13.7347 6.10536 13.4803 6.29289 13.2928C6.48043 13.1052 6.73478 12.9999 7 12.9999H12C12.2652 12.9999 12.5196 13.1052 12.7071 13.2928C12.8946 13.4803 13 13.7347 13 13.9999C13 14.2651 12.8946 14.5195 12.7071 14.707C12.5196 14.8945 12.2652 14.9999 12 14.9999ZM21 21.4999C20.3078 21.4999 19.6311 21.2946 19.0555 20.91C18.4799 20.5254 18.0313 19.9788 17.7664 19.3393C17.5015 18.6997 17.4322 17.996 17.5673 17.3171C17.7023 16.6381 18.0356 16.0145 18.5251 15.525C19.0146 15.0355 19.6383 14.7022 20.3172 14.5671C20.9961 14.4321 21.6999 14.5014 22.3394 14.7663C22.9789 15.0312 23.5256 15.4798 23.9101 16.0554C24.2947 16.631 24.5 17.3076 24.5 17.9999C24.4967 18.9271 24.1269 19.8155 23.4712 20.4711C22.8156 21.1268 21.9272 21.4966 21 21.4999Z" fill="#1C1C1C"/>
</svg>
