<svg width="32" height="32" viewBox="0 0 32 32" fill="none" xmlns="http://www.w3.org/2000/svg">
<path d="M9 26C8.79651 25.9984 8.59822 25.9355 8.43099 25.8196C8.26376 25.7036 8.13535 25.54 8.0625 25.35L2.0625 9.34997C2.01654 9.22686 1.99527 9.09589 1.99992 8.96456C2.00457 8.83323 2.03505 8.7041 2.0896 8.58455C2.19978 8.34309 2.40136 8.1553 2.65 8.06247C2.89864 7.96965 3.17397 7.97939 3.41543 8.08957C3.65688 8.19975 3.84468 8.40133 3.9375 8.64997L9 22.15L14.0625 8.64997C14.1354 8.45996 14.2638 8.29632 14.431 8.18037C14.5982 8.06442 14.7965 8.00156 15 7.99997H29C29.2652 7.99997 29.5196 8.10533 29.7071 8.29286C29.8946 8.4804 30 8.73475 30 8.99997V12C30 12.2652 29.8946 12.5195 29.7071 12.7071C29.5196 12.8946 29.2652 13 29 13C28.7348 13 28.4804 12.8946 28.2929 12.7071C28.1054 12.5195 28 12.2652 28 12V9.99997H15.6875L9.9375 25.35C9.86465 25.54 9.73624 25.7036 9.56901 25.8196C9.40178 25.9355 9.20349 25.9984 9 26Z" fill="#1C1C1C"/>
</svg>
