<svg width="32" height="32" viewBox="0 0 32 32" fill="none" xmlns="http://www.w3.org/2000/svg">
<path d="M29.6 25.5C29.3375 25.9572 28.9587 26.3368 28.5021 26.6003C28.0454 26.8637 27.5272 27.0017 27 27H20V29C20.0006 29.1975 19.9428 29.3907 19.8338 29.5553C19.7248 29.7199 19.5695 29.8485 19.3875 29.925C19.2642 29.974 19.1327 29.9995 19 30C18.7345 29.9989 18.4795 29.896 18.2875 29.7125L15.2875 26.7C15.1959 26.608 15.1234 26.4988 15.0741 26.3787C15.0247 26.2586 14.9996 26.1299 15 26C14.9985 25.734 15.1018 25.478 15.2875 25.2875L18.2875 22.2875C18.4321 22.1519 18.6121 22.0599 18.8068 22.0223C19.0015 21.9847 19.2028 22.003 19.3875 22.075C19.5695 22.1515 19.7248 22.2802 19.8338 22.4448C19.9428 22.6094 20.0006 22.8026 20 23V25H27C27.1752 25.0007 27.3474 24.9547 27.499 24.8669C27.6506 24.779 27.776 24.6524 27.8625 24.5C27.9528 24.3489 28.0005 24.1761 28.0005 24C28.0005 23.824 27.9528 23.6512 27.8625 23.5L24.8625 18.325C24.7299 18.0946 24.6943 17.821 24.7634 17.5643C24.8326 17.3076 25.0009 17.0889 25.2313 16.9563C25.4617 16.8237 25.7353 16.788 25.992 16.8572C26.2487 16.9263 26.4674 17.0946 26.6 17.325L29.5875 22.5C29.8564 22.9537 29.9994 23.471 30.0016 23.9983C30.0038 24.5257 29.8652 25.0441 29.6 25.5ZM11 25H5.00002C4.82483 25.0007 4.65261 24.9547 4.50104 24.8669C4.34947 24.779 4.22401 24.6524 4.13752 24.5C4.04723 24.3489 3.99955 24.1761 3.99955 24C3.99955 23.824 4.04723 23.6512 4.13752 23.5L7.63752 17.4625L9.37502 18.4625C9.5267 18.5515 9.69916 18.599 9.87502 18.6C10.0932 18.5983 10.3044 18.5235 10.475 18.3875C10.6325 18.268 10.7509 18.1044 10.8155 17.9175C10.88 17.7306 10.8877 17.5288 10.8375 17.3375L9.73752 13.2375C9.6668 12.9852 9.50102 12.7702 9.27502 12.6375C9.16162 12.5694 9.03539 12.5253 8.90419 12.5081C8.773 12.4909 8.63966 12.5009 8.51252 12.5375L4.41252 13.625C4.2226 13.6777 4.05245 13.7852 3.92346 13.9342C3.79448 14.0832 3.71239 14.267 3.68752 14.4625C3.65889 14.6589 3.69009 14.8593 3.77705 15.0377C3.86401 15.2161 4.00269 15.3641 4.17502 15.4625L5.90002 16.4625L2.41252 22.5C2.14561 22.9547 2.00375 23.4719 2.00137 23.9991C1.99899 24.5263 2.13616 25.0447 2.39896 25.5017C2.66176 25.9588 3.04082 26.3381 3.49765 26.6013C3.95448 26.8644 4.47282 27.002 5.00002 27H11C11.2652 27 11.5196 26.8947 11.7071 26.7071C11.8947 26.5196 12 26.2653 12 26C12 25.7348 11.8947 25.4805 11.7071 25.2929C11.5196 25.1054 11.2652 25 11 25ZM16 4.00004C16.1755 3.99806 16.3482 4.04347 16.5 4.13147C16.6518 4.21947 16.777 4.3468 16.8625 4.50004L20.3625 10.5375L18.6375 11.5375C18.463 11.633 18.3215 11.779 18.2313 11.9563C18.1412 12.1336 18.1067 12.334 18.1324 12.5312C18.158 12.7285 18.2427 12.9134 18.3752 13.0617C18.5077 13.21 18.6819 13.3149 18.875 13.3625L22.975 14.4625L23.225 14.5C23.4457 14.5002 23.6604 14.4282 23.8364 14.295C24.0124 14.1619 24.1401 13.9749 24.2 13.7625L25.3 9.66254C25.3512 9.46943 25.344 9.26551 25.2795 9.07645C25.215 8.88739 25.096 8.72163 24.9375 8.60004C24.7792 8.48043 24.5889 8.41062 24.3908 8.39949C24.1927 8.38836 23.9957 8.43641 23.825 8.53754L22.0875 9.53754L18.6 3.50004C18.337 3.04308 17.9581 2.66352 17.5017 2.39959C17.0452 2.13567 16.5273 1.9967 16 1.9967C15.4728 1.9967 14.9548 2.13567 14.4984 2.39959C14.0419 2.66352 13.6631 3.04308 13.4 3.50004L10.4125 8.67504C10.3343 8.78858 10.2803 8.91708 10.2541 9.05247C10.2279 9.18785 10.23 9.3272 10.2602 9.46174C10.2904 9.59629 10.3481 9.72313 10.4297 9.8343C10.5113 9.94547 10.615 10.0386 10.7343 10.1077C10.8536 10.1769 10.986 10.2206 11.123 10.2362C11.26 10.2518 11.3988 10.2388 11.5305 10.1982C11.6623 10.1575 11.7843 10.0901 11.8887 10.0001C11.9932 9.91004 12.0779 9.79938 12.1375 9.67504L15.1375 4.50004C15.223 4.3468 15.3482 4.21947 15.5 4.13147C15.6518 4.04347 15.8246 3.99806 16 4.00004Z" fill="#1C1C1C"/>
</svg>
