<svg width="32" height="32" viewBox="0 0 32 32" fill="none" xmlns="http://www.w3.org/2000/svg">
<path d="M3.00001 16C3.00332 13.614 3.95259 11.3268 5.6397 9.63964C7.32681 7.95253 9.61408 7.00326 12 6.99995H24V4.99995C23.9994 4.80253 24.0572 4.60934 24.1662 4.44473C24.2752 4.28012 24.4305 4.15145 24.6125 4.07495C24.7972 4.00291 24.9986 3.98463 25.1932 4.02223C25.3879 4.05984 25.5679 4.15179 25.7125 4.28745L28.7125 7.28745C28.9003 7.47705 29.0056 7.7331 29.0056 7.99995C29.0056 8.2668 28.9003 8.52286 28.7125 8.71245L25.7125 11.7125C25.5206 11.8959 25.2656 11.9988 25 12C24.8673 11.9994 24.7359 11.9739 24.6125 11.925C24.4305 11.8485 24.2752 11.7198 24.1662 11.5552C24.0572 11.3906 23.9994 11.1974 24 11V8.99995H12C10.1435 8.99995 8.36302 9.73745 7.05026 11.0502C5.73751 12.363 5.00001 14.1434 5.00001 16C5.00001 16.2652 4.89465 16.5195 4.70712 16.7071C4.51958 16.8946 4.26523 17 4.00001 17C3.73479 17 3.48044 16.8946 3.2929 16.7071C3.10537 16.5195 3.00001 16.2652 3.00001 16ZM28 15C27.7348 15 27.4804 15.1053 27.2929 15.2928C27.1054 15.4804 27 15.7347 27 16C27 17.8565 26.2625 19.6369 24.9498 20.9497C23.637 22.2625 21.8565 23 20 23H8.00001V21C8.00063 20.8025 7.94279 20.6093 7.83379 20.4447C7.7248 20.2801 7.56951 20.1515 7.38751 20.075C7.2028 20.0029 7.00147 19.9846 6.8068 20.0222C6.61214 20.0598 6.4321 20.1518 6.28751 20.2875L3.28751 23.2875C3.09973 23.477 2.99438 23.7331 2.99438 24C2.99438 24.2668 3.09973 24.5229 3.28751 24.7125L6.28751 27.7125C6.47947 27.8959 6.73447 27.9988 7.00001 28C7.13273 27.9994 7.26416 27.9739 7.38751 27.925C7.56951 27.8484 7.7248 27.7198 7.83379 27.5552C7.94279 27.3906 8.00063 27.1974 8.00001 27V25H20C22.3859 24.9966 24.6732 24.0474 26.3603 22.3603C28.0474 20.6731 28.9967 18.3859 29 16C29 15.7347 28.8947 15.4804 28.7071 15.2928C28.5196 15.1053 28.2652 15 28 15ZM16.5 20C16.7652 20 17.0196 19.8946 17.2071 19.7071C17.3947 19.5195 17.5 19.2652 17.5 19V13C17.501 12.8293 17.4578 12.6613 17.3746 12.5123C17.2913 12.3634 17.1709 12.2385 17.025 12.15C16.8803 12.059 16.7147 12.0066 16.544 11.9979C16.3733 11.9891 16.2033 12.0243 16.05 12.1L14.05 13.1C13.8148 13.2229 13.6365 13.4324 13.5526 13.6841C13.4686 13.9359 13.4856 14.2105 13.6 14.45C13.7228 14.6853 13.933 14.863 14.1855 14.9448C14.438 15.0266 14.7126 15.006 14.95 14.8875L15.5 14.6125V19C15.5 19.2652 15.6054 19.5195 15.7929 19.7071C15.9804 19.8946 16.2348 20 16.5 20Z" fill="#1C1C1C"/>
</svg>
