<svg width="32" height="32" viewBox="0 0 32 32" fill="none" xmlns="http://www.w3.org/2000/svg">
<path d="M1.2625 14.3124L12.4125 7.14989C12.7151 6.95384 13.065 6.84323 13.4253 6.82976C13.7856 6.8163 14.1428 6.90048 14.4592 7.07339C14.7756 7.24631 15.0393 7.50153 15.2226 7.81205C15.4058 8.12258 15.5016 8.47685 15.5 8.83739V14.1624L26.4125 7.14989C26.7151 6.95384 27.065 6.84323 27.4253 6.82976C27.7856 6.8163 28.1428 6.90048 28.4592 7.07339C28.7756 7.24631 29.0393 7.50153 29.2225 7.81205C29.4058 8.12258 29.5016 8.47685 29.5 8.83739V23.1624C29.5004 23.5221 29.4043 23.8753 29.2218 24.1853C29.0394 24.4952 28.7772 24.7506 28.4625 24.9249C28.144 25.0923 27.7871 25.1735 27.4275 25.1603C27.0679 25.1472 26.718 25.0401 26.4125 24.8499L15.5 17.8374V23.1624C15.5004 23.5221 15.4043 23.8753 15.2218 24.1853C15.0394 24.4952 14.7772 24.7506 14.4625 24.9249C14.144 25.0923 13.7871 25.1735 13.4275 25.1603C13.0679 25.1472 12.718 25.0401 12.4125 24.8499L1.2625 17.6874C0.981338 17.5047 0.750281 17.2546 0.590327 16.9599C0.430372 16.6652 0.346588 16.3352 0.346588 15.9999C0.346588 15.6646 0.430372 15.3346 0.590327 15.0399C0.750281 14.7452 0.981338 14.4951 1.2625 14.3124Z" fill="#1C1C1C"/>
</svg>
