<svg width="32" height="32" viewBox="0 0 32 32" fill="none" xmlns="http://www.w3.org/2000/svg">
<path d="M12.3625 19.6376C13.2005 20.4714 13.8651 21.4629 14.3178 22.555C14.7705 23.647 15.0024 24.8179 15 26.0001C15 26.2653 14.8946 26.5197 14.7071 26.7072C14.5196 26.8947 14.2652 27.0001 14 27.0001C13.7348 27.0001 13.4804 26.8947 13.2929 26.7072C13.1054 26.5197 13 26.2653 13 26.0001C13 24.1436 12.2625 22.3631 10.9497 21.0503C9.63699 19.7376 7.85652 19.0001 6 19.0001C5.73478 19.0001 5.48043 18.8947 5.29289 18.7072C5.10536 18.5197 5 18.2653 5 18.0001C5 17.7349 5.10536 17.4805 5.29289 17.293C5.48043 17.1054 5.73478 17.0001 6 17.0001C7.18216 16.9977 8.35307 17.2296 9.44512 17.6823C10.5372 18.135 11.5287 18.7995 12.3625 19.6376ZM6 11.0001C5.73478 11.0001 5.48043 11.1054 5.29289 11.293C5.10536 11.4805 5 11.7349 5 12.0001C5 12.2653 5.10536 12.5197 5.29289 12.7072C5.48043 12.8947 5.73478 13.0001 6 13.0001C7.70782 12.9938 9.3998 13.3277 10.9772 13.9823C12.5546 14.6368 13.9859 15.599 15.1875 16.8126C16.4011 18.0142 17.3633 19.4455 18.0178 21.0229C18.6724 22.6003 19.0063 24.2923 19 26.0001C19 26.2653 19.1054 26.5197 19.2929 26.7072C19.4804 26.8947 19.7348 27.0001 20 27.0001C20.2652 27.0001 20.5196 26.8947 20.7071 26.7072C20.8946 26.5197 21 26.2653 21 26.0001C21.0054 24.028 20.6193 22.0744 19.864 20.2527C19.1087 18.431 17.9992 16.7773 16.6 15.3876C15.2103 13.9927 13.5581 12.8868 11.7388 12.1337C9.91946 11.3807 7.96901 10.9954 6 11.0001ZM20.85 11.1501C18.9044 9.19398 16.5901 7.64322 14.041 6.58757C11.492 5.53192 8.75895 4.99235 6 5.00008C5.73478 5.00008 5.48043 5.10544 5.29289 5.29298C5.10536 5.48051 5 5.73487 5 6.00008C5 6.2653 5.10536 6.51965 5.29289 6.70719C5.48043 6.89472 5.73478 7.00008 6 7.00008C8.49627 6.99327 10.9691 7.48136 13.2756 8.43613C15.5821 9.3909 17.6764 10.7934 19.4375 12.5626C21.2067 14.3237 22.6092 16.418 23.5639 18.7245C24.5187 21.031 25.0068 23.5038 25 26.0001C25 26.2653 25.1054 26.5197 25.2929 26.7072C25.4804 26.8947 25.7348 27.0001 26 27.0001C26.2652 27.0001 26.5196 26.8947 26.7071 26.7072C26.8946 26.5197 27 26.2653 27 26.0001C27.0077 23.2411 26.4682 20.5081 25.4125 17.959C24.3569 15.41 22.8061 13.0957 20.85 11.1501ZM6.5 24.0001C6.20333 24.0001 5.91332 24.0881 5.66665 24.2529C5.41997 24.4177 5.22771 24.652 5.11418 24.9261C5.00065 25.2001 4.97094 25.5017 5.02882 25.7927C5.0867 26.0837 5.22956 26.351 5.43934 26.5607C5.64912 26.7705 5.91639 26.9134 6.20737 26.9713C6.49834 27.0291 6.79994 26.9994 7.07403 26.8859C7.34811 26.7724 7.58238 26.5801 7.74721 26.3334C7.91203 26.0868 8 25.7968 8 25.5001C8 25.1023 7.84197 24.7207 7.56066 24.4394C7.27936 24.1581 6.89783 24.0001 6.5 24.0001Z" fill="#1C1C1C"/>
</svg>
