<svg width="32" height="32" viewBox="0 0 32 32" fill="none" xmlns="http://www.w3.org/2000/svg">
<path d="M29.5876 11.05C29.5688 11.5837 29.3449 12.0896 28.9626 12.4625L12.4126 29C12.2277 29.1867 12.0077 29.3349 11.7653 29.4361C11.5229 29.5372 11.2628 29.5893 11.0001 29.5893C10.7374 29.5893 10.4773 29.5372 10.2348 29.4361C9.99236 29.3349 9.77237 29.1867 9.58755 29L3.00005 22.4125C2.81335 22.2277 2.66514 22.0077 2.56399 21.7652C2.46285 21.5228 2.41077 21.2627 2.41077 21C2.41077 20.7373 2.46285 20.4772 2.56399 20.2347C2.66514 19.9923 2.81335 19.7723 3.00005 19.5875L5.73755 16.85C5.83102 16.7584 5.95668 16.7071 6.08755 16.7071C6.21843 16.7071 6.34409 16.7584 6.43755 16.85L10.7876 21.2125C10.9809 21.3938 11.235 21.4964 11.5001 21.5C11.6449 21.5004 11.7881 21.4693 11.9198 21.4088C12.0514 21.3484 12.1684 21.2601 12.2626 21.15C12.4239 20.9504 12.5055 20.6981 12.4916 20.4418C12.4778 20.1856 12.3694 19.9435 12.1876 19.7625L7.85005 15.4375C7.75844 15.344 7.70712 15.2184 7.70712 15.0875C7.70712 14.9566 7.75844 14.831 7.85005 14.7375L10.2376 12.35C10.331 12.2584 10.4567 12.2071 10.5876 12.2071C10.7184 12.2071 10.8441 12.2584 10.9376 12.35L15.2876 16.7125C15.4809 16.8938 15.735 16.9964 16.0001 17C16.1449 17.0004 16.2881 16.9693 16.4198 16.9088C16.5514 16.8484 16.6684 16.7601 16.7626 16.65C16.9239 16.4504 17.0055 16.1981 16.9916 15.9418C16.9778 15.6856 16.8694 15.4435 16.6876 15.2625L12.3501 10.9375C12.2584 10.844 12.2071 10.7184 12.2071 10.5875C12.2071 10.4566 12.2584 10.331 12.3501 10.2375L14.7376 7.84999C14.831 7.75838 14.9567 7.70706 15.0876 7.70706C15.2184 7.70706 15.3441 7.75838 15.4376 7.84999L19.7876 12.2125C19.9809 12.3938 20.235 12.4964 20.5001 12.5C20.6449 12.5004 20.7881 12.4693 20.9198 12.4088C21.0514 12.3484 21.1684 12.2601 21.2626 12.15C21.4239 11.9504 21.5055 11.6981 21.4916 11.4418C21.4778 11.1856 21.3694 10.9435 21.1876 10.7625L16.8501 6.43749C16.7584 6.34403 16.7071 6.21837 16.7071 6.08749C16.7071 5.95662 16.7584 5.83096 16.8501 5.73749L19.5876 2.99999C19.9641 2.62899 20.4715 2.42102 21.0001 2.42102C21.5287 2.42102 22.036 2.62899 22.4126 2.99999L29.0001 9.58749C29.1919 9.77877 29.343 10.007 29.4439 10.2584C29.5449 10.5098 29.5938 10.7791 29.5876 11.05Z" fill="#1C1C1C"/>
</svg>
