<svg width="32" height="32" viewBox="0 0 32 32" fill="none" xmlns="http://www.w3.org/2000/svg">
<path d="M19.7125 14.1375C19.5637 13.9186 19.5078 13.6496 19.557 13.3895C19.6062 13.1294 19.7565 12.8994 19.975 12.75L28.4375 6.9625C28.6564 6.81371 28.9254 6.75779 29.1855 6.80699C29.4456 6.8562 29.6756 7.00652 29.825 7.225C29.9003 7.33285 29.9533 7.45466 29.9809 7.58328C30.0085 7.71189 30.0101 7.84473 29.9857 7.97398C29.9612 8.10323 29.9112 8.2263 29.8385 8.33595C29.7659 8.4456 29.672 8.53962 29.5625 8.6125L21.1125 14.4C20.9441 14.5174 20.7428 14.5787 20.5375 14.575C20.3748 14.5747 20.2146 14.5347 20.0708 14.4585C19.927 14.3822 19.8041 14.272 19.7125 14.1375ZM29.825 24.775C29.7343 24.9103 29.6114 25.0211 29.4675 25.0974C29.3236 25.1738 29.163 25.2133 29 25.2125C28.7994 25.2105 28.6039 25.1496 28.4375 25.0375L17 17.2125L11.6875 20.85C11.8932 21.3758 11.9991 21.9354 12 22.5C12.0033 23.537 11.6493 24.5434 10.9976 25.35C10.346 26.1566 9.4364 26.7142 8.42191 26.9289C7.40743 27.1436 6.34994 27.0024 5.42736 26.529C4.50478 26.0555 3.7734 25.2788 3.35626 24.3295C2.93912 23.3801 2.86167 22.316 3.13694 21.3163C3.41222 20.3165 4.02342 19.4421 4.86773 18.8401C5.71203 18.238 6.73792 17.9452 7.77281 18.0107C8.80769 18.0763 9.78842 18.4963 10.55 19.2L15.225 16L10.55 12.8C9.72374 13.5746 8.63257 14.0039 7.50002 14C6.53797 13.9998 5.60131 13.6913 4.82745 13.1197C4.05359 12.5482 3.48328 11.7437 3.20018 10.8242C2.91708 9.90476 2.9361 8.91879 3.25444 8.01094C3.57278 7.10309 4.1737 6.32116 4.96902 5.77987C5.76434 5.23857 6.7122 4.96641 7.67354 5.00331C8.63488 5.04021 9.55908 5.38423 10.3106 5.9849C11.0621 6.58557 11.6013 7.41126 11.8491 8.34084C12.0969 9.27043 12.0403 10.255 11.6875 11.15L29.5625 23.3875C29.672 23.4604 29.7659 23.5544 29.8385 23.6641C29.9112 23.7737 29.9612 23.8968 29.9857 24.026C30.0101 24.1553 30.0085 24.2881 29.9809 24.4167C29.9533 24.5453 29.9003 24.6672 29.825 24.775ZM10 22.5C10.0007 22.1719 9.93581 21.847 9.80917 21.5443C9.68252 21.2416 9.49666 20.9673 9.26252 20.7375C9.03225 20.5039 8.75786 20.3185 8.45529 20.1919C8.15272 20.0653 7.828 20.0001 7.50002 20.0001C7.17203 20.0001 6.84732 20.0653 6.54474 20.1919C6.24217 20.3185 5.96778 20.5039 5.73752 20.7375C5.50395 20.9678 5.31848 21.2422 5.19189 21.5447C5.0653 21.8473 5.00011 22.172 5.00011 22.5C5.00011 22.828 5.0653 23.1527 5.19189 23.4553C5.31848 23.7578 5.50395 24.0322 5.73752 24.2625C5.96863 24.4946 6.2433 24.6787 6.54576 24.8043C6.84821 24.93 7.1725 24.9947 7.50002 24.9947C7.82753 24.9947 8.15182 24.93 8.45428 24.8043C8.75673 24.6787 9.0314 24.4946 9.26252 24.2625C9.49666 24.0327 9.68252 23.7584 9.80917 23.4557C9.93581 23.153 10.0007 22.8281 10 22.5ZM9.26252 11.2625C9.49608 11.0322 9.68155 10.7578 9.80814 10.4553C9.93474 10.1527 9.99993 9.82799 9.99993 9.5C9.99993 9.17202 9.93474 8.8473 9.80814 8.54473C9.68155 8.24216 9.49608 7.96777 9.26252 7.7375C9.03225 7.50394 8.75786 7.31847 8.45529 7.19187C8.15272 7.06528 7.828 7.00009 7.50002 7.00009C7.17203 7.00009 6.84732 7.06528 6.54474 7.19187C6.24217 7.31847 5.96778 7.50394 5.73752 7.7375C5.50395 7.96777 5.31848 8.24216 5.19189 8.54473C5.0653 8.8473 5.00011 9.17202 5.00011 9.5C5.00011 9.82799 5.0653 10.1527 5.19189 10.4553C5.31848 10.7578 5.50395 11.0322 5.73752 11.2625C5.96863 11.4946 6.2433 11.6787 6.54576 11.8043C6.84821 11.93 7.1725 11.9947 7.50002 11.9947C7.82753 11.9947 8.15182 11.93 8.45428 11.8043C8.75673 11.6787 9.0314 11.4946 9.26252 11.2625Z" fill="#1C1C1C"/>
</svg>
