<svg width="32" height="32" viewBox="0 0 32 32" fill="none" xmlns="http://www.w3.org/2000/svg">
<path d="M27.975 21.3375C27.8835 21.2316 27.7703 21.1467 27.643 21.0884C27.5158 21.0302 27.3774 21 27.2375 21H26V8C25.9967 6.94015 25.5742 5.92465 24.8248 5.17521C24.0754 4.42578 23.0599 4.0033 22 4H5C3.94015 4.0033 2.92464 4.42578 2.17521 5.17521C1.42578 5.92465 1.00329 6.94015 0.999998 8C0.996819 8.98443 1.36251 9.93434 2.025 10.6625C2.11085 10.7607 2.2153 10.8409 2.33232 10.8985C2.44933 10.9561 2.5766 10.9899 2.70676 10.998C2.83693 11.0062 2.96741 10.9884 3.09069 10.9459C3.21397 10.9033 3.32759 10.8367 3.425 10.75C3.52357 10.6631 3.60403 10.5575 3.66179 10.4395C3.71954 10.3214 3.75345 10.1931 3.76158 10.0619C3.7697 9.9307 3.75189 9.7992 3.70915 9.6749C3.66641 9.5506 3.59958 9.43595 3.5125 9.3375C3.29567 9.09625 3.14077 8.80588 3.06116 8.49143C2.98156 8.17697 2.97963 7.84788 3.05554 7.53252C3.13146 7.21715 3.28294 6.92499 3.49692 6.68121C3.7109 6.43743 3.98097 6.24936 4.28383 6.1332C4.5867 6.01705 4.91327 5.97631 5.23538 6.01448C5.5575 6.05266 5.8655 6.16861 6.13282 6.35234C6.40014 6.53607 6.61877 6.78206 6.76984 7.0691C6.92091 7.35615 6.9999 7.67563 7 8V24C7.00329 25.0599 7.42578 26.0754 8.17521 26.8248C8.92464 27.5742 9.94015 27.9967 11 28H25C26.0599 27.9967 27.0754 27.5742 27.8248 26.8248C28.5742 26.0754 28.9967 25.0599 29 24C29.0032 23.0156 28.6375 22.0657 27.975 21.3375ZM13 12H21C21.2652 12 21.5196 12.1054 21.7071 12.2929C21.8946 12.4804 22 12.7348 22 13C22 13.2652 21.8946 13.5196 21.7071 13.7071C21.5196 13.8946 21.2652 14 21 14H13C12.7348 14 12.4804 13.8946 12.2929 13.7071C12.1054 13.5196 12 13.2652 12 13C12 12.7348 12.1054 12.4804 12.2929 12.2929C12.4804 12.1054 12.7348 12 13 12ZM12 17C12 16.7348 12.1054 16.4804 12.2929 16.2929C12.4804 16.1054 12.7348 16 13 16H21C21.2652 16 21.5196 16.1054 21.7071 16.2929C21.8946 16.4804 22 16.7348 22 17C22 17.2652 21.8946 17.5196 21.7071 17.7071C21.5196 17.8946 21.2652 18 21 18H13C12.7348 18 12.4804 17.8946 12.2929 17.7071C12.1054 17.5196 12 17.2652 12 17ZM25 26H14.4625C14.813 25.3916 14.9983 24.7021 15 24C15.0023 23.6626 14.9603 23.3264 14.875 23H26.7375C26.9093 23.305 26.9985 23.6496 26.9964 23.9997C26.9943 24.3498 26.9009 24.6932 26.7255 24.9962C26.55 25.2991 26.2986 25.5511 25.996 25.7271C25.6934 25.9032 25.3501 25.9972 25 26Z" fill="#1C1C1C"/>
</svg>
