<svg width="32" height="32" viewBox="0 0 32 32" fill="none" xmlns="http://www.w3.org/2000/svg">
<path d="M22 20.0001C21.333 19.999 20.6727 20.1324 20.0585 20.3923C19.4442 20.6521 18.8887 21.0332 18.425 21.5126L12.6625 17.8126C13.1123 16.6461 13.1123 15.354 12.6625 14.1876L18.425 10.4876C19.2356 11.3166 20.3093 11.8382 21.4621 11.9629C22.6149 12.0877 23.7752 11.8079 24.7444 11.1714C25.7137 10.535 26.4316 9.58142 26.7753 8.47399C27.119 7.36657 27.0671 6.17411 26.6285 5.10073C26.1899 4.02734 25.3919 3.13976 24.371 2.58989C23.3502 2.04003 22.1699 1.86207 21.0323 2.08648C19.8947 2.31089 18.8705 2.92371 18.1349 3.82006C17.3993 4.71641 16.9981 5.84055 17 7.00008C17.002 7.61968 17.1164 8.23378 17.3375 8.81258L11.575 12.5126C10.8812 11.7998 9.99063 11.3102 9.0171 11.1063C8.04357 10.9024 7.03135 10.9934 6.10986 11.3679C5.18837 11.7423 4.3995 12.3831 3.84411 13.2082C3.28873 14.0334 2.99207 15.0054 2.99207 16.0001C2.99207 16.9947 3.28873 17.9668 3.84411 18.7919C4.3995 19.6171 5.18837 20.2579 6.10986 20.6323C7.03135 21.0067 8.04357 21.0978 9.0171 20.8939C9.99063 20.69 10.8812 20.2003 11.575 19.4876L17.3375 23.1876C17.1164 23.7664 17.002 24.3805 17 25.0001C17 25.989 17.2932 26.9557 17.8426 27.7779C18.392 28.6002 19.1729 29.241 20.0866 29.6195C21.0002 29.9979 22.0055 30.0969 22.9754 29.904C23.9453 29.7111 24.8363 29.2349 25.5355 28.5356C26.2348 27.8364 26.711 26.9454 26.9039 25.9755C27.0968 25.0056 26.9978 24.0003 26.6194 23.0867C26.2409 22.173 25.6001 21.3921 24.7778 20.8427C23.9556 20.2933 22.9889 20.0001 22 20.0001Z" fill="#1C1C1C"/>
</svg>
