<svg width="32" height="32" viewBox="0 0 32 32" fill="none" xmlns="http://www.w3.org/2000/svg">
<path d="M26 5V27C26 27.2652 25.8946 27.5196 25.7071 27.7071C25.5196 27.8946 25.2652 28 25 28C24.7348 28 24.4804 27.8946 24.2929 27.7071C24.1054 27.5196 24 27.2652 24 27V17.7875L9.0375 26.925C8.72394 27.1127 8.36544 27.212 8 27.2125C7.65858 27.2171 7.32208 27.1308 7.025 26.9625C6.71278 26.7897 6.45284 26.536 6.27249 26.2281C6.09213 25.9202 5.99801 25.5693 6 25.2125V6.7875C5.99953 6.43251 6.09356 6.08379 6.27242 5.77715C6.45128 5.47051 6.70854 5.217 7.01777 5.04266C7.32701 4.86832 7.67707 4.77942 8.03202 4.78511C8.38697 4.79079 8.73401 4.89085 9.0375 5.075L24 14.2125V5C24 4.73478 24.1054 4.48043 24.2929 4.29289C24.4804 4.10536 24.7348 4 25 4C25.2652 4 25.5196 4.10536 25.7071 4.29289C25.8946 4.48043 26 4.73478 26 5Z" fill="#1C1C1C"/>
</svg>
