<svg width="32" height="32" viewBox="0 0 32 32" fill="none" xmlns="http://www.w3.org/2000/svg">
<path d="M15.5125 2.01241C9.06252 2.24991 3.80001 7.46241 3.51251 13.9249C3.40564 16.0666 3.85485 18.1994 4.81644 20.116C5.77804 22.0327 7.21929 23.6678 9.00001 24.8624V26.9999C9.00001 27.5303 9.21073 28.039 9.5858 28.4141C9.96087 28.7892 10.4696 28.9999 11 28.9999H12C12.1326 28.9999 12.2598 28.9472 12.3536 28.8535C12.4473 28.7597 12.5 28.6325 12.5 28.4999V25.5374C12.4959 25.2779 12.5904 25.0265 12.7644 24.834C12.9384 24.6414 13.1789 24.522 13.4375 24.4999C13.574 24.4914 13.7108 24.5109 13.8394 24.5573C13.9681 24.6037 14.0858 24.676 14.1854 24.7698C14.285 24.8635 14.3643 24.9766 14.4184 25.1022C14.4725 25.2278 14.5003 25.3632 14.5 25.4999V28.4999C14.5 28.6325 14.5527 28.7597 14.6465 28.8535C14.7402 28.9472 14.8674 28.9999 15 28.9999H17C17.1326 28.9999 17.2598 28.9472 17.3536 28.8535C17.4473 28.7597 17.5 28.6325 17.5 28.4999V25.5374C17.4959 25.2779 17.5904 25.0265 17.7644 24.834C17.9384 24.6414 18.1789 24.522 18.4375 24.4999C18.574 24.4914 18.7108 24.5109 18.8394 24.5573C18.9681 24.6037 19.0858 24.676 19.1854 24.7698C19.285 24.8635 19.3643 24.9766 19.4184 25.1022C19.4725 25.2278 19.5003 25.3632 19.5 25.4999V28.4999C19.5 28.6325 19.5527 28.7597 19.6465 28.8535C19.7402 28.9472 19.8674 28.9999 20 28.9999H21C21.5304 28.9999 22.0392 28.7892 22.4142 28.4141C22.7893 28.039 23 27.5303 23 26.9999V24.8624C25.2532 23.3411 26.949 21.1267 27.8303 18.5548C28.7116 15.9829 28.7304 13.1938 27.8838 10.6103C27.0372 8.02681 25.3715 5.78973 23.139 4.23819C20.9065 2.68664 18.2291 1.90523 15.5125 2.01241ZM11.5 18.9999C11.0056 18.9999 10.5222 18.8533 10.1111 18.5786C9.69997 18.3039 9.37953 17.9134 9.19032 17.4566C9.0011 16.9998 8.95159 16.4971 9.04805 16.0122C9.14451 15.5272 9.38262 15.0818 9.73225 14.7321C10.0819 14.3825 10.5273 14.1444 11.0123 14.0479C11.4972 13.9515 11.9999 14.001 12.4567 14.1902C12.9135 14.3794 13.304 14.6999 13.5787 15.111C13.8534 15.5221 14 16.0055 14 16.4999C13.9967 17.1619 13.7323 17.7959 13.2642 18.264C12.796 18.7322 12.162 18.9966 11.5 18.9999ZM20.5 18.9999C20.0056 18.9999 19.5222 18.8533 19.1111 18.5786C18.7 18.3039 18.3795 17.9134 18.1903 17.4566C18.0011 16.9998 17.9516 16.4971 18.0481 16.0122C18.1445 15.5272 18.3826 15.0818 18.7322 14.7321C19.0819 14.3825 19.5273 14.1444 20.0123 14.0479C20.4972 13.9515 20.9999 14.001 21.4567 14.1902C21.9135 14.3794 22.304 14.6999 22.5787 15.111C22.8534 15.5221 23 16.0055 23 16.4999C22.9967 17.1619 22.7323 17.7959 22.2642 18.264C21.796 18.7322 21.162 18.9966 20.5 18.9999Z" fill="#1C1C1C"/>
</svg>
