<svg width="32" height="32" viewBox="0 0 32 32" fill="none" xmlns="http://www.w3.org/2000/svg">
<path d="M17 8.175V5C17 4.73478 16.8946 4.48043 16.7071 4.29289C16.5196 4.10536 16.2652 4 16 4C15.7348 4 15.4804 4.10536 15.2929 4.29289C15.1054 4.48043 15 4.73478 15 5V8.175C14.4175 8.3832 13.9135 8.76641 13.5572 9.27213C13.2009 9.77785 13.0096 10.3814 13.0096 11C13.0096 11.6186 13.2009 12.2221 13.5572 12.7279C13.9135 13.2336 14.4175 13.6168 15 13.825V27C15 27.2652 15.1054 27.5196 15.2929 27.7071C15.4804 27.8946 15.7348 28 16 28C16.2652 28 16.5196 27.8946 16.7071 27.7071C16.8946 27.5196 17 27.2652 17 27V13.825C17.5826 13.6168 18.0865 13.2336 18.4428 12.7279C18.7991 12.2221 18.9904 11.6186 18.9904 11C18.9904 10.3814 18.7991 9.77785 18.4428 9.27213C18.0865 8.76641 17.5826 8.3832 17 8.175Z" fill="#1C1C1C"/>
<path d="M28 21C27.9993 20.3802 27.8066 19.7758 27.4485 19.27C27.0904 18.7641 26.5844 18.3816 26 18.175V5C26 4.73478 25.8946 4.48043 25.7071 4.29289C25.5196 4.10536 25.2652 4 25 4C24.7348 4 24.4804 4.10536 24.2929 4.29289C24.1054 4.48043 24 4.73478 24 5V18.175C23.4175 18.3832 22.9135 18.7664 22.5572 19.2721C22.2009 19.7779 22.0096 20.3814 22.0096 21C22.0096 21.6186 22.2009 22.2221 22.5572 22.7279C22.9135 23.2336 23.4175 23.6168 24 23.825V27C24 27.2652 24.1054 27.5196 24.2929 27.7071C24.4804 27.8946 24.7348 28 25 28C25.2652 28 25.5196 27.8946 25.7071 27.7071C25.8946 27.5196 26 27.2652 26 27V23.825C26.5844 23.6184 27.0904 23.2359 27.4485 22.73C27.8066 22.2242 27.9993 21.6198 28 21Z" fill="#1C1C1C"/>
<path d="M8 14.175V5C8 4.73478 7.89465 4.48043 7.70711 4.29289C7.51957 4.10536 7.26522 4 7 4C6.73479 4 6.48043 4.10536 6.2929 4.29289C6.10536 4.48043 6 4.73478 6 5V14.175C5.41745 14.3832 4.91351 14.7664 4.5572 15.2721C4.20089 15.7779 4.00964 16.3814 4.00964 17C4.00964 17.6186 4.20089 18.2221 4.5572 18.7279C4.91351 19.2336 5.41745 19.6168 6 19.825V27C6 27.2652 6.10536 27.5196 6.2929 27.7071C6.48043 27.8946 6.73479 28 7 28C7.26522 28 7.51957 27.8946 7.70711 27.7071C7.89465 27.5196 8 27.2652 8 27V19.825C8.58255 19.6168 9.08649 19.2336 9.4428 18.7279C9.79911 18.2221 9.99036 17.6186 9.99036 17C9.99036 16.3814 9.79911 15.7779 9.4428 15.2721C9.08649 14.7664 8.58255 14.3832 8 14.175Z" fill="#1C1C1C"/>
</svg>
