<svg width="32" height="32" viewBox="0 0 32 32" fill="none" xmlns="http://www.w3.org/2000/svg">
<path d="M27.9875 18.6375C28.0234 18.7639 28.0337 18.8962 28.0178 19.0266C28.0019 19.1571 27.9601 19.283 27.8949 19.3971C27.8297 19.5112 27.7424 19.6111 27.6381 19.691C27.5338 19.7709 27.4146 19.8292 27.2875 19.8625L24.15 20.7125L24.9875 23.8375C25.0234 23.9639 25.0337 24.0962 25.0178 24.2266C25.0019 24.3571 24.9601 24.483 24.8949 24.5971C24.8297 24.7112 24.7424 24.8111 24.6381 24.891C24.5338 24.9709 24.4146 25.0292 24.2875 25.0625L24.025 25.1C23.8059 25.0995 23.5931 25.027 23.4192 24.8938C23.2453 24.7605 23.12 24.5739 23.0625 24.3625L22.075 20.6625L17 17.7375V23.5875L19.7125 26.2875C19.9003 26.4771 20.0056 26.7331 20.0056 27C20.0056 27.2668 19.9003 27.5229 19.7125 27.7125C19.5213 27.8973 19.2659 28.0006 19 28.0006C18.7341 28.0006 18.4786 27.8973 18.2875 27.7125L16 25.4125L13.7125 27.7125C13.5182 27.872 13.2715 27.9534 13.0205 27.9411C12.7694 27.9288 12.5319 27.8235 12.3542 27.6458C12.1765 27.468 12.0712 27.2306 12.0589 26.9795C12.0465 26.7285 12.128 26.4818 12.2875 26.2875L15 23.5875V17.7375L9.92499 20.6625L8.93749 24.3625C8.87998 24.5739 8.75466 24.7605 8.58077 24.8938C8.40688 25.027 8.19405 25.0995 7.97499 25.1L7.71249 25.0625C7.58537 25.0292 7.46617 24.9709 7.36186 24.891C7.25756 24.8111 7.17026 24.7112 7.10507 24.5971C7.03987 24.483 6.99811 24.3571 6.98221 24.2266C6.96631 24.0962 6.97661 23.9639 7.01249 23.8375L7.84999 20.7125L4.71249 19.8625C4.57807 19.8356 4.45062 19.7813 4.33807 19.703C4.22551 19.6248 4.13025 19.5242 4.0582 19.4076C3.98614 19.2909 3.93884 19.1607 3.91923 19.0251C3.89961 18.8894 3.9081 18.7511 3.94417 18.6189C3.98024 18.4866 4.04312 18.3632 4.1289 18.2562C4.21469 18.1493 4.32154 18.0611 4.44283 17.9972C4.56411 17.9334 4.69724 17.8951 4.83395 17.8848C4.97065 17.8745 5.10801 17.8925 5.23749 17.9375L8.92499 18.925L14 16L8.92499 13.075L5.23749 14.0625C5.15217 14.0872 5.06381 14.0998 4.97499 14.1C4.73423 14.0979 4.50231 14.009 4.32182 13.8497C4.14133 13.6904 4.02438 13.4712 3.99246 13.2326C3.96054 12.994 4.01579 12.7518 4.14806 12.5507C4.28033 12.3495 4.48074 12.2028 4.71249 12.1375L7.84999 11.2875L7.01249 8.16249C6.96272 7.91406 7.0091 7.65601 7.14226 7.44046C7.27543 7.22491 7.48545 7.06795 7.72989 7.00128C7.97432 6.93462 8.23495 6.96322 8.45911 7.08132C8.68327 7.19941 8.85424 7.39819 8.93749 7.63749L9.92499 11.3375L15 14.2625V8.41249L12.2875 5.71249C12.128 5.5182 12.0465 5.27153 12.0589 5.02048C12.0712 4.76943 12.1765 4.53194 12.3542 4.3542C12.5319 4.17647 12.7694 4.0712 13.0205 4.05887C13.2715 4.04654 13.5182 4.12803 13.7125 4.28749L16 6.58749L18.2875 4.28749C18.4818 4.12803 18.7284 4.04654 18.9795 4.05887C19.2306 4.0712 19.468 4.17647 19.6458 4.3542C19.8235 4.53194 19.9288 4.76943 19.9411 5.02048C19.9534 5.27153 19.872 5.5182 19.7125 5.71249L17 8.41249V14.2625L22.075 11.3375L23.0625 7.63749C23.0894 7.50307 23.1437 7.37563 23.222 7.26307C23.3002 7.15052 23.4008 7.05525 23.5174 6.9832C23.634 6.91115 23.7642 6.86384 23.8999 6.84423C24.0356 6.82461 24.1739 6.83311 24.3061 6.86918C24.4384 6.90525 24.5618 6.96813 24.6687 7.05391C24.7757 7.13969 24.8638 7.24654 24.9277 7.36783C24.9916 7.48912 25.0299 7.62225 25.0402 7.75895C25.0505 7.89566 25.0325 8.03301 24.9875 8.16249L24.15 11.2875L27.2875 12.1375C27.5192 12.2028 27.7196 12.3495 27.8519 12.5507C27.9842 12.7518 28.0394 12.994 28.0075 13.2326C27.9756 13.4712 27.8586 13.6904 27.6782 13.8497C27.4977 14.009 27.2657 14.0979 27.025 14.1L26.7625 14.0625L23.075 13.075L18 16L23.075 18.925L26.7625 17.9375C26.8889 17.9016 27.0212 17.8913 27.1516 17.9072C27.2821 17.9231 27.408 17.9649 27.5221 18.0301C27.6362 18.0953 27.7361 18.1826 27.816 18.2869C27.8959 18.3912 27.9542 18.5104 27.9875 18.6375Z" fill="#1C1C1C"/>
</svg>
