<svg width="32" height="32" viewBox="0 0 32 32" fill="none" xmlns="http://www.w3.org/2000/svg">
<path d="M28.975 16.8501C28.9813 16.8003 28.9813 16.7499 28.975 16.7001C28.9875 16.4626 29 16.2376 29 16.0001C29.0044 13.038 27.9892 10.1646 26.125 7.8626C26.0816 7.7807 26.0221 7.70842 25.95 7.6501C24.5719 6.00273 22.8067 4.72286 20.8125 3.9251L20.675 3.8751C17.6676 2.7083 14.3325 2.7083 11.325 3.8751L11.1875 3.9251C9.19335 4.72286 7.42816 6.00273 6.05001 7.6501C5.97795 7.70842 5.91842 7.7807 5.87501 7.8626C4.01083 10.1646 2.99565 13.038 3.00001 16.0001C3.00001 16.2376 3.01251 16.4626 3.02501 16.7001C3.01874 16.7499 3.01874 16.8003 3.02501 16.8501C3.16918 18.998 3.84345 21.0766 4.98751 22.9001C5.02596 22.9754 5.07204 23.0467 5.12501 23.1126C6.88198 25.7942 9.56539 27.7345 12.6625 28.5626H12.7C14.8635 29.1292 17.1365 29.1292 19.3 28.5626H19.3375C22.4346 27.7345 25.118 25.7942 26.875 23.1126C26.928 23.0467 26.9741 22.9754 27.0125 22.9001C28.1566 21.0766 28.8309 18.998 28.975 16.8501ZM8.56251 14.6376L10.2125 15.1751L11.8 20.0751L10.7875 21.4751H6.46251C5.69861 20.1607 5.22149 18.6995 5.06251 17.1876L8.56251 14.6376ZM23.4375 14.6376L26.9375 17.1876C26.7785 18.6995 26.3014 20.1607 25.5375 21.4751H21.2125L20.2 20.0751L21.7875 15.1751L23.4375 14.6376ZM24.15 8.6251L22.8125 12.7376L21.1625 13.2751L17 10.2376V8.5126L20.5 5.9626C21.8896 6.58481 23.1331 7.49188 24.15 8.6251ZM11.5 5.9626L15 8.5126V10.2376L10.8375 13.2751L9.18751 12.7376L7.85001 8.6251C8.86688 7.49188 10.1104 6.58481 11.5 5.9626ZM13.75 26.7626L12.4125 22.6501L13.425 21.2501H18.575L19.5875 22.6501L18.25 26.7626C16.7667 27.0793 15.2333 27.0793 13.75 26.7626Z" fill="#1C1C1C"/>
</svg>
