<svg width="32" height="32" viewBox="0 0 32 32" fill="none" xmlns="http://www.w3.org/2000/svg">
<path d="M19.4375 3.09995C19.2694 3.01886 19.082 2.98642 18.8964 3.0063C18.7109 3.02618 18.5346 3.09759 18.3875 3.21245L9.65 9.99995H4C3.46957 9.99995 2.96086 10.2107 2.58579 10.5857C2.21071 10.9608 2 11.4695 2 12V20C2 20.5304 2.21071 21.0391 2.58579 21.4142C2.96086 21.7892 3.46957 22 4 22H9.65L18.3875 28.7875C18.5619 28.9252 18.7777 29.0001 19 29C19.1513 28.9981 19.3004 28.9641 19.4375 28.9C19.6063 28.8178 19.7485 28.6899 19.848 28.5307C19.9475 28.3716 20.0001 28.1876 20 28V3.99995C20.0001 3.81227 19.9475 3.62833 19.848 3.46917C19.7485 3.31002 19.6063 3.18206 19.4375 3.09995Z" fill="#1C1C1C"/>
<path d="M28.4125 16L30.7125 13.7125C30.872 13.5182 30.9535 13.2715 30.9411 13.0204C30.9288 12.7694 30.8235 12.5319 30.6458 12.3542C30.4681 12.1764 30.2306 12.0712 29.9795 12.0588C29.7285 12.0465 29.4818 12.128 29.2875 12.2875L27 14.5875L24.7125 12.2875C24.5182 12.128 24.2716 12.0465 24.0205 12.0588C23.7694 12.0712 23.532 12.1764 23.3542 12.3542C23.1765 12.5319 23.0712 12.7694 23.0589 13.0204C23.0466 13.2715 23.128 13.5182 23.2875 13.7125L25.5875 16L23.2875 18.2875C23.0997 18.477 22.9944 18.7331 22.9944 19C22.9944 19.2668 23.0997 19.5229 23.2875 19.7125C23.4795 19.8959 23.7345 19.9988 24 20C24.2651 19.9964 24.5192 19.8938 24.7125 19.7125L27 17.4125L29.2875 19.7125C29.4795 19.8959 29.7345 19.9988 30 20C30.2651 19.9964 30.5192 19.8938 30.7125 19.7125C30.9003 19.5229 31.0056 19.2668 31.0056 19C31.0056 18.7331 30.9003 18.477 30.7125 18.2875L28.4125 16Z" fill="#1C1C1C"/>
</svg>
