<svg width="32" height="32" viewBox="0 0 32 32" fill="none" xmlns="http://www.w3.org/2000/svg">
<path d="M27.5 21.1375L16 27.8375L4.50003 21.1375C4.27308 21.0287 4.01343 21.0094 3.77291 21.0836C3.53238 21.1577 3.32867 21.3199 3.20243 21.5376C3.07619 21.7554 3.03672 22.0128 3.09188 22.2583C3.14705 22.5039 3.29279 22.7197 3.50003 22.8625L15.5 29.8625C15.6512 29.9528 15.824 30.0005 16 30.0005C16.1761 30.0005 16.3489 29.9528 16.5 29.8625L28.5 22.8625C28.6244 22.8029 28.735 22.7182 28.8251 22.6137C28.9151 22.5093 28.9825 22.3873 29.0232 22.2555C29.0638 22.1238 29.0767 21.985 29.0612 21.848C29.0456 21.711 29.0019 21.5786 28.9327 21.4593C28.8635 21.34 28.7705 21.2363 28.6593 21.1547C28.5481 21.0731 28.4213 21.0154 28.2867 20.9852C28.1522 20.955 28.0128 20.9529 27.8775 20.9791C27.7421 21.0053 27.6136 21.0593 27.5 21.1375Z" fill="#1C1C1C"/>
<path d="M27.5 15.1375L16 21.8375L4.50003 15.1375C4.27308 15.0287 4.01343 15.0094 3.77291 15.0836C3.53238 15.1577 3.32867 15.3199 3.20243 15.5376C3.07619 15.7554 3.03672 16.0128 3.09188 16.2583C3.14705 16.5039 3.29279 16.7197 3.50003 16.8625L15.5 23.8625C15.6512 23.9528 15.824 24.0005 16 24.0005C16.1761 24.0005 16.3489 23.9528 16.5 23.8625L28.5 16.8625C28.6244 16.8029 28.735 16.7182 28.8251 16.6137C28.9151 16.5093 28.9825 16.3873 29.0232 16.2555C29.0638 16.1238 29.0767 15.985 29.0612 15.848C29.0456 15.711 29.0019 15.5786 28.9327 15.4593C28.8635 15.34 28.7705 15.2363 28.6593 15.1547C28.5481 15.0731 28.4213 15.0154 28.2867 14.9852C28.1522 14.955 28.0128 14.9529 27.8775 14.9791C27.7421 15.0053 27.6136 15.0593 27.5 15.1375Z" fill="#1C1C1C"/>
<path d="M3.50005 10.8625L15.5 17.8625C15.6512 17.9528 15.824 18.0005 16 18.0005C16.1761 18.0005 16.3489 17.9528 16.5 17.8625L28.5 10.8625C28.6504 10.7743 28.7751 10.6483 28.8618 10.497C28.9484 10.3457 28.994 10.1743 28.994 10C28.994 9.82565 28.9484 9.65433 28.8618 9.50303C28.7751 9.35174 28.6504 9.22573 28.5 9.1375L16.5 2.1375C16.3494 2.04589 16.1764 1.99744 16 1.99744C15.8237 1.99744 15.6507 2.04589 15.5 2.1375L3.50005 9.1375C3.34967 9.22573 3.22498 9.35174 3.13833 9.50303C3.05169 9.65433 3.0061 9.82565 3.0061 10C3.0061 10.1743 3.05169 10.3457 3.13833 10.497C3.22498 10.6483 3.34967 10.7743 3.50005 10.8625Z" fill="#1C1C1C"/>
</svg>
