<svg width="32" height="32" viewBox="0 0 32 32" fill="none" xmlns="http://www.w3.org/2000/svg">
<path d="M29.9 12.175C29.7748 11.7812 29.5336 11.4344 29.2079 11.1802C28.8823 10.9259 28.4874 10.7759 28.075 10.75L20.7 10.275C20.6891 10.2737 20.6787 10.2695 20.67 10.2629C20.6612 10.2564 20.6543 10.2476 20.65 10.2375L17.9 3.29999C17.7515 2.91669 17.4906 2.58724 17.1515 2.35493C16.8125 2.12261 16.411 1.99829 16 1.99829C15.5889 1.99829 15.1875 2.12261 14.8484 2.35493C14.5093 2.58724 14.2484 2.91669 14.1 3.29999L11.35 10.2375C11.3457 10.2476 11.3388 10.2564 11.33 10.2629C11.3212 10.2695 11.3109 10.2737 11.3 10.275L3.92498 10.75C3.51261 10.7759 3.1177 10.9259 2.79204 11.1802C2.46637 11.4344 2.22514 11.7812 2.09998 12.175C1.96991 12.5739 1.96231 13.0026 2.07816 13.4059C2.19402 13.8091 2.42802 14.1685 2.74998 14.4375L8.39998 19.1375C8.41284 19.1503 8.42196 19.1664 8.42636 19.184C8.43077 19.2016 8.43029 19.2201 8.42498 19.2375L6.73748 25.875C6.62247 26.3241 6.64432 26.7973 6.80024 27.2338C6.95615 27.6704 7.23901 28.0504 7.61248 28.325C7.97627 28.5861 8.40969 28.7327 8.85728 28.7461C9.30487 28.7594 9.74627 28.6389 10.125 28.4L15.9875 24.6875H16.0125L22.325 28.675C22.6488 28.8854 23.0263 28.9982 23.4125 29C23.8385 28.9943 24.2526 28.8591 24.6 28.6125C24.9394 28.3664 25.1963 28.0233 25.3369 27.6284C25.4774 27.2334 25.4951 26.8052 25.3875 26.4L23.575 19.2375C23.5697 19.2201 23.5692 19.2016 23.5736 19.184C23.578 19.1664 23.5871 19.1503 23.6 19.1375L29.25 14.4375C29.572 14.1685 29.806 13.8091 29.9218 13.4059C30.0377 13.0026 30.0301 12.5739 29.9 12.175ZM27.975 12.9L22.3125 17.6C22.0118 17.8551 21.789 18.1897 21.6697 18.5655C21.5503 18.9413 21.5391 19.3431 21.6375 19.725L23.45 26.8875C23.4625 26.9375 23.4625 26.95 23.45 26.9625C23.4417 26.9786 23.4286 26.9917 23.4125 27H23.3875L17.0875 23C16.7626 22.7933 16.385 22.6848 16 22.6875V3.99999C16.0125 3.99999 16.025 3.99999 16.0375 4.03749L18.8 10.975C18.9408 11.3361 19.1811 11.65 19.4931 11.8801C19.805 12.1102 20.1758 12.2471 20.5625 12.275L27.95 12.75C27.9625 12.75 27.975 12.75 27.9875 12.8C28 12.85 27.9875 12.8875 27.975 12.9Z" fill="#1C1C1C"/>
</svg>
