<svg width="32" height="32" viewBox="0 0 32 32" fill="none" xmlns="http://www.w3.org/2000/svg">
<path d="M29.9 12.175C29.7748 11.7812 29.5336 11.4345 29.2079 11.1802C28.8823 10.9259 28.4874 10.7759 28.075 10.75L20.65 10.2375L17.9 3.3C17.7498 2.918 17.4884 2.58988 17.1497 2.3581C16.811 2.12633 16.4104 2.00158 16 2C15.5895 2.00158 15.189 2.12633 14.8503 2.3581C14.5115 2.58988 14.2501 2.918 14.1 3.3L11.3 10.275L3.92498 10.75C3.51312 10.7776 3.11901 10.9282 2.79365 11.1822C2.46829 11.4363 2.22665 11.7821 2.09998 12.175C1.96991 12.5739 1.96231 13.0026 2.07816 13.4059C2.19402 13.8092 2.42802 14.1685 2.74998 14.4375L8.42498 19.2375L6.73748 25.875C6.62073 26.324 6.64174 26.7978 6.79779 27.2347C6.95383 27.6716 7.2377 28.0515 7.61248 28.325C7.97627 28.5861 8.40969 28.7327 8.85728 28.7461C9.30487 28.7594 9.74627 28.6389 10.125 28.4L15.9875 24.6875H16.0125L22.325 28.675C22.6488 28.8854 23.0263 28.9983 23.4125 29C23.7278 28.9975 24.0383 28.9228 24.3202 28.7815C24.6022 28.6403 24.8479 28.4362 25.0387 28.1851C25.2294 27.9341 25.36 27.6426 25.4205 27.3331C25.481 27.0236 25.4697 26.7044 25.3875 26.4L23.6 19.1375L29.25 14.4375C29.572 14.1685 29.806 13.8092 29.9218 13.4059C30.0377 13.0026 30.0301 12.5739 29.9 12.175Z" fill="#1C1C1C"/>
</svg>
