<svg width="32" height="32" viewBox="0 0 32 32" fill="none" xmlns="http://www.w3.org/2000/svg">
<path d="M9.7125 5.45001C9.61309 5.20287 9.61508 4.92652 9.71803 4.68084C9.82098 4.43515 10.0166 4.23994 10.2625 4.13751C10.3838 4.0868 10.514 4.06082 10.6455 4.0611C10.777 4.06138 10.9071 4.08791 11.0282 4.13914C11.1492 4.19037 11.2589 4.26526 11.3506 4.35943C11.4424 4.45359 11.5144 4.56513 11.5625 4.68751L12.525 6.98751C12.6252 7.23309 12.625 7.50816 12.5245 7.75359C12.4239 7.99903 12.2311 8.19522 11.9875 8.30001C11.8642 8.34899 11.7327 8.37443 11.6 8.37501C11.4033 8.37244 11.2115 8.31333 11.0475 8.20472C10.8835 8.09611 10.7542 7.9426 10.675 7.76251L9.7125 5.45001ZM2.6875 13.5625L4.9875 14.525C5.11085 14.574 5.24228 14.5994 5.375 14.6C5.60726 14.6018 5.83289 14.5226 6.01316 14.3762C6.19343 14.2297 6.3171 14.0251 6.36294 13.7974C6.40877 13.5697 6.37392 13.3331 6.26435 13.1283C6.15479 12.9235 5.97735 12.7632 5.7625 12.675L3.45 11.7125C3.20286 11.6131 2.92651 11.6151 2.68083 11.718C2.43515 11.821 2.23994 12.0166 2.1375 12.2625C2.08679 12.3838 2.06081 12.514 2.06109 12.6455C2.06137 12.777 2.0879 12.9071 2.13913 13.0282C2.19036 13.1493 2.26526 13.2589 2.35942 13.3506C2.45359 13.4424 2.56513 13.5144 2.6875 13.5625ZM26.625 14.6C26.7577 14.5994 26.8892 14.574 27.0125 14.525L29.3125 13.5625C29.4349 13.5144 29.5464 13.4424 29.6406 13.3506C29.7347 13.2589 29.8096 13.1493 29.8609 13.0282C29.9121 12.9071 29.9386 12.777 29.9389 12.6455C29.9392 12.514 29.9132 12.3838 29.8625 12.2625C29.7601 12.0166 29.5649 11.821 29.3192 11.718C29.0735 11.6151 28.7971 11.6131 28.55 11.7125L26.2375 12.675C26.0226 12.7632 25.8452 12.9235 25.7356 13.1283C25.6261 13.3331 25.5912 13.5697 25.6371 13.7974C25.6829 14.0251 25.8066 14.2297 25.9868 14.3762C26.1671 14.5226 26.3927 14.6018 26.625 14.6ZM20.0125 8.30001C20.1358 8.34899 20.2673 8.37443 20.4 8.37501C20.5967 8.37244 20.7885 8.31333 20.9525 8.20472C21.1165 8.09611 21.2458 7.9426 21.325 7.76251L22.2875 5.45001C22.3869 5.20287 22.3849 4.92652 22.282 4.68084C22.179 4.43515 21.9834 4.23994 21.7375 4.13751C21.6162 4.0868 21.486 4.06082 21.3545 4.0611C21.223 4.06138 21.0929 4.08791 20.9718 4.13914C20.8508 4.19037 20.7411 4.26526 20.6494 4.35943C20.5576 4.45359 20.4856 4.56513 20.4375 4.68751L19.475 6.98751C19.3748 7.23309 19.375 7.50816 19.4755 7.75359C19.5761 7.99903 19.7689 8.19522 20.0125 8.30001ZM30 19H24.4375C24.4774 18.6681 24.4983 18.3343 24.5 18C24.5 15.7457 23.6045 13.5837 22.0104 11.9896C20.4163 10.3955 18.2543 9.50001 16 9.50001C13.7457 9.50001 11.5837 10.3955 9.98959 11.9896C8.39553 13.5837 7.5 15.7457 7.5 18C7.50174 18.3343 7.52261 18.6681 7.5625 19H2C1.73478 19 1.48043 19.1054 1.29289 19.2929C1.10536 19.4804 1 19.7348 1 20C1 20.2652 1.10536 20.5196 1.29289 20.7071C1.48043 20.8947 1.73478 21 2 21H30C30.2652 21 30.5196 20.8947 30.7071 20.7071C30.8946 20.5196 31 20.2652 31 20C31 19.7348 30.8946 19.4804 30.7071 19.2929C30.5196 19.1054 30.2652 19 30 19ZM26 24H6C5.73478 24 5.48043 24.1054 5.29289 24.2929C5.10536 24.4804 5 24.7348 5 25C5 25.2652 5.10536 25.5196 5.29289 25.7071C5.48043 25.8947 5.73478 26 6 26H26C26.2652 26 26.5196 25.8947 26.7071 25.7071C26.8946 25.5196 27 25.2652 27 25C27 24.7348 26.8946 24.4804 26.7071 24.2929C26.5196 24.1054 26.2652 24 26 24Z" fill="#1C1C1C"/>
</svg>
