<svg width="32" height="32" viewBox="0 0 32 32" fill="none" xmlns="http://www.w3.org/2000/svg">
<path d="M28.525 19.1249L26.125 12.5374C25.942 12.0407 25.5695 11.6367 25.0892 11.4141C24.6088 11.1915 24.0598 11.1684 23.5625 11.3499L16.075 14.0749L17.45 6.22494C17.4973 5.96583 17.4929 5.69994 17.4371 5.44253C17.3813 5.18512 17.2753 4.94125 17.125 4.72494C16.8201 4.29225 16.358 3.99611 15.8375 3.89994L8.93749 2.68744C8.41583 2.60007 7.88074 2.72158 7.44798 3.02569C7.01522 3.32979 6.71957 3.79204 6.62499 4.31244L3.59999 21.4624C3.47141 22.1973 3.49029 22.9504 3.65553 23.6779C3.82077 24.4054 4.12907 25.0927 4.56249 25.6999C4.98025 26.2941 5.51305 26.7982 6.12929 27.1826C6.74554 27.5669 7.43269 27.8236 8.14999 27.9374C8.4275 27.9764 8.70726 27.9973 8.98749 27.9999H26.5C27.0304 27.9999 27.5391 27.7892 27.9142 27.4142C28.2893 27.0391 28.5 26.5304 28.5 25.9999V20.5374C28.6834 20.086 28.6923 19.5826 28.525 19.1249ZM8.99999 23.9999C8.70332 23.9999 8.41331 23.912 8.16664 23.7471C7.91996 23.5823 7.7277 23.3481 7.61417 23.074C7.50064 22.7999 7.47094 22.4983 7.52881 22.2073C7.58669 21.9163 7.72955 21.6491 7.93933 21.4393C8.14911 21.2295 8.41638 21.0866 8.70736 21.0288C8.99833 20.9709 9.29993 21.0006 9.57402 21.1141C9.84811 21.2277 10.0824 21.4199 10.2472 21.6666C10.412 21.9133 10.5 22.2033 10.5 22.4999C10.5 22.8978 10.342 23.2793 10.0607 23.5606C9.77935 23.8419 9.39782 23.9999 8.99999 23.9999ZM26.5 25.9999H15.4625L26.5 21.9874V25.9999ZM14.1875 24.3374C14.2888 24.0489 14.3641 23.7519 14.4125 23.4499L15.675 16.3499L24.25 13.2249L26.6375 19.7999L14.1875 24.3374Z" fill="#1C1C1C"/>
</svg>
