<svg width="32" height="32" viewBox="0 0 32 32" fill="none" xmlns="http://www.w3.org/2000/svg">
<path d="M27.7125 4.28752C27.522 4.10179 27.266 3.99852 27 4.00002L19.025 4.02502C18.8772 4.02521 18.7312 4.05776 18.5973 4.12038C18.4634 4.18301 18.3449 4.27419 18.25 4.38752L9.45 15.0375L8.4125 14C8.03597 13.629 7.52859 13.421 7 13.421C6.4714 13.421 5.96402 13.629 5.5875 14L4 15.5875C3.8133 15.7723 3.66509 15.9923 3.56394 16.2348C3.46279 16.4772 3.41071 16.7373 3.41071 17C3.41071 17.2627 3.46279 17.5228 3.56394 17.7653C3.66509 18.0077 3.8133 18.2277 4 18.4125L6.6125 21.025L2.8625 24.7625C2.49071 25.1412 2.28241 25.6506 2.28241 26.1813C2.28241 26.7119 2.49071 27.2214 2.8625 27.6L4.4 29.1375C4.78018 29.5064 5.28905 29.7126 5.81875 29.7126C6.34844 29.7126 6.85732 29.5064 7.2375 29.1375L10.975 25.3875L13.5875 28C13.964 28.371 14.4714 28.579 15 28.579C15.5286 28.579 16.036 28.371 16.4125 28L18 26.4125C18.1867 26.2277 18.3349 26.0077 18.4361 25.7653C18.5372 25.5228 18.5893 25.2627 18.5893 25C18.5893 24.7373 18.5372 24.4772 18.4361 24.2348C18.3349 23.9923 18.1867 23.7723 18 23.5875L16.9625 22.55L27.6125 13.75C27.7258 13.6551 27.817 13.5366 27.8796 13.4027C27.9423 13.2688 27.9748 13.1228 27.975 12.975L28 5.00002C28.0015 4.73397 27.8982 4.47802 27.7125 4.28752ZM25.975 12.5L15.5375 21.125L13.9125 19.5L20.7125 12.7125C20.872 12.5182 20.9535 12.2716 20.9411 12.0205C20.9288 11.7695 20.8235 11.532 20.6458 11.3542C20.4681 11.1765 20.2306 11.0712 19.9795 11.0589C19.7285 11.0466 19.4818 11.1281 19.2875 11.2875L12.5 18.0875L10.875 16.4625L19.5 6.02502L26 6.00002L25.975 12.5Z" fill="#1C1C1C"/>
</svg>
