<svg width="32" height="32" viewBox="0 0 32 32" fill="none" xmlns="http://www.w3.org/2000/svg">
<path d="M29.7125 9.71245C29.5214 9.89727 29.2659 10.0006 29 10.0006C28.7341 10.0006 28.4786 9.89727 28.2875 9.71245L26 7.41245L22.4125 11L26.7125 15.2875C26.9003 15.477 27.0056 15.7331 27.0056 16C27.0056 16.2668 26.9003 16.5229 26.7125 16.7125C26.5214 16.8973 26.2659 17.0006 26 17.0006C25.7341 17.0006 25.4786 16.8973 25.2875 16.7125L24.5 15.9125L14 26.4125C13.6249 26.7866 13.1173 26.9977 12.5875 27H6.41249L3.71249 29.7125C3.52135 29.8973 3.26588 30.0006 2.99999 30.0006C2.73411 30.0006 2.47863 29.8973 2.28749 29.7125C2.09971 29.5229 1.99437 29.2668 1.99437 29C1.99437 28.7331 2.09971 28.477 2.28749 28.2875L4.99999 25.5875V19.4125C5.00226 18.8826 5.21337 18.3751 5.58749 18L6.98749 16.6C7.08096 16.5083 7.20662 16.457 7.33749 16.457C7.46837 16.457 7.59403 16.5083 7.68749 16.6L11.2875 20.2125C11.4786 20.3973 11.7341 20.5006 12 20.5006C12.2659 20.5006 12.5214 20.3973 12.7125 20.2125C12.9003 20.0229 13.0056 19.7668 13.0056 19.5C13.0056 19.2331 12.9003 18.977 12.7125 18.7875L9.1 15.1875C9.00838 15.094 8.95707 14.9683 8.95707 14.8375C8.95707 14.7066 9.00838 14.5809 9.1 14.4875L11.4875 12.1C11.581 12.0083 11.7066 11.957 11.8375 11.957C11.9684 11.957 12.094 12.0083 12.1875 12.1L15.7875 15.7125C15.9786 15.8973 16.2341 16.0006 16.5 16.0006C16.7659 16.0006 17.0214 15.8973 17.2125 15.7125C17.4003 15.5229 17.5056 15.2668 17.5056 15C17.5056 14.7331 17.4003 14.477 17.2125 14.2875L13.6 10.6875C13.5084 10.594 13.4571 10.4683 13.4571 10.3375C13.4571 10.2066 13.5084 10.0809 13.6 9.98745L16.0875 7.49995L15.325 6.73745C15.1361 6.55131 15.0257 6.29992 15.0164 6.0349C15.0071 5.76989 15.0996 5.51137 15.275 5.31245C15.3675 5.21594 15.4781 5.13868 15.6006 5.08514C15.723 5.0316 15.8549 5.00284 15.9885 5.00052C16.1222 4.9982 16.255 5.02235 16.3792 5.0716C16.5035 5.12085 16.6167 5.19421 16.7125 5.28745L21 9.58745L24.5875 5.99995L22.325 3.73745C22.1361 3.55131 22.0257 3.29992 22.0164 3.0349C22.0071 2.76989 22.0996 2.51137 22.275 2.31245C22.3675 2.21594 22.4781 2.13868 22.6006 2.08514C22.723 2.0316 22.8549 2.00284 22.9885 2.00052C23.1222 1.9982 23.255 2.02235 23.3792 2.0716C23.5035 2.12085 23.6167 2.19421 23.7125 2.28745L29.7125 8.28745C29.9003 8.47705 30.0056 8.73311 30.0056 8.99995C30.0056 9.2668 29.9003 9.52286 29.7125 9.71245Z" fill="#1C1C1C"/>
</svg>
