<svg width="32" height="32" viewBox="0 0 32 32" fill="none" xmlns="http://www.w3.org/2000/svg">
<path d="M29.4625 17.1125L24.125 25.1125C23.943 25.3864 23.6958 25.6109 23.4057 25.7658C23.1155 25.9207 22.7915 26.0012 22.4625 26H3.00005C2.81994 26.0018 2.64284 25.9538 2.48839 25.8611C2.33393 25.7684 2.20817 25.6348 2.12505 25.475C2.03817 25.3167 1.99578 25.1378 2.00238 24.9573C2.00898 24.7768 2.06433 24.6015 2.16255 24.45L7.80005 16L2.16255 7.54999C2.06433 7.39845 2.00898 7.22313 2.00238 7.04266C1.99578 6.8622 2.03817 6.68331 2.12505 6.52499C2.20817 6.3652 2.33393 6.23155 2.48839 6.13888C2.64284 6.04621 2.81994 5.99814 3.00005 5.99999H22.4625C22.7915 5.99881 23.1155 6.07927 23.4057 6.23417C23.6958 6.38906 23.943 6.61355 24.125 6.88749L29.4625 14.8875C29.6829 15.2167 29.8005 15.6039 29.8005 16C29.8005 16.3961 29.6829 16.7833 29.4625 17.1125Z" fill="#1C1C1C"/>
</svg>
