<svg width="32" height="32" viewBox="0 0 32 32" fill="none" xmlns="http://www.w3.org/2000/svg">
<path d="M28.9125 3.96245C28.6351 3.72736 28.2992 3.57183 27.9404 3.51241C27.5816 3.45298 27.2135 3.49187 26.875 3.62495L3.80005 12.6874C3.39531 12.8416 3.05249 13.1246 2.82437 13.4928C2.59624 13.8609 2.49546 14.2939 2.53755 14.7249C2.57509 15.1558 2.75132 15.5629 3.03979 15.8852C3.32826 16.2075 3.71343 16.4276 4.13755 16.5124L10 17.6749V24.9999C9.99984 25.3962 10.1174 25.7836 10.3377 26.113C10.558 26.4424 10.8712 26.6989 11.2375 26.8499C11.48 26.9475 11.7387 26.9984 12 26.9999C12.2627 27.0009 12.523 26.9494 12.7655 26.8485C13.008 26.7476 13.228 26.5994 13.4125 26.4124L16.6625 23.1749L21.575 27.4999C21.9377 27.8198 22.404 27.9974 22.8875 27.9999C23.1002 28.0043 23.3119 27.9705 23.5125 27.8999C23.8424 27.7956 24.1393 27.6069 24.3739 27.3526C24.6085 27.0983 24.7726 26.7871 24.85 26.4499L29.55 5.92495C29.6322 5.57078 29.6163 5.20092 29.5039 4.85514C29.3916 4.50935 29.1871 4.20073 28.9125 3.96245ZM22.9 25.9999L12.6 16.9374L27.4375 6.22495L22.9 25.9999Z" fill="#1C1C1C"/>
</svg>
