<svg width="32" height="32" viewBox="0 0 32 32" fill="none" xmlns="http://www.w3.org/2000/svg">
<path d="M15 16C15.0002 15.8582 14.9701 15.718 14.9119 15.5887C14.8538 15.4594 14.7687 15.3439 14.6625 15.25L5.66253 7.24997C5.56403 7.16297 5.44937 7.09622 5.32508 7.05353C5.20079 7.01085 5.06932 6.99306 4.93815 7.00118C4.80699 7.00931 4.67871 7.04319 4.56064 7.10089C4.44257 7.15859 4.33703 7.23898 4.25003 7.33747C4.16302 7.43596 4.09628 7.55063 4.05359 7.67491C4.0109 7.7992 3.99311 7.93068 4.00124 8.06184C4.00936 8.193 4.04324 8.32128 4.10094 8.43935C4.15864 8.55742 4.23903 8.66297 4.33753 8.74997L12.5 16L4.33753 23.25C4.18512 23.3844 4.07727 23.562 4.02836 23.7593C3.97945 23.9565 3.99179 24.164 4.06374 24.354C4.13568 24.5441 4.26382 24.7077 4.43109 24.8231C4.59836 24.9385 4.79681 25.0002 5.00003 25C5.24375 24.9991 5.47898 24.9103 5.66253 24.75L14.6625 16.75C14.7687 16.656 14.8538 16.5406 14.9119 16.4113C14.9701 16.282 15.0002 16.1418 15 16Z" fill="#1C1C1C"/>
<path d="M27 23H15C14.7348 23 14.4804 23.1054 14.2929 23.2929C14.1054 23.4804 14 23.7348 14 24C14 24.2652 14.1054 24.5196 14.2929 24.7071C14.4804 24.8946 14.7348 25 15 25H27C27.2652 25 27.5196 24.8946 27.7071 24.7071C27.8946 24.5196 28 24.2652 28 24C28 23.7348 27.8946 23.4804 27.7071 23.2929C27.5196 23.1054 27.2652 23 27 23Z" fill="#1C1C1C"/>
</svg>
