<svg width="32" height="32" viewBox="0 0 32 32" fill="none" xmlns="http://www.w3.org/2000/svg">
<path d="M29.7125 10.7875L22.2125 3.28751C22.0229 3.09973 21.7668 2.99438 21.5 2.99438C21.2332 2.99438 20.9771 3.09973 20.7875 3.28751L7.8 16.2875L4.5375 19.5375C3.48658 20.5884 2.89618 22.0138 2.89618 23.5C2.89618 24.9862 3.48658 26.4116 4.5375 27.4625C5.58842 28.5134 7.01377 29.1038 8.5 29.1038C9.98623 29.1038 11.4116 28.5134 12.4625 27.4625L22.2 17.7125L26.5375 13.375L29.3125 12.45C29.4748 12.3943 29.6205 12.2987 29.7362 12.172C29.852 12.0454 29.9341 11.8917 29.975 11.725C30.0113 11.5592 30.0063 11.387 29.9605 11.2236C29.9148 11.0601 29.8296 10.9104 29.7125 10.7875ZM25.6875 11.55C25.5397 11.6017 25.4037 11.6825 25.2875 11.7875L20.8375 16.2375C20.575 16.4375 18.6 17.6875 15.45 16.1C14.075 15.4125 12.85 15.15 11.8 15.1125L21.5 5.41251L27.15 11.0625L25.6875 11.55Z" fill="#1C1C1C"/>
</svg>
