<svg width="32" height="32" viewBox="0 0 32 32" fill="none" xmlns="http://www.w3.org/2000/svg">
<path d="M21.3125 14.4625C22.1025 13.702 22.6472 12.7228 22.8766 11.6504C23.1059 10.5781 23.0095 9.46172 22.5997 8.4446C22.1899 7.42747 21.4854 6.55607 20.5767 5.94229C19.668 5.32851 18.5966 5.00037 17.5 5.00002H8C7.86822 4.99834 7.73743 5.02306 7.61534 5.07272C7.49326 5.12238 7.38235 5.19598 7.28916 5.28917C7.19596 5.38237 7.12236 5.49327 7.0727 5.61536C7.02304 5.73744 6.99832 5.86823 7 6.00002V25C7 25.2652 7.10536 25.5196 7.2929 25.7071C7.48043 25.8947 7.73479 26 8 26H19C20.3871 26.0006 21.7315 25.5206 22.8045 24.6417C23.8775 23.7627 24.6129 22.5392 24.8855 21.1792C25.1581 19.8192 24.9511 18.4067 24.2996 17.1822C23.6482 15.9576 22.5926 14.9965 21.3125 14.4625ZM9 7.00002H17.5C18.4283 7.00002 19.3185 7.36877 19.9749 8.02515C20.6313 8.68152 21 9.57176 21 10.5C21 11.4283 20.6313 12.3185 19.9749 12.9749C19.3185 13.6313 18.4283 14 17.5 14H9V7.00002ZM19 24H9V16H19C20.0609 16 21.0783 16.4214 21.8284 17.1716C22.5786 17.9217 23 18.9392 23 20C23 21.0609 22.5786 22.0783 21.8284 22.8284C21.0783 23.5786 20.0609 24 19 24Z" fill="#1C1C1C"/>
</svg>
