<svg width="32" height="32" viewBox="0 0 32 32" fill="none" xmlns="http://www.w3.org/2000/svg">
<path d="M26.4999 6.5C25.8077 6.5 25.131 6.70527 24.5554 7.08986C23.9799 7.47444 23.5313 8.02107 23.2664 8.66061C23.0015 9.30015 22.9321 10.0039 23.0672 10.6828C23.2022 11.3617 23.5356 11.9854 24.0251 12.4749C24.5146 12.9644 25.1382 13.2977 25.8171 13.4327C26.4961 13.5678 27.1998 13.4985 27.8393 13.2336C28.4789 12.9687 29.0255 12.5201 29.4101 11.9445C29.7947 11.3689 29.9999 10.6922 29.9999 10C29.9966 9.07276 29.6268 8.18443 28.9712 7.52877C28.3155 6.8731 27.4272 6.50329 26.4999 6.5ZM26.4999 11.5C26.2033 11.5 25.9133 11.412 25.6666 11.2472C25.4199 11.0824 25.2277 10.8481 25.1141 10.574C25.0006 10.2999 24.9709 9.99834 25.0288 9.70736C25.0866 9.41639 25.2295 9.14912 25.4393 8.93934C25.6491 8.72956 25.9163 8.5867 26.2073 8.52882C26.4983 8.47094 26.7999 8.50065 27.074 8.61418C27.3481 8.72771 27.5823 8.91997 27.7471 9.16665C27.912 9.41332 27.9999 9.70333 27.9999 10C27.9999 10.3978 27.8419 10.7794 27.5606 11.0607C27.2793 11.342 26.8978 11.5 26.4999 11.5ZM19.9999 17.9125V6C19.9999 4.67392 19.4732 3.40215 18.5355 2.46447C17.5978 1.52678 16.326 1 14.9999 1C13.6739 1 12.4021 1.52678 11.4644 2.46447C10.5267 3.40215 9.99994 4.67392 9.99994 6V17.9125C9.21002 18.6126 8.57845 19.4731 8.14735 20.4366C7.71626 21.4001 7.49555 22.4445 7.49994 23.5C7.49994 25.4891 8.29012 27.3968 9.69664 28.8033C11.1032 30.2098 13.0108 31 14.9999 31C16.9891 31 18.8967 30.2098 20.3032 28.8033C21.7098 27.3968 22.4999 25.4891 22.4999 23.5C22.5043 22.4445 22.2836 21.4001 21.8525 20.4366C21.4214 19.4731 20.7899 18.6126 19.9999 17.9125ZM14.9999 3C15.7946 3.00329 16.5557 3.32042 17.1176 3.88231C17.6795 4.44421 17.9967 5.20536 17.9999 6V10H11.9999V6C12.0032 5.20536 12.3204 4.44421 12.8823 3.88231C13.4442 3.32042 14.2053 3.00329 14.9999 3Z" fill="#1C1C1C"/>
</svg>
