<svg width="32" height="32" viewBox="0 0 32 32" fill="none" xmlns="http://www.w3.org/2000/svg">
<path d="M19.9999 17.9125V6C19.9999 4.67392 19.4732 3.40215 18.5355 2.46447C17.5978 1.52678 16.326 1 14.9999 1C13.6739 1 12.4021 1.52678 11.4644 2.46447C10.5267 3.40215 9.99994 4.67392 9.99994 6V17.9125C9.21002 18.6126 8.57845 19.4731 8.14735 20.4366C7.71626 21.4001 7.49555 22.4445 7.49994 23.5C7.49994 25.4891 8.29012 27.3968 9.69664 28.8033C11.1032 30.2098 13.0108 31 14.9999 31C16.9891 31 18.8967 30.2098 20.3032 28.8033C21.7098 27.3968 22.4999 25.4891 22.4999 23.5C22.5043 22.4445 22.2836 21.4001 21.8525 20.4366C21.4214 19.4731 20.7899 18.6126 19.9999 17.9125ZM14.9999 3C15.7946 3.00329 16.5557 3.32042 17.1176 3.88231C17.6795 4.44421 17.9967 5.20536 17.9999 6V7H11.9999V6C12.0032 5.20536 12.3204 4.44421 12.8823 3.88231C13.4442 3.32042 14.2053 3.00329 14.9999 3ZM22.2624 10.7125C22.168 10.6195 22.0929 10.5085 22.0417 10.3862C21.9905 10.2639 21.9641 10.1326 21.9641 10C21.9641 9.86739 21.9905 9.7361 22.0417 9.61378C22.0929 9.49146 22.168 9.38055 22.2624 9.2875C22.5875 8.9625 22.9733 8.70471 23.398 8.52884C23.8227 8.35297 24.2778 8.26247 24.7374 8.2625C25.6646 8.26784 26.553 8.63573 27.2124 9.2875C27.3507 9.42696 27.5153 9.53765 27.6966 9.61319C27.8778 9.68873 28.0723 9.72763 28.2687 9.72763C28.4651 9.72763 28.6595 9.68873 28.8408 9.61319C29.0221 9.53765 29.1867 9.42696 29.3249 9.2875C29.5139 9.10019 29.7695 8.99562 30.0356 8.99679C30.3017 8.99796 30.5564 9.10478 30.7437 9.29375C30.931 9.48272 31.0356 9.73835 31.0344 10.0044C31.0332 10.2705 30.9264 10.5252 30.7374 10.7125C30.4124 11.0375 30.0266 11.2953 29.6019 11.4712C29.1772 11.647 28.7221 11.7375 28.2624 11.7375C27.3352 11.7322 26.4469 11.3643 25.7874 10.7125C25.6492 10.573 25.4846 10.4623 25.3033 10.3868C25.122 10.3113 24.9276 10.2724 24.7312 10.2724C24.5348 10.2724 24.3403 10.3113 24.1591 10.3868C23.9778 10.4623 23.8132 10.573 23.6749 10.7125C23.4875 10.8995 23.2335 11.0045 22.9687 11.0045C22.7039 11.0045 22.4499 10.8995 22.2624 10.7125ZM30.7374 14.2875C30.8319 14.3805 30.907 14.4915 30.9582 14.6138C31.0094 14.7361 31.0358 14.8674 31.0358 15C31.0358 15.1326 31.0094 15.2639 30.9582 15.3862C30.907 15.5085 30.8319 15.6195 30.7374 15.7125C30.4124 16.0375 30.0266 16.2953 29.6019 16.4712C29.1772 16.647 28.7221 16.7375 28.2624 16.7375C27.3352 16.7322 26.4469 16.3643 25.7874 15.7125C25.6492 15.573 25.4846 15.4623 25.3033 15.3868C25.122 15.3113 24.9276 15.2724 24.7312 15.2724C24.5348 15.2724 24.3403 15.3113 24.1591 15.3868C23.9778 15.4623 23.8132 15.573 23.6749 15.7125C23.486 15.8998 23.2303 16.0044 22.9643 16.0032C22.6982 16.002 22.4435 15.8952 22.2562 15.7063C22.0689 15.5173 21.9643 15.2616 21.9655 14.9956C21.9667 14.7295 22.0735 14.4748 22.2624 14.2875C22.5875 13.9625 22.9733 13.7047 23.398 13.5288C23.8227 13.353 24.2778 13.2625 24.7374 13.2625C25.6646 13.2678 26.553 13.6357 27.2124 14.2875C27.3507 14.427 27.5153 14.5377 27.6966 14.6132C27.8778 14.6887 28.0723 14.7276 28.2687 14.7276C28.4651 14.7276 28.6595 14.6887 28.8408 14.6132C29.0221 14.5377 29.1867 14.427 29.3249 14.2875C29.5124 14.1005 29.7664 13.9955 30.0312 13.9955C30.296 13.9955 30.55 14.1005 30.7374 14.2875Z" fill="#1C1C1C"/>
</svg>
