<svg width="32" height="32" viewBox="0 0 32 32" fill="none" xmlns="http://www.w3.org/2000/svg">
<path d="M30.6124 9.7125L28.1124 10.525L29.6624 12.65C29.7399 12.7566 29.7956 12.8774 29.8262 13.0056C29.8569 13.1337 29.8619 13.2667 29.841 13.3968C29.8201 13.5269 29.7737 13.6516 29.7044 13.7637C29.6352 13.8758 29.5444 13.9731 29.4374 14.05C29.2211 14.2033 28.9533 14.2656 28.6915 14.2235C28.4297 14.1814 28.1949 14.0383 28.0374 13.825L26.4999 11.7L24.9624 13.825C24.805 14.0383 24.5702 14.1814 24.3084 14.2235C24.0466 14.2656 23.7788 14.2033 23.5624 14.05C23.4555 13.9731 23.3647 13.8758 23.2955 13.7637C23.2262 13.6516 23.1798 13.5269 23.1589 13.3968C23.138 13.2667 23.143 13.1337 23.1736 13.0056C23.2043 12.8774 23.2599 12.7566 23.3374 12.65L24.8874 10.525L22.3874 9.7125C22.2617 9.67292 22.1452 9.60857 22.0447 9.52324C21.9442 9.43792 21.8619 9.33334 21.8025 9.21568C21.7431 9.09802 21.7078 8.96965 21.6988 8.83815C21.6898 8.70665 21.7072 8.57467 21.7499 8.45C21.7881 8.32474 21.8512 8.20845 21.9353 8.10808C22.0194 8.00772 22.1229 7.92532 22.2396 7.86583C22.3562 7.80633 22.4837 7.77094 22.6143 7.76178C22.745 7.75262 22.8761 7.76987 22.9999 7.8125L25.4999 8.625V6C25.4999 5.73478 25.6053 5.48043 25.7928 5.29289C25.9804 5.10536 26.2347 5 26.4999 5C26.7652 5 27.0195 5.10536 27.2071 5.29289C27.3946 5.48043 27.4999 5.73478 27.4999 6V8.625L29.9999 7.8125C30.1238 7.76987 30.2549 7.75262 30.3856 7.76178C30.5162 7.77094 30.6436 7.80633 30.7603 7.86583C30.877 7.92532 30.9805 8.00772 31.0646 8.10808C31.1487 8.20845 31.2117 8.32474 31.2499 8.45C31.2927 8.57467 31.3101 8.70665 31.3011 8.83815C31.2921 8.96965 31.2568 9.09802 31.1974 9.21568C31.138 9.33334 31.0556 9.43792 30.9552 9.52324C30.8547 9.60857 30.7382 9.67292 30.6124 9.7125ZM22.4999 23.5C22.4999 25.4891 21.7098 27.3968 20.3032 28.8033C18.8967 30.2098 16.9891 31 14.9999 31C13.0108 31 11.1032 30.2098 9.69664 28.8033C8.29012 27.3968 7.49994 25.4891 7.49994 23.5C7.49555 22.4445 7.71626 21.4001 8.14735 20.4366C8.57845 19.4731 9.21002 18.6126 9.99994 17.9125V6C9.99994 4.67392 10.5267 3.40215 11.4644 2.46447C12.4021 1.52678 13.6739 1 14.9999 1C16.326 1 17.5978 1.52678 18.5355 2.46447C19.4732 3.40215 19.9999 4.67392 19.9999 6V17.9125C20.7899 18.6126 21.4214 19.4731 21.8525 20.4366C22.2836 21.4001 22.5043 22.4445 22.4999 23.5ZM11.9999 6V13H17.9999V6C17.9999 5.20435 17.6839 4.44129 17.1213 3.87868C16.5587 3.31607 15.7956 3 14.9999 3C14.2043 3 13.4412 3.31607 12.8786 3.87868C12.316 4.44129 11.9999 5.20435 11.9999 6Z" fill="#1C1C1C"/>
</svg>
