<svg width="32" height="32" viewBox="0 0 32 32" fill="none" xmlns="http://www.w3.org/2000/svg">
<path d="M20.9999 17.9125V6C20.9999 4.67392 20.4732 3.40215 19.5355 2.46447C18.5978 1.52678 17.326 1 15.9999 1C14.6739 1 13.4021 1.52678 12.4644 2.46447C11.5267 3.40215 10.9999 4.67392 10.9999 6V17.9125C10.21 18.6126 9.57845 19.4731 9.14735 20.4366C8.71626 21.4001 8.49555 22.4445 8.49994 23.5C8.49994 25.4891 9.29012 27.3968 10.6966 28.8033C12.1032 30.2098 14.0108 31 15.9999 31C17.9891 31 19.8967 30.2098 21.3032 28.8033C22.7098 27.3968 23.4999 25.4891 23.4999 23.5C23.5043 22.4445 23.2836 21.4001 22.8525 20.4366C22.4214 19.4731 21.7899 18.6126 20.9999 17.9125ZM15.9999 3C16.7946 3.00329 17.5557 3.32042 18.1176 3.88231C18.6795 4.44421 18.9967 5.20536 18.9999 6V10H12.9999V6C13.0032 5.20536 13.3204 4.44421 13.8823 3.88231C14.4442 3.32042 15.2053 3.00329 15.9999 3Z" fill="#1C1C1C"/>
</svg>
