<svg width="32" height="32" viewBox="0 0 32 32" fill="none" xmlns="http://www.w3.org/2000/svg">
<path d="M28 14.0125C28.0017 13.8801 27.977 13.7487 27.9275 13.626C27.878 13.5032 27.8046 13.3915 27.7116 13.2973C27.6186 13.2031 27.5078 13.1283 27.3856 13.0773C27.2635 13.0263 27.1324 13 27 13H5.00002C4.86764 13 4.73657 13.0263 4.61442 13.0773C4.49228 13.1283 4.38148 13.2031 4.28845 13.2973C4.19543 13.3915 4.12203 13.5032 4.07252 13.626C4.02301 13.7487 3.99836 13.8801 4.00002 14.0125C4.00304 16.2319 4.62151 18.407 5.78667 20.296C6.95182 22.1849 8.61802 23.7138 10.6 24.7125L10.175 27.675C10.1075 28.1077 10.182 28.5507 10.3875 28.9375C10.5574 29.2577 10.8112 29.5257 11.1216 29.7128C11.4321 29.9 11.7875 29.9992 12.15 30H19.8C20.2373 30.0048 20.6653 29.8738 21.025 29.625C21.3183 29.4079 21.5475 29.1155 21.6883 28.7789C21.8291 28.4422 21.8764 28.0738 21.825 27.7125L21.4 24.7125C23.382 23.7138 25.0482 22.1849 26.2134 20.296C27.3785 18.407 27.997 16.2319 28 14.0125ZM12.15 28L12.5125 25.4875C14.7873 26.1707 17.2127 26.1707 19.4875 25.4875L19.85 28H12.15ZM7.50002 11H24.5C24.6326 11 24.7598 10.9473 24.8536 10.8536C24.9473 10.7598 25 10.6326 25 10.5V5C25 4.46957 24.7893 3.96086 24.4142 3.58579C24.0392 3.21071 23.5305 3 23 3H9.00002C8.46958 3 7.96088 3.21071 7.5858 3.58579C7.21073 3.96086 7.00002 4.46957 7.00002 5V10.5C7.00002 10.6326 7.0527 10.7598 7.14646 10.8536C7.24023 10.9473 7.36741 11 7.50002 11ZM11 6H12.9625C13.222 5.99589 13.4734 6.09037 13.666 6.26436C13.8585 6.43836 13.9779 6.67892 14 6.9375C14.0086 7.07398 13.989 7.21077 13.9426 7.3394C13.8962 7.46804 13.8239 7.58578 13.7302 7.68537C13.6364 7.78495 13.5233 7.86425 13.3977 7.91837C13.2721 7.97248 13.1368 8.00027 13 8H11.0375C10.778 8.00411 10.5266 7.90963 10.3341 7.73564C10.1415 7.56164 10.0221 7.32108 10 7.0625C9.99147 6.92602 10.011 6.78923 10.0574 6.6606C10.1038 6.53196 10.1761 6.41422 10.2699 6.31463C10.3636 6.21505 10.4767 6.13575 10.6023 6.08163C10.7279 6.02752 10.8633 5.99973 11 6Z" fill="#1C1C1C"/>
</svg>
