<svg width="32" height="32" viewBox="0 0 32 32" fill="none" xmlns="http://www.w3.org/2000/svg">
<path d="M29.3749 8.66251C29.1878 8.45332 28.9585 8.28612 28.7022 8.17193C28.4458 8.05774 28.1681 7.99915 27.8874 8.00001H21.9124C21.6718 6.60637 20.9466 5.34253 19.8648 4.43154C18.783 3.52054 17.4142 3.02097 15.9999 3.02097C14.5857 3.02097 13.2169 3.52054 12.1351 4.43154C11.0533 5.34253 10.3281 6.60637 10.0874 8.00001H4.11244C3.83178 7.99915 3.55411 8.05774 3.29773 8.17193C3.04134 8.28612 2.81205 8.45332 2.62494 8.66251C2.4372 8.87366 2.29573 9.12176 2.20962 9.39086C2.12351 9.65996 2.09467 9.9441 2.12494 10.225L3.91244 26.225C3.96507 26.7145 4.19748 27.167 4.56466 27.4949C4.93184 27.8229 5.40765 28.0028 5.89994 28H26.0999C26.5922 28.0028 27.068 27.8229 27.4352 27.4949C27.8024 27.167 28.0348 26.7145 28.0874 26.225L29.8749 10.225C29.9052 9.9441 29.8764 9.65996 29.7903 9.39086C29.7041 9.12176 29.5627 8.87366 29.3749 8.66251ZM15.9999 5.00001C16.8865 5.0017 17.7476 5.29698 18.4486 5.83973C19.1497 6.38247 19.6512 7.14212 19.8749 8.00001H12.1249C12.3487 7.14212 12.8502 6.38247 13.5513 5.83973C14.2523 5.29698 15.1134 5.0017 15.9999 5.00001Z" fill="#1C1C1C"/>
</svg>
