<svg width="32" height="32" viewBox="0 0 32 32" fill="none" xmlns="http://www.w3.org/2000/svg">
<path d="M29.3749 8.66251C29.1878 8.45332 28.9585 8.28612 28.7022 8.17193C28.4458 8.05774 28.1681 7.99915 27.8874 8.00001H21.9124C21.6718 6.60637 20.9466 5.34253 19.8648 4.43154C18.783 3.52054 17.4142 3.02097 15.9999 3.02097C14.5857 3.02097 13.2169 3.52054 12.1351 4.43154C11.0533 5.34253 10.3281 6.60637 10.0874 8.00001H4.11244C3.83178 7.99915 3.55411 8.05774 3.29773 8.17193C3.04134 8.28612 2.81205 8.45332 2.62494 8.66251C2.4372 8.87366 2.29573 9.12176 2.20962 9.39086C2.12351 9.65996 2.09467 9.9441 2.12494 10.225L3.91244 26.225C3.96507 26.7145 4.19748 27.167 4.56466 27.4949C4.93184 27.8229 5.40765 28.0028 5.89994 28H26.0999C26.5922 28.0028 27.068 27.8229 27.4352 27.4949C27.8024 27.167 28.0348 26.7145 28.0874 26.225L29.8749 10.225C29.9052 9.9441 29.8764 9.65996 29.7903 9.39086C29.7041 9.12176 29.5627 8.87366 29.3749 8.66251ZM11.9999 13C11.9999 13.2652 11.8946 13.5196 11.707 13.7071C11.5195 13.8947 11.2652 14 10.9999 14C10.7347 14 10.4804 13.8947 10.2928 13.7071C10.1053 13.5196 9.99994 13.2652 9.99994 13V11C9.99994 10.7348 10.1053 10.4804 10.2928 10.2929C10.4804 10.1054 10.7347 10 10.9999 10C11.2652 10 11.5195 10.1054 11.707 10.2929C11.8946 10.4804 11.9999 10.7348 11.9999 11V13ZM12.1249 8.00001C12.3452 7.1396 12.8456 6.37698 13.5472 5.83237C14.2489 5.28777 15.1118 4.99217 15.9999 4.99217C16.8881 4.99217 17.751 5.28777 18.4526 5.83237C19.1542 6.37698 19.6546 7.1396 19.8749 8.00001H12.1249ZM21.9999 13C21.9999 13.2652 21.8946 13.5196 21.707 13.7071C21.5195 13.8947 21.2652 14 20.9999 14C20.7347 14 20.4804 13.8947 20.2928 13.7071C20.1053 13.5196 19.9999 13.2652 19.9999 13V11C19.9999 10.7348 20.1053 10.4804 20.2928 10.2929C20.4804 10.1054 20.7347 10 20.9999 10C21.2652 10 21.5195 10.1054 21.707 10.2929C21.8946 10.4804 21.9999 10.7348 21.9999 11V13Z" fill="#1C1C1C"/>
</svg>
