<svg width="32" height="32" viewBox="0 0 32 32" fill="none" xmlns="http://www.w3.org/2000/svg">
<path d="M30.5 14.5876L17.4125 1.50005C17.2277 1.31335 17.0077 1.16514 16.7652 1.06399C16.5228 0.962847 16.2627 0.910767 16 0.910767C15.7373 0.910767 15.4772 0.962847 15.2347 1.06399C14.9923 1.16514 14.7723 1.31335 14.5875 1.50005L1.49999 14.5876C1.12899 14.9641 0.921021 15.4715 0.921021 16.0001C0.921021 16.5287 1.12899 17.036 1.49999 17.4126L14.5875 30.5001C14.7723 30.6868 14.9923 30.835 15.2347 30.9361C15.4772 31.0373 15.7373 31.0893 16 31.0893C16.2627 31.0893 16.5228 31.0373 16.7652 30.9361C17.0077 30.835 17.2277 30.6868 17.4125 30.5001L30.5 17.4126C30.871 17.036 31.079 16.5287 31.079 16.0001C31.079 15.4715 30.871 14.9641 30.5 14.5876ZM22 15.0001V15.1001C21.9955 15.1051 21.992 15.1111 21.9899 15.1175C21.9877 15.124 21.9869 15.1308 21.9875 15.1376C21.9894 15.1592 21.9851 15.1809 21.975 15.2001C21.9753 15.2175 21.971 15.2348 21.9625 15.2501V15.2876L21.9375 15.3376C21.9375 15.3501 21.925 15.3626 21.925 15.3876L21.9 15.4251V15.4751L21.875 15.5126C21.8625 15.5251 21.85 15.5376 21.85 15.5501L21.8125 15.6001L21.7875 15.6376L21.725 15.7001L18.725 18.7001C18.5339 18.8849 18.2784 18.9882 18.0125 18.9882C17.7466 18.9882 17.4911 18.8849 17.3 18.7001C17.1122 18.5105 17.0069 18.2544 17.0069 17.9876C17.0069 17.7207 17.1122 17.4646 17.3 17.2751L18.5875 16.0001H14C13.4696 16.0001 12.9609 16.2108 12.5858 16.5858C12.2107 16.9609 12 17.4696 12 18.0001V19.0001C12 19.2653 11.8946 19.5196 11.7071 19.7072C11.5196 19.8947 11.2652 20.0001 11 20.0001C10.7348 20.0001 10.4804 19.8947 10.2929 19.7072C10.1054 19.5196 9.99999 19.2653 9.99999 19.0001V18.0001C10.0033 16.9402 10.4258 15.9247 11.1752 15.1753C11.9246 14.4258 12.9401 14.0034 14 14.0001H18.5875L17.2875 12.7126C17.128 12.5183 17.0465 12.2716 17.0589 12.0205C17.0712 11.7695 17.1765 11.532 17.3542 11.3543C17.5319 11.1765 17.7694 11.0713 18.0205 11.0589C18.2715 11.0466 18.5182 11.1281 18.7125 11.2876L21.7125 14.2876L21.775 14.3501L21.8 14.3876L21.8375 14.4376C21.8375 14.4501 21.85 14.4626 21.8625 14.4751L21.8875 14.5126V14.5626L21.9125 14.6001C21.9125 14.6251 21.925 14.6376 21.925 14.6501L21.95 14.7001V14.7376C21.9585 14.7528 21.9628 14.7701 21.9625 14.7876C21.9726 14.8067 21.9769 14.8285 21.975 14.8501C21.9744 14.8568 21.9752 14.8636 21.9774 14.8701C21.9795 14.8765 21.983 14.8825 21.9875 14.8876V14.9876L22 15.0001Z" fill="#1C1C1C"/>
</svg>
