<svg width="32" height="32" viewBox="0 0 32 32" fill="none" xmlns="http://www.w3.org/2000/svg">
<path d="M28.9 24.4375C28.8179 24.6063 28.69 24.7485 28.5308 24.848C28.3716 24.9475 28.1877 25.0001 28 25H17V30C17 30.2652 16.8947 30.5196 16.7071 30.7071C16.5196 30.8946 16.2652 31 16 31C15.7348 31 15.4805 30.8946 15.2929 30.7071C15.1054 30.5196 15 30.2652 15 30V25H4.00002C3.81323 24.9994 3.63032 24.9466 3.47203 24.8474C3.31374 24.7482 3.1864 24.6067 3.10442 24.4388C3.02245 24.271 2.98913 24.0835 3.00824 23.8977C3.02734 23.7119 3.09811 23.5352 3.21252 23.3875L8.95002 16H6.00002C5.81323 15.9994 5.63032 15.9466 5.47203 15.8474C5.31374 15.7482 5.1864 15.6067 5.10442 15.4388C5.02245 15.271 4.98913 15.0835 5.00824 14.8977C5.02734 14.7119 5.09811 14.5352 5.21252 14.3875L15.2125 1.3875C15.3061 1.26798 15.4256 1.17132 15.562 1.10484C15.6985 1.03836 15.8482 1.00381 16 1.00381C16.1518 1.00381 16.3016 1.03836 16.438 1.10484C16.5745 1.17132 16.694 1.26798 16.7875 1.3875L26.7875 14.3875C26.9019 14.5352 26.9727 14.7119 26.9918 14.8977C27.0109 15.0835 26.9776 15.271 26.8956 15.4388C26.8137 15.6067 26.6863 15.7482 26.528 15.8474C26.3697 15.9466 26.1868 15.9994 26 16H23.05L28.7875 23.3875C28.9024 23.5346 28.9738 23.7109 28.9937 23.8964C29.0136 24.082 28.9811 24.2694 28.9 24.4375Z" fill="#1C1C1C"/>
</svg>
