<svg width="32" height="32" viewBox="0 0 32 32" fill="none" xmlns="http://www.w3.org/2000/svg">
<path d="M30 17V25C30 25.2652 29.8946 25.5196 29.7071 25.7071C29.5196 25.8947 29.2652 26 29 26H21C20.8029 25.999 20.6104 25.9405 20.4461 25.8317C20.2818 25.7229 20.1528 25.5686 20.075 25.3875C20.0029 25.2028 19.9847 25.0015 20.0223 24.8068C20.0599 24.6122 20.1518 24.4321 20.2875 24.2875L23.5875 21L17 14.4125L12.7125 18.7125C12.5229 18.9003 12.2668 19.0056 12 19.0056C11.7331 19.0056 11.4771 18.9003 11.2875 18.7125L2.28749 9.71252C2.12803 9.51823 2.04654 9.27156 2.05887 9.02051C2.0712 8.76946 2.17647 8.53197 2.3542 8.35423C2.53194 8.1765 2.76943 8.07123 3.02048 8.0589C3.27153 8.04657 3.5182 8.12806 3.71249 8.28752L12 16.5875L16.2875 12.2875C16.4771 12.0997 16.7331 11.9944 17 11.9944C17.2668 11.9944 17.5229 12.0997 17.7125 12.2875L25 19.5875L28.2875 16.2875C28.4321 16.1519 28.6121 16.0599 28.8068 16.0223C29.0014 15.9847 29.2028 16.003 29.3875 16.075C29.5695 16.1515 29.7248 16.2802 29.8338 16.4448C29.9428 16.6094 30.0006 16.8026 30 17Z" fill="#1C1C1C"/>
</svg>
