<svg width="32" height="32" viewBox="0 0 32 32" fill="none" xmlns="http://www.w3.org/2000/svg">
<path d="M29.5875 23.5L18.6 4.50004C18.337 4.04308 17.9581 3.66352 17.5017 3.39959C17.0452 3.13567 16.5273 2.9967 16 2.9967C15.4728 2.9967 14.9548 3.13567 14.4984 3.39959C14.0419 3.66352 13.6631 4.04308 13.4 4.50004L2.41252 23.5C2.14561 23.9547 2.00375 24.4719 2.00137 24.9991C1.99899 25.5263 2.13616 26.0447 2.39896 26.5017C2.66176 26.9588 3.04082 27.3381 3.49765 27.6013C3.95448 27.8644 4.47282 28.002 5.00002 28H27C27.5272 28.002 28.0456 27.8644 28.5024 27.6013C28.9592 27.3381 29.3383 26.9588 29.6011 26.5017C29.8639 26.0447 30.0011 25.5263 29.9987 24.9991C29.9963 24.4719 29.8544 23.9547 29.5875 23.5Z" fill="#1C1C1C"/>
</svg>
