<svg width="32" height="32" viewBox="0 0 32 32" fill="none" xmlns="http://www.w3.org/2000/svg">
<path d="M30.6749 7.6625L24.4999 4.1375C24.3483 4.0485 24.1758 4.00107 23.9999 4H19.9999C19.7347 4 19.4804 4.10536 19.2928 4.29289C19.1053 4.48043 18.9999 4.73478 18.9999 5C18.9999 5.79565 18.6839 6.55871 18.1213 7.12132C17.5587 7.68393 16.7956 8 15.9999 8C15.2043 8 14.4412 7.68393 13.8786 7.12132C13.316 6.55871 12.9999 5.79565 12.9999 5C12.9999 4.73478 12.8946 4.48043 12.7071 4.29289C12.5195 4.10536 12.2652 4 11.9999 4H7.99994C7.82409 4.00107 7.65162 4.0485 7.49994 4.1375L1.32494 7.6625C0.879704 7.9133 0.548172 8.32595 0.399198 8.81477C0.250225 9.30359 0.295257 9.83101 0.524944 10.2875L2.82494 14.9C2.99172 15.231 3.24717 15.5091 3.56281 15.7033C3.87844 15.8976 4.24184 16.0003 4.61244 16H6.99994V26C6.99994 26.5304 7.21066 27.0391 7.58573 27.4142C7.9608 27.7893 8.46951 28 8.99994 28H22.9999C23.5304 28 24.0391 27.7893 24.4142 27.4142C24.7892 27.0391 24.9999 26.5304 24.9999 26V16H27.3874C27.7581 16.0003 28.1214 15.8976 28.4371 15.7033C28.7527 15.5091 29.0082 15.231 29.1749 14.9L31.4749 10.2875C31.7046 9.83101 31.7497 9.30359 31.6007 8.81477C31.4517 8.32595 31.1202 7.9133 30.6749 7.6625ZM4.61244 14L2.31244 9.4L6.99994 6.725V14H4.61244ZM27.3874 14H24.9999V6.725L29.6874 9.4L27.3874 14Z" fill="#1C1C1C"/>
</svg>
