<svg width="32" height="32" viewBox="0 0 32 32" fill="none" xmlns="http://www.w3.org/2000/svg">
<path d="M29.425 17.35C29.2396 17.5538 29.0139 17.7168 28.7621 17.8287C28.5103 17.9406 28.238 17.9989 27.9625 18H17V25C17 25.5304 17.2107 26.0391 17.5858 26.4142C17.9609 26.7893 18.4696 27 19 27C19.5305 27 20.0392 26.7893 20.4142 26.4142C20.7893 26.0391 21 25.5304 21 25C21 24.7348 21.1054 24.4804 21.2929 24.2929C21.4805 24.1054 21.7348 24 22 24C22.2652 24 22.5196 24.1054 22.7071 24.2929C22.8947 24.4804 23 24.7348 23 25C23 26.0609 22.5786 27.0783 21.8285 27.8284C21.0783 28.5786 20.0609 29 19 29C17.9392 29 16.9218 28.5786 16.1716 27.8284C15.4215 27.0783 15 26.0609 15 25V18H4.03753C3.76202 17.9989 3.48973 17.9406 3.23796 17.8287C2.98619 17.7168 2.76044 17.5538 2.57503 17.35C2.38448 17.1475 2.23914 16.9068 2.14863 16.6439C2.05812 16.381 2.02451 16.1019 2.05003 15.825C2.26696 13.211 3.21455 10.7106 4.78461 8.60935C6.35467 6.50811 8.48393 4.89069 10.9293 3.94175C13.3746 2.9928 16.0376 2.75057 18.614 3.24272C21.1905 3.73486 23.5766 4.94155 25.5 6.725C28.0782 9.08836 29.6678 12.3389 29.95 15.825C29.9755 16.1019 29.9419 16.381 29.8514 16.6439C29.7609 16.9068 29.6156 17.1475 29.425 17.35Z" fill="#1C1C1C"/>
</svg>
