<svg width="32" height="32" viewBox="0 0 32 32" fill="none" xmlns="http://www.w3.org/2000/svg">
<path d="M16 9.5C17.0878 9.5 18.1512 9.82257 19.0556 10.4269C19.9601 11.0313 20.665 11.8902 21.0813 12.8952C21.4976 13.9002 21.6065 15.0061 21.3943 16.073C21.1821 17.1399 20.6583 18.1199 19.8891 18.8891C19.1199 19.6583 18.1399 20.1821 17.073 20.3943C16.0061 20.6065 14.9002 20.4976 13.8952 20.0813C12.8902 19.6651 12.0313 18.9601 11.4269 18.0556C10.8226 17.1512 10.5 16.0878 10.5 15C10.5 13.5413 11.0795 12.1424 12.1109 11.1109C13.1424 10.0795 14.5413 9.5 16 9.5ZM22 8H28C28.2652 8 28.5196 7.89464 28.7071 7.7071C28.8946 7.51957 29 7.26521 29 7C29 6.73478 28.8946 6.48043 28.7071 6.29289C28.5196 6.10535 28.2652 6 28 6H22C21.7348 6 21.4804 6.10535 21.2929 6.29289C21.1053 6.48043 21 6.73478 21 7C21 7.26521 21.1053 7.51957 21.2929 7.7071C21.4804 7.89464 21.7348 8 22 8ZM26.9875 11.0625C26.8625 11.1045 26.7473 11.1712 26.6485 11.2585C26.5497 11.3458 26.4694 11.452 26.4123 11.5708C26.3553 11.6896 26.3225 11.8187 26.3161 11.9504C26.3097 12.0821 26.3297 12.2137 26.375 12.3375C27.0282 14.1903 27.1733 16.1842 26.7952 18.112C26.4171 20.0398 25.5296 21.8312 24.225 23.3C23.4155 22.1388 22.3724 21.1596 21.1625 20.425C19.7733 21.7559 17.9238 22.4988 16 22.4988C14.0762 22.4988 12.2267 21.7559 10.8375 20.425C9.62758 21.1596 8.58447 22.1388 7.77499 23.3C6.36851 21.7146 5.44996 19.7566 5.12982 17.6616C4.80968 15.5666 5.10158 13.4236 5.97041 11.4905C6.83925 9.55746 8.24802 7.91652 10.0273 6.76507C11.8066 5.61362 13.8806 5.00069 16 5C16.5818 5.00181 17.1626 5.04778 17.7375 5.1375C17.9967 5.17302 18.2595 5.10554 18.4695 4.94955C18.6796 4.79355 18.8201 4.56145 18.861 4.30304C18.9019 4.04463 18.8399 3.78048 18.6882 3.56726C18.5366 3.35404 18.3075 3.20873 18.05 3.1625C17.3723 3.052 16.6866 2.99765 16 3C13.3805 3.00091 10.8224 3.79312 8.66094 5.27283C6.49944 6.75254 4.83538 8.85072 3.88681 11.2924C2.93824 13.7341 2.74942 16.4054 3.34509 18.9562C3.94076 21.5071 5.29314 23.8184 7.22499 25.5875L7.38749 25.7375C9.76406 27.8394 12.8273 28.9997 16 28.9997C19.1727 28.9997 22.2359 27.8394 24.6125 25.7375L24.775 25.5875C26.6566 23.8633 27.9902 21.6244 28.6102 19.1488C29.2302 16.6732 29.1093 14.07 28.2625 11.6625C28.1722 11.4145 27.9875 11.2122 27.7486 11.0998C27.5098 10.9874 27.2362 10.974 26.9875 11.0625Z" fill="#1C1C1C"/>
</svg>
