<svg width="32" height="32" viewBox="0 0 32 32" fill="none" xmlns="http://www.w3.org/2000/svg">
<path d="M16 9.5C17.0878 9.5 18.1512 9.82257 19.0556 10.4269C19.9601 11.0313 20.665 11.8902 21.0813 12.8952C21.4976 13.9002 21.6065 15.0061 21.3943 16.073C21.1821 17.1399 20.6583 18.1199 19.8891 18.8891C19.1199 19.6583 18.1399 20.1821 17.073 20.3943C16.0061 20.6065 14.9002 20.4976 13.8952 20.0813C12.8902 19.6651 12.0313 18.9601 11.4269 18.0556C10.8226 17.1512 10.5 16.0878 10.5 15C10.5 13.5413 11.0795 12.1424 12.1109 11.1109C13.1424 10.0795 14.5413 9.5 16 9.5ZM28.9 9.25C28.8115 9.40334 28.6838 9.53044 28.5301 9.61828C28.3763 9.70613 28.202 9.75159 28.025 9.75C27.8488 9.75142 27.6757 9.70381 27.525 9.6125L26.95 9.275C26.6698 9.5152 26.3478 9.70166 26 9.825V10.5C26 10.7652 25.8946 11.0196 25.7071 11.2071C25.5196 11.3946 25.2652 11.5 25 11.5C24.7348 11.5 24.4804 11.3946 24.2929 11.2071C24.1053 11.0196 24 10.7652 24 10.5V9.825C23.6522 9.70166 23.3301 9.5152 23.05 9.275L22.475 9.6125C22.3243 9.70381 22.1512 9.75142 21.975 9.75C21.756 9.74868 21.5434 9.67549 21.3701 9.54168C21.1967 9.40786 21.072 9.22083 21.0152 9.00929C20.9584 8.79776 20.9727 8.57344 21.0557 8.37078C21.1388 8.16812 21.2861 7.99833 21.475 7.8875L22.05 7.55C22.0142 7.36891 21.9975 7.18457 22 7C21.9975 6.81543 22.0142 6.63109 22.05 6.45L21.475 6.1125C21.3597 6.04882 21.2584 5.96273 21.1769 5.8593C21.0954 5.75587 21.0355 5.63718 21.0005 5.51023C20.9656 5.38328 20.9564 5.25063 20.9735 5.12007C20.9905 4.98951 21.0336 4.86369 21.1 4.75C21.2356 4.52101 21.4558 4.35459 21.7131 4.28675C21.9705 4.21891 22.2442 4.25511 22.475 4.3875L23.05 4.725C23.3301 4.4848 23.6522 4.29834 24 4.175V3.5C24 3.23478 24.1053 2.98043 24.2929 2.79289C24.4804 2.60536 24.7348 2.5 25 2.5C25.2652 2.5 25.5196 2.60536 25.7071 2.79289C25.8946 2.98043 26 3.23478 26 3.5V4.175C26.3478 4.29834 26.6698 4.4848 26.95 4.725L27.525 4.3875C27.7558 4.25511 28.0295 4.21891 28.2868 4.28675C28.5442 4.35459 28.7644 4.52101 28.9 4.75C28.9664 4.86369 29.0094 4.98951 29.0265 5.12007C29.0436 5.25063 29.0344 5.38328 28.9995 5.51023C28.9645 5.63718 28.9046 5.75587 28.8231 5.8593C28.7416 5.96273 28.6402 6.04882 28.525 6.1125L27.95 6.45C27.9858 6.63109 28.0025 6.81543 28 7C28.0025 7.18457 27.9858 7.36891 27.95 7.55L28.525 7.8875C28.6402 7.95118 28.7416 8.03727 28.8231 8.1407C28.9046 8.24413 28.9645 8.36282 28.9995 8.48977C29.0344 8.61672 29.0436 8.74937 29.0265 8.87993C29.0094 9.01049 28.9664 9.13631 28.9 9.25ZM25 8C25.1978 8 25.3911 7.94135 25.5556 7.83147C25.72 7.72159 25.8482 7.56541 25.9239 7.38268C25.9996 7.19996 26.0194 6.99889 25.9808 6.80491C25.9422 6.61093 25.847 6.43275 25.7071 6.29289C25.5672 6.15304 25.3891 6.0578 25.1951 6.01921C25.0011 5.98063 24.8 6.00043 24.6173 6.07612C24.4346 6.15181 24.2784 6.27998 24.1685 6.44443C24.0586 6.60888 24 6.80222 24 7C24 7.26522 24.1053 7.51957 24.2929 7.70711C24.4804 7.89464 24.7348 8 25 8ZM27.8 13.575C27.5388 13.6064 27.3004 13.7394 27.1366 13.9453C26.9728 14.1512 26.8968 14.4134 26.925 14.675C26.9749 15.1149 26.9999 15.5573 27 16C27.0037 18.6917 26.0158 21.2904 24.225 23.3C23.4155 22.1388 22.3724 21.1596 21.1625 20.425C19.7733 21.7559 17.9238 22.4989 16 22.4989C14.0762 22.4989 12.2267 21.7559 10.8375 20.425C9.62758 21.1596 8.58447 22.1388 7.77499 23.3C6.36851 21.7146 5.44996 19.7566 5.12982 17.6616C4.80968 15.5666 5.10158 13.4236 5.97041 11.4905C6.83925 9.55746 8.24802 7.91652 10.0273 6.76507C11.8066 5.61362 13.8806 5.0007 16 5C16.3423 4.99794 16.6845 5.01463 17.025 5.05C17.1563 5.06149 17.2886 5.047 17.4143 5.00736C17.5401 4.96773 17.6567 4.90371 17.7577 4.81898C17.8587 4.73425 17.942 4.63045 18.0029 4.51352C18.0638 4.39659 18.101 4.26882 18.1125 4.1375C18.124 4.00618 18.1095 3.87388 18.0699 3.74816C18.0302 3.62243 17.9662 3.50575 17.8815 3.40477C17.7967 3.30378 17.6929 3.22048 17.576 3.15961C17.4591 3.09873 17.3313 3.06149 17.2 3.05C16.8125 3.0125 16.4 3 16 3C13.3805 3.00091 10.8224 3.79313 8.66094 5.27284C6.49944 6.75255 4.83538 8.85072 3.88681 11.2924C2.93824 13.7341 2.74942 16.4054 3.34509 18.9562C3.94076 21.5071 5.29314 23.8185 7.22499 25.5875L7.38749 25.7375C9.76406 27.8394 12.8273 28.9997 16 28.9997C19.1727 28.9997 22.2359 27.8394 24.6125 25.7375L24.775 25.5875C26.1076 24.3714 27.1718 22.8906 27.8993 21.2396C28.6268 19.5887 29.0017 17.8041 29 16C29.0024 15.482 28.9731 14.9644 28.9125 14.45C28.897 14.3195 28.8559 14.1932 28.7916 14.0786C28.7273 13.9639 28.641 13.8631 28.5377 13.7818C28.4343 13.7006 28.316 13.6405 28.1894 13.605C28.0628 13.5695 27.9305 13.5593 27.8 13.575Z" fill="#1C1C1C"/>
</svg>
