<svg width="32" height="32" viewBox="0 0 32 32" fill="none" xmlns="http://www.w3.org/2000/svg">
<path d="M31.7125 16.7125L28.7125 19.7125C28.5214 19.8973 28.2659 20.0006 28 20.0006C27.7341 20.0006 27.4787 19.8973 27.2875 19.7125L24.2875 16.7125C24.1519 16.5679 24.0599 16.3879 24.0223 16.1932C23.9847 15.9985 24.003 15.7972 24.075 15.6125C24.1515 15.4305 24.2802 15.2752 24.4448 15.1662C24.6094 15.0572 24.8026 14.9994 25 15H26.95C26.7463 12.7187 25.8347 10.5581 24.3428 8.82023C22.8508 7.0824 20.8531 5.85425 18.6289 5.3075C16.4048 4.76075 14.0653 4.92274 11.9377 5.77081C9.8101 6.61888 8.0007 8.11064 6.76251 10.0375C6.69046 10.1477 6.59736 10.2426 6.48856 10.3167C6.37975 10.3908 6.25738 10.4427 6.12847 10.4694C5.99956 10.4961 5.86664 10.4971 5.73734 10.4723C5.60805 10.4476 5.48491 10.3975 5.37501 10.325C5.26424 10.2551 5.16848 10.1639 5.0933 10.0567C5.01812 9.94941 4.96502 9.82828 4.93711 9.70032C4.90919 9.57236 4.907 9.44012 4.93068 9.31131C4.95435 9.18249 5.00342 9.05967 5.07501 8.95C6.55011 6.66233 8.70609 4.8954 11.2389 3.89837C13.7718 2.90134 16.5537 2.72451 19.1924 3.39281C21.8311 4.06112 24.1934 5.54084 25.9463 7.62332C27.6992 9.7058 28.7542 12.286 28.9625 15H31C31.1974 14.9994 31.3906 15.0572 31.5552 15.1662C31.7198 15.2752 31.8485 15.4305 31.925 15.6125C31.9971 15.7972 32.0153 15.9985 31.9777 16.1932C31.9401 16.3879 31.8482 16.5679 31.7125 16.7125ZM26.625 21.675C26.5151 21.6025 26.392 21.5525 26.2627 21.5277C26.1334 21.5029 26.0005 21.5039 25.8716 21.5306C25.7426 21.5573 25.6203 21.6092 25.5115 21.6833C25.4027 21.7574 25.3096 21.8523 25.2375 21.9625C24.9355 22.4381 24.597 22.8894 24.225 23.3125C23.4155 22.1514 22.3724 21.1721 21.1625 20.4375C19.7733 21.7684 17.9238 22.5114 16 22.5114C14.0762 22.5114 12.2267 21.7684 10.8375 20.4375C9.6276 21.1721 8.58449 22.1514 7.77501 23.3125C6.2125 21.5555 5.25705 19.3422 5.05001 17H7.00001C7.19744 17.0006 7.39063 16.9428 7.55524 16.8338C7.71985 16.7248 7.84851 16.5695 7.92501 16.3875C7.99706 16.2028 8.01534 16.0015 7.97773 15.8068C7.94012 15.6121 7.84817 15.4321 7.71251 15.2875L4.71251 12.2875C4.52292 12.0997 4.26686 11.9944 4.00001 11.9944C3.73317 11.9944 3.47711 12.0997 3.28751 12.2875L0.287513 15.2875C0.151853 15.4321 0.0599016 15.6121 0.0222959 15.8068C-0.0153098 16.0015 0.00296737 16.2028 0.0750128 16.3875C0.151514 16.5695 0.280177 16.7248 0.444787 16.8338C0.609397 16.9428 0.802588 17.0006 1.00001 17H3.03751C3.2935 20.3492 4.83959 23.4683 7.35001 25.7L7.40001 25.7375C8.80155 26.9783 10.4547 27.9015 12.2463 28.4438C14.0379 28.9861 15.9256 29.1347 17.7799 28.8795C19.6343 28.6242 21.4116 27.9711 22.9901 26.965C24.5685 25.9588 25.9108 24.6233 26.925 23.05C26.9966 22.9403 27.0457 22.8175 27.0693 22.6887C27.093 22.5599 27.0908 22.4276 27.0629 22.2997C27.035 22.1717 26.9819 22.0506 26.9067 21.9433C26.8315 21.8361 26.7358 21.7449 26.625 21.675ZM16 20.5C17.0878 20.5 18.1512 20.1774 19.0556 19.5731C19.9601 18.9687 20.6651 18.1098 21.0814 17.1048C21.4976 16.0998 21.6066 14.9939 21.3943 13.927C21.1821 12.8601 20.6583 11.8801 19.8891 11.1109C19.1199 10.3417 18.1399 9.8179 17.073 9.60568C16.0061 9.39347 14.9002 9.50238 13.8953 9.91867C12.8903 10.3349 12.0313 11.0399 11.4269 11.9444C10.8226 12.8488 10.5 13.9122 10.5 15C10.5 16.4587 11.0795 17.8576 12.1109 18.8891C13.1424 19.9205 14.5413 20.5 16 20.5Z" fill="#1C1C1C"/>
</svg>
