<svg width="32" height="32" viewBox="0 0 32 32" fill="none" xmlns="http://www.w3.org/2000/svg">
<path d="M18 10C18 9.73479 18.1054 9.48043 18.2929 9.2929C18.4804 9.10536 18.7348 9 19 9H31C31.2652 9 31.5196 9.10536 31.7071 9.2929C31.8946 9.48043 32 9.73479 32 10C32 10.2652 31.8946 10.5196 31.7071 10.7071C31.5196 10.8946 31.2652 11 31 11H19C18.7348 11 18.4804 10.8946 18.2929 10.7071C18.1054 10.5196 18 10.2652 18 10ZM31 15H19C18.7348 15 18.4804 15.1054 18.2929 15.2929C18.1054 15.4804 18 15.7348 18 16C18 16.2652 18.1054 16.5196 18.2929 16.7071C18.4804 16.8946 18.7348 17 19 17H31C31.2652 17 31.5196 16.8946 31.7071 16.7071C31.8946 16.5196 32 16.2652 32 16C32 15.7348 31.8946 15.4804 31.7071 15.2929C31.5196 15.1054 31.2652 15 31 15ZM31 21H22C21.7348 21 21.4804 21.1054 21.2929 21.2929C21.1054 21.4804 21 21.7348 21 22C21 22.2652 21.1054 22.5196 21.2929 22.7071C21.4804 22.8946 21.7348 23 22 23H31C31.2652 23 31.5196 22.8946 31.7071 22.7071C31.8946 22.5196 32 22.2652 32 22C32 21.7348 31.8946 21.4804 31.7071 21.2929C31.5196 21.1054 31.2652 21 31 21ZM13.6375 17.7625C14.6358 17.0015 15.3703 15.9465 15.7375 14.7462C16.1047 13.5458 16.0862 12.2605 15.6846 11.0712C15.283 9.88191 14.5185 8.84852 13.4987 8.11654C12.4789 7.38456 11.2553 6.99086 10 6.99086C8.74471 6.99086 7.52105 7.38456 6.50128 8.11654C5.4815 8.84852 4.71699 9.88191 4.31537 11.0712C3.91376 12.2605 3.89526 13.5458 4.2625 14.7462C4.62974 15.9465 5.3642 17.0015 6.3625 17.7625C5.11931 18.3125 4.01686 19.1369 3.1379 20.1739C2.25894 21.2109 1.62631 22.4335 1.2875 23.75C1.24988 23.8977 1.24608 24.0519 1.27638 24.2013C1.30668 24.3506 1.3703 24.4912 1.4625 24.6125C1.55433 24.7342 1.67341 24.8326 1.81018 24.8999C1.94694 24.9672 2.09758 25.0015 2.25 25H17.75C17.9024 25.0015 18.053 24.9672 18.1898 24.8999C18.3266 24.8326 18.4457 24.7342 18.5375 24.6125C18.6297 24.4912 18.6933 24.3506 18.7236 24.2013C18.7539 24.0519 18.7501 23.8977 18.7125 23.75C18.3737 22.4335 17.7411 21.2109 16.8621 20.1739C15.9831 19.1369 14.8807 18.3125 13.6375 17.7625Z" fill="#1C1C1C"/>
</svg>
