<svg width="32" height="32" viewBox="0 0 32 32" fill="none" xmlns="http://www.w3.org/2000/svg">
<path d="M8.00001 17.5C8.00169 17.6318 7.97697 17.7626 7.92731 17.8847C7.87765 18.0067 7.80405 18.1176 7.71086 18.2108C7.61766 18.304 7.50675 18.3776 7.38467 18.4273C7.26259 18.477 7.1318 18.5017 7.00001 18.5H1.50001C1.31423 18.4985 1.13236 18.4465 0.973836 18.3496C0.815311 18.2528 0.686097 18.1146 0.600009 17.95C0.519956 17.7823 0.486973 17.5961 0.504587 17.4111C0.522201 17.2262 0.589749 17.0495 0.700009 16.9C1.58499 15.712 2.7659 14.7768 4.12501 14.1875C3.541 13.6529 3.09229 12.9873 2.81582 12.2454C2.53935 11.5035 2.44301 10.7065 2.53474 9.92009C2.62647 9.13368 2.90364 8.3803 3.34344 7.72194C3.78324 7.06359 4.3731 6.51909 5.06447 6.13326C5.75584 5.74742 6.52895 5.53129 7.32017 5.50265C8.1114 5.474 8.89812 5.63367 9.61557 5.9685C10.333 6.30332 10.9607 6.80375 11.447 7.42857C11.9332 8.0534 12.2642 8.78477 12.4125 9.56249C12.4495 9.76505 12.4238 9.97407 12.339 10.1617C12.2541 10.3493 12.1141 10.5065 11.9375 10.6125C10.3208 11.5712 9.0912 13.0662 8.46251 14.8375C8.15259 15.6908 7.99602 16.5922 8.00001 17.5ZM31.3 16.9C30.415 15.712 29.2341 14.7768 27.875 14.1875C28.459 13.6529 28.9077 12.9873 29.1842 12.2454C29.4607 11.5035 29.557 10.7065 29.4653 9.92009C29.3736 9.13368 29.0964 8.3803 28.6566 7.72194C28.2168 7.06359 27.6269 6.51909 26.9355 6.13326C26.2442 5.74742 25.4711 5.53129 24.6798 5.50265C23.8886 5.474 23.1019 5.63367 22.3844 5.9685C21.667 6.30332 21.0393 6.80375 20.553 7.42857C20.0668 8.0534 19.7359 8.78477 19.5875 9.56249C19.5505 9.76505 19.5762 9.97407 19.661 10.1617C19.7459 10.3493 19.886 10.5065 20.0625 10.6125C21.6813 11.5687 22.9116 13.0646 23.5375 14.8375C23.8474 15.6908 24.004 16.5922 24 17.5C23.9983 17.6318 24.0231 17.7626 24.0727 17.8847C24.1224 18.0067 24.196 18.1176 24.2892 18.2108C24.3824 18.304 24.4933 18.3776 24.6153 18.4273C24.7374 18.477 24.8682 18.5017 25 18.5H30.5C30.6857 18.5 30.8678 18.4483 31.0257 18.3506C31.1837 18.253 31.3114 18.1133 31.3944 17.9472C31.4775 17.7811 31.5126 17.5951 31.496 17.4102C31.4793 17.2252 31.4114 17.0486 31.3 16.9ZM19.65 22.2625C20.6452 21.4997 21.3765 20.4442 21.7409 19.2444C22.1054 18.0446 22.0849 16.7608 21.6821 15.5733C21.2794 14.3858 20.5147 13.3543 19.4955 12.6238C18.4764 11.8933 17.2539 11.5004 16 11.5004C14.7461 11.5004 13.5236 11.8933 12.5045 12.6238C11.4853 13.3543 10.7207 14.3858 10.3179 15.5733C9.91516 16.7608 9.89459 18.0446 10.2591 19.2444C10.6236 20.4442 11.3548 21.4997 12.35 22.2625C10.4057 23.1257 8.82936 24.6489 7.90001 26.5625C7.82607 26.7146 7.79295 26.8833 7.8039 27.052C7.81486 27.2208 7.86952 27.3838 7.96251 27.525C8.04906 27.6699 8.17173 27.7898 8.31854 27.8731C8.46534 27.9563 8.63124 28.0001 8.80001 28H23.2C23.3688 28.0001 23.5347 27.9563 23.6815 27.8731C23.8283 27.7898 23.951 27.6699 24.0375 27.525C24.1305 27.3838 24.1852 27.2208 24.1961 27.052C24.2071 26.8833 24.174 26.7146 24.1 26.5625C23.1707 24.6489 21.5943 23.1257 19.65 22.2625Z" fill="#1C1C1C"/>
</svg>
