<svg width="32" height="32" viewBox="0 0 32 32" fill="none" xmlns="http://www.w3.org/2000/svg">
<path d="M16 9.5C17.0878 9.5 18.1512 9.82257 19.0556 10.4269C19.9601 11.0313 20.6651 11.8902 21.0813 12.8952C21.4976 13.9002 21.6065 15.0061 21.3943 16.073C21.1821 17.1399 20.6583 18.1199 19.8891 18.8891C19.1199 19.6583 18.1399 20.1821 17.073 20.3943C16.0061 20.6065 14.9002 20.4976 13.8952 20.0813C12.8903 19.6651 12.0313 18.9601 11.4269 18.0556C10.8226 17.1512 10.5 16.0878 10.5 15C10.5 13.5413 11.0795 12.1424 12.1109 11.1109C13.1424 10.0795 14.5413 9.5 16 9.5ZM22 8H24V10C24 10.2652 24.1054 10.5196 24.2929 10.7071C24.4804 10.8946 24.7348 11 25 11C25.2652 11 25.5196 10.8946 25.7071 10.7071C25.8947 10.5196 26 10.2652 26 10V8H28C28.2652 8 28.5196 7.89464 28.7071 7.7071C28.8947 7.51957 29 7.26521 29 7C29 6.73478 28.8947 6.48043 28.7071 6.29289C28.5196 6.10535 28.2652 6 28 6H26V4C26 3.73478 25.8947 3.48043 25.7071 3.29289C25.5196 3.10535 25.2652 3 25 3C24.7348 3 24.4804 3.10535 24.2929 3.29289C24.1054 3.48043 24 3.73478 24 4V6H22C21.7348 6 21.4804 6.10535 21.2929 6.29289C21.1054 6.48043 21 6.73478 21 7C21 7.26521 21.1054 7.51957 21.2929 7.7071C21.4804 7.89464 21.7348 8 22 8ZM27.7 13.125C27.5697 13.1433 27.4443 13.1874 27.3313 13.2548C27.2183 13.3222 27.1198 13.4115 27.0418 13.5175C26.9638 13.6234 26.9077 13.7439 26.8769 13.8719C26.8462 13.9998 26.8412 14.1326 26.8625 14.2625C26.9522 14.8374 26.9982 15.4182 27 16C27.0037 18.6917 26.0158 21.2904 24.225 23.3C23.4155 22.1388 22.3724 21.1596 21.1625 20.425C19.7733 21.7559 17.9238 22.4988 16 22.4988C14.0762 22.4988 12.2267 21.7559 10.8375 20.425C9.6276 21.1596 8.58448 22.1388 7.77501 23.3C6.36852 21.7146 5.44998 19.7566 5.12984 17.6616C4.8097 15.5666 5.1016 13.4236 5.97043 11.4905C6.83926 9.55746 8.24803 7.91652 10.0273 6.76507C11.8066 5.61362 13.8806 5.00069 16 5C16.5818 5.00181 17.1627 5.04778 17.7375 5.1375C17.9967 5.17302 18.2595 5.10554 18.4695 4.94955C18.6796 4.79355 18.8201 4.56145 18.861 4.30304C18.9019 4.04463 18.8399 3.78048 18.6883 3.56726C18.5367 3.35404 18.3075 3.20873 18.05 3.1625C17.3723 3.052 16.6866 2.99765 16 3C13.3805 3.00091 10.8224 3.79312 8.66095 5.27283C6.49946 6.75254 4.83539 8.85072 3.88682 11.2924C2.93826 13.7341 2.74944 16.4054 3.34511 18.9562C3.94078 21.5071 5.29315 23.8184 7.22501 25.5875L7.38751 25.7375C9.76408 27.8394 12.8273 28.9997 16 28.9997C19.1727 28.9997 22.2359 27.8394 24.6125 25.7375L24.775 25.5875C26.1077 24.3714 27.1718 22.8905 27.8993 21.2396C28.6268 19.5887 29.0017 17.8041 29 16C29.0024 15.3134 28.948 14.6277 28.8375 13.95C28.8178 13.8208 28.7725 13.6968 28.7045 13.5852C28.6365 13.4736 28.5469 13.3766 28.4411 13.2998C28.3353 13.2231 28.2153 13.1681 28.0881 13.1381C27.9609 13.1081 27.829 13.1036 27.7 13.125Z" fill="#1C1C1C"/>
</svg>
