<svg width="32" height="32" viewBox="0 0 32 32" fill="none" xmlns="http://www.w3.org/2000/svg">
<path d="M32 17C32 17.2652 31.8946 17.5196 31.7071 17.7071C31.5196 17.8947 31.2652 18 31 18H25C24.7348 18 24.4804 17.8947 24.2929 17.7071C24.1054 17.5196 24 17.2652 24 17C24 16.7348 24.1054 16.4804 24.2929 16.2929C24.4804 16.1054 24.7348 16 25 16H31C31.2652 16 31.5196 16.1054 31.7071 16.2929C31.8946 16.4804 32 16.7348 32 17ZM18.0125 19.7C19.576 18.7206 20.7783 17.259 21.438 15.5361C22.0977 13.8131 22.1789 11.9223 21.6694 10.1492C21.1599 8.376 20.0872 6.81675 18.6135 5.70687C17.1398 4.59698 15.3449 3.99672 13.5 3.99672C11.6551 3.99672 9.86024 4.59698 8.3865 5.70687C6.91276 6.81675 5.84014 8.376 5.33061 10.1492C4.82107 11.9223 4.90228 13.8131 5.56197 15.5361C6.22167 17.259 7.42403 18.7206 8.9875 19.7C6.26144 20.5488 3.83909 22.1681 2.0125 24.3625C1.88835 24.5068 1.80917 24.6844 1.78474 24.8732C1.7603 25.062 1.79168 25.2538 1.875 25.425C1.9541 25.597 2.08099 25.7427 2.24056 25.8447C2.40013 25.9466 2.58564 26.0005 2.775 26H24.225C24.4144 26.0005 24.5999 25.9466 24.7594 25.8447C24.919 25.7427 25.0459 25.597 25.125 25.425C25.2083 25.2538 25.2397 25.062 25.2153 24.8732C25.1908 24.6844 25.1117 24.5068 24.9875 24.3625C23.1609 22.1681 20.7386 20.5488 18.0125 19.7Z" fill="#1C1C1C"/>
</svg>
