<svg width="32" height="32" viewBox="0 0 32 32" fill="none" xmlns="http://www.w3.org/2000/svg">
<path d="M24.9875 24.3625C25.1117 24.5068 25.1908 24.6844 25.2153 24.8732C25.2397 25.062 25.2083 25.2538 25.125 25.425C25.0459 25.597 24.919 25.7427 24.7594 25.8447C24.5999 25.9466 24.4144 26.0005 24.225 26H2.775C2.58564 26.0005 2.40013 25.9466 2.24056 25.8447C2.08099 25.7427 1.9541 25.597 1.875 25.425C1.79168 25.2538 1.7603 25.062 1.78474 24.8732C1.80917 24.6844 1.88835 24.5068 2.0125 24.3625C3.83909 22.1681 6.26144 20.5488 8.9875 19.7C7.42403 18.7206 6.22167 17.259 5.56197 15.5361C4.90228 13.8131 4.82107 11.9223 5.33061 10.1492C5.84014 8.376 6.91276 6.81675 8.3865 5.70687C9.86024 4.59698 11.6551 3.99672 13.5 3.99672C15.3449 3.99672 17.1398 4.59698 18.6135 5.70687C20.0872 6.81675 21.1599 8.376 21.6694 10.1492C22.1789 11.9223 22.0977 13.8131 21.438 15.5361C20.7783 17.259 19.576 18.7206 18.0125 19.7C20.7386 20.5488 23.1609 22.1681 24.9875 24.3625ZM31.4 19.25C31.3115 19.4034 31.1838 19.5304 31.0301 19.6183C30.8764 19.7061 30.7021 19.7516 30.525 19.75C30.3488 19.7514 30.1757 19.7038 30.025 19.6125L29.45 19.275C29.1699 19.5152 28.8478 19.7017 28.5 19.825V20.5C28.5 20.7652 28.3946 21.0196 28.2071 21.2071C28.0196 21.3946 27.7652 21.5 27.5 21.5C27.2348 21.5 26.9804 21.3946 26.7929 21.2071C26.6054 21.0196 26.5 20.7652 26.5 20.5V19.825C26.1522 19.7017 25.8301 19.5152 25.55 19.275L24.975 19.6125C24.8243 19.7038 24.6512 19.7514 24.475 19.75C24.256 19.7487 24.0435 19.6755 23.8701 19.5417C23.6967 19.4079 23.572 19.2208 23.5152 19.0093C23.4584 18.7978 23.4727 18.5734 23.5557 18.3708C23.6388 18.1681 23.7861 17.9983 23.975 17.8875L24.55 17.55C24.4833 17.1864 24.4833 16.8136 24.55 16.45L23.975 16.1125C23.8598 16.0488 23.7584 15.9627 23.6769 15.8593C23.5954 15.7559 23.5355 15.6372 23.5005 15.5102C23.4656 15.3833 23.4564 15.2506 23.4735 15.1201C23.4906 14.9895 23.5336 14.8637 23.6 14.75C23.7356 14.521 23.9558 14.3546 24.2132 14.2868C24.4705 14.2189 24.7442 14.2551 24.975 14.3875L25.55 14.725C25.8301 14.4848 26.1522 14.2984 26.5 14.175V13.5C26.5 13.2348 26.6054 12.9804 26.7929 12.7929C26.9804 12.6054 27.2348 12.5 27.5 12.5C27.7652 12.5 28.0196 12.6054 28.2071 12.7929C28.3946 12.9804 28.5 13.2348 28.5 13.5V14.175C28.8478 14.2984 29.1699 14.4848 29.45 14.725L30.025 14.3875C30.2558 14.2551 30.5295 14.2189 30.7868 14.2868C31.0442 14.3546 31.2644 14.521 31.4 14.75C31.4664 14.8637 31.5094 14.9895 31.5265 15.1201C31.5436 15.2506 31.5344 15.3833 31.4995 15.5102C31.4645 15.6372 31.4046 15.7559 31.3231 15.8593C31.2416 15.9627 31.1402 16.0488 31.025 16.1125L30.45 16.45C30.5167 16.8136 30.5167 17.1864 30.45 17.55L31.025 17.8875C31.1402 17.9512 31.2416 18.0373 31.3231 18.1407C31.4046 18.2441 31.4645 18.3628 31.4995 18.4898C31.5344 18.6167 31.5436 18.7494 31.5265 18.8799C31.5094 19.0105 31.4664 19.1363 31.4 19.25ZM27.5 18C27.6978 18 27.8911 17.9414 28.0556 17.8315C28.22 17.7216 28.3482 17.5654 28.4239 17.3827C28.4996 17.2 28.5194 16.9989 28.4808 16.8049C28.4422 16.6109 28.347 16.4328 28.2071 16.2929C28.0673 16.153 27.8891 16.0578 27.6951 16.0192C27.5011 15.9806 27.3 16.0004 27.1173 16.0761C26.9346 16.1518 26.7784 16.28 26.6685 16.4444C26.5586 16.6089 26.5 16.8022 26.5 17C26.5 17.2652 26.6054 17.5196 26.7929 17.7071C26.9804 17.8947 27.2348 18 27.5 18Z" fill="#1C1C1C"/>
</svg>
