<svg width="32" height="32" viewBox="0 0 32 32" fill="none" xmlns="http://www.w3.org/2000/svg">
<path d="M29 15.9501C28.9912 13.9589 28.5251 11.9963 27.6376 10.2137C26.7502 8.43118 25.4651 6.87632 23.8815 5.66911C22.2979 4.46189 20.4582 3.63459 18.5042 3.25102C16.5503 2.86746 14.5343 2.93789 12.6119 3.45688C10.6895 3.97586 8.91195 4.92954 7.41648 6.24432C5.92101 7.5591 4.74756 9.19986 3.98666 11.04C3.22576 12.8801 2.89775 14.8705 3.02794 16.8575C3.15812 18.8445 3.74301 20.775 4.7375 22.5001C4.9875 22.9251 5.2625 23.3376 5.55 23.7376L5.6125 23.8251C6.97529 25.6379 8.78904 27.0623 10.8733 27.9564C12.9575 28.8506 15.2395 29.1834 17.4923 28.9217C19.7451 28.66 21.8901 27.813 23.7138 26.4649C25.5376 25.1167 26.9765 23.3146 27.8875 21.2376C27.9375 21.1605 27.9755 21.0762 28 20.9876C28.6438 19.4289 28.9832 17.7614 29 16.0751V15.9501ZM5.5625 19.4876C4.81784 17.2435 4.81438 14.8194 5.55263 12.5731C6.29088 10.3269 7.73172 8.37746 9.6625 7.01262L11.8 10.7251C10.1973 11.6586 8.81207 12.9229 7.73651 14.4339C6.66095 15.9448 5.91981 17.6677 5.5625 19.4876ZM9.6625 24.9876C8.79056 24.3827 8.01513 23.6494 7.3625 22.8126C7.20192 20.7487 7.62701 18.6814 8.58889 16.8483C9.55077 15.0152 11.0104 13.4907 12.8 12.4501L14.85 16.0001L9.6625 24.9876ZM26.2125 20.0751C24.5051 21.2427 22.5037 21.9064 20.4369 21.9904C18.3702 22.0744 16.3215 21.5753 14.525 20.5501L16.575 17.0001H26.95C26.8513 18.0549 26.603 19.0903 26.2125 20.0751ZM22.675 15.0001C22.6629 13.1482 22.259 11.3197 21.4899 9.63502C20.7208 7.95028 19.6039 6.44739 18.2125 5.22512C20.526 5.69913 22.6252 6.9059 24.199 8.66658C25.7728 10.4273 26.7375 12.6482 26.95 15.0001H22.675Z" fill="#1C1C1C"/>
</svg>
