<svg width="32" height="32" viewBox="0 0 32 32" fill="none" xmlns="http://www.w3.org/2000/svg">
<path d="M29.5875 23.4999L18.6 4.49992C18.337 4.04296 17.9581 3.66339 17.5017 3.39947C17.0452 3.13554 16.5273 2.99658 16 2.99658C15.4728 2.99658 14.9548 3.13554 14.4984 3.39947C14.0419 3.66339 13.6631 4.04296 13.4 4.49992L2.41252 23.4999C2.14561 23.9546 2.00375 24.4717 2.00137 24.9989C1.99899 25.5261 2.13616 26.0446 2.39896 26.5016C2.66176 26.9587 3.04082 27.338 3.49765 27.6012C3.95448 27.8643 4.47282 28.0019 5.00002 27.9999H27C27.5272 28.0019 28.0456 27.8643 28.5024 27.6012C28.9592 27.338 29.3383 26.9587 29.6011 26.5016C29.8639 26.0446 30.0011 25.5261 29.9987 24.9989C29.9963 24.4717 29.8544 23.9546 29.5875 23.4999ZM15 12.9999C15 12.7347 15.1054 12.4803 15.2929 12.2928C15.4804 12.1053 15.7348 11.9999 16 11.9999C16.2652 11.9999 16.5196 12.1053 16.7071 12.2928C16.8947 12.4803 17 12.7347 17 12.9999V17.9999C17 18.2651 16.8947 18.5195 16.7071 18.707C16.5196 18.8946 16.2652 18.9999 16 18.9999C15.7348 18.9999 15.4804 18.8946 15.2929 18.707C15.1054 18.5195 15 18.2651 15 17.9999V12.9999ZM16 23.9999C15.7033 23.9999 15.4133 23.9119 15.1667 23.7471C14.92 23.5823 14.7277 23.348 14.6142 23.0739C14.5007 22.7999 14.471 22.4983 14.5288 22.2073C14.5867 21.9163 14.7296 21.649 14.9394 21.4393C15.1491 21.2295 15.4164 21.0866 15.7074 21.0287C15.9984 20.9709 16.3 21.0006 16.574 21.1141C16.8481 21.2276 17.0824 21.4199 17.2472 21.6666C17.412 21.9132 17.5 22.2032 17.5 22.4999C17.5 22.8977 17.342 23.2793 17.0607 23.5606C16.7794 23.8419 16.3978 23.9999 16 23.9999Z" fill="#1C1C1C"/>
</svg>
