<svg width="32" height="32" viewBox="0 0 32 32" fill="none" xmlns="http://www.w3.org/2000/svg">
<path d="M21.9125 7.93752L21.1375 3.63752C21.0526 3.17633 20.8082 2.75968 20.4472 2.46037C20.0862 2.16105 19.6315 1.99811 19.1625 2.00002H12.8375C12.3686 1.99811 11.9139 2.16105 11.5529 2.46037C11.1919 2.75968 10.9475 3.17633 10.8625 3.63752L10.0875 7.93752C8.82159 8.86639 7.79216 10.0803 7.0826 11.481C6.37304 12.8817 6.0033 14.4298 6.0033 16C6.0033 17.5702 6.37304 19.1183 7.0826 20.519C7.79216 21.9197 8.82159 23.1336 10.0875 24.0625L10.8625 28.3625C10.9475 28.8237 11.1919 29.2404 11.5529 29.5397C11.9139 29.839 12.3686 30.0019 12.8375 30H19.1625C19.6315 30.0019 20.0862 29.839 20.4472 29.5397C20.8082 29.2404 21.0526 28.8237 21.1375 28.3625L21.9125 24.0625C23.1785 23.1336 24.2079 21.9197 24.9175 20.519C25.627 19.1183 25.9968 17.5702 25.9968 16C25.9968 14.4298 25.627 12.8817 24.9175 11.481C24.2079 10.0803 23.1785 8.86639 21.9125 7.93752ZM12.8375 4.00002H19.1625L19.65 6.70002C17.3063 5.76632 14.6938 5.76632 12.35 6.70002L12.8375 4.00002ZM19.1625 28H12.8375L12.35 25.3C14.6938 26.2337 17.3063 26.2337 19.65 25.3L19.1625 28ZM21 17H16C15.7348 17 15.4805 16.8947 15.2929 16.7071C15.1054 16.5196 15 16.2652 15 16V11C15 10.7348 15.1054 10.4804 15.2929 10.2929C15.4805 10.1054 15.7348 10 16 10C16.2653 10 16.5196 10.1054 16.7072 10.2929C16.8947 10.4804 17 10.7348 17 11V15H21C21.2653 15 21.5196 15.1054 21.7072 15.2929C21.8947 15.4804 22 15.7348 22 16C22 16.2652 21.8947 16.5196 21.7072 16.7071C21.5196 16.8947 21.2653 17 21 17Z" fill="#1C1C1C"/>
</svg>
