<svg width="32" height="32" viewBox="0 0 32 32" fill="none" xmlns="http://www.w3.org/2000/svg">
<path d="M4.21251 9.625C4.04929 9.41746 3.97476 9.15379 4.00521 8.89151C4.03565 8.62923 4.16859 8.38964 4.37501 8.225C5.46325 7.4235 6.69958 6.8457 8.01251 6.525C10.025 6.025 13.15 5.9 16.55 8.1625C21.85 11.7 26.2 8.3625 26.375 8.2125C26.5858 8.05166 26.8506 7.97873 27.114 8.00903C27.3774 8.03933 27.6188 8.1705 27.7875 8.375C27.9507 8.58254 28.0253 8.84622 27.9948 9.1085C27.9644 9.37077 27.8314 9.61037 27.625 9.775C26.5368 10.5765 25.3005 11.1543 23.9875 11.475C23.1821 11.6756 22.355 11.7763 21.525 11.775C19.775 11.775 17.675 11.3125 15.45 9.8375C10.15 6.3 5.80001 9.6375 5.62501 9.7875C5.41426 9.94835 5.14939 10.0213 4.88601 9.99098C4.62263 9.96068 4.38124 9.8295 4.21251 9.625ZM26.375 15.2125C26.2 15.3625 21.85 18.7 16.55 15.1625C13.15 12.9 10.025 13.025 8.01251 13.525C6.69958 13.8457 5.46325 14.4235 4.37501 15.225C4.16859 15.3896 4.03565 15.6292 4.00521 15.8915C3.97476 16.1538 4.04929 16.4175 4.21251 16.625C4.38124 16.8295 4.62263 16.9607 4.88601 16.991C5.14939 17.0213 5.41426 16.9483 5.62501 16.7875C5.80001 16.6375 10.15 13.3 15.45 16.8375C17.675 18.3125 19.775 18.775 21.525 18.775C22.355 18.7763 23.1821 18.6756 23.9875 18.475C25.3005 18.1543 26.5368 17.5765 27.625 16.775C27.8314 16.6104 27.9644 16.3708 27.9948 16.1085C28.0253 15.8462 27.9507 15.5825 27.7875 15.375C27.6188 15.1705 27.3774 15.0393 27.114 15.009C26.8506 14.9787 26.5858 15.0517 26.375 15.2125ZM26.375 22.2125C26.2 22.3625 21.85 25.7 16.55 22.1625C13.15 19.9 10.025 20.025 8.01251 20.525C6.69958 20.8457 5.46325 21.4235 4.37501 22.225C4.16859 22.3896 4.03565 22.6292 4.00521 22.8915C3.97476 23.1538 4.04929 23.4175 4.21251 23.625C4.38124 23.8295 4.62263 23.9607 4.88601 23.991C5.14939 24.0213 5.41426 23.9483 5.62501 23.7875C5.80001 23.6375 10.15 20.3 15.45 23.8375C17.675 25.3125 19.775 25.775 21.525 25.775C23.7192 25.7734 25.8558 25.0729 27.625 23.775C27.8314 23.6104 27.9644 23.3708 27.9948 23.1085C28.0253 22.8462 27.9507 22.5825 27.7875 22.375C27.6188 22.1705 27.3774 22.0393 27.114 22.009C26.8506 21.9787 26.5858 22.0517 26.375 22.2125Z" fill="#1C1C1C"/>
</svg>
