<svg width="32" height="32" viewBox="0 0 32 32" fill="none" xmlns="http://www.w3.org/2000/svg">
<path d="M22.25 25.0875C19.1125 25.0875 17.1625 20.875 15.0875 16.425C13.4625 12.9 11.6125 8.91248 9.75001 8.91248C7.88751 8.91248 5.21251 13.6125 3.91251 16.425C3.86671 16.5596 3.79308 16.683 3.69642 16.7872C3.59976 16.8914 3.48223 16.9742 3.35149 17.03C3.22075 17.0858 3.07971 17.1134 2.93758 17.1111C2.79544 17.1088 2.65538 17.0766 2.52651 17.0166C2.39765 16.9566 2.28287 16.8701 2.18964 16.7628C2.09641 16.6555 2.02683 16.5297 1.98541 16.3937C1.944 16.2577 1.93169 16.1145 1.94928 15.9735C1.96687 15.8324 2.01397 15.6966 2.08751 15.575C4.83751 9.67498 7.26251 6.91248 9.75001 6.91248C12.8875 6.91248 14.8375 11.125 16.9125 15.575C18.5375 19.1 20.3875 23.0875 22.25 23.0875C24.3 23.0875 26.7875 18.3875 28.0875 15.575C28.2167 15.3613 28.4202 15.2029 28.659 15.1302C28.8979 15.0574 29.1552 15.0755 29.3815 15.1809C29.6078 15.2863 29.7872 15.4716 29.8852 15.7013C29.9832 15.9309 29.9929 16.1886 29.9125 16.425C27.1625 22.325 24.7375 25.0875 22.25 25.0875Z" fill="#1C1C1C"/>
</svg>
