<svg width="32" height="32" viewBox="0 0 32 32" fill="none" xmlns="http://www.w3.org/2000/svg">
<path d="M22.5 26C22.3414 26.0015 22.1848 25.9649 22.0433 25.8931C21.9019 25.8213 21.7799 25.7165 21.6875 25.5875L9.5 8.7125L3.8125 16.5875C3.73535 16.6942 3.63794 16.7847 3.52583 16.8537C3.41372 16.9228 3.2891 16.9691 3.1591 16.9899C3.0291 17.0108 2.89625 17.0059 2.76815 16.9755C2.64005 16.945 2.5192 16.8896 2.4125 16.8125C2.3058 16.7353 2.21534 16.6379 2.14629 16.5258C2.07724 16.4137 2.03095 16.2891 2.01005 16.1591C1.96786 15.8965 2.03169 15.628 2.1875 15.4125L8.6875 6.4125C8.78171 6.28579 8.90425 6.18288 9.04533 6.11198C9.18641 6.04108 9.34211 6.00415 9.5 6.00415C9.65789 6.00415 9.8136 6.04108 9.95467 6.11198C10.0957 6.18288 10.2183 6.28579 10.3125 6.4125L22.5 23.2875L28.1875 15.4125C28.3433 15.197 28.5784 15.0522 28.8409 15.01C29.1035 14.9679 29.372 15.0317 29.5875 15.1875C29.803 15.3433 29.9478 15.5783 29.99 15.8409C30.0321 16.1035 29.9683 16.372 29.8125 16.5875L23.3125 25.5875C23.2202 25.7165 23.0981 25.8213 22.9567 25.8931C22.8152 25.9649 22.6586 26.0015 22.5 26Z" fill="#1C1C1C"/>
</svg>
