<svg width="32" height="32" viewBox="0 0 32 32" fill="none" xmlns="http://www.w3.org/2000/svg">
<path d="M30.075 8.70003C21.7875 2.43753 10.2125 2.43753 1.92499 8.68753C1.70982 8.85266 1.53025 9.05959 1.39707 9.29588C1.26388 9.53217 1.17984 9.79294 1.14999 10.0625C1.12108 10.3367 1.1471 10.6138 1.22651 10.8778C1.30592 11.1418 1.43713 11.3873 1.61249 11.6L14.475 26.75C14.6627 26.9718 14.8962 27.1504 15.1594 27.2734C15.4227 27.3964 15.7094 27.4609 16 27.4625C16.2876 27.4615 16.5716 27.3984 16.8326 27.2776C17.0936 27.1568 17.3255 26.9811 17.5125 26.7625L30.3875 11.5875C30.565 11.3786 30.6976 11.1354 30.7772 10.8731C30.8567 10.6107 30.8815 10.3348 30.85 10.0625C30.8221 9.79416 30.7388 9.5345 30.6054 9.29998C30.472 9.06545 30.2914 8.86116 30.075 8.70003ZM25.5625 14.1875C24.8894 13.688 24.179 13.2408 23.4375 12.85L23.3375 12.8C22.6221 12.425 21.8781 12.1073 21.1125 11.85L20.925 11.8C20.1754 11.5455 19.4062 11.3531 18.625 11.225L18.425 11.2C16.8193 10.9333 15.1807 10.9333 13.575 11.2L13.375 11.225C12.5954 11.3549 11.8265 11.5429 11.075 11.7875L10.8875 11.85C10.1227 12.1096 9.37891 12.4272 8.66249 12.8L8.56249 12.85C7.82332 13.238 7.11683 13.6853 6.44999 14.1875L3.13749 10.2875C10.7125 4.57503 21.3 4.57503 28.8625 10.3L25.5625 14.1875Z" fill="#1C1C1C"/>
</svg>
