<svg width="32" height="32" viewBox="0 0 32 32" fill="none" xmlns="http://www.w3.org/2000/svg">
<path d="M30.8625 10.0625C30.8346 9.79416 30.7513 9.5345 30.6179 9.29998C30.4845 9.06545 30.3039 8.86116 30.0875 8.70003C21.7875 2.43753 10.2125 2.43753 1.92499 8.68753C1.70982 8.85266 1.53025 9.05959 1.39707 9.29588C1.26388 9.53217 1.17984 9.79294 1.14999 10.0625C1.12108 10.3367 1.1471 10.6138 1.22651 10.8778C1.30592 11.1418 1.43713 11.3873 1.61249 11.6L14.4875 26.7625C14.6741 26.9814 14.9059 27.1572 15.1671 27.2777C15.4282 27.3982 15.7124 27.4606 16 27.4606C16.2876 27.4606 16.5718 27.3982 16.8329 27.2777C17.094 27.1572 17.3259 26.9814 17.5125 26.7625L30.3875 11.5875C30.5647 11.3781 30.698 11.1351 30.7796 10.8732C30.8612 10.6112 30.8894 10.3356 30.8625 10.0625Z" fill="#1C1C1C"/>
</svg>
