<svg width="32" height="32" viewBox="0 0 32 32" fill="none" xmlns="http://www.w3.org/2000/svg">
<path d="M30.85 10.0625C30.823 9.79215 30.7402 9.53034 30.6068 9.29365C30.4734 9.05697 30.2923 8.85056 30.075 8.6875C21.7875 2.4375 10.2125 2.4375 1.92499 8.6875C1.70982 8.85264 1.53025 9.05956 1.39707 9.29585C1.26388 9.53214 1.17984 9.79291 1.14999 10.0625C1.12108 10.3366 1.1471 10.6138 1.22651 10.8778C1.30592 11.1418 1.43713 11.3873 1.61249 11.6L14.475 26.75C14.6178 26.9176 14.7866 27.0611 14.975 27.175C15.2834 27.364 15.6383 27.4636 16 27.4625C16.5082 27.4625 16.9967 27.2653 17.3625 26.9125C17.4186 26.869 17.4689 26.8186 17.5125 26.7625L30.3875 11.5875C30.565 11.3786 30.6976 11.1354 30.7772 10.8731C30.8567 10.6107 30.8815 10.3348 30.85 10.0625ZM28.8625 10.3L22.975 17.2375C20.9405 15.7819 18.5016 14.9993 16 14.9993C13.4984 14.9993 11.0595 15.7819 9.02499 17.2375L3.13749 10.3C10.7125 4.5875 21.3 4.5875 28.8625 10.3Z" fill="#1C1C1C"/>
</svg>
