<svg width="32" height="32" viewBox="0 0 32 32" fill="none" xmlns="http://www.w3.org/2000/svg">
<path d="M28.675 12.2625C28.8595 12.4421 28.9696 12.6845 28.9835 12.9416C28.9974 13.1987 28.914 13.4516 28.75 13.65C28.6583 13.7598 28.5436 13.848 28.414 13.9085C28.2844 13.969 28.143 14.0002 28 14C27.7344 13.9989 27.4794 13.896 27.2875 13.7125L25 11.4125L22.7125 13.7125C22.5192 13.8938 22.265 13.9964 22 14C21.8551 14.0004 21.7119 13.9692 21.5803 13.9088C21.4486 13.8484 21.3316 13.7601 21.2375 13.65C21.0762 13.4504 20.9946 13.1981 21.0084 12.9418C21.0223 12.6856 21.1306 12.4435 21.3125 12.2625L23.5875 9.99998L21.325 7.73748C21.1361 7.55134 21.0257 7.29995 21.0164 7.03493C21.0071 6.76992 21.0996 6.5114 21.275 6.31248C21.3674 6.21596 21.4781 6.13871 21.6006 6.08517C21.723 6.03163 21.8549 6.00287 21.9885 6.00055C22.1222 5.99822 22.2549 6.02238 22.3792 6.07163C22.5035 6.12088 22.6167 6.19424 22.7125 6.28748L25 8.58748L27.2875 6.28748C27.3832 6.19424 27.4965 6.12088 27.6208 6.07163C27.745 6.02238 27.8778 5.99822 28.0114 6.00055C28.1451 6.00287 28.2769 6.03163 28.3994 6.08517C28.5219 6.13871 28.6325 6.21596 28.725 6.31248C28.9003 6.5114 28.9929 6.76992 28.9836 7.03493C28.9743 7.29995 28.8639 7.55134 28.675 7.73748L26.4125 9.99998L28.675 12.2625ZM25.35 14.6C25.3045 14.5531 25.2501 14.5158 25.19 14.4904C25.1299 14.4649 25.0653 14.4518 25 14.4518C24.9347 14.4518 24.8701 14.4649 24.81 14.4904C24.7498 14.5158 24.6954 14.5531 24.65 14.6L24.1625 15.075C23.8865 15.3636 23.5556 15.5942 23.1893 15.7533C22.823 15.9124 22.4286 15.9968 22.0292 16.0014C21.6299 16.0061 21.2337 15.931 20.8637 15.7805C20.4938 15.63 20.1577 15.4071 19.875 15.125C19.3162 14.5589 19.0029 13.7954 19.0029 13C19.0029 12.2045 19.3162 11.4411 19.875 10.875L20.7625 9.99998L19.925 9.17498C18.8 8.04998 18.6875 6.22498 19.7375 5.02498C19.7801 4.97607 19.8261 4.93013 19.875 4.88748C19.9183 4.84067 19.9485 4.78327 19.9625 4.72108C19.9765 4.65888 19.9739 4.59408 19.9549 4.53323C19.9358 4.47237 19.9011 4.41761 19.8542 4.37446C19.8072 4.33131 19.7497 4.30131 19.6875 4.28748C16.5822 3.79317 13.4091 3.9291 10.3575 4.68718C7.3058 5.44527 4.438 6.80998 1.92499 8.69998C1.70858 8.86111 1.52796 9.0654 1.39456 9.29993C1.26116 9.53446 1.17788 9.79412 1.14999 10.0625C1.12108 10.3366 1.1471 10.6138 1.22651 10.8778C1.30592 11.1418 1.43713 11.3873 1.61249 11.6L14.4875 26.7625C14.6741 26.9814 14.9059 27.1571 15.1671 27.2777C15.4282 27.3982 15.7124 27.4606 16 27.4606C16.2876 27.4606 16.5718 27.3982 16.8329 27.2777C17.094 27.1571 17.3259 26.9814 17.5125 26.7625L26.45 16.2375C26.4949 16.1832 26.5278 16.12 26.5465 16.0521C26.5653 15.9843 26.5695 15.9132 26.5589 15.8435C26.5482 15.7739 26.523 15.7073 26.4849 15.6481C26.4467 15.5889 26.3965 15.5384 26.3375 15.5C26.1725 15.3889 26.0178 15.2634 25.875 15.125L25.35 14.6Z" fill="#1C1C1C"/>
</svg>
