<svg width="32" height="32" viewBox="0 0 32 32" fill="none" xmlns="http://www.w3.org/2000/svg">
<path d="M16 27.4625C15.7124 27.4614 15.4284 27.3984 15.1674 27.2776C14.9064 27.1568 14.6745 26.9811 14.4875 26.7625L1.61252 11.5875C1.43372 11.3794 1.30026 11.1363 1.22063 10.8737C1.141 10.6112 1.11695 10.3349 1.15002 10.0625C1.18125 9.79328 1.26589 9.53301 1.39896 9.29691C1.53204 9.06081 1.71088 8.85363 1.92502 8.6875C10.2125 2.4375 21.7875 2.4375 30.075 8.6875C30.2892 8.85363 30.468 9.06081 30.6011 9.29691C30.7341 9.53301 30.8188 9.79328 30.85 10.0625C30.8816 10.3348 30.8568 10.6107 30.7772 10.8731C30.6977 11.1354 30.565 11.3786 30.3875 11.5875L17.5125 26.7625C17.3256 26.9811 17.0937 27.1568 16.8327 27.2776C16.5716 27.3984 16.2876 27.4614 16 27.4625ZM3.13752 10.2875L16 25.45L28.8625 10.3V10.275C21.3 4.575 10.7125 4.575 3.13752 10.2875Z" fill="#1C1C1C"/>
</svg>
