<svg width="32" height="32" viewBox="0 0 32 32" fill="none" xmlns="http://www.w3.org/2000/svg">
<path d="M14 17.9999V24.4499C13.9998 24.5978 13.9673 24.7437 13.9046 24.8776C13.842 25.0115 13.7508 25.1301 13.6375 25.2249C13.4586 25.3736 13.2325 25.4534 13 25.4499H12.825L4.825 23.9999C4.59112 23.9584 4.37967 23.835 4.2285 23.6517C4.07734 23.4685 3.99634 23.2374 4 22.9999V17.9999C4 17.7347 4.10535 17.4804 4.29289 17.2928C4.48043 17.1053 4.73478 16.9999 5 16.9999H13C13.2652 16.9999 13.5196 17.1053 13.7071 17.2928C13.8946 17.4804 14 17.7347 14 17.9999ZM13.6375 6.77494C13.5256 6.68273 13.3949 6.61596 13.2546 6.57926C13.1143 6.54257 12.9677 6.53683 12.825 6.56244L4.825 8.01244C4.59326 8.05363 4.38347 8.17524 4.23257 8.35587C4.08166 8.5365 3.99931 8.76457 4 8.99994V13.9999C4 14.2652 4.10535 14.5195 4.29289 14.707C4.48043 14.8946 4.73478 14.9999 5 14.9999H13C13.2652 14.9999 13.5196 14.8946 13.7071 14.707C13.8946 14.5195 14 14.2652 14 13.9999V7.54994C13.9998 7.40213 13.9673 7.25616 13.9046 7.12227C13.842 6.98838 13.7508 6.86983 13.6375 6.77494ZM27 16.9999H17C16.7348 16.9999 16.4804 17.1053 16.2929 17.2928C16.1054 17.4804 16 17.7347 16 17.9999V25.1874C16.0022 25.4207 16.0859 25.6458 16.2366 25.8238C16.3872 26.0019 16.5954 26.1216 16.825 26.1624L26.825 27.9874H27C27.235 27.9921 27.4629 27.9072 27.6375 27.7499C27.7489 27.6589 27.8391 27.5446 27.9017 27.415C27.9643 27.2855 27.9979 27.1438 28 26.9999V17.9999C28 17.7347 27.8946 17.4804 27.7071 17.2928C27.5196 17.1053 27.2652 16.9999 27 16.9999ZM27.6375 4.23744C27.528 4.14074 27.398 4.07023 27.2572 4.03125C27.1164 3.99226 26.9686 3.98583 26.825 4.01244L16.825 5.83744C16.5954 5.87825 16.3872 5.99803 16.2366 6.17608C16.0859 6.35412 16.0022 6.57922 16 6.81244V13.9999C16 14.2652 16.1054 14.5195 16.2929 14.707C16.4804 14.8946 16.7348 14.9999 17 14.9999H27C27.2652 14.9999 27.5196 14.8946 27.7071 14.707C27.8946 14.5195 28 14.2652 28 13.9999V4.99994C27.9997 4.85395 27.967 4.70985 27.9043 4.578C27.8417 4.44615 27.7505 4.32984 27.6375 4.23744Z" fill="#1C1C1C"/>
</svg>
