<svg width="32" height="32" viewBox="0 0 32 32" fill="none" xmlns="http://www.w3.org/2000/svg">
<path d="M26.3625 18.3625C25.0763 19.638 23.4378 20.4993 21.6578 20.8357C19.8779 21.1721 18.0381 20.9681 16.375 20.25L9.87504 27.775C9.86254 27.8 9.83754 27.8125 9.82504 27.825C9.45457 28.1969 9.01432 28.492 8.52953 28.6934C8.04475 28.8947 7.52498 28.9984 7.00004 28.9984C6.47511 28.9984 5.95534 28.8947 5.47055 28.6934C4.98577 28.492 4.54551 28.1969 4.17504 27.825C3.80315 27.4545 3.50806 27.0143 3.30671 26.5295C3.10536 26.0447 3.00171 25.525 3.00171 25C3.00171 24.4751 3.10536 23.9553 3.30671 23.4705C3.50806 22.9858 3.80315 22.5455 4.17504 22.175L4.22504 22.125L11.75 15.625C11.0252 13.9739 10.8131 12.143 11.1412 10.3699C11.4693 8.59675 12.3225 6.96305 13.5902 5.68058C14.8578 4.3981 16.4815 3.526 18.2507 3.17731C20.0199 2.82862 21.8531 3.01944 23.5125 3.72502C23.6626 3.78807 23.7948 3.88726 23.8973 4.01375C23.9998 4.14024 24.0695 4.29011 24.1 4.45002C24.1316 4.61108 24.123 4.77743 24.075 4.93439C24.0271 5.09135 23.9412 5.23409 23.825 5.35002L18.9625 10.2125L19.425 12.575L21.7875 13.0375L26.65 8.17502C26.766 8.05885 26.9087 7.97299 27.0657 7.92503C27.2226 7.87707 27.389 7.86848 27.55 7.90002C27.71 7.93059 27.8598 8.00023 27.9863 8.10273C28.1128 8.20523 28.212 8.33742 28.275 8.48752C28.9807 10.136 29.1756 11.9582 28.8347 13.7186C28.4938 15.479 27.6326 17.0967 26.3625 18.3625Z" fill="#1C1C1C"/>
</svg>
