<svg width="16" height="16" viewBox="0 0 16 16" fill="none" xmlns="http://www.w3.org/2000/svg">
<path d="M7.5 14H9.25C9.52614 14 9.75 13.7761 9.75 13.5C9.75 13.2239 9.52614 13 9.25 13H8V10.5C8 10.2239 7.77614 10 7.5 10C7.22386 10 7 10.2239 7 10.5V13.5C7 13.7761 7.22386 14 7.5 14Z" fill="#1C1C1C"/>
<path d="M5.09987 13.7998C5.17944 13.9059 5.29801 13.9762 5.42929 13.995C5.45271 13.9983 5.47634 14 5.5 14L5.50172 14C5.60931 13.9996 5.71392 13.9646 5.8 13.9C5.9259 13.8056 6 13.6574 6 13.5L5.99996 13.4934C5.99857 13.3875 5.96357 13.2848 5.9 13.2L3.65 10.2C3.57044 10.0939 3.45199 10.0238 3.32071 10.005C3.29729 10.0017 3.27366 10 3.25 10L3.24828 10C3.14069 10.0004 3.03608 10.0354 2.95 10.1C2.84391 10.1796 2.77378 10.298 2.75503 10.4293C2.75168 10.4527 2.75 10.4763 2.75 10.5L2.75 10.5017C2.75037 10.6093 2.78544 10.7139 2.85 10.8L5.09987 13.7998Z" fill="#1C1C1C"/>
<path d="M2.85 13.2C2.78509 13.2865 2.75 13.3918 2.75 13.5L2.75002 13.5044C2.75021 13.5266 2.75189 13.5487 2.75503 13.5707C2.77378 13.702 2.84391 13.8204 2.95 13.9C3.03655 13.9649 3.14181 14 3.25 14L3.2544 14C3.27659 13.9998 3.29874 13.9981 3.32071 13.995C3.45199 13.9762 3.57044 13.9061 3.65 13.8L5.9 10.8C5.96491 10.7135 6 10.6082 6 10.5L5.99998 10.4956C5.99979 10.4734 5.99811 10.4513 5.99497 10.4293C5.97622 10.298 5.90609 10.1796 5.8 10.1C5.71345 10.0351 5.60819 10 5.5 10L5.4956 10C5.47341 10.0002 5.45126 10.0019 5.42929 10.005C5.29801 10.0238 5.17956 10.0939 5.1 10.2L2.85 13.2Z" fill="#1C1C1C"/>
<path d="M11.9362 10.9375C12.2914 10.9384 12.5761 11.1508 12.5761 11.1508C12.6624 11.2152 12.7673 11.25 12.875 11.25C12.8818 11.25 12.8887 11.2499 12.8955 11.2496C13.046 11.2434 13.1857 11.1697 13.2758 11.0489C13.3402 10.9626 13.375 10.8577 13.375 10.75L13.375 10.7443C13.3747 10.7221 13.373 10.6999 13.3698 10.678C13.3507 10.5468 13.2802 10.4285 13.1739 10.3492C12.6244 9.93931 11.9388 9.9375 11.9388 9.9375C11.3281 9.9375 10.9324 10.2766 10.9324 10.2766C10.5 10.6473 10.5 11.25 10.5 11.25C10.5 11.8454 11.0522 12.1663 11.0522 12.1663C11.2928 12.3062 11.8476 12.4534 11.8476 12.4534C12.5 12.6266 12.5 12.75 12.5 12.75C12.5 12.912 12.4102 12.9695 12.4102 12.9695C12.2648 13.0625 11.9375 13.0625 11.9375 13.0625C11.5838 13.0616 11.2993 12.8494 11.2993 12.8494C11.2129 12.785 11.1077 12.75 11 12.75C10.9932 12.75 10.9863 12.7501 10.9795 12.7504C10.829 12.7566 10.6893 12.8303 10.5992 12.9511C10.5348 13.0374 10.5 13.1423 10.5 13.25L10.5 13.2557C10.5003 13.2779 10.502 13.3001 10.5052 13.322C10.5243 13.4532 10.5948 13.5715 10.7011 13.6508C11.2505 14.0604 11.9375 14.0625 11.9375 14.0625C12.5574 14.0625 12.9492 13.8118 12.9492 13.8118C13.5 13.4593 13.5 12.75 13.5 12.75C13.5 12.1272 12.9341 11.7904 12.9341 11.7904C12.6815 11.6401 12.104 11.4869 12.104 11.4869C11.5 11.3266 11.5 11.25 11.5 11.25C11.5 10.9375 11.9362 10.9375 11.9362 10.9375Z" fill="#1C1C1C"/>
<path d="M12.5 5.70711V8C12.5 8.27614 12.7239 8.5 13 8.5C13.2761 8.5 13.5 8.27614 13.5 8V5.5C13.5 5.36739 13.4473 5.24021 13.3536 5.14645L9.85355 1.64645C9.75979 1.55268 9.63261 1.5 9.5 1.5L3.5 1.5C3.08579 1.5 2.79289 1.79289 2.79289 1.79289C2.5 2.08579 2.5 2.5 2.5 2.5V8C2.5 8.27614 2.72386 8.5 3 8.5C3.27614 8.5 3.5 8.27614 3.5 8V2.5H9.29289L12.5 5.70711Z" fill="#1C1C1C"/>
<path d="M9.5 6H13C13.2761 6 13.5 5.77614 13.5 5.5C13.5 5.22386 13.2761 5 13 5H10V2C10 1.72386 9.77614 1.5 9.5 1.5C9.22386 1.5 9 1.72386 9 2V5.5C9 5.77614 9.22386 6 9.5 6Z" fill="#1C1C1C"/>
</svg>
