<svg width="16" height="16" viewBox="0 0 16 16" fill="none" xmlns="http://www.w3.org/2000/svg">
<path d="M12.5 5.70711V8C12.5 8.27614 12.7239 8.5 13 8.5C13.2761 8.5 13.5 8.27614 13.5 8V5.5C13.5 5.36739 13.4473 5.24021 13.3536 5.14645L9.85355 1.64645C9.75979 1.55268 9.63261 1.5 9.5 1.5L3.5 1.5C3.08579 1.5 2.79289 1.79289 2.79289 1.79289C2.5 2.08579 2.5 2.5 2.5 2.5V8C2.5 8.27614 2.72386 8.5 3 8.5C3.27614 8.5 3.5 8.27614 3.5 8V2.5H9.29289L12.5 5.70711Z" fill="#1C1C1C"/>
<path d="M9.5 6H13C13.2761 6 13.5 5.77614 13.5 5.5C13.5 5.22386 13.2761 5 13 5H10V2C10 1.72386 9.77614 1.5 9.5 1.5C9.22386 1.5 9 1.72386 9 2V5.5C9 5.77614 9.22386 6 9.5 6Z" fill="#1C1C1C"/>
<path fill-rule="evenodd" clip-rule="evenodd" d="M10 13.5V10.5C10 10.2239 10.2239 10 10.5 10H11.5C11.5 10 12.1213 10 12.5607 10.4393C12.5607 10.4393 13 10.8787 13 11.5C13 11.5 13 12.1213 12.5607 12.5607C12.5607 12.5607 12.1213 13 11.5 13H11V13.5C11 13.7761 10.7761 14 10.5 14C10.2239 14 10 13.7761 10 13.5ZM11.5 12H11V11H11.5C11.5 11 11.7071 11 11.8536 11.1464C11.8536 11.1464 12 11.2929 12 11.5C12 11.5 12 11.7071 11.8536 11.8536C11.8536 11.8536 11.7071 12 11.5 12Z" fill="#1C1C1C"/>
<path d="M7.5 10.5V13.5C7.5 13.7761 7.72386 14 8 14C8.27614 14 8.5 13.7761 8.5 13.5V10.5C8.5 10.2239 8.27614 10 8 10C7.72386 10 7.5 10.2239 7.5 10.5Z" fill="#1C1C1C"/>
<path d="M3.5 14H5.5C5.77614 14 6 13.7761 6 13.5C6 13.2239 5.77614 13 5.5 13H4.43426L5.91603 10.7774C6.0692 10.5476 6.00711 10.2372 5.77735 10.084C5.69522 10.0292 5.59871 10 5.5 10H3.5C3.22386 10 3 10.2239 3 10.5C3 10.7761 3.22386 11 3.5 11H4.56574L3.08397 13.2226C3.02922 13.3048 3 13.4013 3 13.5C3 13.7761 3.22386 14 3.5 14Z" fill="#1C1C1C"/>
</svg>
